<svg width="307" height="101" viewBox="0 0 307 101" fill="none" xmlns="http://www.w3.org/2000/svg">
<path d="M7.5 23.5L43.5 51.5L7.5 79.5" stroke="#06C0B9" stroke-width="10" stroke-linecap="round" stroke-linejoin="round"/>
<path d="M250.901 91.4999V82.1519H273.131V38.1479H253.751V28.7999H283.391V82.1519H304.481V91.4999H250.901ZM277.121 17.5139C274.613 17.5139 272.637 16.8679 271.193 15.5759C269.749 14.2839 269.027 12.5359 269.027 10.3319C269.027 8.05187 269.749 6.26587 271.193 4.97387C272.637 3.60587 274.613 2.92188 277.121 2.92188C279.629 2.92188 281.605 3.60587 283.049 4.97387C284.493 6.26587 285.215 8.05187 285.215 10.3319C285.215 12.5359 284.493 14.2839 283.049 15.5759C281.605 16.8679 279.629 17.5139 277.121 17.5139Z" fill="#1A1D23"/>
<path d="M206.941 92.6398C199.721 92.6398 193.945 90.5118 189.613 86.2558C185.281 81.9238 183.115 76.0718 183.115 68.6998V28.7998H193.375V68.6998C193.375 73.4118 194.591 77.0978 197.023 79.7578C199.455 82.3418 202.761 83.6338 206.941 83.6338C211.197 83.6338 214.541 82.3418 216.973 79.7578C219.481 77.0978 220.735 73.4118 220.735 68.6998V28.7998H230.995V68.6998C230.995 76.0718 228.791 81.9238 224.383 86.2558C219.975 90.5118 214.161 92.6398 206.941 92.6398Z" fill="#1A1D23"/>
<path d="M145.54 91.4999C140.144 91.4999 135.926 90.0559 132.886 87.1679C129.922 84.2799 128.44 80.2139 128.44 74.9699V38.1479H110.77V28.7999H128.44V11.1299H138.7V28.7999H163.78V38.1479H138.7V74.9699C138.7 79.7579 140.98 82.1519 145.54 82.1519H162.64V91.4999H145.54Z" fill="#1A1D23"/>
</svg>
