<svg width="600" height="600" viewBox="0 0 600 600" fill="none" xmlns="http://www.w3.org/2000/svg">
<path d="M553.191 37H46.8085C20.9569 37 0 57.9569 0 83.8085V515.723C0 541.575 20.9569 562.532 46.8085 562.532H553.191C579.043 562.532 600 541.575 600 515.723V83.8085C600 57.9569 579.043 37 553.191 37Z" fill="#06B6AD"/>
<path d="M551.064 54.0215H48.9364C31.3103 54.0215 17.0215 68.3103 17.0215 85.9364V513.596C17.0215 531.222 31.3103 545.511 48.9364 545.511H551.064C568.69 545.511 582.979 531.222 582.979 513.596V85.9364C582.979 68.3103 568.69 54.0215 551.064 54.0215Z" fill="#282C34"/>
<path d="M347.167 174.451V164.167H371.624V115.755H350.302V105.47H382.912V164.167H406.114V174.451H347.167ZM376.013 93.0537C373.254 93.0537 371.08 92.343 369.492 90.9216C367.903 89.5001 367.109 87.577 367.109 85.1523C367.109 82.6439 367.903 80.679 369.492 79.2575C371.08 77.7525 373.254 77 376.013 77C378.773 77 380.947 77.7525 382.535 79.2575C384.124 80.679 384.918 82.6439 384.918 85.1523C384.918 87.577 384.124 89.5001 382.535 90.9216C380.947 92.343 378.773 93.0537 376.013 93.0537Z" fill="#EAE4D4"/>
<path d="M298.804 175.704C290.861 175.704 284.507 173.363 279.741 168.68C274.975 163.914 272.592 157.476 272.592 149.366V105.469H283.88V149.366C283.88 154.55 285.217 158.605 287.893 161.531C290.569 164.374 294.206 165.796 298.804 165.796C303.487 165.796 307.166 164.374 309.841 161.531C312.601 158.605 313.98 154.55 313.98 149.366V105.469H325.268V149.366C325.268 157.476 322.843 163.914 317.994 168.68C313.144 173.363 306.748 175.704 298.804 175.704Z" fill="#EAE4D4"/>
<path d="M231.253 174.452C225.316 174.452 220.676 172.863 217.331 169.686C214.07 166.509 212.44 162.035 212.44 156.266V115.756H193V105.471H212.44V86.0312H223.728V105.471H251.32V115.756H223.728V156.266C223.728 161.534 226.236 164.168 231.253 164.168H250.066V174.452H231.253Z" fill="#EAE4D4"/>
<path d="M535.107 199.234C536.576 199.234 537.766 200.425 537.766 201.894C537.766 203.363 536.576 204.554 535.107 204.554H64.8939C63.4251 204.554 62.2344 203.363 62.2344 201.894C62.2344 200.425 63.4251 199.234 64.8939 199.234H535.107Z" fill="#06B6AD"/>
<path d="M75.5685 281.102C76.476 279.947 78.1484 279.747 79.3033 280.654L94.1969 292.357C94.8385 292.861 95.213 293.632 95.213 294.448C95.213 295.264 94.8385 296.035 94.1969 296.539L79.3033 308.241C78.1484 309.149 76.476 308.948 75.5685 307.793C74.661 306.639 74.8615 304.966 76.0162 304.059L88.2482 294.448L76.0162 284.837C74.8615 283.929 74.661 282.257 75.5685 281.102Z" fill="#06B6AD"/>
<path d="M260.639 282.744H137.234C132.534 282.744 128.724 286.554 128.724 291.255V297.638C128.724 302.338 132.534 306.148 137.234 306.148H260.639C265.339 306.148 269.149 302.338 269.149 297.638V291.255C269.149 286.554 265.339 282.744 260.639 282.744Z" fill="#06B6AD"/>
<path d="M260.915 329H137.511C132.81 329 129 332.81 129 337.511V343.894C129 348.594 132.81 352.404 137.511 352.404H260.915C265.615 352.404 269.426 348.594 269.426 343.894V337.511C269.426 332.81 265.615 329 260.915 329Z" fill="#484F5D"/>
<path d="M260.915 375H137.511C132.81 375 129 378.81 129 383.511V389.894C129 394.594 132.81 398.404 137.511 398.404H260.915C265.615 398.404 269.426 394.594 269.426 389.894V383.511C269.426 378.81 265.615 375 260.915 375Z" fill="#484F5D"/>
<path d="M328.723 443.383H271.276C264.813 443.383 259.574 448.622 259.574 455.085V472.106C259.574 478.569 264.813 483.808 271.276 483.808H328.723C335.186 483.808 340.425 478.569 340.425 472.106V455.085C340.425 448.622 335.186 443.383 328.723 443.383Z" fill="#06B6AD"/>
</svg>
