<svg xmlns="http://www.w3.org/2000/svg" xmlns:xlink="http://www.w3.org/1999/xlink" contentStyleType="text/css" data-diagram-type="DESCRIPTION" height="648px" preserveAspectRatio="none" style="width:2072px;height:648px;background:transparent;" version="1.1" viewBox="0 0 2072 648" width="2072px" zoomAndPan="magnify"><?plantuml 1.2026.6?><defs/><g><g class="title" data-source-line="9"><text fill="#e3e3e3" font-family="Helvetica" font-size="22" font-weight="700" lengthAdjust="spacing" textLength="388.7275" x="840.6362" y="31.9404">drevops/tui - component architecture</text></g><!--cluster Builder--><g class="cluster" data-qualified-name="Builder" data-source-line="11" id="ent0001"><path d="M1398.5,255 L1447.7275,255 A3.75,3.75 0 0 1 1450.2275,257.5 L1457.2275,275 L1477.5,275 A2.5,2.5 0 0 1 1480,277.5 L1480,335.5 A2.5,2.5 0 0 1 1477.5,338 L1398.5,338 A2.5,2.5 0 0 1 1396,335.5 L1396,257.5 A2.5,2.5 0 0 1 1398.5,255" fill="#33351a" style="stroke:#e3e3e3;stroke-width:1;"/><line style="stroke:#e3e3e3;stroke-width:1;" x1="1396" x2="1457.2275" y1="275" y2="275"/><text fill="#e3e3e3" font-family="Helvetica" font-size="14" font-weight="700" lengthAdjust="spacing" textLength="48.2275" x="1400" y="267.7803">Builder</text></g><!--cluster Model--><g class="cluster" data-qualified-name="Model" data-source-line="15" id="ent0003"><path d="M1223.5,362 L1264.9414,362 A3.75,3.75 0 0 1 1267.4414,364.5 L1274.4414,382 L1362.5,382 A2.5,2.5 0 0 1 1365,384.5 L1365,630.5 A2.5,2.5 0 0 1 1362.5,633 L1223.5,633 A2.5,2.5 0 0 1 1221,630.5 L1221,364.5 A2.5,2.5 0 0 1 1223.5,362" fill="#193249" style="stroke:#e3e3e3;stroke-width:1;"/><line style="stroke:#e3e3e3;stroke-width:1;" x1="1221" x2="1274.4414" y1="382" y2="382"/><text fill="#e3e3e3" font-family="Helvetica" font-size="14" font-weight="700" lengthAdjust="spacing" textLength="40.4414" x="1225" y="374.7803">Model</text></g><!--cluster Core--><g class="cluster" data-qualified-name="Core" data-source-line="21" id="ent0007"><path d="M1524.5,148 L1557.3965,148 A3.75,3.75 0 0 1 1559.8965,150.5 L1566.8965,168 L1615.5,168 A2.5,2.5 0 0 1 1618,170.5 L1618,228.5 A2.5,2.5 0 0 1 1615.5,231 L1524.5,231 A2.5,2.5 0 0 1 1522,228.5 L1522,150.5 A2.5,2.5 0 0 1 1524.5,148" fill="#40301b" style="stroke:#e3e3e3;stroke-width:1;"/><line style="stroke:#e3e3e3;stroke-width:1;" x1="1522" x2="1566.8965" y1="168" y2="168"/><text fill="#e3e3e3" font-family="Helvetica" font-size="14" font-weight="700" lengthAdjust="spacing" textLength="31.8965" x="1526" y="160.7803">Core</text></g><!--cluster Resolution--><g class="cluster" data-qualified-name="Resolution" data-source-line="25" id="ent0009"><path d="M1556.5,255 L1629.8311,255 A3.75,3.75 0 0 1 1632.3311,257.5 L1639.3311,275 L2054.5,275 A2.5,2.5 0 0 1 2057,277.5 L2057,536.5 A2.5,2.5 0 0 1 2054.5,539 L1556.5,539 A2.5,2.5 0 0 1 1554,536.5 L1554,257.5 A2.5,2.5 0 0 1 1556.5,255" fill="#1b3423" style="stroke:#e3e3e3;stroke-width:1;"/><line style="stroke:#e3e3e3;stroke-width:1;" x1="1554" x2="1639.3311" y1="275" y2="275"/><text fill="#e3e3e3" font-family="Helvetica" font-size="14" font-weight="700" lengthAdjust="spacing" textLength="72.3311" x="1558" y="267.7803">Resolution</text></g><!--cluster Handlers--><g class="cluster" data-qualified-name="Handlers" data-source-line="34" id="ent0016"><path d="M658.5,255 L719.4102,255 A3.75,3.75 0 0 1 721.9102,257.5 L728.9102,275 L908.5,275 A2.5,2.5 0 0 1 911,277.5 L911,335.5 A2.5,2.5 0 0 1 908.5,338 L658.5,338 A2.5,2.5 0 0 1 656,335.5 L656,257.5 A2.5,2.5 0 0 1 658.5,255" fill="#332536" style="stroke:#e3e3e3;stroke-width:1;"/><line style="stroke:#e3e3e3;stroke-width:1;" x1="656" x2="728.9102" y1="275" y2="275"/><text fill="#e3e3e3" font-family="Helvetica" font-size="14" font-weight="700" lengthAdjust="spacing" textLength="59.9102" x="660" y="267.7803">Handlers</text></g><!--cluster Output--><g class="cluster" data-qualified-name="Output" data-source-line="39" id="ent0019"><path d="M937.5,255 L984.3691,255 A3.75,3.75 0 0 1 986.8691,257.5 L993.8691,275 L1369.5,275 A2.5,2.5 0 0 1 1372,277.5 L1372,335.5 A2.5,2.5 0 0 1 1369.5,338 L937.5,338 A2.5,2.5 0 0 1 935,335.5 L935,257.5 A2.5,2.5 0 0 1 937.5,255" fill="#282d31" style="stroke:#e3e3e3;stroke-width:1;"/><line style="stroke:#e3e3e3;stroke-width:1;" x1="935" x2="993.8691" y1="275" y2="275"/><text fill="#e3e3e3" font-family="Helvetica" font-size="14" font-weight="700" lengthAdjust="spacing" textLength="45.8691" x="939" y="267.7803">Output</text></g><!--cluster Interactive TUI--><g class="cluster" data-qualified-name="Interactive TUI" data-source-line="45" id="ent0023"><path d="M13.5,54 L110.9756,54 A3.75,3.75 0 0 1 113.4756,56.5 L120.4756,74 L579.5,74 A2.5,2.5 0 0 1 582,76.5 L582,442.5 A2.5,2.5 0 0 1 579.5,445 L13.5,445 A2.5,2.5 0 0 1 11,442.5 L11,56.5 A2.5,2.5 0 0 1 13.5,54" fill="#3b2226" style="stroke:#e3e3e3;stroke-width:1;"/><line style="stroke:#e3e3e3;stroke-width:1;" x1="11" x2="120.4756" y1="74" y2="74"/><text fill="#e3e3e3" font-family="Helvetica" font-size="14" font-weight="700" lengthAdjust="spacing" textLength="96.4756" x="15" y="66.7803">Interactive TUI</text></g><!--entity Form--><g class="entity" data-qualified-name="Builder.Form" data-source-line="12" id="ent0002"><rect fill="#3b3b3d" height="34" rx="2.5" ry="2.5" style="stroke:#e3e3e3;stroke-width:1;" width="52.6621" x="1411.67" y="288"/><text fill="#e3e3e3" font-family="Helvetica" font-size="14" lengthAdjust="spacing" textLength="32.6621" x="1421.67" y="308.7803">Form</text></g><!--entity FormDefinition--><g class="entity" data-qualified-name="Model.FormDefinition" data-source-line="16" id="ent0004"><rect fill="#3b3b3d" height="34" rx="2.5" ry="2.5" style="stroke:#e3e3e3;stroke-width:1;" width="111.0273" x="1237.49" y="395"/><text fill="#e3e3e3" font-family="Helvetica" font-size="14" lengthAdjust="spacing" textLength="91.0273" x="1247.49" y="415.7803">FormDefinition</text></g><!--entity Panel--><g class="entity" data-qualified-name="Model.Panel" data-source-line="17" id="ent0005"><rect fill="#3b3b3d" height="34" rx="2.5" ry="2.5" style="stroke:#e3e3e3;stroke-width:1;" width="55.8066" x="1265.1" y="489"/><text fill="#e3e3e3" font-family="Helvetica" font-size="14" lengthAdjust="spacing" textLength="35.8066" x="1275.1" y="509.7803">Panel</text></g><!--entity Field--><g class="entity" data-qualified-name="Model.Field" data-source-line="18" id="ent0006"><rect fill="#3b3b3d" height="34" rx="2.5" ry="2.5" style="stroke:#e3e3e3;stroke-width:1;" width="50.3447" x="1267.83" y="583"/><text fill="#e3e3e3" font-family="Helvetica" font-size="14" lengthAdjust="spacing" textLength="30.3447" x="1277.83" y="603.7803">Field</text></g><!--entity Engine--><g class="entity" data-qualified-name="Core.Engine" data-source-line="22" id="ent0008"><rect fill="#3b3b3d" height="34" rx="2.5" ry="2.5" style="stroke:#e3e3e3;stroke-width:1;" width="63.5928" x="1538.2" y="181"/><text fill="#e3e3e3" font-family="Helvetica" font-size="14" lengthAdjust="spacing" textLength="43.5928" x="1548.2" y="201.7803">Engine</text></g><!--entity InputResolver--><g class="entity" data-qualified-name="Resolution.InputResolver" data-source-line="26" id="ent0010"><rect fill="#3b3b3d" height="34" rx="2.5" ry="2.5" style="stroke:#e3e3e3;stroke-width:1;" width="106.3789" x="1569.81" y="288"/><text fill="#e3e3e3" font-family="Helvetica" font-size="14" lengthAdjust="spacing" textLength="86.3789" x="1579.81" y="308.7803">InputResolver</text></g><!--entity Discover specs--><g class="entity" data-qualified-name="Resolution.Discover specs" data-source-line="27" id="ent0011"><rect fill="#3b3b3d" height="34" rx="2.5" ry="2.5" style="stroke:#e3e3e3;stroke-width:1;" width="114.917" x="1711.54" y="288"/><text fill="#e3e3e3" font-family="Helvetica" font-size="14" lengthAdjust="spacing" textLength="94.917" x="1721.54" y="308.7803">Discover specs</text></g><!--entity Deriver--><g class="entity" data-qualified-name="Resolution.Deriver" data-source-line="28" id="ent0012"><rect fill="#3b3b3d" height="34" rx="2.5" ry="2.5" style="stroke:#e3e3e3;stroke-width:1;" width="65.1172" x="1861.44" y="288"/><text fill="#e3e3e3" font-family="Helvetica" font-size="14" lengthAdjust="spacing" textLength="45.1172" x="1871.44" y="308.7803">Deriver</text></g><!--entity Derive--><g class="entity" data-qualified-name="Resolution.Derive" data-source-line="29" id="ent0013"><rect fill="#3b3b3d" height="34" rx="2.5" ry="2.5" style="stroke:#e3e3e3;stroke-width:1;" width="60.4551" x="1863.77" y="395"/><text fill="#e3e3e3" font-family="Helvetica" font-size="14" lengthAdjust="spacing" textLength="40.4551" x="1873.77" y="415.7803">Derive</text></g><!--entity Transform--><g class="entity" data-qualified-name="Resolution.Transform" data-source-line="30" id="ent0014"><rect fill="#3b3b3d" height="34" rx="2.5" ry="2.5" style="stroke:#e3e3e3;stroke-width:1;" width="83.7861" x="1852.11" y="489"/><text fill="#e3e3e3" font-family="Helvetica" font-size="14" lengthAdjust="spacing" textLength="63.7861" x="1862.11" y="509.7803">Transform</text></g><!--entity Condition--><g class="entity" data-qualified-name="Resolution.Condition" data-source-line="31" id="ent0015"><rect fill="#3b3b3d" height="34" rx="2.5" ry="2.5" style="stroke:#e3e3e3;stroke-width:1;" width="79.1514" x="1961.42" y="288"/><text fill="#e3e3e3" font-family="Helvetica" font-size="14" lengthAdjust="spacing" textLength="59.1514" x="1971.42" y="308.7803">Condition</text></g><!--entity HandlerRegistry--><g class="entity" data-qualified-name="Handlers.HandlerRegistry" data-source-line="35" id="ent0017"><rect fill="#3b3b3d" height="34" rx="2.5" ry="2.5" style="stroke:#e3e3e3;stroke-width:1;" width="120.3721" x="671.81" y="288"/><text fill="#e3e3e3" font-family="Helvetica" font-size="14" lengthAdjust="spacing" textLength="100.3721" x="681.81" y="308.7803">HandlerRegistry</text></g><!--entity Context--><g class="entity" data-qualified-name="Handlers.Context" data-source-line="36" id="ent0018"><rect fill="#3b3b3d" height="34" rx="2.5" ry="2.5" style="stroke:#e3e3e3;stroke-width:1;" width="68.248" x="826.88" y="288"/><text fill="#e3e3e3" font-family="Helvetica" font-size="14" lengthAdjust="spacing" textLength="48.248" x="836.88" y="308.7803">Context</text></g><!--entity Answers--><g class="entity" data-qualified-name="Output.Answers" data-source-line="40" id="ent0020"><rect fill="#3b3b3d" height="34" rx="2.5" ry="2.5" style="stroke:#e3e3e3;stroke-width:1;" width="73.6826" x="951.16" y="288"/><text fill="#e3e3e3" font-family="Helvetica" font-size="14" lengthAdjust="spacing" textLength="53.6826" x="961.16" y="308.7803">Answers</text></g><!--entity SchemaGenerator--><g class="entity" data-qualified-name="Output.SchemaGenerator" data-source-line="41" id="ent0021"><rect fill="#3b3b3d" height="34" rx="2.5" ry="2.5" style="stroke:#e3e3e3;stroke-width:1;" width="134.3926" x="1059.8" y="288"/><text fill="#e3e3e3" font-family="Helvetica" font-size="14" lengthAdjust="spacing" textLength="114.3926" x="1069.8" y="308.7803">SchemaGenerator</text></g><!--entity SchemaValidator--><g class="entity" data-qualified-name="Output.SchemaValidator" data-source-line="42" id="ent0022"><rect fill="#3b3b3d" height="34" rx="2.5" ry="2.5" style="stroke:#e3e3e3;stroke-width:1;" width="126.6133" x="1229.69" y="288"/><text fill="#e3e3e3" font-family="Helvetica" font-size="14" lengthAdjust="spacing" textLength="106.6133" x="1239.69" y="308.7803">SchemaValidator</text></g><!--entity PanelController--><g class="entity" data-qualified-name="Interactive TUI.PanelController" data-source-line="46" id="ent0024"><rect fill="#3b3b3d" height="34" rx="2.5" ry="2.5" style="stroke:#e3e3e3;stroke-width:1;" width="116.4961" x="349.75" y="87"/><text fill="#e3e3e3" font-family="Helvetica" font-size="14" lengthAdjust="spacing" textLength="96.4961" x="359.75" y="107.7803">PanelController</text></g><!--entity ThemeManager--><g class="entity" data-qualified-name="Interactive TUI.ThemeManager" data-source-line="47" id="ent0025"><rect fill="#3b3b3d" height="34" rx="2.5" ry="2.5" style="stroke:#e3e3e3;stroke-width:1;" width="118.8271" x="447.59" y="288"/><text fill="#e3e3e3" font-family="Helvetica" font-size="14" lengthAdjust="spacing" textLength="98.8271" x="457.59" y="308.7803">ThemeManager</text></g><!--entity Theme--><g class="entity" data-qualified-name="Interactive TUI.Theme" data-source-line="48" id="ent0026"><rect fill="#3b3b3d" height="34" rx="2.5" ry="2.5" style="stroke:#e3e3e3;stroke-width:1;" width="63.5723" x="380.21" y="395"/><text fill="#e3e3e3" font-family="Helvetica" font-size="14" lengthAdjust="spacing" textLength="43.5723" x="390.21" y="415.7803">Theme</text></g><!--entity KeyMapManager--><g class="entity" data-qualified-name="Interactive TUI.KeyMapManager" data-source-line="49" id="ent0027"><rect fill="#3b3b3d" height="34" rx="2.5" ry="2.5" style="stroke:#e3e3e3;stroke-width:1;" width="126.6133" x="26.69" y="288"/><text fill="#e3e3e3" font-family="Helvetica" font-size="14" lengthAdjust="spacing" textLength="106.6133" x="36.69" y="308.7803">KeyMapManager</text></g><!--entity KeyMap--><g class="entity" data-qualified-name="Interactive TUI.KeyMap" data-source-line="50" id="ent0028"><rect fill="#3b3b3d" height="34" rx="2.5" ry="2.5" style="stroke:#e3e3e3;stroke-width:1;" width="71.3584" x="171.32" y="395"/><text fill="#e3e3e3" font-family="Helvetica" font-size="14" lengthAdjust="spacing" textLength="51.3584" x="181.32" y="415.7803">KeyMap</text></g><!--entity WidgetFactory--><g class="entity" data-qualified-name="Interactive TUI.WidgetFactory" data-source-line="51" id="ent0029"><rect fill="#3b3b3d" height="34" rx="2.5" ry="2.5" style="stroke:#e3e3e3;stroke-width:1;" width="110.248" x="73.88" y="181"/><text fill="#e3e3e3" font-family="Helvetica" font-size="14" lengthAdjust="spacing" textLength="90.248" x="83.88" y="201.7803">WidgetFactory</text></g><!--entity WidgetInterface--><g class="entity" data-qualified-name="Interactive TUI.WidgetInterface" data-source-line="52" id="ent0030"><ellipse cx="319" cy="305" fill="#3b3b3d" rx="8" ry="8" style="stroke:#e3e3e3;stroke-width:1;"/><text fill="#e3e3e3" font-family="Helvetica" font-size="14" lengthAdjust="spacing" textLength="98.0479" x="269.9761" y="332.7803">WidgetInterface</text></g><!--entity Navigator--><g class="entity" data-qualified-name="Interactive TUI.Navigator" data-source-line="53" id="ent0031"><rect fill="#3b3b3d" height="34" rx="2.5" ry="2.5" style="stroke:#e3e3e3;stroke-width:1;" width="79.917" x="256.04" y="181"/><text fill="#e3e3e3" font-family="Helvetica" font-size="14" lengthAdjust="spacing" textLength="59.917" x="266.04" y="201.7803">Navigator</text></g><!--entity Terminal--><g class="entity" data-qualified-name="Interactive TUI.Terminal" data-source-line="54" id="ent0032"><rect fill="#3b3b3d" height="34" rx="2.5" ry="2.5" style="stroke:#e3e3e3;stroke-width:1;" width="74.4551" x="370.77" y="181"/><text fill="#e3e3e3" font-family="Helvetica" font-size="14" lengthAdjust="spacing" textLength="54.4551" x="380.77" y="201.7803">Terminal</text></g><!--entity KeyParser--><g class="entity" data-qualified-name="Interactive TUI.KeyParser" data-source-line="55" id="ent0033"><rect fill="#3b3b3d" height="34" rx="2.5" ry="2.5" style="stroke:#e3e3e3;stroke-width:1;" width="85.3584" x="480.32" y="181"/><text fill="#e3e3e3" font-family="Helvetica" font-size="14" lengthAdjust="spacing" textLength="65.3584" x="490.32" y="201.7803">KeyParser</text></g><!--link Form to FormDefinition--><g class="link" data-entity-1="ent0002" data-entity-2="ent0004" data-link-type="dependency" data-source-line="58" id="lnk34"><path d="M1415.34,322.41 C1388.1,342.13 1346.7193,372.0969 1319.5493,391.7769" fill="none" id="Form-to-FormDefinition" style="stroke:#e3e3e3;stroke-width:1;"/><polygon fill="#e3e3e3" points="1315.5,394.71,1325.1353,392.67,1319.5493,391.7769,1320.4424,386.191,1315.5,394.71" style="stroke:#e3e3e3;stroke-width:1;stroke-linejoin:miter;stroke-miterlimit:10;"/></g><!--reverse link FormDefinition to Panel--><g class="link" data-entity-1="ent0004" data-entity-2="ent0005" data-link-type="composition" data-source-line="59" id="lnk35"><path d="M1293,441.45 C1293,458.19 1293,472 1293,488.69" fill="none" id="FormDefinition-backto-Panel" style="stroke:#e3e3e3;stroke-width:1;"/><polygon fill="#e3e3e3" points="1293,429.45,1289,435.45,1293,441.45,1297,435.45,1293,429.45" style="stroke:#e3e3e3;stroke-width:1;stroke-linejoin:miter;stroke-miterlimit:10;"/></g><!--reverse link Panel to Field--><g class="link" data-entity-1="ent0005" data-entity-2="ent0006" data-link-type="composition" data-source-line="60" id="lnk36"><path d="M1293,535.45 C1293,552.19 1293,566 1293,582.69" fill="none" id="Panel-backto-Field" style="stroke:#e3e3e3;stroke-width:1;"/><polygon fill="#e3e3e3" points="1293,523.45,1289,529.45,1293,535.45,1297,529.45,1293,523.45" style="stroke:#e3e3e3;stroke-width:1;stroke-linejoin:miter;stroke-miterlimit:10;"/></g><!--link Engine to FormDefinition--><g class="link" data-entity-1="ent0008" data-entity-2="ent0004" data-link-type="dependency" data-source-line="62" id="lnk37"><path d="M1564.33,215.21 C1553,245.29 1524.75,309.96 1480,346 C1441.99,376.61 1393.4942,392.1904 1353.4942,400.9504" fill="none" id="Engine-to-FormDefinition" style="stroke:#e3e3e3;stroke-width:1;"/><polygon fill="#e3e3e3" points="1348.61,402.02,1358.2574,404.002,1353.4942,400.9504,1356.5459,396.1872,1348.61,402.02" style="stroke:#e3e3e3;stroke-width:1;stroke-linejoin:miter;stroke-miterlimit:10;"/></g><!--link Engine to InputResolver--><g class="link" data-entity-1="ent0008" data-entity-2="ent0010" data-link-type="dependency" data-source-line="63" id="lnk38"><path d="M1578.28,215.41 C1588.24,235.13 1602.5976,263.5661 1612.5276,283.2461" fill="none" id="Engine-to-InputResolver" style="stroke:#e3e3e3;stroke-width:1;"/><polygon fill="#e3e3e3" points="1614.78,287.71,1614.2969,277.873,1612.5276,283.2461,1607.1546,281.4768,1614.78,287.71" style="stroke:#e3e3e3;stroke-width:1;stroke-linejoin:miter;stroke-miterlimit:10;"/></g><!--link Engine to Discover specs--><g class="link" data-entity-1="ent0008" data-entity-2="ent0011" data-link-type="dependency" data-source-line="64" id="lnk39"><path d="M1602.19,208.69 C1627.89,217.08 1664.38,230.45 1694,247 C1714.7,258.57 1732.1937,272.0896 1746.7837,284.4396" fill="none" id="Engine-to-Discover specs" style="stroke:#e3e3e3;stroke-width:1;"/><polygon fill="#e3e3e3" points="1750.6,287.67,1746.3149,278.8022,1746.7837,284.4396,1741.1463,284.9083,1750.6,287.67" style="stroke:#e3e3e3;stroke-width:1;stroke-linejoin:miter;stroke-miterlimit:10;"/></g><!--link Engine to Deriver--><g class="link" data-entity-1="ent0008" data-entity-2="ent0012" data-link-type="dependency" data-source-line="65" id="lnk40"><path d="M1602.27,201.95 C1665.46,208.15 1802.95,223.93 1844,247 C1861.21,256.68 1872.6378,270.4256 1881.4578,283.5956" fill="none" id="Engine-to-Deriver" style="stroke:#e3e3e3;stroke-width:1;"/><polygon fill="#e3e3e3" points="1884.24,287.75,1882.5555,278.0463,1881.4578,283.5956,1875.9085,282.4978,1884.24,287.75" style="stroke:#e3e3e3;stroke-width:1;stroke-linejoin:miter;stroke-miterlimit:10;"/></g><!--link Deriver to Derive--><g class="link" data-entity-1="ent0012" data-entity-2="ent0013" data-link-type="dependency" data-source-line="66" id="lnk41"><path d="M1894,322.41 C1894,342.13 1894,370.03 1894,389.71" fill="none" id="Deriver-to-Derive" style="stroke:#e3e3e3;stroke-width:1;"/><polygon fill="#e3e3e3" points="1894,394.71,1898,385.71,1894,389.71,1890,385.71,1894,394.71" style="stroke:#e3e3e3;stroke-width:1;stroke-linejoin:miter;stroke-miterlimit:10;"/></g><!--link Derive to Transform--><g class="link" data-entity-1="ent0013" data-entity-2="ent0014" data-link-type="dependency" data-source-line="67" id="lnk42"><path d="M1894,429.45 C1894,446.19 1894,467 1894,483.69" fill="none" id="Derive-to-Transform" style="stroke:#e3e3e3;stroke-width:1;"/><polygon fill="#e3e3e3" points="1894,488.69,1898,479.69,1894,483.69,1890,479.69,1894,488.69" style="stroke:#e3e3e3;stroke-width:1;stroke-linejoin:miter;stroke-miterlimit:10;"/></g><!--link Engine to Condition--><g class="link" data-entity-1="ent0008" data-entity-2="ent0015" data-link-type="dependency" data-source-line="68" id="lnk43"><path d="M1602.02,200.46 C1681.17,204.5 1883.92,217.49 1944,247 C1962.84,256.25 1976.11,270.2757 1986.41,283.5857" fill="none" id="Engine-to-Condition" style="stroke:#e3e3e3;stroke-width:1;"/><polygon fill="#e3e3e3" points="1989.47,287.54,1987.1254,277.9743,1986.41,283.5857,1980.7985,282.8703,1989.47,287.54" style="stroke:#e3e3e3;stroke-width:1;stroke-linejoin:miter;stroke-miterlimit:10;"/></g><!--link Engine to HandlerRegistry--><g class="link" data-entity-1="ent0008" data-entity-2="ent0017" data-link-type="dependency" data-source-line="69" id="lnk44"><path d="M1538.07,198.63 C1411.6,197.51 946.1,196.94 809,247 C785.25,255.67 766.2118,270.7246 751.6918,284.3046" fill="none" id="Engine-to-HandlerRegistry" style="stroke:#e3e3e3;stroke-width:1;"/><polygon fill="#e3e3e3" points="748.04,287.72,757.3455,284.4938,751.6918,284.3046,751.8809,278.651,748.04,287.72" style="stroke:#e3e3e3;stroke-width:1;stroke-linejoin:miter;stroke-miterlimit:10;"/></g><!--link Engine to Answers--><g class="link" data-entity-1="ent0008" data-entity-2="ent0020" data-link-type="dependency" data-source-line="70" id="lnk45"><path d="M1537.78,198.99 C1437.15,199.4 1130.2,204.23 1042,247 C1023.48,255.98 1010.9216,270.1281 1001.3516,283.5581" fill="none" id="Engine-to-Answers" style="stroke:#e3e3e3;stroke-width:1;"/><polygon fill="#e3e3e3" points="998.45,287.63,1006.9304,282.6218,1001.3516,283.5581,1000.4153,277.9792,998.45,287.63" style="stroke:#e3e3e3;stroke-width:1;stroke-linejoin:miter;stroke-miterlimit:10;"/></g><!--link SchemaGenerator to FormDefinition--><g class="link" data-entity-1="ent0021" data-entity-2="ent0004" data-link-type="dependency" data-source-line="72" id="lnk46"><path d="M1152.94,322.41 C1184.03,342.07 1231.6149,372.1663 1262.7449,391.8663" fill="none" id="SchemaGenerator-to-FormDefinition" style="stroke:#e3e3e3;stroke-width:1;"/><polygon fill="#e3e3e3" points="1266.97,394.54,1261.5039,386.3472,1262.7449,391.8663,1257.2259,393.1073,1266.97,394.54" style="stroke:#e3e3e3;stroke-width:1;stroke-linejoin:miter;stroke-miterlimit:10;"/></g><!--link SchemaValidator to FormDefinition--><g class="link" data-entity-1="ent0022" data-entity-2="ent0004" data-link-type="dependency" data-source-line="73" id="lnk47"><path d="M1293,322.41 C1293,342.13 1293,370.03 1293,389.71" fill="none" id="SchemaValidator-to-FormDefinition" style="stroke:#e3e3e3;stroke-width:1;"/><polygon fill="#e3e3e3" points="1293,394.71,1297,385.71,1293,389.71,1289,385.71,1293,394.71" style="stroke:#e3e3e3;stroke-width:1;stroke-linejoin:miter;stroke-miterlimit:10;"/></g><!--link PanelController to FormDefinition--><g class="link" data-entity-1="ent0024" data-entity-2="ent0004" data-link-type="dependency" data-source-line="75" id="lnk48"><path d="M466.35,110.47 C510.26,115.7 565.73,125.04 583,140 C656.42,203.6 579.62,285.99 656,346 C701.26,381.56 1085.275,401.9069 1232.165,408.4669" fill="none" id="PanelController-to-FormDefinition" style="stroke:#e3e3e3;stroke-width:1;"/><polygon fill="#e3e3e3" points="1237.16,408.69,1228.3474,404.2924,1232.165,408.4669,1227.9905,412.2845,1237.16,408.69" style="stroke:#e3e3e3;stroke-width:1;stroke-linejoin:miter;stroke-miterlimit:10;"/></g><!--link PanelController to Engine--><g class="link" data-entity-1="ent0024" data-entity-2="ent0008" data-link-type="dependency" data-source-line="76" id="lnk49"><path d="M466.44,109.4 C553.35,115.95 721.81,128.73 865,140 C1124.83,160.45 1433.4469,185.7597 1533.0469,193.9597" fill="none" id="PanelController-to-Engine" style="stroke:#e3e3e3;stroke-width:1;"/><polygon fill="#e3e3e3" points="1538.03,194.37,1529.3886,189.645,1533.0469,193.9597,1528.7321,197.618,1538.03,194.37" style="stroke:#e3e3e3;stroke-width:1;stroke-linejoin:miter;stroke-miterlimit:10;"/></g><!--link ThemeManager to Theme--><g class="link" data-entity-1="ent0025" data-entity-2="ent0026" data-link-type="dependency" data-source-line="77" id="lnk50"><path d="M492.16,322.41 C474.31,342.13 447.894,371.3218 430.094,391.0018" fill="none" id="ThemeManager-to-Theme" style="stroke:#e3e3e3;stroke-width:1;"/><polygon fill="#e3e3e3" points="426.74,394.71,435.7437,390.7184,430.094,391.0018,429.8106,385.352,426.74,394.71" style="stroke:#e3e3e3;stroke-width:1;stroke-linejoin:miter;stroke-miterlimit:10;"/></g><!--link PanelController to Theme--><g class="link" data-entity-1="ent0024" data-entity-2="ent0026" data-link-type="dependency" data-source-line="78" id="lnk51"><path d="M349.3,109.39 C306.2,113.98 252.86,122.98 239,140 C211.22,174.12 208.7,207.1 239,239 C250.88,251.5 381.46,235.16 394,247 C434.83,285.53 424.7815,356.3206 417.3215,389.6706" fill="none" id="PanelController-to-Theme" style="stroke:#e3e3e3;stroke-width:1;"/><polygon fill="#e3e3e3" points="416.23,394.55,422.0982,386.6402,417.3215,389.6706,414.2911,384.8939,416.23,394.55" style="stroke:#e3e3e3;stroke-width:1;stroke-linejoin:miter;stroke-miterlimit:10;"/></g><!--link KeyMapManager to KeyMap--><g class="link" data-entity-1="ent0027" data-entity-2="ent0028" data-link-type="dependency" data-source-line="79" id="lnk52"><path d="M108.28,322.41 C130.26,342.13 163.1987,371.6905 185.1287,391.3705" fill="none" id="KeyMapManager-to-KeyMap" style="stroke:#e3e3e3;stroke-width:1;"/><polygon fill="#e3e3e3" points="188.85,394.71,184.8233,385.7219,185.1287,391.3705,179.4801,391.676,188.85,394.71" style="stroke:#e3e3e3;stroke-width:1;stroke-linejoin:miter;stroke-miterlimit:10;"/></g><!--link PanelController to KeyMap--><g class="link" data-entity-1="ent0024" data-entity-2="ent0028" data-link-type="dependency" data-source-line="80" id="lnk53"><path d="M349.27,106.62 C254.21,109.85 75.27,118.72 56,140 C26.47,172.62 25.99,206.83 56,239 C73.47,257.73 151.61,230.26 171,247 C173.83,249.45 194.3215,348.7407 202.6815,389.7607" fill="none" id="PanelController-to-KeyMap" style="stroke:#e3e3e3;stroke-width:1;"/><polygon fill="#e3e3e3" points="203.68,394.66,205.8021,385.0425,202.6815,389.7607,197.9633,386.6401,203.68,394.66" style="stroke:#e3e3e3;stroke-width:1;stroke-linejoin:miter;stroke-miterlimit:10;"/></g><!--link PanelController to WidgetFactory--><g class="link" data-entity-1="ent0024" data-entity-2="ent0029" data-link-type="dependency" data-source-line="81" id="lnk54"><path d="M349.26,108.79 C309.09,112.96 255.31,121.7 211,140 C187.12,149.86 167.1097,164.3594 151.3397,177.4294" fill="none" id="PanelController-to-WidgetFactory" style="stroke:#e3e3e3;stroke-width:1;"/><polygon fill="#e3e3e3" points="147.49,180.62,156.9719,177.9567,151.3397,177.4294,151.867,171.7972,147.49,180.62" style="stroke:#e3e3e3;stroke-width:1;stroke-linejoin:miter;stroke-miterlimit:10;"/></g><!--link WidgetFactory to KeyMap--><g class="link" data-entity-1="ent0029" data-entity-2="ent0028" data-link-type="dependency" data-source-line="82" id="lnk55"><path d="M164.91,215.43 C177.59,223.14 190.53,233.62 198,247 C224.81,295.06 217.2325,358.9558 211.4225,389.9058" fill="none" id="WidgetFactory-to-KeyMap" style="stroke:#e3e3e3;stroke-width:1;"/><polygon fill="#e3e3e3" points="210.5,394.82,216.0918,386.7125,211.4225,389.9058,208.2292,385.2365,210.5,394.82" style="stroke:#e3e3e3;stroke-width:1;stroke-linejoin:miter;stroke-miterlimit:10;"/></g><!--link WidgetFactory to HandlerRegistry--><g class="link" data-entity-1="ent0029" data-entity-2="ent0017" data-link-type="dependency" data-source-line="83" id="lnk56"><path d="M164.83,215.39 C185.94,224.19 213.44,234.19 239,239 C313.93,253.1 507.18,232.36 582,247 C623.69,255.16 664.4011,271.7228 694.1811,285.4828" fill="none" id="WidgetFactory-to-HandlerRegistry" style="stroke:#e3e3e3;stroke-width:1;"/><polygon fill="#e3e3e3" points="698.72,287.58,692.2278,280.1739,694.1811,285.4828,688.8722,287.4361,698.72,287.58" style="stroke:#e3e3e3;stroke-width:1;stroke-linejoin:miter;stroke-miterlimit:10;"/></g><!--link WidgetFactory to WidgetInterface--><g class="link" data-entity-1="ent0029" data-entity-2="ent0030" data-link-type="dependency" data-source-line="84" id="lnk57"><path d="M160.1,215.37 C175.24,223.03 193.84,231.99 211,239 C221.41,243.25 224.92,242.02 235,247 C264.39,261.52 291.4997,281.914 306.2697,293.684" fill="none" id="WidgetFactory-to-WidgetInterface" style="stroke:#e3e3e3;stroke-width:1;"/><polygon fill="#e3e3e3" points="310.18,296.8,305.6343,288.0629,306.2697,293.684,300.6487,294.3193,310.18,296.8" style="stroke:#e3e3e3;stroke-width:1;stroke-linejoin:miter;stroke-miterlimit:10;"/></g><!--link WidgetInterface to Theme--><g class="link" data-entity-1="ent0030" data-entity-2="ent0026" data-link-type="dependency" data-source-line="85" id="lnk58"><path d="M325.99,313.89 C341.11,330.97 373.8249,367.897 394.1249,390.817" fill="none" id="WidgetInterface-to-Theme" style="stroke:#e3e3e3;stroke-width:1;"/><polygon fill="#e3e3e3" points="397.44,394.56,394.4672,385.1705,394.1249,390.817,388.4784,390.4747,397.44,394.56" style="stroke:#e3e3e3;stroke-width:1;stroke-linejoin:miter;stroke-miterlimit:10;"/></g><!--link WidgetInterface to KeyMap--><g class="link" data-entity-1="ent0030" data-entity-2="ent0028" data-link-type="dependency" data-source-line="86" id="lnk59"><path d="M310.58,313.89 C292.37,330.97 252.6278,368.2204 228.1778,391.1404" fill="none" id="WidgetInterface-to-KeyMap" style="stroke:#e3e3e3;stroke-width:1;"/><polygon fill="#e3e3e3" points="224.53,394.56,233.8317,391.3231,228.1778,391.1404,228.3604,385.4865,224.53,394.56" style="stroke:#e3e3e3;stroke-width:1;stroke-linejoin:miter;stroke-miterlimit:10;"/></g><!--link PanelController to Navigator--><g class="link" data-entity-1="ent0024" data-entity-2="ent0031" data-link-type="dependency" data-source-line="87" id="lnk60"><path d="M379.49,121.49 C370.71,126.99 361.21,133.41 353,140 C337.5,152.43 325.0545,164.9388 314.0145,176.8788" fill="none" id="PanelController-to-Navigator" style="stroke:#e3e3e3;stroke-width:1;"/><polygon fill="#e3e3e3" points="310.62,180.55,319.667,176.6574,314.0145,176.8788,313.7931,171.2263,310.62,180.55" style="stroke:#e3e3e3;stroke-width:1;stroke-linejoin:miter;stroke-miterlimit:10;"/></g><!--link PanelController to Terminal--><g class="link" data-entity-1="ent0024" data-entity-2="ent0032" data-link-type="dependency" data-source-line="88" id="lnk61"><path d="M408,121.45 C408,138.19 408,159 408,175.69" fill="none" id="PanelController-to-Terminal" style="stroke:#e3e3e3;stroke-width:1;"/><polygon fill="#e3e3e3" points="408,180.69,412,171.69,408,175.69,404,171.69,408,180.69" style="stroke:#e3e3e3;stroke-width:1;stroke-linejoin:miter;stroke-miterlimit:10;"/></g><!--link PanelController to KeyParser--><g class="link" data-entity-1="ent0024" data-entity-2="ent0033" data-link-type="dependency" data-source-line="89" id="lnk62"><path d="M436.13,121.44 C444.97,126.99 454.62,133.45 463,140 C479.08,152.56 492.2761,165.1631 503.9661,177.0631" fill="none" id="PanelController-to-KeyParser" style="stroke:#e3e3e3;stroke-width:1;"/><polygon fill="#e3e3e3" points="507.47,180.63,504.0164,171.4065,503.9661,177.0631,498.3094,177.0128,507.47,180.63" style="stroke:#e3e3e3;stroke-width:1;stroke-linejoin:miter;stroke-miterlimit:10;"/></g><!--link PanelController to Answers--><g class="link" data-entity-1="ent0024" data-entity-2="ent0020" data-link-type="dependency" data-source-line="90" id="lnk63"><path d="M466.74,109.79 C515.18,114.66 585.38,123.85 645,140 C768,173.32 799.78,184.81 911,247 C931.9,258.69 949.7768,272.098 964.8068,284.368" fill="none" id="PanelController-to-Answers" style="stroke:#e3e3e3;stroke-width:1;"/><polygon fill="#e3e3e3" points="968.68,287.53,964.2378,278.7399,964.8068,284.368,959.1786,284.937,968.68,287.53" style="stroke:#e3e3e3;stroke-width:1;stroke-linejoin:miter;stroke-miterlimit:10;"/></g><?plantuml-src ZLDTJzim57tFhxXZ3qX8fMmTqZwaIQF4K4rb23hsCF5WujlKmh4ZssbNJVlli-CcSz96x2dsFUUU-v7ZOs0QrweqOrjn646cYb99b1QepbRSOcOhZQV9CTpIx9dcQA3WMYiDTeLWT3O6KpqnhXrHQOxcaqlKQcF0hDIc9XMKIs1OecGeCqVnQdUOeqHDBGAkKM_X_k4ADjokFWAKWafR5G96rgnpO2epuxYRySbfwU3abLClqDEvJCmpboNLj80drsYkLINPL0dNwCOdHZZ39Qs49KhQ6-hohr6iqVACHXopeanjkCnXIOM9izi5tTkjGF1pKvaBJ2otxlu_sqoICkmIZYugBXZg8tXDpiYxwGH-9m0_YTB5O_8duiqLG-5OwOIy9PV_M9Uuv99RhkIZ3zrIYQ8-4Ow2TJMcIgClHCWaFGiIgSovn2xj3eqIbPVqzTwJy_H38CzaMTaQTJ-iBdB9JQRS1Ko9cGaXrBo5wtDzN6WgpR8UozscIh9Tqt7bQogPG6ryavFqd9o7khkmSmmtLcyR1Ok_R3V_MsLTXxxhQKh8cv3zHPgDqwopxZDd67eLZATq57kWWhCGYnLdhegccNLZmEBxhDvUUf6cGRhUjkz4Ao5sCo-y9UTKklGeK9--udPEonWBaVhuWxCSBQ7-5TKZSbzwIJE40CsQksVVq3NFsn4Mg0ikgMWqRwas62O9LeBHwFE-N_e1E1cDMWljlY6sCrFI-6L0huFstD85-yRfeOs7sbCSRyExQ6IjhapaiYwmPwWkt3ecsJFCmE1z3nsc9Nk66P0xJ6lUQjTYknq4amraDcZNW05hB3YG-WBSSstltfCu1Ex_YWEi_WFetJj37iHUc29wJKCRR5_Oy9wQLpV0Q5pr5m00?></g></svg>