<svg xmlns="http://www.w3.org/2000/svg" xmlns:xlink="http://www.w3.org/1999/xlink" contentStyleType="text/css" data-diagram-type="DESCRIPTION" height="564px" preserveAspectRatio="none" style="width:1854px;height:564px;background:#FFFFFF;" version="1.1" viewBox="0 0 1854 564" width="1854px" zoomAndPan="magnify"><?plantuml 1.2026.6?><defs/><g><g class="title" data-source-line="9"><text fill="#000000" font-family="Helvetica" font-size="22" font-weight="700" lengthAdjust="spacing" textLength="388.7275" x="731.6362" y="31.9404">drevops/tui - component architecture</text></g><!--cluster Builder--><g class="cluster" data-qualified-name="Builder" data-source-line="11" id="ent0001"><path d="M719.5,161 L768.7275,161 A3.75,3.75 0 0 1 771.2275,163.5 L778.2275,181 L798.5,181 A2.5,2.5 0 0 1 801,183.5 L801,241.5 A2.5,2.5 0 0 1 798.5,244 L719.5,244 A2.5,2.5 0 0 1 717,241.5 L717,163.5 A2.5,2.5 0 0 1 719.5,161" fill="#F0F4C3" style="stroke:#000000;stroke-width:1;"/><line style="stroke:#000000;stroke-width:1;" x1="717" x2="778.2275" y1="181" y2="181"/><text fill="#000000" font-family="Helvetica" font-size="14" font-weight="700" lengthAdjust="spacing" textLength="48.2275" x="721" y="173.7803">Builder</text></g><!--cluster Model--><g class="cluster" data-qualified-name="Model" data-source-line="15" id="ent0003"><path d="M947.5,268 L988.9414,268 A3.75,3.75 0 0 1 991.4414,270.5 L998.4414,288 L1086.5,288 A2.5,2.5 0 0 1 1089,290.5 L1089,546.5 A2.5,2.5 0 0 1 1086.5,549 L947.5,549 A2.5,2.5 0 0 1 945,546.5 L945,270.5 A2.5,2.5 0 0 1 947.5,268" fill="#E3F2FD" style="stroke:#000000;stroke-width:1;"/><line style="stroke:#000000;stroke-width:1;" x1="945" x2="998.4414" y1="288" y2="288"/><text fill="#000000" font-family="Helvetica" font-size="14" font-weight="700" lengthAdjust="spacing" textLength="40.4414" x="949" y="280.7803">Model</text></g><!--cluster Core--><g class="cluster" data-qualified-name="Core" data-source-line="21" id="ent0007"><path d="M1359.5,54 L1392.3965,54 A3.75,3.75 0 0 1 1394.8965,56.5 L1401.8965,74 L1450.5,74 A2.5,2.5 0 0 1 1453,76.5 L1453,134.5 A2.5,2.5 0 0 1 1450.5,137 L1359.5,137 A2.5,2.5 0 0 1 1357,134.5 L1357,56.5 A2.5,2.5 0 0 1 1359.5,54" fill="#FFF3E0" style="stroke:#000000;stroke-width:1;"/><line style="stroke:#000000;stroke-width:1;" x1="1357" x2="1401.8965" y1="74" y2="74"/><text fill="#000000" font-family="Helvetica" font-size="14" font-weight="700" lengthAdjust="spacing" textLength="31.8965" x="1361" y="66.7803">Core</text></g><!--cluster Resolution--><g class="cluster" data-qualified-name="Resolution" data-source-line="25" id="ent0009"><path d="M1338.5,161 L1411.8311,161 A3.75,3.75 0 0 1 1414.3311,163.5 L1421.3311,181 L1836.5,181 A2.5,2.5 0 0 1 1839,183.5 L1839,452.5 A2.5,2.5 0 0 1 1836.5,455 L1338.5,455 A2.5,2.5 0 0 1 1336,452.5 L1336,163.5 A2.5,2.5 0 0 1 1338.5,161" fill="#E8F5E9" style="stroke:#000000;stroke-width:1;"/><line style="stroke:#000000;stroke-width:1;" x1="1336" x2="1421.3311" y1="181" y2="181"/><text fill="#000000" font-family="Helvetica" font-size="14" font-weight="700" lengthAdjust="spacing" textLength="72.3311" x="1340" y="173.7803">Resolution</text></g><!--cluster Handlers--><g class="cluster" data-qualified-name="Handlers" data-source-line="34" id="ent0016"><path d="M608.5,268 L669.4102,268 A3.75,3.75 0 0 1 671.9102,270.5 L678.9102,288 L858.5,288 A2.5,2.5 0 0 1 861,290.5 L861,348.5 A2.5,2.5 0 0 1 858.5,351 L608.5,351 A2.5,2.5 0 0 1 606,348.5 L606,270.5 A2.5,2.5 0 0 1 608.5,268" fill="#F3E5F5" style="stroke:#000000;stroke-width:1;"/><line style="stroke:#000000;stroke-width:1;" x1="606" x2="678.9102" y1="288" y2="288"/><text fill="#000000" font-family="Helvetica" font-size="14" font-weight="700" lengthAdjust="spacing" textLength="59.9102" x="610" y="280.7803">Handlers</text></g><!--cluster Output--><g class="cluster" data-qualified-name="Output" data-source-line="39" id="ent0019"><path d="M827.5,161 L874.3691,161 A3.75,3.75 0 0 1 876.8691,163.5 L883.8691,181 L1259.5,181 A2.5,2.5 0 0 1 1262,183.5 L1262,241.5 A2.5,2.5 0 0 1 1259.5,244 L827.5,244 A2.5,2.5 0 0 1 825,241.5 L825,163.5 A2.5,2.5 0 0 1 827.5,161" fill="#ECEFF1" style="stroke:#000000;stroke-width:1;"/><line style="stroke:#000000;stroke-width:1;" x1="825" x2="883.8691" y1="181" y2="181"/><text fill="#000000" font-family="Helvetica" font-size="14" font-weight="700" lengthAdjust="spacing" textLength="45.8691" x="829" y="173.7803">Output</text></g><!--cluster Interactive TUI--><g class="cluster" data-qualified-name="Interactive TUI" data-source-line="45" id="ent0023"><path d="M13.5,54 L110.9756,54 A3.75,3.75 0 0 1 113.4756,56.5 L120.4756,74 L579.5,74 A2.5,2.5 0 0 1 582,76.5 L582,452.5 A2.5,2.5 0 0 1 579.5,455 L13.5,455 A2.5,2.5 0 0 1 11,452.5 L11,56.5 A2.5,2.5 0 0 1 13.5,54" fill="#FFEBEE" style="stroke:#000000;stroke-width:1;"/><line style="stroke:#000000;stroke-width:1;" x1="11" x2="120.4756" y1="74" y2="74"/><text fill="#000000" font-family="Helvetica" font-size="14" font-weight="700" lengthAdjust="spacing" textLength="96.4756" x="15" y="66.7803">Interactive TUI</text></g><!--entity Form--><g class="entity" data-qualified-name="Builder.Form" data-source-line="12" id="ent0002"><rect fill="#FFFFFF" height="34" rx="2.5" ry="2.5" style="stroke:#000000;stroke-width:1;" width="52.6621" x="732.67" y="194"/><text fill="#000000" font-family="Helvetica" font-size="14" lengthAdjust="spacing" textLength="32.6621" x="742.67" y="214.7803">Form</text></g><!--entity FormDefinition--><g class="entity" data-qualified-name="Model.FormDefinition" data-source-line="16" id="ent0004"><rect fill="#FFFFFF" height="34" rx="2.5" ry="2.5" style="stroke:#000000;stroke-width:1;" width="111.0273" x="961.49" y="301"/><text fill="#000000" font-family="Helvetica" font-size="14" lengthAdjust="spacing" textLength="91.0273" x="971.49" y="321.7803">FormDefinition</text></g><!--entity Panel--><g class="entity" data-qualified-name="Model.Panel" data-source-line="17" id="ent0005"><rect fill="#FFFFFF" height="34" rx="2.5" ry="2.5" style="stroke:#000000;stroke-width:1;" width="55.8066" x="989.1" y="405"/><text fill="#000000" font-family="Helvetica" font-size="14" lengthAdjust="spacing" textLength="35.8066" x="999.1" y="425.7803">Panel</text></g><!--entity Field--><g class="entity" data-qualified-name="Model.Field" data-source-line="18" id="ent0006"><rect fill="#FFFFFF" height="34" rx="2.5" ry="2.5" style="stroke:#000000;stroke-width:1;" width="50.3447" x="991.83" y="499"/><text fill="#000000" font-family="Helvetica" font-size="14" lengthAdjust="spacing" textLength="30.3447" x="1001.83" y="519.7803">Field</text></g><!--entity Engine--><g class="entity" data-qualified-name="Core.Engine" data-source-line="22" id="ent0008"><rect fill="#FFFFFF" height="34" rx="2.5" ry="2.5" style="stroke:#000000;stroke-width:1;" width="63.5928" x="1373.2" y="87"/><text fill="#000000" font-family="Helvetica" font-size="14" lengthAdjust="spacing" textLength="43.5928" x="1383.2" y="107.7803">Engine</text></g><!--entity InputResolver--><g class="entity" data-qualified-name="Resolution.InputResolver" data-source-line="26" id="ent0010"><rect fill="#FFFFFF" height="34" rx="2.5" ry="2.5" style="stroke:#000000;stroke-width:1;" width="106.3789" x="1351.81" y="194"/><text fill="#000000" font-family="Helvetica" font-size="14" lengthAdjust="spacing" textLength="86.3789" x="1361.81" y="214.7803">InputResolver</text></g><!--entity Discover specs--><g class="entity" data-qualified-name="Resolution.Discover specs" data-source-line="27" id="ent0011"><rect fill="#FFFFFF" height="34" rx="2.5" ry="2.5" style="stroke:#000000;stroke-width:1;" width="114.917" x="1493.54" y="194"/><text fill="#000000" font-family="Helvetica" font-size="14" lengthAdjust="spacing" textLength="94.917" x="1503.54" y="214.7803">Discover specs</text></g><!--entity Deriver--><g class="entity" data-qualified-name="Resolution.Deriver" data-source-line="28" id="ent0012"><rect fill="#FFFFFF" height="34" rx="2.5" ry="2.5" style="stroke:#000000;stroke-width:1;" width="65.1172" x="1643.44" y="194"/><text fill="#000000" font-family="Helvetica" font-size="14" lengthAdjust="spacing" textLength="45.1172" x="1653.44" y="214.7803">Deriver</text></g><!--entity Derive--><g class="entity" data-qualified-name="Resolution.Derive" data-source-line="29" id="ent0013"><rect fill="#FFFFFF" height="34" rx="2.5" ry="2.5" style="stroke:#000000;stroke-width:1;" width="60.4551" x="1645.77" y="301"/><text fill="#000000" font-family="Helvetica" font-size="14" lengthAdjust="spacing" textLength="40.4551" x="1655.77" y="321.7803">Derive</text></g><!--entity Transform--><g class="entity" data-qualified-name="Resolution.Transform" data-source-line="30" id="ent0014"><rect fill="#FFFFFF" height="34" rx="2.5" ry="2.5" style="stroke:#000000;stroke-width:1;" width="83.7861" x="1634.11" y="405"/><text fill="#000000" font-family="Helvetica" font-size="14" lengthAdjust="spacing" textLength="63.7861" x="1644.11" y="425.7803">Transform</text></g><!--entity Condition--><g class="entity" data-qualified-name="Resolution.Condition" data-source-line="31" id="ent0015"><rect fill="#FFFFFF" height="34" rx="2.5" ry="2.5" style="stroke:#000000;stroke-width:1;" width="79.1514" x="1743.42" y="194"/><text fill="#000000" font-family="Helvetica" font-size="14" lengthAdjust="spacing" textLength="59.1514" x="1753.42" y="214.7803">Condition</text></g><!--entity HandlerRegistry--><g class="entity" data-qualified-name="Handlers.HandlerRegistry" data-source-line="35" id="ent0017"><rect fill="#FFFFFF" height="34" rx="2.5" ry="2.5" style="stroke:#000000;stroke-width:1;" width="120.3721" x="621.81" y="301"/><text fill="#000000" font-family="Helvetica" font-size="14" lengthAdjust="spacing" textLength="100.3721" x="631.81" y="321.7803">HandlerRegistry</text></g><!--entity Context--><g class="entity" data-qualified-name="Handlers.Context" data-source-line="36" id="ent0018"><rect fill="#FFFFFF" height="34" rx="2.5" ry="2.5" style="stroke:#000000;stroke-width:1;" width="68.248" x="776.88" y="301"/><text fill="#000000" font-family="Helvetica" font-size="14" lengthAdjust="spacing" textLength="48.248" x="786.88" y="321.7803">Context</text></g><!--entity Answers--><g class="entity" data-qualified-name="Output.Answers" data-source-line="40" id="ent0020"><rect fill="#FFFFFF" height="34" rx="2.5" ry="2.5" style="stroke:#000000;stroke-width:1;" width="73.6826" x="841.16" y="194"/><text fill="#000000" font-family="Helvetica" font-size="14" lengthAdjust="spacing" textLength="53.6826" x="851.16" y="214.7803">Answers</text></g><!--entity SchemaGenerator--><g class="entity" data-qualified-name="Output.SchemaGenerator" data-source-line="41" id="ent0021"><rect fill="#FFFFFF" height="34" rx="2.5" ry="2.5" style="stroke:#000000;stroke-width:1;" width="134.3926" x="949.8" y="194"/><text fill="#000000" font-family="Helvetica" font-size="14" lengthAdjust="spacing" textLength="114.3926" x="959.8" y="214.7803">SchemaGenerator</text></g><!--entity SchemaValidator--><g class="entity" data-qualified-name="Output.SchemaValidator" data-source-line="42" id="ent0022"><rect fill="#FFFFFF" height="34" rx="2.5" ry="2.5" style="stroke:#000000;stroke-width:1;" width="126.6133" x="1119.69" y="194"/><text fill="#000000" font-family="Helvetica" font-size="14" lengthAdjust="spacing" textLength="106.6133" x="1129.69" y="214.7803">SchemaValidator</text></g><!--entity PanelController--><g class="entity" data-qualified-name="Interactive TUI.PanelController" data-source-line="46" id="ent0024"><rect fill="#FFFFFF" height="34" rx="2.5" ry="2.5" style="stroke:#000000;stroke-width:1;" width="116.4961" x="335.75" y="87"/><text fill="#000000" font-family="Helvetica" font-size="14" lengthAdjust="spacing" textLength="96.4961" x="345.75" y="107.7803">PanelController</text></g><!--entity ThemeManager--><g class="entity" data-qualified-name="Interactive TUI.ThemeManager" data-source-line="47" id="ent0025"><rect fill="#FFFFFF" height="34" rx="2.5" ry="2.5" style="stroke:#000000;stroke-width:1;" width="118.8271" x="447.59" y="301"/><text fill="#000000" font-family="Helvetica" font-size="14" lengthAdjust="spacing" textLength="98.8271" x="457.59" y="321.7803">ThemeManager</text></g><!--entity Theme--><g class="entity" data-qualified-name="Interactive TUI.Theme" data-source-line="48" id="ent0026"><rect fill="#FFFFFF" height="34" rx="2.5" ry="2.5" style="stroke:#000000;stroke-width:1;" width="63.5723" x="380.21" y="405"/><text fill="#000000" font-family="Helvetica" font-size="14" lengthAdjust="spacing" textLength="43.5723" x="390.21" y="425.7803">Theme</text></g><!--entity KeyMapManager--><g class="entity" data-qualified-name="Interactive TUI.KeyMapManager" data-source-line="49" id="ent0027"><rect fill="#FFFFFF" height="34" rx="2.5" ry="2.5" style="stroke:#000000;stroke-width:1;" width="126.6133" x="100.69" y="301"/><text fill="#000000" font-family="Helvetica" font-size="14" lengthAdjust="spacing" textLength="106.6133" x="110.69" y="321.7803">KeyMapManager</text></g><!--entity KeyMap--><g class="entity" data-qualified-name="Interactive TUI.KeyMap" data-source-line="50" id="ent0028"><rect fill="#FFFFFF" height="34" rx="2.5" ry="2.5" style="stroke:#000000;stroke-width:1;" width="71.3584" x="78.32" y="405"/><text fill="#000000" font-family="Helvetica" font-size="14" lengthAdjust="spacing" textLength="51.3584" x="88.32" y="425.7803">KeyMap</text></g><!--entity WidgetFactory--><g class="entity" data-qualified-name="Interactive TUI.WidgetFactory" data-source-line="51" id="ent0029"><rect fill="#FFFFFF" height="34" rx="2.5" ry="2.5" style="stroke:#000000;stroke-width:1;" width="110.248" x="293.88" y="194"/><text fill="#000000" font-family="Helvetica" font-size="14" lengthAdjust="spacing" textLength="90.248" x="303.88" y="214.7803">WidgetFactory</text></g><!--entity WidgetInterface--><g class="entity" data-qualified-name="Interactive TUI.WidgetInterface" data-source-line="52" id="ent0030"><ellipse cx="319" cy="318" fill="#FFFFFF" rx="8" ry="8" style="stroke:#000000;stroke-width:1;"/><text fill="#000000" font-family="Helvetica" font-size="14" lengthAdjust="spacing" textLength="98.0479" x="269.9761" y="345.7803">WidgetInterface</text></g><!--entity Navigator--><g class="entity" data-qualified-name="Interactive TUI.Navigator" data-source-line="53" id="ent0031"><rect fill="#FFFFFF" height="34" rx="2.5" ry="2.5" style="stroke:#000000;stroke-width:1;" width="79.917" x="476.04" y="194"/><text fill="#000000" font-family="Helvetica" font-size="14" lengthAdjust="spacing" textLength="59.917" x="486.04" y="214.7803">Navigator</text></g><!--entity Terminal--><g class="entity" data-qualified-name="Interactive TUI.Terminal" data-source-line="54" id="ent0032"><rect fill="#FFFFFF" height="34" rx="2.5" ry="2.5" style="stroke:#000000;stroke-width:1;" width="74.4551" x="26.77" y="194"/><text fill="#000000" font-family="Helvetica" font-size="14" lengthAdjust="spacing" textLength="54.4551" x="36.77" y="214.7803">Terminal</text></g><!--entity KeyParser--><g class="entity" data-qualified-name="Interactive TUI.KeyParser" data-source-line="55" id="ent0033"><rect fill="#FFFFFF" height="34" rx="2.5" ry="2.5" style="stroke:#000000;stroke-width:1;" width="85.3584" x="136.32" y="194"/><text fill="#000000" font-family="Helvetica" font-size="14" lengthAdjust="spacing" textLength="65.3584" x="146.32" y="214.7803">KeyParser</text></g><!--link Form to FormDefinition--><g class="link" data-entity-1="ent0002" data-entity-2="ent0004" data-link-type="dependency" data-source-line="58" id="lnk34"><path d="M781.85,228.4 C794.13,236.54 809.83,245.91 825,252 C840.21,258.11 845.27,255.4 861,260 C900.85,271.65 940.5774,286.3988 971.7774,298.6788" fill="none" id="Form-to-FormDefinition" style="stroke:#000000;stroke-width:1;"/><polygon fill="#000000" points="976.43,300.51,969.5203,293.4917,971.7774,298.6788,966.5904,300.9359,976.43,300.51" style="stroke:#000000;stroke-width:1;stroke-linejoin:miter;stroke-miterlimit:10;"/></g><!--reverse link FormDefinition to Panel--><g class="link" data-entity-1="ent0004" data-entity-2="ent0005" data-link-type="composition" data-source-line="59" id="lnk35"><path d="M1017,347.39 C1017,366.42 1017,385.64 1017,404.65" fill="none" id="FormDefinition-backto-Panel" style="stroke:#000000;stroke-width:1;"/><polygon fill="#000000" points="1017,335.39,1013,341.39,1017,347.39,1021,341.39,1017,335.39" style="stroke:#000000;stroke-width:1;stroke-linejoin:miter;stroke-miterlimit:10;"/></g><!--reverse link Panel to Field--><g class="link" data-entity-1="ent0005" data-entity-2="ent0006" data-link-type="composition" data-source-line="60" id="lnk36"><path d="M1017,451.45 C1017,468.19 1017,482 1017,498.69" fill="none" id="Panel-backto-Field" style="stroke:#000000;stroke-width:1;"/><polygon fill="#000000" points="1017,439.45,1013,445.45,1017,451.45,1021,445.45,1017,439.45" style="stroke:#000000;stroke-width:1;stroke-linejoin:miter;stroke-miterlimit:10;"/></g><!--link Engine to FormDefinition--><g class="link" data-entity-1="ent0008" data-entity-2="ent0004" data-link-type="dependency" data-source-line="62" id="lnk37"><path d="M1377.26,121.37 C1364.01,129.9 1348.38,141.03 1336,153 C1296.5,191.18 1307.52,221.25 1262,252 C1204.75,290.68 1130.5341,305.7615 1077.8641,312.1115" fill="none" id="Engine-to-FormDefinition" style="stroke:#000000;stroke-width:1;"/><polygon fill="#000000" points="1072.9,312.71,1082.3141,315.604,1077.8641,312.1115,1081.3565,307.6615,1072.9,312.71" style="stroke:#000000;stroke-width:1;stroke-linejoin:miter;stroke-miterlimit:10;"/></g><!--link Engine to InputResolver--><g class="link" data-entity-1="ent0008" data-entity-2="ent0010" data-link-type="dependency" data-source-line="63" id="lnk38"><path d="M1405,121.41 C1405,141.13 1405,169.03 1405,188.71" fill="none" id="Engine-to-InputResolver" style="stroke:#000000;stroke-width:1;"/><polygon fill="#000000" points="1405,193.71,1409,184.71,1405,188.71,1401,184.71,1405,193.71" style="stroke:#000000;stroke-width:1;stroke-linejoin:miter;stroke-miterlimit:10;"/></g><!--link Engine to Discover specs--><g class="link" data-entity-1="ent0008" data-entity-2="ent0011" data-link-type="dependency" data-source-line="64" id="lnk39"><path d="M1429.88,121.33 C1443.6,130.46 1460.89,142.16 1476,153 C1494.61,166.34 1511.3391,179.0756 1526.2691,190.6556" fill="none" id="Engine-to-Discover specs" style="stroke:#000000;stroke-width:1;"/><polygon fill="#000000" points="1530.22,193.72,1525.5599,185.0434,1526.2691,190.6556,1520.6569,191.3648,1530.22,193.72" style="stroke:#000000;stroke-width:1;stroke-linejoin:miter;stroke-miterlimit:10;"/></g><!--link Engine to Deriver--><g class="link" data-entity-1="ent0008" data-entity-2="ent0012" data-link-type="dependency" data-source-line="65" id="lnk40"><path d="M1437.28,105.77 C1482.46,108.18 1565.78,117.53 1626,153 C1642.9,162.95 1654.2557,176.4973 1663.1357,189.5373" fill="none" id="Engine-to-Deriver" style="stroke:#000000;stroke-width:1;"/><polygon fill="#000000" points="1665.95,193.67,1664.1904,183.9796,1663.1357,189.5373,1657.578,188.4825,1665.95,193.67" style="stroke:#000000;stroke-width:1;stroke-linejoin:miter;stroke-miterlimit:10;"/></g><!--link Deriver to Derive--><g class="link" data-entity-1="ent0012" data-entity-2="ent0013" data-link-type="dependency" data-source-line="66" id="lnk41"><path d="M1676,228.41 C1676,248.13 1676,276.03 1676,295.71" fill="none" id="Deriver-to-Derive" style="stroke:#000000;stroke-width:1;"/><polygon fill="#000000" points="1676,300.71,1680,291.71,1676,295.71,1672,291.71,1676,300.71" style="stroke:#000000;stroke-width:1;stroke-linejoin:miter;stroke-miterlimit:10;"/></g><!--link Derive to Transform--><g class="link" data-entity-1="ent0013" data-entity-2="ent0014" data-link-type="dependency" data-source-line="67" id="lnk42"><path d="M1676,335.39 C1676,354.42 1676,380.64 1676,399.65" fill="none" id="Derive-to-Transform" style="stroke:#000000;stroke-width:1;"/><polygon fill="#000000" points="1676,404.65,1680,395.65,1676,399.65,1672,395.65,1676,404.65" style="stroke:#000000;stroke-width:1;stroke-linejoin:miter;stroke-miterlimit:10;"/></g><!--link Engine to Condition--><g class="link" data-entity-1="ent0008" data-entity-2="ent0015" data-link-type="dependency" data-source-line="68" id="lnk43"><path d="M1437.14,107.24 C1508.06,112.61 1675.68,127.64 1726,153 C1744.75,162.45 1758.0158,176.4468 1768.3458,189.6968" fill="none" id="Engine-to-Condition" style="stroke:#000000;stroke-width:1;"/><polygon fill="#000000" points="1771.42,193.64,1769.041,184.0828,1768.3458,189.6968,1762.7318,189.0016,1771.42,193.64" style="stroke:#000000;stroke-width:1;stroke-linejoin:miter;stroke-miterlimit:10;"/></g><!--link Engine to HandlerRegistry--><g class="link" data-entity-1="ent0008" data-entity-2="ent0017" data-link-type="dependency" data-source-line="69" id="lnk44"><path d="M1372.74,105.01 C1243.39,105.37 766.95,109.62 717,153 C673.81,190.51 675.7828,262.0868 679.2728,295.6468" fill="none" id="Engine-to-HandlerRegistry" style="stroke:#000000;stroke-width:1;"/><polygon fill="#000000" points="679.79,300.62,682.8376,291.2545,679.2728,295.6468,674.8805,292.082,679.79,300.62" style="stroke:#000000;stroke-width:1;stroke-linejoin:miter;stroke-miterlimit:10;"/></g><!--link Engine to Answers--><g class="link" data-entity-1="ent0008" data-entity-2="ent0020" data-link-type="dependency" data-source-line="70" id="lnk45"><path d="M1372.87,105.38 C1279.52,106.93 1009.97,114.68 932,153 C913.53,162.08 900.9679,176.2126 891.3879,189.6126" fill="none" id="Engine-to-Answers" style="stroke:#000000;stroke-width:1;"/><polygon fill="#000000" points="888.48,193.68,896.9682,188.6849,891.3879,189.6126,890.4603,184.0323,888.48,193.68" style="stroke:#000000;stroke-width:1;stroke-linejoin:miter;stroke-miterlimit:10;"/></g><!--link SchemaGenerator to FormDefinition--><g class="link" data-entity-1="ent0021" data-entity-2="ent0004" data-link-type="dependency" data-source-line="72" id="lnk46"><path d="M1017,228.41 C1017,248.13 1017,276.03 1017,295.71" fill="none" id="SchemaGenerator-to-FormDefinition" style="stroke:#000000;stroke-width:1;"/><polygon fill="#000000" points="1017,300.71,1021,291.71,1017,295.71,1013,291.71,1017,300.71" style="stroke:#000000;stroke-width:1;stroke-linejoin:miter;stroke-miterlimit:10;"/></g><!--link SchemaValidator to FormDefinition--><g class="link" data-entity-1="ent0022" data-entity-2="ent0004" data-link-type="dependency" data-source-line="73" id="lnk47"><path d="M1157.06,228.41 C1125.97,248.07 1078.3851,278.1663 1047.2551,297.8663" fill="none" id="SchemaValidator-to-FormDefinition" style="stroke:#000000;stroke-width:1;"/><polygon fill="#000000" points="1043.03,300.54,1052.7741,299.1073,1047.2551,297.8663,1048.4961,292.3472,1043.03,300.54" style="stroke:#000000;stroke-width:1;stroke-linejoin:miter;stroke-miterlimit:10;"/></g><!--link PanelController to FormDefinition--><g class="link" data-entity-1="ent0024" data-entity-2="ent0004" data-link-type="dependency" data-source-line="75" id="lnk48"><path d="M452.57,115.44 C488.4,123.1 534.58,135.28 573,153 C643.53,185.53 643.5,226.91 717,252 C747.33,262.35 829.61,253.54 861,260 C903.65,268.77 945.6744,285.0369 976.7344,298.5369" fill="none" id="PanelController-to-FormDefinition" style="stroke:#000000;stroke-width:1;"/><polygon fill="#000000" points="981.32,300.53,974.6604,293.274,976.7344,298.5369,971.4715,300.6109,981.32,300.53" style="stroke:#000000;stroke-width:1;stroke-linejoin:miter;stroke-miterlimit:10;"/></g><!--link ThemeManager to Theme--><g class="link" data-entity-1="ent0025" data-entity-2="ent0026" data-link-type="dependency" data-source-line="76" id="lnk49"><path d="M491.74,335.39 C474.01,354.42 448.3482,381.9816 430.6382,400.9916" fill="none" id="ThemeManager-to-Theme" style="stroke:#000000;stroke-width:1;"/><polygon fill="#000000" points="427.23,404.65,436.2915,400.7914,430.6382,400.9916,430.4381,395.3383,427.23,404.65" style="stroke:#000000;stroke-width:1;stroke-linejoin:miter;stroke-miterlimit:10;"/></g><!--link PanelController to Theme--><g class="link" data-entity-1="ent0024" data-entity-2="ent0026" data-link-type="dependency" data-source-line="77" id="lnk50"><path d="M406.46,121.35 C412.43,130.2 418.93,141.64 422,153 C434.91,200.76 420.0503,348.9204 414.4403,399.5804" fill="none" id="PanelController-to-Theme" style="stroke:#000000;stroke-width:1;"/><polygon fill="#000000" points="413.89,404.55,418.8563,396.0449,414.4403,399.5804,410.9049,395.1644,413.89,404.55" style="stroke:#000000;stroke-width:1;stroke-linejoin:miter;stroke-miterlimit:10;"/></g><!--link KeyMapManager to KeyMap--><g class="link" data-entity-1="ent0027" data-entity-2="ent0028" data-link-type="dependency" data-source-line="78" id="lnk51"><path d="M155.97,335.39 C146.64,354.42 133.543,381.1515 124.213,400.1615" fill="none" id="KeyMapManager-to-KeyMap" style="stroke:#000000;stroke-width:1;"/><polygon fill="#000000" points="122.01,404.65,129.5661,398.333,124.213,400.1615,122.3845,394.8083,122.01,404.65" style="stroke:#000000;stroke-width:1;stroke-linejoin:miter;stroke-miterlimit:10;"/></g><!--link PanelController to KeyMap--><g class="link" data-entity-1="ent0024" data-entity-2="ent0028" data-link-type="dependency" data-source-line="79" id="lnk52"><path d="M335.55,118.22 C314.51,125.49 292.03,136.5 276,153 C243.26,186.69 276.99,224.37 239,252 C222.81,263.77 72.84,245.53 59,260 C28.59,291.8 43.38,317.86 59,359 C65.89,377.16 77.0929,390.0658 89.6529,401.3658" fill="none" id="PanelController-to-KeyMap" style="stroke:#000000;stroke-width:1;"/><polygon fill="#000000" points="93.37,404.71,89.3546,395.7168,89.6529,401.3658,84.004,401.6641,93.37,404.71" style="stroke:#000000;stroke-width:1;stroke-linejoin:miter;stroke-miterlimit:10;"/></g><!--link PanelController to WidgetFactory--><g class="link" data-entity-1="ent0024" data-entity-2="ent0029" data-link-type="dependency" data-source-line="80" id="lnk53"><path d="M386.97,121.41 C378.51,141.13 366.3788,169.4339 357.9488,189.1139" fill="none" id="PanelController-to-WidgetFactory" style="stroke:#000000;stroke-width:1;"/><polygon fill="#000000" points="355.98,193.71,363.2006,187.012,357.9488,189.1139,355.8469,183.862,355.98,193.71" style="stroke:#000000;stroke-width:1;stroke-linejoin:miter;stroke-miterlimit:10;"/></g><!--link WidgetFactory to KeyMap--><g class="link" data-entity-1="ent0029" data-entity-2="ent0028" data-link-type="dependency" data-source-line="81" id="lnk54"><path d="M322.37,228.46 C306.83,237.17 286.5,247.05 267,252 C247.17,257.04 97.15,245.22 83,260 C44.61,300.09 80.023,368.2907 100.353,400.5307" fill="none" id="WidgetFactory-to-KeyMap" style="stroke:#000000;stroke-width:1;"/><polygon fill="#000000" points="103.02,404.76,101.603,395.0136,100.353,400.5307,94.836,399.2807,103.02,404.76" style="stroke:#000000;stroke-width:1;stroke-linejoin:miter;stroke-miterlimit:10;"/></g><!--link WidgetFactory to HandlerRegistry--><g class="link" data-entity-1="ent0029" data-entity-2="ent0017" data-link-type="dependency" data-source-line="82" id="lnk55"><path d="M385.9,228.4 C406.9,236.97 433.94,246.74 459,252 C512.61,263.25 529.53,244.26 582,260 C611.09,268.73 636.7902,284.3279 656.2002,297.8779" fill="none" id="WidgetFactory-to-HandlerRegistry" style="stroke:#000000;stroke-width:1;"/><polygon fill="#000000" points="660.3,300.74,655.21,292.3084,656.2002,297.8779,650.6307,298.8681,660.3,300.74" style="stroke:#000000;stroke-width:1;stroke-linejoin:miter;stroke-miterlimit:10;"/></g><!--link WidgetFactory to WidgetInterface--><g class="link" data-entity-1="ent0029" data-entity-2="ent0030" data-link-type="dependency" data-source-line="83" id="lnk56"><path d="M344.31,228.41 C337.75,251.36 327.4747,287.3527 322.6047,304.3827" fill="none" id="WidgetFactory-to-WidgetInterface" style="stroke:#000000;stroke-width:1;"/><polygon fill="#000000" points="321.23,309.19,327.5503,301.6366,322.6047,304.3827,319.8587,299.4371,321.23,309.19" style="stroke:#000000;stroke-width:1;stroke-linejoin:miter;stroke-miterlimit:10;"/></g><!--link WidgetInterface to Theme--><g class="link" data-entity-1="ent0030" data-entity-2="ent0026" data-link-type="dependency" data-source-line="84" id="lnk57"><path d="M325.99,326.67 C341.03,343.16 373.372,378.6245 393.732,400.9645" fill="none" id="WidgetInterface-to-Theme" style="stroke:#000000;stroke-width:1;"/><polygon fill="#000000" points="397.1,404.66,393.9941,395.3137,393.732,400.9645,388.0812,400.7025,397.1,404.66" style="stroke:#000000;stroke-width:1;stroke-linejoin:miter;stroke-miterlimit:10;"/></g><!--link WidgetInterface to KeyMap--><g class="link" data-entity-1="ent0030" data-entity-2="ent0028" data-link-type="dependency" data-source-line="85" id="lnk58"><path d="M310.42,323.83 C296.71,331.51 268.97,346.86 245,359 C213.24,375.09 181.0996,390.2344 154.6496,402.4444" fill="none" id="WidgetInterface-to-KeyMap" style="stroke:#000000;stroke-width:1;"/><polygon fill="#000000" points="150.11,404.54,159.9579,404.3996,154.6496,402.4444,156.6049,397.1362,150.11,404.54" style="stroke:#000000;stroke-width:1;stroke-linejoin:miter;stroke-miterlimit:10;"/></g><!--link PanelController to Navigator--><g class="link" data-entity-1="ent0024" data-entity-2="ent0031" data-link-type="dependency" data-source-line="86" id="lnk59"><path d="M413.06,121.41 C435.98,141.13 470.4207,170.7679 493.2807,190.4479" fill="none" id="PanelController-to-Navigator" style="stroke:#000000;stroke-width:1;"/><polygon fill="#000000" points="497.07,193.71,492.8591,184.8067,493.2807,190.4479,487.6396,190.8696,497.07,193.71" style="stroke:#000000;stroke-width:1;stroke-linejoin:miter;stroke-miterlimit:10;"/></g><!--link PanelController to Terminal--><g class="link" data-entity-1="ent0024" data-entity-2="ent0032" data-link-type="dependency" data-source-line="87" id="lnk60"><path d="M335.34,104.87 C277.23,107.04 187.28,116.75 119,153 C100.78,162.67 88.0382,176.5862 78.1182,189.7562" fill="none" id="PanelController-to-Terminal" style="stroke:#000000;stroke-width:1;"/><polygon fill="#000000" points="75.11,193.75,83.7199,188.9677,78.1182,189.7562,77.3298,184.1546,75.11,193.75" style="stroke:#000000;stroke-width:1;stroke-linejoin:miter;stroke-miterlimit:10;"/></g><!--link PanelController to KeyParser--><g class="link" data-entity-1="ent0024" data-entity-2="ent0033" data-link-type="dependency" data-source-line="88" id="lnk61"><path d="M335.53,119.1 C308.27,126.97 275.97,138.21 249,153 C228.94,164 212.6404,177.5732 199.2004,190.1532" fill="none" id="PanelController-to-KeyParser" style="stroke:#000000;stroke-width:1;"/><polygon fill="#000000" points="195.55,193.57,204.8542,190.3401,199.2004,190.1532,199.3873,184.4994,195.55,193.57" style="stroke:#000000;stroke-width:1;stroke-linejoin:miter;stroke-miterlimit:10;"/></g><!--link PanelController to Answers--><g class="link" data-entity-1="ent0024" data-entity-2="ent0020" data-link-type="dependency" data-source-line="89" id="lnk62"><path d="M452.51,108.19 C549.48,114.1 738.99,128.43 801,153 C824.19,162.19 842.944,176.8126 857.564,190.1326" fill="none" id="PanelController-to-Answers" style="stroke:#000000;stroke-width:1;"/><polygon fill="#000000" points="861.26,193.5,857.301,184.4819,857.564,190.1326,851.9132,190.3955,861.26,193.5" style="stroke:#000000;stroke-width:1;stroke-linejoin:miter;stroke-miterlimit:10;"/></g><?plantuml-src ZLDTJzim57tFhxXZ3qX8fMmTqZwaIQF4K4rb23hsCF5WujlKmh4ZssbNJVlli-CcSz96x2dsFUUU-v7ZOs0QrweqOrjn646cYb99b1QepbRSOcOhZQV9CTpIx9dcQA3WMYiDTeLWT3O6KpqnhXrHQOxcaqlKQcF0hDIc9XMKIs1OecGeCqVnQdUOeqHDBGAkKM_X_k4ADjokFWAKWafR5G96rgnpO2epuxYRySbfwU3abLClqDEvJCmpboNLj80drsYkLINPL0dNwCOdHZZ39Qs49KhQ6-hohr6iqVACHXopeanjkCnXIOM9izi5tTkjGF1pKvaBJ2otxlu_sqoICkmIZYugBXZg8tXDpiYxwGH-9m0_YTB5O_8duiqLG-5OwOIy9PV_M9Uuv99RhkIZ3zrIYQ8-4Ow2TJMcIgClHCWaFGiIgSovn2xj3eqIbPVqzTwJy_H38CzaMTaQTJ-iBdB9JQRS1Ko9cGaXrBo5wtDzN6WgpR8UozscIh9Tqt7bQogPG6ryavFqd9o7khkmSmmtLcyR1Ok_R3V_MsLTXxxhQKh8cv3zHPgDqwopxZDd67eLZATq57kWWhCGYnLdhegccNLZmEBxhDvUUf6cGRhUjkz4Ao5sCo-y9UTKklGeK9--udPEonWBaVhuWxCSBQ7-5TKZSbzwIJE40CsQksVVq3NFsn4Mg0ikgMWqRwas62O9LeBHwFE-N_e1E1cDMWljlY6sCrFI-6L0huFstD85-yRfeOs7sbCSRyExQ6IjhapaiYwmPwWkt3ecsJFCmE1z3nsc9Nk66P3hU6WtP73HW4A3TXqMiCPZ0walm3rRzkuzYKFW_guFiFeExzqxGnx4NfWYUYv36soVqF2UccSrm6XiynS0?></g></svg>