<svg xmlns="http://www.w3.org/2000/svg" xmlns:xlink="http://www.w3.org/1999/xlink" contentStyleType="text/css" data-diagram-type="DESCRIPTION" height="564px" preserveAspectRatio="none" style="width:2062px;height:564px;background:transparent;" version="1.1" viewBox="0 0 2062 564" width="2062px" zoomAndPan="magnify"><?plantuml 1.2026.6?><defs/><g><g class="title" data-source-line="9"><text fill="#e3e3e3" font-family="Helvetica" font-size="22" font-weight="700" lengthAdjust="spacing" textLength="388.7275" x="835.6362" y="31.9404">drevops/tui - component architecture</text></g><!--cluster Builder--><g class="cluster" data-qualified-name="Builder" data-source-line="11" id="ent0001"><path d="M540.5,161 L589.7275,161 A3.75,3.75 0 0 1 592.2275,163.5 L599.2275,181 L619.5,181 A2.5,2.5 0 0 1 622,183.5 L622,241.5 A2.5,2.5 0 0 1 619.5,244 L540.5,244 A2.5,2.5 0 0 1 538,241.5 L538,163.5 A2.5,2.5 0 0 1 540.5,161" fill="#33351a" style="stroke:#e3e3e3;stroke-width:1;"/><line style="stroke:#e3e3e3;stroke-width:1;" x1="538" x2="599.2275" y1="181" y2="181"/><text fill="#e3e3e3" font-family="Helvetica" font-size="14" font-weight="700" lengthAdjust="spacing" textLength="48.2275" x="542" y="173.7803">Builder</text></g><!--cluster Model--><g class="cluster" data-qualified-name="Model" data-source-line="15" id="ent0003"><path d="M1097.5,268 L1138.9414,268 A3.75,3.75 0 0 1 1141.4414,270.5 L1148.4414,288 L1236.5,288 A2.5,2.5 0 0 1 1239,290.5 L1239,546.5 A2.5,2.5 0 0 1 1236.5,549 L1097.5,549 A2.5,2.5 0 0 1 1095,546.5 L1095,270.5 A2.5,2.5 0 0 1 1097.5,268" fill="#193249" style="stroke:#e3e3e3;stroke-width:1;"/><line style="stroke:#e3e3e3;stroke-width:1;" x1="1095" x2="1148.4414" y1="288" y2="288"/><text fill="#e3e3e3" font-family="Helvetica" font-size="14" font-weight="700" lengthAdjust="spacing" textLength="40.4414" x="1099" y="280.7803">Model</text></g><!--cluster Core--><g class="cluster" data-qualified-name="Core" data-source-line="21" id="ent0007"><path d="M412.5,54 L445.3965,54 A3.75,3.75 0 0 1 447.8965,56.5 L454.8965,74 L503.5,74 A2.5,2.5 0 0 1 506,76.5 L506,134.5 A2.5,2.5 0 0 1 503.5,137 L412.5,137 A2.5,2.5 0 0 1 410,134.5 L410,56.5 A2.5,2.5 0 0 1 412.5,54" fill="#40301b" style="stroke:#e3e3e3;stroke-width:1;"/><line style="stroke:#e3e3e3;stroke-width:1;" x1="410" x2="454.8965" y1="74" y2="74"/><text fill="#e3e3e3" font-family="Helvetica" font-size="14" font-weight="700" lengthAdjust="spacing" textLength="31.8965" x="414" y="66.7803">Core</text></g><!--cluster Resolution--><g class="cluster" data-qualified-name="Resolution" data-source-line="25" id="ent0009"><path d="M13.5,161 L86.8311,161 A3.75,3.75 0 0 1 89.3311,163.5 L96.3311,181 L511.5,181 A2.5,2.5 0 0 1 514,183.5 L514,452.5 A2.5,2.5 0 0 1 511.5,455 L13.5,455 A2.5,2.5 0 0 1 11,452.5 L11,163.5 A2.5,2.5 0 0 1 13.5,161" fill="#1b3423" style="stroke:#e3e3e3;stroke-width:1;"/><line style="stroke:#e3e3e3;stroke-width:1;" x1="11" x2="96.3311" y1="181" y2="181"/><text fill="#e3e3e3" font-family="Helvetica" font-size="14" font-weight="700" lengthAdjust="spacing" textLength="72.3311" x="15" y="173.7803">Resolution</text></g><!--cluster Handlers--><g class="cluster" data-qualified-name="Handlers" data-source-line="34" id="ent0016"><path d="M648.5,161 L709.4102,161 A3.75,3.75 0 0 1 711.9102,163.5 L718.9102,181 L898.5,181 A2.5,2.5 0 0 1 901,183.5 L901,241.5 A2.5,2.5 0 0 1 898.5,244 L648.5,244 A2.5,2.5 0 0 1 646,241.5 L646,163.5 A2.5,2.5 0 0 1 648.5,161" fill="#332536" style="stroke:#e3e3e3;stroke-width:1;"/><line style="stroke:#e3e3e3;stroke-width:1;" x1="646" x2="718.9102" y1="181" y2="181"/><text fill="#e3e3e3" font-family="Helvetica" font-size="14" font-weight="700" lengthAdjust="spacing" textLength="59.9102" x="650" y="173.7803">Handlers</text></g><!--cluster Output--><g class="cluster" data-qualified-name="Output" data-source-line="39" id="ent0019"><path d="M977.5,161 L1024.3691,161 A3.75,3.75 0 0 1 1026.8691,163.5 L1033.8691,181 L1409.5,181 A2.5,2.5 0 0 1 1412,183.5 L1412,241.5 A2.5,2.5 0 0 1 1409.5,244 L977.5,244 A2.5,2.5 0 0 1 975,241.5 L975,163.5 A2.5,2.5 0 0 1 977.5,161" fill="#282d31" style="stroke:#e3e3e3;stroke-width:1;"/><line style="stroke:#e3e3e3;stroke-width:1;" x1="975" x2="1033.8691" y1="181" y2="181"/><text fill="#e3e3e3" font-family="Helvetica" font-size="14" font-weight="700" lengthAdjust="spacing" textLength="45.8691" x="979" y="173.7803">Output</text></g><!--cluster Interactive TUI--><g class="cluster" data-qualified-name="Interactive TUI" data-source-line="45" id="ent0023"><path d="M1478.5,54 L1575.9756,54 A3.75,3.75 0 0 1 1578.4756,56.5 L1585.4756,74 L2044.5,74 A2.5,2.5 0 0 1 2047,76.5 L2047,452.5 A2.5,2.5 0 0 1 2044.5,455 L1478.5,455 A2.5,2.5 0 0 1 1476,452.5 L1476,56.5 A2.5,2.5 0 0 1 1478.5,54" fill="#3b2226" style="stroke:#e3e3e3;stroke-width:1;"/><line style="stroke:#e3e3e3;stroke-width:1;" x1="1476" x2="1585.4756" y1="74" y2="74"/><text fill="#e3e3e3" font-family="Helvetica" font-size="14" font-weight="700" lengthAdjust="spacing" textLength="96.4756" x="1480" y="66.7803">Interactive TUI</text></g><!--entity Form--><g class="entity" data-qualified-name="Builder.Form" data-source-line="12" id="ent0002"><rect fill="#3b3b3d" height="34" rx="2.5" ry="2.5" style="stroke:#e3e3e3;stroke-width:1;" width="52.6621" x="553.67" y="194"/><text fill="#e3e3e3" font-family="Helvetica" font-size="14" lengthAdjust="spacing" textLength="32.6621" x="563.67" y="214.7803">Form</text></g><!--entity FormDefinition--><g class="entity" data-qualified-name="Model.FormDefinition" data-source-line="16" id="ent0004"><rect fill="#3b3b3d" height="34" rx="2.5" ry="2.5" style="stroke:#e3e3e3;stroke-width:1;" width="111.0273" x="1111.49" y="301"/><text fill="#e3e3e3" font-family="Helvetica" font-size="14" lengthAdjust="spacing" textLength="91.0273" x="1121.49" y="321.7803">FormDefinition</text></g><!--entity Panel--><g class="entity" data-qualified-name="Model.Panel" data-source-line="17" id="ent0005"><rect fill="#3b3b3d" height="34" rx="2.5" ry="2.5" style="stroke:#e3e3e3;stroke-width:1;" width="55.8066" x="1139.1" y="405"/><text fill="#e3e3e3" font-family="Helvetica" font-size="14" lengthAdjust="spacing" textLength="35.8066" x="1149.1" y="425.7803">Panel</text></g><!--entity Field--><g class="entity" data-qualified-name="Model.Field" data-source-line="18" id="ent0006"><rect fill="#3b3b3d" height="34" rx="2.5" ry="2.5" style="stroke:#e3e3e3;stroke-width:1;" width="50.3447" x="1141.83" y="499"/><text fill="#e3e3e3" font-family="Helvetica" font-size="14" lengthAdjust="spacing" textLength="30.3447" x="1151.83" y="519.7803">Field</text></g><!--entity Engine--><g class="entity" data-qualified-name="Core.Engine" data-source-line="22" id="ent0008"><rect fill="#3b3b3d" height="34" rx="2.5" ry="2.5" style="stroke:#e3e3e3;stroke-width:1;" width="63.5928" x="426.2" y="87"/><text fill="#e3e3e3" font-family="Helvetica" font-size="14" lengthAdjust="spacing" textLength="43.5928" x="436.2" y="107.7803">Engine</text></g><!--entity InputResolver--><g class="entity" data-qualified-name="Resolution.InputResolver" data-source-line="26" id="ent0010"><rect fill="#3b3b3d" height="34" rx="2.5" ry="2.5" style="stroke:#e3e3e3;stroke-width:1;" width="106.3789" x="26.81" y="194"/><text fill="#e3e3e3" font-family="Helvetica" font-size="14" lengthAdjust="spacing" textLength="86.3789" x="36.81" y="214.7803">InputResolver</text></g><!--entity Discover specs--><g class="entity" data-qualified-name="Resolution.Discover specs" data-source-line="27" id="ent0011"><rect fill="#3b3b3d" height="34" rx="2.5" ry="2.5" style="stroke:#e3e3e3;stroke-width:1;" width="114.917" x="168.54" y="194"/><text fill="#e3e3e3" font-family="Helvetica" font-size="14" lengthAdjust="spacing" textLength="94.917" x="178.54" y="214.7803">Discover specs</text></g><!--entity Deriver--><g class="entity" data-qualified-name="Resolution.Deriver" data-source-line="28" id="ent0012"><rect fill="#3b3b3d" height="34" rx="2.5" ry="2.5" style="stroke:#e3e3e3;stroke-width:1;" width="65.1172" x="318.44" y="194"/><text fill="#e3e3e3" font-family="Helvetica" font-size="14" lengthAdjust="spacing" textLength="45.1172" x="328.44" y="214.7803">Deriver</text></g><!--entity Derive--><g class="entity" data-qualified-name="Resolution.Derive" data-source-line="29" id="ent0013"><rect fill="#3b3b3d" height="34" rx="2.5" ry="2.5" style="stroke:#e3e3e3;stroke-width:1;" width="60.4551" x="320.77" y="301"/><text fill="#e3e3e3" font-family="Helvetica" font-size="14" lengthAdjust="spacing" textLength="40.4551" x="330.77" y="321.7803">Derive</text></g><!--entity Transform--><g class="entity" data-qualified-name="Resolution.Transform" data-source-line="30" id="ent0014"><rect fill="#3b3b3d" height="34" rx="2.5" ry="2.5" style="stroke:#e3e3e3;stroke-width:1;" width="83.7861" x="309.11" y="405"/><text fill="#e3e3e3" font-family="Helvetica" font-size="14" lengthAdjust="spacing" textLength="63.7861" x="319.11" y="425.7803">Transform</text></g><!--entity Condition--><g class="entity" data-qualified-name="Resolution.Condition" data-source-line="31" id="ent0015"><rect fill="#3b3b3d" height="34" rx="2.5" ry="2.5" style="stroke:#e3e3e3;stroke-width:1;" width="79.1514" x="418.42" y="194"/><text fill="#e3e3e3" font-family="Helvetica" font-size="14" lengthAdjust="spacing" textLength="59.1514" x="428.42" y="214.7803">Condition</text></g><!--entity HandlerRegistry--><g class="entity" data-qualified-name="Handlers.HandlerRegistry" data-source-line="35" id="ent0017"><rect fill="#3b3b3d" height="34" rx="2.5" ry="2.5" style="stroke:#e3e3e3;stroke-width:1;" width="120.3721" x="661.81" y="194"/><text fill="#e3e3e3" font-family="Helvetica" font-size="14" lengthAdjust="spacing" textLength="100.3721" x="671.81" y="214.7803">HandlerRegistry</text></g><!--entity Context--><g class="entity" data-qualified-name="Handlers.Context" data-source-line="36" id="ent0018"><rect fill="#3b3b3d" height="34" rx="2.5" ry="2.5" style="stroke:#e3e3e3;stroke-width:1;" width="68.248" x="816.88" y="194"/><text fill="#e3e3e3" font-family="Helvetica" font-size="14" lengthAdjust="spacing" textLength="48.248" x="826.88" y="214.7803">Context</text></g><!--entity Answers--><g class="entity" data-qualified-name="Output.Answers" data-source-line="40" id="ent0020"><rect fill="#3b3b3d" height="34" rx="2.5" ry="2.5" style="stroke:#e3e3e3;stroke-width:1;" width="73.6826" x="991.16" y="194"/><text fill="#e3e3e3" font-family="Helvetica" font-size="14" lengthAdjust="spacing" textLength="53.6826" x="1001.16" y="214.7803">Answers</text></g><!--entity SchemaGenerator--><g class="entity" data-qualified-name="Output.SchemaGenerator" data-source-line="41" id="ent0021"><rect fill="#3b3b3d" height="34" rx="2.5" ry="2.5" style="stroke:#e3e3e3;stroke-width:1;" width="134.3926" x="1099.8" y="194"/><text fill="#e3e3e3" font-family="Helvetica" font-size="14" lengthAdjust="spacing" textLength="114.3926" x="1109.8" y="214.7803">SchemaGenerator</text></g><!--entity SchemaValidator--><g class="entity" data-qualified-name="Output.SchemaValidator" data-source-line="42" id="ent0022"><rect fill="#3b3b3d" height="34" rx="2.5" ry="2.5" style="stroke:#e3e3e3;stroke-width:1;" width="126.6133" x="1269.69" y="194"/><text fill="#e3e3e3" font-family="Helvetica" font-size="14" lengthAdjust="spacing" textLength="106.6133" x="1279.69" y="214.7803">SchemaValidator</text></g><!--entity PanelController--><g class="entity" data-qualified-name="Interactive TUI.PanelController" data-source-line="46" id="ent0024"><rect fill="#3b3b3d" height="34" rx="2.5" ry="2.5" style="stroke:#e3e3e3;stroke-width:1;" width="116.4961" x="1580.75" y="87"/><text fill="#e3e3e3" font-family="Helvetica" font-size="14" lengthAdjust="spacing" textLength="96.4961" x="1590.75" y="107.7803">PanelController</text></g><!--entity ThemeManager--><g class="entity" data-qualified-name="Interactive TUI.ThemeManager" data-source-line="47" id="ent0025"><rect fill="#3b3b3d" height="34" rx="2.5" ry="2.5" style="stroke:#e3e3e3;stroke-width:1;" width="118.8271" x="1912.59" y="301"/><text fill="#e3e3e3" font-family="Helvetica" font-size="14" lengthAdjust="spacing" textLength="98.8271" x="1922.59" y="321.7803">ThemeManager</text></g><!--entity Theme--><g class="entity" data-qualified-name="Interactive TUI.Theme" data-source-line="48" id="ent0026"><rect fill="#3b3b3d" height="34" rx="2.5" ry="2.5" style="stroke:#e3e3e3;stroke-width:1;" width="63.5723" x="1845.21" y="405"/><text fill="#e3e3e3" font-family="Helvetica" font-size="14" lengthAdjust="spacing" textLength="43.5723" x="1855.21" y="425.7803">Theme</text></g><!--entity KeyMapManager--><g class="entity" data-qualified-name="Interactive TUI.KeyMapManager" data-source-line="49" id="ent0027"><rect fill="#3b3b3d" height="34" rx="2.5" ry="2.5" style="stroke:#e3e3e3;stroke-width:1;" width="126.6133" x="1491.69" y="301"/><text fill="#e3e3e3" font-family="Helvetica" font-size="14" lengthAdjust="spacing" textLength="106.6133" x="1501.69" y="321.7803">KeyMapManager</text></g><!--entity KeyMap--><g class="entity" data-qualified-name="Interactive TUI.KeyMap" data-source-line="50" id="ent0028"><rect fill="#3b3b3d" height="34" rx="2.5" ry="2.5" style="stroke:#e3e3e3;stroke-width:1;" width="71.3584" x="1636.32" y="405"/><text fill="#e3e3e3" font-family="Helvetica" font-size="14" lengthAdjust="spacing" textLength="51.3584" x="1646.32" y="425.7803">KeyMap</text></g><!--entity WidgetFactory--><g class="entity" data-qualified-name="Interactive TUI.WidgetFactory" data-source-line="51" id="ent0029"><rect fill="#3b3b3d" height="34" rx="2.5" ry="2.5" style="stroke:#e3e3e3;stroke-width:1;" width="110.248" x="1538.88" y="194"/><text fill="#e3e3e3" font-family="Helvetica" font-size="14" lengthAdjust="spacing" textLength="90.248" x="1548.88" y="214.7803">WidgetFactory</text></g><!--entity WidgetInterface--><g class="entity" data-qualified-name="Interactive TUI.WidgetInterface" data-source-line="52" id="ent0030"><ellipse cx="1784" cy="318" fill="#3b3b3d" rx="8" ry="8" style="stroke:#e3e3e3;stroke-width:1;"/><text fill="#e3e3e3" font-family="Helvetica" font-size="14" lengthAdjust="spacing" textLength="98.0479" x="1734.9761" y="345.7803">WidgetInterface</text></g><!--entity Navigator--><g class="entity" data-qualified-name="Interactive TUI.Navigator" data-source-line="53" id="ent0031"><rect fill="#3b3b3d" height="34" rx="2.5" ry="2.5" style="stroke:#e3e3e3;stroke-width:1;" width="79.917" x="1721.04" y="194"/><text fill="#e3e3e3" font-family="Helvetica" font-size="14" lengthAdjust="spacing" textLength="59.917" x="1731.04" y="214.7803">Navigator</text></g><!--entity Terminal--><g class="entity" data-qualified-name="Interactive TUI.Terminal" data-source-line="54" id="ent0032"><rect fill="#3b3b3d" height="34" rx="2.5" ry="2.5" style="stroke:#e3e3e3;stroke-width:1;" width="74.4551" x="1835.77" y="194"/><text fill="#e3e3e3" font-family="Helvetica" font-size="14" lengthAdjust="spacing" textLength="54.4551" x="1845.77" y="214.7803">Terminal</text></g><!--entity KeyParser--><g class="entity" data-qualified-name="Interactive TUI.KeyParser" data-source-line="55" id="ent0033"><rect fill="#3b3b3d" height="34" rx="2.5" ry="2.5" style="stroke:#e3e3e3;stroke-width:1;" width="85.3584" x="1945.32" y="194"/><text fill="#e3e3e3" font-family="Helvetica" font-size="14" lengthAdjust="spacing" textLength="65.3584" x="1955.32" y="214.7803">KeyParser</text></g><!--link Form to FormDefinition--><g class="link" data-entity-1="ent0002" data-entity-2="ent0004" data-link-type="dependency" data-source-line="58" id="lnk34"><path d="M601.73,228.38 C614.07,236.84 630.18,246.5 646,252 C808.3,308.41 1009.0601,316.9591 1106.2901,317.5591" fill="none" id="Form-to-FormDefinition" style="stroke:#e3e3e3;stroke-width:1;"/><polygon fill="#e3e3e3" points="1111.29,317.59,1102.3149,313.5345,1106.2901,317.5591,1102.2655,321.5344,1111.29,317.59" style="stroke:#e3e3e3;stroke-width:1;stroke-linejoin:miter;stroke-miterlimit:10;"/></g><!--reverse link FormDefinition to Panel--><g class="link" data-entity-1="ent0004" data-entity-2="ent0005" data-link-type="composition" data-source-line="59" id="lnk35"><path d="M1167,347.39 C1167,366.42 1167,385.64 1167,404.65" fill="none" id="FormDefinition-backto-Panel" style="stroke:#e3e3e3;stroke-width:1;"/><polygon fill="#e3e3e3" points="1167,335.39,1163,341.39,1167,347.39,1171,341.39,1167,335.39" style="stroke:#e3e3e3;stroke-width:1;stroke-linejoin:miter;stroke-miterlimit:10;"/></g><!--reverse link Panel to Field--><g class="link" data-entity-1="ent0005" data-entity-2="ent0006" data-link-type="composition" data-source-line="60" id="lnk36"><path d="M1167,451.45 C1167,468.19 1167,482 1167,498.69" fill="none" id="Panel-backto-Field" style="stroke:#e3e3e3;stroke-width:1;"/><polygon fill="#e3e3e3" points="1167,439.45,1163,445.45,1167,451.45,1171,445.45,1167,439.45" style="stroke:#e3e3e3;stroke-width:1;stroke-linejoin:miter;stroke-miterlimit:10;"/></g><!--link Engine to FormDefinition--><g class="link" data-entity-1="ent0008" data-entity-2="ent0004" data-link-type="dependency" data-source-line="62" id="lnk37"><path d="M490.21,105.21 C579.95,106.3 830.78,112.94 901,153 C948.72,180.22 930.54,219.74 975,252 C1015.59,281.45 1065.601,297.1567 1106.301,306.2767" fill="none" id="Engine-to-FormDefinition" style="stroke:#e3e3e3;stroke-width:1;"/><polygon fill="#e3e3e3" points="1111.18,307.37,1103.2724,301.4989,1106.301,306.2767,1101.5232,309.3053,1111.18,307.37" style="stroke:#e3e3e3;stroke-width:1;stroke-linejoin:miter;stroke-miterlimit:10;"/></g><!--link Engine to InputResolver--><g class="link" data-entity-1="ent0008" data-entity-2="ent0010" data-link-type="dependency" data-source-line="63" id="lnk38"><path d="M426,104.67 C368.46,105.21 244.77,111.6 151,153 C129.31,162.58 112.2194,176.9885 98.8394,190.1885" fill="none" id="Engine-to-InputResolver" style="stroke:#e3e3e3;stroke-width:1;"/><polygon fill="#e3e3e3" points="95.28,193.7,104.4961,190.2268,98.8394,190.1885,98.8777,184.5318,95.28,193.7" style="stroke:#e3e3e3;stroke-width:1;stroke-linejoin:miter;stroke-miterlimit:10;"/></g><!--link Engine to Discover specs--><g class="link" data-entity-1="ent0008" data-entity-2="ent0011" data-link-type="dependency" data-source-line="64" id="lnk39"><path d="M425.75,111.35 C393.09,118.58 341.72,132.15 301,153 C279.75,163.88 262.1095,177.605 247.6395,190.215" fill="none" id="Engine-to-Discover specs" style="stroke:#e3e3e3;stroke-width:1;"/><polygon fill="#e3e3e3" points="243.87,193.5,253.283,190.6027,247.6395,190.215,248.0271,184.5715,243.87,193.5" style="stroke:#e3e3e3;stroke-width:1;stroke-linejoin:miter;stroke-miterlimit:10;"/></g><!--link Engine to Deriver--><g class="link" data-entity-1="ent0008" data-entity-2="ent0012" data-link-type="dependency" data-source-line="65" id="lnk40"><path d="M437.03,121.39 C425.97,130.35 412.36,141.86 401,153 C387.65,166.08 376.9248,178.3438 367.1648,190.0938" fill="none" id="Engine-to-Deriver" style="stroke:#e3e3e3;stroke-width:1;"/><polygon fill="#e3e3e3" points="363.97,193.94,372.7976,189.5727,367.1648,190.0938,366.6437,184.461,363.97,193.94" style="stroke:#e3e3e3;stroke-width:1;stroke-linejoin:miter;stroke-miterlimit:10;"/></g><!--link Deriver to Derive--><g class="link" data-entity-1="ent0012" data-entity-2="ent0013" data-link-type="dependency" data-source-line="66" id="lnk41"><path d="M351,228.41 C351,248.13 351,276.03 351,295.71" fill="none" id="Deriver-to-Derive" style="stroke:#e3e3e3;stroke-width:1;"/><polygon fill="#e3e3e3" points="351,300.71,355,291.71,351,295.71,347,291.71,351,300.71" style="stroke:#e3e3e3;stroke-width:1;stroke-linejoin:miter;stroke-miterlimit:10;"/></g><!--link Derive to Transform--><g class="link" data-entity-1="ent0013" data-entity-2="ent0014" data-link-type="dependency" data-source-line="67" id="lnk42"><path d="M351,335.39 C351,354.42 351,380.64 351,399.65" fill="none" id="Derive-to-Transform" style="stroke:#e3e3e3;stroke-width:1;"/><polygon fill="#e3e3e3" points="351,404.65,355,395.65,351,399.65,347,395.65,351,404.65" style="stroke:#e3e3e3;stroke-width:1;stroke-linejoin:miter;stroke-miterlimit:10;"/></g><!--link Engine to Condition--><g class="link" data-entity-1="ent0008" data-entity-2="ent0015" data-link-type="dependency" data-source-line="68" id="lnk43"><path d="M458,121.41 C458,141.13 458,169.03 458,188.71" fill="none" id="Engine-to-Condition" style="stroke:#e3e3e3;stroke-width:1;"/><polygon fill="#e3e3e3" points="458,193.71,462,184.71,458,188.71,454,184.71,458,193.71" style="stroke:#e3e3e3;stroke-width:1;stroke-linejoin:miter;stroke-miterlimit:10;"/></g><!--link Engine to HandlerRegistry--><g class="link" data-entity-1="ent0008" data-entity-2="ent0017" data-link-type="dependency" data-source-line="69" id="lnk44"><path d="M490.2,112.07 C523.84,119.99 577.76,134.22 622,153 C648.67,164.32 672.9789,178.4358 692.7189,190.8658" fill="none" id="Engine-to-HandlerRegistry" style="stroke:#e3e3e3;stroke-width:1;"/><polygon fill="#e3e3e3" points="696.95,193.53,691.4655,185.3495,692.7189,190.8658,687.2027,192.1192,696.95,193.53" style="stroke:#e3e3e3;stroke-width:1;stroke-linejoin:miter;stroke-miterlimit:10;"/></g><!--link Engine to Answers--><g class="link" data-entity-1="ent0008" data-entity-2="ent0020" data-link-type="dependency" data-source-line="70" id="lnk45"><path d="M490.11,105.45 C587.52,107.23 878.26,115.62 964,153 C984.6,161.98 999.8645,176.4397 1011.6345,189.8697" fill="none" id="Engine-to-Answers" style="stroke:#e3e3e3;stroke-width:1;"/><polygon fill="#e3e3e3" points="1014.93,193.63,1012.0063,184.2251,1011.6345,189.8697,1005.9899,189.4979,1014.93,193.63" style="stroke:#e3e3e3;stroke-width:1;stroke-linejoin:miter;stroke-miterlimit:10;"/></g><!--link SchemaGenerator to FormDefinition--><g class="link" data-entity-1="ent0021" data-entity-2="ent0004" data-link-type="dependency" data-source-line="72" id="lnk46"><path d="M1167,228.41 C1167,248.13 1167,276.03 1167,295.71" fill="none" id="SchemaGenerator-to-FormDefinition" style="stroke:#e3e3e3;stroke-width:1;"/><polygon fill="#e3e3e3" points="1167,300.71,1171,291.71,1167,295.71,1163,291.71,1167,300.71" style="stroke:#e3e3e3;stroke-width:1;stroke-linejoin:miter;stroke-miterlimit:10;"/></g><!--link SchemaValidator to FormDefinition--><g class="link" data-entity-1="ent0022" data-entity-2="ent0004" data-link-type="dependency" data-source-line="73" id="lnk47"><path d="M1307.06,228.41 C1275.97,248.07 1228.3851,278.1663 1197.2551,297.8663" fill="none" id="SchemaValidator-to-FormDefinition" style="stroke:#e3e3e3;stroke-width:1;"/><polygon fill="#e3e3e3" points="1193.03,300.54,1202.7741,299.1073,1197.2551,297.8663,1198.4961,292.3472,1193.03,300.54" style="stroke:#e3e3e3;stroke-width:1;stroke-linejoin:miter;stroke-miterlimit:10;"/></g><!--link PanelController to FormDefinition--><g class="link" data-entity-1="ent0024" data-entity-2="ent0004" data-link-type="dependency" data-source-line="75" id="lnk48"><path d="M1580.54,116.42 C1552.66,123.77 1519.84,135.35 1494,153 C1446.83,185.23 1460.13,221.21 1412,252 C1353.99,289.12 1280.2976,304.4906 1227.9276,311.3506" fill="none" id="PanelController-to-FormDefinition" style="stroke:#e3e3e3;stroke-width:1;"/><polygon fill="#e3e3e3" points="1222.97,312,1232.4133,314.7972,1227.9276,311.3506,1231.3742,306.8649,1222.97,312" style="stroke:#e3e3e3;stroke-width:1;stroke-linejoin:miter;stroke-miterlimit:10;"/></g><!--link ThemeManager to Theme--><g class="link" data-entity-1="ent0025" data-entity-2="ent0026" data-link-type="dependency" data-source-line="76" id="lnk49"><path d="M1956.74,335.39 C1939.01,354.42 1913.3482,381.9816 1895.6382,400.9916" fill="none" id="ThemeManager-to-Theme" style="stroke:#e3e3e3;stroke-width:1;"/><polygon fill="#e3e3e3" points="1892.23,404.65,1901.2915,400.7914,1895.6382,400.9916,1895.4381,395.3383,1892.23,404.65" style="stroke:#e3e3e3;stroke-width:1;stroke-linejoin:miter;stroke-miterlimit:10;"/></g><!--link PanelController to Theme--><g class="link" data-entity-1="ent0024" data-entity-2="ent0026" data-link-type="dependency" data-source-line="77" id="lnk50"><path d="M1649.3,121.07 C1654.93,130.22 1661.79,142.02 1667,153 C1687.13,195.44 1666.11,224.24 1704,252 C1717.91,262.19 1846.45,248.18 1859,260 C1899.03,297.7 1889.4966,366.8273 1882.2466,399.7073" fill="none" id="PanelController-to-Theme" style="stroke:#e3e3e3;stroke-width:1;"/><polygon fill="#e3e3e3" points="1881.17,404.59,1887.0141,396.6624,1882.2466,399.7073,1879.2018,394.9398,1881.17,404.59" style="stroke:#e3e3e3;stroke-width:1;stroke-linejoin:miter;stroke-miterlimit:10;"/></g><!--link KeyMapManager to KeyMap--><g class="link" data-entity-1="ent0027" data-entity-2="ent0028" data-link-type="dependency" data-source-line="78" id="lnk51"><path d="M1573.8,335.39 C1595.63,354.42 1627.6708,382.3547 1649.4808,401.3647" fill="none" id="KeyMapManager-to-KeyMap" style="stroke:#e3e3e3;stroke-width:1;"/><polygon fill="#e3e3e3" points="1653.25,404.65,1649.0937,395.7211,1649.4808,401.3647,1643.8372,401.7518,1653.25,404.65" style="stroke:#e3e3e3;stroke-width:1;stroke-linejoin:miter;stroke-miterlimit:10;"/></g><!--link PanelController to KeyMap--><g class="link" data-entity-1="ent0024" data-entity-2="ent0028" data-link-type="dependency" data-source-line="79" id="lnk52"><path d="M1580.27,114.52 C1557.85,121.33 1534.46,133 1521,153 C1496.44,189.51 1490.99,219.83 1521,252 C1538.47,270.73 1616.58,243.3 1636,260 C1641.55,264.77 1660.267,359.7497 1667.947,399.7397" fill="none" id="PanelController-to-KeyMap" style="stroke:#e3e3e3;stroke-width:1;"/><polygon fill="#e3e3e3" points="1668.89,404.65,1671.1208,395.0571,1667.947,399.7397,1663.2644,396.5659,1668.89,404.65" style="stroke:#e3e3e3;stroke-width:1;stroke-linejoin:miter;stroke-miterlimit:10;"/></g><!--link PanelController to WidgetFactory--><g class="link" data-entity-1="ent0024" data-entity-2="ent0029" data-link-type="dependency" data-source-line="80" id="lnk53"><path d="M1631.97,121.41 C1623.51,141.13 1611.3788,169.4339 1602.9488,189.1139" fill="none" id="PanelController-to-WidgetFactory" style="stroke:#e3e3e3;stroke-width:1;"/><polygon fill="#e3e3e3" points="1600.98,193.71,1608.2006,187.012,1602.9488,189.1139,1600.8469,183.862,1600.98,193.71" style="stroke:#e3e3e3;stroke-width:1;stroke-linejoin:miter;stroke-miterlimit:10;"/></g><!--link WidgetFactory to KeyMap--><g class="link" data-entity-1="ent0029" data-entity-2="ent0028" data-link-type="dependency" data-source-line="81" id="lnk54"><path d="M1629.9,228.44 C1642.58,236.14 1655.53,246.62 1663,260 C1689.21,306.93 1682.0791,369.1133 1676.4191,399.7233" fill="none" id="WidgetFactory-to-KeyMap" style="stroke:#e3e3e3;stroke-width:1;"/><polygon fill="#e3e3e3" points="1675.51,404.64,1681.0797,396.5173,1676.4191,399.7233,1673.2131,395.0627,1675.51,404.64" style="stroke:#e3e3e3;stroke-width:1;stroke-linejoin:miter;stroke-miterlimit:10;"/></g><!--link WidgetFactory to WidgetInterface--><g class="link" data-entity-1="ent0029" data-entity-2="ent0030" data-link-type="dependency" data-source-line="82" id="lnk55"><path d="M1625.1,228.37 C1640.24,236.03 1658.84,244.99 1676,252 C1686.41,256.25 1689.92,255.02 1700,260 C1729.39,274.52 1756.4997,294.914 1771.2697,306.684" fill="none" id="WidgetFactory-to-WidgetInterface" style="stroke:#e3e3e3;stroke-width:1;"/><polygon fill="#e3e3e3" points="1775.18,309.8,1770.6343,301.0629,1771.2697,306.684,1765.6487,307.3193,1775.18,309.8" style="stroke:#e3e3e3;stroke-width:1;stroke-linejoin:miter;stroke-miterlimit:10;"/></g><!--link WidgetInterface to Theme--><g class="link" data-entity-1="ent0030" data-entity-2="ent0026" data-link-type="dependency" data-source-line="83" id="lnk56"><path d="M1790.99,326.67 C1806.03,343.16 1838.372,378.6245 1858.732,400.9645" fill="none" id="WidgetInterface-to-Theme" style="stroke:#e3e3e3;stroke-width:1;"/><polygon fill="#e3e3e3" points="1862.1,404.66,1858.9941,395.3137,1858.732,400.9645,1853.0812,400.7025,1862.1,404.66" style="stroke:#e3e3e3;stroke-width:1;stroke-linejoin:miter;stroke-miterlimit:10;"/></g><!--link WidgetInterface to KeyMap--><g class="link" data-entity-1="ent0030" data-entity-2="ent0028" data-link-type="dependency" data-source-line="84" id="lnk57"><path d="M1775.58,326.67 C1757.47,343.16 1718.1667,378.9533 1693.6367,401.2933" fill="none" id="WidgetInterface-to-KeyMap" style="stroke:#e3e3e3;stroke-width:1;"/><polygon fill="#e3e3e3" points="1689.94,404.66,1699.2874,401.5574,1693.6367,401.2933,1693.9007,395.6426,1689.94,404.66" style="stroke:#e3e3e3;stroke-width:1;stroke-linejoin:miter;stroke-miterlimit:10;"/></g><!--link PanelController to Navigator--><g class="link" data-entity-1="ent0024" data-entity-2="ent0031" data-link-type="dependency" data-source-line="85" id="lnk58"><path d="M1658.06,121.41 C1680.98,141.13 1715.4207,170.7679 1738.2807,190.4479" fill="none" id="PanelController-to-Navigator" style="stroke:#e3e3e3;stroke-width:1;"/><polygon fill="#e3e3e3" points="1742.07,193.71,1737.8591,184.8067,1738.2807,190.4479,1732.6396,190.8696,1742.07,193.71" style="stroke:#e3e3e3;stroke-width:1;stroke-linejoin:miter;stroke-miterlimit:10;"/></g><!--link PanelController to Terminal--><g class="link" data-entity-1="ent0024" data-entity-2="ent0032" data-link-type="dependency" data-source-line="86" id="lnk59"><path d="M1697.73,112.55 C1734.26,119.16 1781.14,131.27 1818,153 C1835.53,163.33 1848.0989,176.8322 1858.1689,189.7022" fill="none" id="PanelController-to-Terminal" style="stroke:#e3e3e3;stroke-width:1;"/><polygon fill="#e3e3e3" points="1861.25,193.64,1858.8542,184.087,1858.1689,189.7022,1852.5537,189.0168,1861.25,193.64" style="stroke:#e3e3e3;stroke-width:1;stroke-linejoin:miter;stroke-miterlimit:10;"/></g><!--link PanelController to KeyParser--><g class="link" data-entity-1="ent0024" data-entity-2="ent0033" data-link-type="dependency" data-source-line="87" id="lnk60"><path d="M1697.73,104.81 C1758.41,106.83 1854.36,116.32 1928,153 C1947.29,162.61 1961.3659,176.6915 1972.3759,189.8815" fill="none" id="PanelController-to-KeyParser" style="stroke:#e3e3e3;stroke-width:1;"/><polygon fill="#e3e3e3" points="1975.58,193.72,1972.8835,184.2475,1972.3759,189.8815,1966.7419,189.374,1975.58,193.72" style="stroke:#e3e3e3;stroke-width:1;stroke-linejoin:miter;stroke-miterlimit:10;"/></g><!--link PanelController to Answers--><g class="link" data-entity-1="ent0024" data-entity-2="ent0020" data-link-type="dependency" data-source-line="88" id="lnk61"><path d="M1580.46,104.85 C1455.87,105.35 1168.78,111.17 1082,153 C1063.46,161.94 1050.8967,176.0846 1041.3367,189.5346" fill="none" id="PanelController-to-Answers" style="stroke:#e3e3e3;stroke-width:1;"/><polygon fill="#e3e3e3" points="1038.44,193.61,1046.9144,188.5916,1041.3367,189.5346,1040.3938,183.9569,1038.44,193.61" style="stroke:#e3e3e3;stroke-width:1;stroke-linejoin:miter;stroke-miterlimit:10;"/></g><?plantuml-src ZLDTJzim57tFhxXZ3qX8fMmTqZwaIQF4K4qm11rxc7WmyMrguTYHxRIhflttsN6IEIaHUufzpxddVkJu49Z6ZIhDr5OS9f2febGIfGMgipMtcDbAut5o23SqUw8v6YYurag3NICOdKt1L8-CQqTKcgFvv1ArsXemQxMjIGNb4XYMA1dAp56ysYtcA55JYu0Rr3kukx-0BRVhZm2beD9MXO29DPiScChCDEvcUdHSEZXvvTGBz7Gk4_F4PKarBU3HDPfhLKasLy8rklM94SvmHIjXYPBschhyInGRj3oZ4SUiALDRBdDOKM7Yx6v1TtOd4FpSLEO24ykjk__FDfEa3Bk4WxEA2uRw05wJ4_9kFeFV2S1FedJnaFo9U5UAeN2iT4RUalD_h7DSSSajL_B1XsweH56V24V1-XfpfT4N8cIMdWI9LEPSOfzsYqQ9oalwUk_9QVeXa1Uoh6oDkXzM5pdd9bFk0gR4p8GGQjx1zRa-BZMLPbMFvMvp9LdJT5pvaaecK1lVv2mz9QUXRXDsZk76wbshOF6NxUT_gwphq7SzJmbv4xA_IBDrcdNMNUOCGo-2yPIEOlTKS1PYiUB2LT4qisuCM7vVrDjBpz8qIDVRzfre9KGpyz9RyefAbnu5wjDNt5tHCiP2f3x-u2n7IwX_HVM8t9TUqGmXG8lsxjdNTCFpReGbwe9BAbhD6weDXac2bM0o-Rplbs40ZYQJpaBDDyGQCoMjNqRqUkZ0BNrmQ9m1sdgeEyNnBjn48slrPIANzO4zG_NXpZ79dc561Xzww7bQicUO4RcUXveXWuj655gqxx20jHuRINq17jXoS1z8F0CElJkuzzf_5dkXl-WXZEscUnpZ6sWVp0YZDSHV?></g></svg>