<svg xmlns="http://www.w3.org/2000/svg" xmlns:xlink="http://www.w3.org/1999/xlink" contentStyleType="text/css" data-diagram-type="DESCRIPTION" height="564px" preserveAspectRatio="none" style="width:2052px;height:564px;background:#FFFFFF;" version="1.1" viewBox="0 0 2052 564" width="2052px" zoomAndPan="magnify"><?plantuml 1.2026.6?><defs/><g><g class="title" data-source-line="9"><text fill="#000000" font-family="Helvetica" font-size="22" font-weight="700" lengthAdjust="spacing" textLength="388.7275" x="830.7112" y="31.9404">drevops/tui - component architecture</text></g><!--cluster Builder--><g class="cluster" data-qualified-name="Builder" data-source-line="11" id="ent0001"><path d="M554.65,161 L603.8775,161 A3.75,3.75 0 0 1 606.3775,163.5 L613.3775,181 L633.65,181 A2.5,2.5 0 0 1 636.15,183.5 L636.15,241.5 A2.5,2.5 0 0 1 633.65,244 L554.65,244 A2.5,2.5 0 0 1 552.15,241.5 L552.15,163.5 A2.5,2.5 0 0 1 554.65,161" fill="#F0F4C3" style="stroke:#000000;stroke-width:1;"/><line style="stroke:#000000;stroke-width:1;" x1="552.15" x2="613.3775" y1="181" y2="181"/><text fill="#000000" font-family="Helvetica" font-size="14" font-weight="700" lengthAdjust="spacing" textLength="48.2275" x="556.15" y="173.7803">Builder</text></g><!--cluster Configuration--><g class="cluster" data-qualified-name="Configuration" data-source-line="15" id="ent0003"><path d="M406.65,268 L499.4088,268 A3.75,3.75 0 0 1 501.9088,270.5 L508.9088,288 L508.65,288 A2.5,2.5 0 0 1 511.15,290.5 L511.15,546.5 A2.5,2.5 0 0 1 508.65,549 L406.65,549 A2.5,2.5 0 0 1 404.15,546.5 L404.15,270.5 A2.5,2.5 0 0 1 406.65,268" fill="#E3F2FD" style="stroke:#000000;stroke-width:1;"/><line style="stroke:#000000;stroke-width:1;" x1="404.15" x2="508.9088" y1="288" y2="288"/><text fill="#000000" font-family="Helvetica" font-size="14" font-weight="700" lengthAdjust="spacing" textLength="91.7588" x="408.15" y="280.7803">Configuration</text></g><!--cluster Core--><g class="cluster" data-qualified-name="Core" data-source-line="21" id="ent0007"><path d="M1424.65,54 L1457.5465,54 A3.75,3.75 0 0 1 1460.0465,56.5 L1467.0465,74 L1515.65,74 A2.5,2.5 0 0 1 1518.15,76.5 L1518.15,134.5 A2.5,2.5 0 0 1 1515.65,137 L1424.65,137 A2.5,2.5 0 0 1 1422.15,134.5 L1422.15,56.5 A2.5,2.5 0 0 1 1424.65,54" fill="#FFF3E0" style="stroke:#000000;stroke-width:1;"/><line style="stroke:#000000;stroke-width:1;" x1="1422.15" x2="1467.0465" y1="74" y2="74"/><text fill="#000000" font-family="Helvetica" font-size="14" font-weight="700" lengthAdjust="spacing" textLength="31.8965" x="1426.15" y="66.7803">Core</text></g><!--cluster Resolution--><g class="cluster" data-qualified-name="Resolution" data-source-line="25" id="ent0009"><path d="M1257.65,161 L1330.9811,161 A3.75,3.75 0 0 1 1333.4811,163.5 L1340.4811,181 L1755.65,181 A2.5,2.5 0 0 1 1758.15,183.5 L1758.15,452.5 A2.5,2.5 0 0 1 1755.65,455 L1257.65,455 A2.5,2.5 0 0 1 1255.15,452.5 L1255.15,163.5 A2.5,2.5 0 0 1 1257.65,161" fill="#E8F5E9" style="stroke:#000000;stroke-width:1;"/><line style="stroke:#000000;stroke-width:1;" x1="1255.15" x2="1340.4811" y1="181" y2="181"/><text fill="#000000" font-family="Helvetica" font-size="14" font-weight="700" lengthAdjust="spacing" textLength="72.3311" x="1259.15" y="173.7803">Resolution</text></g><!--cluster Handlers--><g class="cluster" data-qualified-name="Handlers" data-source-line="34" id="ent0016"><path d="M1784.65,161 L1845.5602,161 A3.75,3.75 0 0 1 1848.0602,163.5 L1855.0602,181 L2034.65,181 A2.5,2.5 0 0 1 2037.15,183.5 L2037.15,241.5 A2.5,2.5 0 0 1 2034.65,244 L1784.65,244 A2.5,2.5 0 0 1 1782.15,241.5 L1782.15,163.5 A2.5,2.5 0 0 1 1784.65,161" fill="#F3E5F5" style="stroke:#000000;stroke-width:1;"/><line style="stroke:#000000;stroke-width:1;" x1="1782.15" x2="1855.0602" y1="181" y2="181"/><text fill="#000000" font-family="Helvetica" font-size="14" font-weight="700" lengthAdjust="spacing" textLength="59.9102" x="1786.15" y="173.7803">Handlers</text></g><!--cluster Output--><g class="cluster" data-qualified-name="Output" data-source-line="39" id="ent0019"><path d="M43.65,161 L90.5191,161 A3.75,3.75 0 0 1 93.0191,163.5 L100.0191,181 L475.65,181 A2.5,2.5 0 0 1 478.15,183.5 L478.15,241.5 A2.5,2.5 0 0 1 475.65,244 L43.65,244 A2.5,2.5 0 0 1 41.15,241.5 L41.15,163.5 A2.5,2.5 0 0 1 43.65,161" fill="#ECEFF1" style="stroke:#000000;stroke-width:1;"/><line style="stroke:#000000;stroke-width:1;" x1="41.15" x2="100.0191" y1="181" y2="181"/><text fill="#000000" font-family="Helvetica" font-size="14" font-weight="700" lengthAdjust="spacing" textLength="45.8691" x="45.15" y="173.7803">Output</text></g><!--cluster Interactive TUI--><g class="cluster" data-qualified-name="Interactive TUI" data-source-line="45" id="ent0023"><path d="M662.65,54 L760.1256,54 A3.75,3.75 0 0 1 762.6256,56.5 L769.6256,74 L1228.65,74 A2.5,2.5 0 0 1 1231.15,76.5 L1231.15,452.5 A2.5,2.5 0 0 1 1228.65,455 L662.65,455 A2.5,2.5 0 0 1 660.15,452.5 L660.15,56.5 A2.5,2.5 0 0 1 662.65,54" fill="#FFEBEE" style="stroke:#000000;stroke-width:1;"/><line style="stroke:#000000;stroke-width:1;" x1="660.15" x2="769.6256" y1="74" y2="74"/><text fill="#000000" font-family="Helvetica" font-size="14" font-weight="700" lengthAdjust="spacing" textLength="96.4756" x="664.15" y="66.7803">Interactive TUI</text></g><!--entity Form--><g class="entity" data-qualified-name="Builder.Form" data-source-line="12" id="ent0002"><rect fill="#FFFFFF" height="34" rx="2.5" ry="2.5" style="stroke:#000000;stroke-width:1;" width="52.6621" x="567.82" y="194"/><text fill="#000000" font-family="Helvetica" font-size="14" lengthAdjust="spacing" textLength="32.6621" x="577.82" y="214.7803">Form</text></g><!--entity Config--><g class="entity" data-qualified-name="Configuration.Config" data-source-line="16" id="ent0004"><rect fill="#FFFFFF" height="34" rx="2.5" ry="2.5" style="stroke:#000000;stroke-width:1;" width="60.4688" x="426.91" y="301"/><text fill="#000000" font-family="Helvetica" font-size="14" lengthAdjust="spacing" textLength="40.4688" x="436.91" y="321.7803">Config</text></g><!--entity Panel--><g class="entity" data-qualified-name="Configuration.Panel" data-source-line="17" id="ent0005"><rect fill="#FFFFFF" height="34" rx="2.5" ry="2.5" style="stroke:#000000;stroke-width:1;" width="55.8066" x="429.25" y="405"/><text fill="#000000" font-family="Helvetica" font-size="14" lengthAdjust="spacing" textLength="35.8066" x="439.25" y="425.7803">Panel</text></g><!--entity Field--><g class="entity" data-qualified-name="Configuration.Field" data-source-line="18" id="ent0006"><rect fill="#FFFFFF" height="34" rx="2.5" ry="2.5" style="stroke:#000000;stroke-width:1;" width="50.3447" x="431.98" y="499"/><text fill="#000000" font-family="Helvetica" font-size="14" lengthAdjust="spacing" textLength="30.3447" x="441.98" y="519.7803">Field</text></g><!--entity Engine--><g class="entity" data-qualified-name="Core.Engine" data-source-line="22" id="ent0008"><rect fill="#FFFFFF" height="34" rx="2.5" ry="2.5" style="stroke:#000000;stroke-width:1;" width="63.5928" x="1438.35" y="87"/><text fill="#000000" font-family="Helvetica" font-size="14" lengthAdjust="spacing" textLength="43.5928" x="1448.35" y="107.7803">Engine</text></g><!--entity InputResolver--><g class="entity" data-qualified-name="Resolution.InputResolver" data-source-line="26" id="ent0010"><rect fill="#FFFFFF" height="34" rx="2.5" ry="2.5" style="stroke:#000000;stroke-width:1;" width="106.3789" x="1270.96" y="194"/><text fill="#000000" font-family="Helvetica" font-size="14" lengthAdjust="spacing" textLength="86.3789" x="1280.96" y="214.7803">InputResolver</text></g><!--entity Discover specs--><g class="entity" data-qualified-name="Resolution.Discover specs" data-source-line="27" id="ent0011"><rect fill="#FFFFFF" height="34" rx="2.5" ry="2.5" style="stroke:#000000;stroke-width:1;" width="114.917" x="1412.69" y="194"/><text fill="#000000" font-family="Helvetica" font-size="14" lengthAdjust="spacing" textLength="94.917" x="1422.69" y="214.7803">Discover specs</text></g><!--entity Deriver--><g class="entity" data-qualified-name="Resolution.Deriver" data-source-line="28" id="ent0012"><rect fill="#FFFFFF" height="34" rx="2.5" ry="2.5" style="stroke:#000000;stroke-width:1;" width="65.1172" x="1562.59" y="194"/><text fill="#000000" font-family="Helvetica" font-size="14" lengthAdjust="spacing" textLength="45.1172" x="1572.59" y="214.7803">Deriver</text></g><!--entity Derive--><g class="entity" data-qualified-name="Resolution.Derive" data-source-line="29" id="ent0013"><rect fill="#FFFFFF" height="34" rx="2.5" ry="2.5" style="stroke:#000000;stroke-width:1;" width="60.4551" x="1564.92" y="301"/><text fill="#000000" font-family="Helvetica" font-size="14" lengthAdjust="spacing" textLength="40.4551" x="1574.92" y="321.7803">Derive</text></g><!--entity Transform--><g class="entity" data-qualified-name="Resolution.Transform" data-source-line="30" id="ent0014"><rect fill="#FFFFFF" height="34" rx="2.5" ry="2.5" style="stroke:#000000;stroke-width:1;" width="83.7861" x="1553.26" y="405"/><text fill="#000000" font-family="Helvetica" font-size="14" lengthAdjust="spacing" textLength="63.7861" x="1563.26" y="425.7803">Transform</text></g><!--entity Condition--><g class="entity" data-qualified-name="Resolution.Condition" data-source-line="31" id="ent0015"><rect fill="#FFFFFF" height="34" rx="2.5" ry="2.5" style="stroke:#000000;stroke-width:1;" width="79.1514" x="1662.57" y="194"/><text fill="#000000" font-family="Helvetica" font-size="14" lengthAdjust="spacing" textLength="59.1514" x="1672.57" y="214.7803">Condition</text></g><!--entity HandlerRegistry--><g class="entity" data-qualified-name="Handlers.HandlerRegistry" data-source-line="35" id="ent0017"><rect fill="#FFFFFF" height="34" rx="2.5" ry="2.5" style="stroke:#000000;stroke-width:1;" width="120.3721" x="1797.96" y="194"/><text fill="#000000" font-family="Helvetica" font-size="14" lengthAdjust="spacing" textLength="100.3721" x="1807.96" y="214.7803">HandlerRegistry</text></g><!--entity Context--><g class="entity" data-qualified-name="Handlers.Context" data-source-line="36" id="ent0018"><rect fill="#FFFFFF" height="34" rx="2.5" ry="2.5" style="stroke:#000000;stroke-width:1;" width="68.248" x="1953.02" y="194"/><text fill="#000000" font-family="Helvetica" font-size="14" lengthAdjust="spacing" textLength="48.248" x="1963.02" y="214.7803">Context</text></g><!--entity Answers--><g class="entity" data-qualified-name="Output.Answers" data-source-line="40" id="ent0020"><rect fill="#FFFFFF" height="34" rx="2.5" ry="2.5" style="stroke:#000000;stroke-width:1;" width="73.6826" x="57.31" y="194"/><text fill="#000000" font-family="Helvetica" font-size="14" lengthAdjust="spacing" textLength="53.6826" x="67.31" y="214.7803">Answers</text></g><!--entity SchemaGenerator--><g class="entity" data-qualified-name="Output.SchemaGenerator" data-source-line="41" id="ent0021"><rect fill="#FFFFFF" height="34" rx="2.5" ry="2.5" style="stroke:#000000;stroke-width:1;" width="134.3926" x="165.95" y="194"/><text fill="#000000" font-family="Helvetica" font-size="14" lengthAdjust="spacing" textLength="114.3926" x="175.95" y="214.7803">SchemaGenerator</text></g><!--entity SchemaValidator--><g class="entity" data-qualified-name="Output.SchemaValidator" data-source-line="42" id="ent0022"><rect fill="#FFFFFF" height="34" rx="2.5" ry="2.5" style="stroke:#000000;stroke-width:1;" width="126.6133" x="335.84" y="194"/><text fill="#000000" font-family="Helvetica" font-size="14" lengthAdjust="spacing" textLength="106.6133" x="345.84" y="214.7803">SchemaValidator</text></g><!--entity PanelController--><g class="entity" data-qualified-name="Interactive TUI.PanelController" data-source-line="46" id="ent0024"><rect fill="#FFFFFF" height="34" rx="2.5" ry="2.5" style="stroke:#000000;stroke-width:1;" width="116.4961" x="764.9" y="87"/><text fill="#000000" font-family="Helvetica" font-size="14" lengthAdjust="spacing" textLength="96.4961" x="774.9" y="107.7803">PanelController</text></g><!--entity ThemeManager--><g class="entity" data-qualified-name="Interactive TUI.ThemeManager" data-source-line="47" id="ent0025"><rect fill="#FFFFFF" height="34" rx="2.5" ry="2.5" style="stroke:#000000;stroke-width:1;" width="118.8271" x="1096.74" y="301"/><text fill="#000000" font-family="Helvetica" font-size="14" lengthAdjust="spacing" textLength="98.8271" x="1106.74" y="321.7803">ThemeManager</text></g><!--entity Theme--><g class="entity" data-qualified-name="Interactive TUI.Theme" data-source-line="48" id="ent0026"><rect fill="#FFFFFF" height="34" rx="2.5" ry="2.5" style="stroke:#000000;stroke-width:1;" width="63.5723" x="1029.36" y="405"/><text fill="#000000" font-family="Helvetica" font-size="14" lengthAdjust="spacing" textLength="43.5723" x="1039.36" y="425.7803">Theme</text></g><!--entity KeyMapManager--><g class="entity" data-qualified-name="Interactive TUI.KeyMapManager" data-source-line="49" id="ent0027"><rect fill="#FFFFFF" height="34" rx="2.5" ry="2.5" style="stroke:#000000;stroke-width:1;" width="126.6133" x="675.84" y="301"/><text fill="#000000" font-family="Helvetica" font-size="14" lengthAdjust="spacing" textLength="106.6133" x="685.84" y="321.7803">KeyMapManager</text></g><!--entity KeyMap--><g class="entity" data-qualified-name="Interactive TUI.KeyMap" data-source-line="50" id="ent0028"><rect fill="#FFFFFF" height="34" rx="2.5" ry="2.5" style="stroke:#000000;stroke-width:1;" width="71.3584" x="802.47" y="405"/><text fill="#000000" font-family="Helvetica" font-size="14" lengthAdjust="spacing" textLength="51.3584" x="812.47" y="425.7803">KeyMap</text></g><!--entity WidgetFactory--><g class="entity" data-qualified-name="Interactive TUI.WidgetFactory" data-source-line="51" id="ent0029"><rect fill="#FFFFFF" height="34" rx="2.5" ry="2.5" style="stroke:#000000;stroke-width:1;" width="110.248" x="723.03" y="194"/><text fill="#000000" font-family="Helvetica" font-size="14" lengthAdjust="spacing" textLength="90.248" x="733.03" y="214.7803">WidgetFactory</text></g><!--entity WidgetInterface--><g class="entity" data-qualified-name="Interactive TUI.WidgetInterface" data-source-line="52" id="ent0030"><ellipse cx="968.15" cy="318" fill="#FFFFFF" rx="8" ry="8" style="stroke:#000000;stroke-width:1;"/><text fill="#000000" font-family="Helvetica" font-size="14" lengthAdjust="spacing" textLength="98.0479" x="919.1261" y="345.7803">WidgetInterface</text></g><!--entity Navigator--><g class="entity" data-qualified-name="Interactive TUI.Navigator" data-source-line="53" id="ent0031"><rect fill="#FFFFFF" height="34" rx="2.5" ry="2.5" style="stroke:#000000;stroke-width:1;" width="79.917" x="905.19" y="194"/><text fill="#000000" font-family="Helvetica" font-size="14" lengthAdjust="spacing" textLength="59.917" x="915.19" y="214.7803">Navigator</text></g><!--entity Terminal--><g class="entity" data-qualified-name="Interactive TUI.Terminal" data-source-line="54" id="ent0032"><rect fill="#FFFFFF" height="34" rx="2.5" ry="2.5" style="stroke:#000000;stroke-width:1;" width="74.4551" x="1019.92" y="194"/><text fill="#000000" font-family="Helvetica" font-size="14" lengthAdjust="spacing" textLength="54.4551" x="1029.92" y="214.7803">Terminal</text></g><!--entity KeyParser--><g class="entity" data-qualified-name="Interactive TUI.KeyParser" data-source-line="55" id="ent0033"><rect fill="#FFFFFF" height="34" rx="2.5" ry="2.5" style="stroke:#000000;stroke-width:1;" width="85.3584" x="1129.47" y="194"/><text fill="#000000" font-family="Helvetica" font-size="14" lengthAdjust="spacing" textLength="65.3584" x="1139.47" y="214.7803">KeyParser</text></g><!--link Form to Config--><g class="link" data-entity-1="ent0002" data-entity-2="ent0004" data-link-type="dependency" data-source-line="58" id="lnk34"><path d="M572.74,228.41 C547.01,248.13 508.0486,277.9886 482.3686,297.6686" fill="none" id="Form-to-Config" style="stroke:#000000;stroke-width:1;"/><polygon fill="#000000" points="478.4,300.71,487.9766,298.4104,482.3686,297.6686,483.1104,292.0606,478.4,300.71" style="stroke:#000000;stroke-width:1;stroke-linejoin:miter;stroke-miterlimit:10;"/></g><!--reverse link Config to Panel--><g class="link" data-entity-1="ent0004" data-entity-2="ent0005" data-link-type="composition" data-source-line="59" id="lnk35"><path d="M457.15,347.39 C457.15,366.42 457.15,385.64 457.15,404.65" fill="none" id="Config-backto-Panel" style="stroke:#000000;stroke-width:1;"/><polygon fill="#000000" points="457.15,335.39,453.15,341.39,457.15,347.39,461.15,341.39,457.15,335.39" style="stroke:#000000;stroke-width:1;stroke-linejoin:miter;stroke-miterlimit:10;"/></g><!--reverse link Panel to Field--><g class="link" data-entity-1="ent0005" data-entity-2="ent0006" data-link-type="composition" data-source-line="60" id="lnk36"><path d="M457.15,451.45 C457.15,468.19 457.15,482 457.15,498.69" fill="none" id="Panel-backto-Field" style="stroke:#000000;stroke-width:1;"/><polygon fill="#000000" points="457.15,439.45,453.15,445.45,457.15,451.45,461.15,445.45,457.15,439.45" style="stroke:#000000;stroke-width:1;stroke-linejoin:miter;stroke-miterlimit:10;"/></g><!--link Engine to Config--><g class="link" data-entity-1="ent0008" data-entity-2="ent0004" data-link-type="dependency" data-source-line="62" id="lnk37"><path d="M1437.88,112.03 C1392.15,121.61 1305.74,138.36 1231.15,145 C1212.36,146.67 568.44,143.48 552.15,153 C523.38,169.81 482.6775,258.0563 466.0875,296.1263" fill="none" id="Engine-to-Config" style="stroke:#000000;stroke-width:1;"/><polygon fill="#000000" points="464.09,300.71,471.3524,294.0573,466.0875,296.1263,464.0185,290.8614,464.09,300.71" style="stroke:#000000;stroke-width:1;stroke-linejoin:miter;stroke-miterlimit:10;"/></g><!--link Engine to InputResolver--><g class="link" data-entity-1="ent0008" data-entity-2="ent0010" data-link-type="dependency" data-source-line="63" id="lnk38"><path d="M1442.96,121.42 C1428.51,130.39 1410.59,141.91 1395.15,153 C1377.05,166 1361.1882,178.7656 1347.1382,190.4956" fill="none" id="Engine-to-InputResolver" style="stroke:#000000;stroke-width:1;"/><polygon fill="#000000" points="1343.3,193.7,1352.7723,191.0026,1347.1382,190.4956,1347.6452,184.8615,1343.3,193.7" style="stroke:#000000;stroke-width:1;stroke-linejoin:miter;stroke-miterlimit:10;"/></g><!--link Engine to Discover specs--><g class="link" data-entity-1="ent0008" data-entity-2="ent0011" data-link-type="dependency" data-source-line="64" id="lnk39"><path d="M1470.15,121.41 C1470.15,141.13 1470.15,169.03 1470.15,188.71" fill="none" id="Engine-to-Discover specs" style="stroke:#000000;stroke-width:1;"/><polygon fill="#000000" points="1470.15,193.71,1474.15,184.71,1470.15,188.71,1466.15,184.71,1470.15,193.71" style="stroke:#000000;stroke-width:1;stroke-linejoin:miter;stroke-miterlimit:10;"/></g><!--link Engine to Deriver--><g class="link" data-entity-1="ent0008" data-entity-2="ent0012" data-link-type="dependency" data-source-line="65" id="lnk40"><path d="M1499.97,121.44 C1514.3,129.98 1531.32,141.11 1545.15,153 C1559.42,165.27 1570.2488,177.6979 1579.7688,189.7379" fill="none" id="Engine-to-Deriver" style="stroke:#000000;stroke-width:1;"/><polygon fill="#000000" points="1582.87,193.66,1580.4255,184.1193,1579.7688,189.7379,1574.1502,189.0812,1582.87,193.66" style="stroke:#000000;stroke-width:1;stroke-linejoin:miter;stroke-miterlimit:10;"/></g><!--link Deriver to Derive--><g class="link" data-entity-1="ent0012" data-entity-2="ent0013" data-link-type="dependency" data-source-line="66" id="lnk41"><path d="M1595.15,228.41 C1595.15,248.13 1595.15,276.03 1595.15,295.71" fill="none" id="Deriver-to-Derive" style="stroke:#000000;stroke-width:1;"/><polygon fill="#000000" points="1595.15,300.71,1599.15,291.71,1595.15,295.71,1591.15,291.71,1595.15,300.71" style="stroke:#000000;stroke-width:1;stroke-linejoin:miter;stroke-miterlimit:10;"/></g><!--link Derive to Transform--><g class="link" data-entity-1="ent0013" data-entity-2="ent0014" data-link-type="dependency" data-source-line="67" id="lnk42"><path d="M1595.15,335.39 C1595.15,354.42 1595.15,380.64 1595.15,399.65" fill="none" id="Derive-to-Transform" style="stroke:#000000;stroke-width:1;"/><polygon fill="#000000" points="1595.15,404.65,1599.15,395.65,1595.15,399.65,1591.15,395.65,1595.15,404.65" style="stroke:#000000;stroke-width:1;stroke-linejoin:miter;stroke-miterlimit:10;"/></g><!--link Engine to Condition--><g class="link" data-entity-1="ent0008" data-entity-2="ent0015" data-link-type="dependency" data-source-line="68" id="lnk43"><path d="M1502.4,108.78 C1539.05,114.19 1599.66,126.56 1645.15,153 C1663.06,163.41 1676.1409,176.9626 1686.6709,189.8126" fill="none" id="Engine-to-Condition" style="stroke:#000000;stroke-width:1;"/><polygon fill="#000000" points="1689.84,193.68,1687.2294,184.1834,1686.6709,189.8126,1681.0417,189.254,1689.84,193.68" style="stroke:#000000;stroke-width:1;stroke-linejoin:miter;stroke-miterlimit:10;"/></g><!--link Engine to HandlerRegistry--><g class="link" data-entity-1="ent0008" data-entity-2="ent0017" data-link-type="dependency" data-source-line="69" id="lnk44"><path d="M1502.17,106.66 C1556.33,110.27 1668.84,121.25 1758.15,153 C1786.2,162.97 1811.3181,177.879 1830.8881,190.909" fill="none" id="Engine-to-HandlerRegistry" style="stroke:#000000;stroke-width:1;"/><polygon fill="#000000" points="1835.05,193.68,1829.7754,185.3626,1830.8881,190.909,1825.3418,192.0216,1835.05,193.68" style="stroke:#000000;stroke-width:1;stroke-linejoin:miter;stroke-miterlimit:10;"/></g><!--link Engine to Answers--><g class="link" data-entity-1="ent0008" data-entity-2="ent0020" data-link-type="dependency" data-source-line="70" id="lnk45"><path d="M1437.88,112.07 C1392.16,121.71 1305.75,138.52 1231.15,145 C1201.18,147.6 175.74,141.01 148.15,153 C129.15,161.26 116.5035,175.6804 107.0735,189.3904" fill="none" id="Engine-to-Answers" style="stroke:#000000;stroke-width:1;"/><polygon fill="#000000" points="104.24,193.51,112.636,188.3616,107.0735,189.3904,106.0447,183.8279,104.24,193.51" style="stroke:#000000;stroke-width:1;stroke-linejoin:miter;stroke-miterlimit:10;"/></g><!--link SchemaGenerator to Config--><g class="link" data-entity-1="ent0021" data-entity-2="ent0004" data-link-type="dependency" data-source-line="72" id="lnk46"><path d="M267.88,228.37 C283.28,235.62 301.61,244.24 318.15,252 C355.41,269.48 393.7993,287.425 421.9693,300.575" fill="none" id="SchemaGenerator-to-Config" style="stroke:#000000;stroke-width:1;"/><polygon fill="#000000" points="426.5,302.69,420.0368,295.2585,421.9693,300.575,416.6528,302.5076,426.5,302.69" style="stroke:#000000;stroke-width:1;stroke-linejoin:miter;stroke-miterlimit:10;"/></g><!--link SchemaValidator to Config--><g class="link" data-entity-1="ent0022" data-entity-2="ent0004" data-link-type="dependency" data-source-line="73" id="lnk47"><path d="M408.21,228.41 C419.11,248.13 434.8626,276.6532 445.7326,296.3332" fill="none" id="SchemaValidator-to-Config" style="stroke:#000000;stroke-width:1;"/><polygon fill="#000000" points="448.15,300.71,447.3,290.8979,445.7326,296.3332,440.2972,294.7658,448.15,300.71" style="stroke:#000000;stroke-width:1;stroke-linejoin:miter;stroke-miterlimit:10;"/></g><!--link PanelController to Config--><g class="link" data-entity-1="ent0024" data-entity-2="ent0004" data-link-type="dependency" data-source-line="75" id="lnk48"><path d="M764.6,106.42 C587.15,111.02 65.87,126.71 41.15,153 C11,185.05 12.54,218.57 41.15,252 C91.06,310.31 334.0201,316.6766 421.5201,317.0866" fill="none" id="PanelController-to-Config" style="stroke:#000000;stroke-width:1;"/><polygon fill="#000000" points="426.52,317.11,417.5388,313.0679,421.5201,317.0866,417.5014,321.0678,426.52,317.11" style="stroke:#000000;stroke-width:1;stroke-linejoin:miter;stroke-miterlimit:10;"/></g><!--link ThemeManager to Theme--><g class="link" data-entity-1="ent0025" data-entity-2="ent0026" data-link-type="dependency" data-source-line="76" id="lnk49"><path d="M1140.89,335.39 C1123.16,354.42 1097.4993,381.9825 1079.7793,400.9925" fill="none" id="ThemeManager-to-Theme" style="stroke:#000000;stroke-width:1;"/><polygon fill="#000000" points="1076.37,404.65,1085.4326,400.794,1079.7793,400.9925,1079.5807,395.3392,1076.37,404.65" style="stroke:#000000;stroke-width:1;stroke-linejoin:miter;stroke-miterlimit:10;"/></g><!--link PanelController to Theme--><g class="link" data-entity-1="ent0024" data-entity-2="ent0026" data-link-type="dependency" data-source-line="77" id="lnk50"><path d="M833.45,121.07 C839.08,130.22 845.94,142.02 851.15,153 C871.28,195.44 850.26,224.24 888.15,252 C902.06,262.19 1030.6,248.18 1043.15,260 C1083.17,297.7 1073.6366,366.8273 1066.3866,399.7073" fill="none" id="PanelController-to-Theme" style="stroke:#000000;stroke-width:1;"/><polygon fill="#000000" points="1065.31,404.59,1071.1541,396.6624,1066.3866,399.7073,1063.3418,394.9398,1065.31,404.59" style="stroke:#000000;stroke-width:1;stroke-linejoin:miter;stroke-miterlimit:10;"/></g><!--link Form to KeyMapManager--><g class="link" data-entity-1="ent0002" data-entity-2="ent0027" data-link-type="dependency" data-source-line="78" id="lnk51"><path d="M616.81,228.41 C644.05,248.13 685.4307,278.0969 712.6007,297.7769" fill="none" id="Form-to-KeyMapManager" style="stroke:#000000;stroke-width:1;"/><polygon fill="#000000" points="716.65,300.71,711.7076,292.191,712.6007,297.7769,707.0147,298.67,716.65,300.71" style="stroke:#000000;stroke-width:1;stroke-linejoin:miter;stroke-miterlimit:10;"/></g><!--link KeyMapManager to KeyMap--><g class="link" data-entity-1="ent0027" data-entity-2="ent0028" data-link-type="dependency" data-source-line="79" id="lnk52"><path d="M755.06,335.39 C773.53,354.42 800.3367,382.053 818.7967,401.063" fill="none" id="KeyMapManager-to-KeyMap" style="stroke:#000000;stroke-width:1;"/><polygon fill="#000000" points="822.28,404.65,818.8798,395.4067,818.7967,401.063,813.1405,400.9799,822.28,404.65" style="stroke:#000000;stroke-width:1;stroke-linejoin:miter;stroke-miterlimit:10;"/></g><!--link Config to KeyMap--><g class="link" data-entity-1="ent0004" data-entity-2="ent0028" data-link-type="dependency" data-source-line="80" id="lnk53"><path d="M487.68,327.17 C557.26,345.8 722.46,390.0271 797.14,410.0171" fill="none" id="Config-to-KeyMap" style="stroke:#000000;stroke-width:1;"/><polygon fill="#000000" points="801.97,411.31,794.3104,405.1189,797.14,410.0171,792.2418,412.8468,801.97,411.31" style="stroke:#000000;stroke-width:1;stroke-linejoin:miter;stroke-miterlimit:10;"/></g><!--link PanelController to KeyMap--><g class="link" data-entity-1="ent0024" data-entity-2="ent0028" data-link-type="dependency" data-source-line="81" id="lnk54"><path d="M764.42,114.52 C742,121.33 718.61,133 705.15,153 C680.59,189.51 675.14,219.83 705.15,252 C722.62,270.73 801.66,242.27 820.15,260 C840.55,279.56 840.1682,362.6625 838.9982,399.6125" fill="none" id="PanelController-to-KeyMap" style="stroke:#000000;stroke-width:1;"/><polygon fill="#000000" points="838.84,404.61,843.1228,395.7411,838.9982,399.6125,835.1268,395.4879,838.84,404.61" style="stroke:#000000;stroke-width:1;stroke-linejoin:miter;stroke-miterlimit:10;"/></g><!--link PanelController to WidgetFactory--><g class="link" data-entity-1="ent0024" data-entity-2="ent0029" data-link-type="dependency" data-source-line="82" id="lnk55"><path d="M816.12,121.41 C807.66,141.13 795.5288,169.4339 787.0988,189.1139" fill="none" id="PanelController-to-WidgetFactory" style="stroke:#000000;stroke-width:1;"/><polygon fill="#000000" points="785.13,193.71,792.3506,187.012,787.0988,189.1139,784.9969,183.862,785.13,193.71" style="stroke:#000000;stroke-width:1;stroke-linejoin:miter;stroke-miterlimit:10;"/></g><!--link WidgetFactory to KeyMap--><g class="link" data-entity-1="ent0029" data-entity-2="ent0028" data-link-type="dependency" data-source-line="83" id="lnk56"><path d="M814.81,228.45 C827.42,236.11 840.12,246.55 847.15,260 C872.04,307.64 856.1359,369.6449 845.8259,400.0449" fill="none" id="WidgetFactory-to-KeyMap" style="stroke:#000000;stroke-width:1;"/><polygon fill="#000000" points="844.22,404.78,850.8987,397.5415,845.8259,400.0449,843.3225,394.9721,844.22,404.78" style="stroke:#000000;stroke-width:1;stroke-linejoin:miter;stroke-miterlimit:10;"/></g><!--link WidgetFactory to WidgetInterface--><g class="link" data-entity-1="ent0029" data-entity-2="ent0030" data-link-type="dependency" data-source-line="84" id="lnk57"><path d="M809.25,228.37 C824.39,236.03 842.99,244.99 860.15,252 C870.56,256.25 874.07,255.02 884.15,260 C913.54,274.52 940.6497,294.914 955.4197,306.684" fill="none" id="WidgetFactory-to-WidgetInterface" style="stroke:#000000;stroke-width:1;"/><polygon fill="#000000" points="959.33,309.8,954.7843,301.0629,955.4197,306.684,949.7987,307.3193,959.33,309.8" style="stroke:#000000;stroke-width:1;stroke-linejoin:miter;stroke-miterlimit:10;"/></g><!--link WidgetInterface to Theme--><g class="link" data-entity-1="ent0030" data-entity-2="ent0026" data-link-type="dependency" data-source-line="85" id="lnk58"><path d="M975.14,326.67 C990.18,343.16 1022.522,378.6245 1042.882,400.9645" fill="none" id="WidgetInterface-to-Theme" style="stroke:#000000;stroke-width:1;"/><polygon fill="#000000" points="1046.25,404.66,1043.1441,395.3137,1042.882,400.9645,1037.2312,400.7025,1046.25,404.66" style="stroke:#000000;stroke-width:1;stroke-linejoin:miter;stroke-miterlimit:10;"/></g><!--link WidgetInterface to KeyMap--><g class="link" data-entity-1="ent0030" data-entity-2="ent0028" data-link-type="dependency" data-source-line="86" id="lnk59"><path d="M959.21,326.01 C938.68,342.12 891.6037,379.0536 862.7737,401.6736" fill="none" id="WidgetInterface-to-KeyMap" style="stroke:#000000;stroke-width:1;"/><polygon fill="#000000" points="858.84,404.76,868.3898,402.3515,862.7737,401.6736,863.4516,396.0575,858.84,404.76" style="stroke:#000000;stroke-width:1;stroke-linejoin:miter;stroke-miterlimit:10;"/></g><!--link PanelController to Navigator--><g class="link" data-entity-1="ent0024" data-entity-2="ent0031" data-link-type="dependency" data-source-line="87" id="lnk60"><path d="M842.21,121.41 C865.13,141.13 899.5707,170.7679 922.4307,190.4479" fill="none" id="PanelController-to-Navigator" style="stroke:#000000;stroke-width:1;"/><polygon fill="#000000" points="926.22,193.71,922.0091,184.8067,922.4307,190.4479,916.7896,190.8696,926.22,193.71" style="stroke:#000000;stroke-width:1;stroke-linejoin:miter;stroke-miterlimit:10;"/></g><!--link PanelController to Terminal--><g class="link" data-entity-1="ent0024" data-entity-2="ent0032" data-link-type="dependency" data-source-line="88" id="lnk61"><path d="M881.88,112.55 C918.41,119.16 965.28,131.27 1002.15,153 C1019.68,163.33 1032.2489,176.8322 1042.3189,189.7022" fill="none" id="PanelController-to-Terminal" style="stroke:#000000;stroke-width:1;"/><polygon fill="#000000" points="1045.4,193.64,1043.0042,184.087,1042.3189,189.7022,1036.7037,189.0168,1045.4,193.64" style="stroke:#000000;stroke-width:1;stroke-linejoin:miter;stroke-miterlimit:10;"/></g><!--link PanelController to KeyParser--><g class="link" data-entity-1="ent0024" data-entity-2="ent0033" data-link-type="dependency" data-source-line="89" id="lnk62"><path d="M881.88,104.81 C942.55,106.83 1038.51,116.32 1112.15,153 C1131.44,162.61 1145.5159,176.6915 1156.5259,189.8815" fill="none" id="PanelController-to-KeyParser" style="stroke:#000000;stroke-width:1;"/><polygon fill="#000000" points="1159.73,193.72,1157.0335,184.2475,1156.5259,189.8815,1150.8919,189.374,1159.73,193.72" style="stroke:#000000;stroke-width:1;stroke-linejoin:miter;stroke-miterlimit:10;"/></g><!--link PanelController to Answers--><g class="link" data-entity-1="ent0024" data-entity-2="ent0020" data-link-type="dependency" data-source-line="90" id="lnk63"><path d="M764.47,106.75 C610.52,111.67 203.11,127.01 148.15,153 C129.54,161.8 116.987,175.9677 107.447,189.4577" fill="none" id="PanelController-to-Answers" style="stroke:#000000;stroke-width:1;"/><polygon fill="#000000" points="104.56,193.54,113.0224,188.5014,107.447,189.4577,106.4907,183.8822,104.56,193.54" style="stroke:#000000;stroke-width:1;stroke-linejoin:miter;stroke-miterlimit:10;"/></g><?plantuml-src ZLDTJzim57tFhxXZ3qX8fMmTqZwaIQF4K4qm11rxc7WmyMrguTYHxRIhflttsN6JEIuLUygzzvpxcUD3O1fNgZPZst0OGQ6gMacK5gWkbjnYOHkDnzaXtD3YYPPeeE9QAmrsYM1qCGRJF3Ak7L5fZkQJIzHgRS0irRebLPHBO5YZP2WBH_7LRh54YPfQ15oXti3T_GMikLr-1AW5bRQf18oiMPN0L676yJJZe-FQmTahLxr2J-SoCqzSrbJJ2XxTeALMZMHJ9ToWQvyOuGmNj16MA6clgSk_HB52omiQSSoIChNcieG55IRExWzqPpS2mUzDPIamizmw_t-kcMLrk2KSd3LSCDG7y9gSa7VJ2VpE07uIfQk7x4_4cogvu6NZxiMLTEnyGjwIyy0Es8CtRwX4qLg4es1f3Os-4I6J_2IavhBa4eUqMpHAD5sVz-Gq_n38CratjaNT3skRd7DJAEU0gR4m8OIQzt1hj-PSKsaMxLfXOiPzXs7dIogPG6tya9Fyb9o6ljkmKmmtLc-w2XP_sM7-jyQw2VtKqvoGDo7xYpHhLxFDkYkSOEX549xIKUoU2iv2BAuuSrqqBQnR0-RVP-tryhCy3wNRQ_j9j19Yk_FSI_AAIfSU1LhhAswkQ1rZ8TAQFpWhqHBgNr6x8lUj5xH02D2iyptxcgvusQymHrrnIKLNyuPgWs6J82KOZJx_qqbdmD5er4jc-msnhNYoJXz9_Y2Qg688fW99q4uhlHN7-_0s6abePwvEJKDWHpX3k5T6jYECPE5K8qCusn52aZxGn7QPe8ezcHqQ_Rn4F8aVSw8VF8m-t-i5ED5buYSbdW5JyIR-ODzdiHVcYrx2lcFshsF_1ReNiuVHAUKl?></g></svg>