<svg xmlns="http://www.w3.org/2000/svg" xmlns:xlink="http://www.w3.org/1999/xlink" contentStyleType="text/css" data-diagram-type="SEQUENCE" height="897px" preserveAspectRatio="none" style="width:962px;height:897px;background:#FFFFFF;" version="1.1" viewBox="0 0 962 897" width="962px" zoomAndPan="magnify"><?plantuml 1.2026.6?><defs/><g><g class="title" data-source-line="8"><text fill="#000000" font-family="Helvetica" font-size="22" font-weight="700" lengthAdjust="spacing" textLength="492.6367" x="234.0688" y="31.9404">Data flow: headless collection (Engine::collect)</text></g><g><title>InputResolver</title><rect fill="#FFFFFF" height="27" style="stroke:#000000;stroke-width:1;" width="10" x="225.5635" y="126"/></g><g><title>Engine</title><rect fill="#FFFFFF" height="644" style="stroke:#000000;stroke-width:1;" width="10" x="330.5493" y="180"/></g><g><title>Deriver</title><rect fill="#FFFFFF" height="27" style="stroke:#000000;stroke-width:1;" width="10" x="712.6802" y="527"/></g><g><title>Condition</title><rect fill="#FFFFFF" height="27" style="stroke:#000000;stroke-width:1;" width="10" x="808.5161" y="581"/></g><rect fill="#FFFFFF" height="177" style="stroke:#000000;stroke-width:1;" width="407.667" x="278.7529" y="195"/><rect fill="#FFFFFF" height="115" style="stroke:#000000;stroke-width:1;" width="387.667" x="288.7529" y="217"/><rect fill="#FFFFFF" height="115" style="stroke:#000000;stroke-width:1;" width="317.7749" x="288.7529" y="386"/><rect fill="#FFFFFF" height="115" style="stroke:#000000;stroke-width:1;" width="297.186" x="288.7529" y="656"/><g class="participant-lifeline" data-entity-uid="part1" data-qualified-name="Caller" data-source-line="10" id="part1-lifeline"><g><title>Caller</title><rect fill="#000000" fill-opacity="0.00000" height="745" width="8" x="39.2827" y="97"/><line style="stroke:#000000;stroke-width:1;stroke-dasharray:5,5;" x1="43" x2="43" y1="97" y2="842"/></g></g><g class="participant-lifeline" data-entity-uid="part2" data-qualified-name="IR" data-source-line="11" id="part2-lifeline"><g><title>InputResolver</title><rect fill="#000000" fill-opacity="0.00000" height="745" width="8" x="226.5635" y="97"/><line style="stroke:#000000;stroke-width:1;stroke-dasharray:5,5;" x1="230.374" x2="230.374" y1="97" y2="842"/></g></g><g class="participant-lifeline" data-entity-uid="part3" data-qualified-name="Eng" data-source-line="12" id="part3-lifeline"><g><title>Engine</title><rect fill="#000000" fill-opacity="0.00000" height="745" width="8" x="331.5493" y="97"/><line style="stroke:#000000;stroke-width:1;stroke-dasharray:5,5;" x1="334.7529" x2="334.7529" y1="97" y2="842"/></g></g><g class="participant-lifeline" data-entity-uid="part4" data-qualified-name="B" data-source-line="13" id="part4-lifeline"><g><title>Field behaviour</title><rect fill="#000000" fill-opacity="0.00000" height="745" width="8" x="458.8237" y="97"/><line style="stroke:#000000;stroke-width:1;stroke-dasharray:5,5;" x1="462.1445" x2="462.1445" y1="97" y2="842"/></g></g><g class="participant-lifeline" data-entity-uid="part5" data-qualified-name="Disc" data-source-line="14" id="part5-lifeline"><g><title>Discovery spec</title><rect fill="#000000" fill-opacity="0.00000" height="745" width="8" x="599.9614" y="97"/><line style="stroke:#000000;stroke-width:1;stroke-dasharray:5,5;" x1="603.5029" x2="603.5029" y1="97" y2="842"/></g></g><g class="participant-lifeline" data-entity-uid="part6" data-qualified-name="Der" data-source-line="15" id="part6-lifeline"><g><title>Deriver</title><rect fill="#000000" fill-opacity="0.00000" height="745" width="8" x="713.6802" y="97"/><line style="stroke:#000000;stroke-width:1;stroke-dasharray:5,5;" x1="717.4199" x2="717.4199" y1="97" y2="842"/></g></g><g class="participant-lifeline" data-entity-uid="part7" data-qualified-name="CE" data-source-line="16" id="part7-lifeline"><g><title>Condition</title><rect fill="#000000" fill-opacity="0.00000" height="745" width="8" x="809.5161" y="97"/><line style="stroke:#000000;stroke-width:1;stroke-dasharray:5,5;" x1="812.9404" x2="812.9404" y1="97" y2="842"/></g></g><g class="participant-lifeline" data-entity-uid="part8" data-qualified-name="Ans" data-source-line="17" id="part8-lifeline"><g><title>Answers</title><rect fill="#000000" fill-opacity="0.00000" height="745" width="8" x="905.9331" y="97"/><line style="stroke:#000000;stroke-width:1;stroke-dasharray:5,5;" x1="909.0918" x2="909.0918" y1="97" y2="842"/></g></g><g class="participant participant-head" data-entity-uid="part1" data-qualified-name="Caller" data-source-line="10" id="part1-head"><rect fill="#FFFFFF" height="24" rx="2.5" ry="2.5" style="stroke:#000000;stroke-width:1;" width="46.5654" x="20" y="67"/><text fill="#000000" font-family="Helvetica" font-size="14" lengthAdjust="spacing" textLength="36.5654" x="25" y="82.7803">Caller</text></g><g class="participant participant-tail" data-entity-uid="part1" data-qualified-name="Caller" data-source-line="10" id="part1-tail"><rect fill="#FFFFFF" height="24" rx="2.5" ry="2.5" style="stroke:#000000;stroke-width:1;" width="46.5654" x="20" y="846"/><text fill="#000000" font-family="Helvetica" font-size="14" lengthAdjust="spacing" textLength="36.5654" x="25" y="861.7803">Caller</text></g><g class="participant participant-head" data-entity-uid="part2" data-qualified-name="IR" data-source-line="11" id="part2-head"><rect fill="#FFFFFF" height="24" rx="2.5" ry="2.5" style="stroke:#000000;stroke-width:1;" width="96.3789" x="182.374" y="67"/><text fill="#000000" font-family="Helvetica" font-size="14" lengthAdjust="spacing" textLength="86.3789" x="187.374" y="82.7803">InputResolver</text></g><g class="participant participant-tail" data-entity-uid="part2" data-qualified-name="IR" data-source-line="11" id="part2-tail"><rect fill="#FFFFFF" height="24" rx="2.5" ry="2.5" style="stroke:#000000;stroke-width:1;" width="96.3789" x="182.374" y="846"/><text fill="#000000" font-family="Helvetica" font-size="14" lengthAdjust="spacing" textLength="86.3789" x="187.374" y="861.7803">InputResolver</text></g><g class="participant participant-head" data-entity-uid="part3" data-qualified-name="Eng" data-source-line="12" id="part3-head"><rect fill="#FFFFFF" height="24" rx="2.5" ry="2.5" style="stroke:#000000;stroke-width:1;" width="53.5928" x="308.7529" y="67"/><text fill="#000000" font-family="Helvetica" font-size="14" lengthAdjust="spacing" textLength="43.5928" x="313.7529" y="82.7803">Engine</text></g><g class="participant participant-tail" data-entity-uid="part3" data-qualified-name="Eng" data-source-line="12" id="part3-tail"><rect fill="#FFFFFF" height="24" rx="2.5" ry="2.5" style="stroke:#000000;stroke-width:1;" width="53.5928" x="308.7529" y="846"/><text fill="#000000" font-family="Helvetica" font-size="14" lengthAdjust="spacing" textLength="43.5928" x="313.7529" y="861.7803">Engine</text></g><g class="participant participant-head" data-entity-uid="part4" data-qualified-name="B" data-source-line="13" id="part4-head"><rect fill="#FFFFFF" height="38" rx="2.5" ry="2.5" style="stroke:#000000;stroke-width:1;" width="117.3584" x="404.1445" y="53"/><text fill="#000000" font-family="Helvetica" font-size="14" lengthAdjust="spacing" textLength="95.7236" x="414.9619" y="68.7803">Field behaviour</text><text fill="#000000" font-family="Helvetica" font-size="14" lengthAdjust="spacing" textLength="107.3584" x="409.1445" y="82.7803">(closure or static)</text></g><g class="participant participant-tail" data-entity-uid="part4" data-qualified-name="B" data-source-line="13" id="part4-tail"><rect fill="#FFFFFF" height="38" rx="2.5" ry="2.5" style="stroke:#000000;stroke-width:1;" width="117.3584" x="404.1445" y="846"/><text fill="#000000" font-family="Helvetica" font-size="14" lengthAdjust="spacing" textLength="95.7236" x="414.9619" y="861.7803">Field behaviour</text><text fill="#000000" font-family="Helvetica" font-size="14" lengthAdjust="spacing" textLength="107.3584" x="409.1445" y="875.7803">(closure or static)</text></g><g class="participant participant-head" data-entity-uid="part5" data-qualified-name="Disc" data-source-line="14" id="part5-head"><rect fill="#FFFFFF" height="24" rx="2.5" ry="2.5" style="stroke:#000000;stroke-width:1;" width="104.917" x="551.5029" y="67"/><text fill="#000000" font-family="Helvetica" font-size="14" lengthAdjust="spacing" textLength="94.917" x="556.5029" y="82.7803">Discovery spec</text></g><g class="participant participant-tail" data-entity-uid="part5" data-qualified-name="Disc" data-source-line="14" id="part5-tail"><rect fill="#FFFFFF" height="24" rx="2.5" ry="2.5" style="stroke:#000000;stroke-width:1;" width="104.917" x="551.5029" y="846"/><text fill="#000000" font-family="Helvetica" font-size="14" lengthAdjust="spacing" textLength="94.917" x="556.5029" y="861.7803">Discovery spec</text></g><g class="participant participant-head" data-entity-uid="part6" data-qualified-name="Der" data-source-line="15" id="part6-head"><rect fill="#FFFFFF" height="38" rx="2.5" ry="2.5" style="stroke:#000000;stroke-width:1;" width="62.5205" x="686.4199" y="53"/><text fill="#000000" font-family="Helvetica" font-size="14" lengthAdjust="spacing" textLength="45.1172" x="695.1216" y="68.7803">Deriver</text><text fill="#000000" font-family="Helvetica" font-size="14" lengthAdjust="spacing" textLength="52.5205" x="691.4199" y="82.7803">+ Derive</text></g><g class="participant participant-tail" data-entity-uid="part6" data-qualified-name="Der" data-source-line="15" id="part6-tail"><rect fill="#FFFFFF" height="38" rx="2.5" ry="2.5" style="stroke:#000000;stroke-width:1;" width="62.5205" x="686.4199" y="846"/><text fill="#000000" font-family="Helvetica" font-size="14" lengthAdjust="spacing" textLength="45.1172" x="695.1216" y="861.7803">Deriver</text><text fill="#000000" font-family="Helvetica" font-size="14" lengthAdjust="spacing" textLength="52.5205" x="691.4199" y="875.7803">+ Derive</text></g><g class="participant participant-head" data-entity-uid="part7" data-qualified-name="CE" data-source-line="16" id="part7-head"><rect fill="#FFFFFF" height="24" rx="2.5" ry="2.5" style="stroke:#000000;stroke-width:1;" width="69.1514" x="778.9404" y="67"/><text fill="#000000" font-family="Helvetica" font-size="14" lengthAdjust="spacing" textLength="59.1514" x="783.9404" y="82.7803">Condition</text></g><g class="participant participant-tail" data-entity-uid="part7" data-qualified-name="CE" data-source-line="16" id="part7-tail"><rect fill="#FFFFFF" height="24" rx="2.5" ry="2.5" style="stroke:#000000;stroke-width:1;" width="69.1514" x="778.9404" y="846"/><text fill="#000000" font-family="Helvetica" font-size="14" lengthAdjust="spacing" textLength="59.1514" x="783.9404" y="861.7803">Condition</text></g><g class="participant participant-head" data-entity-uid="part8" data-qualified-name="Ans" data-source-line="17" id="part8-head"><rect fill="#FFFFFF" height="24" rx="2.5" ry="2.5" style="stroke:#000000;stroke-width:1;" width="63.6826" x="878.0918" y="67"/><text fill="#000000" font-family="Helvetica" font-size="14" lengthAdjust="spacing" textLength="53.6826" x="883.0918" y="82.7803">Answers</text></g><g class="participant participant-tail" data-entity-uid="part8" data-qualified-name="Ans" data-source-line="17" id="part8-tail"><rect fill="#FFFFFF" height="24" rx="2.5" ry="2.5" style="stroke:#000000;stroke-width:1;" width="63.6826" x="878.0918" y="846"/><text fill="#000000" font-family="Helvetica" font-size="14" lengthAdjust="spacing" textLength="53.6826" x="883.0918" y="861.7803">Answers</text></g><g><title>InputResolver</title><rect fill="#FFFFFF" height="27" style="stroke:#000000;stroke-width:1;" width="10" x="225.5635" y="126"/></g><g><title>Engine</title><rect fill="#FFFFFF" height="644" style="stroke:#000000;stroke-width:1;" width="10" x="330.5493" y="180"/></g><g><title>Deriver</title><rect fill="#FFFFFF" height="27" style="stroke:#000000;stroke-width:1;" width="10" x="712.6802" y="527"/></g><g><title>Condition</title><rect fill="#FFFFFF" height="27" style="stroke:#000000;stroke-width:1;" width="10" x="808.5161" y="581"/></g><g class="message" data-entity-1="part1" data-entity-2="part2" data-source-line="19" id="msg1"><polygon fill="#000000" points="213.5635,122,223.5635,126,213.5635,130,217.5635,126" style="stroke:#000000;stroke-width:1;stroke-linejoin:miter;stroke-miterlimit:10;"/><line style="stroke:#000000;stroke-width:1;" x1="43.2827" x2="219.5635" y1="126" y2="126"/><text fill="#000000" font-family="Helvetica" font-size="13" lengthAdjust="spacing" textLength="163.2808" x="50.2827" y="121.0103">resolve(fields, prompts, env)</text></g><g class="message" data-entity-1="part2" data-entity-2="part1" data-source-line="21" id="msg2"><polygon fill="#000000" points="54.2827,149,44.2827,153,54.2827,157,50.2827,153" style="stroke:#000000;stroke-width:1;stroke-linejoin:miter;stroke-miterlimit:10;"/><line style="stroke:#000000;stroke-width:1;stroke-dasharray:2,2;" x1="48.2827" x2="229.5635" y1="153" y2="153"/><text fill="#000000" font-family="Helvetica" font-size="13" lengthAdjust="spacing" textLength="69.3799" x="60.2827" y="148.0103">input values</text></g><g class="message" data-entity-1="part1" data-entity-2="part3" data-source-line="24" id="msg3"><polygon fill="#000000" points="318.5493,176,328.5493,180,318.5493,184,322.5493,180" style="stroke:#000000;stroke-width:1;stroke-linejoin:miter;stroke-miterlimit:10;"/><line style="stroke:#000000;stroke-width:1;" x1="43.2827" x2="324.5493" y1="180" y2="180"/><text fill="#000000" font-family="Helvetica" font-size="13" lengthAdjust="spacing" textLength="129.3335" x="50.2827" y="175.0103">collect(inputs, context)</text></g><path d="M278.7529,195 L351.1875,195 L351.1875,200 L341.1875,210 L278.7529,210 L278.7529,195" fill="#FFFFFF" style="stroke:#000000;stroke-width:1;"/><rect fill="none" height="177" style="stroke:#000000;stroke-width:1;" width="407.667" x="278.7529" y="195"/><text fill="#000000" font-family="Helvetica" font-size="13" font-weight="700" lengthAdjust="spacing" textLength="27.4346" x="293.7529" y="206.0103">loop</text><text fill="#000000" font-family="Helvetica" font-size="11" font-weight="700" lengthAdjust="spacing" textLength="105.1284" x="366.1875" y="205.4702">[each field, in order]</text><path d="M288.7529,217 L348.9238,217 L348.9238,222 L338.9238,232 L288.7529,232 L288.7529,217" fill="#FFFFFF" style="stroke:#000000;stroke-width:1;"/><rect fill="none" height="115" style="stroke:#000000;stroke-width:1;" width="387.667" x="288.7529" y="217"/><text fill="#000000" font-family="Helvetica" font-size="13" font-weight="700" lengthAdjust="spacing" textLength="15.1709" x="303.7529" y="228.0103">alt</text><text fill="#000000" font-family="Helvetica" font-size="11" font-weight="700" lengthAdjust="spacing" textLength="144.8154" x="363.9238" y="227.4702">[update mode and no input]</text><g class="message" data-entity-1="part3" data-entity-2="part5" data-source-line="29" id="msg4"><polygon fill="#000000" points="591.9614,247,601.9614,251,591.9614,255,595.9614,251" style="stroke:#000000;stroke-width:1;stroke-linejoin:miter;stroke-miterlimit:10;"/><line style="stroke:#000000;stroke-width:1;" x1="340.5493" x2="597.9614" y1="251" y2="251"/><text fill="#000000" font-family="Helvetica" font-size="13" lengthAdjust="spacing" textLength="106.9136" x="347.5493" y="246.0103">discover(directory)</text></g><g class="message" data-entity-1="part5" data-entity-2="part3" data-source-line="30" id="msg5"><polygon fill="#000000" points="351.5493,274,341.5493,278,351.5493,282,347.5493,278" style="stroke:#000000;stroke-width:1;stroke-linejoin:miter;stroke-miterlimit:10;"/><line style="stroke:#000000;stroke-width:1;stroke-dasharray:2,2;" x1="345.5493" x2="602.9614" y1="278" y2="278"/><text fill="#000000" font-family="Helvetica" font-size="13" lengthAdjust="spacing" textLength="97.5571" x="357.5493" y="273.0103">discovered value</text></g><path d="M345,291 L345,327 L551,327 L551,301 L541,291 L345,291" fill="#FFFFFF" style="stroke:#000000;stroke-width:1;"/><path d="M541,291 L541,301 L551,301 L541,291" fill="#FFFFFF" style="stroke:#000000;stroke-width:1;"/><text fill="#000000" font-family="Helvetica" font-size="13" lengthAdjust="spacing" textLength="185.7388" x="351" y="306.0103">adopted only when it passes the</text><text fill="#000000" font-family="Helvetica" font-size="13" lengthAdjust="spacing" textLength="181.7207" x="351" y="319.0103">field's type, bounds and options</text><path d="M345,344 L345,367 L666,367 L666,354 L656,344 L345,344" fill="#FFFFFF" style="stroke:#000000;stroke-width:1;"/><path d="M656,344 L656,354 L666,354 L656,344" fill="#FFFFFF" style="stroke:#000000;stroke-width:1;"/><text fill="#000000" font-family="Helvetica" font-size="13" lengthAdjust="spacing" textLength="300.9995" x="351" y="359.0103">input &gt; discovered &gt; declared default &gt; static default</text><path d="M288.7529,386 L361.1875,386 L361.1875,391 L351.1875,401 L288.7529,401 L288.7529,386" fill="#FFFFFF" style="stroke:#000000;stroke-width:1;"/><rect fill="none" height="115" style="stroke:#000000;stroke-width:1;" width="317.7749" x="288.7529" y="386"/><text fill="#000000" font-family="Helvetica" font-size="13" font-weight="700" lengthAdjust="spacing" textLength="27.4346" x="303.7529" y="397.0103">loop</text><text fill="#000000" font-family="Helvetica" font-size="11" font-weight="700" lengthAdjust="spacing" textLength="170.5054" x="376.1875" y="396.4702">[each field with a supplied input]</text><g class="message" data-entity-1="part3" data-entity-2="part4" data-source-line="37" id="msg6"><polygon fill="#000000" points="450.8237,416,460.8237,420,450.8237,424,454.8237,420" style="stroke:#000000;stroke-width:1;stroke-linejoin:miter;stroke-miterlimit:10;"/><line style="stroke:#000000;stroke-width:1;" x1="340.5493" x2="456.8237" y1="420" y2="420"/><text fill="#000000" font-family="Helvetica" font-size="13" lengthAdjust="spacing" textLength="94.6372" x="347.5493" y="415.0103">transform(value)</text></g><g class="message" data-entity-1="part4" data-entity-2="part3" data-source-line="38" id="msg7"><polygon fill="#000000" points="351.5493,443,341.5493,447,351.5493,451,347.5493,447" style="stroke:#000000;stroke-width:1;stroke-linejoin:miter;stroke-miterlimit:10;"/><line style="stroke:#000000;stroke-width:1;stroke-dasharray:2,2;" x1="345.5493" x2="461.8237" y1="447" y2="447"/><text fill="#000000" font-family="Helvetica" font-size="13" lengthAdjust="spacing" textLength="98.2744" x="357.5493" y="442.0103">normalized value</text></g><path d="M345,460 L345,496 L596,496 L596,470 L586,460 L345,460" fill="#FFFFFF" style="stroke:#000000;stroke-width:1;"/><path d="M586,460 L586,470 L596,470 L586,460" fill="#FFFFFF" style="stroke:#000000;stroke-width:1;"/><text fill="#000000" font-family="Helvetica" font-size="13" lengthAdjust="spacing" textLength="203.7534" x="351" y="475.0103">inputs normalize first, so derivation,</text><text fill="#000000" font-family="Helvetica" font-size="13" lengthAdjust="spacing" textLength="230.5278" x="351" y="488.0103">activation and fix-ups see the final value</text><g class="message" data-entity-1="part3" data-entity-2="part6" data-source-line="42" id="msg8"><polygon fill="#000000" points="700.6802,523,710.6802,527,700.6802,531,704.6802,527" style="stroke:#000000;stroke-width:1;stroke-linejoin:miter;stroke-miterlimit:10;"/><line style="stroke:#000000;stroke-width:1;" x1="340.5493" x2="706.6802" y1="527" y2="527"/><text fill="#000000" font-family="Helvetica" font-size="13" lengthAdjust="spacing" textLength="163.3062" x="347.5493" y="522.0103">derive(rules, values, pinned)</text></g><g class="message" data-entity-1="part6" data-entity-2="part3" data-source-line="44" id="msg9"><polygon fill="#000000" points="351.5493,550,341.5493,554,351.5493,558,347.5493,554" style="stroke:#000000;stroke-width:1;stroke-linejoin:miter;stroke-miterlimit:10;"/><line style="stroke:#000000;stroke-width:1;stroke-dasharray:2,2;" x1="345.5493" x2="716.6802" y1="554" y2="554"/><text fill="#000000" font-family="Helvetica" font-size="13" lengthAdjust="spacing" textLength="137.2871" x="357.5493" y="549.0103">derived values (fixpoint)</text></g><g class="message" data-entity-1="part3" data-entity-2="part7" data-source-line="46" id="msg10"><polygon fill="#000000" points="796.5161,577,806.5161,581,796.5161,585,800.5161,581" style="stroke:#000000;stroke-width:1;stroke-linejoin:miter;stroke-miterlimit:10;"/><line style="stroke:#000000;stroke-width:1;" x1="340.5493" x2="802.5161" y1="581" y2="581"/><text fill="#000000" font-family="Helvetica" font-size="13" lengthAdjust="spacing" textLength="106.1963" x="347.5493" y="576.0103">matches(answers)</text></g><g class="message" data-entity-1="part7" data-entity-2="part3" data-source-line="48" id="msg11"><polygon fill="#000000" points="351.5493,604,341.5493,608,351.5493,612,347.5493,608" style="stroke:#000000;stroke-width:1;stroke-linejoin:miter;stroke-miterlimit:10;"/><line style="stroke:#000000;stroke-width:1;stroke-dasharray:2,2;" x1="345.5493" x2="812.5161" y1="608" y2="608"/><text fill="#000000" font-family="Helvetica" font-size="13" lengthAdjust="spacing" textLength="138.7344" x="357.5493" y="603.0103">active / inactive per field</text></g><path d="M345,621 L345,644 L548,644 L548,631 L538,621 L345,621" fill="#FFFFFF" style="stroke:#000000;stroke-width:1;"/><path d="M538,621 L538,631 L548,631 L538,621" fill="#FFFFFF" style="stroke:#000000;stroke-width:1;"/><text fill="#000000" font-family="Helvetica" font-size="13" lengthAdjust="spacing" textLength="182.8252" x="351" y="636.0103">apply fix-ups; repeat until stable</text><path d="M288.7529,656 L361.1875,656 L361.1875,661 L351.1875,671 L288.7529,671 L288.7529,656" fill="#FFFFFF" style="stroke:#000000;stroke-width:1;"/><rect fill="none" height="115" style="stroke:#000000;stroke-width:1;" width="297.186" x="288.7529" y="656"/><text fill="#000000" font-family="Helvetica" font-size="13" font-weight="700" lengthAdjust="spacing" textLength="27.4346" x="303.7529" y="667.0103">loop</text><text fill="#000000" font-family="Helvetica" font-size="11" font-weight="700" lengthAdjust="spacing" textLength="204.7515" x="376.1875" y="666.4702">[each active field with a supplied input]</text><g class="message" data-entity-1="part3" data-entity-2="part4" data-source-line="53" id="msg12"><polygon fill="#000000" points="450.8237,686,460.8237,690,450.8237,694,454.8237,690" style="stroke:#000000;stroke-width:1;stroke-linejoin:miter;stroke-miterlimit:10;"/><line style="stroke:#000000;stroke-width:1;" x1="340.5493" x2="456.8237" y1="690" y2="690"/><text fill="#000000" font-family="Helvetica" font-size="13" lengthAdjust="spacing" textLength="84.5444" x="347.5493" y="685.0103">validate(value)</text></g><g class="message" data-entity-1="part4" data-entity-2="part3" data-source-line="54" id="msg13"><polygon fill="#000000" points="351.5493,713,341.5493,717,351.5493,721,347.5493,717" style="stroke:#000000;stroke-width:1;stroke-linejoin:miter;stroke-miterlimit:10;"/><line style="stroke:#000000;stroke-width:1;stroke-dasharray:2,2;" x1="345.5493" x2="461.8237" y1="717" y2="717"/><text fill="#000000" font-family="Helvetica" font-size="13" lengthAdjust="spacing" textLength="66.4663" x="357.5493" y="712.0103">error or null</text></g><path d="M345,730 L345,766 L542,766 L542,740 L532,730 L345,730" fill="#FFFFFF" style="stroke:#000000;stroke-width:1;"/><path d="M532,730 L532,740 L542,740 L532,730" fill="#FFFFFF" style="stroke:#000000;stroke-width:1;"/><text fill="#000000" font-family="Helvetica" font-size="13" lengthAdjust="spacing" textLength="176.3315" x="351" y="745.0103">type and bounds checked first;</text><text fill="#000000" font-family="Helvetica" font-size="13" lengthAdjust="spacing" textLength="115.5845" x="351" y="758.0103">the first error throws</text><g class="message" data-entity-1="part3" data-entity-2="part8" data-source-line="58" id="msg14"><polygon fill="#000000" points="897.9331,793,907.9331,797,897.9331,801,901.9331,797" style="stroke:#000000;stroke-width:1;stroke-linejoin:miter;stroke-miterlimit:10;"/><line style="stroke:#000000;stroke-width:1;" x1="340.5493" x2="903.9331" y1="797" y2="797"/><text fill="#000000" font-family="Helvetica" font-size="13" lengthAdjust="spacing" textLength="148.8652" x="347.5493" y="792.0103">build(values, provenance)</text></g><g class="message" data-entity-1="part3" data-entity-2="part1" data-source-line="59" id="msg15"><polygon fill="#000000" points="54.2827,820,44.2827,824,54.2827,828,50.2827,824" style="stroke:#000000;stroke-width:1;stroke-linejoin:miter;stroke-miterlimit:10;"/><line style="stroke:#000000;stroke-width:1;stroke-dasharray:2,2;" x1="48.2827" x2="334.5493" y1="824" y2="824"/><text fill="#000000" font-family="Helvetica" font-size="13" lengthAdjust="spacing" textLength="49.8481" x="60.2827" y="819.0103">Answers</text></g><?plantuml-src ZLLDRziu4BthLyps4hdhn7SL2D0uwMukUt2BFVb2YsEB23qaE9GTxw_V6KgkvS052WG8nNdpzUODVGSsuI54NkJUmJrOamriVJZ2DYJeq5YFpD06xx7DBj13TGS_acdHmZQ5FN1g5o-qSuJZluVOHQX71xX_X8GS_06_UgzVEHbYYRr_fTXdrYlEPkEy-m_rOzURP0VRJ7EjS8U4oMG4F60wmVT__uAZorq34BsXtEybRkR33cneUM5IsxaigVk4YyyFKSpL7xd3FIhSKSLlZg99PWyRqxxjKkZ9BeENRe_gEB5Rt9hUvs-1yZz6_Fz6QIExrammt1aRZevsi3MUiSekUuJdCulDBGgX7fXgcl5kLbKIJIAxA0t1fwMHw_G93CDml3ONTbO3gmFgTNMD6E8NanolRTySUWiRxCp1XJwjgMvzO64BX08PXI1dnVFfsk_PSHlA13XYMn1wzG64oGbcJN_2S1nm7pjO1h9EgHXwVBcsVYK-Ok9YatDL3IIeEbvNpLbFzLORuJb4aM7CSa0wp2eZ51zKBSB9wmhknMbmRy0fRt0mlaUkB4wHanH2M7CULbrS97Gh6i3tF0cll5O-X0WIg8DIp5nI28jMsWKmFaCVhMBtmI8Oia1XA4BCe14qdvBOW1tPhQrBaZYaqwo0r5gQA6MTKR9yfOq2eI0fajjr6S9sm8acOnPG87yIMIE1on0DCpB8Bgofb7id7wU8SzZe3d2fKFnaB2o1aMnrC_X0u-Eq6Fd0rXizZai3ZwEMpXULnlj8M5baCC1zZDw9zvcTaPkdvl9UrALZPUNfGWY9mUZJSI7aLnNp1Ip94-SvS93gaivJUfwlQHokhgXoiNNlztraO4HbJRx9-35FwUOyGHLN2OHrwcNPvwF8H9kE2Er4DheApogqdoCjVcFv3ABgznWSYTGc2bMlCTdofO6zoMs7N9jXKIRXPPMMBvVWvHvX8GoCnoYv2_NJyE9rIqGoazEPX2-oTX6DI9goy-N9zZYTvnZ_TySgxJhTZPjJnPJaBP8_whs_FL8LRXdIg5tXettJtoITx9Sr3VEIynWiToaS-MfiyhGqiEcTj_NFSIKHD1bgfQA2chmUuwiqvKqW_mC0?></g></svg>