<svg xmlns="http://www.w3.org/2000/svg" xmlns:xlink="http://www.w3.org/1999/xlink" width="800" height="440.88"><rect width="800" height="440.88" rx="0" ry="0" class="a"></rect><svg height="440.88" viewBox="0 0 80 44.088" width="800" xmlns="http://www.w3.org/2000/svg" xmlns:xlink="http://www.w3.org/1999/xlink"><style>.a{fill:rgb(40,44,52)}.b{font-family:Consolas,"Courier New",Courier,"Liberation Mono",monospace}.c{fill:rgb(128,128,128);white-space:pre}.d{fill:rgb(0,128,128);font-weight:bold;white-space:pre}.e{fill:rgb(171,178,191);font-weight:bold;white-space:pre}.f{fill:rgb(128,128,128);font-weight:bold;white-space:pre}.g{fill:rgb(0,128,0);font-weight:bold;white-space:pre}.h{fill:rgb(171,178,191);white-space:pre}.i{fill:rgb(0,128,0);white-space:pre}.j{fill:transparent}.k{fill:rgb(82,139,255)}.m{animation-duration:17.387s;animation-iteration-count:infinite;animation-name:l;animation-timing-function:steps(1,end)}.n{fill:rgb(185,192,203)}.o{fill:rgb(40,44,52);font-weight:bold;white-space:pre}@keyframes l{0%{transform:translateX(-0px)}0.01%{transform:translateX(-80px)}0.55%{transform:translateX(-160px)}2.43%{transform:translateX(-240px)}2.44%{transform:translateX(-320px)}14.25%{transform:translateX(-400px)}24.75%{transform:translateX(-480px)}26.5%{transform:translateX(-560px)}29.4%{transform:translateX(-640px)}37.06%{transform:translateX(-720px)}40.01%{transform:translateX(-800px)}50.6%{transform:translateX(-880px)}52.38%{transform:translateX(-960px)}55.35%{transform:translateX(-1040px)}66.94%{transform:translateX(-1120px)}69.82%{transform:translateX(-1200px)}77.48%{transform:translateX(-1280px)}79.2%{transform:translateX(-1360px)}82.57%{transform:translateX(-1440px)}82.75%{transform:translateX(-1520px)}100%{transform:translateX(-1600px)}}</style><g font-family="Consolas, &quot;Courier New&quot;, Courier, &quot;Liberation Mono&quot;, monospace" font-size="1.67" class="b"><defs><symbol id="1"><text x="0" y="1.67" class="c">New</text><text x="4.008" y="1.67" class="c">service</text></symbol><symbol id="2"><text x="0" y="1.67" class="d">❯</text><text x="2.004" y="1.67" class="e">Basics</text><text x="9.017999999999999" y="1.67" class="f">›</text></symbol><symbol id="3"><text x="4.008" y="1.67" class="f">What</text><text x="9.017999999999999" y="1.67" class="f">the</text><text x="13.026" y="1.67" class="f">service</text><text x="21.041999999999998" y="1.67" class="f">is.</text></symbol><symbol id="4"><text x="4.008" y="1.67" class="g">api</text><text x="8.016" y="1.67" class="g">·</text><text x="10.02" y="1.67" class="g">php</text><text x="14.027999999999999" y="1.67" class="g">·</text><text x="16.032" y="1.67" class="g">8080</text></symbol><symbol id="5"><text x="2.004" y="1.67" class="h">Deployment</text><text x="13.026" y="1.67" class="c">›</text></symbol><symbol id="6"><text x="4.008" y="1.67" class="c">Where</text><text x="10.02" y="1.67" class="c">and</text><text x="14.027999999999999" y="1.67" class="c">how</text><text x="18.035999999999998" y="1.67" class="c">it</text><text x="21.041999999999998" y="1.67" class="c">runs.</text></symbol><symbol id="7"><text x="4.008" y="1.67" class="i">dev</text><text x="8.016" y="1.67" class="i">·</text><text x="10.02" y="1.67" class="i">no</text></symbol><symbol id="8"><text x="2.004" y="1.67" class="i">[</text><text x="4.008" y="1.67" class="i">Create</text><text x="11.021999999999998" y="1.67" class="i">]</text><text x="14.027999999999999" y="1.67" class="i">[</text><text x="16.032" y="1.67" class="i">Cancel</text><text x="23.045999999999996" y="1.67" class="i">]</text></symbol><symbol id="9"><text x="0" y="1.67" class="c">↑/↓</text><text x="4.008" y="1.67" class="c">move</text><text x="9.017999999999999" y="1.67" class="c">·</text><text x="11.021999999999998" y="1.67" class="c">↵</text><text x="13.026" y="1.67" class="c">select</text><text x="20.04" y="1.67" class="c">·</text><text x="22.043999999999997" y="1.67" class="c">esc</text><text x="26.052" y="1.67" class="c">back</text><text x="31.061999999999998" y="1.67" class="c">·</text><text x="33.065999999999995" y="1.67" class="c">q</text><text x="35.06999999999999" y="1.67" class="c">quit</text><text x="40.08" y="1.67" class="c">·</text><text x="42.083999999999996" y="1.67" class="c">?</text><text x="44.087999999999994" y="1.67" class="c">help</text></symbol><symbol id="10"><text x="0" y="1.67" class="c">New</text><text x="4.008" y="1.67" class="c">service</text><text x="12.024" y="1.67" class="c">›</text><text x="14.027999999999999" y="1.67" class="c">Basics</text></symbol><symbol id="11"><text x="2.004" y="1.67" class="h">Runtime</text><text x="11.021999999999998" y="1.67" class="i">php</text></symbol><symbol id="12"><text x="2.004" y="1.67" class="h">Port</text><text x="8.016" y="1.67" class="i">8080</text></symbol><symbol id="13"><text x="2.004" y="1.67" class="h">Service</text><text x="10.02" y="1.67" class="h">name</text><text x="16.032" y="1.67" class="i">api</text></symbol><symbol id="14"><text x="2.004" y="1.67" class="h">Basics</text><text x="9.017999999999999" y="1.67" class="c">›</text></symbol><symbol id="15"><text x="4.008" y="1.67" class="c">What</text><text x="9.017999999999999" y="1.67" class="c">the</text><text x="13.026" y="1.67" class="c">service</text><text x="21.041999999999998" y="1.67" class="c">is.</text></symbol><symbol id="16"><text x="4.008" y="1.67" class="i">api</text><text x="8.016" y="1.67" class="i">·</text><text x="10.02" y="1.67" class="i">php</text><text x="14.027999999999999" y="1.67" class="i">·</text><text x="16.032" y="1.67" class="i">8080</text></symbol><symbol id="17"><text x="0" y="1.67" class="d">❯</text><text x="2.004" y="1.67" class="e">Deployment</text><text x="13.026" y="1.67" class="f">›</text></symbol><symbol id="18"><text x="4.008" y="1.67" class="f">Where</text><text x="10.02" y="1.67" class="f">and</text><text x="14.027999999999999" y="1.67" class="f">how</text><text x="18.035999999999998" y="1.67" class="f">it</text><text x="21.041999999999998" y="1.67" class="f">runs.</text></symbol><symbol id="19"><text x="4.008" y="1.67" class="g">dev</text><text x="8.016" y="1.67" class="g">·</text><text x="10.02" y="1.67" class="g">no</text></symbol><symbol id="20"><text x="0" y="1.67" class="c">New</text><text x="4.008" y="1.67" class="c">service</text><text x="12.024" y="1.67" class="c">›</text><text x="14.027999999999999" y="1.67" class="c">Deployment</text></symbol><symbol id="21"><text x="0" y="1.67" class="d">❯</text><text x="2.004" y="1.67" class="e">Environment</text><text x="15.029999999999998" y="1.67" class="g">dev</text></symbol><symbol id="22"><text x="2.004" y="1.67" class="h">Enable</text><text x="9.017999999999999" y="1.67" class="h">autoscaling?</text><text x="23.045999999999996" y="1.67" class="i">no</text></symbol><symbol id="23"><text x="2.004" y="1.67" class="h">Resources</text><text x="12.024" y="1.67" class="c">›</text></symbol><symbol id="24"><text x="4.008" y="1.67" class="i">256M</text></symbol><symbol id="25"><text x="2.004" y="1.67" class="h">Environment</text><text x="15.029999999999998" y="1.67" class="i">dev</text></symbol><symbol id="26"><text x="0" y="1.67" class="h">Basics</text></symbol><symbol id="27"><text x="2.004" y="1.67" class="h">Service</text><text x="10.02" y="1.67" class="h">name:</text><text x="16.032" y="1.67" class="h">api</text></symbol><symbol id="28"><text x="2.004" y="1.67" class="h">Runtime:</text><text x="11.021999999999998" y="1.67" class="h">php</text></symbol><symbol id="29"><text x="2.004" y="1.67" class="h">Port:</text><text x="8.016" y="1.67" class="h">8080</text></symbol><symbol id="30"><text x="0" y="1.67" class="h">Deployment</text></symbol><symbol id="31"><text x="2.004" y="1.67" class="h">Environment:</text><text x="15.029999999999998" y="1.67" class="h">dev</text></symbol><symbol id="32"><text x="2.004" y="1.67" class="h">Enable</text><text x="9.017999999999999" y="1.67" class="h">autoscaling?:</text><text x="23.045999999999996" y="1.67" class="h">no</text></symbol><symbol id="33"><text x="2.004" y="1.67" class="h">Resources</text></symbol><symbol id="34"><text x="4.008" y="1.67" class="h">Memory</text><text x="11.021999999999998" y="1.67" class="h">limit:</text><text x="18.035999999999998" y="1.67" class="h">256M</text></symbol><symbol id="a"><rect height="24" width="80" x="0" y="0" class="j"></rect></symbol><symbol id="b"><rect height="1.837" width="1.1022" class="k"></rect></symbol></defs><rect height="44.088" width="80" class="a"></rect><g class="m"><svg x="0" y="0" width="1680"><svg x="0"><use xlink:href="#a"></use><use xlink:href="#b" x="-0.0040000000000000036" y="0"></use></svg><svg x="80"><use xlink:href="#a"></use><use xlink:href="#b" x="-0.0040000000000000036" y="1.662"></use></svg><svg x="160"><use xlink:href="#a"></use><use xlink:href="#b" x="-0.0040000000000000036" y="1.662"></use></svg><svg x="240"><use xlink:href="#a"></use></svg><svg x="320"><use xlink:href="#a"></use><use xlink:href="#1" y="0"></use><use xlink:href="#2" y="1.837"></use><use xlink:href="#3" y="3.674"></use><use xlink:href="#4" y="5.511"></use><use xlink:href="#5" y="7.348"></use><use xlink:href="#6" y="9.185"></use><use xlink:href="#7" y="11.022"></use><use xlink:href="#8" y="14.696"></use><use xlink:href="#9" y="18.37"></use></svg><svg x="400"><use xlink:href="#a"></use><use xlink:href="#10" y="0"></use><text x="0" y="3.5069999999999997" class="d">❯</text><text x="2.004" y="3.5069999999999997" class="e">Service</text><text x="10.02" y="3.5069999999999997" class="e">name</text><text x="16.032" y="3.5069999999999997" class="g">api</text><use xlink:href="#11" y="3.674"></use><use xlink:href="#12" y="5.511"></use><use xlink:href="#9" y="9.185"></use></svg><svg x="480"><use xlink:href="#a"></use><use xlink:href="#10" y="0"></use><use xlink:href="#13" y="1.837"></use><text x="0" y="5.343999999999999" class="d">❯</text><text x="2.004" y="5.343999999999999" class="e">Runtime</text><text x="11.021999999999998" y="5.343999999999999" class="g">php</text><use xlink:href="#12" y="5.511"></use><use xlink:href="#9" y="9.185"></use></svg><svg x="560"><use xlink:href="#a"></use><use xlink:href="#10" y="0"></use><use xlink:href="#13" y="1.837"></use><use xlink:href="#11" y="3.674"></use><text x="0" y="7.181" class="d">❯</text><text x="2.004" y="7.181" class="e">Port</text><text x="8.016" y="7.181" class="g">8080</text><use xlink:href="#9" y="9.185"></use></svg><svg x="640"><use xlink:href="#a"></use><use xlink:href="#1" y="0"></use><use xlink:href="#2" y="1.837"></use><use xlink:href="#3" y="3.674"></use><use xlink:href="#4" y="5.511"></use><use xlink:href="#5" y="7.348"></use><use xlink:href="#6" y="9.185"></use><use xlink:href="#7" y="11.022"></use><use xlink:href="#8" y="14.696"></use><use xlink:href="#9" y="18.37"></use></svg><svg x="720"><use xlink:href="#a"></use><use xlink:href="#1" y="0"></use><use xlink:href="#14" y="1.837"></use><use xlink:href="#15" y="3.674"></use><use xlink:href="#16" y="5.511"></use><use xlink:href="#17" y="7.348"></use><use xlink:href="#18" y="9.185"></use><use xlink:href="#19" y="11.022"></use><use xlink:href="#8" y="14.696"></use><use xlink:href="#9" y="18.37"></use></svg><svg x="800"><use xlink:href="#a"></use><use xlink:href="#20" y="0"></use><use xlink:href="#21" y="1.837"></use><use xlink:href="#22" y="3.674"></use><use xlink:href="#23" y="5.511"></use><use xlink:href="#24" y="7.348"></use><use xlink:href="#9" y="11.022"></use></svg><svg x="880"><use xlink:href="#a"></use><use xlink:href="#20" y="0"></use><use xlink:href="#25" y="1.837"></use><text x="0" y="5.343999999999999" class="d">❯</text><text x="2.004" y="5.343999999999999" class="e">Enable</text><text x="9.017999999999999" y="5.343999999999999" class="e">autoscaling?</text><text x="23.045999999999996" y="5.343999999999999" class="g">no</text><use xlink:href="#23" y="5.511"></use><use xlink:href="#24" y="7.348"></use><use xlink:href="#9" y="11.022"></use></svg><svg x="960"><use xlink:href="#a"></use><use xlink:href="#20" y="0"></use><use xlink:href="#25" y="1.837"></use><use xlink:href="#22" y="3.674"></use><text x="0" y="7.181" class="d">❯</text><text x="2.004" y="7.181" class="e">Resources</text><text x="12.024" y="7.181" class="f">›</text><text x="4.008" y="9.018" class="g">256M</text><use xlink:href="#9" y="11.022"></use></svg><svg x="1040"><use xlink:href="#a"></use><text x="0" y="1.67" class="c">New</text><text x="4.008" y="1.67" class="c">service</text><text x="12.024" y="1.67" class="c">›</text><text x="14.027999999999999" y="1.67" class="c">Deployment</text><text x="25.05" y="1.67" class="c">›</text><text x="27.054" y="1.67" class="c">Resources</text><text x="0" y="3.5069999999999997" class="d">❯</text><text x="2.004" y="3.5069999999999997" class="e">Memory</text><text x="9.017999999999999" y="3.5069999999999997" class="e">limit</text><text x="16.032" y="3.5069999999999997" class="g">256M</text><use xlink:href="#9" y="5.511"></use></svg><svg x="1120"><use xlink:href="#a"></use><use xlink:href="#20" y="0"></use><use xlink:href="#21" y="1.837"></use><use xlink:href="#22" y="3.674"></use><use xlink:href="#23" y="5.511"></use><use xlink:href="#24" y="7.348"></use><use xlink:href="#9" y="11.022"></use></svg><svg x="1200"><use xlink:href="#a"></use><use xlink:href="#1" y="0"></use><use xlink:href="#2" y="1.837"></use><use xlink:href="#3" y="3.674"></use><use xlink:href="#4" y="5.511"></use><use xlink:href="#5" y="7.348"></use><use xlink:href="#6" y="9.185"></use><use xlink:href="#7" y="11.022"></use><use xlink:href="#8" y="14.696"></use><use xlink:href="#9" y="18.37"></use></svg><svg x="1280"><use xlink:href="#a"></use><use xlink:href="#1" y="0"></use><use xlink:href="#14" y="1.837"></use><use xlink:href="#15" y="3.674"></use><use xlink:href="#16" y="5.511"></use><use xlink:href="#17" y="7.348"></use><use xlink:href="#18" y="9.185"></use><use xlink:href="#19" y="11.022"></use><use xlink:href="#8" y="14.696"></use><use xlink:href="#9" y="18.37"></use></svg><svg x="1360"><use xlink:href="#a"></use><use xlink:href="#1" y="0"></use><use xlink:href="#14" y="1.837"></use><use xlink:href="#15" y="3.674"></use><use xlink:href="#16" y="5.511"></use><use xlink:href="#5" y="7.348"></use><use xlink:href="#6" y="9.185"></use><use xlink:href="#7" y="11.022"></use><rect height="1.837" width="10" x="2.004" y="14.696" class="n"></rect><text x="2.004" y="16.366" class="o">[ Create ]</text><text x="14.027999999999999" y="16.366" class="i">[</text><text x="16.032" y="16.366" class="i">Cancel</text><text x="23.045999999999996" y="16.366" class="i">]</text><use xlink:href="#9" y="18.37"></use></svg><svg x="1440"><use xlink:href="#a"></use><use xlink:href="#b" x="-0.0040000000000000036" y="1.662"></use></svg><svg x="1520"><use xlink:href="#a"></use><use xlink:href="#b" x="-0.0040000000000000036" y="18.195"></use><use xlink:href="#26" y="1.837"></use><use xlink:href="#27" y="3.674"></use><use xlink:href="#28" y="5.511"></use><use xlink:href="#29" y="7.348"></use><use xlink:href="#30" y="9.185"></use><use xlink:href="#31" y="11.022"></use><use xlink:href="#32" y="12.859"></use><use xlink:href="#33" y="14.696"></use><use xlink:href="#34" y="16.533"></use></svg><svg x="1600"><use xlink:href="#a"></use><use xlink:href="#b" x="0.996" y="18.195"></use><use xlink:href="#26" y="1.837"></use><use xlink:href="#27" y="3.674"></use><use xlink:href="#28" y="5.511"></use><use xlink:href="#29" y="7.348"></use><use xlink:href="#30" y="9.185"></use><use xlink:href="#31" y="11.022"></use><use xlink:href="#32" y="12.859"></use><use xlink:href="#33" y="14.696"></use><use xlink:href="#34" y="16.533"></use></svg></svg></g></g></svg></svg>