<svg xmlns="http://www.w3.org/2000/svg" xmlns:xlink="http://www.w3.org/1999/xlink" width="800" height="440.88"><rect width="800" height="440.88" rx="0" ry="0" class="a"></rect><svg height="440.88" viewBox="0 0 80 44.088" width="800" xmlns="http://www.w3.org/2000/svg" xmlns:xlink="http://www.w3.org/1999/xlink"><style>.a{fill:rgb(40,44,52)}.b{font-family:Consolas,"Courier New",Courier,"Liberation Mono",monospace}.c{fill:rgb(0,128,128);white-space:pre}.d{fill:rgb(128,128,128);white-space:pre}.e{fill:rgb(0,128,128);font-weight:bold;white-space:pre}.f{fill:rgb(171,178,191);font-weight:bold;white-space:pre}.g{fill:rgb(128,128,128);font-weight:bold;white-space:pre}.h{fill:rgb(0,128,0);font-weight:bold;white-space:pre}.i{fill:rgb(171,178,191);white-space:pre}.j{fill:rgb(0,128,0);white-space:pre}.k{fill:rgb(185,192,203)}.l{fill:rgb(40,44,52);font-weight:bold;white-space:pre}.m{fill:transparent}.n{fill:rgb(82,139,255)}.p{animation-duration:22.084s;animation-iteration-count:infinite;animation-name:o;animation-timing-function:steps(1,end)}@keyframes o{0%{transform:translateX(-0px)}2.42%{transform:translateX(-80px)}4.3%{transform:translateX(-160px)}4.3%{transform:translateX(-240px)}4.3%{transform:translateX(-320px)}4.3%{transform:translateX(-400px)}4.3%{transform:translateX(-480px)}4.47%{transform:translateX(-560px)}15.79%{transform:translateX(-640px)}15.79%{transform:translateX(-720px)}15.94%{transform:translateX(-800px)}26.17%{transform:translateX(-880px)}26.17%{transform:translateX(-960px)}26.31%{transform:translateX(-1040px)}27.91%{transform:translateX(-1120px)}27.91%{transform:translateX(-1200px)}28.08%{transform:translateX(-1280px)}30.79%{transform:translateX(-1360px)}30.79%{transform:translateX(-1440px)}30.95%{transform:translateX(-1520px)}30.95%{transform:translateX(-1600px)}31.11%{transform:translateX(-1680px)}38.29%{transform:translateX(-1760px)}38.29%{transform:translateX(-1840px)}38.47%{transform:translateX(-1920px)}38.47%{transform:translateX(-2000px)}38.63%{transform:translateX(-2080px)}41.24%{transform:translateX(-2160px)}41.24%{transform:translateX(-2240px)}41.4%{transform:translateX(-2320px)}41.4%{transform:translateX(-2400px)}41.57%{transform:translateX(-2480px)}51.55%{transform:translateX(-2560px)}51.55%{transform:translateX(-2640px)}51.7%{transform:translateX(-2720px)}51.7%{transform:translateX(-2800px)}51.85%{transform:translateX(-2880px)}53.3%{transform:translateX(-2960px)}53.3%{transform:translateX(-3040px)}53.45%{transform:translateX(-3120px)}53.46%{transform:translateX(-3200px)}53.62%{transform:translateX(-3280px)}56.12%{transform:translateX(-3360px)}56.12%{transform:translateX(-3440px)}56.28%{transform:translateX(-3520px)}67.54%{transform:translateX(-3600px)}67.54%{transform:translateX(-3680px)}67.71%{transform:translateX(-3760px)}67.71%{transform:translateX(-3840px)}67.87%{transform:translateX(-3920px)}70.41%{transform:translateX(-4000px)}70.41%{transform:translateX(-4080px)}70.56%{transform:translateX(-4160px)}70.56%{transform:translateX(-4240px)}70.73%{transform:translateX(-4320px)}77.79%{transform:translateX(-4400px)}77.79%{transform:translateX(-4480px)}77.96%{transform:translateX(-4560px)}77.96%{transform:translateX(-4640px)}78.11%{transform:translateX(-4720px)}79.53%{transform:translateX(-4800px)}79.53%{transform:translateX(-4880px)}79.7%{transform:translateX(-4960px)}79.7%{transform:translateX(-5040px)}79.85%{transform:translateX(-5120px)}83.02%{transform:translateX(-5200px)}100%{transform:translateX(-5280px)}}</style><g font-family="Consolas, &quot;Courier New&quot;, Courier, &quot;Liberation Mono&quot;, monospace" font-size="1.67" class="b"><defs><symbol id="1"><text x="0" y="1.67" class="c">╭──────────────────────────────────────────────────────────────────────────╮</text></symbol><symbol id="2"><text x="0" y="1.67" class="c">│</text><text x="2.004" y="1.67" class="d">Fruit</text><text x="8.016" y="1.67" class="d">basket</text><text x="75.14999999999999" y="1.67" class="c">│</text></symbol><symbol id="3"><text x="0" y="1.67" class="c">├──────────────────────────────────────────────────────────────────────────┤</text></symbol><symbol id="4"><text x="0" y="1.67" class="c">│</text><text x="75.14999999999999" y="1.67" class="c">│</text></symbol><symbol id="5"><text x="0" y="1.67" class="c">│</text><text x="2.004" y="1.67" class="e">❯</text><text x="4.008" y="1.67" class="f">Basics</text><text x="11.021999999999998" y="1.67" class="g">›</text><text x="75.14999999999999" y="1.67" class="c">│</text></symbol><symbol id="6"><text x="0" y="1.67" class="c">│</text><text x="6.012" y="1.67" class="g">What</text><text x="11.021999999999998" y="1.67" class="g">the</text><text x="15.029999999999998" y="1.67" class="g">basket</text><text x="22.043999999999997" y="1.67" class="g">holds.</text><text x="75.14999999999999" y="1.67" class="c">│</text></symbol><symbol id="7"><text x="0" y="1.67" class="c">│</text><text x="6.012" y="1.67" class="h">weekly</text><text x="13.026" y="1.67" class="h">·</text><text x="15.029999999999998" y="1.67" class="h">apple</text><text x="21.041999999999998" y="1.67" class="h">·</text><text x="23.045999999999996" y="1.67" class="h">6</text></symbol><symbol id="8"><text x="0" y="1.67" class="c">│</text><text x="6.012" y="1.67" class="h">weekly</text><text x="13.026" y="1.67" class="h">·</text><text x="15.029999999999998" y="1.67" class="h">apple</text><text x="21.041999999999998" y="1.67" class="h">·</text><text x="23.045999999999996" y="1.67" class="h">6</text><text x="75.14999999999999" y="1.67" class="c">│</text></symbol><symbol id="9"><text x="0" y="1.67" class="c">│</text><text x="4.008" y="1.67" class="i">Delivery</text><text x="13.026" y="1.67" class="d">›</text><text x="75.14999999999999" y="1.67" class="c">│</text></symbol><symbol id="10"><text x="0" y="1.67" class="c">│</text><text x="6.012" y="1.67" class="d">How</text><text x="10.02" y="1.67" class="d">it</text><text x="13.026" y="1.67" class="d">arrives.</text><text x="75.14999999999999" y="1.67" class="c">│</text></symbol><symbol id="11"><text x="0" y="1.67" class="c">│</text><text x="6.012" y="1.67" class="j">pickup</text><text x="13.026" y="1.67" class="j">·</text><text x="15.029999999999998" y="1.67" class="j">no</text><text x="75.14999999999999" y="1.67" class="c">│</text></symbol><symbol id="12"><text x="0" y="1.67" class="c">│</text><text x="4.008" y="1.67" class="j">[</text><text x="6.012" y="1.67" class="j">Create</text><text x="13.026" y="1.67" class="j">]</text><text x="16.032" y="1.67" class="j">[</text><text x="18.035999999999998" y="1.67" class="j">Cancel</text><text x="25.05" y="1.67" class="j">]</text><text x="75.14999999999999" y="1.67" class="c">│</text></symbol><symbol id="13"><text x="0" y="1.67" class="c">│</text></symbol><symbol id="14"><text x="0" y="1.67" class="c">│</text><text x="2.004" y="1.67" class="d">↑/↓</text><text x="6.012" y="1.67" class="d">move</text><text x="11.021999999999998" y="1.67" class="d">·</text><text x="13.026" y="1.67" class="d">↵</text><text x="15.029999999999998" y="1.67" class="d">select</text><text x="22.043999999999997" y="1.67" class="d">·</text><text x="24.048" y="1.67" class="d">esc</text><text x="28.055999999999997" y="1.67" class="d">back</text><text x="33.065999999999995" y="1.67" class="d">·</text><text x="35.06999999999999" y="1.67" class="d">q</text><text x="37.074" y="1.67" class="d">quit</text><text x="42.083999999999996" y="1.67" class="d">·</text><text x="44.087999999999994" y="1.67" class="d">?</text><text x="46.09199999999999" y="1.67" class="d">help</text><text x="75.14999999999999" y="1.67" class="c">│</text></symbol><symbol id="15"><text x="0" y="1.67" class="c">╰──────────────────────────────────────────────────────────────────────────╯</text></symbol><symbol id="16"><text x="0" y="1.67" class="c">│</text><text x="2.004" y="1.67" class="d">Fruit</text><text x="8.016" y="1.67" class="d">basket</text><text x="15.029999999999998" y="1.67" class="d">›</text><text x="17.034" y="1.67" class="d">Basics</text><text x="75.14999999999999" y="1.67" class="c">│</text></symbol><symbol id="17"><text x="0" y="1.67" class="c">│</text><text x="2.004" y="1.67" class="e">❯</text><text x="4.008" y="1.67" class="f">Basket</text><text x="11.021999999999998" y="1.67" class="f">name</text><text x="17.034" y="1.67" class="h">weekly</text><text x="75.14999999999999" y="1.67" class="c">│</text></symbol><symbol id="18"><text x="0" y="1.67" class="c">│</text><text x="4.008" y="1.67" class="i">Fruit</text><text x="11.021999999999998" y="1.67" class="j">apple</text></symbol><symbol id="19"><text x="0" y="1.67" class="c">│</text><text x="4.008" y="1.67" class="i">Fruit</text><text x="11.021999999999998" y="1.67" class="j">apple</text><text x="75.14999999999999" y="1.67" class="c">│</text></symbol><symbol id="20"><text x="0" y="1.67" class="c">│</text><text x="4.008" y="1.67" class="i">Quantity</text><text x="14.027999999999999" y="1.67" class="j">6</text><text x="75.14999999999999" y="1.67" class="c">│</text></symbol><symbol id="21"><text x="0" y="1.67" class="c">│</text><text x="4.008" y="1.67" class="i">Basket</text><text x="11.021999999999998" y="1.67" class="i">name</text><text x="17.034" y="1.67" class="j">weekly</text><text x="75.14999999999999" y="1.67" class="c">│</text></symbol><symbol id="22"><text x="0" y="1.67" class="c">│</text><text x="2.004" y="1.67" class="e">❯</text><text x="4.008" y="1.67" class="f">Fruit</text><text x="11.021999999999998" y="1.67" class="h">apple</text></symbol><symbol id="23"><text x="0" y="1.67" class="c">│</text><text x="4.008" y="1.67" class="i">Basics</text><text x="11.021999999999998" y="1.67" class="d">›</text><text x="75.14999999999999" y="1.67" class="c">│</text></symbol><symbol id="24"><text x="0" y="1.67" class="c">│</text><text x="6.012" y="1.67" class="d">What</text><text x="11.021999999999998" y="1.67" class="d">the</text><text x="15.029999999999998" y="1.67" class="d">basket</text><text x="22.043999999999997" y="1.67" class="d">holds.</text><text x="75.14999999999999" y="1.67" class="c">│</text></symbol><symbol id="25"><text x="0" y="1.67" class="c">│</text><text x="6.012" y="1.67" class="j">weekly</text><text x="13.026" y="1.67" class="j">·</text><text x="15.029999999999998" y="1.67" class="j">apple</text><text x="21.041999999999998" y="1.67" class="j">·</text><text x="23.045999999999996" y="1.67" class="j">6</text></symbol><symbol id="26"><text x="0" y="1.67" class="c">│</text><text x="6.012" y="1.67" class="j">weekly</text><text x="13.026" y="1.67" class="j">·</text><text x="15.029999999999998" y="1.67" class="j">apple</text><text x="21.041999999999998" y="1.67" class="j">·</text><text x="23.045999999999996" y="1.67" class="j">6</text><text x="75.14999999999999" y="1.67" class="c">│</text></symbol><symbol id="27"><text x="0" y="1.67" class="c">│</text><text x="2.004" y="1.67" class="e">❯</text><text x="4.008" y="1.67" class="f">Delivery</text><text x="13.026" y="1.67" class="g">›</text><text x="75.14999999999999" y="1.67" class="c">│</text></symbol><symbol id="28"><text x="0" y="1.67" class="c">│</text><text x="6.012" y="1.67" class="g">How</text><text x="10.02" y="1.67" class="g">it</text><text x="13.026" y="1.67" class="g">arrives.</text><text x="75.14999999999999" y="1.67" class="c">│</text></symbol><symbol id="29"><text x="0" y="1.67" class="c">│</text><text x="6.012" y="1.67" class="h">pickup</text><text x="13.026" y="1.67" class="h">·</text><text x="15.029999999999998" y="1.67" class="h">no</text><text x="75.14999999999999" y="1.67" class="c">│</text></symbol><symbol id="30"><text x="0" y="1.67" class="c">│</text><text x="2.004" y="1.67" class="d">Fruit</text><text x="8.016" y="1.67" class="d">basket</text><text x="15.029999999999998" y="1.67" class="d">›</text><text x="17.034" y="1.67" class="d">Delivery</text><text x="75.14999999999999" y="1.67" class="c">│</text></symbol><symbol id="31"><text x="0" y="1.67" class="c">│</text><text x="2.004" y="1.67" class="e">❯</text><text x="4.008" y="1.67" class="f">Method</text><text x="12.024" y="1.67" class="h">pickup</text><text x="75.14999999999999" y="1.67" class="c">│</text></symbol><symbol id="32"><text x="0" y="1.67" class="c">│</text><text x="4.008" y="1.67" class="i">Gift</text><text x="9.017999999999999" y="1.67" class="i">wrap?</text><text x="16.032" y="1.67" class="j">no</text></symbol><symbol id="33"><text x="0" y="1.67" class="c">│</text><text x="4.008" y="1.67" class="i">Gift</text><text x="9.017999999999999" y="1.67" class="i">wrap?</text><text x="16.032" y="1.67" class="j">no</text><text x="75.14999999999999" y="1.67" class="c">│</text></symbol><symbol id="34"><text x="0" y="1.67" class="c">│</text><text x="4.008" y="1.67" class="i">Extras</text><text x="11.021999999999998" y="1.67" class="d">›</text><text x="75.14999999999999" y="1.67" class="c">│</text></symbol><symbol id="35"><text x="0" y="1.67" class="c">│</text><text x="6.012" y="1.67" class="j">Medium</text><text x="75.14999999999999" y="1.67" class="c">│</text></symbol><symbol id="36"><text x="0" y="1.67" class="c">╰────────────────────────────────────────────────────────────────────────</text></symbol><symbol id="37"><text x="0" y="1.67" class="c">│</text><text x="4.008" y="1.67" class="i">Method</text><text x="12.024" y="1.67" class="j">pickup</text><text x="75.14999999999999" y="1.67" class="c">│</text></symbol><symbol id="38"><text x="0" y="1.67" class="c">│</text><text x="2.004" y="1.67" class="e">❯</text><text x="4.008" y="1.67" class="f">Gift</text><text x="9.017999999999999" y="1.67" class="f">wrap?</text><text x="16.032" y="1.67" class="h">no</text></symbol><symbol id="39"><text x="0" y="1.67" class="c">│</text><text x="2.004" y="1.67" class="e">❯</text><text x="4.008" y="1.67" class="f">Gift</text><text x="9.017999999999999" y="1.67" class="f">wrap?</text><text x="16.032" y="1.67" class="h">no</text><text x="75.14999999999999" y="1.67" class="c">│</text></symbol><symbol id="40"><text x="0" y="1.67" class="c">│</text><text x="2.004" y="1.67" class="e">❯</text><text x="4.008" y="1.67" class="f">Extras</text><text x="11.021999999999998" y="1.67" class="g">›</text><text x="75.14999999999999" y="1.67" class="c">│</text></symbol><symbol id="41"><text x="0" y="1.67" class="c">│</text><text x="6.012" y="1.67" class="h">Medium</text><text x="75.14999999999999" y="1.67" class="c">│</text></symbol><symbol id="42"><text x="0" y="1.67" class="c">│</text><text x="2.004" y="1.67" class="d">Fruit</text><text x="8.016" y="1.67" class="d">basket</text><text x="15.029999999999998" y="1.67" class="d">›</text><text x="17.034" y="1.67" class="d">Delivery</text><text x="26.052" y="1.67" class="d">›</text><text x="28.055999999999997" y="1.67" class="d">Extras</text><text x="75.14999999999999" y="1.67" class="c">│</text></symbol><symbol id="43"><text x="0" y="1.67" class="c">│</text><text x="2.004" y="1.67" class="e">❯</text><text x="4.008" y="1.67" class="f">Bag</text><text x="8.016" y="1.67" class="f">size</text><text x="14.027999999999999" y="1.67" class="h">Medium</text><text x="75.14999999999999" y="1.67" class="c">│</text></symbol><symbol id="44"><text x="0" y="1.67" class="c">│</text><rect height="1.837" width="10" x="4.008" y="0" class="k"></rect><text x="4.008" y="1.67" class="l">[ Create ]</text><text x="16.032" y="1.67" class="j">[</text><text x="18.035999999999998" y="1.67" class="j">Cancel</text><text x="25.05" y="1.67" class="j">]</text><text x="75.14999999999999" y="1.67" class="c">│</text></symbol><symbol id="45"><text x="0" y="1.67" class="i">Basics</text></symbol><symbol id="46"><text x="2.004" y="1.67" class="i">Basket</text><text x="9.017999999999999" y="1.67" class="i">name:</text><text x="15.029999999999998" y="1.67" class="i">weekly</text></symbol><symbol id="47"><text x="2.004" y="1.67" class="i">Fruit:</text><text x="9.017999999999999" y="1.67" class="i">apple</text></symbol><symbol id="48"><text x="2.004" y="1.67" class="i">Quantity:</text><text x="12.024" y="1.67" class="i">6</text></symbol><symbol id="49"><text x="0" y="1.67" class="i">Delivery</text></symbol><symbol id="50"><text x="2.004" y="1.67" class="i">Method:</text><text x="10.02" y="1.67" class="i">pickup</text></symbol><symbol id="51"><text x="2.004" y="1.67" class="i">Gift</text><text x="7.013999999999999" y="1.67" class="i">wrap?:</text><text x="14.027999999999999" y="1.67" class="i">no</text></symbol><symbol id="52"><text x="2.004" y="1.67" class="i">Extras</text></symbol><symbol id="53"><text x="4.008" y="1.67" class="i">Bag</text><text x="8.016" y="1.67" class="i">size:</text><text x="14.027999999999999" y="1.67" class="i">Medium</text></symbol><symbol id="a"><rect height="24" width="80" x="0" y="0" class="m"></rect></symbol><symbol id="b"><rect height="1.837" width="1.1022" class="n"></rect></symbol></defs><rect height="44.088" width="80" class="a"></rect><g class="p"><svg x="0" y="0" width="5360"><svg x="0"><use xlink:href="#a"></use><use xlink:href="#b" x="-0.0040000000000000036" y="0"></use></svg><svg x="80"><use xlink:href="#a"></use><use xlink:href="#b" x="-0.0040000000000000036" y="0"></use></svg><svg x="160"><use xlink:href="#a"></use></svg><svg x="240"><use xlink:href="#a"></use><use xlink:href="#1" y="0"></use><use xlink:href="#2" y="1.837"></use><use xlink:href="#3" y="3.674"></use><use xlink:href="#4" y="5.511"></use><use xlink:href="#5" y="7.348"></use><use xlink:href="#6" y="9.185"></use><use xlink:href="#7" y="11.022"></use></svg><svg x="320"><use xlink:href="#a"></use><use xlink:href="#1" y="0"></use><use xlink:href="#2" y="1.837"></use><use xlink:href="#3" y="3.674"></use><use xlink:href="#4" y="5.511"></use><use xlink:href="#5" y="7.348"></use><use xlink:href="#6" y="9.185"></use><use xlink:href="#7" y="11.022"></use></svg><svg x="400"><use xlink:href="#a"></use><use xlink:href="#1" y="0"></use><use xlink:href="#2" y="1.837"></use><use xlink:href="#3" y="3.674"></use><use xlink:href="#4" y="5.511"></use><use xlink:href="#5" y="7.348"></use><use xlink:href="#6" y="9.185"></use><use xlink:href="#8" y="11.022"></use><use xlink:href="#4" y="12.859"></use><use xlink:href="#9" y="14.696"></use><use xlink:href="#10" y="16.533"></use><use xlink:href="#11" y="18.37"></use><use xlink:href="#4" y="20.206999999999997"></use><use xlink:href="#12" y="22.044"></use><use xlink:href="#4" y="23.881000000000004"></use><use xlink:href="#3" y="25.718"></use></svg><svg x="480"><use xlink:href="#a"></use><use xlink:href="#1" y="0"></use><use xlink:href="#2" y="1.837"></use><use xlink:href="#3" y="3.674"></use><use xlink:href="#4" y="5.511"></use><use xlink:href="#5" y="7.348"></use><use xlink:href="#6" y="9.185"></use><use xlink:href="#8" y="11.022"></use><use xlink:href="#4" y="12.859"></use><use xlink:href="#9" y="14.696"></use><use xlink:href="#10" y="16.533"></use><use xlink:href="#11" y="18.37"></use><use xlink:href="#4" y="20.206999999999997"></use><use xlink:href="#12" y="22.044"></use><use xlink:href="#4" y="23.881000000000004"></use><use xlink:href="#3" y="25.718"></use><use xlink:href="#13" y="27.555"></use></svg><svg x="560"><use xlink:href="#a"></use><use xlink:href="#1" y="0"></use><use xlink:href="#2" y="1.837"></use><use xlink:href="#3" y="3.674"></use><use xlink:href="#4" y="5.511"></use><use xlink:href="#5" y="7.348"></use><use xlink:href="#6" y="9.185"></use><use xlink:href="#8" y="11.022"></use><use xlink:href="#4" y="12.859"></use><use xlink:href="#9" y="14.696"></use><use xlink:href="#10" y="16.533"></use><use xlink:href="#11" y="18.37"></use><use xlink:href="#4" y="20.206999999999997"></use><use xlink:href="#12" y="22.044"></use><use xlink:href="#4" y="23.881000000000004"></use><use xlink:href="#3" y="25.718"></use><use xlink:href="#14" y="27.555"></use><use xlink:href="#15" y="29.392"></use></svg><svg x="640"><use xlink:href="#a"></use><use xlink:href="#1" y="0"></use><use xlink:href="#16" y="1.837"></use><use xlink:href="#3" y="3.674"></use><use xlink:href="#4" y="5.511"></use><use xlink:href="#17" y="7.348"></use><use xlink:href="#4" y="9.185"></use><use xlink:href="#18" y="11.022"></use></svg><svg x="720"><use xlink:href="#a"></use><use xlink:href="#1" y="0"></use><use xlink:href="#16" y="1.837"></use><use xlink:href="#3" y="3.674"></use><use xlink:href="#4" y="5.511"></use><use xlink:href="#17" y="7.348"></use><use xlink:href="#4" y="9.185"></use><use xlink:href="#18" y="11.022"></use></svg><svg x="800"><use xlink:href="#a"></use><use xlink:href="#1" y="0"></use><use xlink:href="#16" y="1.837"></use><use xlink:href="#3" y="3.674"></use><use xlink:href="#4" y="5.511"></use><use xlink:href="#17" y="7.348"></use><use xlink:href="#4" y="9.185"></use><use xlink:href="#19" y="11.022"></use><use xlink:href="#4" y="12.859"></use><use xlink:href="#20" y="14.696"></use><use xlink:href="#4" y="16.533"></use><use xlink:href="#3" y="18.37"></use><use xlink:href="#14" y="20.206999999999997"></use><use xlink:href="#15" y="22.044"></use></svg><svg x="880"><use xlink:href="#a"></use><use xlink:href="#1" y="0"></use><use xlink:href="#16" y="1.837"></use><use xlink:href="#3" y="3.674"></use><use xlink:href="#4" y="5.511"></use><use xlink:href="#21" y="7.348"></use><use xlink:href="#4" y="9.185"></use><use xlink:href="#22" y="11.022"></use></svg><svg x="960"><use xlink:href="#a"></use><use xlink:href="#1" y="0"></use><use xlink:href="#16" y="1.837"></use><use xlink:href="#3" y="3.674"></use><use xlink:href="#4" y="5.511"></use><use xlink:href="#21" y="7.348"></use><use xlink:href="#4" y="9.185"></use><use xlink:href="#22" y="11.022"></use></svg><svg x="1040"><use xlink:href="#a"></use><use xlink:href="#1" y="0"></use><use xlink:href="#16" y="1.837"></use><use xlink:href="#3" y="3.674"></use><use xlink:href="#4" y="5.511"></use><use xlink:href="#21" y="7.348"></use><use xlink:href="#4" y="9.185"></use><text x="0" y="12.692" class="c">│</text><text x="2.004" y="12.692" class="e">❯</text><text x="4.008" y="12.692" class="f">Fruit</text><text x="11.021999999999998" y="12.692" class="h">apple</text><text x="75.14999999999999" y="12.692" class="c">│</text><use xlink:href="#4" y="12.859"></use><use xlink:href="#20" y="14.696"></use><use xlink:href="#4" y="16.533"></use><use xlink:href="#3" y="18.37"></use><use xlink:href="#14" y="20.206999999999997"></use><use xlink:href="#15" y="22.044"></use></svg><svg x="1120"><use xlink:href="#a"></use><use xlink:href="#1" y="0"></use><use xlink:href="#16" y="1.837"></use><use xlink:href="#3" y="3.674"></use><use xlink:href="#4" y="5.511"></use><use xlink:href="#21" y="7.348"></use><use xlink:href="#4" y="9.185"></use><use xlink:href="#19" y="11.022"></use></svg><svg x="1200"><use xlink:href="#a"></use><use xlink:href="#1" y="0"></use><use xlink:href="#16" y="1.837"></use><use xlink:href="#3" y="3.674"></use><use xlink:href="#4" y="5.511"></use><use xlink:href="#21" y="7.348"></use><use xlink:href="#4" y="9.185"></use><use xlink:href="#19" y="11.022"></use><use xlink:href="#13" y="12.859"></use></svg><svg x="1280"><use xlink:href="#a"></use><use xlink:href="#1" y="0"></use><use xlink:href="#16" y="1.837"></use><use xlink:href="#3" y="3.674"></use><use xlink:href="#4" y="5.511"></use><use xlink:href="#21" y="7.348"></use><use xlink:href="#4" y="9.185"></use><use xlink:href="#19" y="11.022"></use><use xlink:href="#4" y="12.859"></use><text x="0" y="16.366" class="c">│</text><text x="2.004" y="16.366" class="e">❯</text><text x="4.008" y="16.366" class="f">Quantity</text><text x="14.027999999999999" y="16.366" class="h">6</text><text x="75.14999999999999" y="16.366" class="c">│</text><use xlink:href="#4" y="16.533"></use><use xlink:href="#3" y="18.37"></use><use xlink:href="#14" y="20.206999999999997"></use><use xlink:href="#15" y="22.044"></use></svg><svg x="1360"><use xlink:href="#a"></use><use xlink:href="#1" y="0"></use><use xlink:href="#2" y="1.837"></use><use xlink:href="#3" y="3.674"></use><use xlink:href="#4" y="5.511"></use><use xlink:href="#5" y="7.348"></use><use xlink:href="#6" y="9.185"></use><use xlink:href="#7" y="11.022"></use></svg><svg x="1440"><use xlink:href="#a"></use><use xlink:href="#1" y="0"></use><use xlink:href="#2" y="1.837"></use><use xlink:href="#3" y="3.674"></use><use xlink:href="#4" y="5.511"></use><use xlink:href="#5" y="7.348"></use><use xlink:href="#6" y="9.185"></use><use xlink:href="#7" y="11.022"></use></svg><svg x="1520"><use xlink:href="#a"></use><use xlink:href="#1" y="0"></use><use xlink:href="#2" y="1.837"></use><use xlink:href="#3" y="3.674"></use><use xlink:href="#4" y="5.511"></use><use xlink:href="#5" y="7.348"></use><use xlink:href="#6" y="9.185"></use><use xlink:href="#8" y="11.022"></use><use xlink:href="#4" y="12.859"></use><use xlink:href="#9" y="14.696"></use><use xlink:href="#10" y="16.533"></use><use xlink:href="#11" y="18.37"></use><use xlink:href="#4" y="20.206999999999997"></use><use xlink:href="#12" y="22.044"></use><use xlink:href="#4" y="23.881000000000004"></use><use xlink:href="#3" y="25.718"></use></svg><svg x="1600"><use xlink:href="#a"></use><use xlink:href="#1" y="0"></use><use xlink:href="#2" y="1.837"></use><use xlink:href="#3" y="3.674"></use><use xlink:href="#4" y="5.511"></use><use xlink:href="#5" y="7.348"></use><use xlink:href="#6" y="9.185"></use><use xlink:href="#8" y="11.022"></use><use xlink:href="#4" y="12.859"></use><use xlink:href="#9" y="14.696"></use><use xlink:href="#10" y="16.533"></use><use xlink:href="#11" y="18.37"></use><use xlink:href="#4" y="20.206999999999997"></use><use xlink:href="#12" y="22.044"></use><use xlink:href="#4" y="23.881000000000004"></use><use xlink:href="#3" y="25.718"></use><use xlink:href="#13" y="27.555"></use></svg><svg x="1680"><use xlink:href="#a"></use><use xlink:href="#1" y="0"></use><use xlink:href="#2" y="1.837"></use><use xlink:href="#3" y="3.674"></use><use xlink:href="#4" y="5.511"></use><use xlink:href="#5" y="7.348"></use><use xlink:href="#6" y="9.185"></use><use xlink:href="#8" y="11.022"></use><use xlink:href="#4" y="12.859"></use><use xlink:href="#9" y="14.696"></use><use xlink:href="#10" y="16.533"></use><use xlink:href="#11" y="18.37"></use><use xlink:href="#4" y="20.206999999999997"></use><use xlink:href="#12" y="22.044"></use><use xlink:href="#4" y="23.881000000000004"></use><use xlink:href="#3" y="25.718"></use><use xlink:href="#14" y="27.555"></use><use xlink:href="#15" y="29.392"></use></svg><svg x="1760"><use xlink:href="#a"></use><use xlink:href="#1" y="0"></use><use xlink:href="#2" y="1.837"></use><use xlink:href="#3" y="3.674"></use><use xlink:href="#4" y="5.511"></use><use xlink:href="#23" y="7.348"></use><use xlink:href="#24" y="9.185"></use><use xlink:href="#25" y="11.022"></use></svg><svg x="1840"><use xlink:href="#a"></use><use xlink:href="#1" y="0"></use><use xlink:href="#2" y="1.837"></use><use xlink:href="#3" y="3.674"></use><use xlink:href="#4" y="5.511"></use><use xlink:href="#23" y="7.348"></use><use xlink:href="#24" y="9.185"></use><use xlink:href="#26" y="11.022"></use></svg><svg x="1920"><use xlink:href="#a"></use><use xlink:href="#1" y="0"></use><use xlink:href="#2" y="1.837"></use><use xlink:href="#3" y="3.674"></use><use xlink:href="#4" y="5.511"></use><use xlink:href="#23" y="7.348"></use><use xlink:href="#24" y="9.185"></use><use xlink:href="#26" y="11.022"></use><use xlink:href="#4" y="12.859"></use><use xlink:href="#27" y="14.696"></use><use xlink:href="#28" y="16.533"></use><use xlink:href="#29" y="18.37"></use><use xlink:href="#4" y="20.206999999999997"></use><use xlink:href="#12" y="22.044"></use><use xlink:href="#4" y="23.881000000000004"></use><use xlink:href="#3" y="25.718"></use></svg><svg x="2000"><use xlink:href="#a"></use><use xlink:href="#1" y="0"></use><use xlink:href="#2" y="1.837"></use><use xlink:href="#3" y="3.674"></use><use xlink:href="#4" y="5.511"></use><use xlink:href="#23" y="7.348"></use><use xlink:href="#24" y="9.185"></use><use xlink:href="#26" y="11.022"></use><use xlink:href="#4" y="12.859"></use><use xlink:href="#27" y="14.696"></use><use xlink:href="#28" y="16.533"></use><use xlink:href="#29" y="18.37"></use><use xlink:href="#4" y="20.206999999999997"></use><use xlink:href="#12" y="22.044"></use><use xlink:href="#4" y="23.881000000000004"></use><use xlink:href="#3" y="25.718"></use><use xlink:href="#13" y="27.555"></use></svg><svg x="2080"><use xlink:href="#a"></use><use xlink:href="#1" y="0"></use><use xlink:href="#2" y="1.837"></use><use xlink:href="#3" y="3.674"></use><use xlink:href="#4" y="5.511"></use><use xlink:href="#23" y="7.348"></use><use xlink:href="#24" y="9.185"></use><use xlink:href="#26" y="11.022"></use><use xlink:href="#4" y="12.859"></use><use xlink:href="#27" y="14.696"></use><use xlink:href="#28" y="16.533"></use><use xlink:href="#29" y="18.37"></use><use xlink:href="#4" y="20.206999999999997"></use><use xlink:href="#12" y="22.044"></use><use xlink:href="#4" y="23.881000000000004"></use><use xlink:href="#3" y="25.718"></use><use xlink:href="#14" y="27.555"></use><use xlink:href="#15" y="29.392"></use></svg><svg x="2160"><use xlink:href="#a"></use><use xlink:href="#1" y="0"></use><use xlink:href="#30" y="1.837"></use><use xlink:href="#3" y="3.674"></use><use xlink:href="#4" y="5.511"></use><use xlink:href="#31" y="7.348"></use><use xlink:href="#4" y="9.185"></use><use xlink:href="#32" y="11.022"></use></svg><svg x="2240"><use xlink:href="#a"></use><use xlink:href="#1" y="0"></use><use xlink:href="#30" y="1.837"></use><use xlink:href="#3" y="3.674"></use><use xlink:href="#4" y="5.511"></use><use xlink:href="#31" y="7.348"></use><use xlink:href="#4" y="9.185"></use><use xlink:href="#32" y="11.022"></use></svg><svg x="2320"><use xlink:href="#a"></use><use xlink:href="#1" y="0"></use><use xlink:href="#30" y="1.837"></use><use xlink:href="#3" y="3.674"></use><use xlink:href="#4" y="5.511"></use><use xlink:href="#31" y="7.348"></use><use xlink:href="#4" y="9.185"></use><use xlink:href="#33" y="11.022"></use><use xlink:href="#4" y="12.859"></use><use xlink:href="#34" y="14.696"></use><use xlink:href="#35" y="16.533"></use><use xlink:href="#4" y="18.37"></use><use xlink:href="#3" y="20.206999999999997"></use><use xlink:href="#14" y="22.044"></use><use xlink:href="#36" y="23.881000000000004"></use></svg><svg x="2400"><use xlink:href="#a"></use><use xlink:href="#1" y="0"></use><use xlink:href="#30" y="1.837"></use><use xlink:href="#3" y="3.674"></use><use xlink:href="#4" y="5.511"></use><use xlink:href="#31" y="7.348"></use><use xlink:href="#4" y="9.185"></use><use xlink:href="#33" y="11.022"></use><use xlink:href="#4" y="12.859"></use><use xlink:href="#34" y="14.696"></use><use xlink:href="#35" y="16.533"></use><use xlink:href="#4" y="18.37"></use><use xlink:href="#3" y="20.206999999999997"></use><use xlink:href="#14" y="22.044"></use><use xlink:href="#15" y="23.881000000000004"></use></svg><svg x="2480"><use xlink:href="#a"></use><use xlink:href="#1" y="0"></use><use xlink:href="#30" y="1.837"></use><use xlink:href="#3" y="3.674"></use><use xlink:href="#4" y="5.511"></use><use xlink:href="#31" y="7.348"></use><use xlink:href="#4" y="9.185"></use><use xlink:href="#33" y="11.022"></use><use xlink:href="#4" y="12.859"></use><use xlink:href="#34" y="14.696"></use><use xlink:href="#35" y="16.533"></use><use xlink:href="#4" y="18.37"></use><use xlink:href="#3" y="20.206999999999997"></use><use xlink:href="#14" y="22.044"></use><use xlink:href="#15" y="23.881000000000004"></use></svg><svg x="2560"><use xlink:href="#a"></use><use xlink:href="#1" y="0"></use><use xlink:href="#30" y="1.837"></use><use xlink:href="#3" y="3.674"></use><use xlink:href="#4" y="5.511"></use><use xlink:href="#37" y="7.348"></use><use xlink:href="#4" y="9.185"></use><use xlink:href="#38" y="11.022"></use></svg><svg x="2640"><use xlink:href="#a"></use><use xlink:href="#1" y="0"></use><use xlink:href="#30" y="1.837"></use><use xlink:href="#3" y="3.674"></use><use xlink:href="#4" y="5.511"></use><use xlink:href="#37" y="7.348"></use><use xlink:href="#4" y="9.185"></use><use xlink:href="#38" y="11.022"></use></svg><svg x="2720"><use xlink:href="#a"></use><use xlink:href="#1" y="0"></use><use xlink:href="#30" y="1.837"></use><use xlink:href="#3" y="3.674"></use><use xlink:href="#4" y="5.511"></use><use xlink:href="#37" y="7.348"></use><use xlink:href="#4" y="9.185"></use><use xlink:href="#39" y="11.022"></use><use xlink:href="#4" y="12.859"></use><use xlink:href="#34" y="14.696"></use><use xlink:href="#35" y="16.533"></use><use xlink:href="#4" y="18.37"></use><use xlink:href="#3" y="20.206999999999997"></use><use xlink:href="#14" y="22.044"></use><use xlink:href="#36" y="23.881000000000004"></use></svg><svg x="2800"><use xlink:href="#a"></use><use xlink:href="#1" y="0"></use><use xlink:href="#30" y="1.837"></use><use xlink:href="#3" y="3.674"></use><use xlink:href="#4" y="5.511"></use><use xlink:href="#37" y="7.348"></use><use xlink:href="#4" y="9.185"></use><use xlink:href="#39" y="11.022"></use><use xlink:href="#4" y="12.859"></use><use xlink:href="#34" y="14.696"></use><use xlink:href="#35" y="16.533"></use><use xlink:href="#4" y="18.37"></use><use xlink:href="#3" y="20.206999999999997"></use><use xlink:href="#14" y="22.044"></use><use xlink:href="#15" y="23.881000000000004"></use></svg><svg x="2880"><use xlink:href="#a"></use><use xlink:href="#1" y="0"></use><use xlink:href="#30" y="1.837"></use><use xlink:href="#3" y="3.674"></use><use xlink:href="#4" y="5.511"></use><use xlink:href="#37" y="7.348"></use><use xlink:href="#4" y="9.185"></use><use xlink:href="#39" y="11.022"></use><use xlink:href="#4" y="12.859"></use><use xlink:href="#34" y="14.696"></use><use xlink:href="#35" y="16.533"></use><use xlink:href="#4" y="18.37"></use><use xlink:href="#3" y="20.206999999999997"></use><use xlink:href="#14" y="22.044"></use><use xlink:href="#15" y="23.881000000000004"></use></svg><svg x="2960"><use xlink:href="#a"></use><use xlink:href="#1" y="0"></use><use xlink:href="#30" y="1.837"></use><use xlink:href="#3" y="3.674"></use><use xlink:href="#4" y="5.511"></use><use xlink:href="#37" y="7.348"></use><use xlink:href="#4" y="9.185"></use><use xlink:href="#33" y="11.022"></use></svg><svg x="3040"><use xlink:href="#a"></use><use xlink:href="#1" y="0"></use><use xlink:href="#30" y="1.837"></use><use xlink:href="#3" y="3.674"></use><use xlink:href="#4" y="5.511"></use><use xlink:href="#37" y="7.348"></use><use xlink:href="#4" y="9.185"></use><use xlink:href="#33" y="11.022"></use><use xlink:href="#13" y="12.859"></use></svg><svg x="3120"><use xlink:href="#a"></use><use xlink:href="#1" y="0"></use><use xlink:href="#30" y="1.837"></use><use xlink:href="#3" y="3.674"></use><use xlink:href="#4" y="5.511"></use><use xlink:href="#37" y="7.348"></use><use xlink:href="#4" y="9.185"></use><use xlink:href="#33" y="11.022"></use><use xlink:href="#4" y="12.859"></use><use xlink:href="#40" y="14.696"></use><use xlink:href="#41" y="16.533"></use><use xlink:href="#4" y="18.37"></use><use xlink:href="#3" y="20.206999999999997"></use><use xlink:href="#14" y="22.044"></use><use xlink:href="#36" y="23.881000000000004"></use></svg><svg x="3200"><use xlink:href="#a"></use><use xlink:href="#1" y="0"></use><use xlink:href="#30" y="1.837"></use><use xlink:href="#3" y="3.674"></use><use xlink:href="#4" y="5.511"></use><use xlink:href="#37" y="7.348"></use><use xlink:href="#4" y="9.185"></use><use xlink:href="#33" y="11.022"></use><use xlink:href="#4" y="12.859"></use><use xlink:href="#40" y="14.696"></use><use xlink:href="#41" y="16.533"></use><use xlink:href="#4" y="18.37"></use><use xlink:href="#3" y="20.206999999999997"></use><use xlink:href="#14" y="22.044"></use><text x="0" y="25.551000000000002" class="c">╰──────────────────────────────────────────────────────────────────────────</text></svg><svg x="3280"><use xlink:href="#a"></use><use xlink:href="#1" y="0"></use><use xlink:href="#30" y="1.837"></use><use xlink:href="#3" y="3.674"></use><use xlink:href="#4" y="5.511"></use><use xlink:href="#37" y="7.348"></use><use xlink:href="#4" y="9.185"></use><use xlink:href="#33" y="11.022"></use><use xlink:href="#4" y="12.859"></use><use xlink:href="#40" y="14.696"></use><use xlink:href="#41" y="16.533"></use><use xlink:href="#4" y="18.37"></use><use xlink:href="#3" y="20.206999999999997"></use><use xlink:href="#14" y="22.044"></use><use xlink:href="#15" y="23.881000000000004"></use></svg><svg x="3360"><use xlink:href="#a"></use><use xlink:href="#1" y="0"></use><use xlink:href="#42" y="1.837"></use><use xlink:href="#3" y="3.674"></use><use xlink:href="#4" y="5.511"></use><use xlink:href="#43" y="7.348"></use><use xlink:href="#4" y="9.185"></use><text x="0" y="12.692" class="c">├──────────────────────────</text></svg><svg x="3440"><use xlink:href="#a"></use><use xlink:href="#1" y="0"></use><use xlink:href="#42" y="1.837"></use><use xlink:href="#3" y="3.674"></use><use xlink:href="#4" y="5.511"></use><use xlink:href="#43" y="7.348"></use><use xlink:href="#4" y="9.185"></use><text x="0" y="12.692" class="c">├────────────────────────────</text></svg><svg x="3520"><use xlink:href="#a"></use><use xlink:href="#1" y="0"></use><use xlink:href="#42" y="1.837"></use><use xlink:href="#3" y="3.674"></use><use xlink:href="#4" y="5.511"></use><use xlink:href="#43" y="7.348"></use><use xlink:href="#4" y="9.185"></use><use xlink:href="#3" y="11.022"></use><use xlink:href="#14" y="12.859"></use><use xlink:href="#15" y="14.696"></use></svg><svg x="3600"><use xlink:href="#a"></use><use xlink:href="#1" y="0"></use><use xlink:href="#30" y="1.837"></use><use xlink:href="#3" y="3.674"></use><use xlink:href="#4" y="5.511"></use><use xlink:href="#31" y="7.348"></use><use xlink:href="#4" y="9.185"></use><use xlink:href="#32" y="11.022"></use></svg><svg x="3680"><use xlink:href="#a"></use><use xlink:href="#1" y="0"></use><use xlink:href="#30" y="1.837"></use><use xlink:href="#3" y="3.674"></use><use xlink:href="#4" y="5.511"></use><use xlink:href="#31" y="7.348"></use><use xlink:href="#4" y="9.185"></use><use xlink:href="#32" y="11.022"></use></svg><svg x="3760"><use xlink:href="#a"></use><use xlink:href="#1" y="0"></use><use xlink:href="#30" y="1.837"></use><use xlink:href="#3" y="3.674"></use><use xlink:href="#4" y="5.511"></use><use xlink:href="#31" y="7.348"></use><use xlink:href="#4" y="9.185"></use><use xlink:href="#33" y="11.022"></use><use xlink:href="#4" y="12.859"></use><use xlink:href="#34" y="14.696"></use><use xlink:href="#35" y="16.533"></use><use xlink:href="#4" y="18.37"></use><use xlink:href="#3" y="20.206999999999997"></use><use xlink:href="#14" y="22.044"></use><use xlink:href="#36" y="23.881000000000004"></use></svg><svg x="3840"><use xlink:href="#a"></use><use xlink:href="#1" y="0"></use><use xlink:href="#30" y="1.837"></use><use xlink:href="#3" y="3.674"></use><use xlink:href="#4" y="5.511"></use><use xlink:href="#31" y="7.348"></use><use xlink:href="#4" y="9.185"></use><use xlink:href="#33" y="11.022"></use><use xlink:href="#4" y="12.859"></use><use xlink:href="#34" y="14.696"></use><use xlink:href="#35" y="16.533"></use><use xlink:href="#4" y="18.37"></use><use xlink:href="#3" y="20.206999999999997"></use><use xlink:href="#14" y="22.044"></use><use xlink:href="#15" y="23.881000000000004"></use></svg><svg x="3920"><use xlink:href="#a"></use><use xlink:href="#1" y="0"></use><use xlink:href="#30" y="1.837"></use><use xlink:href="#3" y="3.674"></use><use xlink:href="#4" y="5.511"></use><use xlink:href="#31" y="7.348"></use><use xlink:href="#4" y="9.185"></use><use xlink:href="#33" y="11.022"></use><use xlink:href="#4" y="12.859"></use><use xlink:href="#34" y="14.696"></use><use xlink:href="#35" y="16.533"></use><use xlink:href="#4" y="18.37"></use><use xlink:href="#3" y="20.206999999999997"></use><use xlink:href="#14" y="22.044"></use><use xlink:href="#15" y="23.881000000000004"></use></svg><svg x="4000"><use xlink:href="#a"></use><use xlink:href="#1" y="0"></use><use xlink:href="#2" y="1.837"></use><use xlink:href="#3" y="3.674"></use><use xlink:href="#4" y="5.511"></use><use xlink:href="#5" y="7.348"></use><use xlink:href="#6" y="9.185"></use><use xlink:href="#7" y="11.022"></use></svg><svg x="4080"><use xlink:href="#a"></use><use xlink:href="#1" y="0"></use><use xlink:href="#2" y="1.837"></use><use xlink:href="#3" y="3.674"></use><use xlink:href="#4" y="5.511"></use><use xlink:href="#5" y="7.348"></use><use xlink:href="#6" y="9.185"></use><use xlink:href="#7" y="11.022"></use></svg><svg x="4160"><use xlink:href="#a"></use><use xlink:href="#1" y="0"></use><use xlink:href="#2" y="1.837"></use><use xlink:href="#3" y="3.674"></use><use xlink:href="#4" y="5.511"></use><use xlink:href="#5" y="7.348"></use><use xlink:href="#6" y="9.185"></use><use xlink:href="#8" y="11.022"></use><use xlink:href="#4" y="12.859"></use><use xlink:href="#9" y="14.696"></use><use xlink:href="#10" y="16.533"></use><use xlink:href="#11" y="18.37"></use><use xlink:href="#4" y="20.206999999999997"></use><use xlink:href="#12" y="22.044"></use><use xlink:href="#4" y="23.881000000000004"></use><use xlink:href="#3" y="25.718"></use></svg><svg x="4240"><use xlink:href="#a"></use><use xlink:href="#1" y="0"></use><use xlink:href="#2" y="1.837"></use><use xlink:href="#3" y="3.674"></use><use xlink:href="#4" y="5.511"></use><use xlink:href="#5" y="7.348"></use><use xlink:href="#6" y="9.185"></use><use xlink:href="#8" y="11.022"></use><use xlink:href="#4" y="12.859"></use><use xlink:href="#9" y="14.696"></use><use xlink:href="#10" y="16.533"></use><use xlink:href="#11" y="18.37"></use><use xlink:href="#4" y="20.206999999999997"></use><use xlink:href="#12" y="22.044"></use><use xlink:href="#4" y="23.881000000000004"></use><use xlink:href="#3" y="25.718"></use><use xlink:href="#13" y="27.555"></use></svg><svg x="4320"><use xlink:href="#a"></use><use xlink:href="#1" y="0"></use><use xlink:href="#2" y="1.837"></use><use xlink:href="#3" y="3.674"></use><use xlink:href="#4" y="5.511"></use><use xlink:href="#5" y="7.348"></use><use xlink:href="#6" y="9.185"></use><use xlink:href="#8" y="11.022"></use><use xlink:href="#4" y="12.859"></use><use xlink:href="#9" y="14.696"></use><use xlink:href="#10" y="16.533"></use><use xlink:href="#11" y="18.37"></use><use xlink:href="#4" y="20.206999999999997"></use><use xlink:href="#12" y="22.044"></use><use xlink:href="#4" y="23.881000000000004"></use><use xlink:href="#3" y="25.718"></use><use xlink:href="#14" y="27.555"></use><use xlink:href="#15" y="29.392"></use></svg><svg x="4400"><use xlink:href="#a"></use><use xlink:href="#1" y="0"></use><use xlink:href="#2" y="1.837"></use><use xlink:href="#3" y="3.674"></use><use xlink:href="#4" y="5.511"></use><use xlink:href="#23" y="7.348"></use><use xlink:href="#24" y="9.185"></use><use xlink:href="#25" y="11.022"></use></svg><svg x="4480"><use xlink:href="#a"></use><use xlink:href="#1" y="0"></use><use xlink:href="#2" y="1.837"></use><use xlink:href="#3" y="3.674"></use><use xlink:href="#4" y="5.511"></use><use xlink:href="#23" y="7.348"></use><use xlink:href="#24" y="9.185"></use><use xlink:href="#26" y="11.022"></use></svg><svg x="4560"><use xlink:href="#a"></use><use xlink:href="#1" y="0"></use><use xlink:href="#2" y="1.837"></use><use xlink:href="#3" y="3.674"></use><use xlink:href="#4" y="5.511"></use><use xlink:href="#23" y="7.348"></use><use xlink:href="#24" y="9.185"></use><use xlink:href="#26" y="11.022"></use><use xlink:href="#4" y="12.859"></use><use xlink:href="#27" y="14.696"></use><use xlink:href="#28" y="16.533"></use><use xlink:href="#29" y="18.37"></use><use xlink:href="#4" y="20.206999999999997"></use><use xlink:href="#12" y="22.044"></use><use xlink:href="#4" y="23.881000000000004"></use><use xlink:href="#3" y="25.718"></use></svg><svg x="4640"><use xlink:href="#a"></use><use xlink:href="#1" y="0"></use><use xlink:href="#2" y="1.837"></use><use xlink:href="#3" y="3.674"></use><use xlink:href="#4" y="5.511"></use><use xlink:href="#23" y="7.348"></use><use xlink:href="#24" y="9.185"></use><use xlink:href="#26" y="11.022"></use><use xlink:href="#4" y="12.859"></use><use xlink:href="#27" y="14.696"></use><use xlink:href="#28" y="16.533"></use><use xlink:href="#29" y="18.37"></use><use xlink:href="#4" y="20.206999999999997"></use><use xlink:href="#12" y="22.044"></use><use xlink:href="#4" y="23.881000000000004"></use><use xlink:href="#3" y="25.718"></use><use xlink:href="#13" y="27.555"></use></svg><svg x="4720"><use xlink:href="#a"></use><use xlink:href="#1" y="0"></use><use xlink:href="#2" y="1.837"></use><use xlink:href="#3" y="3.674"></use><use xlink:href="#4" y="5.511"></use><use xlink:href="#23" y="7.348"></use><use xlink:href="#24" y="9.185"></use><use xlink:href="#26" y="11.022"></use><use xlink:href="#4" y="12.859"></use><use xlink:href="#27" y="14.696"></use><use xlink:href="#28" y="16.533"></use><use xlink:href="#29" y="18.37"></use><use xlink:href="#4" y="20.206999999999997"></use><use xlink:href="#12" y="22.044"></use><use xlink:href="#4" y="23.881000000000004"></use><use xlink:href="#3" y="25.718"></use><use xlink:href="#14" y="27.555"></use><use xlink:href="#15" y="29.392"></use></svg><svg x="4800"><use xlink:href="#a"></use><use xlink:href="#1" y="0"></use><use xlink:href="#2" y="1.837"></use><use xlink:href="#3" y="3.674"></use><use xlink:href="#4" y="5.511"></use><use xlink:href="#23" y="7.348"></use><use xlink:href="#24" y="9.185"></use><use xlink:href="#25" y="11.022"></use></svg><svg x="4880"><use xlink:href="#a"></use><use xlink:href="#1" y="0"></use><use xlink:href="#2" y="1.837"></use><use xlink:href="#3" y="3.674"></use><use xlink:href="#4" y="5.511"></use><use xlink:href="#23" y="7.348"></use><use xlink:href="#24" y="9.185"></use><use xlink:href="#26" y="11.022"></use></svg><svg x="4960"><use xlink:href="#a"></use><use xlink:href="#1" y="0"></use><use xlink:href="#2" y="1.837"></use><use xlink:href="#3" y="3.674"></use><use xlink:href="#4" y="5.511"></use><use xlink:href="#23" y="7.348"></use><use xlink:href="#24" y="9.185"></use><use xlink:href="#26" y="11.022"></use><use xlink:href="#4" y="12.859"></use><use xlink:href="#9" y="14.696"></use><use xlink:href="#10" y="16.533"></use><use xlink:href="#11" y="18.37"></use><use xlink:href="#4" y="20.206999999999997"></use><use xlink:href="#44" y="22.044"></use><use xlink:href="#4" y="23.881000000000004"></use><use xlink:href="#3" y="25.718"></use><text x="0" y="29.225" class="c">│</text><text x="2.004" y="29.225" class="d">↑/↓</text></svg><svg x="5040"><use xlink:href="#a"></use><use xlink:href="#1" y="0"></use><use xlink:href="#2" y="1.837"></use><use xlink:href="#3" y="3.674"></use><use xlink:href="#4" y="5.511"></use><use xlink:href="#23" y="7.348"></use><use xlink:href="#24" y="9.185"></use><use xlink:href="#26" y="11.022"></use><use xlink:href="#4" y="12.859"></use><use xlink:href="#9" y="14.696"></use><use xlink:href="#10" y="16.533"></use><use xlink:href="#11" y="18.37"></use><use xlink:href="#4" y="20.206999999999997"></use><use xlink:href="#44" y="22.044"></use><use xlink:href="#4" y="23.881000000000004"></use><use xlink:href="#3" y="25.718"></use><text x="0" y="29.225" class="c">│</text><text x="2.004" y="29.225" class="d">↑/↓</text><text x="6.012" y="29.225" class="d">move</text><text x="11.021999999999998" y="29.225" class="d">·</text></svg><svg x="5120"><use xlink:href="#a"></use><use xlink:href="#1" y="0"></use><use xlink:href="#2" y="1.837"></use><use xlink:href="#3" y="3.674"></use><use xlink:href="#4" y="5.511"></use><use xlink:href="#23" y="7.348"></use><use xlink:href="#24" y="9.185"></use><use xlink:href="#26" y="11.022"></use><use xlink:href="#4" y="12.859"></use><use xlink:href="#9" y="14.696"></use><use xlink:href="#10" y="16.533"></use><use xlink:href="#11" y="18.37"></use><use xlink:href="#4" y="20.206999999999997"></use><use xlink:href="#44" y="22.044"></use><use xlink:href="#4" y="23.881000000000004"></use><use xlink:href="#3" y="25.718"></use><use xlink:href="#14" y="27.555"></use><use xlink:href="#15" y="29.392"></use></svg><svg x="5200"><use xlink:href="#a"></use><use xlink:href="#b" x="-0.0040000000000000036" y="16.358"></use><use xlink:href="#45" y="0"></use><use xlink:href="#46" y="1.837"></use><use xlink:href="#47" y="3.674"></use><use xlink:href="#48" y="5.511"></use><use xlink:href="#49" y="7.348"></use><use xlink:href="#50" y="9.185"></use><use xlink:href="#51" y="11.022"></use><use xlink:href="#52" y="12.859"></use><use xlink:href="#53" y="14.696"></use></svg><svg x="5280"><use xlink:href="#a"></use><use xlink:href="#b" x="0.996" y="16.358"></use><use xlink:href="#45" y="0"></use><use xlink:href="#46" y="1.837"></use><use xlink:href="#47" y="3.674"></use><use xlink:href="#48" y="5.511"></use><use xlink:href="#49" y="7.348"></use><use xlink:href="#50" y="9.185"></use><use xlink:href="#51" y="11.022"></use><use xlink:href="#52" y="12.859"></use><use xlink:href="#53" y="14.696"></use></svg></svg></g></g></svg></svg>