<svg xmlns="http://www.w3.org/2000/svg" xmlns:xlink="http://www.w3.org/1999/xlink" width="800" height="440.88"><rect width="800" height="440.88" rx="0" ry="0" class="a"></rect><svg height="440.88" viewBox="0 0 80 44.088" width="800" xmlns="http://www.w3.org/2000/svg" xmlns:xlink="http://www.w3.org/1999/xlink"><style>.a{fill:rgb(250,250,250)}.b{font-family:Consolas,"Courier New",Courier,"Liberation Mono",monospace}.c{fill:rgb(0,128,128);white-space:pre}.d{fill:rgb(90,96,105);white-space:pre}.e{fill:rgb(0,128,128);font-weight:bold;white-space:pre}.f{fill:rgb(56,58,66);font-weight:bold;white-space:pre}.g{fill:rgb(90,96,105);font-weight:bold;white-space:pre}.h{fill:rgb(0,128,0);font-weight:bold;white-space:pre}.i{fill:rgb(56,58,66);white-space:pre}.j{fill:rgb(0,128,0);white-space:pre}.k{fill:rgb(40,44,52)}.l{fill:rgb(250,250,250);font-weight:bold;white-space:pre}.m{fill:transparent}.n{fill:rgb(82,139,255)}.p{animation-duration:21.765s;animation-iteration-count:infinite;animation-name:o;animation-timing-function:steps(1,end)}@keyframes o{0%{transform:translateX(-0px)}0.58%{transform:translateX(-80px)}2.49%{transform:translateX(-160px)}2.5%{transform:translateX(-240px)}2.5%{transform:translateX(-320px)}2.5%{transform:translateX(-400px)}2.5%{transform:translateX(-480px)}2.66%{transform:translateX(-560px)}14.2%{transform:translateX(-640px)}14.2%{transform:translateX(-720px)}14.35%{transform:translateX(-800px)}24.71%{transform:translateX(-880px)}24.71%{transform:translateX(-960px)}24.86%{transform:translateX(-1040px)}26.4%{transform:translateX(-1120px)}26.4%{transform:translateX(-1200px)}26.56%{transform:translateX(-1280px)}29.58%{transform:translateX(-1360px)}29.58%{transform:translateX(-1440px)}29.74%{transform:translateX(-1520px)}29.74%{transform:translateX(-1600px)}29.91%{transform:translateX(-1680px)}37.21%{transform:translateX(-1760px)}37.21%{transform:translateX(-1840px)}37.38%{transform:translateX(-1920px)}37.38%{transform:translateX(-2000px)}37.55%{transform:translateX(-2080px)}40.1%{transform:translateX(-2160px)}40.1%{transform:translateX(-2240px)}40.26%{transform:translateX(-2320px)}40.26%{transform:translateX(-2400px)}40.42%{transform:translateX(-2480px)}50.52%{transform:translateX(-2560px)}50.52%{transform:translateX(-2640px)}50.67%{transform:translateX(-2720px)}50.67%{transform:translateX(-2800px)}50.84%{transform:translateX(-2880px)}52.38%{transform:translateX(-2960px)}52.38%{transform:translateX(-3040px)}52.53%{transform:translateX(-3120px)}52.53%{transform:translateX(-3200px)}52.7%{transform:translateX(-3280px)}55.31%{transform:translateX(-3360px)}55.31%{transform:translateX(-3440px)}55.48%{transform:translateX(-3520px)}66.93%{transform:translateX(-3600px)}66.93%{transform:translateX(-3680px)}67.08%{transform:translateX(-3760px)}67.08%{transform:translateX(-3840px)}67.22%{transform:translateX(-3920px)}69.95%{transform:translateX(-4000px)}69.95%{transform:translateX(-4080px)}70.1%{transform:translateX(-4160px)}70.1%{transform:translateX(-4240px)}70.24%{transform:translateX(-4320px)}77.56%{transform:translateX(-4400px)}77.56%{transform:translateX(-4480px)}77.7%{transform:translateX(-4560px)}77.7%{transform:translateX(-4640px)}77.85%{transform:translateX(-4720px)}79.3%{transform:translateX(-4800px)}79.3%{transform:translateX(-4880px)}79.44%{transform:translateX(-4960px)}79.44%{transform:translateX(-5040px)}79.61%{transform:translateX(-5120px)}82.77%{transform:translateX(-5200px)}100%{transform:translateX(-5280px)}}</style><g font-family="Consolas, &quot;Courier New&quot;, Courier, &quot;Liberation Mono&quot;, monospace" font-size="1.67" class="b"><defs><symbol id="1"><text x="0" y="1.67" class="c">╭──────────────────────────────────────────────────────────────────────────╮</text></symbol><symbol id="2"><text x="0" y="1.67" class="c">│</text><text x="2.004" y="1.67" class="d">New</text><text x="6.012" y="1.67" class="d">service</text><text x="75.14999999999999" y="1.67" class="c">│</text></symbol><symbol id="3"><text x="0" y="1.67" class="c">├──────────────────────────────────────────────────────────────────────────┤</text></symbol><symbol id="4"><text x="0" y="1.67" class="c">│</text><text x="75.14999999999999" y="1.67" class="c">│</text></symbol><symbol id="5"><text x="0" y="1.67" class="c">│</text><text x="2.004" y="1.67" class="e">❯</text><text x="4.008" y="1.67" class="f">Basics</text><text x="11.021999999999998" y="1.67" class="g">›</text><text x="75.14999999999999" y="1.67" class="c">│</text></symbol><symbol id="6"><text x="0" y="1.67" class="c">│</text><text x="6.012" y="1.67" class="g">What</text><text x="11.021999999999998" y="1.67" class="g">the</text><text x="15.029999999999998" y="1.67" class="g">service</text><text x="23.045999999999996" y="1.67" class="g">is.</text><text x="75.14999999999999" y="1.67" class="c">│</text></symbol><symbol id="7"><text x="0" y="1.67" class="c">│</text><text x="6.012" y="1.67" class="h">api</text><text x="10.02" y="1.67" class="h">·</text><text x="12.024" y="1.67" class="h">php</text><text x="16.032" y="1.67" class="h">·</text><text x="18.035999999999998" y="1.67" class="h">8080</text></symbol><symbol id="8"><text x="0" y="1.67" class="c">│</text><text x="6.012" y="1.67" class="h">api</text><text x="10.02" y="1.67" class="h">·</text><text x="12.024" y="1.67" class="h">php</text><text x="16.032" y="1.67" class="h">·</text><text x="18.035999999999998" y="1.67" class="h">8080</text><text x="75.14999999999999" y="1.67" class="c">│</text></symbol><symbol id="9"><text x="0" y="1.67" class="c">│</text><text x="4.008" y="1.67" class="i">Deployment</text><text x="15.029999999999998" y="1.67" class="d">›</text><text x="75.14999999999999" y="1.67" class="c">│</text></symbol><symbol id="10"><text x="0" y="1.67" class="c">│</text><text x="6.012" y="1.67" class="d">Where</text><text x="12.024" y="1.67" class="d">and</text><text x="16.032" y="1.67" class="d">how</text><text x="20.04" y="1.67" class="d">it</text><text x="23.045999999999996" y="1.67" class="d">runs.</text><text x="75.14999999999999" y="1.67" class="c">│</text></symbol><symbol id="11"><text x="0" y="1.67" class="c">│</text><text x="6.012" y="1.67" class="j">dev</text><text x="10.02" y="1.67" class="j">·</text><text x="12.024" y="1.67" class="j">no</text><text x="75.14999999999999" y="1.67" class="c">│</text></symbol><symbol id="12"><text x="0" y="1.67" class="c">│</text><text x="4.008" y="1.67" class="j">[</text><text x="6.012" y="1.67" class="j">Create</text><text x="13.026" y="1.67" class="j">]</text><text x="16.032" y="1.67" class="j">[</text><text x="18.035999999999998" y="1.67" class="j">Cancel</text><text x="25.05" y="1.67" class="j">]</text><text x="75.14999999999999" y="1.67" class="c">│</text></symbol><symbol id="13"><text x="0" y="1.67" class="c">│</text></symbol><symbol id="14"><text x="0" y="1.67" class="c">│</text><text x="2.004" y="1.67" class="d">↑/↓</text><text x="6.012" y="1.67" class="d">move</text><text x="11.021999999999998" y="1.67" class="d">·</text><text x="13.026" y="1.67" class="d">↵</text><text x="15.029999999999998" y="1.67" class="d">select</text><text x="22.043999999999997" y="1.67" class="d">·</text><text x="24.048" y="1.67" class="d">esc</text><text x="28.055999999999997" y="1.67" class="d">back</text><text x="33.065999999999995" y="1.67" class="d">·</text><text x="35.06999999999999" y="1.67" class="d">q</text><text x="37.074" y="1.67" class="d">quit</text><text x="42.083999999999996" y="1.67" class="d">·</text><text x="44.087999999999994" y="1.67" class="d">?</text><text x="46.09199999999999" y="1.67" class="d">help</text><text x="75.14999999999999" y="1.67" class="c">│</text></symbol><symbol id="15"><text x="0" y="1.67" class="c">╰──────────────────────────────────────────────────────────────────────────╯</text></symbol><symbol id="16"><text x="0" y="1.67" class="c">│</text><text x="2.004" y="1.67" class="d">New</text><text x="6.012" y="1.67" class="d">service</text><text x="14.027999999999999" y="1.67" class="d">›</text><text x="16.032" y="1.67" class="d">Basics</text><text x="75.14999999999999" y="1.67" class="c">│</text></symbol><symbol id="17"><text x="0" y="1.67" class="c">│</text><text x="2.004" y="1.67" class="e">❯</text><text x="4.008" y="1.67" class="f">Service</text><text x="12.024" y="1.67" class="f">name</text><text x="18.035999999999998" y="1.67" class="h">api</text><text x="75.14999999999999" y="1.67" class="c">│</text></symbol><symbol id="18"><text x="0" y="1.67" class="c">│</text><text x="4.008" y="1.67" class="i">Runtime</text><text x="13.026" y="1.67" class="j">php</text></symbol><symbol id="19"><text x="0" y="1.67" class="c">│</text><text x="4.008" y="1.67" class="i">Runtime</text><text x="13.026" y="1.67" class="j">php</text><text x="75.14999999999999" y="1.67" class="c">│</text></symbol><symbol id="20"><text x="0" y="1.67" class="c">│</text><text x="4.008" y="1.67" class="i">Port</text><text x="10.02" y="1.67" class="j">8080</text><text x="75.14999999999999" y="1.67" class="c">│</text></symbol><symbol id="21"><text x="0" y="1.67" class="c">│</text><text x="4.008" y="1.67" class="i">Service</text><text x="12.024" y="1.67" class="i">name</text><text x="18.035999999999998" y="1.67" class="j">api</text><text x="75.14999999999999" y="1.67" class="c">│</text></symbol><symbol id="22"><text x="0" y="1.67" class="c">│</text><text x="2.004" y="1.67" class="e">❯</text><text x="4.008" y="1.67" class="f">Runtime</text><text x="13.026" y="1.67" class="h">php</text></symbol><symbol id="23"><text x="0" y="1.67" class="c">│</text><text x="4.008" y="1.67" class="i">Basics</text><text x="11.021999999999998" y="1.67" class="d">›</text><text x="75.14999999999999" y="1.67" class="c">│</text></symbol><symbol id="24"><text x="0" y="1.67" class="c">│</text><text x="6.012" y="1.67" class="d">What</text><text x="11.021999999999998" y="1.67" class="d">the</text><text x="15.029999999999998" y="1.67" class="d">service</text><text x="23.045999999999996" y="1.67" class="d">is.</text><text x="75.14999999999999" y="1.67" class="c">│</text></symbol><symbol id="25"><text x="0" y="1.67" class="c">│</text><text x="6.012" y="1.67" class="j">api</text><text x="10.02" y="1.67" class="j">·</text><text x="12.024" y="1.67" class="j">php</text><text x="16.032" y="1.67" class="j">·</text><text x="18.035999999999998" y="1.67" class="j">8080</text></symbol><symbol id="26"><text x="0" y="1.67" class="c">│</text><text x="6.012" y="1.67" class="j">api</text><text x="10.02" y="1.67" class="j">·</text><text x="12.024" y="1.67" class="j">php</text><text x="16.032" y="1.67" class="j">·</text><text x="18.035999999999998" y="1.67" class="j">8080</text><text x="75.14999999999999" y="1.67" class="c">│</text></symbol><symbol id="27"><text x="0" y="1.67" class="c">│</text><text x="2.004" y="1.67" class="e">❯</text><text x="4.008" y="1.67" class="f">Deployment</text><text x="15.029999999999998" y="1.67" class="g">›</text><text x="75.14999999999999" y="1.67" class="c">│</text></symbol><symbol id="28"><text x="0" y="1.67" class="c">│</text><text x="6.012" y="1.67" class="g">Where</text><text x="12.024" y="1.67" class="g">and</text><text x="16.032" y="1.67" class="g">how</text><text x="20.04" y="1.67" class="g">it</text><text x="23.045999999999996" y="1.67" class="g">runs.</text><text x="75.14999999999999" y="1.67" class="c">│</text></symbol><symbol id="29"><text x="0" y="1.67" class="c">│</text><text x="6.012" y="1.67" class="h">dev</text><text x="10.02" y="1.67" class="h">·</text><text x="12.024" y="1.67" class="h">no</text><text x="75.14999999999999" y="1.67" class="c">│</text></symbol><symbol id="30"><text x="0" y="1.67" class="c">│</text><text x="2.004" y="1.67" class="d">New</text><text x="6.012" y="1.67" class="d">service</text><text x="14.027999999999999" y="1.67" class="d">›</text><text x="16.032" y="1.67" class="d">Deployment</text><text x="75.14999999999999" y="1.67" class="c">│</text></symbol><symbol id="31"><text x="0" y="1.67" class="c">│</text><text x="2.004" y="1.67" class="e">❯</text><text x="4.008" y="1.67" class="f">Environment</text><text x="17.034" y="1.67" class="h">dev</text><text x="75.14999999999999" y="1.67" class="c">│</text></symbol><symbol id="32"><text x="0" y="1.67" class="c">│</text><text x="4.008" y="1.67" class="i">Enable</text><text x="11.021999999999998" y="1.67" class="i">autoscaling?</text><text x="25.05" y="1.67" class="j">no</text></symbol><symbol id="33"><text x="0" y="1.67" class="c">│</text><text x="4.008" y="1.67" class="i">Enable</text><text x="11.021999999999998" y="1.67" class="i">autoscaling?</text><text x="25.05" y="1.67" class="j">no</text><text x="75.14999999999999" y="1.67" class="c">│</text></symbol><symbol id="34"><text x="0" y="1.67" class="c">│</text><text x="4.008" y="1.67" class="i">Resources</text><text x="14.027999999999999" y="1.67" class="d">›</text><text x="75.14999999999999" y="1.67" class="c">│</text></symbol><symbol id="35"><text x="0" y="1.67" class="c">│</text><text x="6.012" y="1.67" class="j">256M</text><text x="75.14999999999999" y="1.67" class="c">│</text></symbol><symbol id="36"><text x="0" y="1.67" class="c">╰────────────────────────────────────────────────────────────────────────</text></symbol><symbol id="37"><text x="0" y="1.67" class="c">│</text><text x="4.008" y="1.67" class="i">Environment</text><text x="17.034" y="1.67" class="j">dev</text><text x="75.14999999999999" y="1.67" class="c">│</text></symbol><symbol id="38"><text x="0" y="1.67" class="c">│</text><text x="2.004" y="1.67" class="e">❯</text><text x="4.008" y="1.67" class="f">Enable</text><text x="11.021999999999998" y="1.67" class="f">autoscaling?</text><text x="25.05" y="1.67" class="h">no</text></symbol><symbol id="39"><text x="0" y="1.67" class="c">│</text><text x="2.004" y="1.67" class="e">❯</text><text x="4.008" y="1.67" class="f">Enable</text><text x="11.021999999999998" y="1.67" class="f">autoscaling?</text><text x="25.05" y="1.67" class="h">no</text><text x="75.14999999999999" y="1.67" class="c">│</text></symbol><symbol id="40"><text x="0" y="1.67" class="c">│</text><text x="2.004" y="1.67" class="e">❯</text><text x="4.008" y="1.67" class="f">Resources</text><text x="14.027999999999999" y="1.67" class="g">›</text><text x="75.14999999999999" y="1.67" class="c">│</text></symbol><symbol id="41"><text x="0" y="1.67" class="c">│</text><text x="6.012" y="1.67" class="h">256M</text><text x="75.14999999999999" y="1.67" class="c">│</text></symbol><symbol id="42"><text x="0" y="1.67" class="c">│</text><text x="2.004" y="1.67" class="d">New</text><text x="6.012" y="1.67" class="d">service</text><text x="14.027999999999999" y="1.67" class="d">›</text><text x="16.032" y="1.67" class="d">Deployment</text><text x="27.054" y="1.67" class="d">›</text><text x="29.058" y="1.67" class="d">Resources</text><text x="75.14999999999999" y="1.67" class="c">│</text></symbol><symbol id="43"><text x="0" y="1.67" class="c">│</text><text x="2.004" y="1.67" class="e">❯</text><text x="4.008" y="1.67" class="f">Memory</text><text x="11.021999999999998" y="1.67" class="f">limit</text><text x="18.035999999999998" y="1.67" class="h">256M</text><text x="75.14999999999999" y="1.67" class="c">│</text></symbol><symbol id="44"><text x="0" y="1.67" class="c">│</text><rect height="1.837" width="10" x="4.008" y="0" class="k"></rect><text x="4.008" y="1.67" class="l">[ Create ]</text><text x="16.032" y="1.67" class="j">[</text><text x="18.035999999999998" y="1.67" class="j">Cancel</text><text x="25.05" y="1.67" class="j">]</text><text x="75.14999999999999" y="1.67" class="c">│</text></symbol><symbol id="45"><text x="0" y="1.67" class="i">Basics</text></symbol><symbol id="46"><text x="2.004" y="1.67" class="i">Service</text><text x="10.02" y="1.67" class="i">name:</text><text x="16.032" y="1.67" class="i">api</text></symbol><symbol id="47"><text x="2.004" y="1.67" class="i">Runtime:</text><text x="11.021999999999998" y="1.67" class="i">php</text></symbol><symbol id="48"><text x="2.004" y="1.67" class="i">Port:</text><text x="8.016" y="1.67" class="i">8080</text></symbol><symbol id="49"><text x="0" y="1.67" class="i">Deployment</text></symbol><symbol id="50"><text x="2.004" y="1.67" class="i">Environment:</text><text x="15.029999999999998" y="1.67" class="i">dev</text></symbol><symbol id="51"><text x="2.004" y="1.67" class="i">Enable</text><text x="9.017999999999999" y="1.67" class="i">autoscaling?:</text><text x="23.045999999999996" y="1.67" class="i">no</text></symbol><symbol id="52"><text x="2.004" y="1.67" class="i">Resources</text></symbol><symbol id="53"><text x="4.008" y="1.67" class="i">Memory</text><text x="11.021999999999998" y="1.67" class="i">limit:</text><text x="18.035999999999998" y="1.67" class="i">256M</text></symbol><symbol id="a"><rect height="24" width="80" x="0" y="0" class="m"></rect></symbol><symbol id="b"><rect height="1.837" width="1.1022" class="n"></rect></symbol></defs><rect height="44.088" width="80" class="a"></rect><g class="p"><svg x="0" y="0" width="5360"><svg x="0"><use xlink:href="#a"></use><use xlink:href="#b" x="-0.0040000000000000036" y="0"></use></svg><svg x="80"><use xlink:href="#a"></use><use xlink:href="#b" x="-0.0040000000000000036" y="0"></use></svg><svg x="160"><use xlink:href="#a"></use></svg><svg x="240"><use xlink:href="#a"></use><use xlink:href="#1" y="0"></use><use xlink:href="#2" y="1.837"></use><use xlink:href="#3" y="3.674"></use><use xlink:href="#4" y="5.511"></use><use xlink:href="#5" y="7.348"></use><use xlink:href="#6" y="9.185"></use><use xlink:href="#7" y="11.022"></use></svg><svg x="320"><use xlink:href="#a"></use><use xlink:href="#1" y="0"></use><use xlink:href="#2" y="1.837"></use><use xlink:href="#3" y="3.674"></use><use xlink:href="#4" y="5.511"></use><use xlink:href="#5" y="7.348"></use><use xlink:href="#6" y="9.185"></use><use xlink:href="#7" y="11.022"></use></svg><svg x="400"><use xlink:href="#a"></use><use xlink:href="#1" y="0"></use><use xlink:href="#2" y="1.837"></use><use xlink:href="#3" y="3.674"></use><use xlink:href="#4" y="5.511"></use><use xlink:href="#5" y="7.348"></use><use xlink:href="#6" y="9.185"></use><use xlink:href="#8" y="11.022"></use><use xlink:href="#4" y="12.859"></use><use xlink:href="#9" y="14.696"></use><use xlink:href="#10" y="16.533"></use><use xlink:href="#11" y="18.37"></use><use xlink:href="#4" y="20.206999999999997"></use><use xlink:href="#12" y="22.044"></use><use xlink:href="#4" y="23.881000000000004"></use><use xlink:href="#3" y="25.718"></use></svg><svg x="480"><use xlink:href="#a"></use><use xlink:href="#1" y="0"></use><use xlink:href="#2" y="1.837"></use><use xlink:href="#3" y="3.674"></use><use xlink:href="#4" y="5.511"></use><use xlink:href="#5" y="7.348"></use><use xlink:href="#6" y="9.185"></use><use xlink:href="#8" y="11.022"></use><use xlink:href="#4" y="12.859"></use><use xlink:href="#9" y="14.696"></use><use xlink:href="#10" y="16.533"></use><use xlink:href="#11" y="18.37"></use><use xlink:href="#4" y="20.206999999999997"></use><use xlink:href="#12" y="22.044"></use><use xlink:href="#4" y="23.881000000000004"></use><use xlink:href="#3" y="25.718"></use><use xlink:href="#13" y="27.555"></use></svg><svg x="560"><use xlink:href="#a"></use><use xlink:href="#1" y="0"></use><use xlink:href="#2" y="1.837"></use><use xlink:href="#3" y="3.674"></use><use xlink:href="#4" y="5.511"></use><use xlink:href="#5" y="7.348"></use><use xlink:href="#6" y="9.185"></use><use xlink:href="#8" y="11.022"></use><use xlink:href="#4" y="12.859"></use><use xlink:href="#9" y="14.696"></use><use xlink:href="#10" y="16.533"></use><use xlink:href="#11" y="18.37"></use><use xlink:href="#4" y="20.206999999999997"></use><use xlink:href="#12" y="22.044"></use><use xlink:href="#4" y="23.881000000000004"></use><use xlink:href="#3" y="25.718"></use><use xlink:href="#14" y="27.555"></use><use xlink:href="#15" y="29.392"></use></svg><svg x="640"><use xlink:href="#a"></use><use xlink:href="#1" y="0"></use><use xlink:href="#16" y="1.837"></use><use xlink:href="#3" y="3.674"></use><use xlink:href="#4" y="5.511"></use><use xlink:href="#17" y="7.348"></use><use xlink:href="#4" y="9.185"></use><use xlink:href="#18" y="11.022"></use></svg><svg x="720"><use xlink:href="#a"></use><use xlink:href="#1" y="0"></use><use xlink:href="#16" y="1.837"></use><use xlink:href="#3" y="3.674"></use><use xlink:href="#4" y="5.511"></use><use xlink:href="#17" y="7.348"></use><use xlink:href="#4" y="9.185"></use><use xlink:href="#18" y="11.022"></use></svg><svg x="800"><use xlink:href="#a"></use><use xlink:href="#1" y="0"></use><use xlink:href="#16" y="1.837"></use><use xlink:href="#3" y="3.674"></use><use xlink:href="#4" y="5.511"></use><use xlink:href="#17" y="7.348"></use><use xlink:href="#4" y="9.185"></use><use xlink:href="#19" y="11.022"></use><use xlink:href="#4" y="12.859"></use><use xlink:href="#20" y="14.696"></use><use xlink:href="#4" y="16.533"></use><use xlink:href="#3" y="18.37"></use><use xlink:href="#14" y="20.206999999999997"></use><use xlink:href="#15" y="22.044"></use></svg><svg x="880"><use xlink:href="#a"></use><use xlink:href="#1" y="0"></use><use xlink:href="#16" y="1.837"></use><use xlink:href="#3" y="3.674"></use><use xlink:href="#4" y="5.511"></use><use xlink:href="#21" y="7.348"></use><use xlink:href="#4" y="9.185"></use><use xlink:href="#22" y="11.022"></use></svg><svg x="960"><use xlink:href="#a"></use><use xlink:href="#1" y="0"></use><use xlink:href="#16" y="1.837"></use><use xlink:href="#3" y="3.674"></use><use xlink:href="#4" y="5.511"></use><use xlink:href="#21" y="7.348"></use><use xlink:href="#4" y="9.185"></use><use xlink:href="#22" y="11.022"></use></svg><svg x="1040"><use xlink:href="#a"></use><use xlink:href="#1" y="0"></use><use xlink:href="#16" y="1.837"></use><use xlink:href="#3" y="3.674"></use><use xlink:href="#4" y="5.511"></use><use xlink:href="#21" y="7.348"></use><use xlink:href="#4" y="9.185"></use><text x="0" y="12.692" class="c">│</text><text x="2.004" y="12.692" class="e">❯</text><text x="4.008" y="12.692" class="f">Runtime</text><text x="13.026" y="12.692" class="h">php</text><text x="75.14999999999999" y="12.692" class="c">│</text><use xlink:href="#4" y="12.859"></use><use xlink:href="#20" y="14.696"></use><use xlink:href="#4" y="16.533"></use><use xlink:href="#3" y="18.37"></use><use xlink:href="#14" y="20.206999999999997"></use><use xlink:href="#15" y="22.044"></use></svg><svg x="1120"><use xlink:href="#a"></use><use xlink:href="#1" y="0"></use><use xlink:href="#16" y="1.837"></use><use xlink:href="#3" y="3.674"></use><use xlink:href="#4" y="5.511"></use><use xlink:href="#21" y="7.348"></use><use xlink:href="#4" y="9.185"></use><use xlink:href="#19" y="11.022"></use></svg><svg x="1200"><use xlink:href="#a"></use><use xlink:href="#1" y="0"></use><use xlink:href="#16" y="1.837"></use><use xlink:href="#3" y="3.674"></use><use xlink:href="#4" y="5.511"></use><use xlink:href="#21" y="7.348"></use><use xlink:href="#4" y="9.185"></use><use xlink:href="#19" y="11.022"></use><use xlink:href="#13" y="12.859"></use></svg><svg x="1280"><use xlink:href="#a"></use><use xlink:href="#1" y="0"></use><use xlink:href="#16" y="1.837"></use><use xlink:href="#3" y="3.674"></use><use xlink:href="#4" y="5.511"></use><use xlink:href="#21" y="7.348"></use><use xlink:href="#4" y="9.185"></use><use xlink:href="#19" y="11.022"></use><use xlink:href="#4" y="12.859"></use><text x="0" y="16.366" class="c">│</text><text x="2.004" y="16.366" class="e">❯</text><text x="4.008" y="16.366" class="f">Port</text><text x="10.02" y="16.366" class="h">8080</text><text x="75.14999999999999" y="16.366" class="c">│</text><use xlink:href="#4" y="16.533"></use><use xlink:href="#3" y="18.37"></use><use xlink:href="#14" y="20.206999999999997"></use><use xlink:href="#15" y="22.044"></use></svg><svg x="1360"><use xlink:href="#a"></use><use xlink:href="#1" y="0"></use><use xlink:href="#2" y="1.837"></use><use xlink:href="#3" y="3.674"></use><use xlink:href="#4" y="5.511"></use><use xlink:href="#5" y="7.348"></use><use xlink:href="#6" y="9.185"></use><use xlink:href="#7" y="11.022"></use></svg><svg x="1440"><use xlink:href="#a"></use><use xlink:href="#1" y="0"></use><use xlink:href="#2" y="1.837"></use><use xlink:href="#3" y="3.674"></use><use xlink:href="#4" y="5.511"></use><use xlink:href="#5" y="7.348"></use><use xlink:href="#6" y="9.185"></use><use xlink:href="#7" y="11.022"></use></svg><svg x="1520"><use xlink:href="#a"></use><use xlink:href="#1" y="0"></use><use xlink:href="#2" y="1.837"></use><use xlink:href="#3" y="3.674"></use><use xlink:href="#4" y="5.511"></use><use xlink:href="#5" y="7.348"></use><use xlink:href="#6" y="9.185"></use><use xlink:href="#8" y="11.022"></use><use xlink:href="#4" y="12.859"></use><use xlink:href="#9" y="14.696"></use><use xlink:href="#10" y="16.533"></use><use xlink:href="#11" y="18.37"></use><use xlink:href="#4" y="20.206999999999997"></use><use xlink:href="#12" y="22.044"></use><use xlink:href="#4" y="23.881000000000004"></use><use xlink:href="#3" y="25.718"></use></svg><svg x="1600"><use xlink:href="#a"></use><use xlink:href="#1" y="0"></use><use xlink:href="#2" y="1.837"></use><use xlink:href="#3" y="3.674"></use><use xlink:href="#4" y="5.511"></use><use xlink:href="#5" y="7.348"></use><use xlink:href="#6" y="9.185"></use><use xlink:href="#8" y="11.022"></use><use xlink:href="#4" y="12.859"></use><use xlink:href="#9" y="14.696"></use><use xlink:href="#10" y="16.533"></use><use xlink:href="#11" y="18.37"></use><use xlink:href="#4" y="20.206999999999997"></use><use xlink:href="#12" y="22.044"></use><use xlink:href="#4" y="23.881000000000004"></use><use xlink:href="#3" y="25.718"></use><use xlink:href="#13" y="27.555"></use></svg><svg x="1680"><use xlink:href="#a"></use><use xlink:href="#1" y="0"></use><use xlink:href="#2" y="1.837"></use><use xlink:href="#3" y="3.674"></use><use xlink:href="#4" y="5.511"></use><use xlink:href="#5" y="7.348"></use><use xlink:href="#6" y="9.185"></use><use xlink:href="#8" y="11.022"></use><use xlink:href="#4" y="12.859"></use><use xlink:href="#9" y="14.696"></use><use xlink:href="#10" y="16.533"></use><use xlink:href="#11" y="18.37"></use><use xlink:href="#4" y="20.206999999999997"></use><use xlink:href="#12" y="22.044"></use><use xlink:href="#4" y="23.881000000000004"></use><use xlink:href="#3" y="25.718"></use><use xlink:href="#14" y="27.555"></use><use xlink:href="#15" y="29.392"></use></svg><svg x="1760"><use xlink:href="#a"></use><use xlink:href="#1" y="0"></use><use xlink:href="#2" y="1.837"></use><use xlink:href="#3" y="3.674"></use><use xlink:href="#4" y="5.511"></use><use xlink:href="#23" y="7.348"></use><use xlink:href="#24" y="9.185"></use><use xlink:href="#25" y="11.022"></use></svg><svg x="1840"><use xlink:href="#a"></use><use xlink:href="#1" y="0"></use><use xlink:href="#2" y="1.837"></use><use xlink:href="#3" y="3.674"></use><use xlink:href="#4" y="5.511"></use><use xlink:href="#23" y="7.348"></use><use xlink:href="#24" y="9.185"></use><use xlink:href="#26" y="11.022"></use></svg><svg x="1920"><use xlink:href="#a"></use><use xlink:href="#1" y="0"></use><use xlink:href="#2" y="1.837"></use><use xlink:href="#3" y="3.674"></use><use xlink:href="#4" y="5.511"></use><use xlink:href="#23" y="7.348"></use><use xlink:href="#24" y="9.185"></use><use xlink:href="#26" y="11.022"></use><use xlink:href="#4" y="12.859"></use><use xlink:href="#27" y="14.696"></use><use xlink:href="#28" y="16.533"></use><use xlink:href="#29" y="18.37"></use><use xlink:href="#4" y="20.206999999999997"></use><use xlink:href="#12" y="22.044"></use><use xlink:href="#4" y="23.881000000000004"></use><use xlink:href="#3" y="25.718"></use></svg><svg x="2000"><use xlink:href="#a"></use><use xlink:href="#1" y="0"></use><use xlink:href="#2" y="1.837"></use><use xlink:href="#3" y="3.674"></use><use xlink:href="#4" y="5.511"></use><use xlink:href="#23" y="7.348"></use><use xlink:href="#24" y="9.185"></use><use xlink:href="#26" y="11.022"></use><use xlink:href="#4" y="12.859"></use><use xlink:href="#27" y="14.696"></use><use xlink:href="#28" y="16.533"></use><use xlink:href="#29" y="18.37"></use><use xlink:href="#4" y="20.206999999999997"></use><use xlink:href="#12" y="22.044"></use><use xlink:href="#4" y="23.881000000000004"></use><use xlink:href="#3" y="25.718"></use><use xlink:href="#13" y="27.555"></use></svg><svg x="2080"><use xlink:href="#a"></use><use xlink:href="#1" y="0"></use><use xlink:href="#2" y="1.837"></use><use xlink:href="#3" y="3.674"></use><use xlink:href="#4" y="5.511"></use><use xlink:href="#23" y="7.348"></use><use xlink:href="#24" y="9.185"></use><use xlink:href="#26" y="11.022"></use><use xlink:href="#4" y="12.859"></use><use xlink:href="#27" y="14.696"></use><use xlink:href="#28" y="16.533"></use><use xlink:href="#29" y="18.37"></use><use xlink:href="#4" y="20.206999999999997"></use><use xlink:href="#12" y="22.044"></use><use xlink:href="#4" y="23.881000000000004"></use><use xlink:href="#3" y="25.718"></use><use xlink:href="#14" y="27.555"></use><use xlink:href="#15" y="29.392"></use></svg><svg x="2160"><use xlink:href="#a"></use><use xlink:href="#1" y="0"></use><use xlink:href="#30" y="1.837"></use><use xlink:href="#3" y="3.674"></use><use xlink:href="#4" y="5.511"></use><use xlink:href="#31" y="7.348"></use><use xlink:href="#4" y="9.185"></use><use xlink:href="#32" y="11.022"></use></svg><svg x="2240"><use xlink:href="#a"></use><use xlink:href="#1" y="0"></use><use xlink:href="#30" y="1.837"></use><use xlink:href="#3" y="3.674"></use><use xlink:href="#4" y="5.511"></use><use xlink:href="#31" y="7.348"></use><use xlink:href="#4" y="9.185"></use><use xlink:href="#32" y="11.022"></use></svg><svg x="2320"><use xlink:href="#a"></use><use xlink:href="#1" y="0"></use><use xlink:href="#30" y="1.837"></use><use xlink:href="#3" y="3.674"></use><use xlink:href="#4" y="5.511"></use><use xlink:href="#31" y="7.348"></use><use xlink:href="#4" y="9.185"></use><use xlink:href="#33" y="11.022"></use><use xlink:href="#4" y="12.859"></use><use xlink:href="#34" y="14.696"></use><use xlink:href="#35" y="16.533"></use><use xlink:href="#4" y="18.37"></use><use xlink:href="#3" y="20.206999999999997"></use><use xlink:href="#14" y="22.044"></use><use xlink:href="#36" y="23.881000000000004"></use></svg><svg x="2400"><use xlink:href="#a"></use><use xlink:href="#1" y="0"></use><use xlink:href="#30" y="1.837"></use><use xlink:href="#3" y="3.674"></use><use xlink:href="#4" y="5.511"></use><use xlink:href="#31" y="7.348"></use><use xlink:href="#4" y="9.185"></use><use xlink:href="#33" y="11.022"></use><use xlink:href="#4" y="12.859"></use><use xlink:href="#34" y="14.696"></use><use xlink:href="#35" y="16.533"></use><use xlink:href="#4" y="18.37"></use><use xlink:href="#3" y="20.206999999999997"></use><use xlink:href="#14" y="22.044"></use><use xlink:href="#15" y="23.881000000000004"></use></svg><svg x="2480"><use xlink:href="#a"></use><use xlink:href="#1" y="0"></use><use xlink:href="#30" y="1.837"></use><use xlink:href="#3" y="3.674"></use><use xlink:href="#4" y="5.511"></use><use xlink:href="#31" y="7.348"></use><use xlink:href="#4" y="9.185"></use><use xlink:href="#33" y="11.022"></use><use xlink:href="#4" y="12.859"></use><use xlink:href="#34" y="14.696"></use><use xlink:href="#35" y="16.533"></use><use xlink:href="#4" y="18.37"></use><use xlink:href="#3" y="20.206999999999997"></use><use xlink:href="#14" y="22.044"></use><use xlink:href="#15" y="23.881000000000004"></use></svg><svg x="2560"><use xlink:href="#a"></use><use xlink:href="#1" y="0"></use><use xlink:href="#30" y="1.837"></use><use xlink:href="#3" y="3.674"></use><use xlink:href="#4" y="5.511"></use><use xlink:href="#37" y="7.348"></use><use xlink:href="#4" y="9.185"></use><use xlink:href="#38" y="11.022"></use></svg><svg x="2640"><use xlink:href="#a"></use><use xlink:href="#1" y="0"></use><use xlink:href="#30" y="1.837"></use><use xlink:href="#3" y="3.674"></use><use xlink:href="#4" y="5.511"></use><use xlink:href="#37" y="7.348"></use><use xlink:href="#4" y="9.185"></use><use xlink:href="#38" y="11.022"></use></svg><svg x="2720"><use xlink:href="#a"></use><use xlink:href="#1" y="0"></use><use xlink:href="#30" y="1.837"></use><use xlink:href="#3" y="3.674"></use><use xlink:href="#4" y="5.511"></use><use xlink:href="#37" y="7.348"></use><use xlink:href="#4" y="9.185"></use><use xlink:href="#39" y="11.022"></use><use xlink:href="#4" y="12.859"></use><use xlink:href="#34" y="14.696"></use><use xlink:href="#35" y="16.533"></use><use xlink:href="#4" y="18.37"></use><use xlink:href="#3" y="20.206999999999997"></use><use xlink:href="#14" y="22.044"></use><use xlink:href="#36" y="23.881000000000004"></use></svg><svg x="2800"><use xlink:href="#a"></use><use xlink:href="#1" y="0"></use><use xlink:href="#30" y="1.837"></use><use xlink:href="#3" y="3.674"></use><use xlink:href="#4" y="5.511"></use><use xlink:href="#37" y="7.348"></use><use xlink:href="#4" y="9.185"></use><use xlink:href="#39" y="11.022"></use><use xlink:href="#4" y="12.859"></use><use xlink:href="#34" y="14.696"></use><use xlink:href="#35" y="16.533"></use><use xlink:href="#4" y="18.37"></use><use xlink:href="#3" y="20.206999999999997"></use><use xlink:href="#14" y="22.044"></use><use xlink:href="#15" y="23.881000000000004"></use></svg><svg x="2880"><use xlink:href="#a"></use><use xlink:href="#1" y="0"></use><use xlink:href="#30" y="1.837"></use><use xlink:href="#3" y="3.674"></use><use xlink:href="#4" y="5.511"></use><use xlink:href="#37" y="7.348"></use><use xlink:href="#4" y="9.185"></use><use xlink:href="#39" y="11.022"></use><use xlink:href="#4" y="12.859"></use><use xlink:href="#34" y="14.696"></use><use xlink:href="#35" y="16.533"></use><use xlink:href="#4" y="18.37"></use><use xlink:href="#3" y="20.206999999999997"></use><use xlink:href="#14" y="22.044"></use><use xlink:href="#15" y="23.881000000000004"></use></svg><svg x="2960"><use xlink:href="#a"></use><use xlink:href="#1" y="0"></use><use xlink:href="#30" y="1.837"></use><use xlink:href="#3" y="3.674"></use><use xlink:href="#4" y="5.511"></use><use xlink:href="#37" y="7.348"></use><use xlink:href="#4" y="9.185"></use><use xlink:href="#33" y="11.022"></use></svg><svg x="3040"><use xlink:href="#a"></use><use xlink:href="#1" y="0"></use><use xlink:href="#30" y="1.837"></use><use xlink:href="#3" y="3.674"></use><use xlink:href="#4" y="5.511"></use><use xlink:href="#37" y="7.348"></use><use xlink:href="#4" y="9.185"></use><use xlink:href="#33" y="11.022"></use><use xlink:href="#13" y="12.859"></use></svg><svg x="3120"><use xlink:href="#a"></use><use xlink:href="#1" y="0"></use><use xlink:href="#30" y="1.837"></use><use xlink:href="#3" y="3.674"></use><use xlink:href="#4" y="5.511"></use><use xlink:href="#37" y="7.348"></use><use xlink:href="#4" y="9.185"></use><use xlink:href="#33" y="11.022"></use><use xlink:href="#4" y="12.859"></use><use xlink:href="#40" y="14.696"></use><use xlink:href="#41" y="16.533"></use><use xlink:href="#4" y="18.37"></use><use xlink:href="#3" y="20.206999999999997"></use><use xlink:href="#14" y="22.044"></use><use xlink:href="#36" y="23.881000000000004"></use></svg><svg x="3200"><use xlink:href="#a"></use><use xlink:href="#1" y="0"></use><use xlink:href="#30" y="1.837"></use><use xlink:href="#3" y="3.674"></use><use xlink:href="#4" y="5.511"></use><use xlink:href="#37" y="7.348"></use><use xlink:href="#4" y="9.185"></use><use xlink:href="#33" y="11.022"></use><use xlink:href="#4" y="12.859"></use><use xlink:href="#40" y="14.696"></use><use xlink:href="#41" y="16.533"></use><use xlink:href="#4" y="18.37"></use><use xlink:href="#3" y="20.206999999999997"></use><use xlink:href="#14" y="22.044"></use><text x="0" y="25.551000000000002" class="c">╰──────────────────────────────────────────────────────────────────────────</text></svg><svg x="3280"><use xlink:href="#a"></use><use xlink:href="#1" y="0"></use><use xlink:href="#30" y="1.837"></use><use xlink:href="#3" y="3.674"></use><use xlink:href="#4" y="5.511"></use><use xlink:href="#37" y="7.348"></use><use xlink:href="#4" y="9.185"></use><use xlink:href="#33" y="11.022"></use><use xlink:href="#4" y="12.859"></use><use xlink:href="#40" y="14.696"></use><use xlink:href="#41" y="16.533"></use><use xlink:href="#4" y="18.37"></use><use xlink:href="#3" y="20.206999999999997"></use><use xlink:href="#14" y="22.044"></use><use xlink:href="#15" y="23.881000000000004"></use></svg><svg x="3360"><use xlink:href="#a"></use><use xlink:href="#1" y="0"></use><use xlink:href="#42" y="1.837"></use><use xlink:href="#3" y="3.674"></use><use xlink:href="#4" y="5.511"></use><use xlink:href="#43" y="7.348"></use><use xlink:href="#4" y="9.185"></use><text x="0" y="12.692" class="c">├──────────────────────────</text></svg><svg x="3440"><use xlink:href="#a"></use><use xlink:href="#1" y="0"></use><use xlink:href="#42" y="1.837"></use><use xlink:href="#3" y="3.674"></use><use xlink:href="#4" y="5.511"></use><use xlink:href="#43" y="7.348"></use><use xlink:href="#4" y="9.185"></use><text x="0" y="12.692" class="c">├────────────────────────────</text></svg><svg x="3520"><use xlink:href="#a"></use><use xlink:href="#1" y="0"></use><use xlink:href="#42" y="1.837"></use><use xlink:href="#3" y="3.674"></use><use xlink:href="#4" y="5.511"></use><use xlink:href="#43" y="7.348"></use><use xlink:href="#4" y="9.185"></use><use xlink:href="#3" y="11.022"></use><use xlink:href="#14" y="12.859"></use><use xlink:href="#15" y="14.696"></use></svg><svg x="3600"><use xlink:href="#a"></use><use xlink:href="#1" y="0"></use><use xlink:href="#30" y="1.837"></use><use xlink:href="#3" y="3.674"></use><use xlink:href="#4" y="5.511"></use><use xlink:href="#31" y="7.348"></use><use xlink:href="#4" y="9.185"></use><use xlink:href="#32" y="11.022"></use></svg><svg x="3680"><use xlink:href="#a"></use><use xlink:href="#1" y="0"></use><use xlink:href="#30" y="1.837"></use><use xlink:href="#3" y="3.674"></use><use xlink:href="#4" y="5.511"></use><use xlink:href="#31" y="7.348"></use><use xlink:href="#4" y="9.185"></use><use xlink:href="#32" y="11.022"></use></svg><svg x="3760"><use xlink:href="#a"></use><use xlink:href="#1" y="0"></use><use xlink:href="#30" y="1.837"></use><use xlink:href="#3" y="3.674"></use><use xlink:href="#4" y="5.511"></use><use xlink:href="#31" y="7.348"></use><use xlink:href="#4" y="9.185"></use><use xlink:href="#33" y="11.022"></use><use xlink:href="#4" y="12.859"></use><use xlink:href="#34" y="14.696"></use><use xlink:href="#35" y="16.533"></use><use xlink:href="#4" y="18.37"></use><use xlink:href="#3" y="20.206999999999997"></use><use xlink:href="#14" y="22.044"></use><use xlink:href="#36" y="23.881000000000004"></use></svg><svg x="3840"><use xlink:href="#a"></use><use xlink:href="#1" y="0"></use><use xlink:href="#30" y="1.837"></use><use xlink:href="#3" y="3.674"></use><use xlink:href="#4" y="5.511"></use><use xlink:href="#31" y="7.348"></use><use xlink:href="#4" y="9.185"></use><use xlink:href="#33" y="11.022"></use><use xlink:href="#4" y="12.859"></use><use xlink:href="#34" y="14.696"></use><use xlink:href="#35" y="16.533"></use><use xlink:href="#4" y="18.37"></use><use xlink:href="#3" y="20.206999999999997"></use><use xlink:href="#14" y="22.044"></use><use xlink:href="#15" y="23.881000000000004"></use></svg><svg x="3920"><use xlink:href="#a"></use><use xlink:href="#1" y="0"></use><use xlink:href="#30" y="1.837"></use><use xlink:href="#3" y="3.674"></use><use xlink:href="#4" y="5.511"></use><use xlink:href="#31" y="7.348"></use><use xlink:href="#4" y="9.185"></use><use xlink:href="#33" y="11.022"></use><use xlink:href="#4" y="12.859"></use><use xlink:href="#34" y="14.696"></use><use xlink:href="#35" y="16.533"></use><use xlink:href="#4" y="18.37"></use><use xlink:href="#3" y="20.206999999999997"></use><use xlink:href="#14" y="22.044"></use><use xlink:href="#15" y="23.881000000000004"></use></svg><svg x="4000"><use xlink:href="#a"></use><use xlink:href="#1" y="0"></use><use xlink:href="#2" y="1.837"></use><use xlink:href="#3" y="3.674"></use><use xlink:href="#4" y="5.511"></use><use xlink:href="#5" y="7.348"></use><use xlink:href="#6" y="9.185"></use><use xlink:href="#7" y="11.022"></use></svg><svg x="4080"><use xlink:href="#a"></use><use xlink:href="#1" y="0"></use><use xlink:href="#2" y="1.837"></use><use xlink:href="#3" y="3.674"></use><use xlink:href="#4" y="5.511"></use><use xlink:href="#5" y="7.348"></use><use xlink:href="#6" y="9.185"></use><use xlink:href="#7" y="11.022"></use></svg><svg x="4160"><use xlink:href="#a"></use><use xlink:href="#1" y="0"></use><use xlink:href="#2" y="1.837"></use><use xlink:href="#3" y="3.674"></use><use xlink:href="#4" y="5.511"></use><use xlink:href="#5" y="7.348"></use><use xlink:href="#6" y="9.185"></use><use xlink:href="#8" y="11.022"></use><use xlink:href="#4" y="12.859"></use><use xlink:href="#9" y="14.696"></use><use xlink:href="#10" y="16.533"></use><use xlink:href="#11" y="18.37"></use><use xlink:href="#4" y="20.206999999999997"></use><use xlink:href="#12" y="22.044"></use><use xlink:href="#4" y="23.881000000000004"></use><use xlink:href="#3" y="25.718"></use></svg><svg x="4240"><use xlink:href="#a"></use><use xlink:href="#1" y="0"></use><use xlink:href="#2" y="1.837"></use><use xlink:href="#3" y="3.674"></use><use xlink:href="#4" y="5.511"></use><use xlink:href="#5" y="7.348"></use><use xlink:href="#6" y="9.185"></use><use xlink:href="#8" y="11.022"></use><use xlink:href="#4" y="12.859"></use><use xlink:href="#9" y="14.696"></use><use xlink:href="#10" y="16.533"></use><use xlink:href="#11" y="18.37"></use><use xlink:href="#4" y="20.206999999999997"></use><use xlink:href="#12" y="22.044"></use><use xlink:href="#4" y="23.881000000000004"></use><use xlink:href="#3" y="25.718"></use><use xlink:href="#13" y="27.555"></use></svg><svg x="4320"><use xlink:href="#a"></use><use xlink:href="#1" y="0"></use><use xlink:href="#2" y="1.837"></use><use xlink:href="#3" y="3.674"></use><use xlink:href="#4" y="5.511"></use><use xlink:href="#5" y="7.348"></use><use xlink:href="#6" y="9.185"></use><use xlink:href="#8" y="11.022"></use><use xlink:href="#4" y="12.859"></use><use xlink:href="#9" y="14.696"></use><use xlink:href="#10" y="16.533"></use><use xlink:href="#11" y="18.37"></use><use xlink:href="#4" y="20.206999999999997"></use><use xlink:href="#12" y="22.044"></use><use xlink:href="#4" y="23.881000000000004"></use><use xlink:href="#3" y="25.718"></use><use xlink:href="#14" y="27.555"></use><use xlink:href="#15" y="29.392"></use></svg><svg x="4400"><use xlink:href="#a"></use><use xlink:href="#1" y="0"></use><use xlink:href="#2" y="1.837"></use><use xlink:href="#3" y="3.674"></use><use xlink:href="#4" y="5.511"></use><use xlink:href="#23" y="7.348"></use><use xlink:href="#24" y="9.185"></use><use xlink:href="#25" y="11.022"></use></svg><svg x="4480"><use xlink:href="#a"></use><use xlink:href="#1" y="0"></use><use xlink:href="#2" y="1.837"></use><use xlink:href="#3" y="3.674"></use><use xlink:href="#4" y="5.511"></use><use xlink:href="#23" y="7.348"></use><use xlink:href="#24" y="9.185"></use><use xlink:href="#26" y="11.022"></use></svg><svg x="4560"><use xlink:href="#a"></use><use xlink:href="#1" y="0"></use><use xlink:href="#2" y="1.837"></use><use xlink:href="#3" y="3.674"></use><use xlink:href="#4" y="5.511"></use><use xlink:href="#23" y="7.348"></use><use xlink:href="#24" y="9.185"></use><use xlink:href="#26" y="11.022"></use><use xlink:href="#4" y="12.859"></use><use xlink:href="#27" y="14.696"></use><use xlink:href="#28" y="16.533"></use><use xlink:href="#29" y="18.37"></use><use xlink:href="#4" y="20.206999999999997"></use><use xlink:href="#12" y="22.044"></use><use xlink:href="#4" y="23.881000000000004"></use><use xlink:href="#3" y="25.718"></use></svg><svg x="4640"><use xlink:href="#a"></use><use xlink:href="#1" y="0"></use><use xlink:href="#2" y="1.837"></use><use xlink:href="#3" y="3.674"></use><use xlink:href="#4" y="5.511"></use><use xlink:href="#23" y="7.348"></use><use xlink:href="#24" y="9.185"></use><use xlink:href="#26" y="11.022"></use><use xlink:href="#4" y="12.859"></use><use xlink:href="#27" y="14.696"></use><use xlink:href="#28" y="16.533"></use><use xlink:href="#29" y="18.37"></use><use xlink:href="#4" y="20.206999999999997"></use><use xlink:href="#12" y="22.044"></use><use xlink:href="#4" y="23.881000000000004"></use><use xlink:href="#3" y="25.718"></use><use xlink:href="#13" y="27.555"></use></svg><svg x="4720"><use xlink:href="#a"></use><use xlink:href="#1" y="0"></use><use xlink:href="#2" y="1.837"></use><use xlink:href="#3" y="3.674"></use><use xlink:href="#4" y="5.511"></use><use xlink:href="#23" y="7.348"></use><use xlink:href="#24" y="9.185"></use><use xlink:href="#26" y="11.022"></use><use xlink:href="#4" y="12.859"></use><use xlink:href="#27" y="14.696"></use><use xlink:href="#28" y="16.533"></use><use xlink:href="#29" y="18.37"></use><use xlink:href="#4" y="20.206999999999997"></use><use xlink:href="#12" y="22.044"></use><use xlink:href="#4" y="23.881000000000004"></use><use xlink:href="#3" y="25.718"></use><use xlink:href="#14" y="27.555"></use><use xlink:href="#15" y="29.392"></use></svg><svg x="4800"><use xlink:href="#a"></use><use xlink:href="#1" y="0"></use><use xlink:href="#2" y="1.837"></use><use xlink:href="#3" y="3.674"></use><use xlink:href="#4" y="5.511"></use><use xlink:href="#23" y="7.348"></use><use xlink:href="#24" y="9.185"></use><use xlink:href="#25" y="11.022"></use></svg><svg x="4880"><use xlink:href="#a"></use><use xlink:href="#1" y="0"></use><use xlink:href="#2" y="1.837"></use><use xlink:href="#3" y="3.674"></use><use xlink:href="#4" y="5.511"></use><use xlink:href="#23" y="7.348"></use><use xlink:href="#24" y="9.185"></use><use xlink:href="#26" y="11.022"></use></svg><svg x="4960"><use xlink:href="#a"></use><use xlink:href="#1" y="0"></use><use xlink:href="#2" y="1.837"></use><use xlink:href="#3" y="3.674"></use><use xlink:href="#4" y="5.511"></use><use xlink:href="#23" y="7.348"></use><use xlink:href="#24" y="9.185"></use><use xlink:href="#26" y="11.022"></use><use xlink:href="#4" y="12.859"></use><use xlink:href="#9" y="14.696"></use><use xlink:href="#10" y="16.533"></use><use xlink:href="#11" y="18.37"></use><use xlink:href="#4" y="20.206999999999997"></use><use xlink:href="#44" y="22.044"></use><use xlink:href="#4" y="23.881000000000004"></use><use xlink:href="#3" y="25.718"></use><text x="0" y="29.225" class="c">│</text><text x="2.004" y="29.225" class="d">↑/↓</text></svg><svg x="5040"><use xlink:href="#a"></use><use xlink:href="#1" y="0"></use><use xlink:href="#2" y="1.837"></use><use xlink:href="#3" y="3.674"></use><use xlink:href="#4" y="5.511"></use><use xlink:href="#23" y="7.348"></use><use xlink:href="#24" y="9.185"></use><use xlink:href="#26" y="11.022"></use><use xlink:href="#4" y="12.859"></use><use xlink:href="#9" y="14.696"></use><use xlink:href="#10" y="16.533"></use><use xlink:href="#11" y="18.37"></use><use xlink:href="#4" y="20.206999999999997"></use><use xlink:href="#44" y="22.044"></use><use xlink:href="#4" y="23.881000000000004"></use><use xlink:href="#3" y="25.718"></use><text x="0" y="29.225" class="c">│</text><text x="2.004" y="29.225" class="d">↑/↓</text><text x="6.012" y="29.225" class="d">move</text><text x="11.021999999999998" y="29.225" class="d">·</text></svg><svg x="5120"><use xlink:href="#a"></use><use xlink:href="#1" y="0"></use><use xlink:href="#2" y="1.837"></use><use xlink:href="#3" y="3.674"></use><use xlink:href="#4" y="5.511"></use><use xlink:href="#23" y="7.348"></use><use xlink:href="#24" y="9.185"></use><use xlink:href="#26" y="11.022"></use><use xlink:href="#4" y="12.859"></use><use xlink:href="#9" y="14.696"></use><use xlink:href="#10" y="16.533"></use><use xlink:href="#11" y="18.37"></use><use xlink:href="#4" y="20.206999999999997"></use><use xlink:href="#44" y="22.044"></use><use xlink:href="#4" y="23.881000000000004"></use><use xlink:href="#3" y="25.718"></use><use xlink:href="#14" y="27.555"></use><use xlink:href="#15" y="29.392"></use></svg><svg x="5200"><use xlink:href="#a"></use><use xlink:href="#b" x="-0.0040000000000000036" y="16.358"></use><use xlink:href="#45" y="0"></use><use xlink:href="#46" y="1.837"></use><use xlink:href="#47" y="3.674"></use><use xlink:href="#48" y="5.511"></use><use xlink:href="#49" y="7.348"></use><use xlink:href="#50" y="9.185"></use><use xlink:href="#51" y="11.022"></use><use xlink:href="#52" y="12.859"></use><use xlink:href="#53" y="14.696"></use></svg><svg x="5280"><use xlink:href="#a"></use><use xlink:href="#b" x="0.996" y="16.358"></use><use xlink:href="#45" y="0"></use><use xlink:href="#46" y="1.837"></use><use xlink:href="#47" y="3.674"></use><use xlink:href="#48" y="5.511"></use><use xlink:href="#49" y="7.348"></use><use xlink:href="#50" y="9.185"></use><use xlink:href="#51" y="11.022"></use><use xlink:href="#52" y="12.859"></use><use xlink:href="#53" y="14.696"></use></svg></svg></g></g></svg></svg>