<svg xmlns="http://www.w3.org/2000/svg" xmlns:xlink="http://www.w3.org/1999/xlink" width="720" height="330.66"><rect width="720" height="330.66" rx="0" ry="0" class="a"></rect><svg height="330.66" viewBox="0 0 72 33.066" width="720" xmlns="http://www.w3.org/2000/svg" xmlns:xlink="http://www.w3.org/1999/xlink"><style>.a{fill:rgb(40,44,52)}.b{font-family:Consolas,"Courier New",Courier,"Liberation Mono",monospace}.c{fill:rgb(128,128,128);white-space:pre}.d{fill:rgb(0,128,128);font-weight:bold;white-space:pre}.e{fill:rgb(171,178,191);font-weight:bold;white-space:pre}.f{fill:rgb(128,128,128);font-weight:bold;white-space:pre}.g{fill:rgb(0,128,0);white-space:pre}.h{fill:rgb(171,178,191);white-space:pre}.i{fill:rgb(185,192,203)}.j{fill:rgb(40,44,52);white-space:pre}.k{fill:transparent}.l{fill:rgb(82,139,255)}.n{animation-duration:24.07s;animation-iteration-count:infinite;animation-name:m;animation-timing-function:steps(1,end)}.o{fill:rgb(0,128,0);font-weight:bold;white-space:pre}.p{fill:rgb(40,44,52);font-weight:bold;white-space:pre}@keyframes m{0%{transform:translateX(-0px)}0.57%{transform:translateX(-72px)}2.32%{transform:translateX(-144px)}2.32%{transform:translateX(-216px)}12.89%{transform:translateX(-288px)}20.67%{transform:translateX(-360px)}27.66%{transform:translateX(-432px)}29.33%{transform:translateX(-504px)}30.98%{transform:translateX(-576px)}34.13%{transform:translateX(-648px)}46.34%{transform:translateX(-720px)}48.52%{transform:translateX(-792px)}55.5%{transform:translateX(-864px)}58.73%{transform:translateX(-936px)}74.31%{transform:translateX(-1008px)}81.23%{transform:translateX(-1080px)}84.42%{transform:translateX(-1152px)}100%{transform:translateX(-1224px)}}</style><g font-family="Consolas, &quot;Courier New&quot;, Courier, &quot;Liberation Mono&quot;, monospace" font-size="1.67" class="b"><defs><symbol id="1"><text x="0" y="1.67" class="c">Conditional</text><text x="12.024" y="1.67" class="c">fields</text></symbol><symbol id="2"><text x="0" y="1.67" class="d">❯</text><text x="2.004" y="1.67" class="e">Packing</text><text x="10.02" y="1.67" class="f">›</text></symbol><symbol id="3"><text x="4.008" y="1.67" class="f">Toggle</text><text x="11.021999999999998" y="1.67" class="f">the</text><text x="15.029999999999998" y="1.67" class="f">answers</text><text x="23.045999999999996" y="1.67" class="f">and</text><text x="27.054" y="1.67" class="f">watch</text><text x="33.065999999999995" y="1.67" class="f">fields</text><text x="40.08" y="1.67" class="f">appear.</text></symbol><symbol id="4"><text x="2.004" y="1.67" class="g">[</text><text x="4.008" y="1.67" class="g">Submit</text><text x="11.021999999999998" y="1.67" class="g">]</text><text x="14.027999999999999" y="1.67" class="g">[</text><text x="16.032" y="1.67" class="g">Cancel</text><text x="23.045999999999996" y="1.67" class="g">]</text></symbol><symbol id="5"><text x="0" y="1.67" class="c">↑/↓</text><text x="4.008" y="1.67" class="c">move</text><text x="9.017999999999999" y="1.67" class="c">·</text><text x="11.021999999999998" y="1.67" class="c">↵</text><text x="13.026" y="1.67" class="c">select</text><text x="20.04" y="1.67" class="c">·</text><text x="22.043999999999997" y="1.67" class="c">esc</text><text x="26.052" y="1.67" class="c">back</text><text x="31.061999999999998" y="1.67" class="c">·</text><text x="33.065999999999995" y="1.67" class="c">q</text><text x="35.06999999999999" y="1.67" class="c">quit</text><text x="40.08" y="1.67" class="c">·</text><text x="42.083999999999996" y="1.67" class="c">?</text><text x="44.087999999999994" y="1.67" class="c">help</text></symbol><symbol id="6"><text x="0" y="1.67" class="c">Conditional</text><text x="12.024" y="1.67" class="c">fields</text><text x="19.037999999999997" y="1.67" class="c">›</text><text x="21.041999999999998" y="1.67" class="c">Packing</text></symbol><symbol id="7"><text x="2.004" y="1.67" class="h">Box</text><text x="6.012" y="1.67" class="h">size</text><text x="12.024" y="1.67" class="g">medium</text></symbol><symbol id="8"><text x="2.004" y="1.67" class="h">Stack</text><text x="8.016" y="1.67" class="h">the</text><text x="12.024" y="1.67" class="h">boxes?</text><text x="20.04" y="1.67" class="g">no</text></symbol><symbol id="9"><text x="14.027999999999999" y="1.67" class="h">◻</text><text x="16.032" y="1.67" class="h">Vegetables</text></symbol><symbol id="10"><text x="14.027999999999999" y="1.67" class="h">◻</text><text x="16.032" y="1.67" class="h">Herbs</text></symbol><symbol id="11"><text x="0" y="1.67" class="c">↑/↓</text><text x="4.008" y="1.67" class="c">move</text><text x="9.017999999999999" y="1.67" class="c">·</text><text x="11.021999999999998" y="1.67" class="c">↵</text><text x="13.026" y="1.67" class="c">accept</text><text x="20.04" y="1.67" class="c">·</text><text x="22.043999999999997" y="1.67" class="c">esc</text><text x="26.052" y="1.67" class="c">cancel</text></symbol><symbol id="12"><text x="0" y="1.67" class="d">❯</text><text x="2.004" y="1.67" class="e">Contents</text><text x="14.027999999999999" y="1.67" class="g">◼</text><text x="16.032" y="1.67" class="h">Fruit</text></symbol><symbol id="13"><text x="2.004" y="1.67" class="h">Herb</text><text x="7.013999999999999" y="1.67" class="h">bundle</text><text x="15.029999999999998" y="1.67" class="g">mixed</text></symbol><symbol id="14"><text x="2.004" y="1.67" class="h">Contents</text><text x="12.024" y="1.67" class="g">fruit,</text><text x="19.037999999999997" y="1.67" class="g">herbs</text><rect height="1.837" width="8" x="64.128" y="0" class="i"></rect><text x="64.128" y="1.67" class="j"> edited </text></symbol><symbol id="15"><text x="0" y="1.67" class="d">❯</text><text x="2.004" y="1.67" class="e">Box</text><text x="6.012" y="1.67" class="e">size</text><text x="12.024" y="1.67" class="h">○</text><text x="14.027999999999999" y="1.67" class="h">Small</text></symbol><symbol id="16"><text x="0" y="1.67" class="h">Packing</text></symbol><symbol id="17"><text x="2.004" y="1.67" class="h">Contents:</text><text x="12.024" y="1.67" class="h">fruit,</text><text x="19.037999999999997" y="1.67" class="h">herbs</text><text x="25.05" y="1.67" class="h">(edited)</text></symbol><symbol id="18"><text x="2.004" y="1.67" class="h">Box</text><text x="6.012" y="1.67" class="h">size:</text><text x="12.024" y="1.67" class="h">large</text><text x="18.035999999999998" y="1.67" class="h">(edited)</text></symbol><symbol id="19"><text x="2.004" y="1.67" class="h">Herb</text><text x="7.013999999999999" y="1.67" class="h">bundle:</text><text x="15.029999999999998" y="1.67" class="h">mixed</text></symbol><symbol id="20"><text x="2.004" y="1.67" class="h">Weekly</text><text x="9.017999999999999" y="1.67" class="h">herb</text><text x="14.027999999999999" y="1.67" class="h">delivery?:</text><text x="25.05" y="1.67" class="h">yes</text></symbol><symbol id="a"><rect height="18" width="72" x="0" y="0" class="k"></rect></symbol><symbol id="b"><rect height="1.837" width="1.1022" class="l"></rect></symbol></defs><rect height="33.066" width="72" class="a"></rect><g class="n"><svg x="0" y="0" width="1296"><svg x="0"><use xlink:href="#a"></use><use xlink:href="#b" x="-0.0040000000000000036" y="0"></use></svg><svg x="72"><use xlink:href="#a"></use><use xlink:href="#b" x="-0.0040000000000000036" y="0"></use></svg><svg x="144"><use xlink:href="#a"></use></svg><svg x="216"><use xlink:href="#a"></use><use xlink:href="#1" y="0"></use><use xlink:href="#2" y="1.837"></use><use xlink:href="#3" y="3.674"></use><text x="4.008" y="7.181" class="o">fruit</text><text x="10.02" y="7.181" class="o">·</text><text x="12.024" y="7.181" class="o">medium</text><text x="19.037999999999997" y="7.181" class="o">·</text><text x="21.041999999999998" y="7.181" class="o">no</text><use xlink:href="#4" y="9.185"></use><use xlink:href="#5" y="12.859"></use></svg><svg x="288"><use xlink:href="#a"></use><use xlink:href="#6" y="0"></use><text x="0" y="3.5069999999999997" class="d">❯</text><text x="2.004" y="3.5069999999999997" class="e">Contents</text><text x="12.024" y="3.5069999999999997" class="o">fruit</text><use xlink:href="#7" y="3.674"></use><use xlink:href="#8" y="5.511"></use><use xlink:href="#5" y="9.185"></use></svg><svg x="360"><use xlink:href="#a"></use><use xlink:href="#6" y="0"></use><text x="0" y="3.5069999999999997" class="d">❯</text><text x="2.004" y="3.5069999999999997" class="e">Contents</text><text x="12.024" y="3.5069999999999997" class="d">❯</text><text x="14.027999999999999" y="3.5069999999999997" class="g">◼</text><text x="16.032" y="3.5069999999999997" class="d">Fruit</text><use xlink:href="#9" y="3.674"></use><use xlink:href="#10" y="5.511"></use><use xlink:href="#7" y="7.348"></use><use xlink:href="#8" y="9.185"></use><use xlink:href="#11" y="12.859"></use></svg><svg x="432"><use xlink:href="#a"></use><use xlink:href="#6" y="0"></use><use xlink:href="#12" y="1.837"></use><text x="12.024" y="5.343999999999999" class="d">❯</text><text x="14.027999999999999" y="5.343999999999999" class="h">◻</text><text x="16.032" y="5.343999999999999" class="d">Vegetables</text><use xlink:href="#10" y="5.511"></use><use xlink:href="#7" y="7.348"></use><use xlink:href="#8" y="9.185"></use><use xlink:href="#11" y="12.859"></use></svg><svg x="504"><use xlink:href="#a"></use><use xlink:href="#6" y="0"></use><use xlink:href="#12" y="1.837"></use><use xlink:href="#9" y="3.674"></use><text x="12.024" y="7.181" class="d">❯</text><text x="14.027999999999999" y="7.181" class="h">◻</text><text x="16.032" y="7.181" class="d">Herbs</text><use xlink:href="#7" y="7.348"></use><use xlink:href="#8" y="9.185"></use><use xlink:href="#11" y="12.859"></use></svg><svg x="576"><use xlink:href="#a"></use><use xlink:href="#6" y="0"></use><use xlink:href="#12" y="1.837"></use><use xlink:href="#9" y="3.674"></use><text x="12.024" y="7.181" class="d">❯</text><text x="14.027999999999999" y="7.181" class="g">◼</text><text x="16.032" y="7.181" class="d">Herbs</text><use xlink:href="#7" y="7.348"></use><use xlink:href="#8" y="9.185"></use><use xlink:href="#11" y="12.859"></use></svg><svg x="648"><use xlink:href="#a"></use><use xlink:href="#6" y="0"></use><text x="0" y="3.5069999999999997" class="d">❯</text><text x="2.004" y="3.5069999999999997" class="e">Contents</text><text x="12.024" y="3.5069999999999997" class="o">fruit,</text><text x="19.037999999999997" y="3.5069999999999997" class="o">herbs</text><rect height="1.837" width="8" x="64.128" y="1.8369999999999997" class="i"></rect><text x="64.128" y="3.5069999999999997" class="p"> edited </text><use xlink:href="#7" y="3.674"></use><use xlink:href="#13" y="5.511"></use><use xlink:href="#8" y="7.348"></use><use xlink:href="#5" y="11.022"></use></svg><svg x="720"><use xlink:href="#a"></use><use xlink:href="#6" y="0"></use><use xlink:href="#14" y="1.837"></use><text x="0" y="5.343999999999999" class="d">❯</text><text x="2.004" y="5.343999999999999" class="e">Box</text><text x="6.012" y="5.343999999999999" class="e">size</text><text x="12.024" y="5.343999999999999" class="o">medium</text><use xlink:href="#13" y="5.511"></use><use xlink:href="#8" y="7.348"></use><use xlink:href="#5" y="11.022"></use></svg><svg x="792"><use xlink:href="#a"></use><use xlink:href="#6" y="0"></use><use xlink:href="#14" y="1.837"></use><use xlink:href="#15" y="3.674"></use><text x="12.024" y="7.181" class="d">●</text><text x="14.027999999999999" y="7.181" class="d">Medium</text><text x="12.024" y="9.018" class="h">○</text><text x="14.027999999999999" y="9.018" class="h">Large</text><use xlink:href="#13" y="9.185"></use><use xlink:href="#8" y="11.022"></use><use xlink:href="#11" y="14.696"></use></svg><svg x="864"><use xlink:href="#a"></use><use xlink:href="#6" y="0"></use><use xlink:href="#14" y="1.837"></use><use xlink:href="#15" y="3.674"></use><text x="12.024" y="7.181" class="h">○</text><text x="14.027999999999999" y="7.181" class="h">Medium</text><text x="12.024" y="9.018" class="d">●</text><text x="14.027999999999999" y="9.018" class="d">Large</text><use xlink:href="#13" y="9.185"></use><use xlink:href="#8" y="11.022"></use><use xlink:href="#11" y="14.696"></use></svg><svg x="936"><use xlink:href="#a"></use><use xlink:href="#6" y="0"></use><use xlink:href="#14" y="1.837"></use><text x="0" y="5.343999999999999" class="d">❯</text><text x="2.004" y="5.343999999999999" class="e">Box</text><text x="6.012" y="5.343999999999999" class="e">size</text><text x="12.024" y="5.343999999999999" class="o">large</text><rect height="1.837" width="8" x="64.128" y="3.6739999999999995" class="i"></rect><text x="64.128" y="5.343999999999999" class="p"> edited </text><use xlink:href="#13" y="5.511"></use><text x="2.004" y="9.018" class="h">Weekly</text><text x="9.017999999999999" y="9.018" class="h">herb</text><text x="14.027999999999999" y="9.018" class="h">delivery?</text><text x="25.05" y="9.018" class="g">yes</text><use xlink:href="#5" y="11.022"></use></svg><svg x="1008"><use xlink:href="#a"></use><use xlink:href="#1" y="0"></use><use xlink:href="#2" y="1.837"></use><use xlink:href="#3" y="3.674"></use><text x="4.008" y="7.181" class="o">fruit,</text><text x="11.021999999999998" y="7.181" class="o">herbs</text><text x="17.034" y="7.181" class="o">·</text><text x="19.037999999999997" y="7.181" class="o">large</text><text x="25.05" y="7.181" class="o">·</text><text x="27.054" y="7.181" class="o">mixed</text><text x="33.065999999999995" y="7.181" class="o">·</text><text x="35.06999999999999" y="7.181" class="o">yes</text><use xlink:href="#4" y="9.185"></use><use xlink:href="#5" y="12.859"></use></svg><svg x="1080"><use xlink:href="#a"></use><use xlink:href="#1" y="0"></use><text x="2.004" y="3.5069999999999997" class="h">Packing</text><text x="10.02" y="3.5069999999999997" class="c">›</text><text x="4.008" y="5.343999999999999" class="c">Toggle</text><text x="11.021999999999998" y="5.343999999999999" class="c">the</text><text x="15.029999999999998" y="5.343999999999999" class="c">answers</text><text x="23.045999999999996" y="5.343999999999999" class="c">and</text><text x="27.054" y="5.343999999999999" class="c">watch</text><text x="33.065999999999995" y="5.343999999999999" class="c">fields</text><text x="40.08" y="5.343999999999999" class="c">appear.</text><text x="4.008" y="7.181" class="g">fruit,</text><text x="11.021999999999998" y="7.181" class="g">herbs</text><text x="17.034" y="7.181" class="g">·</text><text x="19.037999999999997" y="7.181" class="g">large</text><text x="25.05" y="7.181" class="g">·</text><text x="27.054" y="7.181" class="g">mixed</text><text x="33.065999999999995" y="7.181" class="g">·</text><text x="35.06999999999999" y="7.181" class="g">yes</text><rect height="1.837" width="10" x="2.004" y="9.185" class="i"></rect><text x="2.004" y="10.855" class="p">[ Submit ]</text><text x="14.027999999999999" y="10.855" class="g">[</text><text x="16.032" y="10.855" class="g">Cancel</text><text x="23.045999999999996" y="10.855" class="g">]</text><use xlink:href="#5" y="12.859"></use></svg><svg x="1152"><use xlink:href="#a"></use><use xlink:href="#b" x="-0.0040000000000000036" y="9.01"></use><use xlink:href="#16" y="0"></use><use xlink:href="#17" y="1.837"></use><use xlink:href="#18" y="3.674"></use><use xlink:href="#19" y="5.511"></use><use xlink:href="#20" y="7.348"></use></svg><svg x="1224"><use xlink:href="#a"></use><use xlink:href="#b" x="0.996" y="9.01"></use><use xlink:href="#16" y="0"></use><use xlink:href="#17" y="1.837"></use><use xlink:href="#18" y="3.674"></use><use xlink:href="#19" y="5.511"></use><use xlink:href="#20" y="7.348"></use></svg></svg></g></g></svg></svg>