<svg xmlns="http://www.w3.org/2000/svg" xmlns:xlink="http://www.w3.org/1999/xlink" width="720" height="330.66"><rect width="720" height="330.66" rx="0" ry="0" class="a"></rect><svg height="330.66" viewBox="0 0 72 33.066" width="720" xmlns="http://www.w3.org/2000/svg" xmlns:xlink="http://www.w3.org/1999/xlink"><style>.a{fill:rgb(250,250,250)}.b{font-family:Consolas,"Courier New",Courier,"Liberation Mono",monospace}.c{fill:rgb(90,96,105);white-space:pre}.d{fill:rgb(0,128,128);font-weight:bold;white-space:pre}.e{fill:rgb(56,58,66);font-weight:bold;white-space:pre}.f{fill:rgb(90,96,105);font-weight:bold;white-space:pre}.g{fill:rgb(0,128,0);white-space:pre}.h{fill:rgb(56,58,66);white-space:pre}.i{fill:rgb(40,44,52)}.j{fill:rgb(250,250,250);white-space:pre}.k{fill:transparent}.l{fill:rgb(82,139,255)}.n{animation-duration:20.229s;animation-iteration-count:infinite;animation-name:m;animation-timing-function:steps(1,end)}.o{fill:rgb(0,128,0);font-weight:bold;white-space:pre}.p{fill:rgb(250,250,250);font-weight:bold;white-space:pre}@keyframes m{0%{transform:translateX(-0px)}0.8%{transform:translateX(-72px)}2.8%{transform:translateX(-144px)}2.8%{transform:translateX(-216px)}15.5%{transform:translateX(-288px)}31.1%{transform:translateX(-360px)}38.3%{transform:translateX(-432px)}39.2%{transform:translateX(-504px)}40.3%{transform:translateX(-576px)}41.4%{transform:translateX(-648px)}42.5%{transform:translateX(-720px)}43.3%{transform:translateX(-792px)}44.2%{transform:translateX(-864px)}45.1%{transform:translateX(-936px)}45.9%{transform:translateX(-1008px)}50.8%{transform:translateX(-1080px)}69.4%{transform:translateX(-1152px)}77.7%{transform:translateX(-1224px)}81.5%{transform:translateX(-1296px)}100%{transform:translateX(-1368px)}}</style><g font-family="Consolas, &quot;Courier New&quot;, Courier, &quot;Liberation Mono&quot;, monospace" font-size="1.67" class="b"><defs><symbol id="1"><text x="0" y="1.67" class="c">Derived</text><text x="8.016" y="1.67" class="c">values</text></symbol><symbol id="2"><text x="0" y="1.67" class="d">❯</text><text x="2.004" y="1.67" class="e">Naming</text><text x="9.017999999999999" y="1.67" class="f">›</text></symbol><symbol id="3"><text x="2.004" y="1.67" class="g">[</text><text x="4.008" y="1.67" class="g">Submit</text><text x="11.021999999999998" y="1.67" class="g">]</text><text x="14.027999999999999" y="1.67" class="g">[</text><text x="16.032" y="1.67" class="g">Cancel</text><text x="23.045999999999996" y="1.67" class="g">]</text></symbol><symbol id="4"><text x="0" y="1.67" class="c">↑/↓</text><text x="4.008" y="1.67" class="c">move</text><text x="9.017999999999999" y="1.67" class="c">·</text><text x="11.021999999999998" y="1.67" class="c">↵</text><text x="13.026" y="1.67" class="c">select</text><text x="20.04" y="1.67" class="c">·</text><text x="22.043999999999997" y="1.67" class="c">esc</text><text x="26.052" y="1.67" class="c">back</text><text x="31.061999999999998" y="1.67" class="c">·</text><text x="33.065999999999995" y="1.67" class="c">q</text><text x="35.06999999999999" y="1.67" class="c">quit</text><text x="40.08" y="1.67" class="c">·</text><text x="42.083999999999996" y="1.67" class="c">?</text><text x="44.087999999999994" y="1.67" class="c">help</text></symbol><symbol id="5"><text x="0" y="1.67" class="c">Derived</text><text x="8.016" y="1.67" class="c">values</text><text x="15.029999999999998" y="1.67" class="c">›</text><text x="17.034" y="1.67" class="c">Naming</text></symbol><symbol id="6"><text x="2.004" y="1.67" class="h">Slug</text><text x="8.016" y="1.67" class="g">red_apple</text><rect height="1.837" width="5" x="67.134" y="0" class="i"></rect><text x="67.134" y="1.67" class="j"> deri</text></symbol><symbol id="7"><rect height="1.837" width="4" x="0" y="0" class="i"></rect><text x="0" y="1.67" class="j">ved </text></symbol><symbol id="8"><text x="4.008" y="1.67" class="c">Derived</text><text x="12.024" y="1.67" class="c">from</text><text x="17.034" y="1.67" class="c">the</text><text x="21.041999999999998" y="1.67" class="c">name.</text></symbol><symbol id="9"><text x="2.004" y="1.67" class="h">Code</text><text x="8.016" y="1.67" class="g">RED_APPLE</text><rect height="1.837" width="5" x="67.134" y="0" class="i"></rect><text x="67.134" y="1.67" class="j"> deri</text></symbol><symbol id="10"><text x="4.008" y="1.67" class="c">Derived</text><text x="12.024" y="1.67" class="c">from</text><text x="17.034" y="1.67" class="c">the</text><text x="21.041999999999998" y="1.67" class="c">slug.</text></symbol><symbol id="11"><text x="2.004" y="1.67" class="h">Grower</text><text x="10.02" y="1.67" class="g">Sunny</text></symbol><symbol id="12"><text x="2.004" y="1.67" class="h">Lot</text><text x="7.013999999999999" y="1.67" class="g">sunny/red_apple</text><rect height="1.837" width="5" x="67.134" y="0" class="i"></rect><text x="67.134" y="1.67" class="j"> deri</text></symbol><symbol id="13"><text x="4.008" y="1.67" class="c">Derived</text><text x="12.024" y="1.67" class="c">from</text><text x="17.034" y="1.67" class="c">grower</text><text x="24.048" y="1.67" class="c">and</text><text x="28.055999999999997" y="1.67" class="c">slug.</text></symbol><symbol id="14"><text x="0" y="1.67" class="c">↵</text><text x="2.004" y="1.67" class="c">accept</text><text x="9.017999999999999" y="1.67" class="c">·</text><text x="11.021999999999998" y="1.67" class="c">esc</text><text x="15.029999999999998" y="1.67" class="c">cancel</text></symbol><symbol id="15"><text x="0" y="1.67" class="h">Naming</text></symbol><symbol id="16"><text x="2.004" y="1.67" class="h">Produce</text><text x="10.02" y="1.67" class="h">name:</text><text x="16.032" y="1.67" class="h">Red</text><text x="20.04" y="1.67" class="h">Plum</text><text x="25.05" y="1.67" class="h">(edited)</text></symbol><symbol id="17"><text x="2.004" y="1.67" class="h">Slug:</text><text x="8.016" y="1.67" class="h">red_plum</text><text x="17.034" y="1.67" class="h">(derived)</text></symbol><symbol id="18"><text x="2.004" y="1.67" class="h">Code:</text><text x="8.016" y="1.67" class="h">RED_PLUM</text><text x="17.034" y="1.67" class="h">(derived)</text></symbol><symbol id="19"><text x="2.004" y="1.67" class="h">Grower:</text><text x="10.02" y="1.67" class="h">Sunny</text></symbol><symbol id="20"><text x="2.004" y="1.67" class="h">Lot:</text><text x="7.013999999999999" y="1.67" class="h">sunny/red_plum</text><text x="22.043999999999997" y="1.67" class="h">(derived)</text></symbol><symbol id="a"><rect height="18" width="72" x="0" y="0" class="k"></rect></symbol><symbol id="b"><rect height="1.837" width="1.1022" class="l"></rect></symbol></defs><rect height="33.066" width="72" class="a"></rect><g class="n"><svg x="0" y="0" width="1440"><svg x="0"><use xlink:href="#a"></use><use xlink:href="#b" x="-0.0040000000000000036" y="0"></use></svg><svg x="72"><use xlink:href="#a"></use><use xlink:href="#b" x="-0.0040000000000000036" y="0"></use></svg><svg x="144"><use xlink:href="#a"></use></svg><svg x="216"><use xlink:href="#a"></use><use xlink:href="#1" y="0"></use><use xlink:href="#2" y="1.837"></use><text x="4.008" y="5.343999999999999" class="o">Red</text><text x="8.016" y="5.343999999999999" class="o">Apple</text><text x="14.027999999999999" y="5.343999999999999" class="o">·</text><text x="16.032" y="5.343999999999999" class="o">red_apple</text><text x="26.052" y="5.343999999999999" class="o">·</text><text x="28.055999999999997" y="5.343999999999999" class="o">RED_APPLE</text><text x="38.07599999999999" y="5.343999999999999" class="o">·</text><text x="40.08" y="5.343999999999999" class="o">Sunny</text><use xlink:href="#3" y="7.348"></use><use xlink:href="#4" y="11.022"></use></svg><svg x="288"><use xlink:href="#a"></use><use xlink:href="#5" y="0"></use><text x="0" y="3.5069999999999997" class="d">❯</text><text x="2.004" y="3.5069999999999997" class="e">Produce</text><text x="10.02" y="3.5069999999999997" class="e">name</text><text x="16.032" y="3.5069999999999997" class="o">Red</text><text x="20.04" y="3.5069999999999997" class="o">Apple</text><use xlink:href="#6" y="3.674"></use><use xlink:href="#7" y="5.511"></use><use xlink:href="#8" y="7.348"></use><use xlink:href="#9" y="9.185"></use><use xlink:href="#7" y="11.022"></use><use xlink:href="#10" y="12.859"></use><use xlink:href="#11" y="14.696"></use><use xlink:href="#12" y="16.533"></use><use xlink:href="#7" y="18.37"></use><use xlink:href="#13" y="20.206999999999997"></use><use xlink:href="#4" y="23.881000000000004"></use></svg><svg x="360"><use xlink:href="#a"></use><use xlink:href="#5" y="0"></use><text x="0" y="3.5069999999999997" class="d">❯</text><text x="2.004" y="3.5069999999999997" class="e">Produce</text><text x="10.02" y="3.5069999999999997" class="e">name</text><text x="16.032" y="3.5069999999999997" class="h">Red</text><text x="20.04" y="3.5069999999999997" class="h">Apple</text><text x="25.05" y="3.5069999999999997" class="d">█</text><use xlink:href="#6" y="3.674"></use><use xlink:href="#7" y="5.511"></use><use xlink:href="#8" y="7.348"></use><use xlink:href="#9" y="9.185"></use><use xlink:href="#7" y="11.022"></use><use xlink:href="#10" y="12.859"></use><use xlink:href="#11" y="14.696"></use><use xlink:href="#12" y="16.533"></use><use xlink:href="#7" y="18.37"></use><use xlink:href="#13" y="20.206999999999997"></use><use xlink:href="#14" y="23.881000000000004"></use></svg><svg x="432"><use xlink:href="#a"></use><use xlink:href="#5" y="0"></use><text x="0" y="3.5069999999999997" class="d">❯</text><text x="2.004" y="3.5069999999999997" class="e">Produce</text><text x="10.02" y="3.5069999999999997" class="e">name</text><text x="16.032" y="3.5069999999999997" class="h">Red</text><text x="20.04" y="3.5069999999999997" class="h">Appl</text><text x="24.048" y="3.5069999999999997" class="d">█</text><use xlink:href="#6" y="3.674"></use><use xlink:href="#7" y="5.511"></use><use xlink:href="#8" y="7.348"></use><use xlink:href="#9" y="9.185"></use><use xlink:href="#7" y="11.022"></use><use xlink:href="#10" y="12.859"></use><use xlink:href="#11" y="14.696"></use><use xlink:href="#12" y="16.533"></use><use xlink:href="#7" y="18.37"></use><use xlink:href="#13" y="20.206999999999997"></use><use xlink:href="#14" y="23.881000000000004"></use></svg><svg x="504"><use xlink:href="#a"></use><use xlink:href="#5" y="0"></use><text x="0" y="3.5069999999999997" class="d">❯</text><text x="2.004" y="3.5069999999999997" class="e">Produce</text><text x="10.02" y="3.5069999999999997" class="e">name</text><text x="16.032" y="3.5069999999999997" class="h">Red</text><text x="20.04" y="3.5069999999999997" class="h">App</text><text x="23.045999999999996" y="3.5069999999999997" class="d">█</text><use xlink:href="#6" y="3.674"></use><use xlink:href="#7" y="5.511"></use><use xlink:href="#8" y="7.348"></use><use xlink:href="#9" y="9.185"></use><use xlink:href="#7" y="11.022"></use><use xlink:href="#10" y="12.859"></use><use xlink:href="#11" y="14.696"></use><use xlink:href="#12" y="16.533"></use><use xlink:href="#7" y="18.37"></use><use xlink:href="#13" y="20.206999999999997"></use><use xlink:href="#14" y="23.881000000000004"></use></svg><svg x="576"><use xlink:href="#a"></use><use xlink:href="#5" y="0"></use><text x="0" y="3.5069999999999997" class="d">❯</text><text x="2.004" y="3.5069999999999997" class="e">Produce</text><text x="10.02" y="3.5069999999999997" class="e">name</text><text x="16.032" y="3.5069999999999997" class="h">Red</text><text x="20.04" y="3.5069999999999997" class="h">Ap</text><text x="22.043999999999997" y="3.5069999999999997" class="d">█</text><use xlink:href="#6" y="3.674"></use><use xlink:href="#7" y="5.511"></use><use xlink:href="#8" y="7.348"></use><use xlink:href="#9" y="9.185"></use><use xlink:href="#7" y="11.022"></use><use xlink:href="#10" y="12.859"></use><use xlink:href="#11" y="14.696"></use><use xlink:href="#12" y="16.533"></use><use xlink:href="#7" y="18.37"></use><use xlink:href="#13" y="20.206999999999997"></use><use xlink:href="#14" y="23.881000000000004"></use></svg><svg x="648"><use xlink:href="#a"></use><use xlink:href="#5" y="0"></use><text x="0" y="3.5069999999999997" class="d">❯</text><text x="2.004" y="3.5069999999999997" class="e">Produce</text><text x="10.02" y="3.5069999999999997" class="e">name</text><text x="16.032" y="3.5069999999999997" class="h">Red</text><text x="20.04" y="3.5069999999999997" class="h">A</text><text x="21.041999999999998" y="3.5069999999999997" class="d">█</text><use xlink:href="#6" y="3.674"></use><use xlink:href="#7" y="5.511"></use><use xlink:href="#8" y="7.348"></use><use xlink:href="#9" y="9.185"></use><use xlink:href="#7" y="11.022"></use><use xlink:href="#10" y="12.859"></use><use xlink:href="#11" y="14.696"></use><use xlink:href="#12" y="16.533"></use><use xlink:href="#7" y="18.37"></use><use xlink:href="#13" y="20.206999999999997"></use><use xlink:href="#14" y="23.881000000000004"></use></svg><svg x="720"><use xlink:href="#a"></use><use xlink:href="#5" y="0"></use><text x="0" y="3.5069999999999997" class="d">❯</text><text x="2.004" y="3.5069999999999997" class="e">Produce</text><text x="10.02" y="3.5069999999999997" class="e">name</text><text x="16.032" y="3.5069999999999997" class="h">Red</text><text x="20.04" y="3.5069999999999997" class="d">█</text><use xlink:href="#6" y="3.674"></use><use xlink:href="#7" y="5.511"></use><use xlink:href="#8" y="7.348"></use><use xlink:href="#9" y="9.185"></use><use xlink:href="#7" y="11.022"></use><use xlink:href="#10" y="12.859"></use><use xlink:href="#11" y="14.696"></use><use xlink:href="#12" y="16.533"></use><use xlink:href="#7" y="18.37"></use><use xlink:href="#13" y="20.206999999999997"></use><use xlink:href="#14" y="23.881000000000004"></use></svg><svg x="792"><use xlink:href="#a"></use><use xlink:href="#5" y="0"></use><text x="0" y="3.5069999999999997" class="d">❯</text><text x="2.004" y="3.5069999999999997" class="e">Produce</text><text x="10.02" y="3.5069999999999997" class="e">name</text><text x="16.032" y="3.5069999999999997" class="h">Red</text><text x="20.04" y="3.5069999999999997" class="h">P</text><text x="21.041999999999998" y="3.5069999999999997" class="d">█</text><use xlink:href="#6" y="3.674"></use><use xlink:href="#7" y="5.511"></use><use xlink:href="#8" y="7.348"></use><use xlink:href="#9" y="9.185"></use><use xlink:href="#7" y="11.022"></use><use xlink:href="#10" y="12.859"></use><use xlink:href="#11" y="14.696"></use><use xlink:href="#12" y="16.533"></use><use xlink:href="#7" y="18.37"></use><use xlink:href="#13" y="20.206999999999997"></use><use xlink:href="#14" y="23.881000000000004"></use></svg><svg x="864"><use xlink:href="#a"></use><use xlink:href="#5" y="0"></use><text x="0" y="3.5069999999999997" class="d">❯</text><text x="2.004" y="3.5069999999999997" class="e">Produce</text><text x="10.02" y="3.5069999999999997" class="e">name</text><text x="16.032" y="3.5069999999999997" class="h">Red</text><text x="20.04" y="3.5069999999999997" class="h">Pl</text><text x="22.043999999999997" y="3.5069999999999997" class="d">█</text><use xlink:href="#6" y="3.674"></use><use xlink:href="#7" y="5.511"></use><use xlink:href="#8" y="7.348"></use><use xlink:href="#9" y="9.185"></use><use xlink:href="#7" y="11.022"></use><use xlink:href="#10" y="12.859"></use><use xlink:href="#11" y="14.696"></use><use xlink:href="#12" y="16.533"></use><use xlink:href="#7" y="18.37"></use><use xlink:href="#13" y="20.206999999999997"></use><use xlink:href="#14" y="23.881000000000004"></use></svg><svg x="936"><use xlink:href="#a"></use><use xlink:href="#5" y="0"></use><text x="0" y="3.5069999999999997" class="d">❯</text><text x="2.004" y="3.5069999999999997" class="e">Produce</text><text x="10.02" y="3.5069999999999997" class="e">name</text><text x="16.032" y="3.5069999999999997" class="h">Red</text><text x="20.04" y="3.5069999999999997" class="h">Plu</text><text x="23.045999999999996" y="3.5069999999999997" class="d">█</text><use xlink:href="#6" y="3.674"></use><use xlink:href="#7" y="5.511"></use><use xlink:href="#8" y="7.348"></use><use xlink:href="#9" y="9.185"></use><use xlink:href="#7" y="11.022"></use><use xlink:href="#10" y="12.859"></use><use xlink:href="#11" y="14.696"></use><use xlink:href="#12" y="16.533"></use><use xlink:href="#7" y="18.37"></use><use xlink:href="#13" y="20.206999999999997"></use><use xlink:href="#14" y="23.881000000000004"></use></svg><svg x="1008"><use xlink:href="#a"></use><use xlink:href="#5" y="0"></use><text x="0" y="3.5069999999999997" class="d">❯</text><text x="2.004" y="3.5069999999999997" class="e">Produce</text><text x="10.02" y="3.5069999999999997" class="e">name</text><text x="16.032" y="3.5069999999999997" class="h">Red</text><text x="20.04" y="3.5069999999999997" class="h">Plum</text><text x="24.048" y="3.5069999999999997" class="d">█</text><use xlink:href="#6" y="3.674"></use><use xlink:href="#7" y="5.511"></use><use xlink:href="#8" y="7.348"></use><use xlink:href="#9" y="9.185"></use><use xlink:href="#7" y="11.022"></use><use xlink:href="#10" y="12.859"></use><use xlink:href="#11" y="14.696"></use><use xlink:href="#12" y="16.533"></use><use xlink:href="#7" y="18.37"></use><use xlink:href="#13" y="20.206999999999997"></use><use xlink:href="#14" y="23.881000000000004"></use></svg><svg x="1080"><use xlink:href="#a"></use><use xlink:href="#5" y="0"></use><text x="0" y="3.5069999999999997" class="d">❯</text><text x="2.004" y="3.5069999999999997" class="e">Produce</text><text x="10.02" y="3.5069999999999997" class="e">name</text><text x="16.032" y="3.5069999999999997" class="o">Red</text><text x="20.04" y="3.5069999999999997" class="o">Plum</text><rect height="1.837" width="4" x="68.136" y="1.8369999999999997" class="i"></rect><text x="68.136" y="3.5069999999999997" class="p"> edi</text><rect height="1.837" width="4" x="0" y="3.6739999999999995" class="i"></rect><text x="0" y="5.343999999999999" class="p">ted </text><text x="2.004" y="7.181" class="h">Slug</text><text x="8.016" y="7.181" class="g">red_plum</text><rect height="1.837" width="5" x="67.134" y="5.511" class="i"></rect><text x="67.134" y="7.181" class="j"> deri</text><use xlink:href="#7" y="7.348"></use><use xlink:href="#8" y="9.185"></use><text x="2.004" y="12.692" class="h">Code</text><text x="8.016" y="12.692" class="g">RED_PLUM</text><rect height="1.837" width="5" x="67.134" y="11.022" class="i"></rect><text x="67.134" y="12.692" class="j"> deri</text><use xlink:href="#7" y="12.859"></use><use xlink:href="#10" y="14.696"></use><use xlink:href="#11" y="16.533"></use><text x="2.004" y="20.04" class="h">Lot</text><text x="7.013999999999999" y="20.04" class="g">sunny/red_plum</text><rect height="1.837" width="5" x="67.134" y="18.369999999999997" class="i"></rect><text x="67.134" y="20.04" class="j"> deri</text><use xlink:href="#7" y="20.206999999999997"></use><use xlink:href="#13" y="22.044"></use><use xlink:href="#4" y="25.718"></use></svg><svg x="1152"><use xlink:href="#a"></use><use xlink:href="#1" y="0"></use><use xlink:href="#2" y="1.837"></use><text x="4.008" y="5.343999999999999" class="o">Red</text><text x="8.016" y="5.343999999999999" class="o">Plum</text><text x="13.026" y="5.343999999999999" class="o">·</text><text x="15.029999999999998" y="5.343999999999999" class="o">red_plum</text><text x="24.048" y="5.343999999999999" class="o">·</text><text x="26.052" y="5.343999999999999" class="o">RED_PLUM</text><text x="35.06999999999999" y="5.343999999999999" class="o">·</text><text x="37.074" y="5.343999999999999" class="o">Sunny</text><use xlink:href="#3" y="7.348"></use><use xlink:href="#4" y="11.022"></use></svg><svg x="1224"><use xlink:href="#a"></use><use xlink:href="#1" y="0"></use><text x="2.004" y="3.5069999999999997" class="h">Naming</text><text x="9.017999999999999" y="3.5069999999999997" class="c">›</text><text x="4.008" y="5.343999999999999" class="g">Red</text><text x="8.016" y="5.343999999999999" class="g">Plum</text><text x="13.026" y="5.343999999999999" class="g">·</text><text x="15.029999999999998" y="5.343999999999999" class="g">red_plum</text><text x="24.048" y="5.343999999999999" class="g">·</text><text x="26.052" y="5.343999999999999" class="g">RED_PLUM</text><text x="35.06999999999999" y="5.343999999999999" class="g">·</text><text x="37.074" y="5.343999999999999" class="g">Sunny</text><rect height="1.837" width="10" x="2.004" y="7.348000000000001" class="i"></rect><text x="2.004" y="9.018" class="p">[ Submit ]</text><text x="14.027999999999999" y="9.018" class="g">[</text><text x="16.032" y="9.018" class="g">Cancel</text><text x="23.045999999999996" y="9.018" class="g">]</text><use xlink:href="#4" y="11.022"></use></svg><svg x="1296"><use xlink:href="#a"></use><use xlink:href="#b" x="-0.0040000000000000036" y="10.847"></use><use xlink:href="#15" y="0"></use><use xlink:href="#16" y="1.837"></use><use xlink:href="#17" y="3.674"></use><use xlink:href="#18" y="5.511"></use><use xlink:href="#19" y="7.348"></use><use xlink:href="#20" y="9.185"></use></svg><svg x="1368"><use xlink:href="#a"></use><use xlink:href="#b" x="0.996" y="10.847"></use><use xlink:href="#15" y="0"></use><use xlink:href="#16" y="1.837"></use><use xlink:href="#17" y="3.674"></use><use xlink:href="#18" y="5.511"></use><use xlink:href="#19" y="7.348"></use><use xlink:href="#20" y="9.185"></use></svg></svg></g></g></svg></svg>