<svg xmlns="http://www.w3.org/2000/svg" xmlns:xlink="http://www.w3.org/1999/xlink" width="800" height="440.88"><rect width="800" height="440.88" rx="0" ry="0" class="a"></rect><svg height="440.88" viewBox="0 0 80 44.088" width="800" xmlns="http://www.w3.org/2000/svg" xmlns:xlink="http://www.w3.org/1999/xlink"><style>.a{fill:rgb(250,250,250)}.b{font-family:Consolas,"Courier New",Courier,"Liberation Mono",monospace}.c{fill:rgb(0,128,128);white-space:pre}.d{fill:rgb(90,96,105);white-space:pre}.e{fill:rgb(0,128,128);font-weight:bold;white-space:pre}.f{fill:rgb(56,58,66);font-weight:bold;white-space:pre}.g{fill:rgb(90,96,105);font-weight:bold;white-space:pre}.h{fill:rgb(0,128,0);font-weight:bold;white-space:pre}.i{fill:rgb(0,128,0);white-space:pre}.j{fill:rgb(56,58,66);white-space:pre}.k{fill:rgb(40,44,52)}.l{fill:rgb(250,250,250);font-weight:bold;white-space:pre}.m{fill:transparent}.n{fill:rgb(82,139,255)}.p{animation-duration:12.909s;animation-iteration-count:infinite;animation-name:o;animation-timing-function:steps(1,end)}@keyframes o{0%{transform:translateX(-0px)}0.8%{transform:translateX(-80px)}4%{transform:translateX(-160px)}4%{transform:translateX(-240px)}4%{transform:translateX(-320px)}4%{transform:translateX(-400px)}4%{transform:translateX(-480px)}4%{transform:translateX(-560px)}4%{transform:translateX(-640px)}4.3%{transform:translateX(-720px)}23.7%{transform:translateX(-800px)}23.7%{transform:translateX(-880px)}24%{transform:translateX(-960px)}24%{transform:translateX(-1040px)}24.3%{transform:translateX(-1120px)}24.3%{transform:translateX(-1200px)}24.6%{transform:translateX(-1280px)}41.4%{transform:translateX(-1360px)}41.4%{transform:translateX(-1440px)}41.7%{transform:translateX(-1520px)}41.7%{transform:translateX(-1600px)}41.9%{transform:translateX(-1680px)}41.9%{transform:translateX(-1760px)}42.2%{transform:translateX(-1840px)}44.4%{transform:translateX(-1920px)}44.4%{transform:translateX(-2000px)}44.6%{transform:translateX(-2080px)}44.6%{transform:translateX(-2160px)}44.9%{transform:translateX(-2240px)}44.9%{transform:translateX(-2320px)}45.2%{transform:translateX(-2400px)}47.4%{transform:translateX(-2480px)}47.4%{transform:translateX(-2560px)}47.6%{transform:translateX(-2640px)}47.6%{transform:translateX(-2720px)}47.9%{transform:translateX(-2800px)}47.9%{transform:translateX(-2880px)}48.2%{transform:translateX(-2960px)}52.2%{transform:translateX(-3040px)}52.2%{transform:translateX(-3120px)}52.5%{transform:translateX(-3200px)}52.5%{transform:translateX(-3280px)}52.8%{transform:translateX(-3360px)}52.8%{transform:translateX(-3440px)}53.1%{transform:translateX(-3520px)}65.1%{transform:translateX(-3600px)}65.1%{transform:translateX(-3680px)}65.4%{transform:translateX(-3760px)}65.4%{transform:translateX(-3840px)}65.7%{transform:translateX(-3920px)}65.7%{transform:translateX(-4000px)}65.9%{transform:translateX(-4080px)}70.9%{transform:translateX(-4160px)}100%{transform:translateX(-4240px)}}</style><g font-family="Consolas, &quot;Courier New&quot;, Courier, &quot;Liberation Mono&quot;, monospace" font-size="1.67" class="b"><defs><symbol id="1"><text x="0" y="1.67" class="c">╭──────────────────────────────────────────────────────────────────────────────╮</text></symbol><symbol id="2"><text x="0" y="1.67" class="c">│</text><text x="2.004" y="1.67" class="d">Market</text><text x="9.017999999999999" y="1.67" class="d">stall</text><text x="79.158" y="1.67" class="c">│</text></symbol><symbol id="3"><text x="0" y="1.67" class="c">├──────────────────────────────────────────────────────────────────────────────┤</text></symbol><symbol id="4"><text x="0" y="1.67" class="c">│</text><text x="79.158" y="1.67" class="c">│</text></symbol><symbol id="5"><text x="0" y="1.67" class="c">│</text></symbol><symbol id="6"><text x="0" y="1.67" class="c">│</text><text x="24.048" y="1.67" class="e">❯</text><text x="26.052" y="1.67" class="f">Order</text><text x="32.064" y="1.67" class="g">›</text><text x="79.158" y="1.67" class="c">│</text></symbol><symbol id="7"><text x="0" y="1.67" class="c">│</text><text x="28.055999999999997" y="1.67" class="g">What</text><text x="33.065999999999995" y="1.67" class="g">goes</text><text x="38.07599999999999" y="1.67" class="g">in</text><text x="41.082" y="1.67" class="g">the</text><text x="45.089999999999996" y="1.67" class="g">box.</text><text x="79.158" y="1.67" class="c">│</text></symbol><symbol id="8"><text x="0" y="1.67" class="c">│</text><text x="28.055999999999997" y="1.67" class="h">Weekly</text><text x="35.06999999999999" y="1.67" class="h">Box</text><text x="39.077999999999996" y="1.67" class="h">·</text><text x="41.082" y="1.67" class="h">apple</text><text x="47.093999999999994" y="1.67" class="h">·</text><text x="49.098" y="1.67" class="h">6</text><text x="51.102" y="1.67" class="h">·</text><text x="53.105999999999995" y="1.67" class="h">yes</text><text x="79.158" y="1.67" class="c">│</text></symbol><symbol id="9"><text x="0" y="1.67" class="c">│</text><text x="26.052" y="1.67" class="i">[</text><text x="28.055999999999997" y="1.67" class="i">Place</text><text x="34.068" y="1.67" class="i">order</text><text x="40.08" y="1.67" class="i">]</text><text x="43.086" y="1.67" class="i">[</text><text x="45.089999999999996" y="1.67" class="i">Cancel</text><text x="52.104" y="1.67" class="i">]</text><text x="79.158" y="1.67" class="c">│</text></symbol><symbol id="10"><text x="0" y="1.67" class="c">│</text><text x="2.004" y="1.67" class="d">↑/↓</text><text x="6.012" y="1.67" class="d">move</text><text x="11.021999999999998" y="1.67" class="d">·</text><text x="13.026" y="1.67" class="d">↵</text><text x="15.029999999999998" y="1.67" class="d">select</text><text x="22.043999999999997" y="1.67" class="d">·</text><text x="24.048" y="1.67" class="d">esc</text><text x="28.055999999999997" y="1.67" class="d">back</text><text x="33.065999999999995" y="1.67" class="d">·</text><text x="35.06999999999999" y="1.67" class="d">q</text><text x="37.074" y="1.67" class="d">quit</text><text x="42.083999999999996" y="1.67" class="d">·</text><text x="44.087999999999994" y="1.67" class="d">?</text><text x="46.09199999999999" y="1.67" class="d">help</text><text x="79.158" y="1.67" class="c">│</text></symbol><symbol id="11"><text x="0" y="1.67" class="c">╰─────────────────────────────────────</text></symbol><symbol id="12"><text x="0" y="1.67" class="c">╰───────────────────────────────────────</text></symbol><symbol id="13"><text x="0" y="1.67" class="c">╰──────────────────────────────────────────────────────────────────────────────╯</text></symbol><symbol id="14"><text x="0" y="1.67" class="c">│</text><text x="2.004" y="1.67" class="d">Market</text><text x="9.017999999999999" y="1.67" class="d">stall</text><text x="15.029999999999998" y="1.67" class="d">›</text><text x="17.034" y="1.67" class="d">Order</text><text x="79.158" y="1.67" class="c">│</text></symbol><symbol id="15"><text x="0" y="1.67" class="c">│</text><text x="28.055999999999997" y="1.67" class="e">❯</text><text x="30.059999999999995" y="1.67" class="f">Order</text><text x="36.071999999999996" y="1.67" class="f">name</text><text x="42.083999999999996" y="1.67" class="h">Weekly</text><text x="49.098" y="1.67" class="h">Box</text><text x="79.158" y="1.67" class="c">│</text></symbol><symbol id="16"><text x="0" y="1.67" class="c">│</text><text x="30.059999999999995" y="1.67" class="j">Fruit</text><text x="37.074" y="1.67" class="i">apple</text><text x="79.158" y="1.67" class="c">│</text></symbol><symbol id="17"><text x="0" y="1.67" class="c">│</text><text x="30.059999999999995" y="1.67" class="j">Quantity</text><text x="40.08" y="1.67" class="i">6</text><text x="79.158" y="1.67" class="c">│</text></symbol><symbol id="18"><text x="0" y="1.67" class="c">│</text><text x="30.059999999999995" y="1.67" class="j">Organic</text><text x="38.07599999999999" y="1.67" class="j">only?</text><text x="45.089999999999996" y="1.67" class="i">yes</text><text x="79.158" y="1.67" class="c">│</text></symbol><symbol id="19"><text x="0" y="1.67" class="c">╰──────────────────────────────────────────</text></symbol><symbol id="20"><text x="0" y="1.67" class="c">╰─────────────────────────────────────────────</text></symbol><symbol id="21"><text x="0" y="1.67" class="c">│</text><text x="30.059999999999995" y="1.67" class="j">Order</text><text x="36.071999999999996" y="1.67" class="j">name</text><text x="42.083999999999996" y="1.67" class="i">Weekly</text><text x="49.098" y="1.67" class="i">Box</text><text x="79.158" y="1.67" class="c">│</text></symbol><symbol id="22"><text x="0" y="1.67" class="c">│</text><text x="28.055999999999997" y="1.67" class="e">❯</text><text x="30.059999999999995" y="1.67" class="f">Fruit</text><text x="37.074" y="1.67" class="h">apple</text><text x="79.158" y="1.67" class="c">│</text></symbol><symbol id="23"><text x="0" y="1.67" class="c">│</text><text x="28.055999999999997" y="1.67" class="e">❯</text><text x="30.059999999999995" y="1.67" class="f">Quantity</text><text x="40.08" y="1.67" class="h">6</text><text x="79.158" y="1.67" class="c">│</text></symbol><symbol id="24"><text x="0" y="1.67" class="c">│</text><text x="28.055999999999997" y="1.67" class="e">❯</text><text x="30.059999999999995" y="1.67" class="f">Organic</text><text x="38.07599999999999" y="1.67" class="f">only?</text><text x="45.089999999999996" y="1.67" class="h">yes</text><text x="79.158" y="1.67" class="c">│</text></symbol><symbol id="25"><text x="0" y="1.67" class="c">│</text><text x="26.052" y="1.67" class="j">Order</text><text x="32.064" y="1.67" class="d">›</text><text x="79.158" y="1.67" class="c">│</text></symbol><symbol id="26"><text x="0" y="1.67" class="c">│</text><text x="28.055999999999997" y="1.67" class="d">What</text><text x="33.065999999999995" y="1.67" class="d">goes</text><text x="38.07599999999999" y="1.67" class="d">in</text><text x="41.082" y="1.67" class="d">the</text><text x="45.089999999999996" y="1.67" class="d">box.</text><text x="79.158" y="1.67" class="c">│</text></symbol><symbol id="27"><text x="0" y="1.67" class="c">│</text><text x="28.055999999999997" y="1.67" class="i">Weekly</text><text x="35.06999999999999" y="1.67" class="i">Box</text><text x="39.077999999999996" y="1.67" class="i">·</text><text x="41.082" y="1.67" class="i">apple</text><text x="47.093999999999994" y="1.67" class="i">·</text><text x="49.098" y="1.67" class="i">6</text><text x="51.102" y="1.67" class="i">·</text><text x="53.105999999999995" y="1.67" class="i">yes</text><text x="79.158" y="1.67" class="c">│</text></symbol><symbol id="28"><text x="0" y="1.67" class="c">│</text><rect height="1.837" width="15" x="26.052" y="0" class="k"></rect><text x="26.052" y="1.67" class="l">[ Place order ]</text><text x="43.086" y="1.67" class="i">[</text><text x="45.089999999999996" y="1.67" class="i">Cancel</text><text x="52.104" y="1.67" class="i">]</text><text x="79.158" y="1.67" class="c">│</text></symbol><symbol id="29"><text x="0" y="1.67" class="j">Order</text></symbol><symbol id="30"><text x="2.004" y="1.67" class="j">Order</text><text x="8.016" y="1.67" class="j">name:</text><text x="14.027999999999999" y="1.67" class="j">Weekly</text><text x="21.041999999999998" y="1.67" class="j">Box</text></symbol><symbol id="31"><text x="2.004" y="1.67" class="j">Fruit:</text><text x="9.017999999999999" y="1.67" class="j">apple</text></symbol><symbol id="32"><text x="2.004" y="1.67" class="j">Quantity:</text><text x="12.024" y="1.67" class="j">6</text></symbol><symbol id="33"><text x="2.004" y="1.67" class="j">Organic</text><text x="10.02" y="1.67" class="j">only?:</text><text x="17.034" y="1.67" class="j">yes</text></symbol><symbol id="a"><rect height="24" width="80" x="0" y="0" class="m"></rect></symbol><symbol id="b"><rect height="1.837" width="1.1022" class="n"></rect></symbol></defs><rect height="44.088" width="80" class="a"></rect><g class="p"><svg x="0" y="0" width="4320"><svg x="0"><use xlink:href="#a"></use><use xlink:href="#b" x="-0.0040000000000000036" y="0"></use></svg><svg x="80"><use xlink:href="#a"></use><use xlink:href="#b" x="-0.0040000000000000036" y="0"></use></svg><svg x="160"><use xlink:href="#a"></use></svg><svg x="240"><use xlink:href="#a"></use><use xlink:href="#1" y="0"></use><use xlink:href="#2" y="1.837"></use><use xlink:href="#3" y="3.674"></use><use xlink:href="#4" y="5.511"></use><use xlink:href="#4" y="7.348"></use><use xlink:href="#4" y="9.185"></use><use xlink:href="#5" y="11.022"></use></svg><svg x="320"><use xlink:href="#a"></use><use xlink:href="#1" y="0"></use><use xlink:href="#2" y="1.837"></use><use xlink:href="#3" y="3.674"></use><use xlink:href="#4" y="5.511"></use><use xlink:href="#4" y="7.348"></use><use xlink:href="#4" y="9.185"></use><use xlink:href="#5" y="11.022"></use></svg><svg x="400"><use xlink:href="#a"></use><use xlink:href="#1" y="0"></use><use xlink:href="#2" y="1.837"></use><use xlink:href="#3" y="3.674"></use><use xlink:href="#4" y="5.511"></use><use xlink:href="#4" y="7.348"></use><use xlink:href="#4" y="9.185"></use><use xlink:href="#4" y="11.022"></use><use xlink:href="#4" y="12.859"></use><use xlink:href="#4" y="14.696"></use><use xlink:href="#6" y="16.533"></use><use xlink:href="#7" y="18.37"></use><use xlink:href="#8" y="20.206999999999997"></use><use xlink:href="#4" y="22.044"></use><use xlink:href="#9" y="23.881000000000004"></use><use xlink:href="#4" y="25.718"></use><use xlink:href="#5" y="27.555"></use></svg><svg x="480"><use xlink:href="#a"></use><use xlink:href="#1" y="0"></use><use xlink:href="#2" y="1.837"></use><use xlink:href="#3" y="3.674"></use><use xlink:href="#4" y="5.511"></use><use xlink:href="#4" y="7.348"></use><use xlink:href="#4" y="9.185"></use><use xlink:href="#4" y="11.022"></use><use xlink:href="#4" y="12.859"></use><use xlink:href="#4" y="14.696"></use><use xlink:href="#6" y="16.533"></use><use xlink:href="#7" y="18.37"></use><use xlink:href="#8" y="20.206999999999997"></use><use xlink:href="#4" y="22.044"></use><use xlink:href="#9" y="23.881000000000004"></use><use xlink:href="#4" y="25.718"></use><use xlink:href="#4" y="27.555"></use></svg><svg x="560"><use xlink:href="#a"></use><use xlink:href="#1" y="0"></use><use xlink:href="#2" y="1.837"></use><use xlink:href="#3" y="3.674"></use><use xlink:href="#4" y="5.511"></use><use xlink:href="#4" y="7.348"></use><use xlink:href="#4" y="9.185"></use><use xlink:href="#4" y="11.022"></use><use xlink:href="#4" y="12.859"></use><use xlink:href="#4" y="14.696"></use><use xlink:href="#6" y="16.533"></use><use xlink:href="#7" y="18.37"></use><use xlink:href="#8" y="20.206999999999997"></use><use xlink:href="#4" y="22.044"></use><use xlink:href="#9" y="23.881000000000004"></use><use xlink:href="#4" y="25.718"></use><use xlink:href="#4" y="27.555"></use><use xlink:href="#4" y="29.392"></use><use xlink:href="#4" y="31.229000000000003"></use><use xlink:href="#4" y="33.066"></use><use xlink:href="#4" y="34.903"></use><use xlink:href="#4" y="36.74"></use><use xlink:href="#3" y="38.577000000000005"></use><use xlink:href="#10" y="40.413999999999994"></use><use xlink:href="#11" y="42.251"></use></svg><svg x="640"><use xlink:href="#a"></use><use xlink:href="#1" y="0"></use><use xlink:href="#2" y="1.837"></use><use xlink:href="#3" y="3.674"></use><use xlink:href="#4" y="5.511"></use><use xlink:href="#4" y="7.348"></use><use xlink:href="#4" y="9.185"></use><use xlink:href="#4" y="11.022"></use><use xlink:href="#4" y="12.859"></use><use xlink:href="#4" y="14.696"></use><use xlink:href="#6" y="16.533"></use><use xlink:href="#7" y="18.37"></use><use xlink:href="#8" y="20.206999999999997"></use><use xlink:href="#4" y="22.044"></use><use xlink:href="#9" y="23.881000000000004"></use><use xlink:href="#4" y="25.718"></use><use xlink:href="#4" y="27.555"></use><use xlink:href="#4" y="29.392"></use><use xlink:href="#4" y="31.229000000000003"></use><use xlink:href="#4" y="33.066"></use><use xlink:href="#4" y="34.903"></use><use xlink:href="#4" y="36.74"></use><use xlink:href="#3" y="38.577000000000005"></use><use xlink:href="#10" y="40.413999999999994"></use><use xlink:href="#12" y="42.251"></use></svg><svg x="720"><use xlink:href="#a"></use><use xlink:href="#1" y="0"></use><use xlink:href="#2" y="1.837"></use><use xlink:href="#3" y="3.674"></use><use xlink:href="#4" y="5.511"></use><use xlink:href="#4" y="7.348"></use><use xlink:href="#4" y="9.185"></use><use xlink:href="#4" y="11.022"></use><use xlink:href="#4" y="12.859"></use><use xlink:href="#4" y="14.696"></use><use xlink:href="#6" y="16.533"></use><use xlink:href="#7" y="18.37"></use><use xlink:href="#8" y="20.206999999999997"></use><use xlink:href="#4" y="22.044"></use><use xlink:href="#9" y="23.881000000000004"></use><use xlink:href="#4" y="25.718"></use><use xlink:href="#4" y="27.555"></use><use xlink:href="#4" y="29.392"></use><use xlink:href="#4" y="31.229000000000003"></use><use xlink:href="#4" y="33.066"></use><use xlink:href="#4" y="34.903"></use><use xlink:href="#4" y="36.74"></use><use xlink:href="#3" y="38.577000000000005"></use><use xlink:href="#10" y="40.413999999999994"></use><use xlink:href="#13" y="42.251"></use></svg><svg x="800"><use xlink:href="#a"></use><use xlink:href="#1" y="0"></use><use xlink:href="#14" y="1.837"></use><use xlink:href="#3" y="3.674"></use><use xlink:href="#4" y="5.511"></use><use xlink:href="#4" y="7.348"></use><use xlink:href="#4" y="9.185"></use><use xlink:href="#5" y="11.022"></use></svg><svg x="880"><use xlink:href="#a"></use><use xlink:href="#1" y="0"></use><use xlink:href="#14" y="1.837"></use><use xlink:href="#3" y="3.674"></use><use xlink:href="#4" y="5.511"></use><use xlink:href="#4" y="7.348"></use><use xlink:href="#4" y="9.185"></use><use xlink:href="#5" y="11.022"></use></svg><svg x="960"><use xlink:href="#a"></use><use xlink:href="#1" y="0"></use><use xlink:href="#14" y="1.837"></use><use xlink:href="#3" y="3.674"></use><use xlink:href="#4" y="5.511"></use><use xlink:href="#4" y="7.348"></use><use xlink:href="#4" y="9.185"></use><use xlink:href="#4" y="11.022"></use><use xlink:href="#4" y="12.859"></use><use xlink:href="#4" y="14.696"></use><use xlink:href="#4" y="16.533"></use><use xlink:href="#15" y="18.37"></use><use xlink:href="#16" y="20.206999999999997"></use><use xlink:href="#17" y="22.044"></use><use xlink:href="#18" y="23.881000000000004"></use><use xlink:href="#4" y="25.718"></use><use xlink:href="#4" y="27.555"></use></svg><svg x="1040"><use xlink:href="#a"></use><use xlink:href="#1" y="0"></use><use xlink:href="#14" y="1.837"></use><use xlink:href="#3" y="3.674"></use><use xlink:href="#4" y="5.511"></use><use xlink:href="#4" y="7.348"></use><use xlink:href="#4" y="9.185"></use><use xlink:href="#4" y="11.022"></use><use xlink:href="#4" y="12.859"></use><use xlink:href="#4" y="14.696"></use><use xlink:href="#4" y="16.533"></use><use xlink:href="#15" y="18.37"></use><use xlink:href="#16" y="20.206999999999997"></use><use xlink:href="#17" y="22.044"></use><use xlink:href="#18" y="23.881000000000004"></use><use xlink:href="#4" y="25.718"></use><use xlink:href="#4" y="27.555"></use><use xlink:href="#5" y="29.392"></use></svg><svg x="1120"><use xlink:href="#a"></use><use xlink:href="#1" y="0"></use><use xlink:href="#14" y="1.837"></use><use xlink:href="#3" y="3.674"></use><use xlink:href="#4" y="5.511"></use><use xlink:href="#4" y="7.348"></use><use xlink:href="#4" y="9.185"></use><use xlink:href="#4" y="11.022"></use><use xlink:href="#4" y="12.859"></use><use xlink:href="#4" y="14.696"></use><use xlink:href="#4" y="16.533"></use><use xlink:href="#15" y="18.37"></use><use xlink:href="#16" y="20.206999999999997"></use><use xlink:href="#17" y="22.044"></use><use xlink:href="#18" y="23.881000000000004"></use><use xlink:href="#4" y="25.718"></use><use xlink:href="#4" y="27.555"></use><use xlink:href="#4" y="29.392"></use><use xlink:href="#4" y="31.229000000000003"></use><use xlink:href="#4" y="33.066"></use><use xlink:href="#4" y="34.903"></use><use xlink:href="#4" y="36.74"></use><use xlink:href="#3" y="38.577000000000005"></use><use xlink:href="#10" y="40.413999999999994"></use><use xlink:href="#19" y="42.251"></use></svg><svg x="1200"><use xlink:href="#a"></use><use xlink:href="#1" y="0"></use><use xlink:href="#14" y="1.837"></use><use xlink:href="#3" y="3.674"></use><use xlink:href="#4" y="5.511"></use><use xlink:href="#4" y="7.348"></use><use xlink:href="#4" y="9.185"></use><use xlink:href="#4" y="11.022"></use><use xlink:href="#4" y="12.859"></use><use xlink:href="#4" y="14.696"></use><use xlink:href="#4" y="16.533"></use><use xlink:href="#15" y="18.37"></use><use xlink:href="#16" y="20.206999999999997"></use><use xlink:href="#17" y="22.044"></use><use xlink:href="#18" y="23.881000000000004"></use><use xlink:href="#4" y="25.718"></use><use xlink:href="#4" y="27.555"></use><use xlink:href="#4" y="29.392"></use><use xlink:href="#4" y="31.229000000000003"></use><use xlink:href="#4" y="33.066"></use><use xlink:href="#4" y="34.903"></use><use xlink:href="#4" y="36.74"></use><use xlink:href="#3" y="38.577000000000005"></use><use xlink:href="#10" y="40.413999999999994"></use><use xlink:href="#20" y="42.251"></use></svg><svg x="1280"><use xlink:href="#a"></use><use xlink:href="#1" y="0"></use><use xlink:href="#14" y="1.837"></use><use xlink:href="#3" y="3.674"></use><use xlink:href="#4" y="5.511"></use><use xlink:href="#4" y="7.348"></use><use xlink:href="#4" y="9.185"></use><use xlink:href="#4" y="11.022"></use><use xlink:href="#4" y="12.859"></use><use xlink:href="#4" y="14.696"></use><use xlink:href="#4" y="16.533"></use><use xlink:href="#15" y="18.37"></use><use xlink:href="#16" y="20.206999999999997"></use><use xlink:href="#17" y="22.044"></use><use xlink:href="#18" y="23.881000000000004"></use><use xlink:href="#4" y="25.718"></use><use xlink:href="#4" y="27.555"></use><use xlink:href="#4" y="29.392"></use><use xlink:href="#4" y="31.229000000000003"></use><use xlink:href="#4" y="33.066"></use><use xlink:href="#4" y="34.903"></use><use xlink:href="#4" y="36.74"></use><use xlink:href="#3" y="38.577000000000005"></use><use xlink:href="#10" y="40.413999999999994"></use><use xlink:href="#13" y="42.251"></use></svg><svg x="1360"><use xlink:href="#a"></use><use xlink:href="#1" y="0"></use><use xlink:href="#14" y="1.837"></use><use xlink:href="#3" y="3.674"></use><use xlink:href="#4" y="5.511"></use><use xlink:href="#4" y="7.348"></use><use xlink:href="#4" y="9.185"></use><use xlink:href="#5" y="11.022"></use></svg><svg x="1440"><use xlink:href="#a"></use><use xlink:href="#1" y="0"></use><use xlink:href="#14" y="1.837"></use><use xlink:href="#3" y="3.674"></use><use xlink:href="#4" y="5.511"></use><use xlink:href="#4" y="7.348"></use><use xlink:href="#4" y="9.185"></use><use xlink:href="#5" y="11.022"></use></svg><svg x="1520"><use xlink:href="#a"></use><use xlink:href="#1" y="0"></use><use xlink:href="#14" y="1.837"></use><use xlink:href="#3" y="3.674"></use><use xlink:href="#4" y="5.511"></use><use xlink:href="#4" y="7.348"></use><use xlink:href="#4" y="9.185"></use><use xlink:href="#4" y="11.022"></use><use xlink:href="#4" y="12.859"></use><use xlink:href="#4" y="14.696"></use><use xlink:href="#4" y="16.533"></use><use xlink:href="#21" y="18.37"></use><use xlink:href="#22" y="20.206999999999997"></use><use xlink:href="#17" y="22.044"></use><use xlink:href="#18" y="23.881000000000004"></use><use xlink:href="#4" y="25.718"></use><use xlink:href="#4" y="27.555"></use></svg><svg x="1600"><use xlink:href="#a"></use><use xlink:href="#1" y="0"></use><use xlink:href="#14" y="1.837"></use><use xlink:href="#3" y="3.674"></use><use xlink:href="#4" y="5.511"></use><use xlink:href="#4" y="7.348"></use><use xlink:href="#4" y="9.185"></use><use xlink:href="#4" y="11.022"></use><use xlink:href="#4" y="12.859"></use><use xlink:href="#4" y="14.696"></use><use xlink:href="#4" y="16.533"></use><use xlink:href="#21" y="18.37"></use><use xlink:href="#22" y="20.206999999999997"></use><use xlink:href="#17" y="22.044"></use><use xlink:href="#18" y="23.881000000000004"></use><use xlink:href="#4" y="25.718"></use><use xlink:href="#4" y="27.555"></use><use xlink:href="#5" y="29.392"></use></svg><svg x="1680"><use xlink:href="#a"></use><use xlink:href="#1" y="0"></use><use xlink:href="#14" y="1.837"></use><use xlink:href="#3" y="3.674"></use><use xlink:href="#4" y="5.511"></use><use xlink:href="#4" y="7.348"></use><use xlink:href="#4" y="9.185"></use><use xlink:href="#4" y="11.022"></use><use xlink:href="#4" y="12.859"></use><use xlink:href="#4" y="14.696"></use><use xlink:href="#4" y="16.533"></use><use xlink:href="#21" y="18.37"></use><use xlink:href="#22" y="20.206999999999997"></use><use xlink:href="#17" y="22.044"></use><use xlink:href="#18" y="23.881000000000004"></use><use xlink:href="#4" y="25.718"></use><use xlink:href="#4" y="27.555"></use><use xlink:href="#4" y="29.392"></use><use xlink:href="#4" y="31.229000000000003"></use><use xlink:href="#4" y="33.066"></use><use xlink:href="#4" y="34.903"></use><use xlink:href="#4" y="36.74"></use><use xlink:href="#3" y="38.577000000000005"></use><use xlink:href="#10" y="40.413999999999994"></use><use xlink:href="#19" y="42.251"></use></svg><svg x="1760"><use xlink:href="#a"></use><use xlink:href="#1" y="0"></use><use xlink:href="#14" y="1.837"></use><use xlink:href="#3" y="3.674"></use><use xlink:href="#4" y="5.511"></use><use xlink:href="#4" y="7.348"></use><use xlink:href="#4" y="9.185"></use><use xlink:href="#4" y="11.022"></use><use xlink:href="#4" y="12.859"></use><use xlink:href="#4" y="14.696"></use><use xlink:href="#4" y="16.533"></use><use xlink:href="#21" y="18.37"></use><use xlink:href="#22" y="20.206999999999997"></use><use xlink:href="#17" y="22.044"></use><use xlink:href="#18" y="23.881000000000004"></use><use xlink:href="#4" y="25.718"></use><use xlink:href="#4" y="27.555"></use><use xlink:href="#4" y="29.392"></use><use xlink:href="#4" y="31.229000000000003"></use><use xlink:href="#4" y="33.066"></use><use xlink:href="#4" y="34.903"></use><use xlink:href="#4" y="36.74"></use><use xlink:href="#3" y="38.577000000000005"></use><use xlink:href="#10" y="40.413999999999994"></use><use xlink:href="#20" y="42.251"></use></svg><svg x="1840"><use xlink:href="#a"></use><use xlink:href="#1" y="0"></use><use xlink:href="#14" y="1.837"></use><use xlink:href="#3" y="3.674"></use><use xlink:href="#4" y="5.511"></use><use xlink:href="#4" y="7.348"></use><use xlink:href="#4" y="9.185"></use><use xlink:href="#4" y="11.022"></use><use xlink:href="#4" y="12.859"></use><use xlink:href="#4" y="14.696"></use><use xlink:href="#4" y="16.533"></use><use xlink:href="#21" y="18.37"></use><use xlink:href="#22" y="20.206999999999997"></use><use xlink:href="#17" y="22.044"></use><use xlink:href="#18" y="23.881000000000004"></use><use xlink:href="#4" y="25.718"></use><use xlink:href="#4" y="27.555"></use><use xlink:href="#4" y="29.392"></use><use xlink:href="#4" y="31.229000000000003"></use><use xlink:href="#4" y="33.066"></use><use xlink:href="#4" y="34.903"></use><use xlink:href="#4" y="36.74"></use><use xlink:href="#3" y="38.577000000000005"></use><use xlink:href="#10" y="40.413999999999994"></use><use xlink:href="#13" y="42.251"></use></svg><svg x="1920"><use xlink:href="#a"></use><use xlink:href="#1" y="0"></use><use xlink:href="#14" y="1.837"></use><use xlink:href="#3" y="3.674"></use><use xlink:href="#4" y="5.511"></use><use xlink:href="#4" y="7.348"></use><use xlink:href="#4" y="9.185"></use><use xlink:href="#5" y="11.022"></use></svg><svg x="2000"><use xlink:href="#a"></use><use xlink:href="#1" y="0"></use><use xlink:href="#14" y="1.837"></use><use xlink:href="#3" y="3.674"></use><use xlink:href="#4" y="5.511"></use><use xlink:href="#4" y="7.348"></use><use xlink:href="#4" y="9.185"></use><use xlink:href="#5" y="11.022"></use></svg><svg x="2080"><use xlink:href="#a"></use><use xlink:href="#1" y="0"></use><use xlink:href="#14" y="1.837"></use><use xlink:href="#3" y="3.674"></use><use xlink:href="#4" y="5.511"></use><use xlink:href="#4" y="7.348"></use><use xlink:href="#4" y="9.185"></use><use xlink:href="#4" y="11.022"></use><use xlink:href="#4" y="12.859"></use><use xlink:href="#4" y="14.696"></use><use xlink:href="#4" y="16.533"></use><use xlink:href="#21" y="18.37"></use><use xlink:href="#16" y="20.206999999999997"></use><use xlink:href="#23" y="22.044"></use><use xlink:href="#18" y="23.881000000000004"></use><use xlink:href="#4" y="25.718"></use><use xlink:href="#4" y="27.555"></use></svg><svg x="2160"><use xlink:href="#a"></use><use xlink:href="#1" y="0"></use><use xlink:href="#14" y="1.837"></use><use xlink:href="#3" y="3.674"></use><use xlink:href="#4" y="5.511"></use><use xlink:href="#4" y="7.348"></use><use xlink:href="#4" y="9.185"></use><use xlink:href="#4" y="11.022"></use><use xlink:href="#4" y="12.859"></use><use xlink:href="#4" y="14.696"></use><use xlink:href="#4" y="16.533"></use><use xlink:href="#21" y="18.37"></use><use xlink:href="#16" y="20.206999999999997"></use><use xlink:href="#23" y="22.044"></use><use xlink:href="#18" y="23.881000000000004"></use><use xlink:href="#4" y="25.718"></use><use xlink:href="#4" y="27.555"></use><use xlink:href="#5" y="29.392"></use></svg><svg x="2240"><use xlink:href="#a"></use><use xlink:href="#1" y="0"></use><use xlink:href="#14" y="1.837"></use><use xlink:href="#3" y="3.674"></use><use xlink:href="#4" y="5.511"></use><use xlink:href="#4" y="7.348"></use><use xlink:href="#4" y="9.185"></use><use xlink:href="#4" y="11.022"></use><use xlink:href="#4" y="12.859"></use><use xlink:href="#4" y="14.696"></use><use xlink:href="#4" y="16.533"></use><use xlink:href="#21" y="18.37"></use><use xlink:href="#16" y="20.206999999999997"></use><use xlink:href="#23" y="22.044"></use><use xlink:href="#18" y="23.881000000000004"></use><use xlink:href="#4" y="25.718"></use><use xlink:href="#4" y="27.555"></use><use xlink:href="#4" y="29.392"></use><use xlink:href="#4" y="31.229000000000003"></use><use xlink:href="#4" y="33.066"></use><use xlink:href="#4" y="34.903"></use><use xlink:href="#4" y="36.74"></use><use xlink:href="#3" y="38.577000000000005"></use><use xlink:href="#10" y="40.413999999999994"></use><use xlink:href="#19" y="42.251"></use></svg><svg x="2320"><use xlink:href="#a"></use><use xlink:href="#1" y="0"></use><use xlink:href="#14" y="1.837"></use><use xlink:href="#3" y="3.674"></use><use xlink:href="#4" y="5.511"></use><use xlink:href="#4" y="7.348"></use><use xlink:href="#4" y="9.185"></use><use xlink:href="#4" y="11.022"></use><use xlink:href="#4" y="12.859"></use><use xlink:href="#4" y="14.696"></use><use xlink:href="#4" y="16.533"></use><use xlink:href="#21" y="18.37"></use><use xlink:href="#16" y="20.206999999999997"></use><use xlink:href="#23" y="22.044"></use><use xlink:href="#18" y="23.881000000000004"></use><use xlink:href="#4" y="25.718"></use><use xlink:href="#4" y="27.555"></use><use xlink:href="#4" y="29.392"></use><use xlink:href="#4" y="31.229000000000003"></use><use xlink:href="#4" y="33.066"></use><use xlink:href="#4" y="34.903"></use><use xlink:href="#4" y="36.74"></use><use xlink:href="#3" y="38.577000000000005"></use><use xlink:href="#10" y="40.413999999999994"></use><use xlink:href="#20" y="42.251"></use></svg><svg x="2400"><use xlink:href="#a"></use><use xlink:href="#1" y="0"></use><use xlink:href="#14" y="1.837"></use><use xlink:href="#3" y="3.674"></use><use xlink:href="#4" y="5.511"></use><use xlink:href="#4" y="7.348"></use><use xlink:href="#4" y="9.185"></use><use xlink:href="#4" y="11.022"></use><use xlink:href="#4" y="12.859"></use><use xlink:href="#4" y="14.696"></use><use xlink:href="#4" y="16.533"></use><use xlink:href="#21" y="18.37"></use><use xlink:href="#16" y="20.206999999999997"></use><use xlink:href="#23" y="22.044"></use><use xlink:href="#18" y="23.881000000000004"></use><use xlink:href="#4" y="25.718"></use><use xlink:href="#4" y="27.555"></use><use xlink:href="#4" y="29.392"></use><use xlink:href="#4" y="31.229000000000003"></use><use xlink:href="#4" y="33.066"></use><use xlink:href="#4" y="34.903"></use><use xlink:href="#4" y="36.74"></use><use xlink:href="#3" y="38.577000000000005"></use><use xlink:href="#10" y="40.413999999999994"></use><use xlink:href="#13" y="42.251"></use></svg><svg x="2480"><use xlink:href="#a"></use><use xlink:href="#1" y="0"></use><use xlink:href="#14" y="1.837"></use><use xlink:href="#3" y="3.674"></use><use xlink:href="#4" y="5.511"></use><use xlink:href="#4" y="7.348"></use><use xlink:href="#4" y="9.185"></use><use xlink:href="#5" y="11.022"></use></svg><svg x="2560"><use xlink:href="#a"></use><use xlink:href="#1" y="0"></use><use xlink:href="#14" y="1.837"></use><use xlink:href="#3" y="3.674"></use><use xlink:href="#4" y="5.511"></use><use xlink:href="#4" y="7.348"></use><use xlink:href="#4" y="9.185"></use><use xlink:href="#5" y="11.022"></use></svg><svg x="2640"><use xlink:href="#a"></use><use xlink:href="#1" y="0"></use><use xlink:href="#14" y="1.837"></use><use xlink:href="#3" y="3.674"></use><use xlink:href="#4" y="5.511"></use><use xlink:href="#4" y="7.348"></use><use xlink:href="#4" y="9.185"></use><use xlink:href="#4" y="11.022"></use><use xlink:href="#4" y="12.859"></use><use xlink:href="#4" y="14.696"></use><use xlink:href="#4" y="16.533"></use><use xlink:href="#21" y="18.37"></use><use xlink:href="#16" y="20.206999999999997"></use><use xlink:href="#17" y="22.044"></use><use xlink:href="#24" y="23.881000000000004"></use><use xlink:href="#4" y="25.718"></use><use xlink:href="#4" y="27.555"></use></svg><svg x="2720"><use xlink:href="#a"></use><use xlink:href="#1" y="0"></use><use xlink:href="#14" y="1.837"></use><use xlink:href="#3" y="3.674"></use><use xlink:href="#4" y="5.511"></use><use xlink:href="#4" y="7.348"></use><use xlink:href="#4" y="9.185"></use><use xlink:href="#4" y="11.022"></use><use xlink:href="#4" y="12.859"></use><use xlink:href="#4" y="14.696"></use><use xlink:href="#4" y="16.533"></use><use xlink:href="#21" y="18.37"></use><use xlink:href="#16" y="20.206999999999997"></use><use xlink:href="#17" y="22.044"></use><use xlink:href="#24" y="23.881000000000004"></use><use xlink:href="#4" y="25.718"></use><use xlink:href="#4" y="27.555"></use><use xlink:href="#5" y="29.392"></use></svg><svg x="2800"><use xlink:href="#a"></use><use xlink:href="#1" y="0"></use><use xlink:href="#14" y="1.837"></use><use xlink:href="#3" y="3.674"></use><use xlink:href="#4" y="5.511"></use><use xlink:href="#4" y="7.348"></use><use xlink:href="#4" y="9.185"></use><use xlink:href="#4" y="11.022"></use><use xlink:href="#4" y="12.859"></use><use xlink:href="#4" y="14.696"></use><use xlink:href="#4" y="16.533"></use><use xlink:href="#21" y="18.37"></use><use xlink:href="#16" y="20.206999999999997"></use><use xlink:href="#17" y="22.044"></use><use xlink:href="#24" y="23.881000000000004"></use><use xlink:href="#4" y="25.718"></use><use xlink:href="#4" y="27.555"></use><use xlink:href="#4" y="29.392"></use><use xlink:href="#4" y="31.229000000000003"></use><use xlink:href="#4" y="33.066"></use><use xlink:href="#4" y="34.903"></use><use xlink:href="#4" y="36.74"></use><use xlink:href="#3" y="38.577000000000005"></use><use xlink:href="#10" y="40.413999999999994"></use><use xlink:href="#19" y="42.251"></use></svg><svg x="2880"><use xlink:href="#a"></use><use xlink:href="#1" y="0"></use><use xlink:href="#14" y="1.837"></use><use xlink:href="#3" y="3.674"></use><use xlink:href="#4" y="5.511"></use><use xlink:href="#4" y="7.348"></use><use xlink:href="#4" y="9.185"></use><use xlink:href="#4" y="11.022"></use><use xlink:href="#4" y="12.859"></use><use xlink:href="#4" y="14.696"></use><use xlink:href="#4" y="16.533"></use><use xlink:href="#21" y="18.37"></use><use xlink:href="#16" y="20.206999999999997"></use><use xlink:href="#17" y="22.044"></use><use xlink:href="#24" y="23.881000000000004"></use><use xlink:href="#4" y="25.718"></use><use xlink:href="#4" y="27.555"></use><use xlink:href="#4" y="29.392"></use><use xlink:href="#4" y="31.229000000000003"></use><use xlink:href="#4" y="33.066"></use><use xlink:href="#4" y="34.903"></use><use xlink:href="#4" y="36.74"></use><use xlink:href="#3" y="38.577000000000005"></use><use xlink:href="#10" y="40.413999999999994"></use><use xlink:href="#20" y="42.251"></use></svg><svg x="2960"><use xlink:href="#a"></use><use xlink:href="#1" y="0"></use><use xlink:href="#14" y="1.837"></use><use xlink:href="#3" y="3.674"></use><use xlink:href="#4" y="5.511"></use><use xlink:href="#4" y="7.348"></use><use xlink:href="#4" y="9.185"></use><use xlink:href="#4" y="11.022"></use><use xlink:href="#4" y="12.859"></use><use xlink:href="#4" y="14.696"></use><use xlink:href="#4" y="16.533"></use><use xlink:href="#21" y="18.37"></use><use xlink:href="#16" y="20.206999999999997"></use><use xlink:href="#17" y="22.044"></use><use xlink:href="#24" y="23.881000000000004"></use><use xlink:href="#4" y="25.718"></use><use xlink:href="#4" y="27.555"></use><use xlink:href="#4" y="29.392"></use><use xlink:href="#4" y="31.229000000000003"></use><use xlink:href="#4" y="33.066"></use><use xlink:href="#4" y="34.903"></use><use xlink:href="#4" y="36.74"></use><use xlink:href="#3" y="38.577000000000005"></use><use xlink:href="#10" y="40.413999999999994"></use><use xlink:href="#13" y="42.251"></use></svg><svg x="3040"><use xlink:href="#a"></use><use xlink:href="#1" y="0"></use><use xlink:href="#2" y="1.837"></use><use xlink:href="#3" y="3.674"></use><use xlink:href="#4" y="5.511"></use><use xlink:href="#4" y="7.348"></use><use xlink:href="#4" y="9.185"></use><use xlink:href="#5" y="11.022"></use></svg><svg x="3120"><use xlink:href="#a"></use><use xlink:href="#1" y="0"></use><use xlink:href="#2" y="1.837"></use><use xlink:href="#3" y="3.674"></use><use xlink:href="#4" y="5.511"></use><use xlink:href="#4" y="7.348"></use><use xlink:href="#4" y="9.185"></use><use xlink:href="#5" y="11.022"></use></svg><svg x="3200"><use xlink:href="#a"></use><use xlink:href="#1" y="0"></use><use xlink:href="#2" y="1.837"></use><use xlink:href="#3" y="3.674"></use><use xlink:href="#4" y="5.511"></use><use xlink:href="#4" y="7.348"></use><use xlink:href="#4" y="9.185"></use><use xlink:href="#4" y="11.022"></use><use xlink:href="#4" y="12.859"></use><use xlink:href="#4" y="14.696"></use><use xlink:href="#6" y="16.533"></use><use xlink:href="#7" y="18.37"></use><use xlink:href="#8" y="20.206999999999997"></use><use xlink:href="#4" y="22.044"></use><use xlink:href="#9" y="23.881000000000004"></use><use xlink:href="#4" y="25.718"></use><use xlink:href="#5" y="27.555"></use></svg><svg x="3280"><use xlink:href="#a"></use><use xlink:href="#1" y="0"></use><use xlink:href="#2" y="1.837"></use><use xlink:href="#3" y="3.674"></use><use xlink:href="#4" y="5.511"></use><use xlink:href="#4" y="7.348"></use><use xlink:href="#4" y="9.185"></use><use xlink:href="#4" y="11.022"></use><use xlink:href="#4" y="12.859"></use><use xlink:href="#4" y="14.696"></use><use xlink:href="#6" y="16.533"></use><use xlink:href="#7" y="18.37"></use><use xlink:href="#8" y="20.206999999999997"></use><use xlink:href="#4" y="22.044"></use><use xlink:href="#9" y="23.881000000000004"></use><use xlink:href="#4" y="25.718"></use><use xlink:href="#4" y="27.555"></use></svg><svg x="3360"><use xlink:href="#a"></use><use xlink:href="#1" y="0"></use><use xlink:href="#2" y="1.837"></use><use xlink:href="#3" y="3.674"></use><use xlink:href="#4" y="5.511"></use><use xlink:href="#4" y="7.348"></use><use xlink:href="#4" y="9.185"></use><use xlink:href="#4" y="11.022"></use><use xlink:href="#4" y="12.859"></use><use xlink:href="#4" y="14.696"></use><use xlink:href="#6" y="16.533"></use><use xlink:href="#7" y="18.37"></use><use xlink:href="#8" y="20.206999999999997"></use><use xlink:href="#4" y="22.044"></use><use xlink:href="#9" y="23.881000000000004"></use><use xlink:href="#4" y="25.718"></use><use xlink:href="#4" y="27.555"></use><use xlink:href="#4" y="29.392"></use><use xlink:href="#4" y="31.229000000000003"></use><use xlink:href="#4" y="33.066"></use><use xlink:href="#4" y="34.903"></use><use xlink:href="#4" y="36.74"></use><use xlink:href="#3" y="38.577000000000005"></use><use xlink:href="#10" y="40.413999999999994"></use><use xlink:href="#11" y="42.251"></use></svg><svg x="3440"><use xlink:href="#a"></use><use xlink:href="#1" y="0"></use><use xlink:href="#2" y="1.837"></use><use xlink:href="#3" y="3.674"></use><use xlink:href="#4" y="5.511"></use><use xlink:href="#4" y="7.348"></use><use xlink:href="#4" y="9.185"></use><use xlink:href="#4" y="11.022"></use><use xlink:href="#4" y="12.859"></use><use xlink:href="#4" y="14.696"></use><use xlink:href="#6" y="16.533"></use><use xlink:href="#7" y="18.37"></use><use xlink:href="#8" y="20.206999999999997"></use><use xlink:href="#4" y="22.044"></use><use xlink:href="#9" y="23.881000000000004"></use><use xlink:href="#4" y="25.718"></use><use xlink:href="#4" y="27.555"></use><use xlink:href="#4" y="29.392"></use><use xlink:href="#4" y="31.229000000000003"></use><use xlink:href="#4" y="33.066"></use><use xlink:href="#4" y="34.903"></use><use xlink:href="#4" y="36.74"></use><use xlink:href="#3" y="38.577000000000005"></use><use xlink:href="#10" y="40.413999999999994"></use><use xlink:href="#12" y="42.251"></use></svg><svg x="3520"><use xlink:href="#a"></use><use xlink:href="#1" y="0"></use><use xlink:href="#2" y="1.837"></use><use xlink:href="#3" y="3.674"></use><use xlink:href="#4" y="5.511"></use><use xlink:href="#4" y="7.348"></use><use xlink:href="#4" y="9.185"></use><use xlink:href="#4" y="11.022"></use><use xlink:href="#4" y="12.859"></use><use xlink:href="#4" y="14.696"></use><use xlink:href="#6" y="16.533"></use><use xlink:href="#7" y="18.37"></use><use xlink:href="#8" y="20.206999999999997"></use><use xlink:href="#4" y="22.044"></use><use xlink:href="#9" y="23.881000000000004"></use><use xlink:href="#4" y="25.718"></use><use xlink:href="#4" y="27.555"></use><use xlink:href="#4" y="29.392"></use><use xlink:href="#4" y="31.229000000000003"></use><use xlink:href="#4" y="33.066"></use><use xlink:href="#4" y="34.903"></use><use xlink:href="#4" y="36.74"></use><use xlink:href="#3" y="38.577000000000005"></use><use xlink:href="#10" y="40.413999999999994"></use><use xlink:href="#13" y="42.251"></use></svg><svg x="3600"><use xlink:href="#a"></use><use xlink:href="#1" y="0"></use><use xlink:href="#2" y="1.837"></use><use xlink:href="#3" y="3.674"></use><use xlink:href="#4" y="5.511"></use><use xlink:href="#4" y="7.348"></use><use xlink:href="#4" y="9.185"></use><use xlink:href="#5" y="11.022"></use></svg><svg x="3680"><use xlink:href="#a"></use><use xlink:href="#1" y="0"></use><use xlink:href="#2" y="1.837"></use><use xlink:href="#3" y="3.674"></use><use xlink:href="#4" y="5.511"></use><use xlink:href="#4" y="7.348"></use><use xlink:href="#4" y="9.185"></use><use xlink:href="#5" y="11.022"></use></svg><svg x="3760"><use xlink:href="#a"></use><use xlink:href="#1" y="0"></use><use xlink:href="#2" y="1.837"></use><use xlink:href="#3" y="3.674"></use><use xlink:href="#4" y="5.511"></use><use xlink:href="#4" y="7.348"></use><use xlink:href="#4" y="9.185"></use><use xlink:href="#4" y="11.022"></use><use xlink:href="#4" y="12.859"></use><use xlink:href="#4" y="14.696"></use><use xlink:href="#25" y="16.533"></use><use xlink:href="#26" y="18.37"></use><use xlink:href="#27" y="20.206999999999997"></use><use xlink:href="#4" y="22.044"></use><use xlink:href="#28" y="23.881000000000004"></use><use xlink:href="#4" y="25.718"></use><use xlink:href="#4" y="27.555"></use><use xlink:href="#5" y="29.392"></use></svg><svg x="3840"><use xlink:href="#a"></use><use xlink:href="#1" y="0"></use><use xlink:href="#2" y="1.837"></use><use xlink:href="#3" y="3.674"></use><use xlink:href="#4" y="5.511"></use><use xlink:href="#4" y="7.348"></use><use xlink:href="#4" y="9.185"></use><use xlink:href="#4" y="11.022"></use><use xlink:href="#4" y="12.859"></use><use xlink:href="#4" y="14.696"></use><use xlink:href="#25" y="16.533"></use><use xlink:href="#26" y="18.37"></use><use xlink:href="#27" y="20.206999999999997"></use><use xlink:href="#4" y="22.044"></use><use xlink:href="#28" y="23.881000000000004"></use><use xlink:href="#4" y="25.718"></use><use xlink:href="#4" y="27.555"></use><use xlink:href="#5" y="29.392"></use></svg><svg x="3920"><use xlink:href="#a"></use><use xlink:href="#1" y="0"></use><use xlink:href="#2" y="1.837"></use><use xlink:href="#3" y="3.674"></use><use xlink:href="#4" y="5.511"></use><use xlink:href="#4" y="7.348"></use><use xlink:href="#4" y="9.185"></use><use xlink:href="#4" y="11.022"></use><use xlink:href="#4" y="12.859"></use><use xlink:href="#4" y="14.696"></use><use xlink:href="#25" y="16.533"></use><use xlink:href="#26" y="18.37"></use><use xlink:href="#27" y="20.206999999999997"></use><use xlink:href="#4" y="22.044"></use><use xlink:href="#28" y="23.881000000000004"></use><use xlink:href="#4" y="25.718"></use><use xlink:href="#4" y="27.555"></use><use xlink:href="#4" y="29.392"></use><use xlink:href="#4" y="31.229000000000003"></use><use xlink:href="#4" y="33.066"></use><use xlink:href="#4" y="34.903"></use><use xlink:href="#4" y="36.74"></use><use xlink:href="#3" y="38.577000000000005"></use><use xlink:href="#10" y="40.413999999999994"></use><text x="0" y="43.921" class="c">╰──────────────────────────────────────────────</text></svg><svg x="4000"><use xlink:href="#a"></use><use xlink:href="#1" y="0"></use><use xlink:href="#2" y="1.837"></use><use xlink:href="#3" y="3.674"></use><use xlink:href="#4" y="5.511"></use><use xlink:href="#4" y="7.348"></use><use xlink:href="#4" y="9.185"></use><use xlink:href="#4" y="11.022"></use><use xlink:href="#4" y="12.859"></use><use xlink:href="#4" y="14.696"></use><use xlink:href="#25" y="16.533"></use><use xlink:href="#26" y="18.37"></use><use xlink:href="#27" y="20.206999999999997"></use><use xlink:href="#4" y="22.044"></use><use xlink:href="#28" y="23.881000000000004"></use><use xlink:href="#4" y="25.718"></use><use xlink:href="#4" y="27.555"></use><use xlink:href="#4" y="29.392"></use><use xlink:href="#4" y="31.229000000000003"></use><use xlink:href="#4" y="33.066"></use><use xlink:href="#4" y="34.903"></use><use xlink:href="#4" y="36.74"></use><use xlink:href="#3" y="38.577000000000005"></use><use xlink:href="#10" y="40.413999999999994"></use><text x="0" y="43.921" class="c">╰────────────────────────────────────────────────</text></svg><svg x="4080"><use xlink:href="#a"></use><use xlink:href="#1" y="0"></use><use xlink:href="#2" y="1.837"></use><use xlink:href="#3" y="3.674"></use><use xlink:href="#4" y="5.511"></use><use xlink:href="#4" y="7.348"></use><use xlink:href="#4" y="9.185"></use><use xlink:href="#4" y="11.022"></use><use xlink:href="#4" y="12.859"></use><use xlink:href="#4" y="14.696"></use><use xlink:href="#25" y="16.533"></use><use xlink:href="#26" y="18.37"></use><use xlink:href="#27" y="20.206999999999997"></use><use xlink:href="#4" y="22.044"></use><use xlink:href="#28" y="23.881000000000004"></use><use xlink:href="#4" y="25.718"></use><use xlink:href="#4" y="27.555"></use><use xlink:href="#4" y="29.392"></use><use xlink:href="#4" y="31.229000000000003"></use><use xlink:href="#4" y="33.066"></use><use xlink:href="#4" y="34.903"></use><use xlink:href="#4" y="36.74"></use><use xlink:href="#3" y="38.577000000000005"></use><use xlink:href="#10" y="40.413999999999994"></use><use xlink:href="#13" y="42.251"></use></svg><svg x="4160"><use xlink:href="#a"></use><use xlink:href="#b" x="-0.0040000000000000036" y="9.01"></use><use xlink:href="#29" y="0"></use><use xlink:href="#30" y="1.837"></use><use xlink:href="#31" y="3.674"></use><use xlink:href="#32" y="5.511"></use><use xlink:href="#33" y="7.348"></use></svg><svg x="4240"><use xlink:href="#a"></use><use xlink:href="#b" x="0.996" y="9.01"></use><use xlink:href="#29" y="0"></use><use xlink:href="#30" y="1.837"></use><use xlink:href="#31" y="3.674"></use><use xlink:href="#32" y="5.511"></use><use xlink:href="#33" y="7.348"></use></svg></svg></g></g></svg></svg>