<svg xmlns="http://www.w3.org/2000/svg" xmlns:xlink="http://www.w3.org/1999/xlink" width="800" height="440.88"><rect width="800" height="440.88" rx="0" ry="0" class="a"></rect><svg height="440.88" viewBox="0 0 80 44.088" width="800" xmlns="http://www.w3.org/2000/svg" xmlns:xlink="http://www.w3.org/1999/xlink"><style>.a{fill:rgb(250,250,250)}.b{font-family:Consolas,"Courier New",Courier,"Liberation Mono",monospace}.c{fill:rgb(0,128,128);white-space:pre}.d{fill:rgb(90,96,105);white-space:pre}.e{fill:rgb(0,128,128);font-weight:bold;white-space:pre}.f{fill:rgb(56,58,66);font-weight:bold;white-space:pre}.g{fill:rgb(90,96,105);font-weight:bold;white-space:pre}.h{fill:rgb(0,128,0);font-weight:bold;white-space:pre}.i{fill:rgb(56,58,66);white-space:pre}.j{fill:rgb(0,128,0);white-space:pre}.k{fill:transparent}.l{fill:rgb(82,139,255)}.n{animation-duration:8.189s;animation-iteration-count:infinite;animation-name:m;animation-timing-function:steps(1,end)}@keyframes m{0%{transform:translateX(-0px)}1.4%{transform:translateX(-80px)}6.5%{transform:translateX(-160px)}6.5%{transform:translateX(-240px)}6.5%{transform:translateX(-320px)}6.5%{transform:translateX(-400px)}6.5%{transform:translateX(-480px)}6.5%{transform:translateX(-560px)}6.5%{transform:translateX(-640px)}6.9%{transform:translateX(-720px)}42.2%{transform:translateX(-800px)}42.2%{transform:translateX(-880px)}42.6%{transform:translateX(-960px)}42.6%{transform:translateX(-1040px)}43%{transform:translateX(-1120px)}43%{transform:translateX(-1200px)}43.5%{transform:translateX(-1280px)}54.2%{transform:translateX(-1360px)}100%{transform:translateX(-1440px)}}</style><g font-family="Consolas, &quot;Courier New&quot;, Courier, &quot;Liberation Mono&quot;, monospace" font-size="1.67" class="b"><defs><symbol id="1"><text x="0" y="1.67" class="c">╭──────────────────────────────────────────────────────────────────────────────╮</text></symbol><symbol id="2"><text x="0" y="1.67" class="c">│</text><text x="2.004" y="1.67" class="d">Market</text><text x="9.017999999999999" y="1.67" class="d">stall</text><text x="79.158" y="1.67" class="c">│</text></symbol><symbol id="3"><text x="0" y="1.67" class="c">├──────────────────────────────────────────────────────────────────────────────┤</text></symbol><symbol id="4"><text x="0" y="1.67" class="c">│</text><text x="79.158" y="1.67" class="c">│</text></symbol><symbol id="5"><text x="0" y="1.67" class="c">│</text></symbol><symbol id="6"><text x="0" y="1.67" class="c">│</text><text x="12.024" y="1.67" class="e">❯</text><text x="14.027999999999999" y="1.67" class="f">Summary</text><text x="22.043999999999997" y="1.67" class="g">›</text><text x="79.158" y="1.67" class="c">│</text></symbol><symbol id="7"><text x="0" y="1.67" class="c">│</text><text x="16.032" y="1.67" class="g">The</text><text x="20.04" y="1.67" class="g">order</text><text x="26.052" y="1.67" class="g">at</text><text x="29.058" y="1.67" class="g">a</text><text x="31.061999999999998" y="1.67" class="g">glance.</text><text x="79.158" y="1.67" class="c">│</text></symbol><symbol id="8"><text x="0" y="1.67" class="c">│</text><text x="14.027999999999999" y="1.67" class="g">Order</text><text x="20.04" y="1.67" class="g">name</text><text x="26.052" y="1.67" class="h">Weekly</text><text x="33.065999999999995" y="1.67" class="h">Box</text><text x="79.158" y="1.67" class="c">│</text></symbol><symbol id="9"><text x="0" y="1.67" class="c">│</text><text x="14.027999999999999" y="1.67" class="i">Produce</text><text x="22.043999999999997" y="1.67" class="d">›</text><text x="53.105999999999995" y="1.67" class="i">Delivery</text><text x="62.123999999999995" y="1.67" class="d">›</text><text x="79.158" y="1.67" class="c">│</text></symbol><symbol id="10"><text x="0" y="1.67" class="c">│</text><text x="14.027999999999999" y="1.67" class="d">Fruit</text><text x="20.04" y="1.67" class="d">›</text><text x="53.105999999999995" y="1.67" class="d">Gift</text><text x="58.116" y="1.67" class="d">wrap?</text><text x="65.13" y="1.67" class="j">no</text><text x="79.158" y="1.67" class="c">│</text></symbol><symbol id="11"><text x="0" y="1.67" class="c">│</text><text x="14.027999999999999" y="1.67" class="d">Vegetables</text><text x="25.05" y="1.67" class="d">›</text><text x="79.158" y="1.67" class="c">│</text></symbol><symbol id="12"><text x="0" y="1.67" class="c">│</text><text x="14.027999999999999" y="1.67" class="j">[</text><text x="16.032" y="1.67" class="j">Place</text><text x="22.043999999999997" y="1.67" class="j">order</text><text x="28.055999999999997" y="1.67" class="j">]</text></symbol><symbol id="13"><text x="0" y="1.67" class="c">│</text><text x="14.027999999999999" y="1.67" class="j">[</text><text x="16.032" y="1.67" class="j">Place</text><text x="22.043999999999997" y="1.67" class="j">order</text><text x="28.055999999999997" y="1.67" class="j">]</text><text x="31.061999999999998" y="1.67" class="j">[</text><text x="33.065999999999995" y="1.67" class="j">Cancel</text><text x="40.08" y="1.67" class="j">]</text><text x="79.158" y="1.67" class="c">│</text></symbol><symbol id="14"><text x="0" y="1.67" class="c">│</text><text x="2.004" y="1.67" class="d">↑/↓/←/→</text><text x="10.02" y="1.67" class="d">move</text><text x="15.029999999999998" y="1.67" class="d">·</text><text x="17.034" y="1.67" class="d">↵</text><text x="19.037999999999997" y="1.67" class="d">select</text><text x="26.052" y="1.67" class="d">·</text><text x="28.055999999999997" y="1.67" class="d">esc</text><text x="32.064" y="1.67" class="d">back</text><text x="37.074" y="1.67" class="d">·</text><text x="39.077999999999996" y="1.67" class="d">q</text><text x="41.082" y="1.67" class="d">quit</text><text x="46.09199999999999" y="1.67" class="d">·</text><text x="48.096" y="1.67" class="d">?</text><text x="50.1" y="1.67" class="d">help</text><text x="79.158" y="1.67" class="c">│</text></symbol><symbol id="15"><text x="0" y="1.67" class="c">╰───────────────</text></symbol><symbol id="16"><text x="0" y="1.67" class="c">╰──────────────────────────────────────────────────────────────────────────────╯</text></symbol><symbol id="17"><text x="0" y="1.67" class="c">│</text><text x="14.027999999999999" y="1.67" class="i">Summary</text><text x="22.043999999999997" y="1.67" class="d">›</text><text x="79.158" y="1.67" class="c">│</text></symbol><symbol id="18"><text x="0" y="1.67" class="c">│</text><text x="16.032" y="1.67" class="d">The</text><text x="20.04" y="1.67" class="d">order</text><text x="26.052" y="1.67" class="d">at</text><text x="29.058" y="1.67" class="d">a</text><text x="31.061999999999998" y="1.67" class="d">glance.</text><text x="79.158" y="1.67" class="c">│</text></symbol><symbol id="19"><text x="0" y="1.67" class="c">│</text><text x="14.027999999999999" y="1.67" class="d">Order</text><text x="20.04" y="1.67" class="d">name</text><text x="26.052" y="1.67" class="j">Weekly</text><text x="33.065999999999995" y="1.67" class="j">Box</text><text x="79.158" y="1.67" class="c">│</text></symbol><symbol id="20"><text x="0" y="1.67" class="c">│</text><text x="12.024" y="1.67" class="e">❯</text><text x="14.027999999999999" y="1.67" class="f">Produce</text><text x="22.043999999999997" y="1.67" class="g">›</text><text x="53.105999999999995" y="1.67" class="i">Delivery</text><text x="62.123999999999995" y="1.67" class="d">›</text><text x="79.158" y="1.67" class="c">│</text></symbol><symbol id="21"><text x="0" y="1.67" class="c">│</text><text x="14.027999999999999" y="1.67" class="g">Fruit</text><text x="20.04" y="1.67" class="g">›</text><text x="53.105999999999995" y="1.67" class="d">Gift</text><text x="58.116" y="1.67" class="d">wrap?</text><text x="65.13" y="1.67" class="j">no</text><text x="79.158" y="1.67" class="c">│</text></symbol><symbol id="22"><text x="0" y="1.67" class="c">│</text><text x="14.027999999999999" y="1.67" class="g">Vegetables</text><text x="25.05" y="1.67" class="g">›</text><text x="79.158" y="1.67" class="c">│</text></symbol><symbol id="23"><text x="0" y="1.67" class="i">invalid</text><text x="8.016" y="1.67" class="i">command</text><text x="16.032" y="1.67" class="i">name</text><text x="21.041999999999998" y="1.67" class="i">&quot;arrow_right&quot;</text></symbol><symbol id="24"><text x="4.008" y="1.67" class="i">while</text><text x="10.02" y="1.67" class="i">executing</text></symbol><symbol id="25"><text x="0" y="1.67" class="i">&quot;arrow_right&quot;</text></symbol><symbol id="26"><text x="4.008" y="1.67" class="i">(file</text><text x="10.02" y="1.67" class="i">&quot;/home/user/www/drevops/tui2/.artifacts/tmp/asciinema/fullscreen-panel</text></symbol><symbol id="27"><text x="0" y="1.67" class="i">s.exp&quot;</text><text x="7.013999999999999" y="1.67" class="i">line</text><text x="12.024" y="1.67" class="i">75)</text></symbol><symbol id="a"><rect height="24" width="80" x="0" y="0" class="k"></rect></symbol><symbol id="b"><rect height="1.837" width="1.1022" class="l"></rect></symbol></defs><rect height="44.088" width="80" class="a"></rect><g class="n"><svg x="0" y="0" width="1520"><svg x="0"><use xlink:href="#a"></use><use xlink:href="#b" x="-0.0040000000000000036" y="0"></use></svg><svg x="80"><use xlink:href="#a"></use><use xlink:href="#b" x="-0.0040000000000000036" y="0"></use></svg><svg x="160"><use xlink:href="#a"></use></svg><svg x="240"><use xlink:href="#a"></use><use xlink:href="#1" y="0"></use><use xlink:href="#2" y="1.837"></use><use xlink:href="#3" y="3.674"></use><use xlink:href="#4" y="5.511"></use><use xlink:href="#4" y="7.348"></use><use xlink:href="#4" y="9.185"></use><use xlink:href="#5" y="11.022"></use></svg><svg x="320"><use xlink:href="#a"></use><use xlink:href="#1" y="0"></use><use xlink:href="#2" y="1.837"></use><use xlink:href="#3" y="3.674"></use><use xlink:href="#4" y="5.511"></use><use xlink:href="#4" y="7.348"></use><use xlink:href="#4" y="9.185"></use><use xlink:href="#5" y="11.022"></use></svg><svg x="400"><use xlink:href="#a"></use><use xlink:href="#1" y="0"></use><use xlink:href="#2" y="1.837"></use><use xlink:href="#3" y="3.674"></use><use xlink:href="#4" y="5.511"></use><use xlink:href="#4" y="7.348"></use><use xlink:href="#4" y="9.185"></use><use xlink:href="#4" y="11.022"></use><use xlink:href="#6" y="12.859"></use><use xlink:href="#7" y="14.696"></use><use xlink:href="#8" y="16.533"></use><use xlink:href="#4" y="18.37"></use><use xlink:href="#9" y="20.206999999999997"></use><use xlink:href="#10" y="22.044"></use><use xlink:href="#11" y="23.881000000000004"></use><use xlink:href="#4" y="25.718"></use><text x="0" y="29.225" class="c">│</text><text x="14.027999999999999" y="29.225" class="j">[</text><text x="16.032" y="29.225" class="j">Place</text><text x="22.043999999999997" y="29.225" class="j">or</text></svg><svg x="480"><use xlink:href="#a"></use><use xlink:href="#1" y="0"></use><use xlink:href="#2" y="1.837"></use><use xlink:href="#3" y="3.674"></use><use xlink:href="#4" y="5.511"></use><use xlink:href="#4" y="7.348"></use><use xlink:href="#4" y="9.185"></use><use xlink:href="#4" y="11.022"></use><use xlink:href="#6" y="12.859"></use><use xlink:href="#7" y="14.696"></use><use xlink:href="#8" y="16.533"></use><use xlink:href="#4" y="18.37"></use><use xlink:href="#9" y="20.206999999999997"></use><use xlink:href="#10" y="22.044"></use><use xlink:href="#11" y="23.881000000000004"></use><use xlink:href="#4" y="25.718"></use><use xlink:href="#12" y="27.555"></use></svg><svg x="560"><use xlink:href="#a"></use><use xlink:href="#1" y="0"></use><use xlink:href="#2" y="1.837"></use><use xlink:href="#3" y="3.674"></use><use xlink:href="#4" y="5.511"></use><use xlink:href="#4" y="7.348"></use><use xlink:href="#4" y="9.185"></use><use xlink:href="#4" y="11.022"></use><use xlink:href="#6" y="12.859"></use><use xlink:href="#7" y="14.696"></use><use xlink:href="#8" y="16.533"></use><use xlink:href="#4" y="18.37"></use><use xlink:href="#9" y="20.206999999999997"></use><use xlink:href="#10" y="22.044"></use><use xlink:href="#11" y="23.881000000000004"></use><use xlink:href="#4" y="25.718"></use><use xlink:href="#13" y="27.555"></use><use xlink:href="#4" y="29.392"></use><use xlink:href="#4" y="31.229000000000003"></use><use xlink:href="#4" y="33.066"></use><use xlink:href="#4" y="34.903"></use><use xlink:href="#4" y="36.74"></use><use xlink:href="#3" y="38.577000000000005"></use><use xlink:href="#14" y="40.413999999999994"></use><text x="0" y="43.921" class="c">╰────────────</text></svg><svg x="640"><use xlink:href="#a"></use><use xlink:href="#1" y="0"></use><use xlink:href="#2" y="1.837"></use><use xlink:href="#3" y="3.674"></use><use xlink:href="#4" y="5.511"></use><use xlink:href="#4" y="7.348"></use><use xlink:href="#4" y="9.185"></use><use xlink:href="#4" y="11.022"></use><use xlink:href="#6" y="12.859"></use><use xlink:href="#7" y="14.696"></use><use xlink:href="#8" y="16.533"></use><use xlink:href="#4" y="18.37"></use><use xlink:href="#9" y="20.206999999999997"></use><use xlink:href="#10" y="22.044"></use><use xlink:href="#11" y="23.881000000000004"></use><use xlink:href="#4" y="25.718"></use><use xlink:href="#13" y="27.555"></use><use xlink:href="#4" y="29.392"></use><use xlink:href="#4" y="31.229000000000003"></use><use xlink:href="#4" y="33.066"></use><use xlink:href="#4" y="34.903"></use><use xlink:href="#4" y="36.74"></use><use xlink:href="#3" y="38.577000000000005"></use><use xlink:href="#14" y="40.413999999999994"></use><use xlink:href="#15" y="42.251"></use></svg><svg x="720"><use xlink:href="#a"></use><use xlink:href="#1" y="0"></use><use xlink:href="#2" y="1.837"></use><use xlink:href="#3" y="3.674"></use><use xlink:href="#4" y="5.511"></use><use xlink:href="#4" y="7.348"></use><use xlink:href="#4" y="9.185"></use><use xlink:href="#4" y="11.022"></use><use xlink:href="#6" y="12.859"></use><use xlink:href="#7" y="14.696"></use><use xlink:href="#8" y="16.533"></use><use xlink:href="#4" y="18.37"></use><use xlink:href="#9" y="20.206999999999997"></use><use xlink:href="#10" y="22.044"></use><use xlink:href="#11" y="23.881000000000004"></use><use xlink:href="#4" y="25.718"></use><use xlink:href="#13" y="27.555"></use><use xlink:href="#4" y="29.392"></use><use xlink:href="#4" y="31.229000000000003"></use><use xlink:href="#4" y="33.066"></use><use xlink:href="#4" y="34.903"></use><use xlink:href="#4" y="36.74"></use><use xlink:href="#3" y="38.577000000000005"></use><use xlink:href="#14" y="40.413999999999994"></use><use xlink:href="#16" y="42.251"></use></svg><svg x="800"><use xlink:href="#a"></use><use xlink:href="#1" y="0"></use><use xlink:href="#2" y="1.837"></use><use xlink:href="#3" y="3.674"></use><use xlink:href="#4" y="5.511"></use><use xlink:href="#4" y="7.348"></use><use xlink:href="#4" y="9.185"></use><use xlink:href="#5" y="11.022"></use></svg><svg x="880"><use xlink:href="#a"></use><use xlink:href="#1" y="0"></use><use xlink:href="#2" y="1.837"></use><use xlink:href="#3" y="3.674"></use><use xlink:href="#4" y="5.511"></use><use xlink:href="#4" y="7.348"></use><use xlink:href="#4" y="9.185"></use><use xlink:href="#5" y="11.022"></use></svg><svg x="960"><use xlink:href="#a"></use><use xlink:href="#1" y="0"></use><use xlink:href="#2" y="1.837"></use><use xlink:href="#3" y="3.674"></use><use xlink:href="#4" y="5.511"></use><use xlink:href="#4" y="7.348"></use><use xlink:href="#4" y="9.185"></use><use xlink:href="#4" y="11.022"></use><use xlink:href="#17" y="12.859"></use><use xlink:href="#18" y="14.696"></use><use xlink:href="#19" y="16.533"></use><use xlink:href="#4" y="18.37"></use><use xlink:href="#20" y="20.206999999999997"></use><use xlink:href="#21" y="22.044"></use><use xlink:href="#22" y="23.881000000000004"></use><use xlink:href="#4" y="25.718"></use><text x="0" y="29.225" class="c">│</text><text x="14.027999999999999" y="29.225" class="j">[</text><text x="16.032" y="29.225" class="j">Place</text><text x="22.043999999999997" y="29.225" class="j">orde</text></svg><svg x="1040"><use xlink:href="#a"></use><use xlink:href="#1" y="0"></use><use xlink:href="#2" y="1.837"></use><use xlink:href="#3" y="3.674"></use><use xlink:href="#4" y="5.511"></use><use xlink:href="#4" y="7.348"></use><use xlink:href="#4" y="9.185"></use><use xlink:href="#4" y="11.022"></use><use xlink:href="#17" y="12.859"></use><use xlink:href="#18" y="14.696"></use><use xlink:href="#19" y="16.533"></use><use xlink:href="#4" y="18.37"></use><use xlink:href="#20" y="20.206999999999997"></use><use xlink:href="#21" y="22.044"></use><use xlink:href="#22" y="23.881000000000004"></use><use xlink:href="#4" y="25.718"></use><use xlink:href="#12" y="27.555"></use></svg><svg x="1120"><use xlink:href="#a"></use><use xlink:href="#1" y="0"></use><use xlink:href="#2" y="1.837"></use><use xlink:href="#3" y="3.674"></use><use xlink:href="#4" y="5.511"></use><use xlink:href="#4" y="7.348"></use><use xlink:href="#4" y="9.185"></use><use xlink:href="#4" y="11.022"></use><use xlink:href="#17" y="12.859"></use><use xlink:href="#18" y="14.696"></use><use xlink:href="#19" y="16.533"></use><use xlink:href="#4" y="18.37"></use><use xlink:href="#20" y="20.206999999999997"></use><use xlink:href="#21" y="22.044"></use><use xlink:href="#22" y="23.881000000000004"></use><use xlink:href="#4" y="25.718"></use><use xlink:href="#13" y="27.555"></use><use xlink:href="#4" y="29.392"></use><use xlink:href="#4" y="31.229000000000003"></use><use xlink:href="#4" y="33.066"></use><use xlink:href="#4" y="34.903"></use><use xlink:href="#4" y="36.74"></use><use xlink:href="#3" y="38.577000000000005"></use><use xlink:href="#14" y="40.413999999999994"></use><text x="0" y="43.921" class="c">╰─────────────</text></svg><svg x="1200"><use xlink:href="#a"></use><use xlink:href="#1" y="0"></use><use xlink:href="#2" y="1.837"></use><use xlink:href="#3" y="3.674"></use><use xlink:href="#4" y="5.511"></use><use xlink:href="#4" y="7.348"></use><use xlink:href="#4" y="9.185"></use><use xlink:href="#4" y="11.022"></use><use xlink:href="#17" y="12.859"></use><use xlink:href="#18" y="14.696"></use><use xlink:href="#19" y="16.533"></use><use xlink:href="#4" y="18.37"></use><use xlink:href="#20" y="20.206999999999997"></use><use xlink:href="#21" y="22.044"></use><use xlink:href="#22" y="23.881000000000004"></use><use xlink:href="#4" y="25.718"></use><use xlink:href="#13" y="27.555"></use><use xlink:href="#4" y="29.392"></use><use xlink:href="#4" y="31.229000000000003"></use><use xlink:href="#4" y="33.066"></use><use xlink:href="#4" y="34.903"></use><use xlink:href="#4" y="36.74"></use><use xlink:href="#3" y="38.577000000000005"></use><use xlink:href="#14" y="40.413999999999994"></use><use xlink:href="#15" y="42.251"></use></svg><svg x="1280"><use xlink:href="#a"></use><use xlink:href="#1" y="0"></use><use xlink:href="#2" y="1.837"></use><use xlink:href="#3" y="3.674"></use><use xlink:href="#4" y="5.511"></use><use xlink:href="#4" y="7.348"></use><use xlink:href="#4" y="9.185"></use><use xlink:href="#4" y="11.022"></use><use xlink:href="#17" y="12.859"></use><use xlink:href="#18" y="14.696"></use><use xlink:href="#19" y="16.533"></use><use xlink:href="#4" y="18.37"></use><use xlink:href="#20" y="20.206999999999997"></use><use xlink:href="#21" y="22.044"></use><use xlink:href="#22" y="23.881000000000004"></use><use xlink:href="#4" y="25.718"></use><use xlink:href="#13" y="27.555"></use><use xlink:href="#4" y="29.392"></use><use xlink:href="#4" y="31.229000000000003"></use><use xlink:href="#4" y="33.066"></use><use xlink:href="#4" y="34.903"></use><use xlink:href="#4" y="36.74"></use><use xlink:href="#3" y="38.577000000000005"></use><use xlink:href="#14" y="40.413999999999994"></use><use xlink:href="#16" y="42.251"></use></svg><svg x="1360"><use xlink:href="#a"></use><use xlink:href="#4" y="0"></use><use xlink:href="#17" y="1.837"></use><use xlink:href="#18" y="3.674"></use><use xlink:href="#19" y="5.511"></use><use xlink:href="#4" y="7.348"></use><use xlink:href="#20" y="9.185"></use><use xlink:href="#21" y="11.022"></use><use xlink:href="#22" y="12.859"></use><use xlink:href="#4" y="14.696"></use><use xlink:href="#13" y="16.533"></use><use xlink:href="#4" y="18.37"></use><use xlink:href="#4" y="20.206999999999997"></use><use xlink:href="#4" y="22.044"></use><use xlink:href="#4" y="23.881000000000004"></use><use xlink:href="#4" y="25.718"></use><use xlink:href="#3" y="27.555"></use><use xlink:href="#14" y="29.392"></use><use xlink:href="#16" y="31.229000000000003"></use><use xlink:href="#23" y="33.066"></use><use xlink:href="#24" y="34.903"></use><use xlink:href="#25" y="36.74"></use><use xlink:href="#26" y="38.577000000000005"></use><use xlink:href="#27" y="40.413999999999994"></use></svg><svg x="1440"><use xlink:href="#a"></use><use xlink:href="#4" y="0"></use><use xlink:href="#17" y="1.837"></use><use xlink:href="#18" y="3.674"></use><use xlink:href="#19" y="5.511"></use><use xlink:href="#4" y="7.348"></use><use xlink:href="#20" y="9.185"></use><use xlink:href="#21" y="11.022"></use><use xlink:href="#22" y="12.859"></use><use xlink:href="#4" y="14.696"></use><use xlink:href="#13" y="16.533"></use><use xlink:href="#4" y="18.37"></use><use xlink:href="#4" y="20.206999999999997"></use><use xlink:href="#4" y="22.044"></use><use xlink:href="#4" y="23.881000000000004"></use><use xlink:href="#4" y="25.718"></use><use xlink:href="#3" y="27.555"></use><use xlink:href="#14" y="29.392"></use><use xlink:href="#16" y="31.229000000000003"></use><use xlink:href="#23" y="33.066"></use><use xlink:href="#24" y="34.903"></use><use xlink:href="#25" y="36.74"></use><use xlink:href="#26" y="38.577000000000005"></use><use xlink:href="#27" y="40.413999999999994"></use></svg></svg></g></g></svg></svg>