<svg xmlns="http://www.w3.org/2000/svg" xmlns:xlink="http://www.w3.org/1999/xlink" width="640" height="293.92"><rect width="640" height="293.92" rx="0" ry="0" class="a"></rect><svg height="293.92" viewBox="0 0 64 29.392" width="640" xmlns="http://www.w3.org/2000/svg" xmlns:xlink="http://www.w3.org/1999/xlink"><style>.a{fill:rgb(250,250,250)}.b{font-family:Consolas,"Courier New",Courier,"Liberation Mono",monospace}.c{fill:rgb(90,96,105);white-space:pre}.d{fill:rgb(0,128,128);font-weight:bold;white-space:pre}.e{fill:rgb(56,58,66);font-weight:bold;white-space:pre}.f{fill:rgb(90,96,105);font-weight:bold;white-space:pre}.g{fill:rgb(0,128,0);white-space:pre}.h{fill:rgb(56,58,66);white-space:pre}.i{fill:rgb(40,44,52)}.j{fill:rgb(250,250,250);white-space:pre}.k{fill:transparent}.l{fill:rgb(82,139,255)}.n{animation-duration:28.751s;animation-iteration-count:infinite;animation-name:m;animation-timing-function:steps(1,end)}.o{fill:rgb(0,128,0);font-weight:bold;white-space:pre}.p{fill:rgb(250,250,250);font-weight:bold;white-space:pre}@keyframes m{0%{transform:translateX(-0px)}0.61%{transform:translateX(-64px)}2.07%{transform:translateX(-128px)}2.08%{transform:translateX(-192px)}11.01%{transform:translateX(-256px)}17.63%{transform:translateX(-320px)}22.7%{transform:translateX(-384px)}27.16%{transform:translateX(-448px)}28.56%{transform:translateX(-512px)}32.06%{transform:translateX(-576px)}37.28%{transform:translateX(-640px)}38.05%{transform:translateX(-704px)}38.69%{transform:translateX(-768px)}39.33%{transform:translateX(-832px)}43.78%{transform:translateX(-896px)}45.16%{transform:translateX(-960px)}48.76%{transform:translateX(-1024px)}54.61%{transform:translateX(-1088px)}59.03%{transform:translateX(-1152px)}60.4%{transform:translateX(-1216px)}63.93%{transform:translateX(-1280px)}71.83%{transform:translateX(-1344px)}76.21%{transform:translateX(-1408px)}78.5%{transform:translateX(-1472px)}84.23%{transform:translateX(-1536px)}86.96%{transform:translateX(-1600px)}100%{transform:translateX(-1664px)}}</style><g font-family="Consolas, &quot;Courier New&quot;, Courier, &quot;Liberation Mono&quot;, monospace" font-size="1.67" class="b"><defs><symbol id="1"><text x="0" y="1.67" class="c">Produce</text><text x="8.016" y="1.67" class="c">order</text></symbol><symbol id="2"><text x="0" y="1.67" class="d">❯</text><text x="2.004" y="1.67" class="e">Order</text><text x="8.016" y="1.67" class="e">options</text><text x="16.032" y="1.67" class="f">›</text></symbol><symbol id="3"><text x="4.008" y="1.67" class="f">Press</text><text x="10.02" y="1.67" class="f">Enter</text><text x="16.032" y="1.67" class="f">on</text><text x="19.037999999999997" y="1.67" class="f">a</text><text x="21.041999999999998" y="1.67" class="f">field</text><text x="27.054" y="1.67" class="f">to</text><text x="30.059999999999995" y="1.67" class="f">edit</text><text x="35.06999999999999" y="1.67" class="f">it</text><text x="38.07599999999999" y="1.67" class="f">in</text><text x="41.082" y="1.67" class="f">place;</text><text x="48.096" y="1.67" class="f">Enter</text><text x="54.108" y="1.67" class="f">accepts,</text><text x="63.12599999999999" y="1.67" class="f">E</text></symbol><symbol id="4"><text x="0" y="1.67" class="f">sc</text><text x="3.006" y="1.67" class="f">cancels.</text></symbol><symbol id="5"><text x="2.004" y="1.67" class="g">[</text><text x="4.008" y="1.67" class="g">Submit</text><text x="11.021999999999998" y="1.67" class="g">]</text><text x="14.027999999999999" y="1.67" class="g">[</text><text x="16.032" y="1.67" class="g">Cancel</text><text x="23.045999999999996" y="1.67" class="g">]</text></symbol><symbol id="6"><text x="0" y="1.67" class="c">↑/↓</text><text x="4.008" y="1.67" class="c">move</text><text x="9.017999999999999" y="1.67" class="c">·</text><text x="11.021999999999998" y="1.67" class="c">↵</text><text x="13.026" y="1.67" class="c">select</text><text x="20.04" y="1.67" class="c">·</text><text x="22.043999999999997" y="1.67" class="c">esc</text><text x="26.052" y="1.67" class="c">back</text><text x="31.061999999999998" y="1.67" class="c">·</text><text x="33.065999999999995" y="1.67" class="c">q</text><text x="35.06999999999999" y="1.67" class="c">quit</text><text x="40.08" y="1.67" class="c">·</text><text x="42.083999999999996" y="1.67" class="c">?</text><text x="44.087999999999994" y="1.67" class="c">help</text></symbol><symbol id="7"><text x="0" y="1.67" class="c">Produce</text><text x="8.016" y="1.67" class="c">order</text><text x="14.027999999999999" y="1.67" class="c">›</text><text x="16.032" y="1.67" class="c">Order</text><text x="22.043999999999997" y="1.67" class="c">options</text></symbol><symbol id="8"><text x="2.004" y="1.67" class="h">Quantity</text><text x="12.024" y="1.67" class="g">6</text></symbol><symbol id="9"><text x="2.004" y="1.67" class="h">Ripeness</text><text x="12.024" y="1.67" class="g">ripe</text></symbol><symbol id="10"><text x="2.004" y="1.67" class="h">Harvest</text><text x="10.02" y="1.67" class="h">date</text><text x="16.032" y="1.67" class="g">2026-07-15</text></symbol><symbol id="11"><text x="0" y="1.67" class="c">y/n</text><text x="4.008" y="1.67" class="c">yes/no</text><text x="11.021999999999998" y="1.67" class="c">·</text><text x="13.026" y="1.67" class="c">↑</text><text x="15.029999999999998" y="1.67" class="c">toggle</text><text x="22.043999999999997" y="1.67" class="c">·</text><text x="24.048" y="1.67" class="c">↵</text><text x="26.052" y="1.67" class="c">accept</text><text x="33.065999999999995" y="1.67" class="c">·</text><text x="35.06999999999999" y="1.67" class="c">esc</text><text x="39.077999999999996" y="1.67" class="c">cancel</text></symbol><symbol id="12"><text x="2.004" y="1.67" class="h">Organic</text><text x="10.02" y="1.67" class="h">only?</text><text x="17.034" y="1.67" class="g">yes</text><rect height="1.837" width="8" x="56.111999999999995" y="0" class="i"></rect><text x="56.111999999999995" y="1.67" class="j"> edited </text></symbol><symbol id="13"><text x="0" y="1.67" class="c">↑/↓</text><text x="4.008" y="1.67" class="c">adjust</text><text x="11.021999999999998" y="1.67" class="c">·</text><text x="13.026" y="1.67" class="c">↵</text><text x="15.029999999999998" y="1.67" class="c">accept</text><text x="22.043999999999997" y="1.67" class="c">·</text><text x="24.048" y="1.67" class="c">esc</text><text x="28.055999999999997" y="1.67" class="c">cancel</text></symbol><symbol id="14"><text x="0" y="1.67" class="d">❯</text><text x="2.004" y="1.67" class="e">Quantity</text><text x="12.024" y="1.67" class="d">█</text></symbol><symbol id="15"><text x="2.004" y="1.67" class="h">Quantity</text><text x="12.024" y="1.67" class="g">12</text><rect height="1.837" width="8" x="56.111999999999995" y="0" class="i"></rect><text x="56.111999999999995" y="1.67" class="j"> edited </text></symbol><symbol id="16"><text x="12.024" y="1.67" class="h">○</text><text x="14.027999999999999" y="1.67" class="h">Mixed</text></symbol><symbol id="17"><text x="0" y="1.67" class="c">↑/↓</text><text x="4.008" y="1.67" class="c">move</text><text x="9.017999999999999" y="1.67" class="c">·</text><text x="11.021999999999998" y="1.67" class="c">↵</text><text x="13.026" y="1.67" class="c">accept</text><text x="20.04" y="1.67" class="c">·</text><text x="22.043999999999997" y="1.67" class="c">esc</text><text x="26.052" y="1.67" class="c">cancel</text></symbol><symbol id="18"><text x="2.004" y="1.67" class="h">Ripeness</text><text x="12.024" y="1.67" class="g">unripe</text><rect height="1.837" width="8" x="56.111999999999995" y="0" class="i"></rect><text x="56.111999999999995" y="1.67" class="j"> edited </text></symbol><symbol id="19"><text x="0" y="1.67" class="d">Harvest</text><text x="8.016" y="1.67" class="d">date</text></symbol><symbol id="20"><text x="0" y="1.67" class="c">────────────</text></symbol><symbol id="21"><text x="9.017999999999999" y="1.67" class="d">July</text><text x="14.027999999999999" y="1.67" class="d">2026</text></symbol><symbol id="22"><text x="1.002" y="1.67" class="c">Mo</text><text x="5.01" y="1.67" class="c">Tu</text><text x="9.017999999999999" y="1.67" class="c">We</text><text x="13.026" y="1.67" class="c">Th</text><text x="17.034" y="1.67" class="c">Fr</text><text x="21.041999999999998" y="1.67" class="c">Sa</text><text x="25.05" y="1.67" class="c">Su</text></symbol><symbol id="23"><text x="10.02" y="1.67" class="h">1</text><text x="14.027999999999999" y="1.67" class="h">2</text><text x="18.035999999999998" y="1.67" class="h">3</text><text x="22.043999999999997" y="1.67" class="h">4</text><text x="26.052" y="1.67" class="h">5</text></symbol><symbol id="24"><text x="2.004" y="1.67" class="h">6</text><text x="6.012" y="1.67" class="h">7</text><text x="10.02" y="1.67" class="h">8</text><text x="14.027999999999999" y="1.67" class="h">9</text><text x="17.034" y="1.67" class="h">10</text><text x="21.041999999999998" y="1.67" class="h">11</text><text x="25.05" y="1.67" class="h">12</text></symbol><symbol id="25"><text x="1.002" y="1.67" class="h">27</text><text x="5.01" y="1.67" class="h">28</text><text x="9.017999999999999" y="1.67" class="h">29</text><text x="13.026" y="1.67" class="h">30</text><text x="17.034" y="1.67" class="h">31</text></symbol><symbol id="26"><text x="0" y="1.67" class="c">←/→</text><text x="4.008" y="1.67" class="c">day</text><text x="8.016" y="1.67" class="c">·</text><text x="10.02" y="1.67" class="c">↑/↓</text><text x="14.027999999999999" y="1.67" class="c">week</text><text x="19.037999999999997" y="1.67" class="c">·</text><text x="21.041999999999998" y="1.67" class="c">↵</text><text x="23.045999999999996" y="1.67" class="c">accept</text><text x="30.059999999999995" y="1.67" class="c">·</text><text x="32.064" y="1.67" class="c">esc</text><text x="36.071999999999996" y="1.67" class="c">cancel</text></symbol><symbol id="27"><text x="0" y="1.67" class="h">Order</text><text x="6.012" y="1.67" class="h">options</text></symbol><symbol id="28"><text x="2.004" y="1.67" class="h">Organic</text><text x="10.02" y="1.67" class="h">only?:</text><text x="17.034" y="1.67" class="h">yes</text><text x="21.041999999999998" y="1.67" class="h">(edited)</text></symbol><symbol id="29"><text x="2.004" y="1.67" class="h">Quantity:</text><text x="12.024" y="1.67" class="h">12</text><text x="15.029999999999998" y="1.67" class="h">(edited)</text></symbol><symbol id="30"><text x="2.004" y="1.67" class="h">Ripeness:</text><text x="12.024" y="1.67" class="h">unripe</text><text x="19.037999999999997" y="1.67" class="h">(edited)</text></symbol><symbol id="31"><text x="2.004" y="1.67" class="h">Harvest</text><text x="10.02" y="1.67" class="h">date:</text><text x="16.032" y="1.67" class="h">2026-07-22</text><text x="27.054" y="1.67" class="h">(edited)</text></symbol><symbol id="a"><rect height="16" width="64" x="0" y="0" class="k"></rect></symbol><symbol id="b"><rect height="1.837" width="1.1022" class="l"></rect></symbol></defs><rect height="29.392" width="64" class="a"></rect><g class="n"><svg x="0" y="0" width="1728"><svg x="0"><use xlink:href="#a"></use><use xlink:href="#b" x="-0.0040000000000000036" y="0"></use></svg><svg x="64"><use xlink:href="#a"></use><use xlink:href="#b" x="-0.0040000000000000036" y="0"></use></svg><svg x="128"><use xlink:href="#a"></use></svg><svg x="192"><use xlink:href="#a"></use><use xlink:href="#1" y="0"></use><use xlink:href="#2" y="1.837"></use><use xlink:href="#3" y="3.674"></use><use xlink:href="#4" y="5.511"></use><text x="4.008" y="9.018" class="o">no</text><text x="7.013999999999999" y="9.018" class="o">·</text><text x="9.017999999999999" y="9.018" class="o">6</text><text x="11.021999999999998" y="9.018" class="o">·</text><text x="13.026" y="9.018" class="o">ripe</text><text x="18.035999999999998" y="9.018" class="o">·</text><text x="20.04" y="9.018" class="o">2026-07-15</text><use xlink:href="#5" y="11.022"></use><use xlink:href="#6" y="14.696"></use></svg><svg x="256"><use xlink:href="#a"></use><use xlink:href="#7" y="0"></use><text x="0" y="3.5069999999999997" class="d">❯</text><text x="2.004" y="3.5069999999999997" class="e">Organic</text><text x="10.02" y="3.5069999999999997" class="e">only?</text><text x="17.034" y="3.5069999999999997" class="o">no</text><use xlink:href="#8" y="3.674"></use><use xlink:href="#9" y="5.511"></use><use xlink:href="#10" y="7.348"></use><use xlink:href="#6" y="11.022"></use></svg><svg x="320"><use xlink:href="#a"></use><use xlink:href="#7" y="0"></use><text x="0" y="3.5069999999999997" class="d">❯</text><text x="2.004" y="3.5069999999999997" class="e">Organic</text><text x="10.02" y="3.5069999999999997" class="e">only?</text><text x="17.034" y="3.5069999999999997" class="h">○</text><text x="19.037999999999997" y="3.5069999999999997" class="h">Yes</text><text x="24.048" y="3.5069999999999997" class="d">●</text><text x="26.052" y="3.5069999999999997" class="d">No</text><use xlink:href="#8" y="3.674"></use><use xlink:href="#9" y="5.511"></use><use xlink:href="#10" y="7.348"></use><use xlink:href="#11" y="11.022"></use></svg><svg x="384"><use xlink:href="#a"></use><use xlink:href="#7" y="0"></use><text x="0" y="3.5069999999999997" class="d">❯</text><text x="2.004" y="3.5069999999999997" class="e">Organic</text><text x="10.02" y="3.5069999999999997" class="e">only?</text><text x="17.034" y="3.5069999999999997" class="d">●</text><text x="19.037999999999997" y="3.5069999999999997" class="d">Yes</text><text x="24.048" y="3.5069999999999997" class="h">○</text><text x="26.052" y="3.5069999999999997" class="h">No</text><use xlink:href="#8" y="3.674"></use><use xlink:href="#9" y="5.511"></use><use xlink:href="#10" y="7.348"></use><use xlink:href="#11" y="11.022"></use></svg><svg x="448"><use xlink:href="#a"></use><use xlink:href="#7" y="0"></use><text x="0" y="3.5069999999999997" class="d">❯</text><text x="2.004" y="3.5069999999999997" class="e">Organic</text><text x="10.02" y="3.5069999999999997" class="e">only?</text><text x="17.034" y="3.5069999999999997" class="o">yes</text><rect height="1.837" width="8" x="56.111999999999995" y="1.8369999999999997" class="i"></rect><text x="56.111999999999995" y="3.5069999999999997" class="p"> edited </text><use xlink:href="#8" y="3.674"></use><use xlink:href="#9" y="5.511"></use><use xlink:href="#10" y="7.348"></use><use xlink:href="#6" y="11.022"></use></svg><svg x="512"><use xlink:href="#a"></use><use xlink:href="#7" y="0"></use><use xlink:href="#12" y="1.837"></use><text x="0" y="5.343999999999999" class="d">❯</text><text x="2.004" y="5.343999999999999" class="e">Quantity</text><text x="12.024" y="5.343999999999999" class="o">6</text><use xlink:href="#9" y="5.511"></use><use xlink:href="#10" y="7.348"></use><use xlink:href="#6" y="11.022"></use></svg><svg x="576"><use xlink:href="#a"></use><use xlink:href="#7" y="0"></use><use xlink:href="#12" y="1.837"></use><text x="0" y="5.343999999999999" class="d">❯</text><text x="2.004" y="5.343999999999999" class="e">Quantity</text><text x="12.024" y="5.343999999999999" class="h">6</text><text x="13.026" y="5.343999999999999" class="d">█</text><use xlink:href="#9" y="5.511"></use><use xlink:href="#10" y="7.348"></use><use xlink:href="#13" y="11.022"></use></svg><svg x="640"><use xlink:href="#a"></use><use xlink:href="#7" y="0"></use><use xlink:href="#12" y="1.837"></use><use xlink:href="#14" y="3.674"></use><use xlink:href="#9" y="5.511"></use><use xlink:href="#10" y="7.348"></use><use xlink:href="#13" y="11.022"></use></svg><svg x="704"><use xlink:href="#a"></use><use xlink:href="#7" y="0"></use><use xlink:href="#12" y="1.837"></use><use xlink:href="#14" y="3.674"></use><use xlink:href="#9" y="5.511"></use><use xlink:href="#10" y="7.348"></use><use xlink:href="#13" y="11.022"></use></svg><svg x="768"><use xlink:href="#a"></use><use xlink:href="#7" y="0"></use><use xlink:href="#12" y="1.837"></use><text x="0" y="5.343999999999999" class="d">❯</text><text x="2.004" y="5.343999999999999" class="e">Quantity</text><text x="12.024" y="5.343999999999999" class="h">1</text><text x="13.026" y="5.343999999999999" class="d">█</text><use xlink:href="#9" y="5.511"></use><use xlink:href="#10" y="7.348"></use><use xlink:href="#13" y="11.022"></use></svg><svg x="832"><use xlink:href="#a"></use><use xlink:href="#7" y="0"></use><use xlink:href="#12" y="1.837"></use><text x="0" y="5.343999999999999" class="d">❯</text><text x="2.004" y="5.343999999999999" class="e">Quantity</text><text x="12.024" y="5.343999999999999" class="h">12</text><text x="14.027999999999999" y="5.343999999999999" class="d">█</text><use xlink:href="#9" y="5.511"></use><use xlink:href="#10" y="7.348"></use><use xlink:href="#13" y="11.022"></use></svg><svg x="896"><use xlink:href="#a"></use><use xlink:href="#7" y="0"></use><use xlink:href="#12" y="1.837"></use><text x="0" y="5.343999999999999" class="d">❯</text><text x="2.004" y="5.343999999999999" class="e">Quantity</text><text x="12.024" y="5.343999999999999" class="o">12</text><rect height="1.837" width="8" x="56.111999999999995" y="3.6739999999999995" class="i"></rect><text x="56.111999999999995" y="5.343999999999999" class="p"> edited </text><use xlink:href="#9" y="5.511"></use><use xlink:href="#10" y="7.348"></use><use xlink:href="#6" y="11.022"></use></svg><svg x="960"><use xlink:href="#a"></use><use xlink:href="#7" y="0"></use><use xlink:href="#12" y="1.837"></use><use xlink:href="#15" y="3.674"></use><text x="0" y="7.181" class="d">❯</text><text x="2.004" y="7.181" class="e">Ripeness</text><text x="12.024" y="7.181" class="o">ripe</text><use xlink:href="#10" y="7.348"></use><use xlink:href="#6" y="11.022"></use></svg><svg x="1024"><use xlink:href="#a"></use><use xlink:href="#7" y="0"></use><use xlink:href="#12" y="1.837"></use><use xlink:href="#15" y="3.674"></use><text x="0" y="7.181" class="d">❯</text><text x="2.004" y="7.181" class="e">Ripeness</text><text x="12.024" y="7.181" class="d">●</text><text x="14.027999999999999" y="7.181" class="d">Ripe</text><text x="12.024" y="9.018" class="h">○</text><text x="14.027999999999999" y="9.018" class="h">Unripe</text><use xlink:href="#16" y="9.185"></use><use xlink:href="#10" y="11.022"></use><use xlink:href="#17" y="14.696"></use></svg><svg x="1088"><use xlink:href="#a"></use><use xlink:href="#7" y="0"></use><use xlink:href="#12" y="1.837"></use><use xlink:href="#15" y="3.674"></use><text x="0" y="7.181" class="d">❯</text><text x="2.004" y="7.181" class="e">Ripeness</text><text x="12.024" y="7.181" class="h">○</text><text x="14.027999999999999" y="7.181" class="h">Ripe</text><text x="12.024" y="9.018" class="d">●</text><text x="14.027999999999999" y="9.018" class="d">Unripe</text><use xlink:href="#16" y="9.185"></use><use xlink:href="#10" y="11.022"></use><use xlink:href="#17" y="14.696"></use></svg><svg x="1152"><use xlink:href="#a"></use><use xlink:href="#7" y="0"></use><use xlink:href="#12" y="1.837"></use><use xlink:href="#15" y="3.674"></use><text x="0" y="7.181" class="d">❯</text><text x="2.004" y="7.181" class="e">Ripeness</text><text x="12.024" y="7.181" class="o">unripe</text><rect height="1.837" width="8" x="56.111999999999995" y="5.511" class="i"></rect><text x="56.111999999999995" y="7.181" class="p"> edited </text><use xlink:href="#10" y="7.348"></use><use xlink:href="#6" y="11.022"></use></svg><svg x="1216"><use xlink:href="#a"></use><use xlink:href="#7" y="0"></use><use xlink:href="#12" y="1.837"></use><use xlink:href="#15" y="3.674"></use><use xlink:href="#18" y="5.511"></use><text x="0" y="9.018" class="d">❯</text><text x="2.004" y="9.018" class="e">Harvest</text><text x="10.02" y="9.018" class="e">date</text><text x="16.032" y="9.018" class="o">2026-07-15</text><use xlink:href="#6" y="11.022"></use></svg><svg x="1280"><use xlink:href="#a"></use><use xlink:href="#19" y="0"></use><use xlink:href="#20" y="1.837"></use><use xlink:href="#21" y="3.674"></use><use xlink:href="#22" y="5.511"></use><use xlink:href="#23" y="7.348"></use><use xlink:href="#24" y="9.185"></use><text x="1.002" y="12.692" class="h">13</text><text x="5.01" y="12.692" class="h">14</text><text x="8.016" y="12.692" class="d">[15]</text><text x="13.026" y="12.692" class="h">16</text><text x="17.034" y="12.692" class="h">17</text><text x="21.041999999999998" y="12.692" class="h">18</text><text x="25.05" y="12.692" class="h">19</text><text x="1.002" y="14.529" class="h">20</text><text x="5.01" y="14.529" class="h">21</text><text x="9.017999999999999" y="14.529" class="h">22</text><text x="13.026" y="14.529" class="h">23</text><text x="17.034" y="14.529" class="h">24</text><text x="21.041999999999998" y="14.529" class="h">25</text><text x="25.05" y="14.529" class="h">26</text><use xlink:href="#25" y="14.696"></use><use xlink:href="#26" y="18.37"></use></svg><svg x="1344"><use xlink:href="#a"></use><use xlink:href="#19" y="0"></use><use xlink:href="#20" y="1.837"></use><use xlink:href="#21" y="3.674"></use><use xlink:href="#22" y="5.511"></use><use xlink:href="#23" y="7.348"></use><use xlink:href="#24" y="9.185"></use><text x="1.002" y="12.692" class="h">13</text><text x="5.01" y="12.692" class="h">14</text><text x="9.017999999999999" y="12.692" class="h">15</text><text x="13.026" y="12.692" class="h">16</text><text x="17.034" y="12.692" class="h">17</text><text x="21.041999999999998" y="12.692" class="h">18</text><text x="25.05" y="12.692" class="h">19</text><text x="1.002" y="14.529" class="h">20</text><text x="5.01" y="14.529" class="h">21</text><text x="8.016" y="14.529" class="d">[22]</text><text x="13.026" y="14.529" class="h">23</text><text x="17.034" y="14.529" class="h">24</text><text x="21.041999999999998" y="14.529" class="h">25</text><text x="25.05" y="14.529" class="h">26</text><use xlink:href="#25" y="14.696"></use><use xlink:href="#26" y="18.37"></use></svg><svg x="1408"><use xlink:href="#a"></use><use xlink:href="#7" y="0"></use><use xlink:href="#12" y="1.837"></use><use xlink:href="#15" y="3.674"></use><use xlink:href="#18" y="5.511"></use><text x="0" y="9.018" class="d">❯</text><text x="2.004" y="9.018" class="e">Harvest</text><text x="10.02" y="9.018" class="e">date</text><text x="16.032" y="9.018" class="o">2026-07-22</text><rect height="1.837" width="8" x="56.111999999999995" y="7.348000000000001" class="i"></rect><text x="56.111999999999995" y="9.018" class="p"> edited </text><use xlink:href="#6" y="11.022"></use></svg><svg x="1472"><use xlink:href="#a"></use><use xlink:href="#1" y="0"></use><use xlink:href="#2" y="1.837"></use><use xlink:href="#3" y="3.674"></use><use xlink:href="#4" y="5.511"></use><text x="4.008" y="9.018" class="o">yes</text><text x="8.016" y="9.018" class="o">·</text><text x="10.02" y="9.018" class="o">12</text><text x="13.026" y="9.018" class="o">·</text><text x="15.029999999999998" y="9.018" class="o">unripe</text><text x="22.043999999999997" y="9.018" class="o">·</text><text x="24.048" y="9.018" class="o">2026-07-22</text><use xlink:href="#5" y="11.022"></use><use xlink:href="#6" y="14.696"></use></svg><svg x="1536"><use xlink:href="#a"></use><use xlink:href="#1" y="0"></use><text x="2.004" y="3.5069999999999997" class="h">Order</text><text x="8.016" y="3.5069999999999997" class="h">options</text><text x="16.032" y="3.5069999999999997" class="c">›</text><text x="4.008" y="5.343999999999999" class="c">Press</text><text x="10.02" y="5.343999999999999" class="c">Enter</text><text x="16.032" y="5.343999999999999" class="c">on</text><text x="19.037999999999997" y="5.343999999999999" class="c">a</text><text x="21.041999999999998" y="5.343999999999999" class="c">field</text><text x="27.054" y="5.343999999999999" class="c">to</text><text x="30.059999999999995" y="5.343999999999999" class="c">edit</text><text x="35.06999999999999" y="5.343999999999999" class="c">it</text><text x="38.07599999999999" y="5.343999999999999" class="c">in</text><text x="41.082" y="5.343999999999999" class="c">place;</text><text x="48.096" y="5.343999999999999" class="c">Enter</text><text x="54.108" y="5.343999999999999" class="c">accepts,</text><text x="63.12599999999999" y="5.343999999999999" class="c">E</text><text x="0" y="7.181" class="c">sc</text><text x="3.006" y="7.181" class="c">cancels.</text><text x="4.008" y="9.018" class="g">yes</text><text x="8.016" y="9.018" class="g">·</text><text x="10.02" y="9.018" class="g">12</text><text x="13.026" y="9.018" class="g">·</text><text x="15.029999999999998" y="9.018" class="g">unripe</text><text x="22.043999999999997" y="9.018" class="g">·</text><text x="24.048" y="9.018" class="g">2026-07-22</text><rect height="1.837" width="10" x="2.004" y="11.022" class="i"></rect><text x="2.004" y="12.692" class="p">[ Submit ]</text><text x="14.027999999999999" y="12.692" class="g">[</text><text x="16.032" y="12.692" class="g">Cancel</text><text x="23.045999999999996" y="12.692" class="g">]</text><use xlink:href="#6" y="14.696"></use></svg><svg x="1600"><use xlink:href="#a"></use><use xlink:href="#b" x="-0.0040000000000000036" y="9.01"></use><use xlink:href="#27" y="0"></use><use xlink:href="#28" y="1.837"></use><use xlink:href="#29" y="3.674"></use><use xlink:href="#30" y="5.511"></use><use xlink:href="#31" y="7.348"></use></svg><svg x="1664"><use xlink:href="#a"></use><use xlink:href="#b" x="0.996" y="9.01"></use><use xlink:href="#27" y="0"></use><use xlink:href="#28" y="1.837"></use><use xlink:href="#29" y="3.674"></use><use xlink:href="#30" y="5.511"></use><use xlink:href="#31" y="7.348"></use></svg></svg></g></g></svg></svg>