<svg xmlns="http://www.w3.org/2000/svg" xmlns:xlink="http://www.w3.org/1999/xlink" width="720" height="367.40000000000003"><rect width="720" height="367.40000000000003" rx="0" ry="0" class="a"></rect><svg height="367.40000000000003" viewBox="0 0 72 36.74" width="720" xmlns="http://www.w3.org/2000/svg" xmlns:xlink="http://www.w3.org/1999/xlink"><style>.a{fill:rgb(40,44,52)}.b{font-family:Consolas,"Courier New",Courier,"Liberation Mono",monospace}.c{fill:rgb(128,128,128);white-space:pre}.d{fill:rgb(0,128,128);font-weight:bold;white-space:pre}.e{fill:rgb(171,178,191);font-weight:bold;white-space:pre}.f{fill:rgb(128,128,128);font-weight:bold;white-space:pre}.g{fill:rgb(0,128,0);white-space:pre}.h{fill:rgb(171,178,191);white-space:pre}.i{fill:rgb(0,128,0);font-weight:bold;white-space:pre}.j{fill:transparent}.k{fill:rgb(82,139,255)}.m{animation-duration:20.593s;animation-iteration-count:infinite;animation-name:l;animation-timing-function:steps(1,end)}.n{fill:rgb(185,192,203)}.o{fill:rgb(40,44,52);font-weight:bold;white-space:pre}@keyframes l{0%{transform:translateX(-0px)}0.7%{transform:translateX(-72px)}2.8%{transform:translateX(-144px)}2.8%{transform:translateX(-216px)}15.2%{transform:translateX(-288px)}24.4%{transform:translateX(-360px)}28.1%{transform:translateX(-432px)}31.7%{transform:translateX(-504px)}35.6%{transform:translateX(-576px)}53.8%{transform:translateX(-648px)}58.8%{transform:translateX(-720px)}65%{transform:translateX(-792px)}68.7%{transform:translateX(-864px)}71.8%{transform:translateX(-936px)}78%{transform:translateX(-1008px)}81.6%{transform:translateX(-1080px)}81.8%{transform:translateX(-1152px)}100%{transform:translateX(-1224px)}}</style><g font-family="Consolas, &quot;Courier New&quot;, Courier, &quot;Liberation Mono&quot;, monospace" font-size="1.67" class="b"><defs><symbol id="1"><text x="0" y="1.67" class="c">Key</text><text x="4.008" y="1.67" class="c">bindings</text><text x="13.026" y="1.67" class="c">demo</text></symbol><symbol id="2"><text x="0" y="1.67" class="d">❯</text><text x="2.004" y="1.67" class="e">Order</text><text x="8.016" y="1.67" class="f">›</text></symbol><symbol id="3"><text x="2.004" y="1.67" class="g">[</text><text x="4.008" y="1.67" class="g">Submit</text><text x="11.021999999999998" y="1.67" class="g">]</text><text x="14.027999999999999" y="1.67" class="g">[</text><text x="16.032" y="1.67" class="g">Cancel</text><text x="23.045999999999996" y="1.67" class="g">]</text></symbol><symbol id="4"><text x="0" y="1.67" class="c">↑/↓</text><text x="4.008" y="1.67" class="c">move</text><text x="9.017999999999999" y="1.67" class="c">·</text><text x="11.021999999999998" y="1.67" class="c">↵</text><text x="13.026" y="1.67" class="c">select</text><text x="20.04" y="1.67" class="c">·</text><text x="22.043999999999997" y="1.67" class="c">esc</text><text x="26.052" y="1.67" class="c">back</text><text x="31.061999999999998" y="1.67" class="c">·</text><text x="33.065999999999995" y="1.67" class="c">q</text><text x="35.06999999999999" y="1.67" class="c">quit</text><text x="40.08" y="1.67" class="c">·</text><text x="42.083999999999996" y="1.67" class="c">?</text><text x="44.087999999999994" y="1.67" class="c">help</text></symbol><symbol id="5"><text x="0" y="1.67" class="c">Key</text><text x="4.008" y="1.67" class="c">bindings</text><text x="13.026" y="1.67" class="c">demo</text><text x="18.035999999999998" y="1.67" class="c">›</text><text x="20.04" y="1.67" class="c">Order</text></symbol><symbol id="6"><text x="2.004" y="1.67" class="h">Fruit</text><text x="9.017999999999999" y="1.67" class="g">apple</text></symbol><symbol id="7"><text x="2.004" y="1.67" class="h">Vegetables</text></symbol><symbol id="8"><text x="2.004" y="1.67" class="h">Organic</text><text x="10.02" y="1.67" class="h">only?</text><text x="17.034" y="1.67" class="g">yes</text></symbol><symbol id="9"><text x="2.004" y="1.67" class="h">Order</text><text x="8.016" y="1.67" class="h">name</text><text x="14.027999999999999" y="1.67" class="g">Weekly</text></symbol><symbol id="10"><text x="0" y="1.67" class="d">❯</text><text x="2.004" y="1.67" class="e">Fruit</text><text x="9.017999999999999" y="1.67" class="i">apple</text></symbol><symbol id="11"><text x="0" y="1.67" class="c">↑/↓</text><text x="4.008" y="1.67" class="c">move</text><text x="9.017999999999999" y="1.67" class="c">·</text><text x="11.021999999999998" y="1.67" class="c">↵</text><text x="13.026" y="1.67" class="c">accept</text><text x="20.04" y="1.67" class="c">·</text><text x="22.043999999999997" y="1.67" class="c">esc</text><text x="26.052" y="1.67" class="c">cancel</text></symbol><symbol id="12"><text x="9.017999999999999" y="1.67" class="h">○</text><text x="11.021999999999998" y="1.67" class="h">Cherry</text></symbol><symbol id="13"><text x="0" y="1.67" class="h">Order</text></symbol><symbol id="14"><text x="2.004" y="1.67" class="h">Order</text><text x="8.016" y="1.67" class="h">name:</text><text x="14.027999999999999" y="1.67" class="h">Weekly</text></symbol><symbol id="15"><text x="2.004" y="1.67" class="h">Fruit:</text><text x="9.017999999999999" y="1.67" class="h">banana</text><text x="16.032" y="1.67" class="h">(edited)</text></symbol><symbol id="16"><text x="2.004" y="1.67" class="h">Vegetables:</text></symbol><symbol id="17"><text x="2.004" y="1.67" class="h">Organic</text><text x="10.02" y="1.67" class="h">only?:</text><text x="17.034" y="1.67" class="h">yes</text></symbol><symbol id="a"><rect height="20" width="72" x="0" y="0" class="j"></rect></symbol><symbol id="b"><rect height="1.837" width="1.1022" class="k"></rect></symbol></defs><rect height="36.74" width="72" class="a"></rect><g class="m"><svg x="0" y="0" width="1296"><svg x="0"><use xlink:href="#a"></use><use xlink:href="#b" x="-0.0040000000000000036" y="0"></use></svg><svg x="72"><use xlink:href="#a"></use><use xlink:href="#b" x="-0.0040000000000000036" y="0"></use></svg><svg x="144"><use xlink:href="#a"></use></svg><svg x="216"><use xlink:href="#a"></use><use xlink:href="#1" y="0"></use><use xlink:href="#2" y="1.837"></use><text x="4.008" y="5.343999999999999" class="i">Weekly</text><text x="11.021999999999998" y="5.343999999999999" class="i">·</text><text x="13.026" y="5.343999999999999" class="i">apple</text><text x="19.037999999999997" y="5.343999999999999" class="i">·</text><text x="22.043999999999997" y="5.343999999999999" class="i">·</text><text x="24.048" y="5.343999999999999" class="i">yes</text><use xlink:href="#3" y="7.348"></use><use xlink:href="#4" y="11.022"></use></svg><svg x="288"><use xlink:href="#a"></use><use xlink:href="#5" y="0"></use><text x="0" y="3.5069999999999997" class="d">❯</text><text x="2.004" y="3.5069999999999997" class="e">Order</text><text x="8.016" y="3.5069999999999997" class="e">name</text><text x="14.027999999999999" y="3.5069999999999997" class="i">Weekly</text><use xlink:href="#6" y="3.674"></use><use xlink:href="#7" y="5.511"></use><use xlink:href="#8" y="7.348"></use><use xlink:href="#4" y="11.022"></use></svg><svg x="360"><use xlink:href="#a"></use><use xlink:href="#5" y="0"></use><use xlink:href="#9" y="1.837"></use><use xlink:href="#10" y="3.674"></use><use xlink:href="#7" y="5.511"></use><use xlink:href="#8" y="7.348"></use><use xlink:href="#4" y="11.022"></use></svg><svg x="432"><use xlink:href="#a"></use><use xlink:href="#5" y="0"></use><use xlink:href="#9" y="1.837"></use><use xlink:href="#6" y="3.674"></use><text x="0" y="7.181" class="d">❯</text><text x="2.004" y="7.181" class="e">Vegetables</text><use xlink:href="#8" y="7.348"></use><use xlink:href="#4" y="11.022"></use></svg><svg x="504"><use xlink:href="#a"></use><use xlink:href="#5" y="0"></use><use xlink:href="#9" y="1.837"></use><use xlink:href="#10" y="3.674"></use><use xlink:href="#7" y="5.511"></use><use xlink:href="#8" y="7.348"></use><use xlink:href="#4" y="11.022"></use></svg><svg x="576"><use xlink:href="#a"></use><text x="0" y="1.67" class="d">Keyboard</text><text x="9.017999999999999" y="1.67" class="d">help</text><text x="0" y="5.343999999999999" class="h">Navigation</text><use xlink:href="#4" y="5.511"></use><text x="0" y="10.855" class="h">Text</text><text x="0" y="12.692" class="c">↵</text><text x="2.004" y="12.692" class="c">accept</text><text x="9.017999999999999" y="12.692" class="c">·</text><text x="11.021999999999998" y="12.692" class="c">esc</text><text x="15.029999999999998" y="12.692" class="c">cancel</text><text x="0" y="16.366" class="h">Select</text><use xlink:href="#11" y="16.533"></use><text x="0" y="21.876999999999995" class="h">Confirm</text><text x="0" y="23.714" class="c">y/n</text><text x="4.008" y="23.714" class="c">yes/no</text><text x="11.021999999999998" y="23.714" class="c">·</text><text x="13.026" y="23.714" class="c">↑</text><text x="15.029999999999998" y="23.714" class="c">toggle</text><text x="22.043999999999997" y="23.714" class="c">·</text><text x="24.048" y="23.714" class="c">↵</text><text x="26.052" y="23.714" class="c">accept</text><text x="33.065999999999995" y="23.714" class="c">·</text><text x="35.06999999999999" y="23.714" class="c">esc</text><text x="39.077999999999996" y="23.714" class="c">cancel</text><text x="0" y="27.387999999999998" class="c">?</text><text x="2.004" y="27.387999999999998" class="c">close</text></svg><svg x="648"><use xlink:href="#a"></use><use xlink:href="#5" y="0"></use><use xlink:href="#9" y="1.837"></use><use xlink:href="#10" y="3.674"></use><use xlink:href="#7" y="5.511"></use><use xlink:href="#8" y="7.348"></use><use xlink:href="#4" y="11.022"></use></svg><svg x="720"><use xlink:href="#a"></use><use xlink:href="#5" y="0"></use><use xlink:href="#9" y="1.837"></use><text x="0" y="5.343999999999999" class="d">❯</text><text x="2.004" y="5.343999999999999" class="e">Fruit</text><text x="9.017999999999999" y="5.343999999999999" class="d">●</text><text x="11.021999999999998" y="5.343999999999999" class="d">Apple</text><text x="9.017999999999999" y="7.181" class="h">○</text><text x="11.021999999999998" y="7.181" class="h">Banana</text><use xlink:href="#12" y="7.348"></use><use xlink:href="#7" y="9.185"></use><use xlink:href="#8" y="11.022"></use><use xlink:href="#11" y="14.696"></use></svg><svg x="792"><use xlink:href="#a"></use><use xlink:href="#5" y="0"></use><use xlink:href="#9" y="1.837"></use><text x="0" y="5.343999999999999" class="d">❯</text><text x="2.004" y="5.343999999999999" class="e">Fruit</text><text x="9.017999999999999" y="5.343999999999999" class="h">○</text><text x="11.021999999999998" y="5.343999999999999" class="h">Apple</text><text x="9.017999999999999" y="7.181" class="d">●</text><text x="11.021999999999998" y="7.181" class="d">Banana</text><use xlink:href="#12" y="7.348"></use><use xlink:href="#7" y="9.185"></use><use xlink:href="#8" y="11.022"></use><use xlink:href="#11" y="14.696"></use></svg><svg x="864"><use xlink:href="#a"></use><use xlink:href="#5" y="0"></use><use xlink:href="#9" y="1.837"></use><text x="0" y="5.343999999999999" class="d">❯</text><text x="2.004" y="5.343999999999999" class="e">Fruit</text><text x="9.017999999999999" y="5.343999999999999" class="i">banana</text><rect height="1.837" width="4" x="68.136" y="3.6739999999999995" class="n"></rect><text x="68.136" y="5.343999999999999" class="o"> edi</text><rect height="1.837" width="4" x="0" y="5.511" class="n"></rect><text x="0" y="7.181" class="o">ted </text><use xlink:href="#7" y="7.348"></use><use xlink:href="#8" y="9.185"></use><use xlink:href="#4" y="12.859"></use></svg><svg x="936"><use xlink:href="#a"></use><use xlink:href="#1" y="0"></use><use xlink:href="#2" y="1.837"></use><text x="4.008" y="5.343999999999999" class="i">Weekly</text><text x="11.021999999999998" y="5.343999999999999" class="i">·</text><text x="13.026" y="5.343999999999999" class="i">banana</text><text x="20.04" y="5.343999999999999" class="i">·</text><text x="23.045999999999996" y="5.343999999999999" class="i">·</text><text x="25.05" y="5.343999999999999" class="i">yes</text><use xlink:href="#3" y="7.348"></use><use xlink:href="#4" y="11.022"></use></svg><svg x="1008"><use xlink:href="#a"></use><use xlink:href="#1" y="0"></use><text x="2.004" y="3.5069999999999997" class="h">Order</text><text x="8.016" y="3.5069999999999997" class="c">›</text><text x="4.008" y="5.343999999999999" class="g">Weekly</text><text x="11.021999999999998" y="5.343999999999999" class="g">·</text><text x="13.026" y="5.343999999999999" class="g">banana</text><text x="20.04" y="5.343999999999999" class="g">·</text><text x="23.045999999999996" y="5.343999999999999" class="g">·</text><text x="25.05" y="5.343999999999999" class="g">yes</text><rect height="1.837" width="10" x="2.004" y="7.348000000000001" class="n"></rect><text x="2.004" y="9.018" class="o">[ Submit ]</text><text x="14.027999999999999" y="9.018" class="g">[</text><text x="16.032" y="9.018" class="g">Cancel</text><text x="23.045999999999996" y="9.018" class="g">]</text><use xlink:href="#4" y="11.022"></use></svg><svg x="1080"><use xlink:href="#a"></use><use xlink:href="#b" x="-0.0040000000000000036" y="0"></use></svg><svg x="1152"><use xlink:href="#a"></use><use xlink:href="#b" x="-0.0040000000000000036" y="9.01"></use><use xlink:href="#13" y="0"></use><use xlink:href="#14" y="1.837"></use><use xlink:href="#15" y="3.674"></use><use xlink:href="#16" y="5.511"></use><use xlink:href="#17" y="7.348"></use></svg><svg x="1224"><use xlink:href="#a"></use><use xlink:href="#b" x="0.996" y="9.01"></use><use xlink:href="#13" y="0"></use><use xlink:href="#14" y="1.837"></use><use xlink:href="#15" y="3.674"></use><use xlink:href="#16" y="5.511"></use><use xlink:href="#17" y="7.348"></use></svg></svg></g></g></svg></svg>