<svg xmlns="http://www.w3.org/2000/svg" xmlns:xlink="http://www.w3.org/1999/xlink" width="720" height="404.13999999999993"><rect width="720" height="404.13999999999993" rx="0" ry="0" class="a"></rect><svg height="404.13999999999993" viewBox="0 0 72 40.413999999999994" width="720" xmlns="http://www.w3.org/2000/svg" xmlns:xlink="http://www.w3.org/1999/xlink"><style>.a{fill:rgb(40,44,52)}.b{font-family:Consolas,"Courier New",Courier,"Liberation Mono",monospace}.c{fill:rgb(0,128,128);white-space:pre}.d{fill:rgb(128,128,128);white-space:pre}.e{fill:rgb(0,128,128);font-weight:bold;white-space:pre}.f{fill:rgb(171,178,191);font-weight:bold;white-space:pre}.g{fill:rgb(128,128,128);font-weight:bold;white-space:pre}.h{fill:rgb(0,128,0);font-weight:bold;white-space:pre}.i{fill:rgb(0,128,0);white-space:pre}.j{fill:rgb(171,178,191);white-space:pre}.k{fill:rgb(185,192,203)}.l{fill:rgb(40,44,52);font-weight:bold;white-space:pre}.m{fill:transparent}.n{fill:rgb(82,139,255)}.p{animation-duration:21.161s;animation-iteration-count:infinite;animation-name:o;animation-timing-function:steps(1,end)}@keyframes o{0%{transform:translateX(-0px)}3.37%{transform:translateX(-72px)}5.43%{transform:translateX(-144px)}5.43%{transform:translateX(-216px)}5.43%{transform:translateX(-288px)}5.44%{transform:translateX(-360px)}17.59%{transform:translateX(-432px)}17.59%{transform:translateX(-504px)}17.77%{transform:translateX(-576px)}17.77%{transform:translateX(-648px)}17.95%{transform:translateX(-720px)}26.61%{transform:translateX(-792px)}26.61%{transform:translateX(-864px)}26.79%{transform:translateX(-936px)}26.79%{transform:translateX(-1008px)}26.97%{transform:translateX(-1080px)}30.3%{transform:translateX(-1152px)}30.3%{transform:translateX(-1224px)}30.46%{transform:translateX(-1296px)}30.46%{transform:translateX(-1368px)}30.65%{transform:translateX(-1440px)}33.89%{transform:translateX(-1512px)}33.89%{transform:translateX(-1584px)}34.06%{transform:translateX(-1656px)}34.06%{transform:translateX(-1728px)}34.25%{transform:translateX(-1800px)}37.55%{transform:translateX(-1872px)}55.27%{transform:translateX(-1944px)}55.27%{transform:translateX(-2016px)}55.44%{transform:translateX(-2088px)}55.44%{transform:translateX(-2160px)}55.6%{transform:translateX(-2232px)}60.09%{transform:translateX(-2304px)}60.09%{transform:translateX(-2376px)}60.27%{transform:translateX(-2448px)}60.27%{transform:translateX(-2520px)}60.42%{transform:translateX(-2592px)}66.06%{transform:translateX(-2664px)}66.06%{transform:translateX(-2736px)}66.24%{transform:translateX(-2808px)}66.24%{transform:translateX(-2880px)}66.41%{transform:translateX(-2952px)}69.68%{transform:translateX(-3024px)}69.68%{transform:translateX(-3096px)}69.85%{transform:translateX(-3168px)}69.85%{transform:translateX(-3240px)}70.02%{transform:translateX(-3312px)}72.77%{transform:translateX(-3384px)}72.77%{transform:translateX(-3456px)}72.96%{transform:translateX(-3528px)}78.71%{transform:translateX(-3600px)}78.71%{transform:translateX(-3672px)}78.88%{transform:translateX(-3744px)}82.11%{transform:translateX(-3816px)}82.28%{transform:translateX(-3888px)}100%{transform:translateX(-3960px)}}</style><g font-family="Consolas, &quot;Courier New&quot;, Courier, &quot;Liberation Mono&quot;, monospace" font-size="1.67" class="b"><defs><symbol id="1"><text x="0" y="1.67" class="c">╭──────────────────────────────────────────────────────────────────────╮</text></symbol><symbol id="2"><text x="0" y="1.67" class="c">│</text><text x="2.004" y="1.67" class="d">Key</text><text x="6.012" y="1.67" class="d">bindings</text><text x="15.029999999999998" y="1.67" class="d">demo</text><text x="71.142" y="1.67" class="c">│</text></symbol><symbol id="3"><text x="0" y="1.67" class="c">├──────────────────────────────────────────────────────────────────────┤</text></symbol><symbol id="4"><text x="0" y="1.67" class="c">│</text><text x="71.142" y="1.67" class="c">│</text></symbol><symbol id="5"><text x="0" y="1.67" class="c">│</text><text x="2.004" y="1.67" class="e">❯</text><text x="4.008" y="1.67" class="f">Order</text><text x="10.02" y="1.67" class="g">›</text><text x="71.142" y="1.67" class="c">│</text></symbol><symbol id="6"><text x="0" y="1.67" class="c">│</text><text x="6.012" y="1.67" class="h">Weekly</text><text x="13.026" y="1.67" class="h">·</text><text x="15.029999999999998" y="1.67" class="h">apple</text><text x="21.041999999999998" y="1.67" class="h">·</text><text x="24.048" y="1.67" class="h">·</text><text x="26.052" y="1.67" class="h">yes</text><text x="71.142" y="1.67" class="c">│</text></symbol><symbol id="7"><text x="0" y="1.67" class="c">│</text></symbol><symbol id="8"><text x="0" y="1.67" class="c">│</text><text x="4.008" y="1.67" class="i">[</text><text x="6.012" y="1.67" class="i">Subm</text></symbol><symbol id="9"><text x="0" y="1.67" class="c">│</text><text x="4.008" y="1.67" class="i">[</text><text x="6.012" y="1.67" class="i">Submit</text><text x="13.026" y="1.67" class="i">]</text><text x="16.032" y="1.67" class="i">[</text><text x="18.035999999999998" y="1.67" class="i">Cancel</text><text x="25.05" y="1.67" class="i">]</text><text x="71.142" y="1.67" class="c">│</text></symbol><symbol id="10"><text x="0" y="1.67" class="c">│</text><text x="2.004" y="1.67" class="d">↑/↓</text><text x="6.012" y="1.67" class="d">move</text><text x="11.021999999999998" y="1.67" class="d">·</text><text x="13.026" y="1.67" class="d">↵</text><text x="15.029999999999998" y="1.67" class="d">select</text><text x="22.043999999999997" y="1.67" class="d">·</text><text x="24.048" y="1.67" class="d">esc</text><text x="28.055999999999997" y="1.67" class="d">back</text><text x="33.065999999999995" y="1.67" class="d">·</text><text x="35.06999999999999" y="1.67" class="d">q</text><text x="37.074" y="1.67" class="d">quit</text><text x="42.083999999999996" y="1.67" class="d">·</text><text x="44.087999999999994" y="1.67" class="d">?</text><text x="46.09199999999999" y="1.67" class="d">help</text><text x="71.142" y="1.67" class="c">│</text></symbol><symbol id="11"><text x="0" y="1.67" class="c">╰──────────────────────────────────────────────────────────────────────╯</text></symbol><symbol id="12"><text x="0" y="1.67" class="c">│</text><text x="2.004" y="1.67" class="d">Key</text><text x="6.012" y="1.67" class="d">bindings</text><text x="15.029999999999998" y="1.67" class="d">demo</text><text x="20.04" y="1.67" class="d">›</text><text x="22.043999999999997" y="1.67" class="d">Order</text><text x="71.142" y="1.67" class="c">│</text></symbol><symbol id="13"><text x="0" y="1.67" class="c">│</text><text x="2.004" y="1.67" class="e">❯</text><text x="4.008" y="1.67" class="f">Order</text><text x="10.02" y="1.67" class="f">name</text><text x="16.032" y="1.67" class="h">Weekly</text><text x="71.142" y="1.67" class="c">│</text></symbol><symbol id="14"><text x="0" y="1.67" class="c">│</text><text x="4.008" y="1.67" class="j">Fruit</text><text x="11.021999999999998" y="1.67" class="i">apple</text><text x="71.142" y="1.67" class="c">│</text></symbol><symbol id="15"><text x="0" y="1.67" class="c">│</text><text x="4.008" y="1.67" class="j">Vegetables</text><text x="71.142" y="1.67" class="c">│</text></symbol><symbol id="16"><text x="0" y="1.67" class="c">│</text><text x="4.008" y="1.67" class="j">Organic</text><text x="12.024" y="1.67" class="j">only?</text><text x="19.037999999999997" y="1.67" class="i">yes</text><text x="71.142" y="1.67" class="c">│</text></symbol><symbol id="17"><text x="0" y="1.67" class="c">╰──────────────────────────────────────────────────────────────────</text></symbol><symbol id="18"><text x="0" y="1.67" class="c">╰─────────────────────────────────────────────────────────────────────</text></symbol><symbol id="19"><text x="0" y="1.67" class="c">│</text><text x="4.008" y="1.67" class="j">Order</text><text x="10.02" y="1.67" class="j">name</text><text x="16.032" y="1.67" class="i">Weekly</text><text x="71.142" y="1.67" class="c">│</text></symbol><symbol id="20"><text x="0" y="1.67" class="c">│</text><text x="2.004" y="1.67" class="e">❯</text><text x="4.008" y="1.67" class="f">Fruit</text><text x="11.021999999999998" y="1.67" class="h">apple</text><text x="71.142" y="1.67" class="c">│</text></symbol><symbol id="21"><text x="0" y="1.67" class="c">│</text><text x="2.004" y="1.67" class="e">❯</text><text x="4.008" y="1.67" class="f">Vegetables</text><text x="71.142" y="1.67" class="c">│</text></symbol><symbol id="22"><text x="0" y="1.67" class="c">│</text><text x="2.004" y="1.67" class="e">❯</text><text x="4.008" y="1.67" class="f">Fruit</text><text x="11.021999999999998" y="1.67" class="e">●</text><text x="13.026" y="1.67" class="e">Apple</text><text x="71.142" y="1.67" class="c">│</text></symbol><symbol id="23"><text x="0" y="1.67" class="c">│</text><text x="11.021999999999998" y="1.67" class="j">○</text><text x="13.026" y="1.67" class="j">Banana</text><text x="71.142" y="1.67" class="c">│</text></symbol><symbol id="24"><text x="0" y="1.67" class="c">│</text><text x="11.021999999999998" y="1.67" class="j">○</text><text x="13.026" y="1.67" class="j">Cherry</text><text x="71.142" y="1.67" class="c">│</text></symbol><symbol id="25"><text x="0" y="1.67" class="c">│</text><text x="2.004" y="1.67" class="d">↑/↓</text><text x="6.012" y="1.67" class="d">move</text><text x="11.021999999999998" y="1.67" class="d">·</text><text x="13.026" y="1.67" class="d">↵</text><text x="15.029999999999998" y="1.67" class="d">accept</text><text x="22.043999999999997" y="1.67" class="d">·</text><text x="24.048" y="1.67" class="d">esc</text><text x="28.055999999999997" y="1.67" class="d">cancel</text><text x="71.142" y="1.67" class="c">│</text></symbol><symbol id="26"><text x="0" y="1.67" class="c">╰</text></symbol><symbol id="27"><text x="0" y="1.67" class="c">│</text><text x="2.004" y="1.67" class="e">❯</text><text x="4.008" y="1.67" class="f">Fruit</text><text x="11.021999999999998" y="1.67" class="j">○</text><text x="13.026" y="1.67" class="j">Apple</text><text x="71.142" y="1.67" class="c">│</text></symbol><symbol id="28"><text x="0" y="1.67" class="c">│</text><text x="11.021999999999998" y="1.67" class="e">●</text></symbol><symbol id="29"><text x="0" y="1.67" class="c">│</text><text x="11.021999999999998" y="1.67" class="e">●</text><text x="13.026" y="1.67" class="e">Banana</text><text x="71.142" y="1.67" class="c">│</text></symbol><symbol id="30"><text x="0" y="1.67" class="c">│</text><text x="2.004" y="1.67" class="e">❯</text><text x="4.008" y="1.67" class="f">Fruit</text><text x="11.021999999999998" y="1.67" class="h">banana</text><rect height="1.837" width="8" x="62.123999999999995" y="0" class="k"></rect><text x="62.123999999999995" y="1.67" class="l"> edited </text><text x="71.142" y="1.67" class="c">│</text></symbol><symbol id="31"><text x="0" y="1.67" class="c">│</text><text x="6.012" y="1.67" class="h">Weekly</text><text x="13.026" y="1.67" class="h">·</text><text x="15.029999999999998" y="1.67" class="h">banana</text><text x="22.043999999999997" y="1.67" class="h">·</text><text x="25.05" y="1.67" class="h">·</text><text x="27.054" y="1.67" class="h">yes</text><text x="71.142" y="1.67" class="c">│</text></symbol><symbol id="32"><text x="0" y="1.67" class="c">│</text><text x="4.008" y="1.67" class="j">Order</text><text x="10.02" y="1.67" class="d">›</text><text x="71.142" y="1.67" class="c">│</text></symbol><symbol id="33"><text x="0" y="1.67" class="c">│</text><text x="6.012" y="1.67" class="i">Weekly</text><text x="13.026" y="1.67" class="i">·</text><text x="15.029999999999998" y="1.67" class="i">banana</text><text x="22.043999999999997" y="1.67" class="i">·</text><text x="25.05" y="1.67" class="i">·</text><text x="27.054" y="1.67" class="i">yes</text><text x="71.142" y="1.67" class="c">│</text></symbol><symbol id="34"><text x="0" y="1.67" class="j">Order</text></symbol><symbol id="35"><text x="2.004" y="1.67" class="j">Order</text><text x="8.016" y="1.67" class="j">name:</text><text x="14.027999999999999" y="1.67" class="j">Weekly</text></symbol><symbol id="36"><text x="2.004" y="1.67" class="j">Fruit:</text><text x="9.017999999999999" y="1.67" class="j">banana</text><text x="16.032" y="1.67" class="j">(edited)</text></symbol><symbol id="37"><text x="2.004" y="1.67" class="j">Vegetables:</text></symbol><symbol id="38"><text x="2.004" y="1.67" class="j">Organic</text><text x="10.02" y="1.67" class="j">only?:</text><text x="17.034" y="1.67" class="j">yes</text></symbol><symbol id="a"><rect height="22" width="72" x="0" y="0" class="m"></rect></symbol><symbol id="b"><rect height="1.837" width="1.1022" class="n"></rect></symbol></defs><rect height="40.413999999999994" width="72" class="a"></rect><g class="p"><svg x="0" y="0" width="4032"><svg x="0"><use xlink:href="#a"></use><use xlink:href="#b" x="-0.0040000000000000036" y="0"></use></svg><svg x="72"><use xlink:href="#a"></use><use xlink:href="#b" x="-0.0040000000000000036" y="0"></use></svg><svg x="144"><use xlink:href="#a"></use></svg><svg x="216"><use xlink:href="#a"></use><use xlink:href="#1" y="0"></use><use xlink:href="#2" y="1.837"></use><use xlink:href="#3" y="3.674"></use><use xlink:href="#4" y="5.511"></use><use xlink:href="#5" y="7.348"></use><use xlink:href="#6" y="9.185"></use><use xlink:href="#4" y="11.022"></use><use xlink:href="#7" y="12.859"></use></svg><svg x="288"><use xlink:href="#a"></use><use xlink:href="#1" y="0"></use><use xlink:href="#2" y="1.837"></use><use xlink:href="#3" y="3.674"></use><use xlink:href="#4" y="5.511"></use><use xlink:href="#5" y="7.348"></use><use xlink:href="#6" y="9.185"></use><use xlink:href="#4" y="11.022"></use><use xlink:href="#8" y="12.859"></use></svg><svg x="360"><use xlink:href="#a"></use><use xlink:href="#1" y="0"></use><use xlink:href="#2" y="1.837"></use><use xlink:href="#3" y="3.674"></use><use xlink:href="#4" y="5.511"></use><use xlink:href="#5" y="7.348"></use><use xlink:href="#6" y="9.185"></use><use xlink:href="#4" y="11.022"></use><use xlink:href="#9" y="12.859"></use><use xlink:href="#4" y="14.696"></use><use xlink:href="#3" y="16.533"></use><use xlink:href="#10" y="18.37"></use><use xlink:href="#11" y="20.206999999999997"></use></svg><svg x="432"><use xlink:href="#a"></use><use xlink:href="#1" y="0"></use><use xlink:href="#12" y="1.837"></use><use xlink:href="#3" y="3.674"></use><use xlink:href="#4" y="5.511"></use><use xlink:href="#13" y="7.348"></use><use xlink:href="#4" y="9.185"></use><use xlink:href="#14" y="11.022"></use><use xlink:href="#7" y="12.859"></use></svg><svg x="504"><use xlink:href="#a"></use><use xlink:href="#1" y="0"></use><use xlink:href="#12" y="1.837"></use><use xlink:href="#3" y="3.674"></use><use xlink:href="#4" y="5.511"></use><use xlink:href="#13" y="7.348"></use><use xlink:href="#4" y="9.185"></use><use xlink:href="#14" y="11.022"></use><use xlink:href="#7" y="12.859"></use></svg><svg x="576"><use xlink:href="#a"></use><use xlink:href="#1" y="0"></use><use xlink:href="#12" y="1.837"></use><use xlink:href="#3" y="3.674"></use><use xlink:href="#4" y="5.511"></use><use xlink:href="#13" y="7.348"></use><use xlink:href="#4" y="9.185"></use><use xlink:href="#14" y="11.022"></use><use xlink:href="#4" y="12.859"></use><use xlink:href="#15" y="14.696"></use><use xlink:href="#4" y="16.533"></use><use xlink:href="#16" y="18.37"></use><use xlink:href="#4" y="20.206999999999997"></use><use xlink:href="#3" y="22.044"></use><use xlink:href="#10" y="23.881000000000004"></use><use xlink:href="#17" y="25.718"></use></svg><svg x="648"><use xlink:href="#a"></use><use xlink:href="#1" y="0"></use><use xlink:href="#12" y="1.837"></use><use xlink:href="#3" y="3.674"></use><use xlink:href="#4" y="5.511"></use><use xlink:href="#13" y="7.348"></use><use xlink:href="#4" y="9.185"></use><use xlink:href="#14" y="11.022"></use><use xlink:href="#4" y="12.859"></use><use xlink:href="#15" y="14.696"></use><use xlink:href="#4" y="16.533"></use><use xlink:href="#16" y="18.37"></use><use xlink:href="#4" y="20.206999999999997"></use><use xlink:href="#3" y="22.044"></use><use xlink:href="#10" y="23.881000000000004"></use><use xlink:href="#18" y="25.718"></use></svg><svg x="720"><use xlink:href="#a"></use><use xlink:href="#1" y="0"></use><use xlink:href="#12" y="1.837"></use><use xlink:href="#3" y="3.674"></use><use xlink:href="#4" y="5.511"></use><use xlink:href="#13" y="7.348"></use><use xlink:href="#4" y="9.185"></use><use xlink:href="#14" y="11.022"></use><use xlink:href="#4" y="12.859"></use><use xlink:href="#15" y="14.696"></use><use xlink:href="#4" y="16.533"></use><use xlink:href="#16" y="18.37"></use><use xlink:href="#4" y="20.206999999999997"></use><use xlink:href="#3" y="22.044"></use><use xlink:href="#10" y="23.881000000000004"></use><use xlink:href="#11" y="25.718"></use></svg><svg x="792"><use xlink:href="#a"></use><use xlink:href="#1" y="0"></use><use xlink:href="#12" y="1.837"></use><use xlink:href="#3" y="3.674"></use><use xlink:href="#4" y="5.511"></use><use xlink:href="#19" y="7.348"></use><use xlink:href="#4" y="9.185"></use><use xlink:href="#20" y="11.022"></use><use xlink:href="#7" y="12.859"></use></svg><svg x="864"><use xlink:href="#a"></use><use xlink:href="#1" y="0"></use><use xlink:href="#12" y="1.837"></use><use xlink:href="#3" y="3.674"></use><use xlink:href="#4" y="5.511"></use><use xlink:href="#19" y="7.348"></use><use xlink:href="#4" y="9.185"></use><use xlink:href="#20" y="11.022"></use><use xlink:href="#7" y="12.859"></use></svg><svg x="936"><use xlink:href="#a"></use><use xlink:href="#1" y="0"></use><use xlink:href="#12" y="1.837"></use><use xlink:href="#3" y="3.674"></use><use xlink:href="#4" y="5.511"></use><use xlink:href="#19" y="7.348"></use><use xlink:href="#4" y="9.185"></use><use xlink:href="#20" y="11.022"></use><use xlink:href="#4" y="12.859"></use><use xlink:href="#15" y="14.696"></use><use xlink:href="#4" y="16.533"></use><use xlink:href="#16" y="18.37"></use><use xlink:href="#4" y="20.206999999999997"></use><use xlink:href="#3" y="22.044"></use><use xlink:href="#10" y="23.881000000000004"></use><use xlink:href="#17" y="25.718"></use></svg><svg x="1008"><use xlink:href="#a"></use><use xlink:href="#1" y="0"></use><use xlink:href="#12" y="1.837"></use><use xlink:href="#3" y="3.674"></use><use xlink:href="#4" y="5.511"></use><use xlink:href="#19" y="7.348"></use><use xlink:href="#4" y="9.185"></use><use xlink:href="#20" y="11.022"></use><use xlink:href="#4" y="12.859"></use><use xlink:href="#15" y="14.696"></use><use xlink:href="#4" y="16.533"></use><use xlink:href="#16" y="18.37"></use><use xlink:href="#4" y="20.206999999999997"></use><use xlink:href="#3" y="22.044"></use><use xlink:href="#10" y="23.881000000000004"></use><use xlink:href="#18" y="25.718"></use></svg><svg x="1080"><use xlink:href="#a"></use><use xlink:href="#1" y="0"></use><use xlink:href="#12" y="1.837"></use><use xlink:href="#3" y="3.674"></use><use xlink:href="#4" y="5.511"></use><use xlink:href="#19" y="7.348"></use><use xlink:href="#4" y="9.185"></use><use xlink:href="#20" y="11.022"></use><use xlink:href="#4" y="12.859"></use><use xlink:href="#15" y="14.696"></use><use xlink:href="#4" y="16.533"></use><use xlink:href="#16" y="18.37"></use><use xlink:href="#4" y="20.206999999999997"></use><use xlink:href="#3" y="22.044"></use><use xlink:href="#10" y="23.881000000000004"></use><use xlink:href="#11" y="25.718"></use></svg><svg x="1152"><use xlink:href="#a"></use><use xlink:href="#1" y="0"></use><use xlink:href="#12" y="1.837"></use><use xlink:href="#3" y="3.674"></use><use xlink:href="#4" y="5.511"></use><use xlink:href="#19" y="7.348"></use><use xlink:href="#4" y="9.185"></use><use xlink:href="#14" y="11.022"></use><use xlink:href="#7" y="12.859"></use></svg><svg x="1224"><use xlink:href="#a"></use><use xlink:href="#1" y="0"></use><use xlink:href="#12" y="1.837"></use><use xlink:href="#3" y="3.674"></use><use xlink:href="#4" y="5.511"></use><use xlink:href="#19" y="7.348"></use><use xlink:href="#4" y="9.185"></use><use xlink:href="#14" y="11.022"></use><use xlink:href="#7" y="12.859"></use></svg><svg x="1296"><use xlink:href="#a"></use><use xlink:href="#1" y="0"></use><use xlink:href="#12" y="1.837"></use><use xlink:href="#3" y="3.674"></use><use xlink:href="#4" y="5.511"></use><use xlink:href="#19" y="7.348"></use><use xlink:href="#4" y="9.185"></use><use xlink:href="#14" y="11.022"></use><use xlink:href="#4" y="12.859"></use><use xlink:href="#21" y="14.696"></use><use xlink:href="#4" y="16.533"></use><use xlink:href="#16" y="18.37"></use><use xlink:href="#4" y="20.206999999999997"></use><use xlink:href="#3" y="22.044"></use><use xlink:href="#10" y="23.881000000000004"></use><use xlink:href="#17" y="25.718"></use></svg><svg x="1368"><use xlink:href="#a"></use><use xlink:href="#1" y="0"></use><use xlink:href="#12" y="1.837"></use><use xlink:href="#3" y="3.674"></use><use xlink:href="#4" y="5.511"></use><use xlink:href="#19" y="7.348"></use><use xlink:href="#4" y="9.185"></use><use xlink:href="#14" y="11.022"></use><use xlink:href="#4" y="12.859"></use><use xlink:href="#21" y="14.696"></use><use xlink:href="#4" y="16.533"></use><use xlink:href="#16" y="18.37"></use><use xlink:href="#4" y="20.206999999999997"></use><use xlink:href="#3" y="22.044"></use><use xlink:href="#10" y="23.881000000000004"></use><use xlink:href="#18" y="25.718"></use></svg><svg x="1440"><use xlink:href="#a"></use><use xlink:href="#1" y="0"></use><use xlink:href="#12" y="1.837"></use><use xlink:href="#3" y="3.674"></use><use xlink:href="#4" y="5.511"></use><use xlink:href="#19" y="7.348"></use><use xlink:href="#4" y="9.185"></use><use xlink:href="#14" y="11.022"></use><use xlink:href="#4" y="12.859"></use><use xlink:href="#21" y="14.696"></use><use xlink:href="#4" y="16.533"></use><use xlink:href="#16" y="18.37"></use><use xlink:href="#4" y="20.206999999999997"></use><use xlink:href="#3" y="22.044"></use><use xlink:href="#10" y="23.881000000000004"></use><use xlink:href="#11" y="25.718"></use></svg><svg x="1512"><use xlink:href="#a"></use><use xlink:href="#1" y="0"></use><use xlink:href="#12" y="1.837"></use><use xlink:href="#3" y="3.674"></use><use xlink:href="#4" y="5.511"></use><use xlink:href="#19" y="7.348"></use><use xlink:href="#4" y="9.185"></use><use xlink:href="#20" y="11.022"></use><use xlink:href="#7" y="12.859"></use></svg><svg x="1584"><use xlink:href="#a"></use><use xlink:href="#1" y="0"></use><use xlink:href="#12" y="1.837"></use><use xlink:href="#3" y="3.674"></use><use xlink:href="#4" y="5.511"></use><use xlink:href="#19" y="7.348"></use><use xlink:href="#4" y="9.185"></use><use xlink:href="#20" y="11.022"></use><use xlink:href="#7" y="12.859"></use></svg><svg x="1656"><use xlink:href="#a"></use><use xlink:href="#1" y="0"></use><use xlink:href="#12" y="1.837"></use><use xlink:href="#3" y="3.674"></use><use xlink:href="#4" y="5.511"></use><use xlink:href="#19" y="7.348"></use><use xlink:href="#4" y="9.185"></use><use xlink:href="#20" y="11.022"></use><use xlink:href="#4" y="12.859"></use><use xlink:href="#15" y="14.696"></use><use xlink:href="#4" y="16.533"></use><use xlink:href="#16" y="18.37"></use><use xlink:href="#4" y="20.206999999999997"></use><use xlink:href="#3" y="22.044"></use><use xlink:href="#10" y="23.881000000000004"></use><use xlink:href="#17" y="25.718"></use></svg><svg x="1728"><use xlink:href="#a"></use><use xlink:href="#1" y="0"></use><use xlink:href="#12" y="1.837"></use><use xlink:href="#3" y="3.674"></use><use xlink:href="#4" y="5.511"></use><use xlink:href="#19" y="7.348"></use><use xlink:href="#4" y="9.185"></use><use xlink:href="#20" y="11.022"></use><use xlink:href="#4" y="12.859"></use><use xlink:href="#15" y="14.696"></use><use xlink:href="#4" y="16.533"></use><use xlink:href="#16" y="18.37"></use><use xlink:href="#4" y="20.206999999999997"></use><use xlink:href="#3" y="22.044"></use><use xlink:href="#10" y="23.881000000000004"></use><use xlink:href="#18" y="25.718"></use></svg><svg x="1800"><use xlink:href="#a"></use><use xlink:href="#1" y="0"></use><use xlink:href="#12" y="1.837"></use><use xlink:href="#3" y="3.674"></use><use xlink:href="#4" y="5.511"></use><use xlink:href="#19" y="7.348"></use><use xlink:href="#4" y="9.185"></use><use xlink:href="#20" y="11.022"></use><use xlink:href="#4" y="12.859"></use><use xlink:href="#15" y="14.696"></use><use xlink:href="#4" y="16.533"></use><use xlink:href="#16" y="18.37"></use><use xlink:href="#4" y="20.206999999999997"></use><use xlink:href="#3" y="22.044"></use><use xlink:href="#10" y="23.881000000000004"></use><use xlink:href="#11" y="25.718"></use></svg><svg x="1872"><use xlink:href="#a"></use><text x="0" y="1.67" class="e">Keyboard</text><text x="9.017999999999999" y="1.67" class="e">help</text><text x="0" y="5.343999999999999" class="j">Navigation</text><text x="0" y="7.181" class="d">↑/↓</text><text x="4.008" y="7.181" class="d">move</text><text x="9.017999999999999" y="7.181" class="d">·</text><text x="11.021999999999998" y="7.181" class="d">↵</text><text x="13.026" y="7.181" class="d">select</text><text x="20.04" y="7.181" class="d">·</text><text x="22.043999999999997" y="7.181" class="d">esc</text><text x="26.052" y="7.181" class="d">back</text><text x="31.061999999999998" y="7.181" class="d">·</text><text x="33.065999999999995" y="7.181" class="d">q</text><text x="35.06999999999999" y="7.181" class="d">quit</text><text x="40.08" y="7.181" class="d">·</text><text x="42.083999999999996" y="7.181" class="d">?</text><text x="44.087999999999994" y="7.181" class="d">help</text><text x="0" y="10.855" class="j">Text</text><text x="0" y="12.692" class="d">↵</text><text x="2.004" y="12.692" class="d">accept</text><text x="9.017999999999999" y="12.692" class="d">·</text><text x="11.021999999999998" y="12.692" class="d">esc</text><text x="15.029999999999998" y="12.692" class="d">cancel</text><text x="0" y="16.366" class="j">Select</text><text x="0" y="18.203000000000003" class="d">↑/↓</text><text x="4.008" y="18.203000000000003" class="d">move</text><text x="9.017999999999999" y="18.203000000000003" class="d">·</text><text x="11.021999999999998" y="18.203000000000003" class="d">↵</text><text x="13.026" y="18.203000000000003" class="d">accept</text><text x="20.04" y="18.203000000000003" class="d">·</text><text x="22.043999999999997" y="18.203000000000003" class="d">esc</text><text x="26.052" y="18.203000000000003" class="d">cancel</text><text x="0" y="21.876999999999995" class="j">Confirm</text><text x="0" y="23.714" class="d">y/n</text><text x="4.008" y="23.714" class="d">yes/no</text><text x="11.021999999999998" y="23.714" class="d">·</text><text x="13.026" y="23.714" class="d">↑</text><text x="15.029999999999998" y="23.714" class="d">toggle</text><text x="22.043999999999997" y="23.714" class="d">·</text><text x="24.048" y="23.714" class="d">↵</text><text x="26.052" y="23.714" class="d">accept</text><text x="33.065999999999995" y="23.714" class="d">·</text><text x="35.06999999999999" y="23.714" class="d">esc</text><text x="39.077999999999996" y="23.714" class="d">cancel</text><text x="0" y="27.387999999999998" class="d">?</text><text x="2.004" y="27.387999999999998" class="d">close</text></svg><svg x="1944"><use xlink:href="#a"></use><use xlink:href="#1" y="0"></use><use xlink:href="#12" y="1.837"></use><use xlink:href="#3" y="3.674"></use><use xlink:href="#4" y="5.511"></use><use xlink:href="#19" y="7.348"></use><use xlink:href="#4" y="9.185"></use><use xlink:href="#20" y="11.022"></use><use xlink:href="#7" y="12.859"></use></svg><svg x="2016"><use xlink:href="#a"></use><use xlink:href="#1" y="0"></use><use xlink:href="#12" y="1.837"></use><use xlink:href="#3" y="3.674"></use><use xlink:href="#4" y="5.511"></use><use xlink:href="#19" y="7.348"></use><use xlink:href="#4" y="9.185"></use><use xlink:href="#20" y="11.022"></use><use xlink:href="#7" y="12.859"></use></svg><svg x="2088"><use xlink:href="#a"></use><use xlink:href="#1" y="0"></use><use xlink:href="#12" y="1.837"></use><use xlink:href="#3" y="3.674"></use><use xlink:href="#4" y="5.511"></use><use xlink:href="#19" y="7.348"></use><use xlink:href="#4" y="9.185"></use><use xlink:href="#20" y="11.022"></use><use xlink:href="#4" y="12.859"></use><use xlink:href="#15" y="14.696"></use><use xlink:href="#4" y="16.533"></use><use xlink:href="#16" y="18.37"></use><use xlink:href="#4" y="20.206999999999997"></use><use xlink:href="#3" y="22.044"></use><use xlink:href="#10" y="23.881000000000004"></use><use xlink:href="#17" y="25.718"></use></svg><svg x="2160"><use xlink:href="#a"></use><use xlink:href="#1" y="0"></use><use xlink:href="#12" y="1.837"></use><use xlink:href="#3" y="3.674"></use><use xlink:href="#4" y="5.511"></use><use xlink:href="#19" y="7.348"></use><use xlink:href="#4" y="9.185"></use><use xlink:href="#20" y="11.022"></use><use xlink:href="#4" y="12.859"></use><use xlink:href="#15" y="14.696"></use><use xlink:href="#4" y="16.533"></use><use xlink:href="#16" y="18.37"></use><use xlink:href="#4" y="20.206999999999997"></use><use xlink:href="#3" y="22.044"></use><use xlink:href="#10" y="23.881000000000004"></use><use xlink:href="#18" y="25.718"></use></svg><svg x="2232"><use xlink:href="#a"></use><use xlink:href="#1" y="0"></use><use xlink:href="#12" y="1.837"></use><use xlink:href="#3" y="3.674"></use><use xlink:href="#4" y="5.511"></use><use xlink:href="#19" y="7.348"></use><use xlink:href="#4" y="9.185"></use><use xlink:href="#20" y="11.022"></use><use xlink:href="#4" y="12.859"></use><use xlink:href="#15" y="14.696"></use><use xlink:href="#4" y="16.533"></use><use xlink:href="#16" y="18.37"></use><use xlink:href="#4" y="20.206999999999997"></use><use xlink:href="#3" y="22.044"></use><use xlink:href="#10" y="23.881000000000004"></use><use xlink:href="#11" y="25.718"></use></svg><svg x="2304"><use xlink:href="#a"></use><use xlink:href="#1" y="0"></use><use xlink:href="#12" y="1.837"></use><use xlink:href="#3" y="3.674"></use><use xlink:href="#4" y="5.511"></use><use xlink:href="#19" y="7.348"></use><use xlink:href="#4" y="9.185"></use><use xlink:href="#22" y="11.022"></use><use xlink:href="#7" y="12.859"></use></svg><svg x="2376"><use xlink:href="#a"></use><use xlink:href="#1" y="0"></use><use xlink:href="#12" y="1.837"></use><use xlink:href="#3" y="3.674"></use><use xlink:href="#4" y="5.511"></use><use xlink:href="#19" y="7.348"></use><use xlink:href="#4" y="9.185"></use><use xlink:href="#22" y="11.022"></use><use xlink:href="#7" y="12.859"></use></svg><svg x="2448"><use xlink:href="#a"></use><use xlink:href="#1" y="0"></use><use xlink:href="#12" y="1.837"></use><use xlink:href="#3" y="3.674"></use><use xlink:href="#4" y="5.511"></use><use xlink:href="#19" y="7.348"></use><use xlink:href="#4" y="9.185"></use><use xlink:href="#22" y="11.022"></use><use xlink:href="#23" y="12.859"></use><use xlink:href="#24" y="14.696"></use><use xlink:href="#4" y="16.533"></use><use xlink:href="#15" y="18.37"></use><use xlink:href="#4" y="20.206999999999997"></use><use xlink:href="#16" y="22.044"></use><use xlink:href="#4" y="23.881000000000004"></use><use xlink:href="#3" y="25.718"></use><use xlink:href="#25" y="27.555"></use></svg><svg x="2520"><use xlink:href="#a"></use><use xlink:href="#1" y="0"></use><use xlink:href="#12" y="1.837"></use><use xlink:href="#3" y="3.674"></use><use xlink:href="#4" y="5.511"></use><use xlink:href="#19" y="7.348"></use><use xlink:href="#4" y="9.185"></use><use xlink:href="#22" y="11.022"></use><use xlink:href="#23" y="12.859"></use><use xlink:href="#24" y="14.696"></use><use xlink:href="#4" y="16.533"></use><use xlink:href="#15" y="18.37"></use><use xlink:href="#4" y="20.206999999999997"></use><use xlink:href="#16" y="22.044"></use><use xlink:href="#4" y="23.881000000000004"></use><use xlink:href="#3" y="25.718"></use><use xlink:href="#25" y="27.555"></use><use xlink:href="#26" y="29.392"></use></svg><svg x="2592"><use xlink:href="#a"></use><use xlink:href="#1" y="0"></use><use xlink:href="#12" y="1.837"></use><use xlink:href="#3" y="3.674"></use><use xlink:href="#4" y="5.511"></use><use xlink:href="#19" y="7.348"></use><use xlink:href="#4" y="9.185"></use><use xlink:href="#22" y="11.022"></use><use xlink:href="#23" y="12.859"></use><use xlink:href="#24" y="14.696"></use><use xlink:href="#4" y="16.533"></use><use xlink:href="#15" y="18.37"></use><use xlink:href="#4" y="20.206999999999997"></use><use xlink:href="#16" y="22.044"></use><use xlink:href="#4" y="23.881000000000004"></use><use xlink:href="#3" y="25.718"></use><use xlink:href="#25" y="27.555"></use><use xlink:href="#11" y="29.392"></use></svg><svg x="2664"><use xlink:href="#a"></use><use xlink:href="#1" y="0"></use><use xlink:href="#12" y="1.837"></use><use xlink:href="#3" y="3.674"></use><use xlink:href="#4" y="5.511"></use><use xlink:href="#19" y="7.348"></use><use xlink:href="#4" y="9.185"></use><use xlink:href="#27" y="11.022"></use><use xlink:href="#28" y="12.859"></use></svg><svg x="2736"><use xlink:href="#a"></use><use xlink:href="#1" y="0"></use><use xlink:href="#12" y="1.837"></use><use xlink:href="#3" y="3.674"></use><use xlink:href="#4" y="5.511"></use><use xlink:href="#19" y="7.348"></use><use xlink:href="#4" y="9.185"></use><use xlink:href="#27" y="11.022"></use><use xlink:href="#28" y="12.859"></use></svg><svg x="2808"><use xlink:href="#a"></use><use xlink:href="#1" y="0"></use><use xlink:href="#12" y="1.837"></use><use xlink:href="#3" y="3.674"></use><use xlink:href="#4" y="5.511"></use><use xlink:href="#19" y="7.348"></use><use xlink:href="#4" y="9.185"></use><use xlink:href="#27" y="11.022"></use><use xlink:href="#29" y="12.859"></use><use xlink:href="#24" y="14.696"></use><use xlink:href="#4" y="16.533"></use><use xlink:href="#15" y="18.37"></use><use xlink:href="#4" y="20.206999999999997"></use><use xlink:href="#16" y="22.044"></use><use xlink:href="#4" y="23.881000000000004"></use><use xlink:href="#3" y="25.718"></use><use xlink:href="#25" y="27.555"></use></svg><svg x="2880"><use xlink:href="#a"></use><use xlink:href="#1" y="0"></use><use xlink:href="#12" y="1.837"></use><use xlink:href="#3" y="3.674"></use><use xlink:href="#4" y="5.511"></use><use xlink:href="#19" y="7.348"></use><use xlink:href="#4" y="9.185"></use><use xlink:href="#27" y="11.022"></use><use xlink:href="#29" y="12.859"></use><use xlink:href="#24" y="14.696"></use><use xlink:href="#4" y="16.533"></use><use xlink:href="#15" y="18.37"></use><use xlink:href="#4" y="20.206999999999997"></use><use xlink:href="#16" y="22.044"></use><use xlink:href="#4" y="23.881000000000004"></use><use xlink:href="#3" y="25.718"></use><use xlink:href="#25" y="27.555"></use><use xlink:href="#26" y="29.392"></use></svg><svg x="2952"><use xlink:href="#a"></use><use xlink:href="#1" y="0"></use><use xlink:href="#12" y="1.837"></use><use xlink:href="#3" y="3.674"></use><use xlink:href="#4" y="5.511"></use><use xlink:href="#19" y="7.348"></use><use xlink:href="#4" y="9.185"></use><use xlink:href="#27" y="11.022"></use><use xlink:href="#29" y="12.859"></use><use xlink:href="#24" y="14.696"></use><use xlink:href="#4" y="16.533"></use><use xlink:href="#15" y="18.37"></use><use xlink:href="#4" y="20.206999999999997"></use><use xlink:href="#16" y="22.044"></use><use xlink:href="#4" y="23.881000000000004"></use><use xlink:href="#3" y="25.718"></use><use xlink:href="#25" y="27.555"></use><use xlink:href="#11" y="29.392"></use></svg><svg x="3024"><use xlink:href="#a"></use><use xlink:href="#1" y="0"></use><use xlink:href="#12" y="1.837"></use><use xlink:href="#3" y="3.674"></use><use xlink:href="#4" y="5.511"></use><use xlink:href="#19" y="7.348"></use><use xlink:href="#4" y="9.185"></use><use xlink:href="#30" y="11.022"></use><use xlink:href="#7" y="12.859"></use></svg><svg x="3096"><use xlink:href="#a"></use><use xlink:href="#1" y="0"></use><use xlink:href="#12" y="1.837"></use><use xlink:href="#3" y="3.674"></use><use xlink:href="#4" y="5.511"></use><use xlink:href="#19" y="7.348"></use><use xlink:href="#4" y="9.185"></use><use xlink:href="#30" y="11.022"></use><use xlink:href="#7" y="12.859"></use></svg><svg x="3168"><use xlink:href="#a"></use><use xlink:href="#1" y="0"></use><use xlink:href="#12" y="1.837"></use><use xlink:href="#3" y="3.674"></use><use xlink:href="#4" y="5.511"></use><use xlink:href="#19" y="7.348"></use><use xlink:href="#4" y="9.185"></use><use xlink:href="#30" y="11.022"></use><use xlink:href="#4" y="12.859"></use><use xlink:href="#15" y="14.696"></use><use xlink:href="#4" y="16.533"></use><use xlink:href="#16" y="18.37"></use><use xlink:href="#4" y="20.206999999999997"></use><use xlink:href="#3" y="22.044"></use><use xlink:href="#10" y="23.881000000000004"></use><text x="0" y="27.387999999999998" class="c">╰───────────────────────────────────────────────────────────────</text></svg><svg x="3240"><use xlink:href="#a"></use><use xlink:href="#1" y="0"></use><use xlink:href="#12" y="1.837"></use><use xlink:href="#3" y="3.674"></use><use xlink:href="#4" y="5.511"></use><use xlink:href="#19" y="7.348"></use><use xlink:href="#4" y="9.185"></use><use xlink:href="#30" y="11.022"></use><use xlink:href="#4" y="12.859"></use><use xlink:href="#15" y="14.696"></use><use xlink:href="#4" y="16.533"></use><use xlink:href="#16" y="18.37"></use><use xlink:href="#4" y="20.206999999999997"></use><use xlink:href="#3" y="22.044"></use><use xlink:href="#10" y="23.881000000000004"></use><text x="0" y="27.387999999999998" class="c">╰─────────────────────────────────────────────────────────────────</text></svg><svg x="3312"><use xlink:href="#a"></use><use xlink:href="#1" y="0"></use><use xlink:href="#12" y="1.837"></use><use xlink:href="#3" y="3.674"></use><use xlink:href="#4" y="5.511"></use><use xlink:href="#19" y="7.348"></use><use xlink:href="#4" y="9.185"></use><use xlink:href="#30" y="11.022"></use><use xlink:href="#4" y="12.859"></use><use xlink:href="#15" y="14.696"></use><use xlink:href="#4" y="16.533"></use><use xlink:href="#16" y="18.37"></use><use xlink:href="#4" y="20.206999999999997"></use><use xlink:href="#3" y="22.044"></use><use xlink:href="#10" y="23.881000000000004"></use><use xlink:href="#11" y="25.718"></use></svg><svg x="3384"><use xlink:href="#a"></use><use xlink:href="#1" y="0"></use><use xlink:href="#2" y="1.837"></use><use xlink:href="#3" y="3.674"></use><use xlink:href="#4" y="5.511"></use><use xlink:href="#5" y="7.348"></use><use xlink:href="#31" y="9.185"></use><use xlink:href="#4" y="11.022"></use><use xlink:href="#7" y="12.859"></use></svg><svg x="3456"><use xlink:href="#a"></use><use xlink:href="#1" y="0"></use><use xlink:href="#2" y="1.837"></use><use xlink:href="#3" y="3.674"></use><use xlink:href="#4" y="5.511"></use><use xlink:href="#5" y="7.348"></use><use xlink:href="#31" y="9.185"></use><use xlink:href="#4" y="11.022"></use><use xlink:href="#8" y="12.859"></use></svg><svg x="3528"><use xlink:href="#a"></use><use xlink:href="#1" y="0"></use><use xlink:href="#2" y="1.837"></use><use xlink:href="#3" y="3.674"></use><use xlink:href="#4" y="5.511"></use><use xlink:href="#5" y="7.348"></use><use xlink:href="#31" y="9.185"></use><use xlink:href="#4" y="11.022"></use><use xlink:href="#9" y="12.859"></use><use xlink:href="#4" y="14.696"></use><use xlink:href="#3" y="16.533"></use><use xlink:href="#10" y="18.37"></use><use xlink:href="#11" y="20.206999999999997"></use></svg><svg x="3600"><use xlink:href="#a"></use><use xlink:href="#1" y="0"></use><use xlink:href="#2" y="1.837"></use><use xlink:href="#3" y="3.674"></use><use xlink:href="#4" y="5.511"></use><use xlink:href="#32" y="7.348"></use><use xlink:href="#33" y="9.185"></use><use xlink:href="#4" y="11.022"></use><text x="0" y="14.529" class="c">│</text><rect height="1.837" width="10" x="4.008" y="12.859" class="k"></rect><text x="4.008" y="14.529" class="l">[ Submit ]</text><text x="16.032" y="14.529" class="i">[</text></svg><svg x="3672"><use xlink:href="#a"></use><use xlink:href="#1" y="0"></use><use xlink:href="#2" y="1.837"></use><use xlink:href="#3" y="3.674"></use><use xlink:href="#4" y="5.511"></use><use xlink:href="#32" y="7.348"></use><use xlink:href="#33" y="9.185"></use><use xlink:href="#4" y="11.022"></use><text x="0" y="14.529" class="c">│</text><rect height="1.837" width="10" x="4.008" y="12.859" class="k"></rect><text x="4.008" y="14.529" class="l">[ Submit ]</text><text x="16.032" y="14.529" class="i">[</text><text x="18.035999999999998" y="14.529" class="i">Cancel</text></svg><svg x="3744"><use xlink:href="#a"></use><use xlink:href="#1" y="0"></use><use xlink:href="#2" y="1.837"></use><use xlink:href="#3" y="3.674"></use><use xlink:href="#4" y="5.511"></use><use xlink:href="#32" y="7.348"></use><use xlink:href="#33" y="9.185"></use><use xlink:href="#4" y="11.022"></use><text x="0" y="14.529" class="c">│</text><rect height="1.837" width="10" x="4.008" y="12.859" class="k"></rect><text x="4.008" y="14.529" class="l">[ Submit ]</text><text x="16.032" y="14.529" class="i">[</text><text x="18.035999999999998" y="14.529" class="i">Cancel</text><text x="25.05" y="14.529" class="i">]</text><text x="71.142" y="14.529" class="c">│</text><use xlink:href="#4" y="14.696"></use><use xlink:href="#3" y="16.533"></use><use xlink:href="#10" y="18.37"></use><use xlink:href="#11" y="20.206999999999997"></use></svg><svg x="3816"><use xlink:href="#a"></use><use xlink:href="#b" x="-0.0040000000000000036" y="0"></use></svg><svg x="3888"><use xlink:href="#a"></use><use xlink:href="#b" x="-0.0040000000000000036" y="9.01"></use><use xlink:href="#34" y="0"></use><use xlink:href="#35" y="1.837"></use><use xlink:href="#36" y="3.674"></use><use xlink:href="#37" y="5.511"></use><use xlink:href="#38" y="7.348"></use></svg><svg x="3960"><use xlink:href="#a"></use><use xlink:href="#b" x="0.996" y="9.01"></use><use xlink:href="#34" y="0"></use><use xlink:href="#35" y="1.837"></use><use xlink:href="#36" y="3.674"></use><use xlink:href="#37" y="5.511"></use><use xlink:href="#38" y="7.348"></use></svg></svg></g></g></svg></svg>