<svg xmlns="http://www.w3.org/2000/svg" xmlns:xlink="http://www.w3.org/1999/xlink" width="800" height="440.88"><rect width="800" height="440.88" rx="0" ry="0" class="a"></rect><svg height="440.88" viewBox="0 0 80 44.088" width="800" xmlns="http://www.w3.org/2000/svg" xmlns:xlink="http://www.w3.org/1999/xlink"><style>.a{fill:rgb(40,44,52)}.b{font-family:Consolas,"Courier New",Courier,"Liberation Mono",monospace}.c{fill:rgb(128,128,128);white-space:pre}.d{fill:rgb(0,128,128);font-weight:bold;white-space:pre}.e{fill:rgb(171,178,191);font-weight:bold;white-space:pre}.f{fill:rgb(128,128,128);font-weight:bold;white-space:pre}.g{fill:rgb(0,128,0);font-weight:bold;white-space:pre}.h{fill:rgb(0,128,0);white-space:pre}.i{fill:rgb(171,178,191);white-space:pre}.j{fill:rgb(0,128,128);white-space:pre}.k{fill:transparent}.l{fill:rgb(82,139,255)}.n{animation-duration:27.954s;animation-iteration-count:infinite;animation-name:m;animation-timing-function:steps(1,end)}.o{fill:rgb(185,192,203)}.p{fill:rgb(40,44,52);font-weight:bold;white-space:pre}@keyframes m{0%{transform:translateX(-0px)}0.42%{transform:translateX(-80px)}1.91%{transform:translateX(-160px)}1.92%{transform:translateX(-240px)}11.01%{transform:translateX(-320px)}19.07%{transform:translateX(-400px)}20.56%{transform:translateX(-480px)}21.99%{transform:translateX(-560px)}25.62%{transform:translateX(-640px)}25.62%{transform:translateX(-720px)}25.76%{transform:translateX(-800px)}38.35%{transform:translateX(-880px)}38.35%{transform:translateX(-960px)}38.48%{transform:translateX(-1040px)}39.78%{transform:translateX(-1120px)}39.78%{transform:translateX(-1200px)}39.91%{transform:translateX(-1280px)}43.44%{transform:translateX(-1360px)}50.29%{transform:translateX(-1440px)}53.92%{transform:translateX(-1520px)}53.92%{transform:translateX(-1600px)}54.06%{transform:translateX(-1680px)}66.47%{transform:translateX(-1760px)}66.47%{transform:translateX(-1840px)}66.6%{transform:translateX(-1920px)}70.12%{transform:translateX(-2000px)}76.99%{transform:translateX(-2080px)}82.93%{transform:translateX(-2160px)}86.46%{transform:translateX(-2240px)}86.58%{transform:translateX(-2320px)}100%{transform:translateX(-2400px)}}</style><g font-family="Consolas, &quot;Courier New&quot;, Courier, &quot;Liberation Mono&quot;, monospace" font-size="1.67" class="b"><defs><symbol id="1"><text x="0" y="1.67" class="c">Produce</text><text x="8.016" y="1.67" class="c">order</text></symbol><symbol id="2"><text x="0" y="1.67" class="d">❯</text><text x="2.004" y="1.67" class="e">Basket</text><text x="9.017999999999999" y="1.67" class="f">›</text></symbol><symbol id="3"><text x="4.008" y="1.67" class="f">Your</text><text x="9.017999999999999" y="1.67" class="f">produce</text><text x="17.034" y="1.67" class="f">selection.</text></symbol><symbol id="4"><text x="4.008" y="1.67" class="g">Pear</text><text x="9.017999999999999" y="1.67" class="g">·</text><text x="11.021999999999998" y="1.67" class="g">6</text><text x="13.026" y="1.67" class="g">·</text><text x="15.029999999999998" y="1.67" class="g">ripe</text></symbol><symbol id="5"><text x="2.004" y="1.67" class="h">[</text><text x="4.008" y="1.67" class="h">Place</text><text x="10.02" y="1.67" class="h">order</text><text x="16.032" y="1.67" class="h">]</text><text x="19.037999999999997" y="1.67" class="h">[</text><text x="21.041999999999998" y="1.67" class="h">Cancel</text><text x="28.055999999999997" y="1.67" class="h">]</text></symbol><symbol id="6"><text x="0" y="1.67" class="c">↑/↓</text><text x="4.008" y="1.67" class="c">move</text><text x="9.017999999999999" y="1.67" class="c">·</text><text x="11.021999999999998" y="1.67" class="c">↵</text><text x="13.026" y="1.67" class="c">select</text><text x="20.04" y="1.67" class="c">·</text><text x="22.043999999999997" y="1.67" class="c">esc</text><text x="26.052" y="1.67" class="c">back</text><text x="31.061999999999998" y="1.67" class="c">·</text><text x="33.065999999999995" y="1.67" class="c">q</text><text x="35.06999999999999" y="1.67" class="c">quit</text><text x="40.08" y="1.67" class="c">·</text><text x="42.083999999999996" y="1.67" class="c">?</text><text x="44.087999999999994" y="1.67" class="c">help</text></symbol><symbol id="7"><text x="0" y="1.67" class="c">Produce</text><text x="8.016" y="1.67" class="c">order</text><text x="14.027999999999999" y="1.67" class="c">›</text><text x="16.032" y="1.67" class="c">Basket</text></symbol><symbol id="8"><text x="2.004" y="1.67" class="i">Quantity</text><text x="12.024" y="1.67" class="h">6</text></symbol><symbol id="9"><text x="2.004" y="1.67" class="i">Ripeness</text><text x="12.024" y="1.67" class="h">ripe</text></symbol><symbol id="10"><text x="2.004" y="1.67" class="i">Gift</text><text x="7.013999999999999" y="1.67" class="i">options</text><text x="15.029999999999998" y="1.67" class="c">›</text></symbol><symbol id="11"><text x="4.008" y="1.67" class="c">Wrap</text><text x="9.017999999999999" y="1.67" class="c">this</text><text x="14.027999999999999" y="1.67" class="c">order</text><text x="20.04" y="1.67" class="c">as</text><text x="23.045999999999996" y="1.67" class="c">a</text><text x="25.05" y="1.67" class="c">gift.</text></symbol><symbol id="12"><text x="4.008" y="1.67" class="h">yes</text><text x="8.016" y="1.67" class="h">·</text><text x="10.02" y="1.67" class="h">Enjoy</text><text x="16.032" y="1.67" class="h">the</text><text x="20.04" y="1.67" class="h">harvest</text></symbol><symbol id="13"><text x="2.004" y="1.67" class="i">Empty</text><text x="8.016" y="1.67" class="i">the</text><text x="12.024" y="1.67" class="i">basket</text><text x="19.037999999999997" y="1.67" class="c">›</text></symbol><symbol id="14"><text x="4.008" y="1.67" class="c">This</text><text x="9.017999999999999" y="1.67" class="c">clears</text><text x="16.032" y="1.67" class="c">every</text><text x="22.043999999999997" y="1.67" class="c">item</text><text x="27.054" y="1.67" class="c">from</text><text x="32.064" y="1.67" class="c">your</text><text x="37.074" y="1.67" class="c">basket.</text></symbol><symbol id="15"><text x="0" y="1.67" class="c">There</text><text x="6.012" y="1.67" class="c">is</text><text x="9.017999999999999" y="1.67" class="c">no</text><text x="12.024" y="1.67" class="c">undo.</text></symbol><symbol id="16"><text x="2.004" y="1.67" class="i">Item</text><text x="8.016" y="1.67" class="h">Pear</text></symbol><symbol id="17"><text x="0" y="1.67" class="d">❯</text><text x="2.004" y="1.67" class="e">Gift</text><text x="7.013999999999999" y="1.67" class="e">options</text><text x="15.029999999999998" y="1.67" class="f">›</text></symbol><symbol id="18"><text x="4.008" y="1.67" class="f">Wrap</text><text x="9.017999999999999" y="1.67" class="f">this</text><text x="14.027999999999999" y="1.67" class="f">order</text><text x="20.04" y="1.67" class="f">as</text><text x="23.045999999999996" y="1.67" class="f">a</text><text x="25.05" y="1.67" class="f">gift.</text></symbol><symbol id="19"><text x="4.008" y="1.67" class="g">yes</text><text x="8.016" y="1.67" class="g">·</text><text x="10.02" y="1.67" class="g">Enjoy</text><text x="16.032" y="1.67" class="g">the</text><text x="20.04" y="1.67" class="g">harvest</text></symbol><symbol id="20"><text x="0" y="1.67" class="i">Produce</text><text x="8.016" y="1.67" class="i">order</text><text x="14.027999999999999" y="1.67" class="i">›</text><text x="16.032" y="1.67" class="i">Basket</text><text x="23.045999999999996" y="1.67" class="i">›</text><text x="25.05" y="1.67" class="i">Gift</text><text x="30.059999999999995" y="1.67" class="i">options</text></symbol><symbol id="21"><text x="2.004" y="1.67" class="i">Item</text><text x="8.016" y="1.67" class="i">P</text><text x="9.017999999999999" y="1.67" class="j">┌────────────────────────────────────────────────────────┐</text></symbol><symbol id="22"><text x="2.004" y="1.67" class="i">Quantit</text><text x="9.017999999999999" y="1.67" class="j">│</text><text x="11.021999999999998" y="1.67" class="d">Gift</text><text x="16.032" y="1.67" class="d">options</text><text x="66.13199999999999" y="1.67" class="j">│</text></symbol><symbol id="23"><text x="2.004" y="1.67" class="i">Ripenes</text><text x="9.017999999999999" y="1.67" class="j">├────────────────────────────────────────────────────────┤</text></symbol><symbol id="24"><text x="2.004" y="1.67" class="i">Gift</text><text x="7.013999999999999" y="1.67" class="i">op</text><text x="9.017999999999999" y="1.67" class="j">│</text><text x="11.021999999999998" y="1.67" class="i">Wrap</text><text x="16.032" y="1.67" class="i">this</text><text x="21.041999999999998" y="1.67" class="i">order</text><text x="27.054" y="1.67" class="i">as</text><text x="30.059999999999995" y="1.67" class="i">a</text><text x="32.064" y="1.67" class="i">gift.</text><text x="66.13199999999999" y="1.67" class="j">│</text></symbol><symbol id="25"><text x="4.008" y="1.67" class="i">Wrap</text><text x="9.017999999999999" y="1.67" class="j">│</text><text x="66.13199999999999" y="1.67" class="j">│</text></symbol><symbol id="26"><text x="4.008" y="1.67" class="i">yes</text><text x="8.016" y="1.67" class="i">·</text><text x="9.017999999999999" y="1.67" class="j">│</text><text x="11.021999999999998" y="1.67" class="d">❯</text><text x="13.026" y="1.67" class="e">Gift</text><text x="18.035999999999998" y="1.67" class="e">wrap?</text><text x="25.05" y="1.67" class="g">yes</text><text x="66.13199999999999" y="1.67" class="j">│</text></symbol><symbol id="27"><text x="2.004" y="1.67" class="i">Empty</text><text x="8.016" y="1.67" class="i">t</text><text x="9.017999999999999" y="1.67" class="j">│</text><text x="13.026" y="1.67" class="i">Gift</text><text x="18.035999999999998" y="1.67" class="i">message</text><text x="27.054" y="1.67" class="h">Enjoy</text><text x="33.065999999999995" y="1.67" class="h">the</text><text x="37.074" y="1.67" class="h">harvest</text><text x="66.13199999999999" y="1.67" class="j">│</text></symbol><symbol id="28"><text x="4.008" y="1.67" class="i">This</text><text x="9.017999999999999" y="1.67" class="j">│</text><text x="66.13199999999999" y="1.67" class="j">│</text></symbol><symbol id="29"><text x="0" y="1.67" class="i">There</text><text x="6.012" y="1.67" class="i">is</text><text x="9.017999999999999" y="1.67" class="j">│</text><text x="13.026" y="1.67" class="h">[</text><text x="15.029999999999998" y="1.67" class="h">Save</text><text x="20.04" y="1.67" class="h">]</text><text x="23.045999999999996" y="1.67" class="h">[</text><text x="25.05" y="1.67" class="h">Discard</text><text x="33.065999999999995" y="1.67" class="h">]</text><text x="66.13199999999999" y="1.67" class="j">│</text></symbol><symbol id="30"><text x="9.017999999999999" y="1.67" class="j">└────────────────────────────────────────────────────────┘</text></symbol><symbol id="31"><text x="0" y="1.67" class="i">↑/↓</text><text x="4.008" y="1.67" class="i">move</text><text x="9.017999999999999" y="1.67" class="i">·</text><text x="11.021999999999998" y="1.67" class="i">↵</text><text x="13.026" y="1.67" class="i">select</text><text x="20.04" y="1.67" class="i">·</text><text x="22.043999999999997" y="1.67" class="i">esc</text><text x="26.052" y="1.67" class="i">back</text><text x="31.061999999999998" y="1.67" class="i">·</text><text x="33.065999999999995" y="1.67" class="i">q</text><text x="35.06999999999999" y="1.67" class="i">quit</text><text x="40.08" y="1.67" class="i">·</text><text x="42.083999999999996" y="1.67" class="i">?</text><text x="44.087999999999994" y="1.67" class="i">help</text></symbol><symbol id="32"><text x="4.008" y="1.67" class="i">yes</text><text x="8.016" y="1.67" class="i">·</text><text x="9.017999999999999" y="1.67" class="j">│</text><text x="13.026" y="1.67" class="i">Gift</text><text x="18.035999999999998" y="1.67" class="i">wrap?</text><text x="25.05" y="1.67" class="h">yes</text><text x="66.13199999999999" y="1.67" class="j">│</text></symbol><symbol id="33"><text x="0" y="1.67" class="d">❯</text><text x="2.004" y="1.67" class="e">Empty</text><text x="8.016" y="1.67" class="e">the</text><text x="12.024" y="1.67" class="e">basket</text><text x="19.037999999999997" y="1.67" class="f">›</text></symbol><symbol id="34"><text x="4.008" y="1.67" class="f">This</text><text x="9.017999999999999" y="1.67" class="f">clears</text><text x="16.032" y="1.67" class="f">every</text><text x="22.043999999999997" y="1.67" class="f">item</text><text x="27.054" y="1.67" class="f">from</text><text x="32.064" y="1.67" class="f">your</text><text x="37.074" y="1.67" class="f">basket.</text></symbol><symbol id="35"><text x="0" y="1.67" class="f">There</text><text x="6.012" y="1.67" class="f">is</text><text x="9.017999999999999" y="1.67" class="f">no</text><text x="12.024" y="1.67" class="f">undo.</text></symbol><symbol id="36"><text x="0" y="1.67" class="i">Produce</text><text x="8.016" y="1.67" class="i">order</text><text x="14.027999999999999" y="1.67" class="i">›</text><text x="16.032" y="1.67" class="i">Basket</text><text x="23.045999999999996" y="1.67" class="i">›</text><text x="25.05" y="1.67" class="i">Empty</text><text x="31.061999999999998" y="1.67" class="i">the</text><text x="35.06999999999999" y="1.67" class="i">basket</text></symbol><symbol id="37"><text x="2.004" y="1.67" class="i">Item</text><text x="8.016" y="1.67" class="i">Pear</text></symbol><symbol id="38"><text x="2.004" y="1.67" class="i">Quantit</text><text x="9.017999999999999" y="1.67" class="j">┌────────────────────────────────────────────────────────┐</text></symbol><symbol id="39"><text x="2.004" y="1.67" class="i">Ripenes</text><text x="9.017999999999999" y="1.67" class="j">│</text><text x="11.021999999999998" y="1.67" class="d">Empty</text><text x="17.034" y="1.67" class="d">the</text><text x="21.041999999999998" y="1.67" class="d">basket</text><text x="66.13199999999999" y="1.67" class="j">│</text></symbol><symbol id="40"><text x="2.004" y="1.67" class="i">Gift</text><text x="7.013999999999999" y="1.67" class="i">op</text><text x="9.017999999999999" y="1.67" class="j">├────────────────────────────────────────────────────────┤</text></symbol><symbol id="41"><text x="4.008" y="1.67" class="i">Wrap</text><text x="9.017999999999999" y="1.67" class="j">│</text><text x="11.021999999999998" y="1.67" class="i">This</text><text x="16.032" y="1.67" class="i">clears</text><text x="23.045999999999996" y="1.67" class="i">every</text><text x="29.058" y="1.67" class="i">item</text><text x="34.068" y="1.67" class="i">from</text><text x="39.077999999999996" y="1.67" class="i">your</text><text x="44.087999999999994" y="1.67" class="i">basket.</text><text x="66.13199999999999" y="1.67" class="j">│</text></symbol><symbol id="42"><text x="4.008" y="1.67" class="i">yes</text><text x="8.016" y="1.67" class="i">·</text><text x="9.017999999999999" y="1.67" class="j">│</text><text x="11.021999999999998" y="1.67" class="i">There</text><text x="17.034" y="1.67" class="i">is</text><text x="20.04" y="1.67" class="i">no</text><text x="23.045999999999996" y="1.67" class="i">undo.</text><text x="66.13199999999999" y="1.67" class="j">│</text></symbol><symbol id="43"><text x="2.004" y="1.67" class="i">Empty</text><text x="8.016" y="1.67" class="i">t</text><text x="9.017999999999999" y="1.67" class="j">│</text></symbol><symbol id="44"><text x="2.004" y="1.67" class="i">Empty</text><text x="8.016" y="1.67" class="i">t</text><text x="9.017999999999999" y="1.67" class="j">│</text><text x="66.13199999999999" y="1.67" class="j">│</text></symbol><symbol id="45"><text x="0" y="1.67" class="i">There</text><text x="6.012" y="1.67" class="i">is</text><text x="9.017999999999999" y="1.67" class="j">└────────────────────────────────────────────────────────┘</text></symbol><symbol id="46"><text x="0" y="1.67" class="i">Basket</text></symbol><symbol id="47"><text x="2.004" y="1.67" class="i">Item:</text><text x="8.016" y="1.67" class="i">Pear</text></symbol><symbol id="48"><text x="2.004" y="1.67" class="i">Quantity:</text><text x="12.024" y="1.67" class="i">6</text></symbol><symbol id="49"><text x="2.004" y="1.67" class="i">Ripeness:</text><text x="12.024" y="1.67" class="i">ripe</text></symbol><symbol id="50"><text x="2.004" y="1.67" class="i">Gift</text><text x="7.013999999999999" y="1.67" class="i">options</text></symbol><symbol id="51"><text x="4.008" y="1.67" class="i">Gift</text><text x="9.017999999999999" y="1.67" class="i">wrap?:</text><text x="16.032" y="1.67" class="i">yes</text></symbol><symbol id="52"><text x="4.008" y="1.67" class="i">Gift</text><text x="9.017999999999999" y="1.67" class="i">message:</text><text x="18.035999999999998" y="1.67" class="i">Enjoy</text><text x="24.048" y="1.67" class="i">the</text><text x="28.055999999999997" y="1.67" class="i">harvest</text></symbol><symbol id="a"><rect height="24" width="80" x="0" y="0" class="k"></rect></symbol><symbol id="b"><rect height="1.837" width="1.1022" class="l"></rect></symbol></defs><rect height="44.088" width="80" class="a"></rect><g class="n"><svg x="0" y="0" width="2480"><svg x="0"><use xlink:href="#a"></use><use xlink:href="#b" x="-0.0040000000000000036" y="0"></use></svg><svg x="80"><use xlink:href="#a"></use><use xlink:href="#b" x="-0.0040000000000000036" y="0"></use></svg><svg x="160"><use xlink:href="#a"></use></svg><svg x="240"><use xlink:href="#a"></use><use xlink:href="#1" y="0"></use><use xlink:href="#2" y="1.837"></use><use xlink:href="#3" y="3.674"></use><use xlink:href="#4" y="5.511"></use><use xlink:href="#5" y="9.185"></use><use xlink:href="#6" y="12.859"></use></svg><svg x="320"><use xlink:href="#a"></use><use xlink:href="#7" y="0"></use><text x="0" y="3.5069999999999997" class="d">❯</text><text x="2.004" y="3.5069999999999997" class="e">Item</text><text x="8.016" y="3.5069999999999997" class="g">Pear</text><use xlink:href="#8" y="3.674"></use><use xlink:href="#9" y="5.511"></use><use xlink:href="#10" y="7.348"></use><use xlink:href="#11" y="9.185"></use><use xlink:href="#12" y="11.022"></use><use xlink:href="#13" y="12.859"></use><use xlink:href="#14" y="14.696"></use><use xlink:href="#15" y="16.533"></use><use xlink:href="#6" y="20.206999999999997"></use></svg><svg x="400"><use xlink:href="#a"></use><use xlink:href="#7" y="0"></use><use xlink:href="#16" y="1.837"></use><text x="0" y="5.343999999999999" class="d">❯</text><text x="2.004" y="5.343999999999999" class="e">Quantity</text><text x="12.024" y="5.343999999999999" class="g">6</text><use xlink:href="#9" y="5.511"></use><use xlink:href="#10" y="7.348"></use><use xlink:href="#11" y="9.185"></use><use xlink:href="#12" y="11.022"></use><use xlink:href="#13" y="12.859"></use><use xlink:href="#14" y="14.696"></use><use xlink:href="#15" y="16.533"></use><use xlink:href="#6" y="20.206999999999997"></use></svg><svg x="480"><use xlink:href="#a"></use><use xlink:href="#7" y="0"></use><use xlink:href="#16" y="1.837"></use><use xlink:href="#8" y="3.674"></use><text x="0" y="7.181" class="d">❯</text><text x="2.004" y="7.181" class="e">Ripeness</text><text x="12.024" y="7.181" class="g">ripe</text><use xlink:href="#10" y="7.348"></use><use xlink:href="#11" y="9.185"></use><use xlink:href="#12" y="11.022"></use><use xlink:href="#13" y="12.859"></use><use xlink:href="#14" y="14.696"></use><use xlink:href="#15" y="16.533"></use><use xlink:href="#6" y="20.206999999999997"></use></svg><svg x="560"><use xlink:href="#a"></use><use xlink:href="#7" y="0"></use><use xlink:href="#16" y="1.837"></use><use xlink:href="#8" y="3.674"></use><use xlink:href="#9" y="5.511"></use><use xlink:href="#17" y="7.348"></use><use xlink:href="#18" y="9.185"></use><use xlink:href="#19" y="11.022"></use><use xlink:href="#13" y="12.859"></use><use xlink:href="#14" y="14.696"></use><use xlink:href="#15" y="16.533"></use><use xlink:href="#6" y="20.206999999999997"></use></svg><svg x="640"><use xlink:href="#a"></use><use xlink:href="#20" y="0"></use><use xlink:href="#21" y="1.837"></use><use xlink:href="#22" y="3.674"></use><use xlink:href="#23" y="5.511"></use><use xlink:href="#24" y="7.348"></use><use xlink:href="#25" y="9.185"></use><text x="4.008" y="12.692" class="i">yes</text><text x="8.016" y="12.692" class="i">·</text><text x="9.017999999999999" y="12.692" class="j">│</text><text x="11.021999999999998" y="12.692" class="d">❯</text><text x="13.026" y="12.692" class="e">Gift</text><text x="18.035999999999998" y="12.692" class="e">wrap?</text><text x="25.05" y="12.692" class="g">yes</text></svg><svg x="720"><use xlink:href="#a"></use><use xlink:href="#20" y="0"></use><use xlink:href="#21" y="1.837"></use><use xlink:href="#22" y="3.674"></use><use xlink:href="#23" y="5.511"></use><use xlink:href="#24" y="7.348"></use><use xlink:href="#25" y="9.185"></use><use xlink:href="#26" y="11.022"></use></svg><svg x="800"><use xlink:href="#a"></use><use xlink:href="#20" y="0"></use><use xlink:href="#21" y="1.837"></use><use xlink:href="#22" y="3.674"></use><use xlink:href="#23" y="5.511"></use><use xlink:href="#24" y="7.348"></use><use xlink:href="#25" y="9.185"></use><use xlink:href="#26" y="11.022"></use><use xlink:href="#27" y="12.859"></use><use xlink:href="#28" y="14.696"></use><use xlink:href="#29" y="16.533"></use><use xlink:href="#30" y="18.37"></use><use xlink:href="#31" y="20.206999999999997"></use></svg><svg x="880"><use xlink:href="#a"></use><use xlink:href="#20" y="0"></use><use xlink:href="#21" y="1.837"></use><use xlink:href="#22" y="3.674"></use><use xlink:href="#23" y="5.511"></use><use xlink:href="#24" y="7.348"></use><use xlink:href="#25" y="9.185"></use><use xlink:href="#32" y="11.022"></use></svg><svg x="960"><use xlink:href="#a"></use><use xlink:href="#20" y="0"></use><use xlink:href="#21" y="1.837"></use><use xlink:href="#22" y="3.674"></use><use xlink:href="#23" y="5.511"></use><use xlink:href="#24" y="7.348"></use><use xlink:href="#25" y="9.185"></use><use xlink:href="#32" y="11.022"></use></svg><svg x="1040"><use xlink:href="#a"></use><use xlink:href="#20" y="0"></use><use xlink:href="#21" y="1.837"></use><use xlink:href="#22" y="3.674"></use><use xlink:href="#23" y="5.511"></use><use xlink:href="#24" y="7.348"></use><use xlink:href="#25" y="9.185"></use><use xlink:href="#32" y="11.022"></use><text x="2.004" y="14.529" class="i">Empty</text><text x="8.016" y="14.529" class="i">t</text><text x="9.017999999999999" y="14.529" class="j">│</text><text x="11.021999999999998" y="14.529" class="d">❯</text><text x="13.026" y="14.529" class="e">Gift</text><text x="18.035999999999998" y="14.529" class="e">message</text><text x="27.054" y="14.529" class="g">Enjoy</text><text x="33.065999999999995" y="14.529" class="g">the</text><text x="37.074" y="14.529" class="g">harvest</text><text x="66.13199999999999" y="14.529" class="j">│</text><use xlink:href="#28" y="14.696"></use><use xlink:href="#29" y="16.533"></use><use xlink:href="#30" y="18.37"></use><use xlink:href="#31" y="20.206999999999997"></use></svg><svg x="1120"><use xlink:href="#a"></use><use xlink:href="#20" y="0"></use><use xlink:href="#21" y="1.837"></use><use xlink:href="#22" y="3.674"></use><use xlink:href="#23" y="5.511"></use><use xlink:href="#24" y="7.348"></use><use xlink:href="#25" y="9.185"></use><use xlink:href="#32" y="11.022"></use></svg><svg x="1200"><use xlink:href="#a"></use><use xlink:href="#20" y="0"></use><use xlink:href="#21" y="1.837"></use><use xlink:href="#22" y="3.674"></use><use xlink:href="#23" y="5.511"></use><use xlink:href="#24" y="7.348"></use><use xlink:href="#25" y="9.185"></use><use xlink:href="#32" y="11.022"></use></svg><svg x="1280"><use xlink:href="#a"></use><use xlink:href="#20" y="0"></use><use xlink:href="#21" y="1.837"></use><use xlink:href="#22" y="3.674"></use><use xlink:href="#23" y="5.511"></use><use xlink:href="#24" y="7.348"></use><use xlink:href="#25" y="9.185"></use><use xlink:href="#32" y="11.022"></use><use xlink:href="#27" y="12.859"></use><use xlink:href="#28" y="14.696"></use><text x="0" y="18.203000000000003" class="i">There</text><text x="6.012" y="18.203000000000003" class="i">is</text><text x="9.017999999999999" y="18.203000000000003" class="j">│</text><rect height="1.837" width="8" x="13.026" y="16.533" class="o"></rect><text x="13.026" y="18.203000000000003" class="p">[ Save ]</text><text x="23.045999999999996" y="18.203000000000003" class="h">[</text><text x="25.05" y="18.203000000000003" class="h">Discard</text><text x="33.065999999999995" y="18.203000000000003" class="h">]</text><text x="66.13199999999999" y="18.203000000000003" class="j">│</text><use xlink:href="#30" y="18.37"></use><use xlink:href="#31" y="20.206999999999997"></use></svg><svg x="1360"><use xlink:href="#a"></use><use xlink:href="#7" y="0"></use><use xlink:href="#16" y="1.837"></use><use xlink:href="#8" y="3.674"></use><use xlink:href="#9" y="5.511"></use><use xlink:href="#17" y="7.348"></use><use xlink:href="#18" y="9.185"></use><use xlink:href="#19" y="11.022"></use><use xlink:href="#13" y="12.859"></use><use xlink:href="#14" y="14.696"></use><use xlink:href="#15" y="16.533"></use><use xlink:href="#6" y="20.206999999999997"></use></svg><svg x="1440"><use xlink:href="#a"></use><use xlink:href="#7" y="0"></use><use xlink:href="#16" y="1.837"></use><use xlink:href="#8" y="3.674"></use><use xlink:href="#9" y="5.511"></use><use xlink:href="#10" y="7.348"></use><use xlink:href="#11" y="9.185"></use><use xlink:href="#12" y="11.022"></use><use xlink:href="#33" y="12.859"></use><use xlink:href="#34" y="14.696"></use><use xlink:href="#35" y="16.533"></use><use xlink:href="#6" y="20.206999999999997"></use></svg><svg x="1520"><use xlink:href="#a"></use><use xlink:href="#36" y="0"></use><use xlink:href="#37" y="1.837"></use><use xlink:href="#38" y="3.674"></use><use xlink:href="#39" y="5.511"></use><use xlink:href="#40" y="7.348"></use><use xlink:href="#41" y="9.185"></use><use xlink:href="#42" y="11.022"></use><use xlink:href="#43" y="12.859"></use></svg><svg x="1600"><use xlink:href="#a"></use><use xlink:href="#36" y="0"></use><use xlink:href="#37" y="1.837"></use><use xlink:href="#38" y="3.674"></use><use xlink:href="#39" y="5.511"></use><use xlink:href="#40" y="7.348"></use><use xlink:href="#41" y="9.185"></use><use xlink:href="#42" y="11.022"></use><use xlink:href="#43" y="12.859"></use></svg><svg x="1680"><use xlink:href="#a"></use><use xlink:href="#36" y="0"></use><use xlink:href="#37" y="1.837"></use><use xlink:href="#38" y="3.674"></use><use xlink:href="#39" y="5.511"></use><use xlink:href="#40" y="7.348"></use><use xlink:href="#41" y="9.185"></use><use xlink:href="#42" y="11.022"></use><use xlink:href="#44" y="12.859"></use><text x="4.008" y="16.366" class="i">This</text><text x="9.017999999999999" y="16.366" class="j">│</text><rect height="1.837" width="12" x="13.026" y="14.696" class="o"></rect><text x="13.026" y="16.366" class="p">[ Empty it ]</text><text x="27.054" y="16.366" class="h">[</text><text x="29.058" y="16.366" class="h">Keep</text><text x="34.068" y="16.366" class="h">it</text><text x="37.074" y="16.366" class="h">]</text><text x="66.13199999999999" y="16.366" class="j">│</text><use xlink:href="#45" y="16.533"></use><use xlink:href="#31" y="20.206999999999997"></use></svg><svg x="1760"><use xlink:href="#a"></use><use xlink:href="#36" y="0"></use><use xlink:href="#37" y="1.837"></use><use xlink:href="#38" y="3.674"></use><use xlink:href="#39" y="5.511"></use><use xlink:href="#40" y="7.348"></use><use xlink:href="#41" y="9.185"></use><use xlink:href="#42" y="11.022"></use><use xlink:href="#43" y="12.859"></use></svg><svg x="1840"><use xlink:href="#a"></use><use xlink:href="#36" y="0"></use><use xlink:href="#37" y="1.837"></use><use xlink:href="#38" y="3.674"></use><use xlink:href="#39" y="5.511"></use><use xlink:href="#40" y="7.348"></use><use xlink:href="#41" y="9.185"></use><use xlink:href="#42" y="11.022"></use><use xlink:href="#43" y="12.859"></use></svg><svg x="1920"><use xlink:href="#a"></use><use xlink:href="#36" y="0"></use><use xlink:href="#37" y="1.837"></use><use xlink:href="#38" y="3.674"></use><use xlink:href="#39" y="5.511"></use><use xlink:href="#40" y="7.348"></use><use xlink:href="#41" y="9.185"></use><use xlink:href="#42" y="11.022"></use><use xlink:href="#44" y="12.859"></use><text x="4.008" y="16.366" class="i">This</text><text x="9.017999999999999" y="16.366" class="j">│</text><text x="13.026" y="16.366" class="h">[</text><text x="15.029999999999998" y="16.366" class="h">Empty</text><text x="21.041999999999998" y="16.366" class="h">it</text><text x="24.048" y="16.366" class="h">]</text><rect height="1.837" width="11" x="27.054" y="14.696" class="o"></rect><text x="27.054" y="16.366" class="p">[ Keep it ]</text><text x="66.13199999999999" y="16.366" class="j">│</text><use xlink:href="#45" y="16.533"></use><use xlink:href="#31" y="20.206999999999997"></use></svg><svg x="2000"><use xlink:href="#a"></use><use xlink:href="#7" y="0"></use><use xlink:href="#16" y="1.837"></use><use xlink:href="#8" y="3.674"></use><use xlink:href="#9" y="5.511"></use><use xlink:href="#10" y="7.348"></use><use xlink:href="#11" y="9.185"></use><use xlink:href="#12" y="11.022"></use><use xlink:href="#33" y="12.859"></use><use xlink:href="#34" y="14.696"></use><use xlink:href="#35" y="16.533"></use><use xlink:href="#6" y="20.206999999999997"></use></svg><svg x="2080"><use xlink:href="#a"></use><use xlink:href="#1" y="0"></use><use xlink:href="#2" y="1.837"></use><use xlink:href="#3" y="3.674"></use><use xlink:href="#4" y="5.511"></use><use xlink:href="#5" y="9.185"></use><use xlink:href="#6" y="12.859"></use></svg><svg x="2160"><use xlink:href="#a"></use><use xlink:href="#1" y="0"></use><text x="2.004" y="3.5069999999999997" class="i">Basket</text><text x="9.017999999999999" y="3.5069999999999997" class="c">›</text><text x="4.008" y="5.343999999999999" class="c">Your</text><text x="9.017999999999999" y="5.343999999999999" class="c">produce</text><text x="17.034" y="5.343999999999999" class="c">selection.</text><text x="4.008" y="7.181" class="h">Pear</text><text x="9.017999999999999" y="7.181" class="h">·</text><text x="11.021999999999998" y="7.181" class="h">6</text><text x="13.026" y="7.181" class="h">·</text><text x="15.029999999999998" y="7.181" class="h">ripe</text><rect height="1.837" width="15" x="2.004" y="9.185" class="o"></rect><text x="2.004" y="10.855" class="p">[ Place order ]</text><text x="19.037999999999997" y="10.855" class="h">[</text><text x="21.041999999999998" y="10.855" class="h">Cancel</text><text x="28.055999999999997" y="10.855" class="h">]</text><use xlink:href="#6" y="12.859"></use></svg><svg x="2240"><use xlink:href="#a"></use><use xlink:href="#b" x="-0.0040000000000000036" y="0"></use></svg><svg x="2320"><use xlink:href="#a"></use><use xlink:href="#b" x="-0.0040000000000000036" y="12.684"></use><use xlink:href="#46" y="0"></use><use xlink:href="#47" y="1.837"></use><use xlink:href="#48" y="3.674"></use><use xlink:href="#49" y="5.511"></use><use xlink:href="#50" y="7.348"></use><use xlink:href="#51" y="9.185"></use><use xlink:href="#52" y="11.022"></use></svg><svg x="2400"><use xlink:href="#a"></use><use xlink:href="#b" x="0.996" y="12.684"></use><use xlink:href="#46" y="0"></use><use xlink:href="#47" y="1.837"></use><use xlink:href="#48" y="3.674"></use><use xlink:href="#49" y="5.511"></use><use xlink:href="#50" y="7.348"></use><use xlink:href="#51" y="9.185"></use><use xlink:href="#52" y="11.022"></use></svg></svg></g></g></svg></svg>