<svg xmlns="http://www.w3.org/2000/svg" xmlns:xlink="http://www.w3.org/1999/xlink" width="800" height="440.88"><rect width="800" height="440.88" rx="0" ry="0" class="a"></rect><svg height="440.88" viewBox="0 0 80 44.088" width="800" xmlns="http://www.w3.org/2000/svg" xmlns:xlink="http://www.w3.org/1999/xlink"><style>.a{fill:rgb(40,44,52)}.b{font-family:Consolas,"Courier New",Courier,"Liberation Mono",monospace}.c{fill:rgb(128,128,128);white-space:pre}.d{fill:rgb(0,128,128);font-weight:bold;white-space:pre}.e{fill:rgb(171,178,191);font-weight:bold;white-space:pre}.f{fill:rgb(128,128,128);font-weight:bold;white-space:pre}.g{fill:rgb(0,128,0);font-weight:bold;white-space:pre}.h{fill:rgb(171,178,191);white-space:pre}.i{fill:rgb(0,128,0);white-space:pre}.j{fill:rgb(185,192,203)}.k{fill:rgb(40,44,52);font-weight:bold;white-space:pre}.l{fill:rgb(40,44,52);white-space:pre}.m{fill:transparent}.n{fill:rgb(82,139,255)}.p{animation-duration:31.758s;animation-iteration-count:infinite;animation-name:o;animation-timing-function:steps(1,end)}@keyframes o{0%{transform:translateX(-0px)}2.82%{transform:translateX(-80px)}2.83%{transform:translateX(-160px)}9.25%{transform:translateX(-240px)}14.96%{transform:translateX(-320px)}19.88%{transform:translateX(-400px)}24.07%{transform:translateX(-480px)}25.71%{transform:translateX(-560px)}30.39%{transform:translateX(-640px)}34.6%{transform:translateX(-720px)}35.55%{transform:translateX(-800px)}37.46%{transform:translateX(-880px)}41.71%{transform:translateX(-960px)}42.69%{transform:translateX(-1040px)}44.31%{transform:translateX(-1120px)}49.06%{transform:translateX(-1200px)}53.23%{transform:translateX(-1280px)}54.08%{transform:translateX(-1360px)}55.15%{transform:translateX(-1440px)}57.07%{transform:translateX(-1520px)}61.23%{transform:translateX(-1600px)}62.26%{transform:translateX(-1680px)}63.84%{transform:translateX(-1760px)}68.57%{transform:translateX(-1840px)}72.25%{transform:translateX(-1920px)}72.79%{transform:translateX(-2000px)}73.31%{transform:translateX(-2080px)}73.83%{transform:translateX(-2160px)}74.84%{transform:translateX(-2240px)}75.85%{transform:translateX(-2320px)}76.83%{transform:translateX(-2400px)}78.72%{transform:translateX(-2480px)}80.33%{transform:translateX(-2560px)}81.97%{transform:translateX(-2640px)}83.54%{transform:translateX(-2720px)}87.7%{transform:translateX(-2800px)}88.65%{transform:translateX(-2880px)}90.55%{transform:translateX(-2960px)}100%{transform:translateX(-3040px)}}</style><g font-family="Consolas, &quot;Courier New&quot;, Courier, &quot;Liberation Mono&quot;, monospace" font-size="1.67" class="b"><defs><symbol id="1"><text x="0" y="1.67" class="c">Site</text><text x="5.01" y="1.67" class="c">settings</text></symbol><symbol id="2"><text x="0" y="1.67" class="d">❯</text><text x="2.004" y="1.67" class="e">Identity</text><text x="11.021999999999998" y="1.67" class="f">›</text></symbol><symbol id="3"><text x="4.008" y="1.67" class="f">Who</text><text x="8.016" y="1.67" class="f">this</text><text x="13.026" y="1.67" class="f">site</text><text x="18.035999999999998" y="1.67" class="f">is.</text></symbol><symbol id="4"><text x="4.008" y="1.67" class="g">Umami</text><text x="10.02" y="1.67" class="g">·</text><text x="12.024" y="1.67" class="g">umami</text></symbol><symbol id="5"><text x="2.004" y="1.67" class="h">Stack</text><text x="8.016" y="1.67" class="c">›</text></symbol><symbol id="6"><text x="4.008" y="1.67" class="c">What</text><text x="9.017999999999999" y="1.67" class="c">the</text><text x="13.026" y="1.67" class="c">site</text><text x="18.035999999999998" y="1.67" class="c">runs</text><text x="23.045999999999996" y="1.67" class="c">on.</text></symbol><symbol id="7"><text x="4.008" y="1.67" class="i">dev</text><text x="8.016" y="1.67" class="i">·</text><text x="10.02" y="1.67" class="i">no</text></symbol><symbol id="8"><text x="2.004" y="1.67" class="i">[</text><text x="4.008" y="1.67" class="i">Save</text><text x="9.017999999999999" y="1.67" class="i">]</text><text x="12.024" y="1.67" class="i">[</text><text x="14.027999999999999" y="1.67" class="i">Discard</text><text x="22.043999999999997" y="1.67" class="i">]</text></symbol><symbol id="9"><text x="0" y="1.67" class="c">↑/↓</text><text x="4.008" y="1.67" class="c">move</text><text x="9.017999999999999" y="1.67" class="c">·</text><text x="11.021999999999998" y="1.67" class="c">↵</text><text x="13.026" y="1.67" class="c">select</text><text x="20.04" y="1.67" class="c">·</text><text x="22.043999999999997" y="1.67" class="c">esc</text><text x="26.052" y="1.67" class="c">back</text></symbol><symbol id="10"><text x="0" y="1.67" class="c">Site</text><text x="5.01" y="1.67" class="c">settings</text><text x="14.027999999999999" y="1.67" class="c">›</text><text x="16.032" y="1.67" class="c">Identity</text></symbol><symbol id="11"><text x="2.004" y="1.67" class="h">Identity</text><text x="11.021999999999998" y="1.67" class="c">›</text></symbol><symbol id="12"><text x="4.008" y="1.67" class="c">Who</text><text x="8.016" y="1.67" class="c">this</text><text x="13.026" y="1.67" class="c">site</text><text x="18.035999999999998" y="1.67" class="c">is.</text></symbol><symbol id="13"><text x="4.008" y="1.67" class="i">Umami</text><text x="10.02" y="1.67" class="i">·</text><text x="12.024" y="1.67" class="i">umami</text></symbol><symbol id="14"><text x="0" y="1.67" class="d">❯</text><text x="2.004" y="1.67" class="e">Stack</text><text x="8.016" y="1.67" class="f">›</text></symbol><symbol id="15"><text x="4.008" y="1.67" class="f">What</text><text x="9.017999999999999" y="1.67" class="f">the</text><text x="13.026" y="1.67" class="f">site</text><text x="18.035999999999998" y="1.67" class="f">runs</text><text x="23.045999999999996" y="1.67" class="f">on.</text></symbol><symbol id="16"><text x="0" y="1.67" class="c">Site</text><text x="5.01" y="1.67" class="c">settings</text><text x="14.027999999999999" y="1.67" class="c">›</text><text x="16.032" y="1.67" class="c">Stack</text></symbol><symbol id="17"><text x="2.004" y="1.67" class="h">Serve</text><text x="8.016" y="1.67" class="h">via</text><text x="12.024" y="1.67" class="h">CDN?</text><text x="18.035999999999998" y="1.67" class="i">no</text></symbol><symbol id="18"><text x="2.004" y="1.67" class="h">Services</text><text x="11.021999999999998" y="1.67" class="c">›</text></symbol><symbol id="19"><text x="4.008" y="1.67" class="c">Optional</text><text x="13.026" y="1.67" class="c">backing</text><text x="21.041999999999998" y="1.67" class="c">services.</text></symbol><symbol id="20"><text x="0" y="1.67" class="d">Environment</text></symbol><symbol id="21"><text x="0" y="1.67" class="c">───────────</text></symbol><symbol id="22"><text x="0" y="1.67" class="h">○</text><text x="2.004" y="1.67" class="h">Staging</text></symbol><symbol id="23"><text x="0" y="1.67" class="h">○</text><text x="2.004" y="1.67" class="h">Production</text></symbol><symbol id="24"><text x="0" y="1.67" class="c">↵</text><text x="2.004" y="1.67" class="c">accept</text><text x="9.017999999999999" y="1.67" class="c">·</text><text x="11.021999999999998" y="1.67" class="c">esc</text><text x="15.029999999999998" y="1.67" class="c">cancel</text></symbol><symbol id="25"><text x="0" y="1.67" class="h">○</text><text x="2.004" y="1.67" class="h">Development</text></symbol><symbol id="26"><text x="0" y="1.67" class="d">❯</text><text x="2.004" y="1.67" class="e">Environment</text><text x="15.029999999999998" y="1.67" class="g">prod</text><rect height="1.837" width="8" x="68.136" y="0" class="j"></rect><text x="68.136" y="1.67" class="k"> edited </text></symbol><symbol id="27"><text x="2.004" y="1.67" class="h">Environment</text><text x="15.029999999999998" y="1.67" class="i">prod</text><rect height="1.837" width="8" x="68.136" y="0" class="j"></rect><text x="68.136" y="1.67" class="l"> edited </text></symbol><symbol id="28"><text x="0" y="1.67" class="c">Site</text><text x="5.01" y="1.67" class="c">settings</text><text x="14.027999999999999" y="1.67" class="c">›</text><text x="16.032" y="1.67" class="c">Stack</text><text x="22.043999999999997" y="1.67" class="c">›</text><text x="24.048" y="1.67" class="c">Services</text></symbol><symbol id="29"><text x="2.004" y="1.67" class="h">Solr</text><text x="7.013999999999999" y="1.67" class="h">core</text></symbol><symbol id="30"><text x="2.004" y="1.67" class="h">Tuning</text><text x="9.017999999999999" y="1.67" class="c">›</text></symbol><symbol id="31"><text x="4.008" y="1.67" class="i">256M</text></symbol><symbol id="32"><text x="0" y="1.67" class="d">Enabled</text><text x="8.016" y="1.67" class="d">services</text></symbol><symbol id="33"><text x="0" y="1.67" class="c">────────────────</text></symbol><symbol id="34"><text x="2.004" y="1.67" class="h">◻</text><text x="4.008" y="1.67" class="h">Redis</text></symbol><symbol id="35"><text x="2.004" y="1.67" class="h">◻</text><text x="4.008" y="1.67" class="h">ClamAV</text></symbol><symbol id="36"><text x="2.004" y="1.67" class="i">◼</text><text x="4.008" y="1.67" class="h">Solr</text></symbol><symbol id="37"><text x="0" y="1.67" class="d">❯</text><text x="2.004" y="1.67" class="e">Enabled</text><text x="10.02" y="1.67" class="e">services</text><text x="20.04" y="1.67" class="g">solr,</text><text x="26.052" y="1.67" class="g">redis</text><rect height="1.837" width="8" x="68.136" y="0" class="j"></rect><text x="68.136" y="1.67" class="k"> edited </text></symbol><symbol id="38"><text x="2.004" y="1.67" class="h">Enabled</text><text x="10.02" y="1.67" class="h">services</text><text x="20.04" y="1.67" class="i">solr,</text><text x="26.052" y="1.67" class="i">redis</text><rect height="1.837" width="8" x="68.136" y="0" class="j"></rect><text x="68.136" y="1.67" class="l"> edited </text></symbol><symbol id="39"><text x="0" y="1.67" class="c">Site</text><text x="5.01" y="1.67" class="c">settings</text><text x="14.027999999999999" y="1.67" class="c">›</text><text x="16.032" y="1.67" class="c">Stack</text><text x="22.043999999999997" y="1.67" class="c">›</text><text x="24.048" y="1.67" class="c">Services</text><text x="33.065999999999995" y="1.67" class="c">›</text><text x="35.06999999999999" y="1.67" class="c">Tuning</text></symbol><symbol id="40"><text x="0" y="1.67" class="d">PHP</text><text x="4.008" y="1.67" class="d">memory</text><text x="11.021999999999998" y="1.67" class="d">limit</text></symbol><symbol id="41"><text x="2.004" y="1.67" class="h">256M</text></symbol><symbol id="42"><text x="2.004" y="1.67" class="h">128M</text></symbol><symbol id="43"><text x="2.004" y="1.67" class="h">512M</text></symbol><symbol id="44"><text x="0" y="1.67" class="d">█</text></symbol><symbol id="45"><text x="4.008" y="1.67" class="i">prod</text><text x="9.017999999999999" y="1.67" class="i">·</text><text x="11.021999999999998" y="1.67" class="i">no</text></symbol><symbol id="46"><text x="0" y="1.67" class="h">{&quot;name&quot;:&quot;Umami&quot;,&quot;machine_name&quot;:&quot;umami&quot;,&quot;environment&quot;:&quot;prod&quot;,&quot;cdn&quot;:false,&quot;service</text></symbol><symbol id="47"><text x="0" y="1.67" class="h">s&quot;:[&quot;solr&quot;,&quot;redis&quot;],&quot;php_memory&quot;:&quot;512M&quot;}</text></symbol><symbol id="a"><rect height="24" width="80" x="0" y="0" class="m"></rect></symbol><symbol id="b"><rect height="1.837" width="1.1022" class="n"></rect></symbol></defs><rect height="44.088" width="80" class="a"></rect><g class="p"><svg x="0" y="0" width="3120"><svg x="0"><use xlink:href="#a"></use><use xlink:href="#b" x="-0.0040000000000000036" y="0"></use></svg><svg x="80"><use xlink:href="#a"></use></svg><svg x="160"><use xlink:href="#a"></use><use xlink:href="#1" y="0"></use><use xlink:href="#2" y="1.837"></use><use xlink:href="#3" y="3.674"></use><use xlink:href="#4" y="5.511"></use><use xlink:href="#5" y="7.348"></use><use xlink:href="#6" y="9.185"></use><use xlink:href="#7" y="11.022"></use><use xlink:href="#8" y="12.859"></use><use xlink:href="#9" y="14.696"></use></svg><svg x="240"><use xlink:href="#a"></use><use xlink:href="#10" y="0"></use><text x="0" y="3.5069999999999997" class="d">❯</text><text x="2.004" y="3.5069999999999997" class="e">Site</text><text x="7.013999999999999" y="3.5069999999999997" class="e">name</text><text x="13.026" y="3.5069999999999997" class="g">Umami</text><text x="2.004" y="5.343999999999999" class="h">Machine</text><text x="10.02" y="5.343999999999999" class="h">name</text><text x="16.032" y="5.343999999999999" class="i">umami</text><rect height="1.837" width="9" x="67.134" y="3.6739999999999995" class="j"></rect><text x="67.134" y="5.343999999999999" class="l"> derived </text><text x="4.008" y="7.181" class="c">Derived</text><text x="12.024" y="7.181" class="c">from</text><text x="17.034" y="7.181" class="c">the</text><text x="21.041999999999998" y="7.181" class="c">site</text><text x="26.052" y="7.181" class="c">name.</text><use xlink:href="#9" y="7.348"></use></svg><svg x="320"><use xlink:href="#a"></use><use xlink:href="#10" y="0"></use><text x="2.004" y="3.5069999999999997" class="h">Site</text><text x="7.013999999999999" y="3.5069999999999997" class="h">name</text><text x="13.026" y="3.5069999999999997" class="i">Umami</text><text x="0" y="5.343999999999999" class="d">❯</text><text x="2.004" y="5.343999999999999" class="e">Machine</text><text x="10.02" y="5.343999999999999" class="e">name</text><text x="16.032" y="5.343999999999999" class="g">umami</text><rect height="1.837" width="9" x="67.134" y="3.6739999999999995" class="j"></rect><text x="67.134" y="5.343999999999999" class="k"> derived </text><text x="4.008" y="7.181" class="f">Derived</text><text x="12.024" y="7.181" class="f">from</text><text x="17.034" y="7.181" class="f">the</text><text x="21.041999999999998" y="7.181" class="f">site</text><text x="26.052" y="7.181" class="f">name.</text><use xlink:href="#9" y="7.348"></use></svg><svg x="400"><use xlink:href="#a"></use><use xlink:href="#1" y="0"></use><use xlink:href="#2" y="1.837"></use><use xlink:href="#3" y="3.674"></use><use xlink:href="#4" y="5.511"></use><use xlink:href="#5" y="7.348"></use><use xlink:href="#6" y="9.185"></use><use xlink:href="#7" y="11.022"></use><use xlink:href="#8" y="12.859"></use><use xlink:href="#9" y="14.696"></use></svg><svg x="480"><use xlink:href="#a"></use><use xlink:href="#1" y="0"></use><use xlink:href="#11" y="1.837"></use><use xlink:href="#12" y="3.674"></use><use xlink:href="#13" y="5.511"></use><use xlink:href="#14" y="7.348"></use><use xlink:href="#15" y="9.185"></use><text x="4.008" y="12.692" class="g">dev</text><text x="8.016" y="12.692" class="g">·</text><text x="10.02" y="12.692" class="g">no</text><use xlink:href="#8" y="12.859"></use><use xlink:href="#9" y="14.696"></use></svg><svg x="560"><use xlink:href="#a"></use><use xlink:href="#16" y="0"></use><text x="0" y="3.5069999999999997" class="d">❯</text><text x="2.004" y="3.5069999999999997" class="e">Environment</text><text x="15.029999999999998" y="3.5069999999999997" class="g">dev</text><use xlink:href="#17" y="3.674"></use><use xlink:href="#18" y="5.511"></use><use xlink:href="#19" y="7.348"></use><use xlink:href="#9" y="9.185"></use></svg><svg x="640"><use xlink:href="#a"></use><use xlink:href="#20" y="0"></use><use xlink:href="#21" y="1.837"></use><text x="0" y="5.343999999999999" class="d">●</text><text x="2.004" y="5.343999999999999" class="d">Development</text><use xlink:href="#22" y="5.511"></use><use xlink:href="#23" y="7.348"></use><use xlink:href="#24" y="11.022"></use></svg><svg x="720"><use xlink:href="#a"></use><use xlink:href="#20" y="0"></use><use xlink:href="#21" y="1.837"></use><use xlink:href="#25" y="3.674"></use><text x="0" y="7.181" class="d">●</text><text x="2.004" y="7.181" class="d">Staging</text><use xlink:href="#23" y="7.348"></use><use xlink:href="#24" y="11.022"></use></svg><svg x="800"><use xlink:href="#a"></use><use xlink:href="#20" y="0"></use><use xlink:href="#21" y="1.837"></use><use xlink:href="#25" y="3.674"></use><use xlink:href="#22" y="5.511"></use><text x="0" y="9.018" class="d">●</text><text x="2.004" y="9.018" class="d">Production</text><use xlink:href="#24" y="11.022"></use></svg><svg x="880"><use xlink:href="#a"></use><use xlink:href="#16" y="0"></use><use xlink:href="#26" y="1.837"></use><use xlink:href="#17" y="3.674"></use><use xlink:href="#18" y="5.511"></use><use xlink:href="#19" y="7.348"></use><use xlink:href="#9" y="9.185"></use></svg><svg x="960"><use xlink:href="#a"></use><use xlink:href="#16" y="0"></use><use xlink:href="#27" y="1.837"></use><text x="0" y="5.343999999999999" class="d">❯</text><text x="2.004" y="5.343999999999999" class="e">Serve</text><text x="8.016" y="5.343999999999999" class="e">via</text><text x="12.024" y="5.343999999999999" class="e">CDN?</text><text x="18.035999999999998" y="5.343999999999999" class="g">no</text><use xlink:href="#18" y="5.511"></use><use xlink:href="#19" y="7.348"></use><use xlink:href="#9" y="9.185"></use></svg><svg x="1040"><use xlink:href="#a"></use><use xlink:href="#16" y="0"></use><use xlink:href="#27" y="1.837"></use><use xlink:href="#17" y="3.674"></use><text x="0" y="7.181" class="d">❯</text><text x="2.004" y="7.181" class="e">Services</text><text x="11.021999999999998" y="7.181" class="f">›</text><text x="4.008" y="9.018" class="f">Optional</text><text x="13.026" y="9.018" class="f">backing</text><text x="21.041999999999998" y="9.018" class="f">services.</text><use xlink:href="#9" y="9.185"></use></svg><svg x="1120"><use xlink:href="#a"></use><use xlink:href="#28" y="0"></use><text x="0" y="3.5069999999999997" class="d">❯</text><text x="2.004" y="3.5069999999999997" class="e">Enabled</text><text x="10.02" y="3.5069999999999997" class="e">services</text><use xlink:href="#29" y="3.674"></use><use xlink:href="#30" y="5.511"></use><use xlink:href="#31" y="7.348"></use><use xlink:href="#9" y="9.185"></use></svg><svg x="1200"><use xlink:href="#a"></use><use xlink:href="#32" y="0"></use><use xlink:href="#33" y="1.837"></use><text x="0" y="5.343999999999999" class="d">❯</text><text x="2.004" y="5.343999999999999" class="h">◻</text><text x="4.008" y="5.343999999999999" class="d">Solr</text><use xlink:href="#34" y="5.511"></use><use xlink:href="#35" y="7.348"></use><use xlink:href="#24" y="11.022"></use></svg><svg x="1280"><use xlink:href="#a"></use><use xlink:href="#32" y="0"></use><use xlink:href="#33" y="1.837"></use><text x="0" y="5.343999999999999" class="d">❯</text><text x="2.004" y="5.343999999999999" class="i">◼</text><text x="4.008" y="5.343999999999999" class="d">Solr</text><use xlink:href="#34" y="5.511"></use><use xlink:href="#35" y="7.348"></use><use xlink:href="#24" y="11.022"></use></svg><svg x="1360"><use xlink:href="#a"></use><use xlink:href="#32" y="0"></use><use xlink:href="#33" y="1.837"></use><use xlink:href="#36" y="3.674"></use><text x="0" y="7.181" class="d">❯</text><text x="2.004" y="7.181" class="h">◻</text><text x="4.008" y="7.181" class="d">Redis</text><use xlink:href="#35" y="7.348"></use><use xlink:href="#24" y="11.022"></use></svg><svg x="1440"><use xlink:href="#a"></use><use xlink:href="#32" y="0"></use><use xlink:href="#33" y="1.837"></use><use xlink:href="#36" y="3.674"></use><text x="0" y="7.181" class="d">❯</text><text x="2.004" y="7.181" class="i">◼</text><text x="4.008" y="7.181" class="d">Redis</text><use xlink:href="#35" y="7.348"></use><use xlink:href="#24" y="11.022"></use></svg><svg x="1520"><use xlink:href="#a"></use><use xlink:href="#28" y="0"></use><use xlink:href="#37" y="1.837"></use><use xlink:href="#29" y="3.674"></use><use xlink:href="#30" y="5.511"></use><use xlink:href="#31" y="7.348"></use><use xlink:href="#9" y="9.185"></use></svg><svg x="1600"><use xlink:href="#a"></use><use xlink:href="#28" y="0"></use><use xlink:href="#38" y="1.837"></use><text x="0" y="5.343999999999999" class="d">❯</text><text x="2.004" y="5.343999999999999" class="e">Solr</text><text x="7.013999999999999" y="5.343999999999999" class="e">core</text><use xlink:href="#30" y="5.511"></use><use xlink:href="#31" y="7.348"></use><use xlink:href="#9" y="9.185"></use></svg><svg x="1680"><use xlink:href="#a"></use><use xlink:href="#28" y="0"></use><use xlink:href="#38" y="1.837"></use><use xlink:href="#29" y="3.674"></use><text x="0" y="7.181" class="d">❯</text><text x="2.004" y="7.181" class="e">Tuning</text><text x="9.017999999999999" y="7.181" class="f">›</text><text x="4.008" y="9.018" class="g">256M</text><use xlink:href="#9" y="9.185"></use></svg><svg x="1760"><use xlink:href="#a"></use><use xlink:href="#39" y="0"></use><text x="0" y="3.5069999999999997" class="d">❯</text><text x="2.004" y="3.5069999999999997" class="e">PHP</text><text x="6.012" y="3.5069999999999997" class="e">memory</text><text x="13.026" y="3.5069999999999997" class="e">limit</text><text x="20.04" y="3.5069999999999997" class="g">256M</text><use xlink:href="#9" y="3.674"></use></svg><svg x="1840"><use xlink:href="#a"></use><use xlink:href="#40" y="0"></use><use xlink:href="#33" y="1.837"></use><text x="0" y="5.343999999999999" class="h">256M</text><text x="4.008" y="5.343999999999999" class="d">█</text><use xlink:href="#41" y="5.511"></use><use xlink:href="#24" y="9.185"></use></svg><svg x="1920"><use xlink:href="#a"></use><use xlink:href="#40" y="0"></use><use xlink:href="#33" y="1.837"></use><text x="0" y="5.343999999999999" class="h">256</text><text x="3.006" y="5.343999999999999" class="d">█</text><use xlink:href="#41" y="5.511"></use><use xlink:href="#24" y="9.185"></use></svg><svg x="2000"><use xlink:href="#a"></use><use xlink:href="#40" y="0"></use><use xlink:href="#33" y="1.837"></use><text x="0" y="5.343999999999999" class="h">25</text><text x="2.004" y="5.343999999999999" class="d">█</text><use xlink:href="#41" y="5.511"></use><use xlink:href="#24" y="9.185"></use></svg><svg x="2080"><use xlink:href="#a"></use><use xlink:href="#40" y="0"></use><use xlink:href="#33" y="1.837"></use><text x="0" y="5.343999999999999" class="h">2</text><text x="1.002" y="5.343999999999999" class="d">█</text><use xlink:href="#42" y="5.511"></use><use xlink:href="#41" y="7.348"></use><use xlink:href="#43" y="9.185"></use><use xlink:href="#24" y="12.859"></use></svg><svg x="2160"><use xlink:href="#a"></use><use xlink:href="#40" y="0"></use><use xlink:href="#33" y="1.837"></use><use xlink:href="#44" y="3.674"></use><use xlink:href="#42" y="5.511"></use><use xlink:href="#41" y="7.348"></use><use xlink:href="#43" y="9.185"></use><use xlink:href="#24" y="12.859"></use></svg><svg x="2240"><use xlink:href="#a"></use><use xlink:href="#40" y="0"></use><use xlink:href="#33" y="1.837"></use><use xlink:href="#44" y="3.674"></use><text x="0" y="7.181" class="d">❯</text><text x="2.004" y="7.181" class="d">128M</text><use xlink:href="#41" y="7.348"></use><use xlink:href="#43" y="9.185"></use><use xlink:href="#24" y="12.859"></use></svg><svg x="2320"><use xlink:href="#a"></use><use xlink:href="#40" y="0"></use><use xlink:href="#33" y="1.837"></use><use xlink:href="#44" y="3.674"></use><use xlink:href="#42" y="5.511"></use><text x="0" y="9.018" class="d">❯</text><text x="2.004" y="9.018" class="d">256M</text><use xlink:href="#43" y="9.185"></use><use xlink:href="#24" y="12.859"></use></svg><svg x="2400"><use xlink:href="#a"></use><use xlink:href="#40" y="0"></use><use xlink:href="#33" y="1.837"></use><use xlink:href="#44" y="3.674"></use><use xlink:href="#42" y="5.511"></use><use xlink:href="#41" y="7.348"></use><text x="0" y="10.855" class="d">❯</text><text x="2.004" y="10.855" class="d">512M</text><use xlink:href="#24" y="12.859"></use></svg><svg x="2480"><use xlink:href="#a"></use><use xlink:href="#39" y="0"></use><text x="0" y="3.5069999999999997" class="d">❯</text><text x="2.004" y="3.5069999999999997" class="e">PHP</text><text x="6.012" y="3.5069999999999997" class="e">memory</text><text x="13.026" y="3.5069999999999997" class="e">limit</text><text x="20.04" y="3.5069999999999997" class="g">512M</text><rect height="1.837" width="8" x="68.136" y="1.8369999999999997" class="j"></rect><text x="68.136" y="3.5069999999999997" class="k"> edited </text><use xlink:href="#9" y="3.674"></use></svg><svg x="2560"><use xlink:href="#a"></use><use xlink:href="#28" y="0"></use><use xlink:href="#37" y="1.837"></use><use xlink:href="#29" y="3.674"></use><use xlink:href="#30" y="5.511"></use><text x="4.008" y="9.018" class="i">512M</text><use xlink:href="#9" y="9.185"></use></svg><svg x="2640"><use xlink:href="#a"></use><use xlink:href="#16" y="0"></use><use xlink:href="#26" y="1.837"></use><use xlink:href="#17" y="3.674"></use><use xlink:href="#18" y="5.511"></use><use xlink:href="#19" y="7.348"></use><text x="4.008" y="10.855" class="i">solr,</text><text x="10.02" y="10.855" class="i">redis</text><use xlink:href="#9" y="11.022"></use></svg><svg x="2720"><use xlink:href="#a"></use><use xlink:href="#1" y="0"></use><use xlink:href="#2" y="1.837"></use><use xlink:href="#3" y="3.674"></use><use xlink:href="#4" y="5.511"></use><use xlink:href="#5" y="7.348"></use><use xlink:href="#6" y="9.185"></use><use xlink:href="#45" y="11.022"></use><use xlink:href="#8" y="12.859"></use><use xlink:href="#9" y="14.696"></use></svg><svg x="2800"><use xlink:href="#a"></use><use xlink:href="#1" y="0"></use><use xlink:href="#11" y="1.837"></use><use xlink:href="#12" y="3.674"></use><use xlink:href="#13" y="5.511"></use><use xlink:href="#14" y="7.348"></use><use xlink:href="#15" y="9.185"></use><text x="4.008" y="12.692" class="g">prod</text><text x="9.017999999999999" y="12.692" class="g">·</text><text x="11.021999999999998" y="12.692" class="g">no</text><use xlink:href="#8" y="12.859"></use><use xlink:href="#9" y="14.696"></use></svg><svg x="2880"><use xlink:href="#a"></use><use xlink:href="#1" y="0"></use><use xlink:href="#11" y="1.837"></use><use xlink:href="#12" y="3.674"></use><use xlink:href="#13" y="5.511"></use><use xlink:href="#5" y="7.348"></use><use xlink:href="#6" y="9.185"></use><use xlink:href="#45" y="11.022"></use><rect height="1.837" width="8" x="2.004" y="12.859" class="j"></rect><text x="2.004" y="14.529" class="k">[ Save ]</text><text x="12.024" y="14.529" class="i">[</text><text x="14.027999999999999" y="14.529" class="i">Discard</text><text x="22.043999999999997" y="14.529" class="i">]</text><use xlink:href="#9" y="14.696"></use></svg><svg x="2960"><use xlink:href="#a"></use><use xlink:href="#b" x="-0.0040000000000000036" y="3.499"></use><use xlink:href="#46" y="0"></use><use xlink:href="#47" y="1.837"></use></svg><svg x="3040"><use xlink:href="#a"></use><use xlink:href="#b" x="0.996" y="3.499"></use><use xlink:href="#46" y="0"></use><use xlink:href="#47" y="1.837"></use></svg></svg></g></g></svg></svg>