<svg xmlns="http://www.w3.org/2000/svg" xmlns:xlink="http://www.w3.org/1999/xlink" width="800" height="440.88"><rect width="800" height="440.88" rx="0" ry="0" class="a"></rect><svg height="440.88" viewBox="0 0 80 44.088" width="800" xmlns="http://www.w3.org/2000/svg" xmlns:xlink="http://www.w3.org/1999/xlink"><style>.a{fill:rgb(250,250,250)}.b{font-family:Consolas,"Courier New",Courier,"Liberation Mono",monospace}.c{fill:rgb(90,96,105);white-space:pre}.d{fill:rgb(0,128,128);font-weight:bold;white-space:pre}.e{fill:rgb(56,58,66);font-weight:bold;white-space:pre}.f{fill:rgb(90,96,105);font-weight:bold;white-space:pre}.g{fill:rgb(0,128,0);font-weight:bold;white-space:pre}.h{fill:rgb(56,58,66);white-space:pre}.i{fill:rgb(0,128,0);white-space:pre}.j{fill:rgb(40,44,52)}.k{fill:rgb(250,250,250);font-weight:bold;white-space:pre}.l{fill:rgb(250,250,250);white-space:pre}.m{fill:transparent}.n{fill:rgb(82,139,255)}.p{animation-duration:39.385s;animation-iteration-count:infinite;animation-name:o;animation-timing-function:steps(1,end)}.q{fill:rgb(128,128,0);font-weight:bold;white-space:pre}@keyframes o{0%{transform:translateX(-0px)}0.41%{transform:translateX(-80px)}1.51%{transform:translateX(-160px)}1.52%{transform:translateX(-240px)}7.98%{transform:translateX(-320px)}13.83%{transform:translateX(-400px)}18.67%{transform:translateX(-480px)}22.9%{transform:translateX(-560px)}24.48%{transform:translateX(-640px)}29.28%{transform:translateX(-720px)}33.49%{transform:translateX(-800px)}34.5%{transform:translateX(-880px)}36.47%{transform:translateX(-960px)}40.67%{transform:translateX(-1040px)}41.67%{transform:translateX(-1120px)}43.3%{transform:translateX(-1200px)}48.09%{transform:translateX(-1280px)}52.34%{transform:translateX(-1360px)}53.37%{transform:translateX(-1440px)}54.36%{transform:translateX(-1520px)}56.32%{transform:translateX(-1600px)}60.58%{transform:translateX(-1680px)}61.58%{transform:translateX(-1760px)}63.21%{transform:translateX(-1840px)}68%{transform:translateX(-1920px)}71.83%{transform:translateX(-2000px)}72.37%{transform:translateX(-2080px)}72.91%{transform:translateX(-2160px)}73.37%{transform:translateX(-2240px)}74.46%{transform:translateX(-2320px)}75.49%{transform:translateX(-2400px)}76.48%{transform:translateX(-2480px)}78.43%{transform:translateX(-2560px)}80.08%{transform:translateX(-2640px)}81.8%{transform:translateX(-2720px)}83.4%{transform:translateX(-2800px)}87.54%{transform:translateX(-2880px)}88.55%{transform:translateX(-2960px)}90.48%{transform:translateX(-3040px)}100%{transform:translateX(-3120px)}}</style><g font-family="Consolas, &quot;Courier New&quot;, Courier, &quot;Liberation Mono&quot;, monospace" font-size="1.67" class="b"><defs><symbol id="1"><text x="0" y="1.67" class="c">Produce</text><text x="8.016" y="1.67" class="c">order</text></symbol><symbol id="2"><text x="0" y="1.67" class="d">❯</text><text x="2.004" y="1.67" class="e">Order</text><text x="8.016" y="1.67" class="f">›</text></symbol><symbol id="3"><text x="4.008" y="1.67" class="f">Who</text><text x="8.016" y="1.67" class="f">this</text><text x="13.026" y="1.67" class="f">order</text><text x="19.037999999999997" y="1.67" class="f">is</text><text x="22.043999999999997" y="1.67" class="f">for.</text></symbol><symbol id="4"><text x="4.008" y="1.67" class="g">Weekly</text><text x="11.021999999999998" y="1.67" class="g">·</text><text x="13.026" y="1.67" class="g">weekly</text></symbol><symbol id="5"><text x="2.004" y="1.67" class="h">Delivery</text><text x="11.021999999999998" y="1.67" class="c">›</text></symbol><symbol id="6"><text x="4.008" y="1.67" class="c">How</text><text x="8.016" y="1.67" class="c">it</text><text x="11.021999999999998" y="1.67" class="c">arrives.</text></symbol><symbol id="7"><text x="4.008" y="1.67" class="i">pickup</text><text x="11.021999999999998" y="1.67" class="i">·</text><text x="13.026" y="1.67" class="i">no</text></symbol><symbol id="8"><text x="2.004" y="1.67" class="i">[</text><text x="4.008" y="1.67" class="i">Save</text><text x="9.017999999999999" y="1.67" class="i">]</text><text x="12.024" y="1.67" class="i">[</text><text x="14.027999999999999" y="1.67" class="i">Discard</text><text x="22.043999999999997" y="1.67" class="i">]</text></symbol><symbol id="9"><text x="0" y="1.67" class="c">↑/↓</text><text x="4.008" y="1.67" class="c">move</text><text x="9.017999999999999" y="1.67" class="c">·</text><text x="11.021999999999998" y="1.67" class="c">↵</text><text x="13.026" y="1.67" class="c">select</text><text x="20.04" y="1.67" class="c">·</text><text x="22.043999999999997" y="1.67" class="c">esc</text><text x="26.052" y="1.67" class="c">back</text><text x="31.061999999999998" y="1.67" class="c">·</text><text x="33.065999999999995" y="1.67" class="c">q</text><text x="35.06999999999999" y="1.67" class="c">quit</text><text x="40.08" y="1.67" class="c">·</text><text x="42.083999999999996" y="1.67" class="c">?</text><text x="44.087999999999994" y="1.67" class="c">help</text></symbol><symbol id="10"><text x="0" y="1.67" class="c">Produce</text><text x="8.016" y="1.67" class="c">order</text><text x="14.027999999999999" y="1.67" class="c">›</text><text x="16.032" y="1.67" class="c">Order</text></symbol><symbol id="11"><text x="2.004" y="1.67" class="h">Order</text><text x="8.016" y="1.67" class="c">›</text></symbol><symbol id="12"><text x="4.008" y="1.67" class="c">Who</text><text x="8.016" y="1.67" class="c">this</text><text x="13.026" y="1.67" class="c">order</text><text x="19.037999999999997" y="1.67" class="c">is</text><text x="22.043999999999997" y="1.67" class="c">for.</text></symbol><symbol id="13"><text x="4.008" y="1.67" class="i">Weekly</text><text x="11.021999999999998" y="1.67" class="i">·</text><text x="13.026" y="1.67" class="i">weekly</text></symbol><symbol id="14"><text x="0" y="1.67" class="d">❯</text><text x="2.004" y="1.67" class="e">Delivery</text><text x="11.021999999999998" y="1.67" class="f">›</text></symbol><symbol id="15"><text x="4.008" y="1.67" class="f">How</text><text x="8.016" y="1.67" class="f">it</text><text x="11.021999999999998" y="1.67" class="f">arrives.</text></symbol><symbol id="16"><text x="0" y="1.67" class="c">Produce</text><text x="8.016" y="1.67" class="c">order</text><text x="14.027999999999999" y="1.67" class="c">›</text><text x="16.032" y="1.67" class="c">Delivery</text></symbol><symbol id="17"><text x="2.004" y="1.67" class="h">Gift</text><text x="7.013999999999999" y="1.67" class="h">wrap?</text><text x="14.027999999999999" y="1.67" class="i">no</text></symbol><symbol id="18"><text x="2.004" y="1.67" class="h">Extras</text><text x="9.017999999999999" y="1.67" class="c">›</text></symbol><symbol id="19"><text x="4.008" y="1.67" class="c">Optional</text><text x="13.026" y="1.67" class="c">add-ons.</text></symbol><symbol id="20"><text x="12.024" y="1.67" class="h">○</text><text x="14.027999999999999" y="1.67" class="h">Locker</text></symbol><symbol id="21"><text x="12.024" y="1.67" class="h">○</text><text x="14.027999999999999" y="1.67" class="h">Doorstep</text></symbol><symbol id="22"><text x="0" y="1.67" class="c">↑/↓</text><text x="4.008" y="1.67" class="c">move</text><text x="9.017999999999999" y="1.67" class="c">·</text><text x="11.021999999999998" y="1.67" class="c">↵</text><text x="13.026" y="1.67" class="c">accept</text><text x="20.04" y="1.67" class="c">·</text><text x="22.043999999999997" y="1.67" class="c">esc</text><text x="26.052" y="1.67" class="c">cancel</text></symbol><symbol id="23"><text x="0" y="1.67" class="d">❯</text><text x="2.004" y="1.67" class="e">Delivery</text><text x="12.024" y="1.67" class="h">○</text><text x="14.027999999999999" y="1.67" class="h">Pickup</text></symbol><symbol id="24"><text x="0" y="1.67" class="d">❯</text><text x="2.004" y="1.67" class="e">Delivery</text><text x="12.024" y="1.67" class="g">doorstep</text><rect height="1.837" width="8" x="68.136" y="0" class="j"></rect><text x="68.136" y="1.67" class="k"> edited </text></symbol><symbol id="25"><text x="2.004" y="1.67" class="h">Delivery</text><text x="12.024" y="1.67" class="i">doorstep</text><rect height="1.837" width="8" x="68.136" y="0" class="j"></rect><text x="68.136" y="1.67" class="l"> edited </text></symbol><symbol id="26"><text x="0" y="1.67" class="c">Produce</text><text x="8.016" y="1.67" class="c">order</text><text x="14.027999999999999" y="1.67" class="c">›</text><text x="16.032" y="1.67" class="c">Delivery</text><text x="25.05" y="1.67" class="c">›</text><text x="27.054" y="1.67" class="c">Extras</text></symbol><symbol id="27"><text x="2.004" y="1.67" class="h">Herb</text><text x="7.013999999999999" y="1.67" class="h">note</text></symbol><symbol id="28"><text x="2.004" y="1.67" class="h">Packaging</text><text x="12.024" y="1.67" class="c">›</text></symbol><symbol id="29"><text x="4.008" y="1.67" class="i">250g</text></symbol><symbol id="30"><text x="13.026" y="1.67" class="h">◻</text><text x="15.029999999999998" y="1.67" class="h">Nuts</text></symbol><symbol id="31"><text x="13.026" y="1.67" class="h">◻</text><text x="15.029999999999998" y="1.67" class="h">Seeds</text></symbol><symbol id="32"><text x="0" y="1.67" class="c">space</text><text x="6.012" y="1.67" class="c">select</text><text x="13.026" y="1.67" class="c">·</text><text x="15.029999999999998" y="1.67" class="c">↑/↓</text><text x="19.037999999999997" y="1.67" class="c">move</text><text x="24.048" y="1.67" class="c">·</text><text x="26.052" y="1.67" class="c">←/→</text><text x="30.059999999999995" y="1.67" class="c">none/all</text><text x="39.077999999999996" y="1.67" class="c">·</text><text x="41.082" y="1.67" class="c">↵</text><text x="43.086" y="1.67" class="c">accept</text><text x="50.1" y="1.67" class="c">·</text><text x="52.104" y="1.67" class="c">esc</text><text x="56.111999999999995" y="1.67" class="c">cancel</text></symbol><symbol id="33"><text x="0" y="1.67" class="d">❯</text><text x="2.004" y="1.67" class="e">Add-ons</text><text x="13.026" y="1.67" class="i">◼</text><text x="15.029999999999998" y="1.67" class="h">Herbs</text></symbol><symbol id="34"><text x="0" y="1.67" class="d">❯</text><text x="2.004" y="1.67" class="e">Add-ons</text><text x="11.021999999999998" y="1.67" class="g">herbs,</text><text x="18.035999999999998" y="1.67" class="g">nuts</text><rect height="1.837" width="8" x="68.136" y="0" class="j"></rect><text x="68.136" y="1.67" class="k"> edited </text></symbol><symbol id="35"><text x="2.004" y="1.67" class="h">Add-ons</text><text x="11.021999999999998" y="1.67" class="i">herbs,</text><text x="18.035999999999998" y="1.67" class="i">nuts</text><rect height="1.837" width="8" x="68.136" y="0" class="j"></rect><text x="68.136" y="1.67" class="l"> edited </text></symbol><symbol id="36"><text x="0" y="1.67" class="c">Produce</text><text x="8.016" y="1.67" class="c">order</text><text x="14.027999999999999" y="1.67" class="c">›</text><text x="16.032" y="1.67" class="c">Delivery</text><text x="25.05" y="1.67" class="c">›</text><text x="27.054" y="1.67" class="c">Extras</text><text x="34.068" y="1.67" class="c">›</text><text x="36.071999999999996" y="1.67" class="c">Packaging</text></symbol><symbol id="37"><text x="0" y="1.67" class="d">❯</text><text x="2.004" y="1.67" class="e">Bag</text><text x="6.012" y="1.67" class="e">weight</text><text x="14.027999999999999" y="1.67" class="d">█</text></symbol><symbol id="38"><text x="16.032" y="1.67" class="h">250g</text></symbol><symbol id="39"><text x="16.032" y="1.67" class="h">500g</text></symbol><symbol id="40"><text x="16.032" y="1.67" class="h">1kg</text></symbol><symbol id="41"><text x="4.008" y="1.67" class="i">doorstep</text><text x="13.026" y="1.67" class="i">·</text><text x="15.029999999999998" y="1.67" class="i">no</text></symbol><symbol id="42"><text x="0" y="1.67" class="h">Order</text></symbol><symbol id="43"><text x="2.004" y="1.67" class="h">Order</text><text x="8.016" y="1.67" class="h">name:</text><text x="14.027999999999999" y="1.67" class="h">Weekly</text></symbol><symbol id="44"><text x="2.004" y="1.67" class="h">Slug:</text><text x="8.016" y="1.67" class="h">weekly</text><text x="15.029999999999998" y="1.67" class="h">(derived)</text></symbol><symbol id="45"><text x="0" y="1.67" class="h">Delivery</text></symbol><symbol id="46"><text x="2.004" y="1.67" class="h">Delivery:</text><text x="12.024" y="1.67" class="h">doorstep</text><text x="21.041999999999998" y="1.67" class="h">(edited)</text></symbol><symbol id="47"><text x="2.004" y="1.67" class="h">Gift</text><text x="7.013999999999999" y="1.67" class="h">wrap?:</text><text x="14.027999999999999" y="1.67" class="h">no</text></symbol><symbol id="48"><text x="2.004" y="1.67" class="h">Extras</text></symbol><symbol id="49"><text x="4.008" y="1.67" class="h">Add-ons:</text><text x="13.026" y="1.67" class="h">herbs,</text><text x="20.04" y="1.67" class="h">nuts</text><text x="25.05" y="1.67" class="h">(edited)</text></symbol><symbol id="50"><text x="4.008" y="1.67" class="h">Packaging</text></symbol><symbol id="51"><text x="6.012" y="1.67" class="h">Bag</text><text x="10.02" y="1.67" class="h">weight:</text><text x="18.035999999999998" y="1.67" class="h">1kg</text><text x="22.043999999999997" y="1.67" class="h">(edited)</text></symbol><symbol id="a"><rect height="24" width="80" x="0" y="0" class="m"></rect></symbol><symbol id="b"><rect height="1.837" width="1.1022" class="n"></rect></symbol></defs><rect height="44.088" width="80" class="a"></rect><g class="p"><svg x="0" y="0" width="3200"><svg x="0"><use xlink:href="#a"></use><use xlink:href="#b" x="-0.0040000000000000036" y="0"></use></svg><svg x="80"><use xlink:href="#a"></use><use xlink:href="#b" x="-0.0040000000000000036" y="0"></use></svg><svg x="160"><use xlink:href="#a"></use></svg><svg x="240"><use xlink:href="#a"></use><use xlink:href="#1" y="0"></use><use xlink:href="#2" y="1.837"></use><use xlink:href="#3" y="3.674"></use><use xlink:href="#4" y="5.511"></use><use xlink:href="#5" y="7.348"></use><use xlink:href="#6" y="9.185"></use><use xlink:href="#7" y="11.022"></use><use xlink:href="#8" y="14.696"></use><use xlink:href="#9" y="18.37"></use></svg><svg x="320"><use xlink:href="#a"></use><use xlink:href="#10" y="0"></use><text x="0" y="3.5069999999999997" class="d">❯</text><text x="2.004" y="3.5069999999999997" class="e">Order</text><text x="8.016" y="3.5069999999999997" class="e">name</text><text x="14.027999999999999" y="3.5069999999999997" class="g">Weekly</text><text x="2.004" y="5.343999999999999" class="h">Slug</text><text x="8.016" y="5.343999999999999" class="i">weekly</text><rect height="1.837" width="9" x="67.134" y="3.6739999999999995" class="j"></rect><text x="67.134" y="5.343999999999999" class="l"> derived </text><text x="4.008" y="7.181" class="c">Derived</text><text x="12.024" y="7.181" class="c">from</text><text x="17.034" y="7.181" class="c">the</text><text x="21.041999999999998" y="7.181" class="c">order</text><text x="27.054" y="7.181" class="c">name.</text><use xlink:href="#9" y="9.185"></use></svg><svg x="400"><use xlink:href="#a"></use><use xlink:href="#10" y="0"></use><text x="2.004" y="3.5069999999999997" class="h">Order</text><text x="8.016" y="3.5069999999999997" class="h">name</text><text x="14.027999999999999" y="3.5069999999999997" class="i">Weekly</text><text x="0" y="5.343999999999999" class="d">❯</text><text x="2.004" y="5.343999999999999" class="e">Slug</text><text x="8.016" y="5.343999999999999" class="g">weekly</text><rect height="1.837" width="9" x="67.134" y="3.6739999999999995" class="j"></rect><text x="67.134" y="5.343999999999999" class="k"> derived </text><text x="4.008" y="7.181" class="f">Derived</text><text x="12.024" y="7.181" class="f">from</text><text x="17.034" y="7.181" class="f">the</text><text x="21.041999999999998" y="7.181" class="f">order</text><text x="27.054" y="7.181" class="f">name.</text><use xlink:href="#9" y="9.185"></use></svg><svg x="480"><use xlink:href="#a"></use><use xlink:href="#1" y="0"></use><use xlink:href="#2" y="1.837"></use><use xlink:href="#3" y="3.674"></use><use xlink:href="#4" y="5.511"></use><use xlink:href="#5" y="7.348"></use><use xlink:href="#6" y="9.185"></use><use xlink:href="#7" y="11.022"></use><use xlink:href="#8" y="14.696"></use><use xlink:href="#9" y="18.37"></use></svg><svg x="560"><use xlink:href="#a"></use><use xlink:href="#1" y="0"></use><use xlink:href="#11" y="1.837"></use><use xlink:href="#12" y="3.674"></use><use xlink:href="#13" y="5.511"></use><use xlink:href="#14" y="7.348"></use><use xlink:href="#15" y="9.185"></use><text x="4.008" y="12.692" class="g">pickup</text><text x="11.021999999999998" y="12.692" class="g">·</text><text x="13.026" y="12.692" class="g">no</text><use xlink:href="#8" y="14.696"></use><use xlink:href="#9" y="18.37"></use></svg><svg x="640"><use xlink:href="#a"></use><use xlink:href="#16" y="0"></use><text x="0" y="3.5069999999999997" class="d">❯</text><text x="2.004" y="3.5069999999999997" class="e">Delivery</text><text x="12.024" y="3.5069999999999997" class="g">pickup</text><use xlink:href="#17" y="3.674"></use><use xlink:href="#18" y="5.511"></use><use xlink:href="#19" y="7.348"></use><use xlink:href="#9" y="11.022"></use></svg><svg x="720"><use xlink:href="#a"></use><use xlink:href="#16" y="0"></use><text x="0" y="3.5069999999999997" class="d">❯</text><text x="2.004" y="3.5069999999999997" class="e">Delivery</text><text x="12.024" y="3.5069999999999997" class="d">●</text><text x="14.027999999999999" y="3.5069999999999997" class="d">Pickup</text><use xlink:href="#20" y="3.674"></use><use xlink:href="#21" y="5.511"></use><use xlink:href="#17" y="7.348"></use><use xlink:href="#18" y="9.185"></use><use xlink:href="#19" y="11.022"></use><use xlink:href="#22" y="14.696"></use></svg><svg x="800"><use xlink:href="#a"></use><use xlink:href="#16" y="0"></use><use xlink:href="#23" y="1.837"></use><text x="12.024" y="5.343999999999999" class="d">●</text><text x="14.027999999999999" y="5.343999999999999" class="d">Locker</text><use xlink:href="#21" y="5.511"></use><use xlink:href="#17" y="7.348"></use><use xlink:href="#18" y="9.185"></use><use xlink:href="#19" y="11.022"></use><use xlink:href="#22" y="14.696"></use></svg><svg x="880"><use xlink:href="#a"></use><use xlink:href="#16" y="0"></use><use xlink:href="#23" y="1.837"></use><use xlink:href="#20" y="3.674"></use><text x="12.024" y="7.181" class="d">●</text><text x="14.027999999999999" y="7.181" class="d">Doorstep</text><use xlink:href="#17" y="7.348"></use><use xlink:href="#18" y="9.185"></use><use xlink:href="#19" y="11.022"></use><use xlink:href="#22" y="14.696"></use></svg><svg x="960"><use xlink:href="#a"></use><use xlink:href="#16" y="0"></use><use xlink:href="#24" y="1.837"></use><use xlink:href="#17" y="3.674"></use><use xlink:href="#18" y="5.511"></use><use xlink:href="#19" y="7.348"></use><use xlink:href="#9" y="11.022"></use></svg><svg x="1040"><use xlink:href="#a"></use><use xlink:href="#16" y="0"></use><use xlink:href="#25" y="1.837"></use><text x="0" y="5.343999999999999" class="d">❯</text><text x="2.004" y="5.343999999999999" class="e">Gift</text><text x="7.013999999999999" y="5.343999999999999" class="e">wrap?</text><text x="14.027999999999999" y="5.343999999999999" class="g">no</text><use xlink:href="#18" y="5.511"></use><use xlink:href="#19" y="7.348"></use><use xlink:href="#9" y="11.022"></use></svg><svg x="1120"><use xlink:href="#a"></use><use xlink:href="#16" y="0"></use><use xlink:href="#25" y="1.837"></use><use xlink:href="#17" y="3.674"></use><text x="0" y="7.181" class="d">❯</text><text x="2.004" y="7.181" class="e">Extras</text><text x="9.017999999999999" y="7.181" class="f">›</text><text x="4.008" y="9.018" class="f">Optional</text><text x="13.026" y="9.018" class="f">add-ons.</text><use xlink:href="#9" y="11.022"></use></svg><svg x="1200"><use xlink:href="#a"></use><use xlink:href="#26" y="0"></use><text x="0" y="3.5069999999999997" class="d">❯</text><text x="2.004" y="3.5069999999999997" class="e">Add-ons</text><use xlink:href="#27" y="3.674"></use><use xlink:href="#28" y="5.511"></use><use xlink:href="#29" y="7.348"></use><use xlink:href="#9" y="11.022"></use></svg><svg x="1280"><use xlink:href="#a"></use><use xlink:href="#26" y="0"></use><text x="0" y="3.5069999999999997" class="d">❯</text><text x="2.004" y="3.5069999999999997" class="e">Add-ons</text><text x="11.021999999999998" y="3.5069999999999997" class="d">❯</text><text x="13.026" y="3.5069999999999997" class="h">◻</text><text x="15.029999999999998" y="3.5069999999999997" class="d">Herbs</text><use xlink:href="#30" y="3.674"></use><use xlink:href="#31" y="5.511"></use><use xlink:href="#27" y="7.348"></use><use xlink:href="#28" y="9.185"></use><use xlink:href="#29" y="11.022"></use><use xlink:href="#32" y="14.696"></use></svg><svg x="1360"><use xlink:href="#a"></use><use xlink:href="#26" y="0"></use><text x="0" y="3.5069999999999997" class="d">❯</text><text x="2.004" y="3.5069999999999997" class="e">Add-ons</text><text x="11.021999999999998" y="3.5069999999999997" class="d">❯</text><text x="13.026" y="3.5069999999999997" class="i">◼</text><text x="15.029999999999998" y="3.5069999999999997" class="d">Herbs</text><use xlink:href="#30" y="3.674"></use><use xlink:href="#31" y="5.511"></use><use xlink:href="#27" y="7.348"></use><use xlink:href="#28" y="9.185"></use><use xlink:href="#29" y="11.022"></use><use xlink:href="#32" y="14.696"></use></svg><svg x="1440"><use xlink:href="#a"></use><use xlink:href="#26" y="0"></use><use xlink:href="#33" y="1.837"></use><text x="11.021999999999998" y="5.343999999999999" class="d">❯</text><text x="13.026" y="5.343999999999999" class="h">◻</text><text x="15.029999999999998" y="5.343999999999999" class="d">Nuts</text><use xlink:href="#31" y="5.511"></use><use xlink:href="#27" y="7.348"></use><use xlink:href="#28" y="9.185"></use><use xlink:href="#29" y="11.022"></use><use xlink:href="#32" y="14.696"></use></svg><svg x="1520"><use xlink:href="#a"></use><use xlink:href="#26" y="0"></use><use xlink:href="#33" y="1.837"></use><text x="11.021999999999998" y="5.343999999999999" class="d">❯</text><text x="13.026" y="5.343999999999999" class="i">◼</text><text x="15.029999999999998" y="5.343999999999999" class="d">Nuts</text><use xlink:href="#31" y="5.511"></use><use xlink:href="#27" y="7.348"></use><use xlink:href="#28" y="9.185"></use><use xlink:href="#29" y="11.022"></use><use xlink:href="#32" y="14.696"></use></svg><svg x="1600"><use xlink:href="#a"></use><use xlink:href="#26" y="0"></use><use xlink:href="#34" y="1.837"></use><use xlink:href="#27" y="3.674"></use><use xlink:href="#28" y="5.511"></use><use xlink:href="#29" y="7.348"></use><use xlink:href="#9" y="11.022"></use></svg><svg x="1680"><use xlink:href="#a"></use><use xlink:href="#26" y="0"></use><use xlink:href="#35" y="1.837"></use><text x="0" y="5.343999999999999" class="d">❯</text><text x="2.004" y="5.343999999999999" class="e">Herb</text><text x="7.013999999999999" y="5.343999999999999" class="e">note</text><use xlink:href="#28" y="5.511"></use><use xlink:href="#29" y="7.348"></use><use xlink:href="#9" y="11.022"></use></svg><svg x="1760"><use xlink:href="#a"></use><use xlink:href="#26" y="0"></use><use xlink:href="#35" y="1.837"></use><use xlink:href="#27" y="3.674"></use><text x="0" y="7.181" class="d">❯</text><text x="2.004" y="7.181" class="e">Packaging</text><text x="12.024" y="7.181" class="f">›</text><text x="4.008" y="9.018" class="g">250g</text><use xlink:href="#9" y="11.022"></use></svg><svg x="1840"><use xlink:href="#a"></use><use xlink:href="#36" y="0"></use><text x="0" y="3.5069999999999997" class="d">❯</text><text x="2.004" y="3.5069999999999997" class="e">Bag</text><text x="6.012" y="3.5069999999999997" class="e">weight</text><text x="14.027999999999999" y="3.5069999999999997" class="g">250g</text><use xlink:href="#9" y="5.511"></use></svg><svg x="1920"><use xlink:href="#a"></use><use xlink:href="#36" y="0"></use><text x="0" y="3.5069999999999997" class="d">❯</text><text x="2.004" y="3.5069999999999997" class="e">Bag</text><text x="6.012" y="3.5069999999999997" class="e">weight</text><text x="14.027999999999999" y="3.5069999999999997" class="h">250g</text><text x="18.035999999999998" y="3.5069999999999997" class="d">█</text><text x="16.032" y="5.343999999999999" class="q">250g</text><use xlink:href="#22" y="7.348"></use></svg><svg x="2000"><use xlink:href="#a"></use><use xlink:href="#36" y="0"></use><text x="0" y="3.5069999999999997" class="d">❯</text><text x="2.004" y="3.5069999999999997" class="e">Bag</text><text x="6.012" y="3.5069999999999997" class="e">weight</text><text x="14.027999999999999" y="3.5069999999999997" class="h">250</text><text x="17.034" y="3.5069999999999997" class="d">█</text><text x="16.032" y="5.343999999999999" class="q">250</text><text x="19.037999999999997" y="5.343999999999999" class="h">g</text><use xlink:href="#22" y="7.348"></use></svg><svg x="2080"><use xlink:href="#a"></use><use xlink:href="#36" y="0"></use><text x="0" y="3.5069999999999997" class="d">❯</text><text x="2.004" y="3.5069999999999997" class="e">Bag</text><text x="6.012" y="3.5069999999999997" class="e">weight</text><text x="14.027999999999999" y="3.5069999999999997" class="h">25</text><text x="16.032" y="3.5069999999999997" class="d">█</text><text x="16.032" y="5.343999999999999" class="q">25</text><text x="18.035999999999998" y="5.343999999999999" class="h">0g</text><use xlink:href="#22" y="7.348"></use></svg><svg x="2160"><use xlink:href="#a"></use><use xlink:href="#36" y="0"></use><text x="0" y="3.5069999999999997" class="d">❯</text><text x="2.004" y="3.5069999999999997" class="e">Bag</text><text x="6.012" y="3.5069999999999997" class="e">weight</text><text x="14.027999999999999" y="3.5069999999999997" class="h">2</text><text x="15.029999999999998" y="3.5069999999999997" class="d">█</text><text x="16.032" y="5.343999999999999" class="q">2</text><text x="17.034" y="5.343999999999999" class="h">50g</text><use xlink:href="#22" y="7.348"></use></svg><svg x="2240"><use xlink:href="#a"></use><use xlink:href="#36" y="0"></use><use xlink:href="#37" y="1.837"></use><use xlink:href="#38" y="3.674"></use><use xlink:href="#39" y="5.511"></use><use xlink:href="#40" y="7.348"></use><use xlink:href="#22" y="11.022"></use></svg><svg x="2320"><use xlink:href="#a"></use><use xlink:href="#36" y="0"></use><use xlink:href="#37" y="1.837"></use><text x="14.027999999999999" y="5.343999999999999" class="d">❯</text><text x="16.032" y="5.343999999999999" class="d">250g</text><use xlink:href="#39" y="5.511"></use><use xlink:href="#40" y="7.348"></use><use xlink:href="#22" y="11.022"></use></svg><svg x="2400"><use xlink:href="#a"></use><use xlink:href="#36" y="0"></use><use xlink:href="#37" y="1.837"></use><use xlink:href="#38" y="3.674"></use><text x="14.027999999999999" y="7.181" class="d">❯</text><text x="16.032" y="7.181" class="d">500g</text><use xlink:href="#40" y="7.348"></use><use xlink:href="#22" y="11.022"></use></svg><svg x="2480"><use xlink:href="#a"></use><use xlink:href="#36" y="0"></use><use xlink:href="#37" y="1.837"></use><use xlink:href="#38" y="3.674"></use><use xlink:href="#39" y="5.511"></use><text x="14.027999999999999" y="9.018" class="d">❯</text><text x="16.032" y="9.018" class="d">1kg</text><use xlink:href="#22" y="11.022"></use></svg><svg x="2560"><use xlink:href="#a"></use><use xlink:href="#36" y="0"></use><text x="0" y="3.5069999999999997" class="d">❯</text><text x="2.004" y="3.5069999999999997" class="e">Bag</text><text x="6.012" y="3.5069999999999997" class="e">weight</text><text x="14.027999999999999" y="3.5069999999999997" class="g">1kg</text><rect height="1.837" width="8" x="68.136" y="1.8369999999999997" class="j"></rect><text x="68.136" y="3.5069999999999997" class="k"> edited </text><use xlink:href="#9" y="5.511"></use></svg><svg x="2640"><use xlink:href="#a"></use><use xlink:href="#26" y="0"></use><use xlink:href="#34" y="1.837"></use><use xlink:href="#27" y="3.674"></use><use xlink:href="#28" y="5.511"></use><text x="4.008" y="9.018" class="i">1kg</text><use xlink:href="#9" y="11.022"></use></svg><svg x="2720"><use xlink:href="#a"></use><use xlink:href="#16" y="0"></use><use xlink:href="#24" y="1.837"></use><use xlink:href="#17" y="3.674"></use><use xlink:href="#18" y="5.511"></use><use xlink:href="#19" y="7.348"></use><text x="4.008" y="10.855" class="i">herbs,</text><text x="11.021999999999998" y="10.855" class="i">nuts</text><use xlink:href="#9" y="12.859"></use></svg><svg x="2800"><use xlink:href="#a"></use><use xlink:href="#1" y="0"></use><use xlink:href="#2" y="1.837"></use><use xlink:href="#3" y="3.674"></use><use xlink:href="#4" y="5.511"></use><use xlink:href="#5" y="7.348"></use><use xlink:href="#6" y="9.185"></use><use xlink:href="#41" y="11.022"></use><use xlink:href="#8" y="14.696"></use><use xlink:href="#9" y="18.37"></use></svg><svg x="2880"><use xlink:href="#a"></use><use xlink:href="#1" y="0"></use><use xlink:href="#11" y="1.837"></use><use xlink:href="#12" y="3.674"></use><use xlink:href="#13" y="5.511"></use><use xlink:href="#14" y="7.348"></use><use xlink:href="#15" y="9.185"></use><text x="4.008" y="12.692" class="g">doorstep</text><text x="13.026" y="12.692" class="g">·</text><text x="15.029999999999998" y="12.692" class="g">no</text><use xlink:href="#8" y="14.696"></use><use xlink:href="#9" y="18.37"></use></svg><svg x="2960"><use xlink:href="#a"></use><use xlink:href="#1" y="0"></use><use xlink:href="#11" y="1.837"></use><use xlink:href="#12" y="3.674"></use><use xlink:href="#13" y="5.511"></use><use xlink:href="#5" y="7.348"></use><use xlink:href="#6" y="9.185"></use><use xlink:href="#41" y="11.022"></use><rect height="1.837" width="8" x="2.004" y="14.696" class="j"></rect><text x="2.004" y="16.366" class="k">[ Save ]</text><text x="12.024" y="16.366" class="i">[</text><text x="14.027999999999999" y="16.366" class="i">Discard</text><text x="22.043999999999997" y="16.366" class="i">]</text><use xlink:href="#9" y="18.37"></use></svg><svg x="3040"><use xlink:href="#a"></use><use xlink:href="#b" x="-0.0040000000000000036" y="18.195"></use><use xlink:href="#42" y="0"></use><use xlink:href="#43" y="1.837"></use><use xlink:href="#44" y="3.674"></use><use xlink:href="#45" y="5.511"></use><use xlink:href="#46" y="7.348"></use><use xlink:href="#47" y="9.185"></use><use xlink:href="#48" y="11.022"></use><use xlink:href="#49" y="12.859"></use><use xlink:href="#50" y="14.696"></use><use xlink:href="#51" y="16.533"></use></svg><svg x="3120"><use xlink:href="#a"></use><use xlink:href="#b" x="0.996" y="18.195"></use><use xlink:href="#42" y="0"></use><use xlink:href="#43" y="1.837"></use><use xlink:href="#44" y="3.674"></use><use xlink:href="#45" y="5.511"></use><use xlink:href="#46" y="7.348"></use><use xlink:href="#47" y="9.185"></use><use xlink:href="#48" y="11.022"></use><use xlink:href="#49" y="12.859"></use><use xlink:href="#50" y="14.696"></use><use xlink:href="#51" y="16.533"></use></svg></svg></g></g></svg></svg>