<svg xmlns="http://www.w3.org/2000/svg" xmlns:xlink="http://www.w3.org/1999/xlink" width="650" height="55.11"><rect width="650" height="55.11" rx="0" ry="0" class="a"></rect><svg height="55.11" viewBox="0 0 65 5.511" width="650" xmlns="http://www.w3.org/2000/svg" xmlns:xlink="http://www.w3.org/1999/xlink"><style>.a{fill:rgb(40,44,52)}.b{font-family:Consolas,"Courier New",Courier,"Liberation Mono",monospace}.c{fill:rgb(171,178,191);white-space:pre}.d{fill:rgb(0,128,128);font-weight:bold;white-space:pre}.e{fill:transparent}.f{fill:rgb(82,139,255)}.h{animation-duration:8.188s;animation-iteration-count:infinite;animation-name:g;animation-timing-function:steps(1,end)}@keyframes g{0%{transform:translateX(-0px)}0%{transform:translateX(-65px)}16.8%{transform:translateX(-130px)}26.7%{transform:translateX(-195px)}36.6%{transform:translateX(-260px)}46.6%{transform:translateX(-325px)}56.5%{transform:translateX(-390px)}66.4%{transform:translateX(-455px)}100%{transform:translateX(-520px)}}</style><g font-family="Consolas, &quot;Courier New&quot;, Courier, &quot;Liberation Mono&quot;, monospace" font-size="1.67" class="b"><defs><symbol id="1"><text x="0" y="1.67" class="c">Packing</text><text x="8.016" y="1.67" class="c">the</text><text x="12.024" y="1.67" class="c">order</text><text x="18.035999999999998" y="1.67" class="c">[</text><text x="19.037999999999997" y="1.67" class="d">########################</text><text x="43.086" y="1.67" class="c">]</text><text x="45.089999999999996" y="1.67" class="c">6/6</text><text x="49.098" y="1.67" class="c">packed</text><text x="56.111999999999995" y="1.67" class="c">Beet</text></symbol><symbol id="a"><rect height="3" width="65" x="0" y="0" class="e"></rect></symbol><symbol id="b"><rect height="1.837" width="1.1022" class="f"></rect></symbol></defs><rect height="5.511" width="65" class="a"></rect><g class="h"><svg x="0" y="0" width="585"><svg x="0"><use xlink:href="#a"></use><use xlink:href="#b" x="-0.0040000000000000036" y="0"></use></svg><svg x="65"><use xlink:href="#a"></use><text x="0" y="3.5069999999999997" class="c">Packing</text><text x="8.016" y="3.5069999999999997" class="c">the</text><text x="12.024" y="3.5069999999999997" class="c">order</text><text x="18.035999999999998" y="3.5069999999999997" class="c">[------------------------]</text><text x="45.089999999999996" y="3.5069999999999997" class="c">0/6</text></svg><svg x="130"><use xlink:href="#a"></use><text x="0" y="3.5069999999999997" class="c">Packing</text><text x="8.016" y="3.5069999999999997" class="c">the</text><text x="12.024" y="3.5069999999999997" class="c">order</text><text x="18.035999999999998" y="3.5069999999999997" class="c">[</text><text x="19.037999999999997" y="3.5069999999999997" class="d">####</text><text x="23.045999999999996" y="3.5069999999999997" class="c">--------------------]</text><text x="45.089999999999996" y="3.5069999999999997" class="c">1/6</text><text x="49.098" y="3.5069999999999997" class="c">packed</text><text x="56.111999999999995" y="3.5069999999999997" class="c">Apple</text></svg><svg x="195"><use xlink:href="#a"></use><text x="0" y="3.5069999999999997" class="c">Packing</text><text x="8.016" y="3.5069999999999997" class="c">the</text><text x="12.024" y="3.5069999999999997" class="c">order</text><text x="18.035999999999998" y="3.5069999999999997" class="c">[</text><text x="19.037999999999997" y="3.5069999999999997" class="d">########</text><text x="27.054" y="3.5069999999999997" class="c">----------------]</text><text x="45.089999999999996" y="3.5069999999999997" class="c">2/6</text><text x="49.098" y="3.5069999999999997" class="c">packed</text><text x="56.111999999999995" y="3.5069999999999997" class="c">Carrot</text></svg><svg x="260"><use xlink:href="#a"></use><text x="0" y="3.5069999999999997" class="c">Packing</text><text x="8.016" y="3.5069999999999997" class="c">the</text><text x="12.024" y="3.5069999999999997" class="c">order</text><text x="18.035999999999998" y="3.5069999999999997" class="c">[</text><text x="19.037999999999997" y="3.5069999999999997" class="d">############</text><text x="31.061999999999998" y="3.5069999999999997" class="c">------------]</text><text x="45.089999999999996" y="3.5069999999999997" class="c">3/6</text><text x="49.098" y="3.5069999999999997" class="c">packed</text><text x="56.111999999999995" y="3.5069999999999997" class="c">Tomato</text></svg><svg x="325"><use xlink:href="#a"></use><text x="0" y="3.5069999999999997" class="c">Packing</text><text x="8.016" y="3.5069999999999997" class="c">the</text><text x="12.024" y="3.5069999999999997" class="c">order</text><text x="18.035999999999998" y="3.5069999999999997" class="c">[</text><text x="19.037999999999997" y="3.5069999999999997" class="d">################</text><text x="35.06999999999999" y="3.5069999999999997" class="c">--------]</text><text x="45.089999999999996" y="3.5069999999999997" class="c">4/6</text><text x="49.098" y="3.5069999999999997" class="c">packed</text><text x="56.111999999999995" y="3.5069999999999997" class="c">Spinach</text></svg><svg x="390"><use xlink:href="#a"></use><text x="0" y="3.5069999999999997" class="c">Packing</text><text x="8.016" y="3.5069999999999997" class="c">the</text><text x="12.024" y="3.5069999999999997" class="c">order</text><text x="18.035999999999998" y="3.5069999999999997" class="c">[</text><text x="19.037999999999997" y="3.5069999999999997" class="d">####################</text><text x="39.077999999999996" y="3.5069999999999997" class="c">----]</text><text x="45.089999999999996" y="3.5069999999999997" class="c">5/6</text><text x="49.098" y="3.5069999999999997" class="c">packed</text><text x="56.111999999999995" y="3.5069999999999997" class="c">Pear</text></svg><svg x="455"><use xlink:href="#a"></use><use xlink:href="#1" y="1.837"></use></svg><svg x="520"><use xlink:href="#a"></use><use xlink:href="#1" y="1.837"></use></svg></svg></g></g></svg></svg>