<svg xmlns="http://www.w3.org/2000/svg" xmlns:xlink="http://www.w3.org/1999/xlink" width="720" height="257.18"><rect width="720" height="257.18" rx="0" ry="0" class="a"></rect><svg height="257.18" viewBox="0 0 72 25.718" width="720" xmlns="http://www.w3.org/2000/svg" xmlns:xlink="http://www.w3.org/1999/xlink"><style>.a{fill:rgb(250,250,250)}.b{font-family:Consolas,"Courier New",Courier,"Liberation Mono",monospace}.c{fill:transparent}.d{fill:rgb(90,96,105);white-space:pre}.e{fill:rgb(0,128,128);font-weight:bold;white-space:pre}.f{fill:rgb(56,58,66);font-weight:bold;white-space:pre}.g{fill:rgb(56,58,66);white-space:pre}.h{fill:rgb(0,128,0);white-space:pre}</style><g font-family="Consolas, &quot;Courier New&quot;, Courier, &quot;Liberation Mono&quot;, monospace" font-size="1.67" class="b"><defs><symbol id="a"><rect height="14" width="72" x="0" y="0" class="c"></rect></symbol></defs><rect height="25.718" width="72" class="a"></rect><svg x="0" y="0" width="72"><svg x="0"><use xlink:href="#a"></use><text x="0" y="1.67" class="d">Quick</text><text x="6.012" y="1.67" class="d">start</text><text x="12.024" y="1.67" class="d">›</text><text x="14.027999999999999" y="1.67" class="d">New</text><text x="18.035999999999998" y="1.67" class="d">order</text><text x="0" y="3.5069999999999997" class="e">❯</text><text x="2.004" y="3.5069999999999997" class="f">Order</text><text x="8.016" y="3.5069999999999997" class="f">name</text><text x="2.004" y="5.343999999999999" class="g">Fruit</text><text x="9.017999999999999" y="5.343999999999999" class="h">banana</text><text x="2.004" y="7.181" class="g">Vegetables</text><text x="14.027999999999999" y="7.181" class="h">carrot</text><text x="2.004" y="9.018" class="g">Quantity</text><text x="12.024" y="9.018" class="h">6</text><text x="2.004" y="10.855" class="g">Organic</text><text x="10.02" y="10.855" class="g">only?</text><text x="17.034" y="10.855" class="h">no</text><text x="0" y="14.529" class="d">↑/↓</text><text x="4.008" y="14.529" class="d">move</text><text x="9.017999999999999" y="14.529" class="d">·</text><text x="11.021999999999998" y="14.529" class="d">↵</text><text x="13.026" y="14.529" class="d">select</text><text x="20.04" y="14.529" class="d">·</text><text x="22.043999999999997" y="14.529" class="d">esc</text><text x="26.052" y="14.529" class="d">back</text><text x="31.061999999999998" y="14.529" class="d">·</text><text x="33.065999999999995" y="14.529" class="d">q</text><text x="35.06999999999999" y="14.529" class="d">quit</text><text x="40.08" y="14.529" class="d">·</text><text x="42.083999999999996" y="14.529" class="d">?</text><text x="44.087999999999994" y="14.529" class="d">help</text></svg></svg></g></svg></svg>