<svg xmlns="http://www.w3.org/2000/svg" xmlns:xlink="http://www.w3.org/1999/xlink" width="720" height="330.66"><rect width="720" height="330.66" rx="0" ry="0" class="a"></rect><svg height="330.66" viewBox="0 0 72 33.066" width="720" xmlns="http://www.w3.org/2000/svg" xmlns:xlink="http://www.w3.org/1999/xlink"><style>.a{fill:rgb(250,250,250)}.b{font-family:Consolas,"Courier New",Courier,"Liberation Mono",monospace}.c{fill:rgb(0,128,128);white-space:pre}.d{fill:transparent}.e{fill:rgb(90,96,105);white-space:pre}.f{fill:rgb(0,128,128);font-weight:bold;white-space:pre}.g{fill:rgb(56,58,66);font-weight:bold;white-space:pre}.h{fill:rgb(56,58,66);white-space:pre}.i{fill:rgb(0,128,0);white-space:pre}.j{fill:rgb(128,128,0);font-weight:bold;white-space:pre}</style><g font-family="Consolas, &quot;Courier New&quot;, Courier, &quot;Liberation Mono&quot;, monospace" font-size="1.67" class="b"><defs><symbol id="1"><text x="0" y="1.67" class="c">├──────────────────────────────────────────────────────────────────────┤</text></symbol><symbol id="2"><text x="0" y="1.67" class="c">│</text><text x="71.142" y="1.67" class="c">│</text></symbol><symbol id="a"><rect height="18" width="72" x="0" y="0" class="d"></rect></symbol></defs><rect height="33.066" width="72" class="a"></rect><svg x="0" y="0" width="72"><svg x="0"><use xlink:href="#a"></use><text x="0" y="1.67" class="c">╭──────────────────────────────────────────────────────────────────────╮</text><text x="0" y="3.5069999999999997" class="c">│</text><text x="2.004" y="3.5069999999999997" class="e">Quick</text><text x="8.016" y="3.5069999999999997" class="e">start</text><text x="14.027999999999999" y="3.5069999999999997" class="e">›</text><text x="16.032" y="3.5069999999999997" class="e">New</text><text x="20.04" y="3.5069999999999997" class="e">order</text><text x="71.142" y="3.5069999999999997" class="c">│</text><use xlink:href="#1" y="3.674"></use><use xlink:href="#2" y="5.511"></use><text x="0" y="9.018" class="c">│</text><text x="2.004" y="9.018" class="f">❯</text><text x="4.008" y="9.018" class="g">Order</text><text x="10.02" y="9.018" class="g">name</text><text x="71.142" y="9.018" class="c">│</text><use xlink:href="#2" y="9.185"></use><text x="0" y="12.692" class="c">│</text><text x="4.008" y="12.692" class="h">Fruit</text><text x="11.021999999999998" y="12.692" class="i">banana</text><text x="71.142" y="12.692" class="c">│</text><use xlink:href="#2" y="12.859"></use><text x="0" y="16.366" class="c">│</text><text x="4.008" y="16.366" class="h">Vegetables</text><text x="16.032" y="16.366" class="i">carrot</text><text x="71.142" y="16.366" class="c">│</text><use xlink:href="#2" y="16.533"></use><text x="0" y="20.04" class="c">│</text><text x="4.008" y="20.04" class="h">Quantity</text><text x="14.027999999999999" y="20.04" class="i">6</text><text x="71.142" y="20.04" class="c">│</text><use xlink:href="#2" y="20.206999999999997"></use><text x="0" y="23.714" class="c">│</text><text x="4.008" y="23.714" class="j">▼</text><text x="71.142" y="23.714" class="c">│</text><use xlink:href="#2" y="23.881000000000004"></use><use xlink:href="#1" y="25.718"></use><text x="0" y="29.225" class="c">│</text><text x="2.004" y="29.225" class="e">↑/↓</text><text x="6.012" y="29.225" class="e">move</text><text x="11.021999999999998" y="29.225" class="e">·</text><text x="13.026" y="29.225" class="e">↵</text><text x="15.029999999999998" y="29.225" class="e">select</text><text x="22.043999999999997" y="29.225" class="e">·</text><text x="24.048" y="29.225" class="e">esc</text><text x="28.055999999999997" y="29.225" class="e">back</text><text x="33.065999999999995" y="29.225" class="e">·</text><text x="35.06999999999999" y="29.225" class="e">q</text><text x="37.074" y="29.225" class="e">quit</text><text x="42.083999999999996" y="29.225" class="e">·</text><text x="44.087999999999994" y="29.225" class="e">?</text><text x="46.09199999999999" y="29.225" class="e">help</text><text x="71.142" y="29.225" class="c">│</text><text x="0" y="31.061999999999998" class="c">╰──────────────────────────────────────────────────────────────────────╯</text></svg></svg></g></svg></svg>