<svg xmlns="http://www.w3.org/2000/svg" xmlns:xlink="http://www.w3.org/1999/xlink" width="800" height="440.88"><rect width="800" height="440.88" rx="0" ry="0" class="a"></rect><svg height="440.88" viewBox="0 0 80 44.088" width="800" xmlns="http://www.w3.org/2000/svg" xmlns:xlink="http://www.w3.org/1999/xlink"><style>.a{fill:rgb(40,44,52)}.b{font-family:Consolas,"Courier New",Courier,"Liberation Mono",monospace}.c{fill:rgb(128,128,128);white-space:pre}.d{fill:rgb(0,128,128);font-weight:bold;white-space:pre}.e{fill:rgb(171,178,191);font-weight:bold;white-space:pre}.f{fill:rgb(128,128,128);font-weight:bold;white-space:pre}.g{fill:rgb(0,128,0);font-weight:bold;white-space:pre}.h{fill:rgb(171,178,191);white-space:pre}.i{fill:rgb(0,128,0);white-space:pre}.j{fill:rgb(185,192,203)}.k{fill:rgb(40,44,52);white-space:pre}.l{fill:transparent}.m{fill:rgb(82,139,255)}.o{animation-duration:35.331s;animation-iteration-count:infinite;animation-name:n;animation-timing-function:steps(1,end)}.p{fill:rgb(40,44,52);font-weight:bold;white-space:pre}.q{fill:rgb(128,128,0);font-weight:bold;white-space:pre}@keyframes n{0%{transform:translateX(-0px)}1.67%{transform:translateX(-80px)}3.07%{transform:translateX(-160px)}3.09%{transform:translateX(-240px)}10.33%{transform:translateX(-320px)}16.7%{transform:translateX(-400px)}17.8%{transform:translateX(-480px)}18.94%{transform:translateX(-560px)}20.04%{transform:translateX(-640px)}21.79%{transform:translateX(-720px)}26.57%{transform:translateX(-800px)}28.3%{transform:translateX(-880px)}33.76%{transform:translateX(-960px)}38.34%{transform:translateX(-1040px)}40.57%{transform:translateX(-1120px)}45.24%{transform:translateX(-1200px)}46.75%{transform:translateX(-1280px)}51.29%{transform:translateX(-1360px)}52.44%{transform:translateX(-1440px)}53.6%{transform:translateX(-1520px)}54.86%{transform:translateX(-1600px)}55.93%{transform:translateX(-1680px)}58.06%{transform:translateX(-1760px)}62.82%{transform:translateX(-1840px)}63.88%{transform:translateX(-1920px)}65.02%{transform:translateX(-2000px)}66.51%{transform:translateX(-2080px)}70.68%{transform:translateX(-2160px)}71.3%{transform:translateX(-2240px)}71.93%{transform:translateX(-2320px)}72.57%{transform:translateX(-2400px)}73%{transform:translateX(-2480px)}73.75%{transform:translateX(-2560px)}74.19%{transform:translateX(-2640px)}74.72%{transform:translateX(-2720px)}75.15%{transform:translateX(-2800px)}75.58%{transform:translateX(-2880px)}75.97%{transform:translateX(-2960px)}76.42%{transform:translateX(-3040px)}79.39%{transform:translateX(-3120px)}81.29%{transform:translateX(-3200px)}85.97%{transform:translateX(-3280px)}87.17%{transform:translateX(-3360px)}89.29%{transform:translateX(-3440px)}89.39%{transform:translateX(-3520px)}100%{transform:translateX(-3600px)}}</style><g font-family="Consolas, &quot;Courier New&quot;, Courier, &quot;Liberation Mono&quot;, monospace" font-size="1.67" class="b"><defs><symbol id="1"><text x="0" y="1.67" class="c">Produce</text><text x="8.016" y="1.67" class="c">box</text></symbol><symbol id="2"><text x="0" y="1.67" class="d">❯</text><text x="2.004" y="1.67" class="e">Basics</text><text x="9.017999999999999" y="1.67" class="f">›</text></symbol><symbol id="3"><text x="4.008" y="1.67" class="f">Naming</text><text x="11.021999999999998" y="1.67" class="f">and</text><text x="15.029999999999998" y="1.67" class="f">identity.</text></symbol><symbol id="4"><text x="4.008" y="1.67" class="g">Tui4</text><text x="9.017999999999999" y="1.67" class="g">·</text><text x="11.021999999999998" y="1.67" class="g">tui4</text><text x="16.032" y="1.67" class="g">·</text><text x="18.035999999999998" y="1.67" class="g">sunny</text><text x="24.048" y="1.67" class="g">·</text><text x="26.052" y="1.67" class="g">sunny/tui4</text></symbol><symbol id="5"><text x="2.004" y="1.67" class="h">Contents</text><text x="11.021999999999998" y="1.67" class="h">&amp;</text><text x="13.026" y="1.67" class="h">options</text><text x="21.041999999999998" y="1.67" class="c">›</text></symbol><symbol id="6"><text x="4.008" y="1.67" class="c">What</text><text x="9.017999999999999" y="1.67" class="c">the</text><text x="13.026" y="1.67" class="c">box</text><text x="17.034" y="1.67" class="c">ships</text><text x="23.045999999999996" y="1.67" class="c">with.</text></symbol><symbol id="7"><text x="4.008" y="1.67" class="i">medium</text><text x="11.021999999999998" y="1.67" class="i">·</text><text x="14.027999999999999" y="1.67" class="i">·</text><text x="16.032" y="1.67" class="i">Friday</text><text x="23.045999999999996" y="1.67" class="i">·</text><text x="25.05" y="1.67" class="i">no</text></symbol><symbol id="8"><text x="2.004" y="1.67" class="i">[</text><text x="4.008" y="1.67" class="i">Submit</text><text x="11.021999999999998" y="1.67" class="i">]</text><text x="14.027999999999999" y="1.67" class="i">[</text><text x="16.032" y="1.67" class="i">Cancel</text><text x="23.045999999999996" y="1.67" class="i">]</text></symbol><symbol id="9"><text x="0" y="1.67" class="c">↑/↓</text><text x="4.008" y="1.67" class="c">move</text><text x="9.017999999999999" y="1.67" class="c">·</text><text x="11.021999999999998" y="1.67" class="c">↵</text><text x="13.026" y="1.67" class="c">select</text><text x="20.04" y="1.67" class="c">·</text><text x="22.043999999999997" y="1.67" class="c">esc</text><text x="26.052" y="1.67" class="c">back</text><text x="31.061999999999998" y="1.67" class="c">·</text><text x="33.065999999999995" y="1.67" class="c">q</text><text x="35.06999999999999" y="1.67" class="c">quit</text><text x="40.08" y="1.67" class="c">·</text><text x="42.083999999999996" y="1.67" class="c">?</text><text x="44.087999999999994" y="1.67" class="c">help</text></symbol><symbol id="10"><text x="0" y="1.67" class="c">Produce</text><text x="8.016" y="1.67" class="c">box</text><text x="12.024" y="1.67" class="c">›</text><text x="14.027999999999999" y="1.67" class="c">Basics</text></symbol><symbol id="11"><text x="2.004" y="1.67" class="h">Slug</text><text x="8.016" y="1.67" class="i">tui4</text><rect height="1.837" width="9" x="67.134" y="0" class="j"></rect><text x="67.134" y="1.67" class="k"> derived </text></symbol><symbol id="12"><text x="4.008" y="1.67" class="c">Derived</text><text x="12.024" y="1.67" class="c">from</text><text x="17.034" y="1.67" class="c">the</text><text x="21.041999999999998" y="1.67" class="c">box</text><text x="25.05" y="1.67" class="c">name.</text></symbol><symbol id="13"><text x="2.004" y="1.67" class="h">Grower</text><text x="10.02" y="1.67" class="i">sunny</text></symbol><symbol id="14"><text x="2.004" y="1.67" class="h">Box</text><text x="6.012" y="1.67" class="h">code</text><text x="12.024" y="1.67" class="i">sunny/tui4</text><rect height="1.837" width="9" x="67.134" y="0" class="j"></rect><text x="67.134" y="1.67" class="k"> derived </text></symbol><symbol id="15"><text x="4.008" y="1.67" class="c">Derived</text><text x="12.024" y="1.67" class="c">from</text><text x="17.034" y="1.67" class="c">grower</text><text x="24.048" y="1.67" class="c">and</text><text x="28.055999999999997" y="1.67" class="c">slug.</text></symbol><symbol id="16"><text x="2.004" y="1.67" class="h">Label</text><text x="9.017999999999999" y="1.67" class="i">Tui4</text><rect height="1.837" width="9" x="67.134" y="0" class="j"></rect><text x="67.134" y="1.67" class="k"> derived </text></symbol><symbol id="17"><text x="2.004" y="1.67" class="h">Box</text><text x="6.012" y="1.67" class="h">name</text><text x="12.024" y="1.67" class="i">Tui4</text></symbol><symbol id="18"><text x="4.008" y="1.67" class="c">A</text><text x="6.012" y="1.67" class="c">human-readable</text><text x="21.041999999999998" y="1.67" class="c">name,</text><text x="27.054" y="1.67" class="c">e.g.</text><text x="32.064" y="1.67" class="c">&quot;Summer</text><text x="40.08" y="1.67" class="c">Box&quot;.</text></symbol><symbol id="19"><text x="2.004" y="1.67" class="h">Basics</text><text x="9.017999999999999" y="1.67" class="c">›</text></symbol><symbol id="20"><text x="4.008" y="1.67" class="c">Naming</text><text x="11.021999999999998" y="1.67" class="c">and</text><text x="15.029999999999998" y="1.67" class="c">identity.</text></symbol><symbol id="21"><text x="4.008" y="1.67" class="i">Tui4</text><text x="9.017999999999999" y="1.67" class="i">·</text><text x="11.021999999999998" y="1.67" class="i">tui4</text><text x="16.032" y="1.67" class="i">·</text><text x="18.035999999999998" y="1.67" class="i">sunny</text><text x="24.048" y="1.67" class="i">·</text><text x="26.052" y="1.67" class="i">sunny/tui4</text></symbol><symbol id="22"><text x="0" y="1.67" class="d">❯</text><text x="2.004" y="1.67" class="e">Contents</text><text x="11.021999999999998" y="1.67" class="e">&amp;</text><text x="13.026" y="1.67" class="e">options</text><text x="21.041999999999998" y="1.67" class="f">›</text></symbol><symbol id="23"><text x="4.008" y="1.67" class="f">What</text><text x="9.017999999999999" y="1.67" class="f">the</text><text x="13.026" y="1.67" class="f">box</text><text x="17.034" y="1.67" class="f">ships</text><text x="23.045999999999996" y="1.67" class="f">with.</text></symbol><symbol id="24"><text x="0" y="1.67" class="c">Produce</text><text x="8.016" y="1.67" class="c">box</text><text x="12.024" y="1.67" class="c">›</text><text x="14.027999999999999" y="1.67" class="c">Contents</text><text x="23.045999999999996" y="1.67" class="c">&amp;</text><text x="25.05" y="1.67" class="c">options</text></symbol><symbol id="25"><text x="2.004" y="1.67" class="h">Contents</text></symbol><symbol id="26"><text x="4.008" y="1.67" class="c">Space</text><text x="10.02" y="1.67" class="c">to</text><text x="13.026" y="1.67" class="c">toggle,</text><text x="21.041999999999998" y="1.67" class="c">type</text><text x="26.052" y="1.67" class="c">to</text><text x="29.058" y="1.67" class="c">filter.</text></symbol><symbol id="27"><text x="2.004" y="1.67" class="h">Herb</text><text x="7.013999999999999" y="1.67" class="h">bundle</text></symbol><symbol id="28"><text x="2.004" y="1.67" class="h">Weekly</text><text x="9.017999999999999" y="1.67" class="h">delivery?</text></symbol><symbol id="29"><text x="2.004" y="1.67" class="h">Delivery</text><text x="11.021999999999998" y="1.67" class="h">day</text><text x="16.032" y="1.67" class="i">Friday</text></symbol><symbol id="30"><text x="2.004" y="1.67" class="h">Gift</text><text x="7.013999999999999" y="1.67" class="h">wrap?</text><text x="14.027999999999999" y="1.67" class="i">no</text></symbol><symbol id="31"><text x="0" y="1.67" class="d">❯</text><text x="2.004" y="1.67" class="e">Box</text><text x="6.012" y="1.67" class="e">size</text><text x="12.024" y="1.67" class="h">○</text><text x="14.027999999999999" y="1.67" class="h">Small</text></symbol><symbol id="32"><text x="0" y="1.67" class="c">↑/↓</text><text x="4.008" y="1.67" class="c">move</text><text x="9.017999999999999" y="1.67" class="c">·</text><text x="11.021999999999998" y="1.67" class="c">↵</text><text x="13.026" y="1.67" class="c">accept</text><text x="20.04" y="1.67" class="c">·</text><text x="22.043999999999997" y="1.67" class="c">esc</text><text x="26.052" y="1.67" class="c">cancel</text></symbol><symbol id="33"><text x="2.004" y="1.67" class="h">Box</text><text x="6.012" y="1.67" class="h">size</text><text x="12.024" y="1.67" class="i">large</text><rect height="1.837" width="8" x="68.136" y="0" class="j"></rect><text x="68.136" y="1.67" class="k"> edited </text></symbol><symbol id="34"><text x="4.008" y="1.67" class="f">Space</text><text x="10.02" y="1.67" class="f">to</text><text x="13.026" y="1.67" class="f">toggle,</text><text x="21.041999999999998" y="1.67" class="f">type</text><text x="26.052" y="1.67" class="f">to</text><text x="29.058" y="1.67" class="f">filter.</text></symbol><symbol id="35"><text x="14.027999999999999" y="1.67" class="h">◻</text><text x="16.032" y="1.67" class="h">Vegetables</text></symbol><symbol id="36"><text x="14.027999999999999" y="1.67" class="h">◻</text><text x="16.032" y="1.67" class="h">Herbs</text></symbol><symbol id="37"><text x="14.027999999999999" y="1.67" class="h">◻</text><text x="16.032" y="1.67" class="h">Salad</text></symbol><symbol id="38"><text x="0" y="1.67" class="c">space</text><text x="6.012" y="1.67" class="c">select</text><text x="13.026" y="1.67" class="c">·</text><text x="15.029999999999998" y="1.67" class="c">↑/↓</text><text x="19.037999999999997" y="1.67" class="c">move</text><text x="24.048" y="1.67" class="c">·</text><text x="26.052" y="1.67" class="c">←/→</text><text x="30.059999999999995" y="1.67" class="c">none/all</text><text x="39.077999999999996" y="1.67" class="c">·</text><text x="41.082" y="1.67" class="c">↵</text><text x="43.086" y="1.67" class="c">accept</text><text x="50.1" y="1.67" class="c">·</text><text x="52.104" y="1.67" class="c">esc</text><text x="56.111999999999995" y="1.67" class="c">cancel</text></symbol><symbol id="39"><text x="0" y="1.67" class="d">❯</text><text x="2.004" y="1.67" class="e">Contents</text><text x="14.027999999999999" y="1.67" class="i">◼</text><text x="16.032" y="1.67" class="h">Fruit</text></symbol><symbol id="40"><text x="14.027999999999999" y="1.67" class="i">◼</text><text x="16.032" y="1.67" class="h">Vegetables</text></symbol><symbol id="41"><text x="2.004" y="1.67" class="h">Contents</text><text x="12.024" y="1.67" class="i">fruit,</text><text x="19.037999999999997" y="1.67" class="i">veg,</text><text x="24.048" y="1.67" class="i">herbs</text><rect height="1.837" width="8" x="68.136" y="0" class="j"></rect><text x="68.136" y="1.67" class="k"> edited </text></symbol><symbol id="42"><text x="4.008" y="1.67" class="i">large</text><text x="10.02" y="1.67" class="i">·</text><text x="12.024" y="1.67" class="i">fruit,</text><text x="19.037999999999997" y="1.67" class="i">veg,</text><text x="24.048" y="1.67" class="i">herbs</text><text x="30.059999999999995" y="1.67" class="i">·</text><text x="32.064" y="1.67" class="i">Monday</text><text x="39.077999999999996" y="1.67" class="i">·</text><text x="41.082" y="1.67" class="i">no</text></symbol><symbol id="43"><text x="0" y="1.67" class="h">Basics</text></symbol><symbol id="44"><text x="2.004" y="1.67" class="h">Box</text><text x="6.012" y="1.67" class="h">name:</text><text x="12.024" y="1.67" class="h">Tui4</text></symbol><symbol id="45"><text x="2.004" y="1.67" class="h">Slug:</text><text x="8.016" y="1.67" class="h">tui4</text><text x="13.026" y="1.67" class="h">(derived)</text></symbol><symbol id="46"><text x="2.004" y="1.67" class="h">Grower:</text><text x="10.02" y="1.67" class="h">sunny</text></symbol><symbol id="47"><text x="2.004" y="1.67" class="h">Box</text><text x="6.012" y="1.67" class="h">code:</text><text x="12.024" y="1.67" class="h">sunny/tui4</text><text x="23.045999999999996" y="1.67" class="h">(derived)</text></symbol><symbol id="48"><text x="2.004" y="1.67" class="h">Label:</text><text x="9.017999999999999" y="1.67" class="h">Tui4</text><text x="14.027999999999999" y="1.67" class="h">(derived)</text></symbol><symbol id="49"><text x="0" y="1.67" class="h">Contents</text><text x="9.017999999999999" y="1.67" class="h">&amp;</text><text x="11.021999999999998" y="1.67" class="h">options</text></symbol><symbol id="50"><text x="2.004" y="1.67" class="h">Box</text><text x="6.012" y="1.67" class="h">size:</text><text x="12.024" y="1.67" class="h">large</text><text x="18.035999999999998" y="1.67" class="h">(edited)</text></symbol><symbol id="51"><text x="2.004" y="1.67" class="h">Contents:</text><text x="12.024" y="1.67" class="h">fruit,</text><text x="19.037999999999997" y="1.67" class="h">veg,</text><text x="24.048" y="1.67" class="h">herbs</text><text x="30.059999999999995" y="1.67" class="h">(edited)</text></symbol><symbol id="52"><text x="2.004" y="1.67" class="h">Delivery</text><text x="11.021999999999998" y="1.67" class="h">day:</text><text x="16.032" y="1.67" class="h">Monday</text><text x="23.045999999999996" y="1.67" class="h">(edited)</text></symbol><symbol id="53"><text x="2.004" y="1.67" class="h">Gift</text><text x="7.013999999999999" y="1.67" class="h">wrap?:</text><text x="14.027999999999999" y="1.67" class="h">no</text></symbol><symbol id="a"><rect height="24" width="80" x="0" y="0" class="l"></rect></symbol><symbol id="b"><rect height="1.837" width="1.1022" class="m"></rect></symbol></defs><rect height="44.088" width="80" class="a"></rect><g class="o"><svg x="0" y="0" width="3680"><svg x="0"><use xlink:href="#a"></use><use xlink:href="#b" x="-0.0040000000000000036" y="0"></use></svg><svg x="80"><use xlink:href="#a"></use><use xlink:href="#b" x="-0.0040000000000000036" y="0"></use></svg><svg x="160"><use xlink:href="#a"></use></svg><svg x="240"><use xlink:href="#a"></use><use xlink:href="#1" y="0"></use><use xlink:href="#2" y="1.837"></use><use xlink:href="#3" y="3.674"></use><use xlink:href="#4" y="5.511"></use><use xlink:href="#5" y="7.348"></use><use xlink:href="#6" y="9.185"></use><use xlink:href="#7" y="11.022"></use><use xlink:href="#8" y="14.696"></use><use xlink:href="#9" y="18.37"></use></svg><svg x="320"><use xlink:href="#a"></use><use xlink:href="#10" y="0"></use><text x="0" y="3.5069999999999997" class="d">❯</text><text x="2.004" y="3.5069999999999997" class="e">Box</text><text x="6.012" y="3.5069999999999997" class="e">name</text><text x="12.024" y="3.5069999999999997" class="g">Tui4</text><text x="4.008" y="5.343999999999999" class="f">A</text><text x="6.012" y="5.343999999999999" class="f">human-readable</text><text x="21.041999999999998" y="5.343999999999999" class="f">name,</text><text x="27.054" y="5.343999999999999" class="f">e.g.</text><text x="32.064" y="5.343999999999999" class="f">&quot;Summer</text><text x="40.08" y="5.343999999999999" class="f">Box&quot;.</text><use xlink:href="#11" y="5.511"></use><use xlink:href="#12" y="7.348"></use><use xlink:href="#13" y="9.185"></use><use xlink:href="#14" y="11.022"></use><use xlink:href="#15" y="12.859"></use><use xlink:href="#16" y="14.696"></use><use xlink:href="#9" y="18.37"></use></svg><svg x="400"><use xlink:href="#a"></use><use xlink:href="#10" y="0"></use><use xlink:href="#17" y="1.837"></use><use xlink:href="#18" y="3.674"></use><text x="0" y="7.181" class="d">❯</text><text x="2.004" y="7.181" class="e">Slug</text><text x="8.016" y="7.181" class="g">tui4</text><rect height="1.837" width="9" x="67.134" y="5.511" class="j"></rect><text x="67.134" y="7.181" class="p"> derived </text><text x="4.008" y="9.018" class="f">Derived</text><text x="12.024" y="9.018" class="f">from</text><text x="17.034" y="9.018" class="f">the</text><text x="21.041999999999998" y="9.018" class="f">box</text><text x="25.05" y="9.018" class="f">name.</text><use xlink:href="#13" y="9.185"></use><use xlink:href="#14" y="11.022"></use><use xlink:href="#15" y="12.859"></use><use xlink:href="#16" y="14.696"></use><use xlink:href="#9" y="18.37"></use></svg><svg x="480"><use xlink:href="#a"></use><use xlink:href="#10" y="0"></use><use xlink:href="#17" y="1.837"></use><use xlink:href="#18" y="3.674"></use><use xlink:href="#11" y="5.511"></use><use xlink:href="#12" y="7.348"></use><text x="0" y="10.855" class="d">❯</text><text x="2.004" y="10.855" class="e">Grower</text><text x="10.02" y="10.855" class="g">sunny</text><use xlink:href="#14" y="11.022"></use><use xlink:href="#15" y="12.859"></use><use xlink:href="#16" y="14.696"></use><use xlink:href="#9" y="18.37"></use></svg><svg x="560"><use xlink:href="#a"></use><use xlink:href="#10" y="0"></use><use xlink:href="#17" y="1.837"></use><use xlink:href="#18" y="3.674"></use><use xlink:href="#11" y="5.511"></use><use xlink:href="#12" y="7.348"></use><use xlink:href="#13" y="9.185"></use><text x="0" y="12.692" class="d">❯</text><text x="2.004" y="12.692" class="e">Box</text><text x="6.012" y="12.692" class="e">code</text><text x="12.024" y="12.692" class="g">sunny/tui4</text><rect height="1.837" width="9" x="67.134" y="11.022" class="j"></rect><text x="67.134" y="12.692" class="p"> derived </text><text x="4.008" y="14.529" class="f">Derived</text><text x="12.024" y="14.529" class="f">from</text><text x="17.034" y="14.529" class="f">grower</text><text x="24.048" y="14.529" class="f">and</text><text x="28.055999999999997" y="14.529" class="f">slug.</text><use xlink:href="#16" y="14.696"></use><use xlink:href="#9" y="18.37"></use></svg><svg x="640"><use xlink:href="#a"></use><use xlink:href="#10" y="0"></use><use xlink:href="#17" y="1.837"></use><use xlink:href="#18" y="3.674"></use><use xlink:href="#11" y="5.511"></use><use xlink:href="#12" y="7.348"></use><use xlink:href="#13" y="9.185"></use><use xlink:href="#14" y="11.022"></use><use xlink:href="#15" y="12.859"></use><text x="0" y="16.366" class="d">❯</text><text x="2.004" y="16.366" class="e">Label</text><text x="9.017999999999999" y="16.366" class="g">Tui4</text><rect height="1.837" width="9" x="67.134" y="14.696" class="j"></rect><text x="67.134" y="16.366" class="p"> derived </text><use xlink:href="#9" y="18.37"></use></svg><svg x="720"><use xlink:href="#a"></use><use xlink:href="#1" y="0"></use><use xlink:href="#2" y="1.837"></use><use xlink:href="#3" y="3.674"></use><use xlink:href="#4" y="5.511"></use><use xlink:href="#5" y="7.348"></use><use xlink:href="#6" y="9.185"></use><use xlink:href="#7" y="11.022"></use><use xlink:href="#8" y="14.696"></use><use xlink:href="#9" y="18.37"></use></svg><svg x="800"><use xlink:href="#a"></use><use xlink:href="#1" y="0"></use><use xlink:href="#19" y="1.837"></use><use xlink:href="#20" y="3.674"></use><use xlink:href="#21" y="5.511"></use><use xlink:href="#22" y="7.348"></use><use xlink:href="#23" y="9.185"></use><text x="4.008" y="12.692" class="g">medium</text><text x="11.021999999999998" y="12.692" class="g">·</text><text x="14.027999999999999" y="12.692" class="g">·</text><text x="16.032" y="12.692" class="g">Friday</text><text x="23.045999999999996" y="12.692" class="g">·</text><text x="25.05" y="12.692" class="g">no</text><use xlink:href="#8" y="14.696"></use><use xlink:href="#9" y="18.37"></use></svg><svg x="880"><use xlink:href="#a"></use><use xlink:href="#24" y="0"></use><text x="0" y="3.5069999999999997" class="d">❯</text><text x="2.004" y="3.5069999999999997" class="e">Box</text><text x="6.012" y="3.5069999999999997" class="e">size</text><text x="12.024" y="3.5069999999999997" class="g">medium</text><use xlink:href="#25" y="3.674"></use><use xlink:href="#26" y="5.511"></use><use xlink:href="#27" y="7.348"></use><use xlink:href="#28" y="9.185"></use><use xlink:href="#29" y="11.022"></use><use xlink:href="#30" y="12.859"></use><use xlink:href="#9" y="16.533"></use></svg><svg x="960"><use xlink:href="#a"></use><use xlink:href="#24" y="0"></use><use xlink:href="#31" y="1.837"></use><text x="12.024" y="5.343999999999999" class="d">●</text><text x="14.027999999999999" y="5.343999999999999" class="d">Medium</text><text x="12.024" y="7.181" class="h">○</text><text x="14.027999999999999" y="7.181" class="h">Large</text><use xlink:href="#25" y="7.348"></use><use xlink:href="#26" y="9.185"></use><use xlink:href="#27" y="11.022"></use><use xlink:href="#28" y="12.859"></use><use xlink:href="#29" y="14.696"></use><use xlink:href="#30" y="16.533"></use><use xlink:href="#32" y="20.206999999999997"></use></svg><svg x="1040"><use xlink:href="#a"></use><use xlink:href="#24" y="0"></use><use xlink:href="#31" y="1.837"></use><text x="12.024" y="5.343999999999999" class="h">○</text><text x="14.027999999999999" y="5.343999999999999" class="h">Medium</text><text x="12.024" y="7.181" class="d">●</text><text x="14.027999999999999" y="7.181" class="d">Large</text><use xlink:href="#25" y="7.348"></use><use xlink:href="#26" y="9.185"></use><use xlink:href="#27" y="11.022"></use><use xlink:href="#28" y="12.859"></use><use xlink:href="#29" y="14.696"></use><use xlink:href="#30" y="16.533"></use><use xlink:href="#32" y="20.206999999999997"></use></svg><svg x="1120"><use xlink:href="#a"></use><use xlink:href="#24" y="0"></use><text x="0" y="3.5069999999999997" class="d">❯</text><text x="2.004" y="3.5069999999999997" class="e">Box</text><text x="6.012" y="3.5069999999999997" class="e">size</text><text x="12.024" y="3.5069999999999997" class="g">large</text><rect height="1.837" width="8" x="68.136" y="1.8369999999999997" class="j"></rect><text x="68.136" y="3.5069999999999997" class="p"> edited </text><use xlink:href="#25" y="3.674"></use><use xlink:href="#26" y="5.511"></use><use xlink:href="#27" y="7.348"></use><use xlink:href="#28" y="9.185"></use><use xlink:href="#29" y="11.022"></use><use xlink:href="#30" y="12.859"></use><use xlink:href="#9" y="16.533"></use></svg><svg x="1200"><use xlink:href="#a"></use><use xlink:href="#24" y="0"></use><use xlink:href="#33" y="1.837"></use><text x="0" y="5.343999999999999" class="d">❯</text><text x="2.004" y="5.343999999999999" class="e">Contents</text><use xlink:href="#34" y="5.511"></use><use xlink:href="#27" y="7.348"></use><use xlink:href="#28" y="9.185"></use><use xlink:href="#29" y="11.022"></use><use xlink:href="#30" y="12.859"></use><use xlink:href="#9" y="16.533"></use></svg><svg x="1280"><use xlink:href="#a"></use><use xlink:href="#24" y="0"></use><use xlink:href="#33" y="1.837"></use><text x="0" y="5.343999999999999" class="d">❯</text><text x="2.004" y="5.343999999999999" class="e">Contents</text><text x="12.024" y="5.343999999999999" class="d">❯</text><text x="14.027999999999999" y="5.343999999999999" class="h">◻</text><text x="16.032" y="5.343999999999999" class="d">Fruit</text><use xlink:href="#35" y="5.511"></use><use xlink:href="#36" y="7.348"></use><use xlink:href="#37" y="9.185"></use><use xlink:href="#34" y="11.022"></use><use xlink:href="#27" y="12.859"></use><use xlink:href="#28" y="14.696"></use><use xlink:href="#29" y="16.533"></use><use xlink:href="#30" y="18.37"></use><use xlink:href="#38" y="22.044"></use></svg><svg x="1360"><use xlink:href="#a"></use><use xlink:href="#24" y="0"></use><use xlink:href="#33" y="1.837"></use><text x="0" y="5.343999999999999" class="d">❯</text><text x="2.004" y="5.343999999999999" class="e">Contents</text><text x="12.024" y="5.343999999999999" class="d">❯</text><text x="14.027999999999999" y="5.343999999999999" class="i">◼</text><text x="16.032" y="5.343999999999999" class="d">Fruit</text><use xlink:href="#35" y="5.511"></use><use xlink:href="#36" y="7.348"></use><use xlink:href="#37" y="9.185"></use><use xlink:href="#34" y="11.022"></use><use xlink:href="#27" y="12.859"></use><use xlink:href="#28" y="14.696"></use><use xlink:href="#29" y="16.533"></use><use xlink:href="#30" y="18.37"></use><use xlink:href="#38" y="22.044"></use></svg><svg x="1440"><use xlink:href="#a"></use><use xlink:href="#24" y="0"></use><use xlink:href="#33" y="1.837"></use><use xlink:href="#39" y="3.674"></use><text x="12.024" y="7.181" class="d">❯</text><text x="14.027999999999999" y="7.181" class="h">◻</text><text x="16.032" y="7.181" class="d">Vegetables</text><use xlink:href="#36" y="7.348"></use><use xlink:href="#37" y="9.185"></use><use xlink:href="#34" y="11.022"></use><use xlink:href="#27" y="12.859"></use><use xlink:href="#28" y="14.696"></use><use xlink:href="#29" y="16.533"></use><use xlink:href="#30" y="18.37"></use><use xlink:href="#38" y="22.044"></use></svg><svg x="1520"><use xlink:href="#a"></use><use xlink:href="#24" y="0"></use><use xlink:href="#33" y="1.837"></use><use xlink:href="#39" y="3.674"></use><text x="12.024" y="7.181" class="d">❯</text><text x="14.027999999999999" y="7.181" class="i">◼</text><text x="16.032" y="7.181" class="d">Vegetables</text><use xlink:href="#36" y="7.348"></use><use xlink:href="#37" y="9.185"></use><use xlink:href="#34" y="11.022"></use><use xlink:href="#27" y="12.859"></use><use xlink:href="#28" y="14.696"></use><use xlink:href="#29" y="16.533"></use><use xlink:href="#30" y="18.37"></use><use xlink:href="#38" y="22.044"></use></svg><svg x="1600"><use xlink:href="#a"></use><use xlink:href="#24" y="0"></use><use xlink:href="#33" y="1.837"></use><use xlink:href="#39" y="3.674"></use><use xlink:href="#40" y="5.511"></use><text x="12.024" y="9.018" class="d">❯</text><text x="14.027999999999999" y="9.018" class="h">◻</text><text x="16.032" y="9.018" class="d">Herbs</text><use xlink:href="#37" y="9.185"></use><use xlink:href="#34" y="11.022"></use><use xlink:href="#27" y="12.859"></use><use xlink:href="#28" y="14.696"></use><use xlink:href="#29" y="16.533"></use><use xlink:href="#30" y="18.37"></use><use xlink:href="#38" y="22.044"></use></svg><svg x="1680"><use xlink:href="#a"></use><use xlink:href="#24" y="0"></use><use xlink:href="#33" y="1.837"></use><use xlink:href="#39" y="3.674"></use><use xlink:href="#40" y="5.511"></use><text x="12.024" y="9.018" class="d">❯</text><text x="14.027999999999999" y="9.018" class="i">◼</text><text x="16.032" y="9.018" class="d">Herbs</text><use xlink:href="#37" y="9.185"></use><use xlink:href="#34" y="11.022"></use><use xlink:href="#27" y="12.859"></use><use xlink:href="#28" y="14.696"></use><use xlink:href="#29" y="16.533"></use><use xlink:href="#30" y="18.37"></use><use xlink:href="#38" y="22.044"></use></svg><svg x="1760"><use xlink:href="#a"></use><use xlink:href="#24" y="0"></use><use xlink:href="#33" y="1.837"></use><text x="0" y="5.343999999999999" class="d">❯</text><text x="2.004" y="5.343999999999999" class="e">Contents</text><text x="12.024" y="5.343999999999999" class="g">fruit,</text><text x="19.037999999999997" y="5.343999999999999" class="g">veg,</text><text x="24.048" y="5.343999999999999" class="g">herbs</text><rect height="1.837" width="8" x="68.136" y="3.6739999999999995" class="j"></rect><text x="68.136" y="5.343999999999999" class="p"> edited </text><use xlink:href="#34" y="5.511"></use><use xlink:href="#27" y="7.348"></use><use xlink:href="#28" y="9.185"></use><use xlink:href="#29" y="11.022"></use><use xlink:href="#30" y="12.859"></use><use xlink:href="#9" y="16.533"></use></svg><svg x="1840"><use xlink:href="#a"></use><use xlink:href="#24" y="0"></use><use xlink:href="#33" y="1.837"></use><use xlink:href="#41" y="3.674"></use><use xlink:href="#26" y="5.511"></use><text x="0" y="9.018" class="d">❯</text><text x="2.004" y="9.018" class="e">Herb</text><text x="7.013999999999999" y="9.018" class="e">bundle</text><use xlink:href="#28" y="9.185"></use><use xlink:href="#29" y="11.022"></use><use xlink:href="#30" y="12.859"></use><use xlink:href="#9" y="16.533"></use></svg><svg x="1920"><use xlink:href="#a"></use><use xlink:href="#24" y="0"></use><use xlink:href="#33" y="1.837"></use><use xlink:href="#41" y="3.674"></use><use xlink:href="#26" y="5.511"></use><use xlink:href="#27" y="7.348"></use><text x="0" y="10.855" class="d">❯</text><text x="2.004" y="10.855" class="e">Weekly</text><text x="9.017999999999999" y="10.855" class="e">delivery?</text><use xlink:href="#29" y="11.022"></use><use xlink:href="#30" y="12.859"></use><use xlink:href="#9" y="16.533"></use></svg><svg x="2000"><use xlink:href="#a"></use><use xlink:href="#24" y="0"></use><use xlink:href="#33" y="1.837"></use><use xlink:href="#41" y="3.674"></use><use xlink:href="#26" y="5.511"></use><use xlink:href="#27" y="7.348"></use><use xlink:href="#28" y="9.185"></use><text x="0" y="12.692" class="d">❯</text><text x="2.004" y="12.692" class="e">Delivery</text><text x="11.021999999999998" y="12.692" class="e">day</text><text x="16.032" y="12.692" class="g">Friday</text><use xlink:href="#30" y="12.859"></use><use xlink:href="#9" y="16.533"></use></svg><svg x="2080"><use xlink:href="#a"></use><use xlink:href="#24" y="0"></use><use xlink:href="#33" y="1.837"></use><use xlink:href="#41" y="3.674"></use><use xlink:href="#26" y="5.511"></use><use xlink:href="#27" y="7.348"></use><use xlink:href="#28" y="9.185"></use><text x="0" y="12.692" class="d">❯</text><text x="2.004" y="12.692" class="e">Delivery</text><text x="11.021999999999998" y="12.692" class="e">day</text><text x="16.032" y="12.692" class="h">Friday</text><text x="22.043999999999997" y="12.692" class="d">█</text><text x="18.035999999999998" y="14.529" class="q">Friday</text><use xlink:href="#30" y="14.696"></use><use xlink:href="#32" y="18.37"></use></svg><svg x="2160"><use xlink:href="#a"></use><use xlink:href="#24" y="0"></use><use xlink:href="#33" y="1.837"></use><use xlink:href="#41" y="3.674"></use><use xlink:href="#26" y="5.511"></use><use xlink:href="#27" y="7.348"></use><use xlink:href="#28" y="9.185"></use><text x="0" y="12.692" class="d">❯</text><text x="2.004" y="12.692" class="e">Delivery</text><text x="11.021999999999998" y="12.692" class="e">day</text><text x="16.032" y="12.692" class="h">Frida</text><text x="21.041999999999998" y="12.692" class="d">█</text><text x="18.035999999999998" y="14.529" class="q">Frida</text><text x="23.045999999999996" y="14.529" class="h">y</text><use xlink:href="#30" y="14.696"></use><use xlink:href="#32" y="18.37"></use></svg><svg x="2240"><use xlink:href="#a"></use><use xlink:href="#24" y="0"></use><use xlink:href="#33" y="1.837"></use><use xlink:href="#41" y="3.674"></use><use xlink:href="#26" y="5.511"></use><use xlink:href="#27" y="7.348"></use><use xlink:href="#28" y="9.185"></use><text x="0" y="12.692" class="d">❯</text><text x="2.004" y="12.692" class="e">Delivery</text><text x="11.021999999999998" y="12.692" class="e">day</text><text x="16.032" y="12.692" class="h">Frid</text><text x="20.04" y="12.692" class="d">█</text><text x="18.035999999999998" y="14.529" class="q">Frid</text><text x="22.043999999999997" y="14.529" class="h">ay</text><use xlink:href="#30" y="14.696"></use><use xlink:href="#32" y="18.37"></use></svg><svg x="2320"><use xlink:href="#a"></use><use xlink:href="#24" y="0"></use><use xlink:href="#33" y="1.837"></use><use xlink:href="#41" y="3.674"></use><use xlink:href="#26" y="5.511"></use><use xlink:href="#27" y="7.348"></use><use xlink:href="#28" y="9.185"></use><text x="0" y="12.692" class="d">❯</text><text x="2.004" y="12.692" class="e">Delivery</text><text x="11.021999999999998" y="12.692" class="e">day</text><text x="16.032" y="12.692" class="h">Fri</text><text x="19.037999999999997" y="12.692" class="d">█</text><text x="18.035999999999998" y="14.529" class="q">Fri</text><text x="21.041999999999998" y="14.529" class="h">day</text><use xlink:href="#30" y="14.696"></use><use xlink:href="#32" y="18.37"></use></svg><svg x="2400"><use xlink:href="#a"></use><use xlink:href="#24" y="0"></use><use xlink:href="#33" y="1.837"></use><use xlink:href="#41" y="3.674"></use><use xlink:href="#26" y="5.511"></use><use xlink:href="#27" y="7.348"></use><use xlink:href="#28" y="9.185"></use><text x="0" y="12.692" class="d">❯</text><text x="2.004" y="12.692" class="e">Delivery</text><text x="11.021999999999998" y="12.692" class="e">day</text><text x="16.032" y="12.692" class="h">Fr</text><text x="18.035999999999998" y="12.692" class="d">█</text><text x="18.035999999999998" y="14.529" class="q">Fr</text><text x="20.04" y="14.529" class="h">iday</text><use xlink:href="#30" y="14.696"></use><use xlink:href="#32" y="18.37"></use></svg><svg x="2480"><use xlink:href="#a"></use><use xlink:href="#24" y="0"></use><use xlink:href="#33" y="1.837"></use><use xlink:href="#41" y="3.674"></use><use xlink:href="#26" y="5.511"></use><use xlink:href="#27" y="7.348"></use><use xlink:href="#28" y="9.185"></use><text x="0" y="12.692" class="d">❯</text><text x="2.004" y="12.692" class="e">Delivery</text><text x="11.021999999999998" y="12.692" class="e">day</text><text x="16.032" y="12.692" class="h">F</text><text x="17.034" y="12.692" class="d">█</text><text x="18.035999999999998" y="14.529" class="q">F</text><text x="19.037999999999997" y="14.529" class="h">riday</text><use xlink:href="#30" y="14.696"></use><use xlink:href="#32" y="18.37"></use></svg><svg x="2560"><use xlink:href="#a"></use><use xlink:href="#24" y="0"></use><use xlink:href="#33" y="1.837"></use><use xlink:href="#41" y="3.674"></use><use xlink:href="#26" y="5.511"></use><use xlink:href="#27" y="7.348"></use><use xlink:href="#28" y="9.185"></use><text x="0" y="12.692" class="d">❯</text><text x="2.004" y="12.692" class="e">Delivery</text><text x="11.021999999999998" y="12.692" class="e">day</text><text x="16.032" y="12.692" class="d">█</text><text x="18.035999999999998" y="14.529" class="h">Monday</text><text x="18.035999999999998" y="16.366" class="h">Wednesday</text><text x="18.035999999999998" y="18.203000000000003" class="h">Friday</text><text x="18.035999999999998" y="20.04" class="h">Saturday</text><use xlink:href="#30" y="20.206999999999997"></use><use xlink:href="#32" y="23.881000000000004"></use></svg><svg x="2640"><use xlink:href="#a"></use><use xlink:href="#24" y="0"></use><use xlink:href="#33" y="1.837"></use><use xlink:href="#41" y="3.674"></use><use xlink:href="#26" y="5.511"></use><use xlink:href="#27" y="7.348"></use><use xlink:href="#28" y="9.185"></use><text x="0" y="12.692" class="d">❯</text><text x="2.004" y="12.692" class="e">Delivery</text><text x="11.021999999999998" y="12.692" class="e">day</text><text x="16.032" y="12.692" class="h">M</text><text x="17.034" y="12.692" class="d">█</text><text x="18.035999999999998" y="14.529" class="q">M</text><text x="19.037999999999997" y="14.529" class="h">onday</text><use xlink:href="#30" y="14.696"></use><use xlink:href="#32" y="18.37"></use></svg><svg x="2720"><use xlink:href="#a"></use><use xlink:href="#24" y="0"></use><use xlink:href="#33" y="1.837"></use><use xlink:href="#41" y="3.674"></use><use xlink:href="#26" y="5.511"></use><use xlink:href="#27" y="7.348"></use><use xlink:href="#28" y="9.185"></use><text x="0" y="12.692" class="d">❯</text><text x="2.004" y="12.692" class="e">Delivery</text><text x="11.021999999999998" y="12.692" class="e">day</text><text x="16.032" y="12.692" class="h">Mo</text><text x="18.035999999999998" y="12.692" class="d">█</text><text x="18.035999999999998" y="14.529" class="q">Mo</text><text x="20.04" y="14.529" class="h">nday</text><use xlink:href="#30" y="14.696"></use><use xlink:href="#32" y="18.37"></use></svg><svg x="2800"><use xlink:href="#a"></use><use xlink:href="#24" y="0"></use><use xlink:href="#33" y="1.837"></use><use xlink:href="#41" y="3.674"></use><use xlink:href="#26" y="5.511"></use><use xlink:href="#27" y="7.348"></use><use xlink:href="#28" y="9.185"></use><text x="0" y="12.692" class="d">❯</text><text x="2.004" y="12.692" class="e">Delivery</text><text x="11.021999999999998" y="12.692" class="e">day</text><text x="16.032" y="12.692" class="h">Mon</text><text x="19.037999999999997" y="12.692" class="d">█</text><text x="18.035999999999998" y="14.529" class="q">Mon</text><text x="21.041999999999998" y="14.529" class="h">day</text><use xlink:href="#30" y="14.696"></use><use xlink:href="#32" y="18.37"></use></svg><svg x="2880"><use xlink:href="#a"></use><use xlink:href="#24" y="0"></use><use xlink:href="#33" y="1.837"></use><use xlink:href="#41" y="3.674"></use><use xlink:href="#26" y="5.511"></use><use xlink:href="#27" y="7.348"></use><use xlink:href="#28" y="9.185"></use><text x="0" y="12.692" class="d">❯</text><text x="2.004" y="12.692" class="e">Delivery</text><text x="11.021999999999998" y="12.692" class="e">day</text><text x="16.032" y="12.692" class="h">Mond</text><text x="20.04" y="12.692" class="d">█</text><text x="18.035999999999998" y="14.529" class="q">Mond</text><text x="22.043999999999997" y="14.529" class="h">ay</text><use xlink:href="#30" y="14.696"></use><use xlink:href="#32" y="18.37"></use></svg><svg x="2960"><use xlink:href="#a"></use><use xlink:href="#24" y="0"></use><use xlink:href="#33" y="1.837"></use><use xlink:href="#41" y="3.674"></use><use xlink:href="#26" y="5.511"></use><use xlink:href="#27" y="7.348"></use><use xlink:href="#28" y="9.185"></use><text x="0" y="12.692" class="d">❯</text><text x="2.004" y="12.692" class="e">Delivery</text><text x="11.021999999999998" y="12.692" class="e">day</text><text x="16.032" y="12.692" class="h">Monda</text><text x="21.041999999999998" y="12.692" class="d">█</text><text x="18.035999999999998" y="14.529" class="q">Monda</text><text x="23.045999999999996" y="14.529" class="h">y</text><use xlink:href="#30" y="14.696"></use><use xlink:href="#32" y="18.37"></use></svg><svg x="3040"><use xlink:href="#a"></use><use xlink:href="#24" y="0"></use><use xlink:href="#33" y="1.837"></use><use xlink:href="#41" y="3.674"></use><use xlink:href="#26" y="5.511"></use><use xlink:href="#27" y="7.348"></use><use xlink:href="#28" y="9.185"></use><text x="0" y="12.692" class="d">❯</text><text x="2.004" y="12.692" class="e">Delivery</text><text x="11.021999999999998" y="12.692" class="e">day</text><text x="16.032" y="12.692" class="h">Monday</text><text x="22.043999999999997" y="12.692" class="d">█</text><text x="18.035999999999998" y="14.529" class="q">Monday</text><use xlink:href="#30" y="14.696"></use><use xlink:href="#32" y="18.37"></use></svg><svg x="3120"><use xlink:href="#a"></use><use xlink:href="#24" y="0"></use><use xlink:href="#33" y="1.837"></use><use xlink:href="#41" y="3.674"></use><use xlink:href="#26" y="5.511"></use><use xlink:href="#27" y="7.348"></use><use xlink:href="#28" y="9.185"></use><text x="0" y="12.692" class="d">❯</text><text x="2.004" y="12.692" class="e">Delivery</text><text x="11.021999999999998" y="12.692" class="e">day</text><text x="16.032" y="12.692" class="g">Monday</text><rect height="1.837" width="8" x="68.136" y="11.022" class="j"></rect><text x="68.136" y="12.692" class="p"> edited </text><use xlink:href="#30" y="12.859"></use><use xlink:href="#9" y="16.533"></use></svg><svg x="3200"><use xlink:href="#a"></use><use xlink:href="#1" y="0"></use><use xlink:href="#2" y="1.837"></use><use xlink:href="#3" y="3.674"></use><use xlink:href="#4" y="5.511"></use><use xlink:href="#5" y="7.348"></use><use xlink:href="#6" y="9.185"></use><use xlink:href="#42" y="11.022"></use><use xlink:href="#8" y="14.696"></use><use xlink:href="#9" y="18.37"></use></svg><svg x="3280"><use xlink:href="#a"></use><use xlink:href="#1" y="0"></use><use xlink:href="#19" y="1.837"></use><use xlink:href="#20" y="3.674"></use><use xlink:href="#21" y="5.511"></use><use xlink:href="#22" y="7.348"></use><use xlink:href="#23" y="9.185"></use><text x="4.008" y="12.692" class="g">large</text><text x="10.02" y="12.692" class="g">·</text><text x="12.024" y="12.692" class="g">fruit,</text><text x="19.037999999999997" y="12.692" class="g">veg,</text><text x="24.048" y="12.692" class="g">herbs</text><text x="30.059999999999995" y="12.692" class="g">·</text><text x="32.064" y="12.692" class="g">Monday</text><text x="39.077999999999996" y="12.692" class="g">·</text><text x="41.082" y="12.692" class="g">no</text><use xlink:href="#8" y="14.696"></use><use xlink:href="#9" y="18.37"></use></svg><svg x="3360"><use xlink:href="#a"></use><use xlink:href="#1" y="0"></use><use xlink:href="#19" y="1.837"></use><use xlink:href="#20" y="3.674"></use><use xlink:href="#21" y="5.511"></use><use xlink:href="#5" y="7.348"></use><use xlink:href="#6" y="9.185"></use><use xlink:href="#42" y="11.022"></use><rect height="1.837" width="10" x="2.004" y="14.696" class="j"></rect><text x="2.004" y="16.366" class="p">[ Submit ]</text><text x="14.027999999999999" y="16.366" class="i">[</text><text x="16.032" y="16.366" class="i">Cancel</text><text x="23.045999999999996" y="16.366" class="i">]</text><use xlink:href="#9" y="18.37"></use></svg><svg x="3440"><use xlink:href="#a"></use><use xlink:href="#b" x="-0.0040000000000000036" y="0"></use></svg><svg x="3520"><use xlink:href="#a"></use><use xlink:href="#b" x="-0.0040000000000000036" y="20.031999999999996"></use><use xlink:href="#43" y="0"></use><use xlink:href="#44" y="1.837"></use><use xlink:href="#45" y="3.674"></use><use xlink:href="#46" y="5.511"></use><use xlink:href="#47" y="7.348"></use><use xlink:href="#48" y="9.185"></use><use xlink:href="#49" y="11.022"></use><use xlink:href="#50" y="12.859"></use><use xlink:href="#51" y="14.696"></use><use xlink:href="#52" y="16.533"></use><use xlink:href="#53" y="18.37"></use></svg><svg x="3600"><use xlink:href="#a"></use><use xlink:href="#b" x="0.996" y="20.031999999999996"></use><use xlink:href="#43" y="0"></use><use xlink:href="#44" y="1.837"></use><use xlink:href="#45" y="3.674"></use><use xlink:href="#46" y="5.511"></use><use xlink:href="#47" y="7.348"></use><use xlink:href="#48" y="9.185"></use><use xlink:href="#49" y="11.022"></use><use xlink:href="#50" y="12.859"></use><use xlink:href="#51" y="14.696"></use><use xlink:href="#52" y="16.533"></use><use xlink:href="#53" y="18.37"></use></svg></svg></g></g></svg></svg>