<svg xmlns="http://www.w3.org/2000/svg" xmlns:xlink="http://www.w3.org/1999/xlink" width="800" height="440.88"><rect width="800" height="440.88" rx="0" ry="0" class="a"></rect><svg height="440.88" viewBox="0 0 80 44.088" width="800" xmlns="http://www.w3.org/2000/svg" xmlns:xlink="http://www.w3.org/1999/xlink"><style>.a{fill:rgb(40,44,52)}.b{font-family:Consolas,"Courier New",Courier,"Liberation Mono",monospace}.c{fill:rgb(171,178,191);white-space:pre}.d{fill:transparent}.e{fill:rgb(82,139,255)}.g{animation-duration:32.746s;animation-iteration-count:infinite;animation-name:f;animation-timing-function:steps(1,end)}@keyframes f{0%{transform:translateX(-0px)}1.85%{transform:translateX(-80px)}9.68%{transform:translateX(-160px)}16.75%{transform:translateX(-240px)}17.87%{transform:translateX(-320px)}19.05%{transform:translateX(-400px)}20.26%{transform:translateX(-480px)}22.19%{transform:translateX(-560px)}27.24%{transform:translateX(-640px)}29.19%{transform:translateX(-720px)}34.97%{transform:translateX(-800px)}40.02%{transform:translateX(-880px)}42.29%{transform:translateX(-960px)}47.33%{transform:translateX(-1040px)}48.94%{transform:translateX(-1120px)}53.98%{transform:translateX(-1200px)}55.14%{transform:translateX(-1280px)}56.29%{transform:translateX(-1360px)}57.5%{transform:translateX(-1440px)}58.66%{transform:translateX(-1520px)}60.95%{transform:translateX(-1600px)}66%{transform:translateX(-1680px)}67.17%{transform:translateX(-1760px)}68.33%{transform:translateX(-1840px)}69.92%{transform:translateX(-1920px)}74.49%{transform:translateX(-2000px)}75.03%{transform:translateX(-2080px)}78.11%{transform:translateX(-2160px)}80.1%{transform:translateX(-2240px)}85.07%{transform:translateX(-2320px)}86.22%{transform:translateX(-2400px)}88.55%{transform:translateX(-2480px)}100%{transform:translateX(-2560px)}}</style><g font-family="Consolas, &quot;Courier New&quot;, Courier, &quot;Liberation Mono&quot;, monospace" font-size="1.67" class="b"><defs><symbol id="1"><text x="0" y="1.67" class="c">Package</text><text x="8.016" y="1.67" class="c">scaffolder</text></symbol><symbol id="2"><text x="0" y="1.67" class="c">❯</text><text x="2.004" y="1.67" class="c">General</text><text x="10.02" y="1.67" class="c">›</text></symbol><symbol id="3"><text x="4.008" y="1.67" class="c">Naming</text><text x="11.021999999999998" y="1.67" class="c">and</text><text x="15.029999999999998" y="1.67" class="c">identity.</text></symbol><symbol id="4"><text x="4.008" y="1.67" class="c">Tui</text><text x="8.016" y="1.67" class="c">·</text><text x="10.02" y="1.67" class="c">tui</text><text x="14.027999999999999" y="1.67" class="c">·</text><text x="16.032" y="1.67" class="c">acme</text><text x="21.041999999999998" y="1.67" class="c">·</text><text x="23.045999999999996" y="1.67" class="c">acme/tui</text></symbol><symbol id="5"><text x="2.004" y="1.67" class="c">Build</text><text x="8.016" y="1.67" class="c">&amp;</text><text x="10.02" y="1.67" class="c">features</text><text x="19.037999999999997" y="1.67" class="c">›</text></symbol><symbol id="6"><text x="4.008" y="1.67" class="c">What</text><text x="9.017999999999999" y="1.67" class="c">the</text><text x="13.026" y="1.67" class="c">package</text><text x="21.041999999999998" y="1.67" class="c">ships</text><text x="27.054" y="1.67" class="c">with.</text></symbol><symbol id="7"><text x="4.008" y="1.67" class="c">library</text><text x="12.024" y="1.67" class="c">·</text><text x="15.029999999999998" y="1.67" class="c">·</text><text x="17.034" y="1.67" class="c">8.4</text><text x="21.041999999999998" y="1.67" class="c">·</text><text x="23.045999999999996" y="1.67" class="c">no</text></symbol><symbol id="8"><text x="2.004" y="1.67" class="c">[</text><text x="4.008" y="1.67" class="c">Submit</text><text x="11.021999999999998" y="1.67" class="c">]</text><text x="14.027999999999999" y="1.67" class="c">[</text><text x="16.032" y="1.67" class="c">Cancel</text><text x="23.045999999999996" y="1.67" class="c">]</text></symbol><symbol id="9"><text x="0" y="1.67" class="c">↑/↓</text><text x="4.008" y="1.67" class="c">move</text><text x="9.017999999999999" y="1.67" class="c">·</text><text x="11.021999999999998" y="1.67" class="c">↵</text><text x="13.026" y="1.67" class="c">select</text><text x="20.04" y="1.67" class="c">·</text><text x="22.043999999999997" y="1.67" class="c">esc</text><text x="26.052" y="1.67" class="c">back</text></symbol><symbol id="10"><text x="0" y="1.67" class="c">Package</text><text x="8.016" y="1.67" class="c">scaffolder</text><text x="19.037999999999997" y="1.67" class="c">›</text><text x="21.041999999999998" y="1.67" class="c">General</text></symbol><symbol id="11"><text x="4.008" y="1.67" class="c">A</text><text x="6.012" y="1.67" class="c">human-readable</text><text x="21.041999999999998" y="1.67" class="c">name,</text><text x="27.054" y="1.67" class="c">e.g.</text><text x="32.064" y="1.67" class="c">&quot;My</text><text x="36.071999999999996" y="1.67" class="c">Widget&quot;.</text></symbol><symbol id="12"><text x="2.004" y="1.67" class="c">Machine</text><text x="10.02" y="1.67" class="c">name</text><text x="16.032" y="1.67" class="c">tui</text><text x="68.136" y="1.67" class="c">derived</text></symbol><symbol id="13"><text x="4.008" y="1.67" class="c">Derived</text><text x="12.024" y="1.67" class="c">from</text><text x="17.034" y="1.67" class="c">the</text><text x="21.041999999999998" y="1.67" class="c">package</text><text x="29.058" y="1.67" class="c">name.</text></symbol><symbol id="14"><text x="2.004" y="1.67" class="c">Vendor</text><text x="10.02" y="1.67" class="c">acme</text></symbol><symbol id="15"><text x="2.004" y="1.67" class="c">Composer</text><text x="11.021999999999998" y="1.67" class="c">package</text><text x="20.04" y="1.67" class="c">acme/tui</text><text x="68.136" y="1.67" class="c">derived</text></symbol><symbol id="16"><text x="4.008" y="1.67" class="c">Derived</text><text x="12.024" y="1.67" class="c">from</text><text x="17.034" y="1.67" class="c">vendor</text><text x="24.048" y="1.67" class="c">and</text><text x="28.055999999999997" y="1.67" class="c">machine</text><text x="36.071999999999996" y="1.67" class="c">name.</text></symbol><symbol id="17"><text x="2.004" y="1.67" class="c">PHP</text><text x="6.012" y="1.67" class="c">namespace</text><text x="17.034" y="1.67" class="c">Tui</text><text x="68.136" y="1.67" class="c">derived</text></symbol><symbol id="18"><text x="2.004" y="1.67" class="c">Package</text><text x="10.02" y="1.67" class="c">name</text><text x="16.032" y="1.67" class="c">Tui</text></symbol><symbol id="19"><text x="2.004" y="1.67" class="c">General</text><text x="10.02" y="1.67" class="c">›</text></symbol><symbol id="20"><text x="0" y="1.67" class="c">❯</text><text x="2.004" y="1.67" class="c">Build</text><text x="8.016" y="1.67" class="c">&amp;</text><text x="10.02" y="1.67" class="c">features</text><text x="19.037999999999997" y="1.67" class="c">›</text></symbol><symbol id="21"><text x="0" y="1.67" class="c">Package</text><text x="8.016" y="1.67" class="c">scaffolder</text><text x="19.037999999999997" y="1.67" class="c">›</text><text x="21.041999999999998" y="1.67" class="c">Build</text><text x="27.054" y="1.67" class="c">&amp;</text><text x="29.058" y="1.67" class="c">features</text></symbol><symbol id="22"><text x="2.004" y="1.67" class="c">Features</text></symbol><symbol id="23"><text x="4.008" y="1.67" class="c">Space</text><text x="10.02" y="1.67" class="c">to</text><text x="13.026" y="1.67" class="c">toggle,</text><text x="21.041999999999998" y="1.67" class="c">type</text><text x="26.052" y="1.67" class="c">to</text><text x="29.058" y="1.67" class="c">filter.</text></symbol><symbol id="24"><text x="2.004" y="1.67" class="c">Docker</text><text x="9.017999999999999" y="1.67" class="c">base</text><text x="14.027999999999999" y="1.67" class="c">image</text></symbol><symbol id="25"><text x="2.004" y="1.67" class="c">Generate</text><text x="11.021999999999998" y="1.67" class="c">a</text><text x="13.026" y="1.67" class="c">docker-compose.yml?</text></symbol><symbol id="26"><text x="2.004" y="1.67" class="c">PHP</text><text x="6.012" y="1.67" class="c">version</text><text x="15.029999999999998" y="1.67" class="c">8.4</text></symbol><symbol id="27"><text x="2.004" y="1.67" class="c">Private</text><text x="10.02" y="1.67" class="c">package?</text><text x="20.04" y="1.67" class="c">no</text></symbol><symbol id="28"><text x="0" y="1.67" class="c">Package</text><text x="8.016" y="1.67" class="c">type</text></symbol><symbol id="29"><text x="0" y="1.67" class="c">────────────</text></symbol><symbol id="30"><text x="0" y="1.67" class="c">○</text><text x="2.004" y="1.67" class="c">CLI</text><text x="6.012" y="1.67" class="c">tool</text></symbol><symbol id="31"><text x="0" y="1.67" class="c">↵</text><text x="2.004" y="1.67" class="c">accept</text><text x="9.017999999999999" y="1.67" class="c">·</text><text x="11.021999999999998" y="1.67" class="c">esc</text><text x="15.029999999999998" y="1.67" class="c">cancel</text></symbol><symbol id="32"><text x="2.004" y="1.67" class="c">Package</text><text x="10.02" y="1.67" class="c">type</text><text x="16.032" y="1.67" class="c">application</text><text x="69.13799999999999" y="1.67" class="c">edited</text></symbol><symbol id="33"><text x="0" y="1.67" class="c">Features</text></symbol><symbol id="34"><text x="0" y="1.67" class="c">────────</text></symbol><symbol id="35"><text x="2.004" y="1.67" class="c">◻</text><text x="4.008" y="1.67" class="c">CI</text></symbol><symbol id="36"><text x="2.004" y="1.67" class="c">◻</text><text x="4.008" y="1.67" class="c">Docker</text></symbol><symbol id="37"><text x="2.004" y="1.67" class="c">◻</text><text x="4.008" y="1.67" class="c">Docs</text></symbol><symbol id="38"><text x="2.004" y="1.67" class="c">◼</text><text x="4.008" y="1.67" class="c">Tests</text></symbol><symbol id="39"><text x="2.004" y="1.67" class="c">◼</text><text x="4.008" y="1.67" class="c">CI</text></symbol><symbol id="40"><text x="2.004" y="1.67" class="c">Features</text><text x="12.024" y="1.67" class="c">tests,</text><text x="19.037999999999997" y="1.67" class="c">ci,</text><text x="23.045999999999996" y="1.67" class="c">docker</text><text x="69.13799999999999" y="1.67" class="c">edited</text></symbol><symbol id="41"><text x="0" y="1.67" class="c">PHP</text><text x="4.008" y="1.67" class="c">version</text></symbol><symbol id="42"><text x="0" y="1.67" class="c">───────────</text></symbol><symbol id="43"><text x="2.004" y="1.67" class="c">8.4</text></symbol><symbol id="44"><text x="2.004" y="1.67" class="c">8.3</text></symbol><symbol id="45"><text x="4.008" y="1.67" class="c">application</text><text x="16.032" y="1.67" class="c">·</text><text x="18.035999999999998" y="1.67" class="c">tests,</text><text x="25.05" y="1.67" class="c">ci,</text><text x="29.058" y="1.67" class="c">docker</text><text x="36.071999999999996" y="1.67" class="c">·</text><text x="38.07599999999999" y="1.67" class="c">8.3</text><text x="42.083999999999996" y="1.67" class="c">·</text><text x="44.087999999999994" y="1.67" class="c">no</text></symbol><symbol id="46"><text x="0" y="1.67" class="c">General</text></symbol><symbol id="47"><text x="2.004" y="1.67" class="c">Package</text><text x="10.02" y="1.67" class="c">name:</text><text x="16.032" y="1.67" class="c">Tui</text></symbol><symbol id="48"><text x="2.004" y="1.67" class="c">Machine</text><text x="10.02" y="1.67" class="c">name:</text><text x="16.032" y="1.67" class="c">tui</text><text x="20.04" y="1.67" class="c">(derived)</text></symbol><symbol id="49"><text x="2.004" y="1.67" class="c">Vendor:</text><text x="10.02" y="1.67" class="c">acme</text></symbol><symbol id="50"><text x="2.004" y="1.67" class="c">Composer</text><text x="11.021999999999998" y="1.67" class="c">package:</text><text x="20.04" y="1.67" class="c">acme/tui</text><text x="29.058" y="1.67" class="c">(derived)</text></symbol><symbol id="51"><text x="2.004" y="1.67" class="c">PHP</text><text x="6.012" y="1.67" class="c">namespace:</text><text x="17.034" y="1.67" class="c">Tui</text><text x="21.041999999999998" y="1.67" class="c">(derived)</text></symbol><symbol id="52"><text x="0" y="1.67" class="c">Build</text><text x="6.012" y="1.67" class="c">&amp;</text><text x="8.016" y="1.67" class="c">features</text></symbol><symbol id="53"><text x="2.004" y="1.67" class="c">Package</text><text x="10.02" y="1.67" class="c">type:</text><text x="16.032" y="1.67" class="c">application</text><text x="28.055999999999997" y="1.67" class="c">(edited)</text></symbol><symbol id="54"><text x="2.004" y="1.67" class="c">Features:</text><text x="12.024" y="1.67" class="c">tests,</text><text x="19.037999999999997" y="1.67" class="c">ci,</text><text x="23.045999999999996" y="1.67" class="c">docker</text><text x="30.059999999999995" y="1.67" class="c">(edited)</text></symbol><symbol id="55"><text x="2.004" y="1.67" class="c">PHP</text><text x="6.012" y="1.67" class="c">version:</text><text x="15.029999999999998" y="1.67" class="c">8.3</text><text x="19.037999999999997" y="1.67" class="c">(edited)</text></symbol><symbol id="56"><text x="2.004" y="1.67" class="c">Private</text><text x="10.02" y="1.67" class="c">package?:</text><text x="20.04" y="1.67" class="c">no</text></symbol><symbol id="a"><rect height="24" width="80" x="0" y="0" class="d"></rect></symbol><symbol id="b"><rect height="1.837" width="1.1022" class="e"></rect></symbol></defs><rect height="44.088" width="80" class="a"></rect><g class="g"><svg x="0" y="0" width="2640"><svg x="0"><use xlink:href="#a"></use><use xlink:href="#b" x="-0.0040000000000000036" y="0"></use></svg><svg x="80"><use xlink:href="#a"></use><use xlink:href="#1" y="0"></use><use xlink:href="#2" y="1.837"></use><use xlink:href="#3" y="3.674"></use><use xlink:href="#4" y="5.511"></use><use xlink:href="#5" y="7.348"></use><use xlink:href="#6" y="9.185"></use><use xlink:href="#7" y="11.022"></use><use xlink:href="#8" y="12.859"></use><use xlink:href="#9" y="14.696"></use></svg><svg x="160"><use xlink:href="#a"></use><use xlink:href="#10" y="0"></use><text x="0" y="3.5069999999999997" class="c">❯</text><text x="2.004" y="3.5069999999999997" class="c">Package</text><text x="10.02" y="3.5069999999999997" class="c">name</text><text x="16.032" y="3.5069999999999997" class="c">Tui</text><use xlink:href="#11" y="3.674"></use><use xlink:href="#12" y="5.511"></use><use xlink:href="#13" y="7.348"></use><use xlink:href="#14" y="9.185"></use><use xlink:href="#15" y="11.022"></use><use xlink:href="#16" y="12.859"></use><use xlink:href="#17" y="14.696"></use><use xlink:href="#9" y="16.533"></use></svg><svg x="240"><use xlink:href="#a"></use><use xlink:href="#10" y="0"></use><use xlink:href="#18" y="1.837"></use><use xlink:href="#11" y="3.674"></use><text x="0" y="7.181" class="c">❯</text><text x="2.004" y="7.181" class="c">Machine</text><text x="10.02" y="7.181" class="c">name</text><text x="16.032" y="7.181" class="c">tui</text><text x="68.136" y="7.181" class="c">derived</text><use xlink:href="#13" y="7.348"></use><use xlink:href="#14" y="9.185"></use><use xlink:href="#15" y="11.022"></use><use xlink:href="#16" y="12.859"></use><use xlink:href="#17" y="14.696"></use><use xlink:href="#9" y="16.533"></use></svg><svg x="320"><use xlink:href="#a"></use><use xlink:href="#10" y="0"></use><use xlink:href="#18" y="1.837"></use><use xlink:href="#11" y="3.674"></use><use xlink:href="#12" y="5.511"></use><use xlink:href="#13" y="7.348"></use><text x="0" y="10.855" class="c">❯</text><text x="2.004" y="10.855" class="c">Vendor</text><text x="10.02" y="10.855" class="c">acme</text><use xlink:href="#15" y="11.022"></use><use xlink:href="#16" y="12.859"></use><use xlink:href="#17" y="14.696"></use><use xlink:href="#9" y="16.533"></use></svg><svg x="400"><use xlink:href="#a"></use><use xlink:href="#10" y="0"></use><use xlink:href="#18" y="1.837"></use><use xlink:href="#11" y="3.674"></use><use xlink:href="#12" y="5.511"></use><use xlink:href="#13" y="7.348"></use><use xlink:href="#14" y="9.185"></use><text x="0" y="12.692" class="c">❯</text><text x="2.004" y="12.692" class="c">Composer</text><text x="11.021999999999998" y="12.692" class="c">package</text><text x="20.04" y="12.692" class="c">acme/tui</text><text x="68.136" y="12.692" class="c">derived</text><use xlink:href="#16" y="12.859"></use><use xlink:href="#17" y="14.696"></use><use xlink:href="#9" y="16.533"></use></svg><svg x="480"><use xlink:href="#a"></use><use xlink:href="#10" y="0"></use><use xlink:href="#18" y="1.837"></use><use xlink:href="#11" y="3.674"></use><use xlink:href="#12" y="5.511"></use><use xlink:href="#13" y="7.348"></use><use xlink:href="#14" y="9.185"></use><use xlink:href="#15" y="11.022"></use><use xlink:href="#16" y="12.859"></use><text x="0" y="16.366" class="c">❯</text><text x="2.004" y="16.366" class="c">PHP</text><text x="6.012" y="16.366" class="c">namespace</text><text x="17.034" y="16.366" class="c">Tui</text><text x="68.136" y="16.366" class="c">derived</text><use xlink:href="#9" y="16.533"></use></svg><svg x="560"><use xlink:href="#a"></use><use xlink:href="#1" y="0"></use><use xlink:href="#2" y="1.837"></use><use xlink:href="#3" y="3.674"></use><use xlink:href="#4" y="5.511"></use><use xlink:href="#5" y="7.348"></use><use xlink:href="#6" y="9.185"></use><use xlink:href="#7" y="11.022"></use><use xlink:href="#8" y="12.859"></use><use xlink:href="#9" y="14.696"></use></svg><svg x="640"><use xlink:href="#a"></use><use xlink:href="#1" y="0"></use><use xlink:href="#19" y="1.837"></use><use xlink:href="#3" y="3.674"></use><use xlink:href="#4" y="5.511"></use><use xlink:href="#20" y="7.348"></use><use xlink:href="#6" y="9.185"></use><use xlink:href="#7" y="11.022"></use><use xlink:href="#8" y="12.859"></use><use xlink:href="#9" y="14.696"></use></svg><svg x="720"><use xlink:href="#a"></use><use xlink:href="#21" y="0"></use><text x="0" y="3.5069999999999997" class="c">❯</text><text x="2.004" y="3.5069999999999997" class="c">Package</text><text x="10.02" y="3.5069999999999997" class="c">type</text><text x="16.032" y="3.5069999999999997" class="c">library</text><use xlink:href="#22" y="3.674"></use><use xlink:href="#23" y="5.511"></use><use xlink:href="#24" y="7.348"></use><use xlink:href="#25" y="9.185"></use><use xlink:href="#26" y="11.022"></use><use xlink:href="#27" y="12.859"></use><use xlink:href="#9" y="14.696"></use></svg><svg x="800"><use xlink:href="#a"></use><use xlink:href="#28" y="0"></use><use xlink:href="#29" y="1.837"></use><text x="0" y="5.343999999999999" class="c">●</text><text x="2.004" y="5.343999999999999" class="c">Library</text><text x="0" y="7.181" class="c">○</text><text x="2.004" y="7.181" class="c">Application</text><use xlink:href="#30" y="7.348"></use><use xlink:href="#31" y="11.022"></use></svg><svg x="880"><use xlink:href="#a"></use><use xlink:href="#28" y="0"></use><use xlink:href="#29" y="1.837"></use><text x="0" y="5.343999999999999" class="c">○</text><text x="2.004" y="5.343999999999999" class="c">Library</text><text x="0" y="7.181" class="c">●</text><text x="2.004" y="7.181" class="c">Application</text><use xlink:href="#30" y="7.348"></use><use xlink:href="#31" y="11.022"></use></svg><svg x="960"><use xlink:href="#a"></use><use xlink:href="#21" y="0"></use><text x="0" y="3.5069999999999997" class="c">❯</text><text x="2.004" y="3.5069999999999997" class="c">Package</text><text x="10.02" y="3.5069999999999997" class="c">type</text><text x="16.032" y="3.5069999999999997" class="c">application</text><text x="69.13799999999999" y="3.5069999999999997" class="c">edited</text><use xlink:href="#22" y="3.674"></use><use xlink:href="#23" y="5.511"></use><use xlink:href="#24" y="7.348"></use><use xlink:href="#25" y="9.185"></use><use xlink:href="#26" y="11.022"></use><use xlink:href="#27" y="12.859"></use><use xlink:href="#9" y="14.696"></use></svg><svg x="1040"><use xlink:href="#a"></use><use xlink:href="#21" y="0"></use><use xlink:href="#32" y="1.837"></use><text x="0" y="5.343999999999999" class="c">❯</text><text x="2.004" y="5.343999999999999" class="c">Features</text><use xlink:href="#23" y="5.511"></use><use xlink:href="#24" y="7.348"></use><use xlink:href="#25" y="9.185"></use><use xlink:href="#26" y="11.022"></use><use xlink:href="#27" y="12.859"></use><use xlink:href="#9" y="14.696"></use></svg><svg x="1120"><use xlink:href="#a"></use><use xlink:href="#33" y="0"></use><use xlink:href="#34" y="1.837"></use><text x="0" y="5.343999999999999" class="c">❯</text><text x="2.004" y="5.343999999999999" class="c">◻</text><text x="4.008" y="5.343999999999999" class="c">Tests</text><use xlink:href="#35" y="5.511"></use><use xlink:href="#36" y="7.348"></use><use xlink:href="#37" y="9.185"></use><use xlink:href="#31" y="12.859"></use></svg><svg x="1200"><use xlink:href="#a"></use><use xlink:href="#33" y="0"></use><use xlink:href="#34" y="1.837"></use><text x="0" y="5.343999999999999" class="c">❯</text><text x="2.004" y="5.343999999999999" class="c">◼</text><text x="4.008" y="5.343999999999999" class="c">Tests</text><use xlink:href="#35" y="5.511"></use><use xlink:href="#36" y="7.348"></use><use xlink:href="#37" y="9.185"></use><use xlink:href="#31" y="12.859"></use></svg><svg x="1280"><use xlink:href="#a"></use><use xlink:href="#33" y="0"></use><use xlink:href="#34" y="1.837"></use><use xlink:href="#38" y="3.674"></use><text x="0" y="7.181" class="c">❯</text><text x="2.004" y="7.181" class="c">◻</text><text x="4.008" y="7.181" class="c">CI</text><use xlink:href="#36" y="7.348"></use><use xlink:href="#37" y="9.185"></use><use xlink:href="#31" y="12.859"></use></svg><svg x="1360"><use xlink:href="#a"></use><use xlink:href="#33" y="0"></use><use xlink:href="#34" y="1.837"></use><use xlink:href="#38" y="3.674"></use><text x="0" y="7.181" class="c">❯</text><text x="2.004" y="7.181" class="c">◼</text><text x="4.008" y="7.181" class="c">CI</text><use xlink:href="#36" y="7.348"></use><use xlink:href="#37" y="9.185"></use><use xlink:href="#31" y="12.859"></use></svg><svg x="1440"><use xlink:href="#a"></use><use xlink:href="#33" y="0"></use><use xlink:href="#34" y="1.837"></use><use xlink:href="#38" y="3.674"></use><use xlink:href="#39" y="5.511"></use><text x="0" y="9.018" class="c">❯</text><text x="2.004" y="9.018" class="c">◻</text><text x="4.008" y="9.018" class="c">Docker</text><use xlink:href="#37" y="9.185"></use><use xlink:href="#31" y="12.859"></use></svg><svg x="1520"><use xlink:href="#a"></use><use xlink:href="#33" y="0"></use><use xlink:href="#34" y="1.837"></use><use xlink:href="#38" y="3.674"></use><use xlink:href="#39" y="5.511"></use><text x="0" y="9.018" class="c">❯</text><text x="2.004" y="9.018" class="c">◼</text><text x="4.008" y="9.018" class="c">Docker</text><use xlink:href="#37" y="9.185"></use><use xlink:href="#31" y="12.859"></use></svg><svg x="1600"><use xlink:href="#a"></use><use xlink:href="#21" y="0"></use><use xlink:href="#32" y="1.837"></use><text x="0" y="5.343999999999999" class="c">❯</text><text x="2.004" y="5.343999999999999" class="c">Features</text><text x="12.024" y="5.343999999999999" class="c">tests,</text><text x="19.037999999999997" y="5.343999999999999" class="c">ci,</text><text x="23.045999999999996" y="5.343999999999999" class="c">docker</text><text x="69.13799999999999" y="5.343999999999999" class="c">edited</text><use xlink:href="#23" y="5.511"></use><use xlink:href="#24" y="7.348"></use><use xlink:href="#25" y="9.185"></use><use xlink:href="#26" y="11.022"></use><use xlink:href="#27" y="12.859"></use><use xlink:href="#9" y="14.696"></use></svg><svg x="1680"><use xlink:href="#a"></use><use xlink:href="#21" y="0"></use><use xlink:href="#32" y="1.837"></use><use xlink:href="#40" y="3.674"></use><use xlink:href="#23" y="5.511"></use><text x="0" y="9.018" class="c">❯</text><text x="2.004" y="9.018" class="c">Docker</text><text x="9.017999999999999" y="9.018" class="c">base</text><text x="14.027999999999999" y="9.018" class="c">image</text><use xlink:href="#25" y="9.185"></use><use xlink:href="#26" y="11.022"></use><use xlink:href="#27" y="12.859"></use><use xlink:href="#9" y="14.696"></use></svg><svg x="1760"><use xlink:href="#a"></use><use xlink:href="#21" y="0"></use><use xlink:href="#32" y="1.837"></use><use xlink:href="#40" y="3.674"></use><use xlink:href="#23" y="5.511"></use><use xlink:href="#24" y="7.348"></use><text x="0" y="10.855" class="c">❯</text><text x="2.004" y="10.855" class="c">Generate</text><text x="11.021999999999998" y="10.855" class="c">a</text><text x="13.026" y="10.855" class="c">docker-compose.yml?</text><use xlink:href="#26" y="11.022"></use><use xlink:href="#27" y="12.859"></use><use xlink:href="#9" y="14.696"></use></svg><svg x="1840"><use xlink:href="#a"></use><use xlink:href="#21" y="0"></use><use xlink:href="#32" y="1.837"></use><use xlink:href="#40" y="3.674"></use><use xlink:href="#23" y="5.511"></use><use xlink:href="#24" y="7.348"></use><use xlink:href="#25" y="9.185"></use><text x="0" y="12.692" class="c">❯</text><text x="2.004" y="12.692" class="c">PHP</text><text x="6.012" y="12.692" class="c">version</text><text x="15.029999999999998" y="12.692" class="c">8.4</text><use xlink:href="#27" y="12.859"></use><use xlink:href="#9" y="14.696"></use></svg><svg x="1920"><use xlink:href="#a"></use><use xlink:href="#41" y="0"></use><use xlink:href="#42" y="1.837"></use><text x="0" y="5.343999999999999" class="c">8.4█</text><use xlink:href="#43" y="5.511"></use><use xlink:href="#31" y="9.185"></use></svg><svg x="2000"><use xlink:href="#a"></use><use xlink:href="#41" y="0"></use><use xlink:href="#42" y="1.837"></use><text x="0" y="5.343999999999999" class="c">8.█</text><text x="2.004" y="7.181" class="c">8.1</text><text x="2.004" y="9.018" class="c">8.2</text><use xlink:href="#44" y="9.185"></use><use xlink:href="#43" y="11.022"></use><use xlink:href="#31" y="14.696"></use></svg><svg x="2080"><use xlink:href="#a"></use><use xlink:href="#41" y="0"></use><use xlink:href="#42" y="1.837"></use><text x="0" y="5.343999999999999" class="c">8.3█</text><use xlink:href="#44" y="5.511"></use><use xlink:href="#31" y="9.185"></use></svg><svg x="2160"><use xlink:href="#a"></use><use xlink:href="#21" y="0"></use><use xlink:href="#32" y="1.837"></use><use xlink:href="#40" y="3.674"></use><use xlink:href="#23" y="5.511"></use><use xlink:href="#24" y="7.348"></use><use xlink:href="#25" y="9.185"></use><text x="0" y="12.692" class="c">❯</text><text x="2.004" y="12.692" class="c">PHP</text><text x="6.012" y="12.692" class="c">version</text><text x="15.029999999999998" y="12.692" class="c">8.3</text><text x="69.13799999999999" y="12.692" class="c">edited</text><use xlink:href="#27" y="12.859"></use><use xlink:href="#9" y="14.696"></use></svg><svg x="2240"><use xlink:href="#a"></use><use xlink:href="#1" y="0"></use><use xlink:href="#2" y="1.837"></use><use xlink:href="#3" y="3.674"></use><use xlink:href="#4" y="5.511"></use><use xlink:href="#5" y="7.348"></use><use xlink:href="#6" y="9.185"></use><use xlink:href="#45" y="11.022"></use><use xlink:href="#8" y="12.859"></use><use xlink:href="#9" y="14.696"></use></svg><svg x="2320"><use xlink:href="#a"></use><use xlink:href="#1" y="0"></use><use xlink:href="#19" y="1.837"></use><use xlink:href="#3" y="3.674"></use><use xlink:href="#4" y="5.511"></use><use xlink:href="#20" y="7.348"></use><use xlink:href="#6" y="9.185"></use><use xlink:href="#45" y="11.022"></use><use xlink:href="#8" y="12.859"></use><use xlink:href="#9" y="14.696"></use></svg><svg x="2400"><use xlink:href="#a"></use><use xlink:href="#1" y="0"></use><use xlink:href="#19" y="1.837"></use><use xlink:href="#3" y="3.674"></use><use xlink:href="#4" y="5.511"></use><use xlink:href="#5" y="7.348"></use><use xlink:href="#6" y="9.185"></use><use xlink:href="#45" y="11.022"></use><use xlink:href="#8" y="12.859"></use><use xlink:href="#9" y="14.696"></use></svg><svg x="2480"><use xlink:href="#a"></use><use xlink:href="#b" x="-0.0040000000000000036" y="20.031999999999996"></use><use xlink:href="#46" y="0"></use><use xlink:href="#47" y="1.837"></use><use xlink:href="#48" y="3.674"></use><use xlink:href="#49" y="5.511"></use><use xlink:href="#50" y="7.348"></use><use xlink:href="#51" y="9.185"></use><use xlink:href="#52" y="11.022"></use><use xlink:href="#53" y="12.859"></use><use xlink:href="#54" y="14.696"></use><use xlink:href="#55" y="16.533"></use><use xlink:href="#56" y="18.37"></use></svg><svg x="2560"><use xlink:href="#a"></use><use xlink:href="#b" x="0.996" y="20.031999999999996"></use><use xlink:href="#46" y="0"></use><use xlink:href="#47" y="1.837"></use><use xlink:href="#48" y="3.674"></use><use xlink:href="#49" y="5.511"></use><use xlink:href="#50" y="7.348"></use><use xlink:href="#51" y="9.185"></use><use xlink:href="#52" y="11.022"></use><use xlink:href="#53" y="12.859"></use><use xlink:href="#54" y="14.696"></use><use xlink:href="#55" y="16.533"></use><use xlink:href="#56" y="18.37"></use></svg></svg></g></g></svg></svg>