<svg xmlns="http://www.w3.org/2000/svg" xmlns:xlink="http://www.w3.org/1999/xlink" width="800" height="440.88"><rect width="800" height="440.88" rx="0" ry="0" class="a"></rect><svg height="440.88" viewBox="0 0 80 44.088" width="800" xmlns="http://www.w3.org/2000/svg" xmlns:xlink="http://www.w3.org/1999/xlink"><style>.a{fill:rgb(40,44,52)}.b{font-family:Consolas,"Courier New",Courier,"Liberation Mono",monospace}.c{fill:rgb(171,178,191);white-space:pre}.d{fill:transparent}.e{fill:rgb(82,139,255)}.g{animation-duration:34.495s;animation-iteration-count:infinite;animation-name:f;animation-timing-function:steps(1,end)}@keyframes f{0%{transform:translateX(-0px)}0.74%{transform:translateX(-80px)}0.76%{transform:translateX(-160px)}8.21%{transform:translateX(-240px)}14.69%{transform:translateX(-320px)}15.97%{transform:translateX(-400px)}16.96%{transform:translateX(-480px)}18.23%{transform:translateX(-560px)}19.95%{transform:translateX(-640px)}24.88%{transform:translateX(-720px)}26.78%{transform:translateX(-800px)}32.27%{transform:translateX(-880px)}37.09%{transform:translateX(-960px)}39.33%{transform:translateX(-1040px)}44.12%{transform:translateX(-1120px)}45.59%{transform:translateX(-1200px)}50.46%{transform:translateX(-1280px)}51.58%{transform:translateX(-1360px)}52.68%{transform:translateX(-1440px)}53.84%{transform:translateX(-1520px)}54.96%{transform:translateX(-1600px)}57.22%{transform:translateX(-1680px)}61.96%{transform:translateX(-1760px)}63.07%{transform:translateX(-1840px)}64.16%{transform:translateX(-1920px)}65.7%{transform:translateX(-2000px)}69.96%{transform:translateX(-2080px)}70.6%{transform:translateX(-2160px)}71.19%{transform:translateX(-2240px)}71.85%{transform:translateX(-2320px)}72.39%{transform:translateX(-2400px)}73.03%{transform:translateX(-2480px)}73.55%{transform:translateX(-2560px)}74.08%{transform:translateX(-2640px)}74.6%{transform:translateX(-2720px)}75.12%{transform:translateX(-2800px)}75.65%{transform:translateX(-2880px)}76.17%{transform:translateX(-2960px)}79%{transform:translateX(-3040px)}81.01%{transform:translateX(-3120px)}85.75%{transform:translateX(-3200px)}86.82%{transform:translateX(-3280px)}89.01%{transform:translateX(-3360px)}89.13%{transform:translateX(-3440px)}100%{transform:translateX(-3520px)}}</style><g font-family="Consolas, &quot;Courier New&quot;, Courier, &quot;Liberation Mono&quot;, monospace" font-size="1.67" class="b"><defs><symbol id="1"><text x="0" y="1.67" class="c">Produce</text><text x="8.016" y="1.67" class="c">box</text></symbol><symbol id="2"><text x="0" y="1.67" class="c">❯</text><text x="2.004" y="1.67" class="c">Basics</text><text x="9.017999999999999" y="1.67" class="c">›</text></symbol><symbol id="3"><text x="4.008" y="1.67" class="c">Naming</text><text x="11.021999999999998" y="1.67" class="c">and</text><text x="15.029999999999998" y="1.67" class="c">identity.</text></symbol><symbol id="4"><text x="4.008" y="1.67" class="c">Tui4</text><text x="9.017999999999999" y="1.67" class="c">·</text><text x="11.021999999999998" y="1.67" class="c">tui4</text><text x="16.032" y="1.67" class="c">·</text><text x="18.035999999999998" y="1.67" class="c">sunny</text><text x="24.048" y="1.67" class="c">·</text><text x="26.052" y="1.67" class="c">sunny/tui4</text></symbol><symbol id="5"><text x="2.004" y="1.67" class="c">Contents</text><text x="11.021999999999998" y="1.67" class="c">&amp;</text><text x="13.026" y="1.67" class="c">options</text><text x="21.041999999999998" y="1.67" class="c">›</text></symbol><symbol id="6"><text x="4.008" y="1.67" class="c">What</text><text x="9.017999999999999" y="1.67" class="c">the</text><text x="13.026" y="1.67" class="c">box</text><text x="17.034" y="1.67" class="c">ships</text><text x="23.045999999999996" y="1.67" class="c">with.</text></symbol><symbol id="7"><text x="4.008" y="1.67" class="c">medium</text><text x="11.021999999999998" y="1.67" class="c">·</text><text x="14.027999999999999" y="1.67" class="c">·</text><text x="16.032" y="1.67" class="c">Friday</text><text x="23.045999999999996" y="1.67" class="c">·</text><text x="25.05" y="1.67" class="c">no</text></symbol><symbol id="8"><text x="2.004" y="1.67" class="c">[</text><text x="4.008" y="1.67" class="c">Submit</text><text x="11.021999999999998" y="1.67" class="c">]</text><text x="14.027999999999999" y="1.67" class="c">[</text><text x="16.032" y="1.67" class="c">Cancel</text><text x="23.045999999999996" y="1.67" class="c">]</text></symbol><symbol id="9"><text x="0" y="1.67" class="c">↑/↓</text><text x="4.008" y="1.67" class="c">move</text><text x="9.017999999999999" y="1.67" class="c">·</text><text x="11.021999999999998" y="1.67" class="c">↵</text><text x="13.026" y="1.67" class="c">select</text><text x="20.04" y="1.67" class="c">·</text><text x="22.043999999999997" y="1.67" class="c">esc</text><text x="26.052" y="1.67" class="c">back</text><text x="31.061999999999998" y="1.67" class="c">·</text><text x="33.065999999999995" y="1.67" class="c">q</text><text x="35.06999999999999" y="1.67" class="c">quit</text><text x="40.08" y="1.67" class="c">·</text><text x="42.083999999999996" y="1.67" class="c">?</text><text x="44.087999999999994" y="1.67" class="c">help</text></symbol><symbol id="10"><text x="0" y="1.67" class="c">Produce</text><text x="8.016" y="1.67" class="c">box</text><text x="12.024" y="1.67" class="c">›</text><text x="14.027999999999999" y="1.67" class="c">Basics</text></symbol><symbol id="11"><text x="4.008" y="1.67" class="c">A</text><text x="6.012" y="1.67" class="c">human-readable</text><text x="21.041999999999998" y="1.67" class="c">name,</text><text x="27.054" y="1.67" class="c">e.g.</text><text x="32.064" y="1.67" class="c">&quot;Summer</text><text x="40.08" y="1.67" class="c">Box&quot;.</text></symbol><symbol id="12"><text x="2.004" y="1.67" class="c">Slug</text><text x="8.016" y="1.67" class="c">tui4</text><text x="68.136" y="1.67" class="c">derived</text></symbol><symbol id="13"><text x="4.008" y="1.67" class="c">Derived</text><text x="12.024" y="1.67" class="c">from</text><text x="17.034" y="1.67" class="c">the</text><text x="21.041999999999998" y="1.67" class="c">box</text><text x="25.05" y="1.67" class="c">name.</text></symbol><symbol id="14"><text x="2.004" y="1.67" class="c">Grower</text><text x="10.02" y="1.67" class="c">sunny</text></symbol><symbol id="15"><text x="2.004" y="1.67" class="c">Box</text><text x="6.012" y="1.67" class="c">code</text><text x="12.024" y="1.67" class="c">sunny/tui4</text><text x="68.136" y="1.67" class="c">derived</text></symbol><symbol id="16"><text x="4.008" y="1.67" class="c">Derived</text><text x="12.024" y="1.67" class="c">from</text><text x="17.034" y="1.67" class="c">grower</text><text x="24.048" y="1.67" class="c">and</text><text x="28.055999999999997" y="1.67" class="c">slug.</text></symbol><symbol id="17"><text x="2.004" y="1.67" class="c">Label</text><text x="9.017999999999999" y="1.67" class="c">Tui4</text><text x="68.136" y="1.67" class="c">derived</text></symbol><symbol id="18"><text x="2.004" y="1.67" class="c">Box</text><text x="6.012" y="1.67" class="c">name</text><text x="12.024" y="1.67" class="c">Tui4</text></symbol><symbol id="19"><text x="2.004" y="1.67" class="c">Basics</text><text x="9.017999999999999" y="1.67" class="c">›</text></symbol><symbol id="20"><text x="0" y="1.67" class="c">❯</text><text x="2.004" y="1.67" class="c">Contents</text><text x="11.021999999999998" y="1.67" class="c">&amp;</text><text x="13.026" y="1.67" class="c">options</text><text x="21.041999999999998" y="1.67" class="c">›</text></symbol><symbol id="21"><text x="0" y="1.67" class="c">Produce</text><text x="8.016" y="1.67" class="c">box</text><text x="12.024" y="1.67" class="c">›</text><text x="14.027999999999999" y="1.67" class="c">Contents</text><text x="23.045999999999996" y="1.67" class="c">&amp;</text><text x="25.05" y="1.67" class="c">options</text></symbol><symbol id="22"><text x="2.004" y="1.67" class="c">Contents</text></symbol><symbol id="23"><text x="4.008" y="1.67" class="c">Space</text><text x="10.02" y="1.67" class="c">to</text><text x="13.026" y="1.67" class="c">toggle,</text><text x="21.041999999999998" y="1.67" class="c">type</text><text x="26.052" y="1.67" class="c">to</text><text x="29.058" y="1.67" class="c">filter.</text></symbol><symbol id="24"><text x="2.004" y="1.67" class="c">Herb</text><text x="7.013999999999999" y="1.67" class="c">bundle</text></symbol><symbol id="25"><text x="2.004" y="1.67" class="c">Weekly</text><text x="9.017999999999999" y="1.67" class="c">delivery?</text></symbol><symbol id="26"><text x="2.004" y="1.67" class="c">Delivery</text><text x="11.021999999999998" y="1.67" class="c">day</text><text x="16.032" y="1.67" class="c">Friday</text></symbol><symbol id="27"><text x="2.004" y="1.67" class="c">Gift</text><text x="7.013999999999999" y="1.67" class="c">wrap?</text><text x="14.027999999999999" y="1.67" class="c">no</text></symbol><symbol id="28"><text x="0" y="1.67" class="c">❯</text><text x="2.004" y="1.67" class="c">Box</text><text x="6.012" y="1.67" class="c">size</text><text x="12.024" y="1.67" class="c">○</text><text x="14.027999999999999" y="1.67" class="c">Small</text></symbol><symbol id="29"><text x="0" y="1.67" class="c">↑/↓</text><text x="4.008" y="1.67" class="c">move</text><text x="9.017999999999999" y="1.67" class="c">·</text><text x="11.021999999999998" y="1.67" class="c">↵</text><text x="13.026" y="1.67" class="c">accept</text><text x="20.04" y="1.67" class="c">·</text><text x="22.043999999999997" y="1.67" class="c">esc</text><text x="26.052" y="1.67" class="c">cancel</text></symbol><symbol id="30"><text x="2.004" y="1.67" class="c">Box</text><text x="6.012" y="1.67" class="c">size</text><text x="12.024" y="1.67" class="c">large</text><text x="69.13799999999999" y="1.67" class="c">edited</text></symbol><symbol id="31"><text x="14.027999999999999" y="1.67" class="c">◻</text><text x="16.032" y="1.67" class="c">Vegetables</text></symbol><symbol id="32"><text x="14.027999999999999" y="1.67" class="c">◻</text><text x="16.032" y="1.67" class="c">Herbs</text></symbol><symbol id="33"><text x="14.027999999999999" y="1.67" class="c">◻</text><text x="16.032" y="1.67" class="c">Salad</text></symbol><symbol id="34"><text x="0" y="1.67" class="c">space</text><text x="6.012" y="1.67" class="c">select</text><text x="13.026" y="1.67" class="c">·</text><text x="15.029999999999998" y="1.67" class="c">↑/↓</text><text x="19.037999999999997" y="1.67" class="c">move</text><text x="24.048" y="1.67" class="c">·</text><text x="26.052" y="1.67" class="c">←/→</text><text x="30.059999999999995" y="1.67" class="c">none/all</text><text x="39.077999999999996" y="1.67" class="c">·</text><text x="41.082" y="1.67" class="c">↵</text><text x="43.086" y="1.67" class="c">accept</text><text x="50.1" y="1.67" class="c">·</text><text x="52.104" y="1.67" class="c">esc</text><text x="56.111999999999995" y="1.67" class="c">cancel</text></symbol><symbol id="35"><text x="0" y="1.67" class="c">❯</text><text x="2.004" y="1.67" class="c">Contents</text><text x="14.027999999999999" y="1.67" class="c">◼</text><text x="16.032" y="1.67" class="c">Fruit</text></symbol><symbol id="36"><text x="14.027999999999999" y="1.67" class="c">◼</text><text x="16.032" y="1.67" class="c">Vegetables</text></symbol><symbol id="37"><text x="2.004" y="1.67" class="c">Contents</text><text x="12.024" y="1.67" class="c">fruit,</text><text x="19.037999999999997" y="1.67" class="c">veg,</text><text x="24.048" y="1.67" class="c">herbs</text><text x="69.13799999999999" y="1.67" class="c">edited</text></symbol><symbol id="38"><text x="18.035999999999998" y="1.67" class="c">Friday</text></symbol><symbol id="39"><text x="18.035999999999998" y="1.67" class="c">Monday</text></symbol><symbol id="40"><text x="4.008" y="1.67" class="c">large</text><text x="10.02" y="1.67" class="c">·</text><text x="12.024" y="1.67" class="c">fruit,</text><text x="19.037999999999997" y="1.67" class="c">veg,</text><text x="24.048" y="1.67" class="c">herbs</text><text x="30.059999999999995" y="1.67" class="c">·</text><text x="32.064" y="1.67" class="c">Monday</text><text x="39.077999999999996" y="1.67" class="c">·</text><text x="41.082" y="1.67" class="c">no</text></symbol><symbol id="41"><text x="0" y="1.67" class="c">Basics</text></symbol><symbol id="42"><text x="2.004" y="1.67" class="c">Box</text><text x="6.012" y="1.67" class="c">name:</text><text x="12.024" y="1.67" class="c">Tui4</text></symbol><symbol id="43"><text x="2.004" y="1.67" class="c">Slug:</text><text x="8.016" y="1.67" class="c">tui4</text><text x="13.026" y="1.67" class="c">(derived)</text></symbol><symbol id="44"><text x="2.004" y="1.67" class="c">Grower:</text><text x="10.02" y="1.67" class="c">sunny</text></symbol><symbol id="45"><text x="2.004" y="1.67" class="c">Box</text><text x="6.012" y="1.67" class="c">code:</text><text x="12.024" y="1.67" class="c">sunny/tui4</text><text x="23.045999999999996" y="1.67" class="c">(derived)</text></symbol><symbol id="46"><text x="2.004" y="1.67" class="c">Label:</text><text x="9.017999999999999" y="1.67" class="c">Tui4</text><text x="14.027999999999999" y="1.67" class="c">(derived)</text></symbol><symbol id="47"><text x="0" y="1.67" class="c">Contents</text><text x="9.017999999999999" y="1.67" class="c">&amp;</text><text x="11.021999999999998" y="1.67" class="c">options</text></symbol><symbol id="48"><text x="2.004" y="1.67" class="c">Box</text><text x="6.012" y="1.67" class="c">size:</text><text x="12.024" y="1.67" class="c">large</text><text x="18.035999999999998" y="1.67" class="c">(edited)</text></symbol><symbol id="49"><text x="2.004" y="1.67" class="c">Contents:</text><text x="12.024" y="1.67" class="c">fruit,</text><text x="19.037999999999997" y="1.67" class="c">veg,</text><text x="24.048" y="1.67" class="c">herbs</text><text x="30.059999999999995" y="1.67" class="c">(edited)</text></symbol><symbol id="50"><text x="2.004" y="1.67" class="c">Delivery</text><text x="11.021999999999998" y="1.67" class="c">day:</text><text x="16.032" y="1.67" class="c">Monday</text><text x="23.045999999999996" y="1.67" class="c">(edited)</text></symbol><symbol id="51"><text x="2.004" y="1.67" class="c">Gift</text><text x="7.013999999999999" y="1.67" class="c">wrap?:</text><text x="14.027999999999999" y="1.67" class="c">no</text></symbol><symbol id="a"><rect height="24" width="80" x="0" y="0" class="d"></rect></symbol><symbol id="b"><rect height="1.837" width="1.1022" class="e"></rect></symbol></defs><rect height="44.088" width="80" class="a"></rect><g class="g"><svg x="0" y="0" width="3600"><svg x="0"><use xlink:href="#a"></use><use xlink:href="#b" x="-0.0040000000000000036" y="0"></use></svg><svg x="80"><use xlink:href="#a"></use></svg><svg x="160"><use xlink:href="#a"></use><use xlink:href="#1" y="0"></use><use xlink:href="#2" y="1.837"></use><use xlink:href="#3" y="3.674"></use><use xlink:href="#4" y="5.511"></use><use xlink:href="#5" y="7.348"></use><use xlink:href="#6" y="9.185"></use><use xlink:href="#7" y="11.022"></use><use xlink:href="#8" y="14.696"></use><use xlink:href="#9" y="18.37"></use></svg><svg x="240"><use xlink:href="#a"></use><use xlink:href="#10" y="0"></use><text x="0" y="3.5069999999999997" class="c">❯</text><text x="2.004" y="3.5069999999999997" class="c">Box</text><text x="6.012" y="3.5069999999999997" class="c">name</text><text x="12.024" y="3.5069999999999997" class="c">Tui4</text><use xlink:href="#11" y="3.674"></use><use xlink:href="#12" y="5.511"></use><use xlink:href="#13" y="7.348"></use><use xlink:href="#14" y="9.185"></use><use xlink:href="#15" y="11.022"></use><use xlink:href="#16" y="12.859"></use><use xlink:href="#17" y="14.696"></use><use xlink:href="#9" y="18.37"></use></svg><svg x="320"><use xlink:href="#a"></use><use xlink:href="#10" y="0"></use><use xlink:href="#18" y="1.837"></use><use xlink:href="#11" y="3.674"></use><text x="0" y="7.181" class="c">❯</text><text x="2.004" y="7.181" class="c">Slug</text><text x="8.016" y="7.181" class="c">tui4</text><text x="68.136" y="7.181" class="c">derived</text><use xlink:href="#13" y="7.348"></use><use xlink:href="#14" y="9.185"></use><use xlink:href="#15" y="11.022"></use><use xlink:href="#16" y="12.859"></use><use xlink:href="#17" y="14.696"></use><use xlink:href="#9" y="18.37"></use></svg><svg x="400"><use xlink:href="#a"></use><use xlink:href="#10" y="0"></use><use xlink:href="#18" y="1.837"></use><use xlink:href="#11" y="3.674"></use><use xlink:href="#12" y="5.511"></use><use xlink:href="#13" y="7.348"></use><text x="0" y="10.855" class="c">❯</text><text x="2.004" y="10.855" class="c">Grower</text><text x="10.02" y="10.855" class="c">sunny</text><use xlink:href="#15" y="11.022"></use><use xlink:href="#16" y="12.859"></use><use xlink:href="#17" y="14.696"></use><use xlink:href="#9" y="18.37"></use></svg><svg x="480"><use xlink:href="#a"></use><use xlink:href="#10" y="0"></use><use xlink:href="#18" y="1.837"></use><use xlink:href="#11" y="3.674"></use><use xlink:href="#12" y="5.511"></use><use xlink:href="#13" y="7.348"></use><use xlink:href="#14" y="9.185"></use><text x="0" y="12.692" class="c">❯</text><text x="2.004" y="12.692" class="c">Box</text><text x="6.012" y="12.692" class="c">code</text><text x="12.024" y="12.692" class="c">sunny/tui4</text><text x="68.136" y="12.692" class="c">derived</text><use xlink:href="#16" y="12.859"></use><use xlink:href="#17" y="14.696"></use><use xlink:href="#9" y="18.37"></use></svg><svg x="560"><use xlink:href="#a"></use><use xlink:href="#10" y="0"></use><use xlink:href="#18" y="1.837"></use><use xlink:href="#11" y="3.674"></use><use xlink:href="#12" y="5.511"></use><use xlink:href="#13" y="7.348"></use><use xlink:href="#14" y="9.185"></use><use xlink:href="#15" y="11.022"></use><use xlink:href="#16" y="12.859"></use><text x="0" y="16.366" class="c">❯</text><text x="2.004" y="16.366" class="c">Label</text><text x="9.017999999999999" y="16.366" class="c">Tui4</text><text x="68.136" y="16.366" class="c">derived</text><use xlink:href="#9" y="18.37"></use></svg><svg x="640"><use xlink:href="#a"></use><use xlink:href="#1" y="0"></use><use xlink:href="#2" y="1.837"></use><use xlink:href="#3" y="3.674"></use><use xlink:href="#4" y="5.511"></use><use xlink:href="#5" y="7.348"></use><use xlink:href="#6" y="9.185"></use><use xlink:href="#7" y="11.022"></use><use xlink:href="#8" y="14.696"></use><use xlink:href="#9" y="18.37"></use></svg><svg x="720"><use xlink:href="#a"></use><use xlink:href="#1" y="0"></use><use xlink:href="#19" y="1.837"></use><use xlink:href="#3" y="3.674"></use><use xlink:href="#4" y="5.511"></use><use xlink:href="#20" y="7.348"></use><use xlink:href="#6" y="9.185"></use><use xlink:href="#7" y="11.022"></use><use xlink:href="#8" y="14.696"></use><use xlink:href="#9" y="18.37"></use></svg><svg x="800"><use xlink:href="#a"></use><use xlink:href="#21" y="0"></use><text x="0" y="3.5069999999999997" class="c">❯</text><text x="2.004" y="3.5069999999999997" class="c">Box</text><text x="6.012" y="3.5069999999999997" class="c">size</text><text x="12.024" y="3.5069999999999997" class="c">medium</text><use xlink:href="#22" y="3.674"></use><use xlink:href="#23" y="5.511"></use><use xlink:href="#24" y="7.348"></use><use xlink:href="#25" y="9.185"></use><use xlink:href="#26" y="11.022"></use><use xlink:href="#27" y="12.859"></use><use xlink:href="#9" y="16.533"></use></svg><svg x="880"><use xlink:href="#a"></use><use xlink:href="#21" y="0"></use><use xlink:href="#28" y="1.837"></use><text x="12.024" y="5.343999999999999" class="c">●</text><text x="14.027999999999999" y="5.343999999999999" class="c">Medium</text><text x="12.024" y="7.181" class="c">○</text><text x="14.027999999999999" y="7.181" class="c">Large</text><use xlink:href="#22" y="7.348"></use><use xlink:href="#23" y="9.185"></use><use xlink:href="#24" y="11.022"></use><use xlink:href="#25" y="12.859"></use><use xlink:href="#26" y="14.696"></use><use xlink:href="#27" y="16.533"></use><use xlink:href="#29" y="20.206999999999997"></use></svg><svg x="960"><use xlink:href="#a"></use><use xlink:href="#21" y="0"></use><use xlink:href="#28" y="1.837"></use><text x="12.024" y="5.343999999999999" class="c">○</text><text x="14.027999999999999" y="5.343999999999999" class="c">Medium</text><text x="12.024" y="7.181" class="c">●</text><text x="14.027999999999999" y="7.181" class="c">Large</text><use xlink:href="#22" y="7.348"></use><use xlink:href="#23" y="9.185"></use><use xlink:href="#24" y="11.022"></use><use xlink:href="#25" y="12.859"></use><use xlink:href="#26" y="14.696"></use><use xlink:href="#27" y="16.533"></use><use xlink:href="#29" y="20.206999999999997"></use></svg><svg x="1040"><use xlink:href="#a"></use><use xlink:href="#21" y="0"></use><text x="0" y="3.5069999999999997" class="c">❯</text><text x="2.004" y="3.5069999999999997" class="c">Box</text><text x="6.012" y="3.5069999999999997" class="c">size</text><text x="12.024" y="3.5069999999999997" class="c">large</text><text x="69.13799999999999" y="3.5069999999999997" class="c">edited</text><use xlink:href="#22" y="3.674"></use><use xlink:href="#23" y="5.511"></use><use xlink:href="#24" y="7.348"></use><use xlink:href="#25" y="9.185"></use><use xlink:href="#26" y="11.022"></use><use xlink:href="#27" y="12.859"></use><use xlink:href="#9" y="16.533"></use></svg><svg x="1120"><use xlink:href="#a"></use><use xlink:href="#21" y="0"></use><use xlink:href="#30" y="1.837"></use><text x="0" y="5.343999999999999" class="c">❯</text><text x="2.004" y="5.343999999999999" class="c">Contents</text><use xlink:href="#23" y="5.511"></use><use xlink:href="#24" y="7.348"></use><use xlink:href="#25" y="9.185"></use><use xlink:href="#26" y="11.022"></use><use xlink:href="#27" y="12.859"></use><use xlink:href="#9" y="16.533"></use></svg><svg x="1200"><use xlink:href="#a"></use><use xlink:href="#21" y="0"></use><use xlink:href="#30" y="1.837"></use><text x="0" y="5.343999999999999" class="c">❯</text><text x="2.004" y="5.343999999999999" class="c">Contents</text><text x="12.024" y="5.343999999999999" class="c">❯</text><text x="14.027999999999999" y="5.343999999999999" class="c">◻</text><text x="16.032" y="5.343999999999999" class="c">Fruit</text><use xlink:href="#31" y="5.511"></use><use xlink:href="#32" y="7.348"></use><use xlink:href="#33" y="9.185"></use><use xlink:href="#23" y="11.022"></use><use xlink:href="#24" y="12.859"></use><use xlink:href="#25" y="14.696"></use><use xlink:href="#26" y="16.533"></use><use xlink:href="#27" y="18.37"></use><use xlink:href="#34" y="22.044"></use></svg><svg x="1280"><use xlink:href="#a"></use><use xlink:href="#21" y="0"></use><use xlink:href="#30" y="1.837"></use><text x="0" y="5.343999999999999" class="c">❯</text><text x="2.004" y="5.343999999999999" class="c">Contents</text><text x="12.024" y="5.343999999999999" class="c">❯</text><text x="14.027999999999999" y="5.343999999999999" class="c">◼</text><text x="16.032" y="5.343999999999999" class="c">Fruit</text><use xlink:href="#31" y="5.511"></use><use xlink:href="#32" y="7.348"></use><use xlink:href="#33" y="9.185"></use><use xlink:href="#23" y="11.022"></use><use xlink:href="#24" y="12.859"></use><use xlink:href="#25" y="14.696"></use><use xlink:href="#26" y="16.533"></use><use xlink:href="#27" y="18.37"></use><use xlink:href="#34" y="22.044"></use></svg><svg x="1360"><use xlink:href="#a"></use><use xlink:href="#21" y="0"></use><use xlink:href="#30" y="1.837"></use><use xlink:href="#35" y="3.674"></use><text x="12.024" y="7.181" class="c">❯</text><text x="14.027999999999999" y="7.181" class="c">◻</text><text x="16.032" y="7.181" class="c">Vegetables</text><use xlink:href="#32" y="7.348"></use><use xlink:href="#33" y="9.185"></use><use xlink:href="#23" y="11.022"></use><use xlink:href="#24" y="12.859"></use><use xlink:href="#25" y="14.696"></use><use xlink:href="#26" y="16.533"></use><use xlink:href="#27" y="18.37"></use><use xlink:href="#34" y="22.044"></use></svg><svg x="1440"><use xlink:href="#a"></use><use xlink:href="#21" y="0"></use><use xlink:href="#30" y="1.837"></use><use xlink:href="#35" y="3.674"></use><text x="12.024" y="7.181" class="c">❯</text><text x="14.027999999999999" y="7.181" class="c">◼</text><text x="16.032" y="7.181" class="c">Vegetables</text><use xlink:href="#32" y="7.348"></use><use xlink:href="#33" y="9.185"></use><use xlink:href="#23" y="11.022"></use><use xlink:href="#24" y="12.859"></use><use xlink:href="#25" y="14.696"></use><use xlink:href="#26" y="16.533"></use><use xlink:href="#27" y="18.37"></use><use xlink:href="#34" y="22.044"></use></svg><svg x="1520"><use xlink:href="#a"></use><use xlink:href="#21" y="0"></use><use xlink:href="#30" y="1.837"></use><use xlink:href="#35" y="3.674"></use><use xlink:href="#36" y="5.511"></use><text x="12.024" y="9.018" class="c">❯</text><text x="14.027999999999999" y="9.018" class="c">◻</text><text x="16.032" y="9.018" class="c">Herbs</text><use xlink:href="#33" y="9.185"></use><use xlink:href="#23" y="11.022"></use><use xlink:href="#24" y="12.859"></use><use xlink:href="#25" y="14.696"></use><use xlink:href="#26" y="16.533"></use><use xlink:href="#27" y="18.37"></use><use xlink:href="#34" y="22.044"></use></svg><svg x="1600"><use xlink:href="#a"></use><use xlink:href="#21" y="0"></use><use xlink:href="#30" y="1.837"></use><use xlink:href="#35" y="3.674"></use><use xlink:href="#36" y="5.511"></use><text x="12.024" y="9.018" class="c">❯</text><text x="14.027999999999999" y="9.018" class="c">◼</text><text x="16.032" y="9.018" class="c">Herbs</text><use xlink:href="#33" y="9.185"></use><use xlink:href="#23" y="11.022"></use><use xlink:href="#24" y="12.859"></use><use xlink:href="#25" y="14.696"></use><use xlink:href="#26" y="16.533"></use><use xlink:href="#27" y="18.37"></use><use xlink:href="#34" y="22.044"></use></svg><svg x="1680"><use xlink:href="#a"></use><use xlink:href="#21" y="0"></use><use xlink:href="#30" y="1.837"></use><text x="0" y="5.343999999999999" class="c">❯</text><text x="2.004" y="5.343999999999999" class="c">Contents</text><text x="12.024" y="5.343999999999999" class="c">fruit,</text><text x="19.037999999999997" y="5.343999999999999" class="c">veg,</text><text x="24.048" y="5.343999999999999" class="c">herbs</text><text x="69.13799999999999" y="5.343999999999999" class="c">edited</text><use xlink:href="#23" y="5.511"></use><use xlink:href="#24" y="7.348"></use><use xlink:href="#25" y="9.185"></use><use xlink:href="#26" y="11.022"></use><use xlink:href="#27" y="12.859"></use><use xlink:href="#9" y="16.533"></use></svg><svg x="1760"><use xlink:href="#a"></use><use xlink:href="#21" y="0"></use><use xlink:href="#30" y="1.837"></use><use xlink:href="#37" y="3.674"></use><use xlink:href="#23" y="5.511"></use><text x="0" y="9.018" class="c">❯</text><text x="2.004" y="9.018" class="c">Herb</text><text x="7.013999999999999" y="9.018" class="c">bundle</text><use xlink:href="#25" y="9.185"></use><use xlink:href="#26" y="11.022"></use><use xlink:href="#27" y="12.859"></use><use xlink:href="#9" y="16.533"></use></svg><svg x="1840"><use xlink:href="#a"></use><use xlink:href="#21" y="0"></use><use xlink:href="#30" y="1.837"></use><use xlink:href="#37" y="3.674"></use><use xlink:href="#23" y="5.511"></use><use xlink:href="#24" y="7.348"></use><text x="0" y="10.855" class="c">❯</text><text x="2.004" y="10.855" class="c">Weekly</text><text x="9.017999999999999" y="10.855" class="c">delivery?</text><use xlink:href="#26" y="11.022"></use><use xlink:href="#27" y="12.859"></use><use xlink:href="#9" y="16.533"></use></svg><svg x="1920"><use xlink:href="#a"></use><use xlink:href="#21" y="0"></use><use xlink:href="#30" y="1.837"></use><use xlink:href="#37" y="3.674"></use><use xlink:href="#23" y="5.511"></use><use xlink:href="#24" y="7.348"></use><use xlink:href="#25" y="9.185"></use><text x="0" y="12.692" class="c">❯</text><text x="2.004" y="12.692" class="c">Delivery</text><text x="11.021999999999998" y="12.692" class="c">day</text><text x="16.032" y="12.692" class="c">Friday</text><use xlink:href="#27" y="12.859"></use><use xlink:href="#9" y="16.533"></use></svg><svg x="2000"><use xlink:href="#a"></use><use xlink:href="#21" y="0"></use><use xlink:href="#30" y="1.837"></use><use xlink:href="#37" y="3.674"></use><use xlink:href="#23" y="5.511"></use><use xlink:href="#24" y="7.348"></use><use xlink:href="#25" y="9.185"></use><text x="0" y="12.692" class="c">❯</text><text x="2.004" y="12.692" class="c">Delivery</text><text x="11.021999999999998" y="12.692" class="c">day</text><text x="16.032" y="12.692" class="c">Friday█</text><use xlink:href="#38" y="12.859"></use><use xlink:href="#27" y="14.696"></use><use xlink:href="#29" y="18.37"></use></svg><svg x="2080"><use xlink:href="#a"></use><use xlink:href="#21" y="0"></use><use xlink:href="#30" y="1.837"></use><use xlink:href="#37" y="3.674"></use><use xlink:href="#23" y="5.511"></use><use xlink:href="#24" y="7.348"></use><use xlink:href="#25" y="9.185"></use><text x="0" y="12.692" class="c">❯</text><text x="2.004" y="12.692" class="c">Delivery</text><text x="11.021999999999998" y="12.692" class="c">day</text><text x="16.032" y="12.692" class="c">Frida█</text><use xlink:href="#38" y="12.859"></use><use xlink:href="#27" y="14.696"></use><use xlink:href="#29" y="18.37"></use></svg><svg x="2160"><use xlink:href="#a"></use><use xlink:href="#21" y="0"></use><use xlink:href="#30" y="1.837"></use><use xlink:href="#37" y="3.674"></use><use xlink:href="#23" y="5.511"></use><use xlink:href="#24" y="7.348"></use><use xlink:href="#25" y="9.185"></use><text x="0" y="12.692" class="c">❯</text><text x="2.004" y="12.692" class="c">Delivery</text><text x="11.021999999999998" y="12.692" class="c">day</text><text x="16.032" y="12.692" class="c">Frid█</text><use xlink:href="#38" y="12.859"></use><use xlink:href="#27" y="14.696"></use><use xlink:href="#29" y="18.37"></use></svg><svg x="2240"><use xlink:href="#a"></use><use xlink:href="#21" y="0"></use><use xlink:href="#30" y="1.837"></use><use xlink:href="#37" y="3.674"></use><use xlink:href="#23" y="5.511"></use><use xlink:href="#24" y="7.348"></use><use xlink:href="#25" y="9.185"></use><text x="0" y="12.692" class="c">❯</text><text x="2.004" y="12.692" class="c">Delivery</text><text x="11.021999999999998" y="12.692" class="c">day</text><text x="16.032" y="12.692" class="c">Fri█</text><use xlink:href="#38" y="12.859"></use><use xlink:href="#27" y="14.696"></use><use xlink:href="#29" y="18.37"></use></svg><svg x="2320"><use xlink:href="#a"></use><use xlink:href="#21" y="0"></use><use xlink:href="#30" y="1.837"></use><use xlink:href="#37" y="3.674"></use><use xlink:href="#23" y="5.511"></use><use xlink:href="#24" y="7.348"></use><use xlink:href="#25" y="9.185"></use><text x="0" y="12.692" class="c">❯</text><text x="2.004" y="12.692" class="c">Delivery</text><text x="11.021999999999998" y="12.692" class="c">day</text><text x="16.032" y="12.692" class="c">Fr█</text><use xlink:href="#38" y="12.859"></use><use xlink:href="#27" y="14.696"></use><use xlink:href="#29" y="18.37"></use></svg><svg x="2400"><use xlink:href="#a"></use><use xlink:href="#21" y="0"></use><use xlink:href="#30" y="1.837"></use><use xlink:href="#37" y="3.674"></use><use xlink:href="#23" y="5.511"></use><use xlink:href="#24" y="7.348"></use><use xlink:href="#25" y="9.185"></use><text x="0" y="12.692" class="c">❯</text><text x="2.004" y="12.692" class="c">Delivery</text><text x="11.021999999999998" y="12.692" class="c">day</text><text x="16.032" y="12.692" class="c">F█</text><use xlink:href="#38" y="12.859"></use><use xlink:href="#27" y="14.696"></use><use xlink:href="#29" y="18.37"></use></svg><svg x="2480"><use xlink:href="#a"></use><use xlink:href="#21" y="0"></use><use xlink:href="#30" y="1.837"></use><use xlink:href="#37" y="3.674"></use><use xlink:href="#23" y="5.511"></use><use xlink:href="#24" y="7.348"></use><use xlink:href="#25" y="9.185"></use><text x="0" y="12.692" class="c">❯</text><text x="2.004" y="12.692" class="c">Delivery</text><text x="11.021999999999998" y="12.692" class="c">day</text><text x="16.032" y="12.692" class="c">█</text><use xlink:href="#39" y="12.859"></use><text x="18.035999999999998" y="16.366" class="c">Wednesday</text><use xlink:href="#38" y="16.533"></use><text x="18.035999999999998" y="20.04" class="c">Saturday</text><use xlink:href="#27" y="20.206999999999997"></use><use xlink:href="#29" y="23.881000000000004"></use></svg><svg x="2560"><use xlink:href="#a"></use><use xlink:href="#21" y="0"></use><use xlink:href="#30" y="1.837"></use><use xlink:href="#37" y="3.674"></use><use xlink:href="#23" y="5.511"></use><use xlink:href="#24" y="7.348"></use><use xlink:href="#25" y="9.185"></use><text x="0" y="12.692" class="c">❯</text><text x="2.004" y="12.692" class="c">Delivery</text><text x="11.021999999999998" y="12.692" class="c">day</text><text x="16.032" y="12.692" class="c">M█</text><use xlink:href="#39" y="12.859"></use><use xlink:href="#27" y="14.696"></use><use xlink:href="#29" y="18.37"></use></svg><svg x="2640"><use xlink:href="#a"></use><use xlink:href="#21" y="0"></use><use xlink:href="#30" y="1.837"></use><use xlink:href="#37" y="3.674"></use><use xlink:href="#23" y="5.511"></use><use xlink:href="#24" y="7.348"></use><use xlink:href="#25" y="9.185"></use><text x="0" y="12.692" class="c">❯</text><text x="2.004" y="12.692" class="c">Delivery</text><text x="11.021999999999998" y="12.692" class="c">day</text><text x="16.032" y="12.692" class="c">Mo█</text><use xlink:href="#39" y="12.859"></use><use xlink:href="#27" y="14.696"></use><use xlink:href="#29" y="18.37"></use></svg><svg x="2720"><use xlink:href="#a"></use><use xlink:href="#21" y="0"></use><use xlink:href="#30" y="1.837"></use><use xlink:href="#37" y="3.674"></use><use xlink:href="#23" y="5.511"></use><use xlink:href="#24" y="7.348"></use><use xlink:href="#25" y="9.185"></use><text x="0" y="12.692" class="c">❯</text><text x="2.004" y="12.692" class="c">Delivery</text><text x="11.021999999999998" y="12.692" class="c">day</text><text x="16.032" y="12.692" class="c">Mon█</text><use xlink:href="#39" y="12.859"></use><use xlink:href="#27" y="14.696"></use><use xlink:href="#29" y="18.37"></use></svg><svg x="2800"><use xlink:href="#a"></use><use xlink:href="#21" y="0"></use><use xlink:href="#30" y="1.837"></use><use xlink:href="#37" y="3.674"></use><use xlink:href="#23" y="5.511"></use><use xlink:href="#24" y="7.348"></use><use xlink:href="#25" y="9.185"></use><text x="0" y="12.692" class="c">❯</text><text x="2.004" y="12.692" class="c">Delivery</text><text x="11.021999999999998" y="12.692" class="c">day</text><text x="16.032" y="12.692" class="c">Mond█</text><use xlink:href="#39" y="12.859"></use><use xlink:href="#27" y="14.696"></use><use xlink:href="#29" y="18.37"></use></svg><svg x="2880"><use xlink:href="#a"></use><use xlink:href="#21" y="0"></use><use xlink:href="#30" y="1.837"></use><use xlink:href="#37" y="3.674"></use><use xlink:href="#23" y="5.511"></use><use xlink:href="#24" y="7.348"></use><use xlink:href="#25" y="9.185"></use><text x="0" y="12.692" class="c">❯</text><text x="2.004" y="12.692" class="c">Delivery</text><text x="11.021999999999998" y="12.692" class="c">day</text><text x="16.032" y="12.692" class="c">Monda█</text><use xlink:href="#39" y="12.859"></use><use xlink:href="#27" y="14.696"></use><use xlink:href="#29" y="18.37"></use></svg><svg x="2960"><use xlink:href="#a"></use><use xlink:href="#21" y="0"></use><use xlink:href="#30" y="1.837"></use><use xlink:href="#37" y="3.674"></use><use xlink:href="#23" y="5.511"></use><use xlink:href="#24" y="7.348"></use><use xlink:href="#25" y="9.185"></use><text x="0" y="12.692" class="c">❯</text><text x="2.004" y="12.692" class="c">Delivery</text><text x="11.021999999999998" y="12.692" class="c">day</text><text x="16.032" y="12.692" class="c">Monday█</text><use xlink:href="#39" y="12.859"></use><use xlink:href="#27" y="14.696"></use><use xlink:href="#29" y="18.37"></use></svg><svg x="3040"><use xlink:href="#a"></use><use xlink:href="#21" y="0"></use><use xlink:href="#30" y="1.837"></use><use xlink:href="#37" y="3.674"></use><use xlink:href="#23" y="5.511"></use><use xlink:href="#24" y="7.348"></use><use xlink:href="#25" y="9.185"></use><text x="0" y="12.692" class="c">❯</text><text x="2.004" y="12.692" class="c">Delivery</text><text x="11.021999999999998" y="12.692" class="c">day</text><text x="16.032" y="12.692" class="c">Monday</text><text x="69.13799999999999" y="12.692" class="c">edited</text><use xlink:href="#27" y="12.859"></use><use xlink:href="#9" y="16.533"></use></svg><svg x="3120"><use xlink:href="#a"></use><use xlink:href="#1" y="0"></use><use xlink:href="#2" y="1.837"></use><use xlink:href="#3" y="3.674"></use><use xlink:href="#4" y="5.511"></use><use xlink:href="#5" y="7.348"></use><use xlink:href="#6" y="9.185"></use><use xlink:href="#40" y="11.022"></use><use xlink:href="#8" y="14.696"></use><use xlink:href="#9" y="18.37"></use></svg><svg x="3200"><use xlink:href="#a"></use><use xlink:href="#1" y="0"></use><use xlink:href="#19" y="1.837"></use><use xlink:href="#3" y="3.674"></use><use xlink:href="#4" y="5.511"></use><use xlink:href="#20" y="7.348"></use><use xlink:href="#6" y="9.185"></use><use xlink:href="#40" y="11.022"></use><use xlink:href="#8" y="14.696"></use><use xlink:href="#9" y="18.37"></use></svg><svg x="3280"><use xlink:href="#a"></use><use xlink:href="#1" y="0"></use><use xlink:href="#19" y="1.837"></use><use xlink:href="#3" y="3.674"></use><use xlink:href="#4" y="5.511"></use><use xlink:href="#5" y="7.348"></use><use xlink:href="#6" y="9.185"></use><use xlink:href="#40" y="11.022"></use><use xlink:href="#8" y="14.696"></use><use xlink:href="#9" y="18.37"></use></svg><svg x="3360"><use xlink:href="#a"></use><use xlink:href="#b" x="-0.0040000000000000036" y="0"></use></svg><svg x="3440"><use xlink:href="#a"></use><use xlink:href="#b" x="-0.0040000000000000036" y="20.031999999999996"></use><use xlink:href="#41" y="0"></use><use xlink:href="#42" y="1.837"></use><use xlink:href="#43" y="3.674"></use><use xlink:href="#44" y="5.511"></use><use xlink:href="#45" y="7.348"></use><use xlink:href="#46" y="9.185"></use><use xlink:href="#47" y="11.022"></use><use xlink:href="#48" y="12.859"></use><use xlink:href="#49" y="14.696"></use><use xlink:href="#50" y="16.533"></use><use xlink:href="#51" y="18.37"></use></svg><svg x="3520"><use xlink:href="#a"></use><use xlink:href="#b" x="0.996" y="20.031999999999996"></use><use xlink:href="#41" y="0"></use><use xlink:href="#42" y="1.837"></use><use xlink:href="#43" y="3.674"></use><use xlink:href="#44" y="5.511"></use><use xlink:href="#45" y="7.348"></use><use xlink:href="#46" y="9.185"></use><use xlink:href="#47" y="11.022"></use><use xlink:href="#48" y="12.859"></use><use xlink:href="#49" y="14.696"></use><use xlink:href="#50" y="16.533"></use><use xlink:href="#51" y="18.37"></use></svg></svg></g></g></svg></svg>