<svg xmlns="http://www.w3.org/2000/svg" xmlns:xlink="http://www.w3.org/1999/xlink" width="800" height="440.88"><rect width="800" height="440.88" rx="0" ry="0" class="a"></rect><svg height="440.88" viewBox="0 0 80 44.088" width="800" xmlns="http://www.w3.org/2000/svg" xmlns:xlink="http://www.w3.org/1999/xlink"><style>.a{fill:rgb(40,44,52)}.b{font-family:Consolas,"Courier New",Courier,"Liberation Mono",monospace}.c{fill:rgb(128,128,128);white-space:pre}.d{fill:rgb(0,128,128);font-weight:bold;white-space:pre}.e{fill:rgb(171,178,191);font-weight:bold;white-space:pre}.f{fill:rgb(128,128,128);font-weight:bold;white-space:pre}.g{fill:rgb(0,128,0);font-weight:bold;white-space:pre}.h{fill:rgb(171,178,191);white-space:pre}.i{fill:rgb(0,128,0);white-space:pre}.j{fill:rgb(185,192,203)}.k{fill:rgb(40,44,52);white-space:pre}.l{fill:transparent}.m{fill:rgb(82,139,255)}.o{animation-duration:26.878s;animation-iteration-count:infinite;animation-name:n;animation-timing-function:steps(1,end)}.p{fill:rgb(40,44,52);font-weight:bold;white-space:pre}@keyframes n{0%{transform:translateX(-0px)}3.81%{transform:translateX(-80px)}3.84%{transform:translateX(-160px)}11.4%{transform:translateX(-240px)}18.26%{transform:translateX(-320px)}19.37%{transform:translateX(-400px)}20.69%{transform:translateX(-480px)}21.74%{transform:translateX(-560px)}23.82%{transform:translateX(-640px)}28.71%{transform:translateX(-720px)}30.68%{transform:translateX(-800px)}36.36%{transform:translateX(-880px)}41.32%{transform:translateX(-960px)}43.6%{transform:translateX(-1040px)}48.41%{transform:translateX(-1120px)}50.03%{transform:translateX(-1200px)}54.84%{transform:translateX(-1280px)}56.14%{transform:translateX(-1360px)}57.31%{transform:translateX(-1440px)}58.35%{transform:translateX(-1520px)}59.58%{transform:translateX(-1600px)}61.93%{transform:translateX(-1680px)}66.87%{transform:translateX(-1760px)}68%{transform:translateX(-1840px)}69.15%{transform:translateX(-1920px)}70.67%{transform:translateX(-2000px)}75.05%{transform:translateX(-2080px)}75.47%{transform:translateX(-2160px)}78.6%{transform:translateX(-2240px)}80.56%{transform:translateX(-2320px)}85.43%{transform:translateX(-2400px)}86.55%{transform:translateX(-2480px)}88.84%{transform:translateX(-2560px)}100%{transform:translateX(-2640px)}}</style><g font-family="Consolas, &quot;Courier New&quot;, Courier, &quot;Liberation Mono&quot;, monospace" font-size="1.67" class="b"><defs><symbol id="1"><text x="0" y="1.67" class="c">Package</text><text x="8.016" y="1.67" class="c">scaffolder</text></symbol><symbol id="2"><text x="0" y="1.67" class="d">❯</text><text x="2.004" y="1.67" class="e">General</text><text x="10.02" y="1.67" class="f">›</text></symbol><symbol id="3"><text x="4.008" y="1.67" class="f">Naming</text><text x="11.021999999999998" y="1.67" class="f">and</text><text x="15.029999999999998" y="1.67" class="f">identity.</text></symbol><symbol id="4"><text x="4.008" y="1.67" class="g">Tui</text><text x="8.016" y="1.67" class="g">·</text><text x="10.02" y="1.67" class="g">tui</text><text x="14.027999999999999" y="1.67" class="g">·</text><text x="16.032" y="1.67" class="g">acme</text><text x="21.041999999999998" y="1.67" class="g">·</text><text x="23.045999999999996" y="1.67" class="g">acme/tui</text></symbol><symbol id="5"><text x="2.004" y="1.67" class="h">Build</text><text x="8.016" y="1.67" class="h">&amp;</text><text x="10.02" y="1.67" class="h">features</text><text x="19.037999999999997" y="1.67" class="c">›</text></symbol><symbol id="6"><text x="4.008" y="1.67" class="c">What</text><text x="9.017999999999999" y="1.67" class="c">the</text><text x="13.026" y="1.67" class="c">package</text><text x="21.041999999999998" y="1.67" class="c">ships</text><text x="27.054" y="1.67" class="c">with.</text></symbol><symbol id="7"><text x="4.008" y="1.67" class="i">library</text><text x="12.024" y="1.67" class="i">·</text><text x="15.029999999999998" y="1.67" class="i">·</text><text x="17.034" y="1.67" class="i">8.4</text><text x="21.041999999999998" y="1.67" class="i">·</text><text x="23.045999999999996" y="1.67" class="i">no</text></symbol><symbol id="8"><text x="2.004" y="1.67" class="i">[</text><text x="4.008" y="1.67" class="i">Submit</text><text x="11.021999999999998" y="1.67" class="i">]</text><text x="14.027999999999999" y="1.67" class="i">[</text><text x="16.032" y="1.67" class="i">Cancel</text><text x="23.045999999999996" y="1.67" class="i">]</text></symbol><symbol id="9"><text x="0" y="1.67" class="c">↑/↓</text><text x="4.008" y="1.67" class="c">move</text><text x="9.017999999999999" y="1.67" class="c">·</text><text x="11.021999999999998" y="1.67" class="c">↵</text><text x="13.026" y="1.67" class="c">select</text><text x="20.04" y="1.67" class="c">·</text><text x="22.043999999999997" y="1.67" class="c">esc</text><text x="26.052" y="1.67" class="c">back</text></symbol><symbol id="10"><text x="0" y="1.67" class="c">Package</text><text x="8.016" y="1.67" class="c">scaffolder</text><text x="19.037999999999997" y="1.67" class="c">›</text><text x="21.041999999999998" y="1.67" class="c">General</text></symbol><symbol id="11"><text x="2.004" y="1.67" class="h">Machine</text><text x="10.02" y="1.67" class="h">name</text><text x="16.032" y="1.67" class="i">tui</text><rect height="1.837" width="9" x="67.134" y="0" class="j"></rect><text x="67.134" y="1.67" class="k"> derived </text></symbol><symbol id="12"><text x="4.008" y="1.67" class="c">Derived</text><text x="12.024" y="1.67" class="c">from</text><text x="17.034" y="1.67" class="c">the</text><text x="21.041999999999998" y="1.67" class="c">package</text><text x="29.058" y="1.67" class="c">name.</text></symbol><symbol id="13"><text x="2.004" y="1.67" class="h">Vendor</text><text x="10.02" y="1.67" class="i">acme</text></symbol><symbol id="14"><text x="2.004" y="1.67" class="h">Composer</text><text x="11.021999999999998" y="1.67" class="h">package</text><text x="20.04" y="1.67" class="i">acme/tui</text><rect height="1.837" width="9" x="67.134" y="0" class="j"></rect><text x="67.134" y="1.67" class="k"> derived </text></symbol><symbol id="15"><text x="4.008" y="1.67" class="c">Derived</text><text x="12.024" y="1.67" class="c">from</text><text x="17.034" y="1.67" class="c">vendor</text><text x="24.048" y="1.67" class="c">and</text><text x="28.055999999999997" y="1.67" class="c">machine</text><text x="36.071999999999996" y="1.67" class="c">name.</text></symbol><symbol id="16"><text x="2.004" y="1.67" class="h">PHP</text><text x="6.012" y="1.67" class="h">namespace</text><text x="17.034" y="1.67" class="i">Tui</text><rect height="1.837" width="9" x="67.134" y="0" class="j"></rect><text x="67.134" y="1.67" class="k"> derived </text></symbol><symbol id="17"><text x="2.004" y="1.67" class="h">Package</text><text x="10.02" y="1.67" class="h">name</text><text x="16.032" y="1.67" class="i">Tui</text></symbol><symbol id="18"><text x="4.008" y="1.67" class="c">A</text><text x="6.012" y="1.67" class="c">human-readable</text><text x="21.041999999999998" y="1.67" class="c">name,</text><text x="27.054" y="1.67" class="c">e.g.</text><text x="32.064" y="1.67" class="c">&quot;My</text><text x="36.071999999999996" y="1.67" class="c">Widget&quot;.</text></symbol><symbol id="19"><text x="2.004" y="1.67" class="h">General</text><text x="10.02" y="1.67" class="c">›</text></symbol><symbol id="20"><text x="4.008" y="1.67" class="c">Naming</text><text x="11.021999999999998" y="1.67" class="c">and</text><text x="15.029999999999998" y="1.67" class="c">identity.</text></symbol><symbol id="21"><text x="4.008" y="1.67" class="i">Tui</text><text x="8.016" y="1.67" class="i">·</text><text x="10.02" y="1.67" class="i">tui</text><text x="14.027999999999999" y="1.67" class="i">·</text><text x="16.032" y="1.67" class="i">acme</text><text x="21.041999999999998" y="1.67" class="i">·</text><text x="23.045999999999996" y="1.67" class="i">acme/tui</text></symbol><symbol id="22"><text x="0" y="1.67" class="d">❯</text><text x="2.004" y="1.67" class="e">Build</text><text x="8.016" y="1.67" class="e">&amp;</text><text x="10.02" y="1.67" class="e">features</text><text x="19.037999999999997" y="1.67" class="f">›</text></symbol><symbol id="23"><text x="4.008" y="1.67" class="f">What</text><text x="9.017999999999999" y="1.67" class="f">the</text><text x="13.026" y="1.67" class="f">package</text><text x="21.041999999999998" y="1.67" class="f">ships</text><text x="27.054" y="1.67" class="f">with.</text></symbol><symbol id="24"><text x="0" y="1.67" class="c">Package</text><text x="8.016" y="1.67" class="c">scaffolder</text><text x="19.037999999999997" y="1.67" class="c">›</text><text x="21.041999999999998" y="1.67" class="c">Build</text><text x="27.054" y="1.67" class="c">&amp;</text><text x="29.058" y="1.67" class="c">features</text></symbol><symbol id="25"><text x="2.004" y="1.67" class="h">Features</text></symbol><symbol id="26"><text x="4.008" y="1.67" class="c">Space</text><text x="10.02" y="1.67" class="c">to</text><text x="13.026" y="1.67" class="c">toggle,</text><text x="21.041999999999998" y="1.67" class="c">type</text><text x="26.052" y="1.67" class="c">to</text><text x="29.058" y="1.67" class="c">filter.</text></symbol><symbol id="27"><text x="2.004" y="1.67" class="h">Docker</text><text x="9.017999999999999" y="1.67" class="h">base</text><text x="14.027999999999999" y="1.67" class="h">image</text></symbol><symbol id="28"><text x="2.004" y="1.67" class="h">Generate</text><text x="11.021999999999998" y="1.67" class="h">a</text><text x="13.026" y="1.67" class="h">docker-compose.yml?</text></symbol><symbol id="29"><text x="2.004" y="1.67" class="h">PHP</text><text x="6.012" y="1.67" class="h">version</text><text x="15.029999999999998" y="1.67" class="i">8.4</text></symbol><symbol id="30"><text x="2.004" y="1.67" class="h">Private</text><text x="10.02" y="1.67" class="h">package?</text><text x="20.04" y="1.67" class="i">no</text></symbol><symbol id="31"><text x="0" y="1.67" class="d">Package</text><text x="8.016" y="1.67" class="d">type</text></symbol><symbol id="32"><text x="0" y="1.67" class="c">────────────</text></symbol><symbol id="33"><text x="0" y="1.67" class="h">○</text><text x="2.004" y="1.67" class="h">CLI</text><text x="6.012" y="1.67" class="h">tool</text></symbol><symbol id="34"><text x="0" y="1.67" class="c">↵</text><text x="2.004" y="1.67" class="c">accept</text><text x="9.017999999999999" y="1.67" class="c">·</text><text x="11.021999999999998" y="1.67" class="c">esc</text><text x="15.029999999999998" y="1.67" class="c">cancel</text></symbol><symbol id="35"><text x="2.004" y="1.67" class="h">Package</text><text x="10.02" y="1.67" class="h">type</text><text x="16.032" y="1.67" class="i">application</text><rect height="1.837" width="8" x="68.136" y="0" class="j"></rect><text x="68.136" y="1.67" class="k"> edited </text></symbol><symbol id="36"><text x="4.008" y="1.67" class="f">Space</text><text x="10.02" y="1.67" class="f">to</text><text x="13.026" y="1.67" class="f">toggle,</text><text x="21.041999999999998" y="1.67" class="f">type</text><text x="26.052" y="1.67" class="f">to</text><text x="29.058" y="1.67" class="f">filter.</text></symbol><symbol id="37"><text x="0" y="1.67" class="d">Features</text></symbol><symbol id="38"><text x="0" y="1.67" class="c">────────</text></symbol><symbol id="39"><text x="2.004" y="1.67" class="h">◻</text><text x="4.008" y="1.67" class="h">CI</text></symbol><symbol id="40"><text x="2.004" y="1.67" class="h">◻</text><text x="4.008" y="1.67" class="h">Docker</text></symbol><symbol id="41"><text x="2.004" y="1.67" class="h">◻</text><text x="4.008" y="1.67" class="h">Docs</text></symbol><symbol id="42"><text x="2.004" y="1.67" class="i">◼</text><text x="4.008" y="1.67" class="h">Tests</text></symbol><symbol id="43"><text x="2.004" y="1.67" class="i">◼</text><text x="4.008" y="1.67" class="h">CI</text></symbol><symbol id="44"><text x="2.004" y="1.67" class="h">Features</text><text x="12.024" y="1.67" class="i">tests,</text><text x="19.037999999999997" y="1.67" class="i">ci,</text><text x="23.045999999999996" y="1.67" class="i">docker</text><rect height="1.837" width="8" x="68.136" y="0" class="j"></rect><text x="68.136" y="1.67" class="k"> edited </text></symbol><symbol id="45"><text x="0" y="1.67" class="d">PHP</text><text x="4.008" y="1.67" class="d">version</text></symbol><symbol id="46"><text x="0" y="1.67" class="c">───────────</text></symbol><symbol id="47"><text x="2.004" y="1.67" class="h">8.4</text></symbol><symbol id="48"><text x="2.004" y="1.67" class="h">8.3</text></symbol><symbol id="49"><text x="4.008" y="1.67" class="i">application</text><text x="16.032" y="1.67" class="i">·</text><text x="18.035999999999998" y="1.67" class="i">tests,</text><text x="25.05" y="1.67" class="i">ci,</text><text x="29.058" y="1.67" class="i">docker</text><text x="36.071999999999996" y="1.67" class="i">·</text><text x="38.07599999999999" y="1.67" class="i">8.3</text><text x="42.083999999999996" y="1.67" class="i">·</text><text x="44.087999999999994" y="1.67" class="i">no</text></symbol><symbol id="50"><text x="0" y="1.67" class="h">{&quot;name&quot;:&quot;Tui&quot;,&quot;machine_name&quot;:&quot;tui&quot;,&quot;vendor&quot;:&quot;acme&quot;,&quot;package&quot;:&quot;acme\/tui&quot;,&quot;namesp</text></symbol><symbol id="51"><text x="0" y="1.67" class="h">ace&quot;:&quot;Tui&quot;,&quot;type&quot;:&quot;application&quot;,&quot;features&quot;:[&quot;tests&quot;,&quot;ci&quot;,&quot;docker&quot;],&quot;php_version&quot;</text></symbol><symbol id="52"><text x="0" y="1.67" class="h">:&quot;8.3&quot;,&quot;private&quot;:false}</text></symbol><symbol id="a"><rect height="24" width="80" x="0" y="0" class="l"></rect></symbol><symbol id="b"><rect height="1.837" width="1.1022" class="m"></rect></symbol></defs><rect height="44.088" width="80" class="a"></rect><g class="o"><svg x="0" y="0" width="2720"><svg x="0"><use xlink:href="#a"></use><use xlink:href="#b" x="-0.0040000000000000036" y="0"></use></svg><svg x="80"><use xlink:href="#a"></use></svg><svg x="160"><use xlink:href="#a"></use><use xlink:href="#1" y="0"></use><use xlink:href="#2" y="1.837"></use><use xlink:href="#3" y="3.674"></use><use xlink:href="#4" y="5.511"></use><use xlink:href="#5" y="7.348"></use><use xlink:href="#6" y="9.185"></use><use xlink:href="#7" y="11.022"></use><use xlink:href="#8" y="12.859"></use><use xlink:href="#9" y="14.696"></use></svg><svg x="240"><use xlink:href="#a"></use><use xlink:href="#10" y="0"></use><text x="0" y="3.5069999999999997" class="d">❯</text><text x="2.004" y="3.5069999999999997" class="e">Package</text><text x="10.02" y="3.5069999999999997" class="e">name</text><text x="16.032" y="3.5069999999999997" class="g">Tui</text><text x="4.008" y="5.343999999999999" class="f">A</text><text x="6.012" y="5.343999999999999" class="f">human-readable</text><text x="21.041999999999998" y="5.343999999999999" class="f">name,</text><text x="27.054" y="5.343999999999999" class="f">e.g.</text><text x="32.064" y="5.343999999999999" class="f">&quot;My</text><text x="36.071999999999996" y="5.343999999999999" class="f">Widget&quot;.</text><use xlink:href="#11" y="5.511"></use><use xlink:href="#12" y="7.348"></use><use xlink:href="#13" y="9.185"></use><use xlink:href="#14" y="11.022"></use><use xlink:href="#15" y="12.859"></use><use xlink:href="#16" y="14.696"></use><use xlink:href="#9" y="16.533"></use></svg><svg x="320"><use xlink:href="#a"></use><use xlink:href="#10" y="0"></use><use xlink:href="#17" y="1.837"></use><use xlink:href="#18" y="3.674"></use><text x="0" y="7.181" class="d">❯</text><text x="2.004" y="7.181" class="e">Machine</text><text x="10.02" y="7.181" class="e">name</text><text x="16.032" y="7.181" class="g">tui</text><rect height="1.837" width="9" x="67.134" y="5.511" class="j"></rect><text x="67.134" y="7.181" class="p"> derived </text><text x="4.008" y="9.018" class="f">Derived</text><text x="12.024" y="9.018" class="f">from</text><text x="17.034" y="9.018" class="f">the</text><text x="21.041999999999998" y="9.018" class="f">package</text><text x="29.058" y="9.018" class="f">name.</text><use xlink:href="#13" y="9.185"></use><use xlink:href="#14" y="11.022"></use><use xlink:href="#15" y="12.859"></use><use xlink:href="#16" y="14.696"></use><use xlink:href="#9" y="16.533"></use></svg><svg x="400"><use xlink:href="#a"></use><use xlink:href="#10" y="0"></use><use xlink:href="#17" y="1.837"></use><use xlink:href="#18" y="3.674"></use><use xlink:href="#11" y="5.511"></use><use xlink:href="#12" y="7.348"></use><text x="0" y="10.855" class="d">❯</text><text x="2.004" y="10.855" class="e">Vendor</text><text x="10.02" y="10.855" class="g">acme</text><use xlink:href="#14" y="11.022"></use><use xlink:href="#15" y="12.859"></use><use xlink:href="#16" y="14.696"></use><use xlink:href="#9" y="16.533"></use></svg><svg x="480"><use xlink:href="#a"></use><use xlink:href="#10" y="0"></use><use xlink:href="#17" y="1.837"></use><use xlink:href="#18" y="3.674"></use><use xlink:href="#11" y="5.511"></use><use xlink:href="#12" y="7.348"></use><use xlink:href="#13" y="9.185"></use><text x="0" y="12.692" class="d">❯</text><text x="2.004" y="12.692" class="e">Composer</text><text x="11.021999999999998" y="12.692" class="e">package</text><text x="20.04" y="12.692" class="g">acme/tui</text><rect height="1.837" width="9" x="67.134" y="11.022" class="j"></rect><text x="67.134" y="12.692" class="p"> derived </text><text x="4.008" y="14.529" class="f">Derived</text><text x="12.024" y="14.529" class="f">from</text><text x="17.034" y="14.529" class="f">vendor</text><text x="24.048" y="14.529" class="f">and</text><text x="28.055999999999997" y="14.529" class="f">machine</text><text x="36.071999999999996" y="14.529" class="f">name.</text><use xlink:href="#16" y="14.696"></use><use xlink:href="#9" y="16.533"></use></svg><svg x="560"><use xlink:href="#a"></use><use xlink:href="#10" y="0"></use><use xlink:href="#17" y="1.837"></use><use xlink:href="#18" y="3.674"></use><use xlink:href="#11" y="5.511"></use><use xlink:href="#12" y="7.348"></use><use xlink:href="#13" y="9.185"></use><use xlink:href="#14" y="11.022"></use><use xlink:href="#15" y="12.859"></use><text x="0" y="16.366" class="d">❯</text><text x="2.004" y="16.366" class="e">PHP</text><text x="6.012" y="16.366" class="e">namespace</text><text x="17.034" y="16.366" class="g">Tui</text><rect height="1.837" width="9" x="67.134" y="14.696" class="j"></rect><text x="67.134" y="16.366" class="p"> derived </text><use xlink:href="#9" y="16.533"></use></svg><svg x="640"><use xlink:href="#a"></use><use xlink:href="#1" y="0"></use><use xlink:href="#2" y="1.837"></use><use xlink:href="#3" y="3.674"></use><use xlink:href="#4" y="5.511"></use><use xlink:href="#5" y="7.348"></use><use xlink:href="#6" y="9.185"></use><use xlink:href="#7" y="11.022"></use><use xlink:href="#8" y="12.859"></use><use xlink:href="#9" y="14.696"></use></svg><svg x="720"><use xlink:href="#a"></use><use xlink:href="#1" y="0"></use><use xlink:href="#19" y="1.837"></use><use xlink:href="#20" y="3.674"></use><use xlink:href="#21" y="5.511"></use><use xlink:href="#22" y="7.348"></use><use xlink:href="#23" y="9.185"></use><text x="4.008" y="12.692" class="g">library</text><text x="12.024" y="12.692" class="g">·</text><text x="15.029999999999998" y="12.692" class="g">·</text><text x="17.034" y="12.692" class="g">8.4</text><text x="21.041999999999998" y="12.692" class="g">·</text><text x="23.045999999999996" y="12.692" class="g">no</text><use xlink:href="#8" y="12.859"></use><use xlink:href="#9" y="14.696"></use></svg><svg x="800"><use xlink:href="#a"></use><use xlink:href="#24" y="0"></use><text x="0" y="3.5069999999999997" class="d">❯</text><text x="2.004" y="3.5069999999999997" class="e">Package</text><text x="10.02" y="3.5069999999999997" class="e">type</text><text x="16.032" y="3.5069999999999997" class="g">library</text><use xlink:href="#25" y="3.674"></use><use xlink:href="#26" y="5.511"></use><use xlink:href="#27" y="7.348"></use><use xlink:href="#28" y="9.185"></use><use xlink:href="#29" y="11.022"></use><use xlink:href="#30" y="12.859"></use><use xlink:href="#9" y="14.696"></use></svg><svg x="880"><use xlink:href="#a"></use><use xlink:href="#31" y="0"></use><use xlink:href="#32" y="1.837"></use><text x="0" y="5.343999999999999" class="d">●</text><text x="2.004" y="5.343999999999999" class="d">Library</text><text x="0" y="7.181" class="h">○</text><text x="2.004" y="7.181" class="h">Application</text><use xlink:href="#33" y="7.348"></use><use xlink:href="#34" y="11.022"></use></svg><svg x="960"><use xlink:href="#a"></use><use xlink:href="#31" y="0"></use><use xlink:href="#32" y="1.837"></use><text x="0" y="5.343999999999999" class="h">○</text><text x="2.004" y="5.343999999999999" class="h">Library</text><text x="0" y="7.181" class="d">●</text><text x="2.004" y="7.181" class="d">Application</text><use xlink:href="#33" y="7.348"></use><use xlink:href="#34" y="11.022"></use></svg><svg x="1040"><use xlink:href="#a"></use><use xlink:href="#24" y="0"></use><text x="0" y="3.5069999999999997" class="d">❯</text><text x="2.004" y="3.5069999999999997" class="e">Package</text><text x="10.02" y="3.5069999999999997" class="e">type</text><text x="16.032" y="3.5069999999999997" class="g">application</text><rect height="1.837" width="8" x="68.136" y="1.8369999999999997" class="j"></rect><text x="68.136" y="3.5069999999999997" class="p"> edited </text><use xlink:href="#25" y="3.674"></use><use xlink:href="#26" y="5.511"></use><use xlink:href="#27" y="7.348"></use><use xlink:href="#28" y="9.185"></use><use xlink:href="#29" y="11.022"></use><use xlink:href="#30" y="12.859"></use><use xlink:href="#9" y="14.696"></use></svg><svg x="1120"><use xlink:href="#a"></use><use xlink:href="#24" y="0"></use><use xlink:href="#35" y="1.837"></use><text x="0" y="5.343999999999999" class="d">❯</text><text x="2.004" y="5.343999999999999" class="e">Features</text><use xlink:href="#36" y="5.511"></use><use xlink:href="#27" y="7.348"></use><use xlink:href="#28" y="9.185"></use><use xlink:href="#29" y="11.022"></use><use xlink:href="#30" y="12.859"></use><use xlink:href="#9" y="14.696"></use></svg><svg x="1200"><use xlink:href="#a"></use><use xlink:href="#37" y="0"></use><use xlink:href="#38" y="1.837"></use><text x="0" y="5.343999999999999" class="d">❯</text><text x="2.004" y="5.343999999999999" class="h">◻</text><text x="4.008" y="5.343999999999999" class="d">Tests</text><use xlink:href="#39" y="5.511"></use><use xlink:href="#40" y="7.348"></use><use xlink:href="#41" y="9.185"></use><use xlink:href="#34" y="12.859"></use></svg><svg x="1280"><use xlink:href="#a"></use><use xlink:href="#37" y="0"></use><use xlink:href="#38" y="1.837"></use><text x="0" y="5.343999999999999" class="d">❯</text><text x="2.004" y="5.343999999999999" class="i">◼</text><text x="4.008" y="5.343999999999999" class="d">Tests</text><use xlink:href="#39" y="5.511"></use><use xlink:href="#40" y="7.348"></use><use xlink:href="#41" y="9.185"></use><use xlink:href="#34" y="12.859"></use></svg><svg x="1360"><use xlink:href="#a"></use><use xlink:href="#37" y="0"></use><use xlink:href="#38" y="1.837"></use><use xlink:href="#42" y="3.674"></use><text x="0" y="7.181" class="d">❯</text><text x="2.004" y="7.181" class="h">◻</text><text x="4.008" y="7.181" class="d">CI</text><use xlink:href="#40" y="7.348"></use><use xlink:href="#41" y="9.185"></use><use xlink:href="#34" y="12.859"></use></svg><svg x="1440"><use xlink:href="#a"></use><use xlink:href="#37" y="0"></use><use xlink:href="#38" y="1.837"></use><use xlink:href="#42" y="3.674"></use><text x="0" y="7.181" class="d">❯</text><text x="2.004" y="7.181" class="i">◼</text><text x="4.008" y="7.181" class="d">CI</text><use xlink:href="#40" y="7.348"></use><use xlink:href="#41" y="9.185"></use><use xlink:href="#34" y="12.859"></use></svg><svg x="1520"><use xlink:href="#a"></use><use xlink:href="#37" y="0"></use><use xlink:href="#38" y="1.837"></use><use xlink:href="#42" y="3.674"></use><use xlink:href="#43" y="5.511"></use><text x="0" y="9.018" class="d">❯</text><text x="2.004" y="9.018" class="h">◻</text><text x="4.008" y="9.018" class="d">Docker</text><use xlink:href="#41" y="9.185"></use><use xlink:href="#34" y="12.859"></use></svg><svg x="1600"><use xlink:href="#a"></use><use xlink:href="#37" y="0"></use><use xlink:href="#38" y="1.837"></use><use xlink:href="#42" y="3.674"></use><use xlink:href="#43" y="5.511"></use><text x="0" y="9.018" class="d">❯</text><text x="2.004" y="9.018" class="i">◼</text><text x="4.008" y="9.018" class="d">Docker</text><use xlink:href="#41" y="9.185"></use><use xlink:href="#34" y="12.859"></use></svg><svg x="1680"><use xlink:href="#a"></use><use xlink:href="#24" y="0"></use><use xlink:href="#35" y="1.837"></use><text x="0" y="5.343999999999999" class="d">❯</text><text x="2.004" y="5.343999999999999" class="e">Features</text><text x="12.024" y="5.343999999999999" class="g">tests,</text><text x="19.037999999999997" y="5.343999999999999" class="g">ci,</text><text x="23.045999999999996" y="5.343999999999999" class="g">docker</text><rect height="1.837" width="8" x="68.136" y="3.6739999999999995" class="j"></rect><text x="68.136" y="5.343999999999999" class="p"> edited </text><use xlink:href="#36" y="5.511"></use><use xlink:href="#27" y="7.348"></use><use xlink:href="#28" y="9.185"></use><use xlink:href="#29" y="11.022"></use><use xlink:href="#30" y="12.859"></use><use xlink:href="#9" y="14.696"></use></svg><svg x="1760"><use xlink:href="#a"></use><use xlink:href="#24" y="0"></use><use xlink:href="#35" y="1.837"></use><use xlink:href="#44" y="3.674"></use><use xlink:href="#26" y="5.511"></use><text x="0" y="9.018" class="d">❯</text><text x="2.004" y="9.018" class="e">Docker</text><text x="9.017999999999999" y="9.018" class="e">base</text><text x="14.027999999999999" y="9.018" class="e">image</text><use xlink:href="#28" y="9.185"></use><use xlink:href="#29" y="11.022"></use><use xlink:href="#30" y="12.859"></use><use xlink:href="#9" y="14.696"></use></svg><svg x="1840"><use xlink:href="#a"></use><use xlink:href="#24" y="0"></use><use xlink:href="#35" y="1.837"></use><use xlink:href="#44" y="3.674"></use><use xlink:href="#26" y="5.511"></use><use xlink:href="#27" y="7.348"></use><text x="0" y="10.855" class="d">❯</text><text x="2.004" y="10.855" class="e">Generate</text><text x="11.021999999999998" y="10.855" class="e">a</text><text x="13.026" y="10.855" class="e">docker-compose.yml?</text><use xlink:href="#29" y="11.022"></use><use xlink:href="#30" y="12.859"></use><use xlink:href="#9" y="14.696"></use></svg><svg x="1920"><use xlink:href="#a"></use><use xlink:href="#24" y="0"></use><use xlink:href="#35" y="1.837"></use><use xlink:href="#44" y="3.674"></use><use xlink:href="#26" y="5.511"></use><use xlink:href="#27" y="7.348"></use><use xlink:href="#28" y="9.185"></use><text x="0" y="12.692" class="d">❯</text><text x="2.004" y="12.692" class="e">PHP</text><text x="6.012" y="12.692" class="e">version</text><text x="15.029999999999998" y="12.692" class="g">8.4</text><use xlink:href="#30" y="12.859"></use><use xlink:href="#9" y="14.696"></use></svg><svg x="2000"><use xlink:href="#a"></use><use xlink:href="#45" y="0"></use><use xlink:href="#46" y="1.837"></use><text x="0" y="5.343999999999999" class="h">8.4</text><text x="3.006" y="5.343999999999999" class="d">█</text><use xlink:href="#47" y="5.511"></use><use xlink:href="#34" y="9.185"></use></svg><svg x="2080"><use xlink:href="#a"></use><use xlink:href="#45" y="0"></use><use xlink:href="#46" y="1.837"></use><text x="0" y="5.343999999999999" class="h">8.</text><text x="2.004" y="5.343999999999999" class="d">█</text><text x="2.004" y="7.181" class="h">8.1</text><text x="2.004" y="9.018" class="h">8.2</text><use xlink:href="#48" y="9.185"></use><use xlink:href="#47" y="11.022"></use><use xlink:href="#34" y="14.696"></use></svg><svg x="2160"><use xlink:href="#a"></use><use xlink:href="#45" y="0"></use><use xlink:href="#46" y="1.837"></use><text x="0" y="5.343999999999999" class="h">8.3</text><text x="3.006" y="5.343999999999999" class="d">█</text><use xlink:href="#48" y="5.511"></use><use xlink:href="#34" y="9.185"></use></svg><svg x="2240"><use xlink:href="#a"></use><use xlink:href="#24" y="0"></use><use xlink:href="#35" y="1.837"></use><use xlink:href="#44" y="3.674"></use><use xlink:href="#26" y="5.511"></use><use xlink:href="#27" y="7.348"></use><use xlink:href="#28" y="9.185"></use><text x="0" y="12.692" class="d">❯</text><text x="2.004" y="12.692" class="e">PHP</text><text x="6.012" y="12.692" class="e">version</text><text x="15.029999999999998" y="12.692" class="g">8.3</text><rect height="1.837" width="8" x="68.136" y="11.022" class="j"></rect><text x="68.136" y="12.692" class="p"> edited </text><use xlink:href="#30" y="12.859"></use><use xlink:href="#9" y="14.696"></use></svg><svg x="2320"><use xlink:href="#a"></use><use xlink:href="#1" y="0"></use><use xlink:href="#2" y="1.837"></use><use xlink:href="#3" y="3.674"></use><use xlink:href="#4" y="5.511"></use><use xlink:href="#5" y="7.348"></use><use xlink:href="#6" y="9.185"></use><use xlink:href="#49" y="11.022"></use><use xlink:href="#8" y="12.859"></use><use xlink:href="#9" y="14.696"></use></svg><svg x="2400"><use xlink:href="#a"></use><use xlink:href="#1" y="0"></use><use xlink:href="#19" y="1.837"></use><use xlink:href="#20" y="3.674"></use><use xlink:href="#21" y="5.511"></use><use xlink:href="#22" y="7.348"></use><use xlink:href="#23" y="9.185"></use><text x="4.008" y="12.692" class="g">application</text><text x="16.032" y="12.692" class="g">·</text><text x="18.035999999999998" y="12.692" class="g">tests,</text><text x="25.05" y="12.692" class="g">ci,</text><text x="29.058" y="12.692" class="g">docker</text><text x="36.071999999999996" y="12.692" class="g">·</text><text x="38.07599999999999" y="12.692" class="g">8.3</text><text x="42.083999999999996" y="12.692" class="g">·</text><text x="44.087999999999994" y="12.692" class="g">no</text><use xlink:href="#8" y="12.859"></use><use xlink:href="#9" y="14.696"></use></svg><svg x="2480"><use xlink:href="#a"></use><use xlink:href="#1" y="0"></use><use xlink:href="#19" y="1.837"></use><use xlink:href="#20" y="3.674"></use><use xlink:href="#21" y="5.511"></use><use xlink:href="#5" y="7.348"></use><use xlink:href="#6" y="9.185"></use><use xlink:href="#49" y="11.022"></use><rect height="1.837" width="10" x="2.004" y="12.859" class="j"></rect><text x="2.004" y="14.529" class="p">[ Submit ]</text><text x="14.027999999999999" y="14.529" class="i">[</text><text x="16.032" y="14.529" class="i">Cancel</text><text x="23.045999999999996" y="14.529" class="i">]</text><use xlink:href="#9" y="14.696"></use></svg><svg x="2560"><use xlink:href="#a"></use><use xlink:href="#b" x="-0.0040000000000000036" y="5.336"></use><use xlink:href="#50" y="0"></use><use xlink:href="#51" y="1.837"></use><use xlink:href="#52" y="3.674"></use></svg><svg x="2640"><use xlink:href="#a"></use><use xlink:href="#b" x="0.996" y="5.336"></use><use xlink:href="#50" y="0"></use><use xlink:href="#51" y="1.837"></use><use xlink:href="#52" y="3.674"></use></svg></svg></g></g></svg></svg>