<svg xmlns="http://www.w3.org/2000/svg" xmlns:xlink="http://www.w3.org/1999/xlink" width="800" height="440.88"><rect width="800" height="440.88" rx="0" ry="0" class="a"></rect><svg height="440.88" viewBox="0 0 80 44.088" width="800" xmlns="http://www.w3.org/2000/svg" xmlns:xlink="http://www.w3.org/1999/xlink"><style>.a{fill:rgb(40,44,52)}.b{font-family:Consolas,"Courier New",Courier,"Liberation Mono",monospace}.c{fill:rgb(171,178,191);white-space:pre}.d{fill:rgb(0,128,128);font-weight:bold;white-space:pre}.e{fill:rgb(171,178,191);font-weight:bold;white-space:pre}.f{fill:rgb(0,128,0);font-weight:bold;white-space:pre}.g{fill:rgb(0,128,0);white-space:pre}.h{fill:rgb(185,192,203)}.i{fill:rgb(40,44,52);white-space:pre}.j{fill:transparent}.k{fill:rgb(82,139,255)}.m{animation-duration:26.759s;animation-iteration-count:infinite;animation-name:l;animation-timing-function:steps(1,end)}.n{fill:rgb(40,44,52);font-weight:bold;white-space:pre}@keyframes l{0%{transform:translateX(-0px)}3.28%{transform:translateX(-80px)}3.29%{transform:translateX(-160px)}10.93%{transform:translateX(-240px)}17.75%{transform:translateX(-320px)}18.82%{transform:translateX(-400px)}19.99%{transform:translateX(-480px)}21.3%{transform:translateX(-560px)}23.21%{transform:translateX(-640px)}28.26%{transform:translateX(-720px)}30.2%{transform:translateX(-800px)}35.86%{transform:translateX(-880px)}40.83%{transform:translateX(-960px)}43.13%{transform:translateX(-1040px)}48.17%{transform:translateX(-1120px)}49.74%{transform:translateX(-1200px)}54.67%{transform:translateX(-1280px)}55.82%{transform:translateX(-1360px)}56.85%{transform:translateX(-1440px)}58.03%{transform:translateX(-1520px)}59.19%{transform:translateX(-1600px)}61.63%{transform:translateX(-1680px)}66.55%{transform:translateX(-1760px)}67.69%{transform:translateX(-1840px)}68.87%{transform:translateX(-1920px)}70.38%{transform:translateX(-2000px)}74.69%{transform:translateX(-2080px)}75.33%{transform:translateX(-2160px)}78.35%{transform:translateX(-2240px)}80.29%{transform:translateX(-2320px)}85.27%{transform:translateX(-2400px)}86.47%{transform:translateX(-2480px)}88.68%{transform:translateX(-2560px)}88.79%{transform:translateX(-2640px)}100%{transform:translateX(-2720px)}}</style><g font-family="Consolas, &quot;Courier New&quot;, Courier, &quot;Liberation Mono&quot;, monospace" font-size="1.67" class="b"><defs><symbol id="1"><text x="0" y="1.67" class="c">Package</text><text x="8.016" y="1.67" class="c">scaffolder</text></symbol><symbol id="2"><text x="0" y="1.67" class="d">&gt;</text><text x="2.004" y="1.67" class="e">General</text><text x="10.02" y="1.67" class="e">&gt;</text></symbol><symbol id="3"><text x="4.008" y="1.67" class="e">Naming</text><text x="11.021999999999998" y="1.67" class="e">and</text><text x="15.029999999999998" y="1.67" class="e">identity.</text></symbol><symbol id="4"><text x="4.008" y="1.67" class="f">Tui</text><text x="8.016" y="1.67" class="f">*</text><text x="10.02" y="1.67" class="f">tui</text><text x="14.027999999999999" y="1.67" class="f">*</text><text x="16.032" y="1.67" class="f">acme</text><text x="21.041999999999998" y="1.67" class="f">*</text><text x="23.045999999999996" y="1.67" class="f">acme/tui</text></symbol><symbol id="5"><text x="2.004" y="1.67" class="c">Build</text><text x="8.016" y="1.67" class="c">&amp;</text><text x="10.02" y="1.67" class="c">features</text><text x="19.037999999999997" y="1.67" class="c">&gt;</text></symbol><symbol id="6"><text x="4.008" y="1.67" class="c">What</text><text x="9.017999999999999" y="1.67" class="c">the</text><text x="13.026" y="1.67" class="c">package</text><text x="21.041999999999998" y="1.67" class="c">ships</text><text x="27.054" y="1.67" class="c">with.</text></symbol><symbol id="7"><text x="4.008" y="1.67" class="g">library</text><text x="12.024" y="1.67" class="g">*</text><text x="15.029999999999998" y="1.67" class="g">*</text><text x="17.034" y="1.67" class="g">8.4</text><text x="21.041999999999998" y="1.67" class="g">*</text><text x="23.045999999999996" y="1.67" class="g">no</text></symbol><symbol id="8"><text x="2.004" y="1.67" class="g">[</text><text x="4.008" y="1.67" class="g">Submit</text><text x="11.021999999999998" y="1.67" class="g">]</text><text x="14.027999999999999" y="1.67" class="g">[</text><text x="16.032" y="1.67" class="g">Cancel</text><text x="23.045999999999996" y="1.67" class="g">]</text></symbol><symbol id="9"><text x="0" y="1.67" class="c">^/v</text><text x="4.008" y="1.67" class="c">move</text><text x="9.017999999999999" y="1.67" class="c">*</text><text x="11.021999999999998" y="1.67" class="c">&lt;</text><text x="13.026" y="1.67" class="c">select</text><text x="20.04" y="1.67" class="c">*</text><text x="22.043999999999997" y="1.67" class="c">esc</text><text x="26.052" y="1.67" class="c">back</text></symbol><symbol id="10"><text x="0" y="1.67" class="c">Package</text><text x="8.016" y="1.67" class="c">scaffolder</text><text x="19.037999999999997" y="1.67" class="c">&gt;</text><text x="21.041999999999998" y="1.67" class="c">General</text></symbol><symbol id="11"><text x="2.004" y="1.67" class="c">Machine</text><text x="10.02" y="1.67" class="c">name</text><text x="16.032" y="1.67" class="g">tui</text><rect height="1.837" width="9" x="67.134" y="0" class="h"></rect><text x="67.134" y="1.67" class="i"> derived </text></symbol><symbol id="12"><text x="4.008" y="1.67" class="c">Derived</text><text x="12.024" y="1.67" class="c">from</text><text x="17.034" y="1.67" class="c">the</text><text x="21.041999999999998" y="1.67" class="c">package</text><text x="29.058" y="1.67" class="c">name.</text></symbol><symbol id="13"><text x="2.004" y="1.67" class="c">Vendor</text><text x="10.02" y="1.67" class="g">acme</text></symbol><symbol id="14"><text x="2.004" y="1.67" class="c">Composer</text><text x="11.021999999999998" y="1.67" class="c">package</text><text x="20.04" y="1.67" class="g">acme/tui</text><rect height="1.837" width="9" x="67.134" y="0" class="h"></rect><text x="67.134" y="1.67" class="i"> derived </text></symbol><symbol id="15"><text x="4.008" y="1.67" class="c">Derived</text><text x="12.024" y="1.67" class="c">from</text><text x="17.034" y="1.67" class="c">vendor</text><text x="24.048" y="1.67" class="c">and</text><text x="28.055999999999997" y="1.67" class="c">machine</text><text x="36.071999999999996" y="1.67" class="c">name.</text></symbol><symbol id="16"><text x="2.004" y="1.67" class="c">PHP</text><text x="6.012" y="1.67" class="c">namespace</text><text x="17.034" y="1.67" class="g">Tui</text><rect height="1.837" width="9" x="67.134" y="0" class="h"></rect><text x="67.134" y="1.67" class="i"> derived </text></symbol><symbol id="17"><text x="2.004" y="1.67" class="c">Package</text><text x="10.02" y="1.67" class="c">name</text><text x="16.032" y="1.67" class="g">Tui</text></symbol><symbol id="18"><text x="4.008" y="1.67" class="c">A</text><text x="6.012" y="1.67" class="c">human-readable</text><text x="21.041999999999998" y="1.67" class="c">name,</text><text x="27.054" y="1.67" class="c">e.g.</text><text x="32.064" y="1.67" class="c">&quot;My</text><text x="36.071999999999996" y="1.67" class="c">Widget&quot;.</text></symbol><symbol id="19"><text x="2.004" y="1.67" class="c">General</text><text x="10.02" y="1.67" class="c">&gt;</text></symbol><symbol id="20"><text x="4.008" y="1.67" class="c">Naming</text><text x="11.021999999999998" y="1.67" class="c">and</text><text x="15.029999999999998" y="1.67" class="c">identity.</text></symbol><symbol id="21"><text x="4.008" y="1.67" class="g">Tui</text><text x="8.016" y="1.67" class="g">*</text><text x="10.02" y="1.67" class="g">tui</text><text x="14.027999999999999" y="1.67" class="g">*</text><text x="16.032" y="1.67" class="g">acme</text><text x="21.041999999999998" y="1.67" class="g">*</text><text x="23.045999999999996" y="1.67" class="g">acme/tui</text></symbol><symbol id="22"><text x="0" y="1.67" class="d">&gt;</text><text x="2.004" y="1.67" class="e">Build</text><text x="8.016" y="1.67" class="e">&amp;</text><text x="10.02" y="1.67" class="e">features</text><text x="19.037999999999997" y="1.67" class="e">&gt;</text></symbol><symbol id="23"><text x="4.008" y="1.67" class="e">What</text><text x="9.017999999999999" y="1.67" class="e">the</text><text x="13.026" y="1.67" class="e">package</text><text x="21.041999999999998" y="1.67" class="e">ships</text><text x="27.054" y="1.67" class="e">with.</text></symbol><symbol id="24"><text x="0" y="1.67" class="c">Package</text><text x="8.016" y="1.67" class="c">scaffolder</text><text x="19.037999999999997" y="1.67" class="c">&gt;</text><text x="21.041999999999998" y="1.67" class="c">Build</text><text x="27.054" y="1.67" class="c">&amp;</text><text x="29.058" y="1.67" class="c">features</text></symbol><symbol id="25"><text x="2.004" y="1.67" class="c">Features</text></symbol><symbol id="26"><text x="4.008" y="1.67" class="c">Space</text><text x="10.02" y="1.67" class="c">to</text><text x="13.026" y="1.67" class="c">toggle,</text><text x="21.041999999999998" y="1.67" class="c">type</text><text x="26.052" y="1.67" class="c">to</text><text x="29.058" y="1.67" class="c">filter.</text></symbol><symbol id="27"><text x="2.004" y="1.67" class="c">Docker</text><text x="9.017999999999999" y="1.67" class="c">base</text><text x="14.027999999999999" y="1.67" class="c">image</text></symbol><symbol id="28"><text x="2.004" y="1.67" class="c">Generate</text><text x="11.021999999999998" y="1.67" class="c">a</text><text x="13.026" y="1.67" class="c">docker-compose.yml?</text></symbol><symbol id="29"><text x="2.004" y="1.67" class="c">PHP</text><text x="6.012" y="1.67" class="c">version</text><text x="15.029999999999998" y="1.67" class="g">8.4</text></symbol><symbol id="30"><text x="2.004" y="1.67" class="c">Private</text><text x="10.02" y="1.67" class="c">package?</text><text x="20.04" y="1.67" class="g">no</text></symbol><symbol id="31"><text x="0" y="1.67" class="c">Package</text><text x="8.016" y="1.67" class="c">type</text></symbol><symbol id="32"><text x="0" y="1.67" class="c">(</text><text x="2.004" y="1.67" class="c">)</text><text x="4.008" y="1.67" class="c">CLI</text><text x="8.016" y="1.67" class="c">tool</text></symbol><symbol id="33"><text x="2.004" y="1.67" class="c">Package</text><text x="10.02" y="1.67" class="c">type</text><text x="16.032" y="1.67" class="g">application</text><rect height="1.837" width="8" x="68.136" y="0" class="h"></rect><text x="68.136" y="1.67" class="i"> edited </text></symbol><symbol id="34"><text x="4.008" y="1.67" class="e">Space</text><text x="10.02" y="1.67" class="e">to</text><text x="13.026" y="1.67" class="e">toggle,</text><text x="21.041999999999998" y="1.67" class="e">type</text><text x="26.052" y="1.67" class="e">to</text><text x="29.058" y="1.67" class="e">filter.</text></symbol><symbol id="35"><text x="0" y="1.67" class="c">Features</text></symbol><symbol id="36"><text x="2.004" y="1.67" class="c">[</text><text x="4.008" y="1.67" class="c">]</text><text x="6.012" y="1.67" class="c">CI</text></symbol><symbol id="37"><text x="2.004" y="1.67" class="c">[</text><text x="4.008" y="1.67" class="c">]</text><text x="6.012" y="1.67" class="c">Docker</text></symbol><symbol id="38"><text x="2.004" y="1.67" class="c">[</text><text x="4.008" y="1.67" class="c">]</text><text x="6.012" y="1.67" class="c">Docs</text></symbol><symbol id="39"><text x="2.004" y="1.67" class="c">[x]</text><text x="6.012" y="1.67" class="c">Tests</text></symbol><symbol id="40"><text x="2.004" y="1.67" class="c">[x]</text><text x="6.012" y="1.67" class="c">CI</text></symbol><symbol id="41"><text x="2.004" y="1.67" class="c">Features</text><text x="12.024" y="1.67" class="g">tests,</text><text x="19.037999999999997" y="1.67" class="g">ci,</text><text x="23.045999999999996" y="1.67" class="g">docker</text><rect height="1.837" width="8" x="68.136" y="0" class="h"></rect><text x="68.136" y="1.67" class="i"> edited </text></symbol><symbol id="42"><text x="0" y="1.67" class="c">PHP</text><text x="4.008" y="1.67" class="c">version</text></symbol><symbol id="43"><text x="2.004" y="1.67" class="c">8.4</text></symbol><symbol id="44"><text x="2.004" y="1.67" class="c">8.3</text></symbol><symbol id="45"><text x="4.008" y="1.67" class="g">application</text><text x="16.032" y="1.67" class="g">*</text><text x="18.035999999999998" y="1.67" class="g">tests,</text><text x="25.05" y="1.67" class="g">ci,</text><text x="29.058" y="1.67" class="g">docker</text><text x="36.071999999999996" y="1.67" class="g">*</text><text x="38.07599999999999" y="1.67" class="g">8.3</text><text x="42.083999999999996" y="1.67" class="g">*</text><text x="44.087999999999994" y="1.67" class="g">no</text></symbol><symbol id="46"><text x="0" y="1.67" class="c">{&quot;name&quot;:&quot;Tui&quot;,&quot;machine_name&quot;:&quot;tui&quot;,&quot;vendor&quot;:&quot;acme&quot;,&quot;package&quot;:&quot;acme\/tui&quot;,&quot;namesp</text></symbol><symbol id="47"><text x="0" y="1.67" class="c">ace&quot;:&quot;Tui&quot;,&quot;type&quot;:&quot;application&quot;,&quot;features&quot;:[&quot;tests&quot;,&quot;ci&quot;,&quot;docker&quot;],&quot;php_version&quot;</text></symbol><symbol id="48"><text x="0" y="1.67" class="c">:&quot;8.3&quot;,&quot;private&quot;:false}</text></symbol><symbol id="a"><rect height="24" width="80" x="0" y="0" class="j"></rect></symbol><symbol id="b"><rect height="1.837" width="1.1022" class="k"></rect></symbol></defs><rect height="44.088" width="80" class="a"></rect><g class="m"><svg x="0" y="0" width="2800"><svg x="0"><use xlink:href="#a"></use><use xlink:href="#b" x="-0.0040000000000000036" y="0"></use></svg><svg x="80"><use xlink:href="#a"></use></svg><svg x="160"><use xlink:href="#a"></use><use xlink:href="#1" y="0"></use><use xlink:href="#2" y="1.837"></use><use xlink:href="#3" y="3.674"></use><use xlink:href="#4" y="5.511"></use><use xlink:href="#5" y="7.348"></use><use xlink:href="#6" y="9.185"></use><use xlink:href="#7" y="11.022"></use><use xlink:href="#8" y="12.859"></use><use xlink:href="#9" y="14.696"></use></svg><svg x="240"><use xlink:href="#a"></use><use xlink:href="#10" y="0"></use><text x="0" y="3.5069999999999997" class="d">&gt;</text><text x="2.004" y="3.5069999999999997" class="e">Package</text><text x="10.02" y="3.5069999999999997" class="e">name</text><text x="16.032" y="3.5069999999999997" class="f">Tui</text><text x="4.008" y="5.343999999999999" class="e">A</text><text x="6.012" y="5.343999999999999" class="e">human-readable</text><text x="21.041999999999998" y="5.343999999999999" class="e">name,</text><text x="27.054" y="5.343999999999999" class="e">e.g.</text><text x="32.064" y="5.343999999999999" class="e">&quot;My</text><text x="36.071999999999996" y="5.343999999999999" class="e">Widget&quot;.</text><use xlink:href="#11" y="5.511"></use><use xlink:href="#12" y="7.348"></use><use xlink:href="#13" y="9.185"></use><use xlink:href="#14" y="11.022"></use><use xlink:href="#15" y="12.859"></use><use xlink:href="#16" y="14.696"></use><use xlink:href="#9" y="16.533"></use></svg><svg x="320"><use xlink:href="#a"></use><use xlink:href="#10" y="0"></use><use xlink:href="#17" y="1.837"></use><use xlink:href="#18" y="3.674"></use><text x="0" y="7.181" class="d">&gt;</text><text x="2.004" y="7.181" class="e">Machine</text><text x="10.02" y="7.181" class="e">name</text><text x="16.032" y="7.181" class="f">tui</text><rect height="1.837" width="9" x="67.134" y="5.511" class="h"></rect><text x="67.134" y="7.181" class="n"> derived </text><text x="4.008" y="9.018" class="e">Derived</text><text x="12.024" y="9.018" class="e">from</text><text x="17.034" y="9.018" class="e">the</text><text x="21.041999999999998" y="9.018" class="e">package</text><text x="29.058" y="9.018" class="e">name.</text><use xlink:href="#13" y="9.185"></use><use xlink:href="#14" y="11.022"></use><use xlink:href="#15" y="12.859"></use><use xlink:href="#16" y="14.696"></use><use xlink:href="#9" y="16.533"></use></svg><svg x="400"><use xlink:href="#a"></use><use xlink:href="#10" y="0"></use><use xlink:href="#17" y="1.837"></use><use xlink:href="#18" y="3.674"></use><use xlink:href="#11" y="5.511"></use><use xlink:href="#12" y="7.348"></use><text x="0" y="10.855" class="d">&gt;</text><text x="2.004" y="10.855" class="e">Vendor</text><text x="10.02" y="10.855" class="f">acme</text><use xlink:href="#14" y="11.022"></use><use xlink:href="#15" y="12.859"></use><use xlink:href="#16" y="14.696"></use><use xlink:href="#9" y="16.533"></use></svg><svg x="480"><use xlink:href="#a"></use><use xlink:href="#10" y="0"></use><use xlink:href="#17" y="1.837"></use><use xlink:href="#18" y="3.674"></use><use xlink:href="#11" y="5.511"></use><use xlink:href="#12" y="7.348"></use><use xlink:href="#13" y="9.185"></use><text x="0" y="12.692" class="d">&gt;</text><text x="2.004" y="12.692" class="e">Composer</text><text x="11.021999999999998" y="12.692" class="e">package</text><text x="20.04" y="12.692" class="f">acme/tui</text><rect height="1.837" width="9" x="67.134" y="11.022" class="h"></rect><text x="67.134" y="12.692" class="n"> derived </text><text x="4.008" y="14.529" class="e">Derived</text><text x="12.024" y="14.529" class="e">from</text><text x="17.034" y="14.529" class="e">vendor</text><text x="24.048" y="14.529" class="e">and</text><text x="28.055999999999997" y="14.529" class="e">machine</text><text x="36.071999999999996" y="14.529" class="e">name.</text><use xlink:href="#16" y="14.696"></use><use xlink:href="#9" y="16.533"></use></svg><svg x="560"><use xlink:href="#a"></use><use xlink:href="#10" y="0"></use><use xlink:href="#17" y="1.837"></use><use xlink:href="#18" y="3.674"></use><use xlink:href="#11" y="5.511"></use><use xlink:href="#12" y="7.348"></use><use xlink:href="#13" y="9.185"></use><use xlink:href="#14" y="11.022"></use><use xlink:href="#15" y="12.859"></use><text x="0" y="16.366" class="d">&gt;</text><text x="2.004" y="16.366" class="e">PHP</text><text x="6.012" y="16.366" class="e">namespace</text><text x="17.034" y="16.366" class="f">Tui</text><rect height="1.837" width="9" x="67.134" y="14.696" class="h"></rect><text x="67.134" y="16.366" class="n"> derived </text><use xlink:href="#9" y="16.533"></use></svg><svg x="640"><use xlink:href="#a"></use><use xlink:href="#1" y="0"></use><use xlink:href="#2" y="1.837"></use><use xlink:href="#3" y="3.674"></use><use xlink:href="#4" y="5.511"></use><use xlink:href="#5" y="7.348"></use><use xlink:href="#6" y="9.185"></use><use xlink:href="#7" y="11.022"></use><use xlink:href="#8" y="12.859"></use><use xlink:href="#9" y="14.696"></use></svg><svg x="720"><use xlink:href="#a"></use><use xlink:href="#1" y="0"></use><use xlink:href="#19" y="1.837"></use><use xlink:href="#20" y="3.674"></use><use xlink:href="#21" y="5.511"></use><use xlink:href="#22" y="7.348"></use><use xlink:href="#23" y="9.185"></use><text x="4.008" y="12.692" class="f">library</text><text x="12.024" y="12.692" class="f">*</text><text x="15.029999999999998" y="12.692" class="f">*</text><text x="17.034" y="12.692" class="f">8.4</text><text x="21.041999999999998" y="12.692" class="f">*</text><text x="23.045999999999996" y="12.692" class="f">no</text><use xlink:href="#8" y="12.859"></use><use xlink:href="#9" y="14.696"></use></svg><svg x="800"><use xlink:href="#a"></use><use xlink:href="#24" y="0"></use><text x="0" y="3.5069999999999997" class="d">&gt;</text><text x="2.004" y="3.5069999999999997" class="e">Package</text><text x="10.02" y="3.5069999999999997" class="e">type</text><text x="16.032" y="3.5069999999999997" class="f">library</text><use xlink:href="#25" y="3.674"></use><use xlink:href="#26" y="5.511"></use><use xlink:href="#27" y="7.348"></use><use xlink:href="#28" y="9.185"></use><use xlink:href="#29" y="11.022"></use><use xlink:href="#30" y="12.859"></use><use xlink:href="#9" y="14.696"></use></svg><svg x="880"><use xlink:href="#a"></use><use xlink:href="#31" y="0"></use><text x="0" y="3.5069999999999997" class="c">(*)</text><text x="4.008" y="3.5069999999999997" class="c">Library</text><text x="0" y="5.343999999999999" class="c">(</text><text x="2.004" y="5.343999999999999" class="c">)</text><text x="4.008" y="5.343999999999999" class="c">Application</text><use xlink:href="#32" y="5.511"></use><use xlink:href="#9" y="9.185"></use></svg><svg x="960"><use xlink:href="#a"></use><use xlink:href="#31" y="0"></use><text x="0" y="3.5069999999999997" class="c">(</text><text x="2.004" y="3.5069999999999997" class="c">)</text><text x="4.008" y="3.5069999999999997" class="c">Library</text><text x="0" y="5.343999999999999" class="c">(*)</text><text x="4.008" y="5.343999999999999" class="c">Application</text><use xlink:href="#32" y="5.511"></use><use xlink:href="#9" y="9.185"></use></svg><svg x="1040"><use xlink:href="#a"></use><use xlink:href="#24" y="0"></use><text x="0" y="3.5069999999999997" class="d">&gt;</text><text x="2.004" y="3.5069999999999997" class="e">Package</text><text x="10.02" y="3.5069999999999997" class="e">type</text><text x="16.032" y="3.5069999999999997" class="f">application</text><rect height="1.837" width="8" x="68.136" y="1.8369999999999997" class="h"></rect><text x="68.136" y="3.5069999999999997" class="n"> edited </text><use xlink:href="#25" y="3.674"></use><use xlink:href="#26" y="5.511"></use><use xlink:href="#27" y="7.348"></use><use xlink:href="#28" y="9.185"></use><use xlink:href="#29" y="11.022"></use><use xlink:href="#30" y="12.859"></use><use xlink:href="#9" y="14.696"></use></svg><svg x="1120"><use xlink:href="#a"></use><use xlink:href="#24" y="0"></use><use xlink:href="#33" y="1.837"></use><text x="0" y="5.343999999999999" class="d">&gt;</text><text x="2.004" y="5.343999999999999" class="e">Features</text><use xlink:href="#34" y="5.511"></use><use xlink:href="#27" y="7.348"></use><use xlink:href="#28" y="9.185"></use><use xlink:href="#29" y="11.022"></use><use xlink:href="#30" y="12.859"></use><use xlink:href="#9" y="14.696"></use></svg><svg x="1200"><use xlink:href="#a"></use><use xlink:href="#35" y="0"></use><text x="0" y="3.5069999999999997" class="c">&gt;</text><text x="2.004" y="3.5069999999999997" class="c">[</text><text x="4.008" y="3.5069999999999997" class="c">]</text><text x="6.012" y="3.5069999999999997" class="c">Tests</text><use xlink:href="#36" y="3.674"></use><use xlink:href="#37" y="5.511"></use><use xlink:href="#38" y="7.348"></use><use xlink:href="#9" y="11.022"></use></svg><svg x="1280"><use xlink:href="#a"></use><use xlink:href="#35" y="0"></use><text x="0" y="3.5069999999999997" class="c">&gt;</text><text x="2.004" y="3.5069999999999997" class="c">[x]</text><text x="6.012" y="3.5069999999999997" class="c">Tests</text><use xlink:href="#36" y="3.674"></use><use xlink:href="#37" y="5.511"></use><use xlink:href="#38" y="7.348"></use><use xlink:href="#9" y="11.022"></use></svg><svg x="1360"><use xlink:href="#a"></use><use xlink:href="#35" y="0"></use><use xlink:href="#39" y="1.837"></use><text x="0" y="5.343999999999999" class="c">&gt;</text><text x="2.004" y="5.343999999999999" class="c">[</text><text x="4.008" y="5.343999999999999" class="c">]</text><text x="6.012" y="5.343999999999999" class="c">CI</text><use xlink:href="#37" y="5.511"></use><use xlink:href="#38" y="7.348"></use><use xlink:href="#9" y="11.022"></use></svg><svg x="1440"><use xlink:href="#a"></use><use xlink:href="#35" y="0"></use><use xlink:href="#39" y="1.837"></use><text x="0" y="5.343999999999999" class="c">&gt;</text><text x="2.004" y="5.343999999999999" class="c">[x]</text><text x="6.012" y="5.343999999999999" class="c">CI</text><use xlink:href="#37" y="5.511"></use><use xlink:href="#38" y="7.348"></use><use xlink:href="#9" y="11.022"></use></svg><svg x="1520"><use xlink:href="#a"></use><use xlink:href="#35" y="0"></use><use xlink:href="#39" y="1.837"></use><use xlink:href="#40" y="3.674"></use><text x="0" y="7.181" class="c">&gt;</text><text x="2.004" y="7.181" class="c">[</text><text x="4.008" y="7.181" class="c">]</text><text x="6.012" y="7.181" class="c">Docker</text><use xlink:href="#38" y="7.348"></use><use xlink:href="#9" y="11.022"></use></svg><svg x="1600"><use xlink:href="#a"></use><use xlink:href="#35" y="0"></use><use xlink:href="#39" y="1.837"></use><use xlink:href="#40" y="3.674"></use><text x="0" y="7.181" class="c">&gt;</text><text x="2.004" y="7.181" class="c">[x]</text><text x="6.012" y="7.181" class="c">Docker</text><use xlink:href="#38" y="7.348"></use><use xlink:href="#9" y="11.022"></use></svg><svg x="1680"><use xlink:href="#a"></use><use xlink:href="#24" y="0"></use><use xlink:href="#33" y="1.837"></use><text x="0" y="5.343999999999999" class="d">&gt;</text><text x="2.004" y="5.343999999999999" class="e">Features</text><text x="12.024" y="5.343999999999999" class="f">tests,</text><text x="19.037999999999997" y="5.343999999999999" class="f">ci,</text><text x="23.045999999999996" y="5.343999999999999" class="f">docker</text><rect height="1.837" width="8" x="68.136" y="3.6739999999999995" class="h"></rect><text x="68.136" y="5.343999999999999" class="n"> edited </text><use xlink:href="#34" y="5.511"></use><use xlink:href="#27" y="7.348"></use><use xlink:href="#28" y="9.185"></use><use xlink:href="#29" y="11.022"></use><use xlink:href="#30" y="12.859"></use><use xlink:href="#9" y="14.696"></use></svg><svg x="1760"><use xlink:href="#a"></use><use xlink:href="#24" y="0"></use><use xlink:href="#33" y="1.837"></use><use xlink:href="#41" y="3.674"></use><use xlink:href="#26" y="5.511"></use><text x="0" y="9.018" class="d">&gt;</text><text x="2.004" y="9.018" class="e">Docker</text><text x="9.017999999999999" y="9.018" class="e">base</text><text x="14.027999999999999" y="9.018" class="e">image</text><use xlink:href="#28" y="9.185"></use><use xlink:href="#29" y="11.022"></use><use xlink:href="#30" y="12.859"></use><use xlink:href="#9" y="14.696"></use></svg><svg x="1840"><use xlink:href="#a"></use><use xlink:href="#24" y="0"></use><use xlink:href="#33" y="1.837"></use><use xlink:href="#41" y="3.674"></use><use xlink:href="#26" y="5.511"></use><use xlink:href="#27" y="7.348"></use><text x="0" y="10.855" class="d">&gt;</text><text x="2.004" y="10.855" class="e">Generate</text><text x="11.021999999999998" y="10.855" class="e">a</text><text x="13.026" y="10.855" class="e">docker-compose.yml?</text><use xlink:href="#29" y="11.022"></use><use xlink:href="#30" y="12.859"></use><use xlink:href="#9" y="14.696"></use></svg><svg x="1920"><use xlink:href="#a"></use><use xlink:href="#24" y="0"></use><use xlink:href="#33" y="1.837"></use><use xlink:href="#41" y="3.674"></use><use xlink:href="#26" y="5.511"></use><use xlink:href="#27" y="7.348"></use><use xlink:href="#28" y="9.185"></use><text x="0" y="12.692" class="d">&gt;</text><text x="2.004" y="12.692" class="e">PHP</text><text x="6.012" y="12.692" class="e">version</text><text x="15.029999999999998" y="12.692" class="f">8.4</text><use xlink:href="#30" y="12.859"></use><use xlink:href="#9" y="14.696"></use></svg><svg x="2000"><use xlink:href="#a"></use><use xlink:href="#42" y="0"></use><text x="0" y="3.5069999999999997" class="c">8.4|</text><use xlink:href="#43" y="3.674"></use><use xlink:href="#9" y="7.348"></use></svg><svg x="2080"><use xlink:href="#a"></use><use xlink:href="#42" y="0"></use><text x="0" y="3.5069999999999997" class="c">8.|</text><text x="2.004" y="5.343999999999999" class="c">8.1</text><text x="2.004" y="7.181" class="c">8.2</text><use xlink:href="#44" y="7.348"></use><use xlink:href="#43" y="9.185"></use><use xlink:href="#9" y="12.859"></use></svg><svg x="2160"><use xlink:href="#a"></use><use xlink:href="#42" y="0"></use><text x="0" y="3.5069999999999997" class="c">8.3|</text><use xlink:href="#44" y="3.674"></use><use xlink:href="#9" y="7.348"></use></svg><svg x="2240"><use xlink:href="#a"></use><use xlink:href="#24" y="0"></use><use xlink:href="#33" y="1.837"></use><use xlink:href="#41" y="3.674"></use><use xlink:href="#26" y="5.511"></use><use xlink:href="#27" y="7.348"></use><use xlink:href="#28" y="9.185"></use><text x="0" y="12.692" class="d">&gt;</text><text x="2.004" y="12.692" class="e">PHP</text><text x="6.012" y="12.692" class="e">version</text><text x="15.029999999999998" y="12.692" class="f">8.3</text><rect height="1.837" width="8" x="68.136" y="11.022" class="h"></rect><text x="68.136" y="12.692" class="n"> edited </text><use xlink:href="#30" y="12.859"></use><use xlink:href="#9" y="14.696"></use></svg><svg x="2320"><use xlink:href="#a"></use><use xlink:href="#1" y="0"></use><use xlink:href="#2" y="1.837"></use><use xlink:href="#3" y="3.674"></use><use xlink:href="#4" y="5.511"></use><use xlink:href="#5" y="7.348"></use><use xlink:href="#6" y="9.185"></use><use xlink:href="#45" y="11.022"></use><use xlink:href="#8" y="12.859"></use><use xlink:href="#9" y="14.696"></use></svg><svg x="2400"><use xlink:href="#a"></use><use xlink:href="#1" y="0"></use><use xlink:href="#19" y="1.837"></use><use xlink:href="#20" y="3.674"></use><use xlink:href="#21" y="5.511"></use><use xlink:href="#22" y="7.348"></use><use xlink:href="#23" y="9.185"></use><text x="4.008" y="12.692" class="f">application</text><text x="16.032" y="12.692" class="f">*</text><text x="18.035999999999998" y="12.692" class="f">tests,</text><text x="25.05" y="12.692" class="f">ci,</text><text x="29.058" y="12.692" class="f">docker</text><text x="36.071999999999996" y="12.692" class="f">*</text><text x="38.07599999999999" y="12.692" class="f">8.3</text><text x="42.083999999999996" y="12.692" class="f">*</text><text x="44.087999999999994" y="12.692" class="f">no</text><use xlink:href="#8" y="12.859"></use><use xlink:href="#9" y="14.696"></use></svg><svg x="2480"><use xlink:href="#a"></use><use xlink:href="#1" y="0"></use><use xlink:href="#19" y="1.837"></use><use xlink:href="#20" y="3.674"></use><use xlink:href="#21" y="5.511"></use><use xlink:href="#5" y="7.348"></use><use xlink:href="#6" y="9.185"></use><use xlink:href="#45" y="11.022"></use><rect height="1.837" width="10" x="2.004" y="12.859" class="h"></rect><text x="2.004" y="14.529" class="n">[ Submit ]</text><text x="14.027999999999999" y="14.529" class="g">[</text><text x="16.032" y="14.529" class="g">Cancel</text><text x="23.045999999999996" y="14.529" class="g">]</text><use xlink:href="#9" y="14.696"></use></svg><svg x="2560"><use xlink:href="#a"></use><use xlink:href="#b" x="-0.0040000000000000036" y="0"></use></svg><svg x="2640"><use xlink:href="#a"></use><use xlink:href="#b" x="-0.0040000000000000036" y="5.336"></use><use xlink:href="#46" y="0"></use><use xlink:href="#47" y="1.837"></use><use xlink:href="#48" y="3.674"></use></svg><svg x="2720"><use xlink:href="#a"></use><use xlink:href="#b" x="0.996" y="5.336"></use><use xlink:href="#46" y="0"></use><use xlink:href="#47" y="1.837"></use><use xlink:href="#48" y="3.674"></use></svg></svg></g></g></svg></svg>