<svg xmlns="http://www.w3.org/2000/svg" xmlns:xlink="http://www.w3.org/1999/xlink" width="800" height="293.92"><rect width="800" height="293.92" rx="0" ry="0" class="a"></rect><svg height="293.92" viewBox="0 0 80 29.392" width="800" xmlns="http://www.w3.org/2000/svg" xmlns:xlink="http://www.w3.org/1999/xlink"><style>.a{fill:rgb(250,250,250)}.b{font-family:Consolas,"Courier New",Courier,"Liberation Mono",monospace}.c{fill:rgb(0,0,128);white-space:pre}.d{fill:transparent}.e{fill:rgb(128,128,128);white-space:pre}.f{fill:rgb(40,44,52);font-weight:bold;white-space:pre}.g{fill:rgb(0,128,128);font-weight:bold;white-space:pre}.h{fill:rgb(128,128,128);font-weight:bold;white-space:pre}.i{fill:rgb(56,58,66);white-space:pre}.j{fill:rgb(0,128,128);white-space:pre}</style><g font-family="Consolas, &quot;Courier New&quot;, Courier, &quot;Liberation Mono&quot;, monospace" font-size="1.67" class="b"><defs><symbol id="1"><text x="0" y="1.67" class="c">╠══════════════════════════════════════════════════════════════════════════╣</text></symbol><symbol id="a"><rect height="16" width="80" x="0" y="0" class="d"></rect></symbol></defs><rect height="29.392" width="80" class="a"></rect><svg x="0" y="0" width="80"><svg x="0"><use xlink:href="#a"></use><text x="0" y="1.67" class="c">╔══════════════════════════════════════════════════════════════════════════╗</text><text x="0" y="3.5069999999999997" class="c">║</text><text x="2.004" y="3.5069999999999997" class="e">Built-in</text><text x="11.021999999999998" y="3.5069999999999997" class="e">theme</text><text x="17.034" y="3.5069999999999997" class="e">preview</text><text x="25.05" y="3.5069999999999997" class="e">›</text><text x="27.054" y="3.5069999999999997" class="e">Preview</text><text x="75.14999999999999" y="3.5069999999999997" class="c">║</text><use xlink:href="#1" y="3.674"></use><text x="0" y="7.181" class="c">║</text><text x="2.004" y="7.181" class="c">❯</text><text x="4.008" y="7.181" class="f">Project</text><text x="12.024" y="7.181" class="f">name</text><text x="18.035999999999998" y="7.181" class="g">Acme</text><text x="23.045999999999996" y="7.181" class="g">Corp</text><text x="75.14999999999999" y="7.181" class="c">║</text><text x="0" y="9.018" class="c">║</text><text x="6.012" y="9.018" class="h">Shown</text><text x="12.024" y="9.018" class="h">in</text><text x="15.029999999999998" y="9.018" class="h">the</text><text x="19.037999999999997" y="9.018" class="h">header.</text><text x="75.14999999999999" y="9.018" class="c">║</text><text x="0" y="10.855" class="c">║</text><text x="4.008" y="10.855" class="i">Environment</text><text x="17.034" y="10.855" class="j">prod</text><text x="75.14999999999999" y="10.855" class="c">║</text><text x="0" y="12.692" class="c">║</text><text x="6.012" y="12.692" class="e">Deployment</text><text x="17.034" y="12.692" class="e">target.</text><text x="75.14999999999999" y="12.692" class="c">║</text><text x="0" y="14.529" class="c">║</text><text x="4.008" y="14.529" class="i">Features</text><text x="14.027999999999999" y="14.529" class="j">ssl,</text><text x="19.037999999999997" y="14.529" class="j">cache</text><text x="75.14999999999999" y="14.529" class="c">║</text><text x="0" y="16.366" class="c">║</text><text x="6.012" y="16.366" class="e">Enabled</text><text x="14.027999999999999" y="16.366" class="e">features.</text><text x="75.14999999999999" y="16.366" class="c">║</text><text x="0" y="18.203000000000003" class="c">║</text><text x="4.008" y="18.203000000000003" class="i">Analytics</text><text x="15.029999999999998" y="18.203000000000003" class="j">yes</text><text x="75.14999999999999" y="18.203000000000003" class="c">║</text><text x="0" y="20.04" class="c">║</text><text x="6.012" y="20.04" class="e">Send</text><text x="11.021999999999998" y="20.04" class="e">anonymous</text><text x="21.041999999999998" y="20.04" class="e">usage</text><text x="27.054" y="20.04" class="e">data.</text><text x="75.14999999999999" y="20.04" class="c">║</text><use xlink:href="#1" y="20.206999999999997"></use><text x="0" y="23.714" class="c">║</text><text x="2.004" y="23.714" class="e">↑/↓</text><text x="6.012" y="23.714" class="e">move</text><text x="11.021999999999998" y="23.714" class="e">·</text><text x="13.026" y="23.714" class="e">↵</text><text x="15.029999999999998" y="23.714" class="e">select</text><text x="22.043999999999997" y="23.714" class="e">·</text><text x="24.048" y="23.714" class="e">esc</text><text x="28.055999999999997" y="23.714" class="e">back</text><text x="33.065999999999995" y="23.714" class="e">·</text><text x="35.06999999999999" y="23.714" class="e">q</text><text x="37.074" y="23.714" class="e">quit</text><text x="42.083999999999996" y="23.714" class="e">·</text><text x="44.087999999999994" y="23.714" class="e">?</text><text x="46.09199999999999" y="23.714" class="e">help</text><text x="75.14999999999999" y="23.714" class="c">║</text><text x="0" y="25.551000000000002" class="c">╚══════════════════════════════════════════════════════════════════════════╝</text></svg></svg></g></svg></svg>