<svg xmlns="http://www.w3.org/2000/svg" xmlns:xlink="http://www.w3.org/1999/xlink" width="800" height="293.92"><rect width="800" height="293.92" rx="0" ry="0" class="a"></rect><svg height="293.92" viewBox="0 0 80 29.392" width="800" xmlns="http://www.w3.org/2000/svg" xmlns:xlink="http://www.w3.org/1999/xlink"><style>.a{fill:rgb(0,0,170)}.b{font-family:Consolas,"Courier New",Courier,"Liberation Mono",monospace}.c{fill:rgb(255,255,255);white-space:pre}.d{fill:rgb(170,170,170);white-space:pre}.e{fill:transparent}.f{fill:rgb(192,192,192);white-space:pre}.g{fill:rgb(255,255,255);font-weight:bold;white-space:pre}.h{fill:rgb(0,255,255);font-weight:bold;white-space:pre}.i{fill:rgb(192,192,192);font-weight:bold;white-space:pre}.j{fill:rgb(0,255,255);white-space:pre}</style><g font-family="Consolas, &quot;Courier New&quot;, Courier, &quot;Liberation Mono&quot;, monospace" font-size="1.67" class="b"><defs><symbol id="1"><rect height="1.837" width="76" x="0" y="0" class="a"></rect><text x="0" y="1.67" class="c">╠══════════════════════════════════════════════════════════════════════════╣</text><rect height="1.837" width="4" x="76.15199999999999" y="0" class="a"></rect><text x="76.15199999999999" y="1.67" class="d">    </text></symbol><symbol id="2"><rect height="1.837" width="80" x="0" y="0" class="a"></rect><text x="0" y="1.67" class="d">                                                                                </text></symbol><symbol id="a"><rect height="16" width="80" x="0" y="0" class="e"></rect></symbol></defs><rect height="29.392" width="80" class="a"></rect><svg x="0" y="0" width="80"><svg x="0"><use xlink:href="#a"></use><rect height="1.837" width="76" x="0" y="0" class="a"></rect><text x="0" y="1.67" class="c">╔══════════════════════════════════════════════════════════════════════════╗</text><rect height="1.837" width="4" x="76.15199999999999" y="0" class="a"></rect><text x="76.15199999999999" y="1.67" class="d">    </text><rect height="1.837" width="1" x="0" y="1.8369999999999997" class="a"></rect><text x="0" y="3.5069999999999997" class="c">║</text><rect height="1.837" width="1" x="1.002" y="1.8369999999999997" class="a"></rect><text x="1.002" y="3.5069999999999997" class="d"> </text><rect height="1.837" width="32" x="2.004" y="1.8369999999999997" class="a"></rect><text x="2.004" y="3.5069999999999997" class="f">Built-in theme preview › Preview</text><rect height="1.837" width="41" x="34.068" y="1.8369999999999997" class="a"></rect><text x="34.068" y="3.5069999999999997" class="d">                                         </text><rect height="1.837" width="1" x="75.14999999999999" y="1.8369999999999997" class="a"></rect><text x="75.14999999999999" y="3.5069999999999997" class="c">║</text><rect height="1.837" width="4" x="76.15199999999999" y="1.8369999999999997" class="a"></rect><text x="76.15199999999999" y="3.5069999999999997" class="d">    </text><use xlink:href="#1" y="3.674"></use><rect height="1.837" width="1" x="0" y="5.511" class="a"></rect><text x="0" y="7.181" class="c">║</text><rect height="1.837" width="1" x="1.002" y="5.511" class="a"></rect><text x="1.002" y="7.181" class="d"> </text><rect height="1.837" width="1" x="2.004" y="5.511" class="a"></rect><text x="2.004" y="7.181" class="g">❯</text><rect height="1.837" width="1" x="3.006" y="5.511" class="a"></rect><text x="3.006" y="7.181" class="d"> </text><rect height="1.837" width="8" x="4.008" y="5.511" class="a"></rect><text x="4.008" y="7.181" class="g">Box name</text><rect height="1.837" width="2" x="12.024" y="5.511" class="a"></rect><text x="12.024" y="7.181" class="d">  </text><rect height="1.837" width="10" x="14.027999999999999" y="5.511" class="a"></rect><text x="14.027999999999999" y="7.181" class="h">Weekly Box</text><rect height="1.837" width="51" x="24.048" y="5.511" class="a"></rect><text x="24.048" y="7.181" class="d">                                                   </text><rect height="1.837" width="1" x="75.14999999999999" y="5.511" class="a"></rect><text x="75.14999999999999" y="7.181" class="c">║</text><rect height="1.837" width="4" x="76.15199999999999" y="5.511" class="a"></rect><text x="76.15199999999999" y="7.181" class="d">    </text><rect height="1.837" width="1" x="0" y="7.348000000000001" class="a"></rect><text x="0" y="9.018" class="c">║</text><rect height="1.837" width="5" x="1.002" y="7.348000000000001" class="a"></rect><text x="1.002" y="9.018" class="d">     </text><rect height="1.837" width="20" x="6.012" y="7.348000000000001" class="a"></rect><text x="6.012" y="9.018" class="i">Shown in the header.</text><rect height="1.837" width="49" x="26.052" y="7.348000000000001" class="a"></rect><text x="26.052" y="9.018" class="d">                                                 </text><rect height="1.837" width="1" x="75.14999999999999" y="7.348000000000001" class="a"></rect><text x="75.14999999999999" y="9.018" class="c">║</text><rect height="1.837" width="4" x="76.15199999999999" y="7.348000000000001" class="a"></rect><text x="76.15199999999999" y="9.018" class="d">    </text><rect height="1.837" width="1" x="0" y="9.185" class="a"></rect><text x="0" y="10.855" class="c">║</text><rect height="1.837" width="10" x="1.002" y="9.185" class="a"></rect><text x="1.002" y="10.855" class="d">   Grade  </text><rect height="1.837" width="7" x="11.021999999999998" y="9.185" class="a"></rect><text x="11.021999999999998" y="10.855" class="j">premium</text><rect height="1.837" width="57" x="18.035999999999998" y="9.185" class="a"></rect><text x="18.035999999999998" y="10.855" class="d">                                                         </text><rect height="1.837" width="1" x="75.14999999999999" y="9.185" class="a"></rect><text x="75.14999999999999" y="10.855" class="c">║</text><rect height="1.837" width="4" x="76.15199999999999" y="9.185" class="a"></rect><text x="76.15199999999999" y="10.855" class="d">    </text><rect height="1.837" width="1" x="0" y="11.022" class="a"></rect><text x="0" y="12.692" class="c">║</text><rect height="1.837" width="5" x="1.002" y="11.022" class="a"></rect><text x="1.002" y="12.692" class="d">     </text><rect height="1.837" width="14" x="6.012" y="11.022" class="a"></rect><text x="6.012" y="12.692" class="f">Quality grade.</text><rect height="1.837" width="55" x="20.04" y="11.022" class="a"></rect><text x="20.04" y="12.692" class="d">                                                       </text><rect height="1.837" width="1" x="75.14999999999999" y="11.022" class="a"></rect><text x="75.14999999999999" y="12.692" class="c">║</text><rect height="1.837" width="4" x="76.15199999999999" y="11.022" class="a"></rect><text x="76.15199999999999" y="12.692" class="d">    </text><rect height="1.837" width="1" x="0" y="12.859" class="a"></rect><text x="0" y="14.529" class="c">║</text><rect height="1.837" width="11" x="1.002" y="12.859" class="a"></rect><text x="1.002" y="14.529" class="d">   Extras  </text><rect height="1.837" width="11" x="12.024" y="12.859" class="a"></rect><text x="12.024" y="14.529" class="j">herbs, nuts</text><rect height="1.837" width="52" x="23.045999999999996" y="12.859" class="a"></rect><text x="23.045999999999996" y="14.529" class="d">                                                    </text><rect height="1.837" width="1" x="75.14999999999999" y="12.859" class="a"></rect><text x="75.14999999999999" y="14.529" class="c">║</text><rect height="1.837" width="4" x="76.15199999999999" y="12.859" class="a"></rect><text x="76.15199999999999" y="14.529" class="d">    </text><rect height="1.837" width="1" x="0" y="14.696" class="a"></rect><text x="0" y="16.366" class="c">║</text><rect height="1.837" width="5" x="1.002" y="14.696" class="a"></rect><text x="1.002" y="16.366" class="d">     </text><rect height="1.837" width="13" x="6.012" y="14.696" class="a"></rect><text x="6.012" y="16.366" class="f">Added extras.</text><rect height="1.837" width="56" x="19.037999999999997" y="14.696" class="a"></rect><text x="19.037999999999997" y="16.366" class="d">                                                        </text><rect height="1.837" width="1" x="75.14999999999999" y="14.696" class="a"></rect><text x="75.14999999999999" y="16.366" class="c">║</text><rect height="1.837" width="4" x="76.15199999999999" y="14.696" class="a"></rect><text x="76.15199999999999" y="16.366" class="d">    </text><rect height="1.837" width="1" x="0" y="16.533" class="a"></rect><text x="0" y="18.203000000000003" class="c">║</text><rect height="1.837" width="14" x="1.002" y="16.533" class="a"></rect><text x="1.002" y="18.203000000000003" class="d">   Gift wrap  </text><rect height="1.837" width="3" x="15.029999999999998" y="16.533" class="a"></rect><text x="15.029999999999998" y="18.203000000000003" class="j">yes</text><rect height="1.837" width="57" x="18.035999999999998" y="16.533" class="a"></rect><text x="18.035999999999998" y="18.203000000000003" class="d">                                                         </text><rect height="1.837" width="1" x="75.14999999999999" y="16.533" class="a"></rect><text x="75.14999999999999" y="18.203000000000003" class="c">║</text><rect height="1.837" width="4" x="76.15199999999999" y="16.533" class="a"></rect><text x="76.15199999999999" y="18.203000000000003" class="d">    </text><rect height="1.837" width="1" x="0" y="18.369999999999997" class="a"></rect><text x="0" y="20.04" class="c">║</text><rect height="1.837" width="5" x="1.002" y="18.369999999999997" class="a"></rect><text x="1.002" y="20.04" class="d">     </text><rect height="1.837" width="23" x="6.012" y="18.369999999999997" class="a"></rect><text x="6.012" y="20.04" class="f">Wrap the box as a gift.</text><rect height="1.837" width="46" x="29.058" y="18.369999999999997" class="a"></rect><text x="29.058" y="20.04" class="d">                                              </text><rect height="1.837" width="1" x="75.14999999999999" y="18.369999999999997" class="a"></rect><text x="75.14999999999999" y="20.04" class="c">║</text><rect height="1.837" width="4" x="76.15199999999999" y="18.369999999999997" class="a"></rect><text x="76.15199999999999" y="20.04" class="d">    </text><use xlink:href="#1" y="20.206999999999997"></use><rect height="1.837" width="1" x="0" y="22.043999999999997" class="a"></rect><text x="0" y="23.714" class="c">║</text><rect height="1.837" width="1" x="1.002" y="22.043999999999997" class="a"></rect><text x="1.002" y="23.714" class="d"> </text><rect height="1.837" width="48" x="2.004" y="22.043999999999997" class="a"></rect><text x="2.004" y="23.714" class="f">↑/↓ move · ↵ select · esc back · q quit · ? help</text><rect height="1.837" width="25" x="50.1" y="22.043999999999997" class="a"></rect><text x="50.1" y="23.714" class="d">                         </text><rect height="1.837" width="1" x="75.14999999999999" y="22.043999999999997" class="a"></rect><text x="75.14999999999999" y="23.714" class="c">║</text><rect height="1.837" width="4" x="76.15199999999999" y="22.043999999999997" class="a"></rect><text x="76.15199999999999" y="23.714" class="d">    </text><rect height="1.837" width="76" x="0" y="23.881" class="a"></rect><text x="0" y="25.551000000000002" class="c">╚══════════════════════════════════════════════════════════════════════════╝</text><rect height="1.837" width="4" x="76.15199999999999" y="23.881" class="a"></rect><text x="76.15199999999999" y="25.551000000000002" class="d">    </text><use xlink:href="#2" y="25.718"></use><use xlink:href="#2" y="27.555"></use></svg></svg></g></svg></svg>