<svg xmlns="http://www.w3.org/2000/svg" xmlns:xlink="http://www.w3.org/1999/xlink" width="480" height="275.55"><rect width="480" height="275.55" rx="0" ry="0" class="a"></rect><svg height="275.55" viewBox="0 0 48 27.555" width="480" xmlns="http://www.w3.org/2000/svg" xmlns:xlink="http://www.w3.org/1999/xlink"><style>.a{fill:rgb(40,44,52)}.b{font-family:Consolas,"Courier New",Courier,"Liberation Mono",monospace}.c{fill:transparent}.d{fill:rgb(82,139,255)}.e{fill:rgb(128,128,128);white-space:pre}.f{fill:rgb(255,135,0);font-weight:bold;white-space:pre}.g{fill:rgb(171,178,191);font-weight:bold;white-space:pre}.h{fill:rgb(175,175,0);font-weight:bold;white-space:pre}.i{fill:rgb(128,128,128);font-weight:bold;white-space:pre}.j{fill:rgb(171,178,191);white-space:pre}.k{fill:rgb(175,175,0);white-space:pre}</style><g font-family="Consolas, &quot;Courier New&quot;, Courier, &quot;Liberation Mono&quot;, monospace" font-size="1.67" class="b"><defs><symbol id="a"><rect height="15" width="48" x="0" y="0" class="c"></rect></symbol><symbol id="b"><rect height="1.837" width="1.1022" class="d"></rect></symbol></defs><rect height="27.555" width="48" class="a"></rect><svg x="0" y="0" width="48"><svg x="0"><use xlink:href="#a"></use><use xlink:href="#b" x="47.996" y="18.195"></use><text x="0" y="1.67" class="e">Theme</text><text x="6.012" y="1.67" class="e">preview</text><text x="14.027999999999999" y="1.67" class="e">›</text><text x="16.032" y="1.67" class="e">Preview</text><text x="0" y="3.5069999999999997" class="f">❯</text><text x="2.004" y="3.5069999999999997" class="g">Box</text><text x="6.012" y="3.5069999999999997" class="g">name</text><text x="12.024" y="3.5069999999999997" class="h">Weekly</text><text x="19.037999999999997" y="3.5069999999999997" class="h">Box</text><text x="4.008" y="5.343999999999999" class="i">Shown</text><text x="10.02" y="5.343999999999999" class="i">in</text><text x="13.026" y="5.343999999999999" class="i">the</text><text x="17.034" y="5.343999999999999" class="i">header.</text><text x="2.004" y="7.181" class="j">Grade</text><text x="9.017999999999999" y="7.181" class="k">premium</text><text x="4.008" y="9.018" class="e">Quality</text><text x="12.024" y="9.018" class="e">grade.</text><text x="2.004" y="10.855" class="j">Extras</text><text x="10.02" y="10.855" class="k">herbs,</text><text x="17.034" y="10.855" class="k">nuts</text><text x="4.008" y="12.692" class="e">Added</text><text x="10.02" y="12.692" class="e">extras.</text><text x="2.004" y="14.529" class="j">Gift</text><text x="7.013999999999999" y="14.529" class="j">wrap</text><text x="13.026" y="14.529" class="k">yes</text><text x="4.008" y="16.366" class="e">Wrap</text><text x="9.017999999999999" y="16.366" class="e">the</text><text x="13.026" y="16.366" class="e">box</text><text x="17.034" y="16.366" class="e">as</text><text x="20.04" y="16.366" class="e">a</text><text x="22.043999999999997" y="16.366" class="e">gift.</text><text x="0" y="20.04" class="e">↑/↓</text><text x="4.008" y="20.04" class="e">move</text><text x="9.017999999999999" y="20.04" class="e">·</text><text x="11.021999999999998" y="20.04" class="e">↵</text><text x="13.026" y="20.04" class="e">select</text><text x="20.04" y="20.04" class="e">·</text><text x="22.043999999999997" y="20.04" class="e">esc</text><text x="26.052" y="20.04" class="e">back</text><text x="31.061999999999998" y="20.04" class="e">·</text><text x="33.065999999999995" y="20.04" class="e">q</text><text x="35.06999999999999" y="20.04" class="e">quit</text><text x="40.08" y="20.04" class="e">·</text><text x="42.083999999999996" y="20.04" class="e">?</text><text x="44.087999999999994" y="20.04" class="e">help</text></svg></svg></g></svg></svg>