<svg xmlns="http://www.w3.org/2000/svg" xmlns:xlink="http://www.w3.org/1999/xlink" width="640" height="275.55"><rect width="640" height="275.55" rx="0" ry="0" class="a"></rect><svg height="275.55" viewBox="0 0 64 27.555" width="640" xmlns="http://www.w3.org/2000/svg" xmlns:xlink="http://www.w3.org/1999/xlink"><style>.a{fill:rgb(40,44,52)}.b{font-family:Consolas,"Courier New",Courier,"Liberation Mono",monospace}.c{fill:transparent}.d{fill:rgb(128,128,128);white-space:pre}.e{fill:rgb(135,215,255);font-weight:bold;white-space:pre}.f{fill:rgb(171,178,191);font-weight:bold;white-space:pre}.g{fill:rgb(175,215,135);font-weight:bold;white-space:pre}.h{fill:rgb(128,128,128);font-weight:bold;white-space:pre}.i{fill:rgb(171,178,191);white-space:pre}.j{fill:rgb(175,215,135);white-space:pre}</style><g font-family="Consolas, &quot;Courier New&quot;, Courier, &quot;Liberation Mono&quot;, monospace" font-size="1.67" class="b"><defs><symbol id="a"><rect height="15" width="64" x="0" y="0" class="c"></rect></symbol></defs><rect height="27.555" width="64" class="a"></rect><svg x="0" y="0" width="64"><svg x="0"><use xlink:href="#a"></use><text x="0" y="1.67" class="d">Built-in</text><text x="9.017999999999999" y="1.67" class="d">theme</text><text x="15.029999999999998" y="1.67" class="d">preview</text><text x="23.045999999999996" y="1.67" class="d">›</text><text x="25.05" y="1.67" class="d">Preview</text><text x="0" y="3.5069999999999997" class="e">❯</text><text x="2.004" y="3.5069999999999997" class="f">Box</text><text x="6.012" y="3.5069999999999997" class="f">name</text><text x="12.024" y="3.5069999999999997" class="g">Weekly</text><text x="19.037999999999997" y="3.5069999999999997" class="g">Box</text><text x="4.008" y="5.343999999999999" class="h">Shown</text><text x="10.02" y="5.343999999999999" class="h">in</text><text x="13.026" y="5.343999999999999" class="h">the</text><text x="17.034" y="5.343999999999999" class="h">header.</text><text x="2.004" y="7.181" class="i">Grade</text><text x="9.017999999999999" y="7.181" class="j">premium</text><text x="4.008" y="9.018" class="d">Quality</text><text x="12.024" y="9.018" class="d">grade.</text><text x="2.004" y="10.855" class="i">Extras</text><text x="10.02" y="10.855" class="j">herbs,</text><text x="17.034" y="10.855" class="j">nuts</text><text x="4.008" y="12.692" class="d">Added</text><text x="10.02" y="12.692" class="d">extras.</text><text x="2.004" y="14.529" class="i">Gift</text><text x="7.013999999999999" y="14.529" class="i">wrap</text><text x="13.026" y="14.529" class="j">yes</text><text x="4.008" y="16.366" class="d">Wrap</text><text x="9.017999999999999" y="16.366" class="d">the</text><text x="13.026" y="16.366" class="d">box</text><text x="17.034" y="16.366" class="d">as</text><text x="20.04" y="16.366" class="d">a</text><text x="22.043999999999997" y="16.366" class="d">gift.</text><text x="0" y="20.04" class="d">↑/↓</text><text x="4.008" y="20.04" class="d">move</text><text x="9.017999999999999" y="20.04" class="d">·</text><text x="11.021999999999998" y="20.04" class="d">↵</text><text x="13.026" y="20.04" class="d">select</text><text x="20.04" y="20.04" class="d">·</text><text x="22.043999999999997" y="20.04" class="d">esc</text><text x="26.052" y="20.04" class="d">back</text><text x="31.061999999999998" y="20.04" class="d">·</text><text x="33.065999999999995" y="20.04" class="d">q</text><text x="35.06999999999999" y="20.04" class="d">quit</text><text x="40.08" y="20.04" class="d">·</text><text x="42.083999999999996" y="20.04" class="d">?</text><text x="44.087999999999994" y="20.04" class="d">help</text></svg></svg></g></svg></svg>