<svg xmlns="http://www.w3.org/2000/svg" xmlns:xlink="http://www.w3.org/1999/xlink" width="800" height="367.40000000000003"><rect width="800" height="367.40000000000003" rx="0" ry="0" class="a"></rect><svg height="367.40000000000003" viewBox="0 0 80 36.74" width="800" xmlns="http://www.w3.org/2000/svg" xmlns:xlink="http://www.w3.org/1999/xlink"><style>.a{fill:rgb(40,44,52)}.b{font-family:Consolas,"Courier New",Courier,"Liberation Mono",monospace}.c{fill:rgb(0,128,128);white-space:pre}.d{fill:rgb(0,255,255);font-weight:bold;white-space:pre}.e{fill:rgb(0,0,128);white-space:pre}.f{fill:rgb(171,178,191);white-space:pre}.g{fill:rgb(0,255,255);white-space:pre}.h{fill:rgb(128,128,128);white-space:pre}.i{fill:transparent}.j{fill:rgb(82,139,255)}.l{animation-duration:22.796s;animation-iteration-count:infinite;animation-name:k;animation-timing-function:steps(1,end)}.m{fill:rgb(0,0,128);font-weight:bold;white-space:pre}.n{fill:rgb(102,194,205)}.o{fill:rgb(40,44,52);font-weight:bold;white-space:pre}@keyframes k{0%{transform:translateX(-0px)}3.35%{transform:translateX(-80px)}12.17%{transform:translateX(-160px)}18.94%{transform:translateX(-240px)}25.55%{transform:translateX(-320px)}30.74%{transform:translateX(-400px)}31.35%{transform:translateX(-480px)}32.2%{transform:translateX(-560px)}32.9%{transform:translateX(-640px)}33.65%{transform:translateX(-720px)}34.38%{transform:translateX(-800px)}35.15%{transform:translateX(-880px)}35.9%{transform:translateX(-960px)}36.54%{transform:translateX(-1040px)}37.17%{transform:translateX(-1120px)}37.81%{transform:translateX(-1200px)}38.46%{transform:translateX(-1280px)}41.09%{transform:translateX(-1360px)}46.93%{transform:translateX(-1440px)}48.8%{transform:translateX(-1520px)}54.65%{transform:translateX(-1600px)}57.33%{transform:translateX(-1680px)}63.11%{transform:translateX(-1760px)}64.89%{transform:translateX(-1840px)}70.67%{transform:translateX(-1920px)}71.95%{transform:translateX(-2000px)}73.44%{transform:translateX(-2080px)}76.13%{transform:translateX(-2160px)}78.42%{transform:translateX(-2240px)}84.19%{transform:translateX(-2320px)}86.84%{transform:translateX(-2400px)}100%{transform:translateX(-2480px)}}</style><g font-family="Consolas, &quot;Courier New&quot;, Courier, &quot;Liberation Mono&quot;, monospace" font-size="1.67" class="b"><defs><symbol id="1"><text x="0" y="1.67" class="c">≈</text><text x="2.004" y="1.67" class="c">Ocean</text><text x="8.016" y="1.67" class="c">theme</text><text x="14.027999999999999" y="1.67" class="c">demo</text></symbol><symbol id="2"><text x="0" y="1.67" class="d">➤</text><text x="2.004" y="1.67" class="d">Diver</text><text x="8.016" y="1.67" class="d">profile</text><text x="17.034" y="1.67" class="e">»</text><text x="19.037999999999997" y="1.67" class="e">3</text><text x="21.041999999999998" y="1.67" class="e">items</text></symbol><symbol id="3"><text x="2.004" y="1.67" class="f">«</text><text x="4.008" y="1.67" class="f">Submit</text><text x="11.021999999999998" y="1.67" class="f">»</text><text x="15.029999999999998" y="1.67" class="f">«</text><text x="17.034" y="1.67" class="f">Cancel</text><text x="24.048" y="1.67" class="f">»</text></symbol><symbol id="4"><text x="0" y="1.67" class="c">↑↓</text><text x="3.006" y="1.67" class="c">move</text><text x="9.017999999999999" y="1.67" class="c">•</text><text x="14.027999999999999" y="1.67" class="c">choose</text><text x="22.043999999999997" y="1.67" class="c">•</text><text x="25.05" y="1.67" class="c">esc</text><text x="29.058" y="1.67" class="c">back</text></symbol><symbol id="5"><text x="0" y="1.67" class="c">≈</text><text x="2.004" y="1.67" class="c">Ocean</text><text x="8.016" y="1.67" class="c">theme</text><text x="14.027999999999999" y="1.67" class="c">demo</text><text x="19.037999999999997" y="1.67" class="c">/</text><text x="21.041999999999998" y="1.67" class="c">Diver</text><text x="27.054" y="1.67" class="c">profile</text></symbol><symbol id="6"><text x="2.004" y="1.67" class="f">Preferred</text><text x="12.024" y="1.67" class="f">depth:</text><text x="19.037999999999997" y="1.67" class="g">reef</text></symbol><symbol id="7"><text x="2.004" y="1.67" class="f">Gear:</text></symbol><symbol id="8"><text x="0" y="1.67" class="d">Name</text></symbol><symbol id="9"><text x="0" y="1.67" class="h">────</text></symbol><symbol id="10"><text x="2.004" y="1.67" class="c">accept</text><text x="9.017999999999999" y="1.67" class="c">•</text><text x="11.021999999999998" y="1.67" class="c">esc</text><text x="15.029999999999998" y="1.67" class="c">cancel</text></symbol><symbol id="11"><text x="2.004" y="1.67" class="f">Name:</text><text x="8.016" y="1.67" class="g">Nemo</text></symbol><symbol id="12"><text x="0" y="1.67" class="d">Preferred</text><text x="10.02" y="1.67" class="d">depth</text></symbol><symbol id="13"><text x="0" y="1.67" class="h">───────────────</text></symbol><symbol id="14"><text x="0" y="1.67" class="f">◯</text><text x="2.004" y="1.67" class="f">Surface</text></symbol><symbol id="15"><text x="2.004" y="1.67" class="f">Preferred</text><text x="12.024" y="1.67" class="f">depth:</text><text x="19.037999999999997" y="1.67" class="g">abyss</text></symbol><symbol id="16"><text x="0" y="1.67" class="d">Gear</text></symbol><symbol id="17"><text x="2.004" y="1.67" class="f">▢</text><text x="4.008" y="1.67" class="f">Fins</text></symbol><symbol id="18"><text x="2.004" y="1.67" class="f">▢</text><text x="4.008" y="1.67" class="f">Tank</text></symbol><symbol id="19"><text x="2.004" y="1.67" class="g">▣</text><text x="4.008" y="1.67" class="f">Mask</text></symbol><symbol id="20"><text x="0" y="1.67" class="f">{&quot;name&quot;:&quot;Nemo&quot;,&quot;depth&quot;:&quot;abyss&quot;,&quot;gear&quot;:[&quot;mask&quot;,&quot;fins&quot;]}</text></symbol><symbol id="a"><rect height="20" width="80" x="0" y="0" class="i"></rect></symbol><symbol id="b"><rect height="1.837" width="1.1022" class="j"></rect></symbol></defs><rect height="36.74" width="80" class="a"></rect><g class="l"><svg x="0" y="0" width="2560"><svg x="0"><use xlink:href="#a"></use><use xlink:href="#b" x="-0.0040000000000000036" y="0"></use></svg><svg x="80"><use xlink:href="#a"></use><text x="2.004" y="1.67" class="d">~</text><text x="4.008" y="1.67" class="d">~</text><text x="6.012" y="1.67" class="d">~</text><text x="9.017999999999999" y="1.67" class="d">O</text><text x="11.021999999999998" y="1.67" class="d">C</text><text x="13.026" y="1.67" class="d">E</text><text x="15.029999999999998" y="1.67" class="d">A</text><text x="17.034" y="1.67" class="d">N</text><text x="20.04" y="1.67" class="d">~</text><text x="22.043999999999997" y="1.67" class="d">~</text><text x="24.048" y="1.67" class="d">~</text><text x="0" y="5.343999999999999" class="c">≈</text><text x="2.004" y="5.343999999999999" class="c">1.0.0</text><text x="8.016" y="5.343999999999999" class="c">≈</text><text x="0" y="9.018" class="f">Press</text><text x="6.012" y="9.018" class="f">any</text><text x="10.02" y="9.018" class="f">key</text><text x="14.027999999999999" y="9.018" class="f">to</text><text x="17.034" y="9.018" class="f">continue...</text></svg><svg x="160"><use xlink:href="#a"></use><use xlink:href="#1" y="0"></use><use xlink:href="#2" y="1.837"></use><text x="4.008" y="5.343999999999999" class="m">»</text><text x="6.012" y="5.343999999999999" class="m">Explorer</text><text x="15.029999999999998" y="5.343999999999999" class="m">/</text><text x="17.034" y="5.343999999999999" class="m">reef</text><text x="22.043999999999997" y="5.343999999999999" class="m">/</text><use xlink:href="#3" y="5.511"></use><use xlink:href="#4" y="7.348"></use></svg><svg x="240"><use xlink:href="#a"></use><use xlink:href="#5" y="0"></use><text x="0" y="3.5069999999999997" class="d">➤</text><text x="2.004" y="3.5069999999999997" class="f">Name:</text><text x="8.016" y="3.5069999999999997" class="g">Explorer</text><use xlink:href="#6" y="3.674"></use><use xlink:href="#7" y="5.511"></use><use xlink:href="#4" y="7.348"></use></svg><svg x="320"><use xlink:href="#a"></use><use xlink:href="#8" y="0"></use><use xlink:href="#9" y="1.837"></use><text x="0" y="5.343999999999999" class="f">Explorer</text><text x="8.016" y="5.343999999999999" class="d">▎</text><use xlink:href="#10" y="7.348"></use></svg><svg x="400"><use xlink:href="#a"></use><use xlink:href="#8" y="0"></use><use xlink:href="#9" y="1.837"></use><text x="0" y="5.343999999999999" class="f">Explore</text><text x="7.013999999999999" y="5.343999999999999" class="d">▎</text><use xlink:href="#10" y="7.348"></use></svg><svg x="480"><use xlink:href="#a"></use><use xlink:href="#8" y="0"></use><use xlink:href="#9" y="1.837"></use><text x="0" y="5.343999999999999" class="f">Explor</text><text x="6.012" y="5.343999999999999" class="d">▎</text><use xlink:href="#10" y="7.348"></use></svg><svg x="560"><use xlink:href="#a"></use><use xlink:href="#8" y="0"></use><use xlink:href="#9" y="1.837"></use><text x="0" y="5.343999999999999" class="f">Explo</text><text x="5.01" y="5.343999999999999" class="d">▎</text><use xlink:href="#10" y="7.348"></use></svg><svg x="640"><use xlink:href="#a"></use><use xlink:href="#8" y="0"></use><use xlink:href="#9" y="1.837"></use><text x="0" y="5.343999999999999" class="f">Expl</text><text x="4.008" y="5.343999999999999" class="d">▎</text><use xlink:href="#10" y="7.348"></use></svg><svg x="720"><use xlink:href="#a"></use><use xlink:href="#8" y="0"></use><use xlink:href="#9" y="1.837"></use><text x="0" y="5.343999999999999" class="f">Exp</text><text x="3.006" y="5.343999999999999" class="d">▎</text><use xlink:href="#10" y="7.348"></use></svg><svg x="800"><use xlink:href="#a"></use><use xlink:href="#8" y="0"></use><use xlink:href="#9" y="1.837"></use><text x="0" y="5.343999999999999" class="f">Ex</text><text x="2.004" y="5.343999999999999" class="d">▎</text><use xlink:href="#10" y="7.348"></use></svg><svg x="880"><use xlink:href="#a"></use><use xlink:href="#8" y="0"></use><use xlink:href="#9" y="1.837"></use><text x="0" y="5.343999999999999" class="f">E</text><text x="1.002" y="5.343999999999999" class="d">▎</text><use xlink:href="#10" y="7.348"></use></svg><svg x="960"><use xlink:href="#a"></use><use xlink:href="#8" y="0"></use><use xlink:href="#9" y="1.837"></use><text x="0" y="5.343999999999999" class="d">▎</text><use xlink:href="#10" y="7.348"></use></svg><svg x="1040"><use xlink:href="#a"></use><use xlink:href="#8" y="0"></use><use xlink:href="#9" y="1.837"></use><text x="0" y="5.343999999999999" class="f">N</text><text x="1.002" y="5.343999999999999" class="d">▎</text><use xlink:href="#10" y="7.348"></use></svg><svg x="1120"><use xlink:href="#a"></use><use xlink:href="#8" y="0"></use><use xlink:href="#9" y="1.837"></use><text x="0" y="5.343999999999999" class="f">Ne</text><text x="2.004" y="5.343999999999999" class="d">▎</text><use xlink:href="#10" y="7.348"></use></svg><svg x="1200"><use xlink:href="#a"></use><use xlink:href="#8" y="0"></use><use xlink:href="#9" y="1.837"></use><text x="0" y="5.343999999999999" class="f">Nem</text><text x="3.006" y="5.343999999999999" class="d">▎</text><use xlink:href="#10" y="7.348"></use></svg><svg x="1280"><use xlink:href="#a"></use><use xlink:href="#8" y="0"></use><use xlink:href="#9" y="1.837"></use><text x="0" y="5.343999999999999" class="f">Nemo</text><text x="4.008" y="5.343999999999999" class="d">▎</text><use xlink:href="#10" y="7.348"></use></svg><svg x="1360"><use xlink:href="#a"></use><use xlink:href="#5" y="0"></use><text x="0" y="3.5069999999999997" class="d">➤</text><text x="2.004" y="3.5069999999999997" class="f">Name:</text><text x="8.016" y="3.5069999999999997" class="g">Nemo</text><use xlink:href="#6" y="3.674"></use><use xlink:href="#7" y="5.511"></use><use xlink:href="#4" y="7.348"></use></svg><svg x="1440"><use xlink:href="#a"></use><use xlink:href="#5" y="0"></use><use xlink:href="#11" y="1.837"></use><text x="0" y="5.343999999999999" class="d">➤</text><text x="2.004" y="5.343999999999999" class="f">Preferred</text><text x="12.024" y="5.343999999999999" class="f">depth:</text><text x="19.037999999999997" y="5.343999999999999" class="g">reef</text><use xlink:href="#7" y="5.511"></use><use xlink:href="#4" y="7.348"></use></svg><svg x="1520"><use xlink:href="#a"></use><use xlink:href="#12" y="0"></use><use xlink:href="#13" y="1.837"></use><use xlink:href="#14" y="3.674"></use><text x="0" y="7.181" class="d">◉</text><text x="2.004" y="7.181" class="d">Reef</text><text x="0" y="9.018" class="f">◯</text><text x="2.004" y="9.018" class="f">Abyss</text><use xlink:href="#10" y="11.022"></use></svg><svg x="1600"><use xlink:href="#a"></use><use xlink:href="#12" y="0"></use><use xlink:href="#13" y="1.837"></use><use xlink:href="#14" y="3.674"></use><text x="0" y="7.181" class="f">◯</text><text x="2.004" y="7.181" class="f">Reef</text><text x="0" y="9.018" class="d">◉</text><text x="2.004" y="9.018" class="d">Abyss</text><use xlink:href="#10" y="11.022"></use></svg><svg x="1680"><use xlink:href="#a"></use><use xlink:href="#5" y="0"></use><use xlink:href="#11" y="1.837"></use><text x="0" y="5.343999999999999" class="d">➤</text><text x="2.004" y="5.343999999999999" class="f">Preferred</text><text x="12.024" y="5.343999999999999" class="f">depth:</text><text x="19.037999999999997" y="5.343999999999999" class="g">abyss</text><use xlink:href="#7" y="5.511"></use><use xlink:href="#4" y="7.348"></use></svg><svg x="1760"><use xlink:href="#a"></use><use xlink:href="#5" y="0"></use><use xlink:href="#11" y="1.837"></use><use xlink:href="#15" y="3.674"></use><text x="0" y="7.181" class="d">➤</text><text x="2.004" y="7.181" class="f">Gear:</text><use xlink:href="#4" y="7.348"></use></svg><svg x="1840"><use xlink:href="#a"></use><use xlink:href="#16" y="0"></use><use xlink:href="#9" y="1.837"></use><text x="0" y="5.343999999999999" class="d">➤</text><text x="2.004" y="5.343999999999999" class="f">▢</text><text x="4.008" y="5.343999999999999" class="d">Mask</text><use xlink:href="#17" y="5.511"></use><use xlink:href="#18" y="7.348"></use><use xlink:href="#10" y="11.022"></use></svg><svg x="1920"><use xlink:href="#a"></use><use xlink:href="#16" y="0"></use><use xlink:href="#9" y="1.837"></use><text x="0" y="5.343999999999999" class="d">➤</text><text x="2.004" y="5.343999999999999" class="g">▣</text><text x="4.008" y="5.343999999999999" class="d">Mask</text><use xlink:href="#17" y="5.511"></use><use xlink:href="#18" y="7.348"></use><use xlink:href="#10" y="11.022"></use></svg><svg x="2000"><use xlink:href="#a"></use><use xlink:href="#16" y="0"></use><use xlink:href="#9" y="1.837"></use><use xlink:href="#19" y="3.674"></use><text x="0" y="7.181" class="d">➤</text><text x="2.004" y="7.181" class="f">▢</text><text x="4.008" y="7.181" class="d">Fins</text><use xlink:href="#18" y="7.348"></use><use xlink:href="#10" y="11.022"></use></svg><svg x="2080"><use xlink:href="#a"></use><use xlink:href="#16" y="0"></use><use xlink:href="#9" y="1.837"></use><use xlink:href="#19" y="3.674"></use><text x="0" y="7.181" class="d">➤</text><text x="2.004" y="7.181" class="g">▣</text><text x="4.008" y="7.181" class="d">Fins</text><use xlink:href="#18" y="7.348"></use><use xlink:href="#10" y="11.022"></use></svg><svg x="2160"><use xlink:href="#a"></use><use xlink:href="#5" y="0"></use><use xlink:href="#11" y="1.837"></use><use xlink:href="#15" y="3.674"></use><text x="0" y="7.181" class="d">➤</text><text x="2.004" y="7.181" class="f">Gear:</text><text x="8.016" y="7.181" class="g">mask,</text><text x="14.027999999999999" y="7.181" class="g">fins</text><use xlink:href="#4" y="7.348"></use></svg><svg x="2240"><use xlink:href="#a"></use><use xlink:href="#1" y="0"></use><use xlink:href="#2" y="1.837"></use><text x="4.008" y="5.343999999999999" class="m">»</text><text x="6.012" y="5.343999999999999" class="m">Nemo</text><text x="11.021999999999998" y="5.343999999999999" class="m">/</text><text x="13.026" y="5.343999999999999" class="m">abyss</text><text x="19.037999999999997" y="5.343999999999999" class="m">/</text><text x="21.041999999999998" y="5.343999999999999" class="m">mask,</text><text x="27.054" y="5.343999999999999" class="m">fins</text><use xlink:href="#3" y="5.511"></use><use xlink:href="#4" y="7.348"></use></svg><svg x="2320"><use xlink:href="#a"></use><use xlink:href="#1" y="0"></use><text x="2.004" y="3.5069999999999997" class="d">Diver</text><text x="8.016" y="3.5069999999999997" class="d">profile</text><text x="17.034" y="3.5069999999999997" class="e">»</text><text x="19.037999999999997" y="3.5069999999999997" class="e">3</text><text x="21.041999999999998" y="3.5069999999999997" class="e">items</text><text x="4.008" y="5.343999999999999" class="e">»</text><text x="6.012" y="5.343999999999999" class="e">Nemo</text><text x="11.021999999999998" y="5.343999999999999" class="e">/</text><text x="13.026" y="5.343999999999999" class="e">abyss</text><text x="19.037999999999997" y="5.343999999999999" class="e">/</text><text x="21.041999999999998" y="5.343999999999999" class="e">mask,</text><text x="27.054" y="5.343999999999999" class="e">fins</text><rect height="1.837" width="10" x="2.004" y="5.511" class="n"></rect><text x="2.004" y="7.181" class="o">« Submit »</text><text x="15.029999999999998" y="7.181" class="f">«</text><text x="17.034" y="7.181" class="f">Cancel</text><text x="24.048" y="7.181" class="f">»</text><use xlink:href="#4" y="7.348"></use></svg><svg x="2400"><use xlink:href="#a"></use><use xlink:href="#b" x="-0.0040000000000000036" y="1.662"></use><use xlink:href="#20" y="0"></use></svg><svg x="2480"><use xlink:href="#a"></use><use xlink:href="#b" x="0.996" y="1.662"></use><use xlink:href="#20" y="0"></use></svg></svg></g></g></svg></svg>