<svg xmlns="http://www.w3.org/2000/svg" xmlns:xlink="http://www.w3.org/1999/xlink" width="760" height="330.66"><rect width="760" height="330.66" rx="0" ry="0" class="a"></rect><svg height="330.66" viewBox="0 0 76 33.066" width="760" xmlns="http://www.w3.org/2000/svg" xmlns:xlink="http://www.w3.org/1999/xlink"><style>.a{fill:rgb(0,0,170)}.b{font-family:Consolas,"Courier New",Courier,"Liberation Mono",monospace}.c{fill:rgb(255,255,255);white-space:pre}.d{fill:rgb(170,170,170);white-space:pre}.e{fill:transparent}.f{fill:rgb(82,139,255)}.g{fill:rgb(192,192,192);white-space:pre}.h{fill:rgb(255,255,255);font-weight:bold;white-space:pre}.i{fill:rgb(0,255,255);font-weight:bold;white-space:pre}.j{fill:rgb(192,192,192);font-weight:bold;white-space:pre}.k{fill:rgb(0,255,255);white-space:pre}.l{fill:rgb(255,255,0);white-space:pre}</style><g font-family="Consolas, &quot;Courier New&quot;, Courier, &quot;Liberation Mono&quot;, monospace" font-size="1.67" class="b"><defs><symbol id="1"><rect height="1.837" width="75" x="0" y="0" class="a"></rect><text x="0" y="1.67" class="c">╠══════════════════════════════════════════════════════════════════════════</text><rect height="1.837" width="1" x="75.14999999999999" y="0" class="a"></rect><text x="75.14999999999999" y="1.67" class="d"> </text></symbol><symbol id="2"><rect height="1.837" width="1" x="0" y="0" class="a"></rect><text x="0" y="1.67" class="c">║</text><rect height="1.837" width="75" x="1.002" y="0" class="a"></rect><text x="1.002" y="1.67" class="d">                                                                           </text></symbol><symbol id="a"><rect height="18" width="76" x="0" y="0" class="e"></rect></symbol><symbol id="b"><rect height="1.837" width="1.1022" class="f"></rect></symbol></defs><rect height="33.066" width="76" class="a"></rect><svg x="0" y="0" width="76"><svg x="0"><use xlink:href="#a"></use><use xlink:href="#b" x="75.996" y="29.217"></use><rect height="1.837" width="75" x="0" y="0" class="a"></rect><text x="0" y="1.67" class="c">╔══════════════════════════════════════════════════════════════════════════</text><rect height="1.837" width="1" x="75.14999999999999" y="0" class="a"></rect><text x="75.14999999999999" y="1.67" class="d"> </text><rect height="1.837" width="1" x="0" y="1.8369999999999997" class="a"></rect><text x="0" y="3.5069999999999997" class="c">║</text><rect height="1.837" width="1" x="1.002" y="1.8369999999999997" class="a"></rect><text x="1.002" y="3.5069999999999997" class="d"> </text><rect height="1.837" width="23" x="2.004" y="1.8369999999999997" class="a"></rect><text x="2.004" y="3.5069999999999997" class="g">Theme preview › Preview</text><rect height="1.837" width="51" x="25.05" y="1.8369999999999997" class="a"></rect><text x="25.05" y="3.5069999999999997" class="d">                                                   </text><use xlink:href="#1" y="3.674"></use><use xlink:href="#2" y="5.511"></use><rect height="1.837" width="1" x="0" y="7.348000000000001" class="a"></rect><text x="0" y="9.018" class="c">║</text><rect height="1.837" width="1" x="1.002" y="7.348000000000001" class="a"></rect><text x="1.002" y="9.018" class="d"> </text><rect height="1.837" width="1" x="2.004" y="7.348000000000001" class="a"></rect><text x="2.004" y="9.018" class="h">❯</text><rect height="1.837" width="1" x="3.006" y="7.348000000000001" class="a"></rect><text x="3.006" y="9.018" class="d"> </text><rect height="1.837" width="8" x="4.008" y="7.348000000000001" class="a"></rect><text x="4.008" y="9.018" class="h">Box name</text><rect height="1.837" width="2" x="12.024" y="7.348000000000001" class="a"></rect><text x="12.024" y="9.018" class="d">  </text><rect height="1.837" width="10" x="14.027999999999999" y="7.348000000000001" class="a"></rect><text x="14.027999999999999" y="9.018" class="i">Weekly Box</text><rect height="1.837" width="52" x="24.048" y="7.348000000000001" class="a"></rect><text x="24.048" y="9.018" class="d">                                                    </text><rect height="1.837" width="1" x="0" y="9.185" class="a"></rect><text x="0" y="10.855" class="c">║</text><rect height="1.837" width="5" x="1.002" y="9.185" class="a"></rect><text x="1.002" y="10.855" class="d">     </text><rect height="1.837" width="20" x="6.012" y="9.185" class="a"></rect><text x="6.012" y="10.855" class="j">Shown in the header.</text><rect height="1.837" width="50" x="26.052" y="9.185" class="a"></rect><text x="26.052" y="10.855" class="d">                                                  </text><use xlink:href="#2" y="11.022"></use><rect height="1.837" width="1" x="0" y="12.859" class="a"></rect><text x="0" y="14.529" class="c">║</text><rect height="1.837" width="10" x="1.002" y="12.859" class="a"></rect><text x="1.002" y="14.529" class="d">   Grade  </text><rect height="1.837" width="7" x="11.021999999999998" y="12.859" class="a"></rect><text x="11.021999999999998" y="14.529" class="k">premium</text><rect height="1.837" width="58" x="18.035999999999998" y="12.859" class="a"></rect><text x="18.035999999999998" y="14.529" class="d">                                                          </text><rect height="1.837" width="1" x="0" y="14.696" class="a"></rect><text x="0" y="16.366" class="c">║</text><rect height="1.837" width="5" x="1.002" y="14.696" class="a"></rect><text x="1.002" y="16.366" class="d">     </text><rect height="1.837" width="14" x="6.012" y="14.696" class="a"></rect><text x="6.012" y="16.366" class="g">Quality grade.</text><rect height="1.837" width="56" x="20.04" y="14.696" class="a"></rect><text x="20.04" y="16.366" class="d">                                                        </text><use xlink:href="#2" y="16.533"></use><rect height="1.837" width="1" x="0" y="18.369999999999997" class="a"></rect><text x="0" y="20.04" class="c">║</text><rect height="1.837" width="11" x="1.002" y="18.369999999999997" class="a"></rect><text x="1.002" y="20.04" class="d">   Extras  </text><rect height="1.837" width="11" x="12.024" y="18.369999999999997" class="a"></rect><text x="12.024" y="20.04" class="k">herbs, nuts</text><rect height="1.837" width="53" x="23.045999999999996" y="18.369999999999997" class="a"></rect><text x="23.045999999999996" y="20.04" class="d">                                                     </text><rect height="1.837" width="1" x="0" y="20.206999999999994" class="a"></rect><text x="0" y="21.876999999999995" class="c">║</text><rect height="1.837" width="5" x="1.002" y="20.206999999999994" class="a"></rect><text x="1.002" y="21.876999999999995" class="d">     </text><rect height="1.837" width="13" x="6.012" y="20.206999999999994" class="a"></rect><text x="6.012" y="21.876999999999995" class="g">Added extras.</text><rect height="1.837" width="57" x="19.037999999999997" y="20.206999999999994" class="a"></rect><text x="19.037999999999997" y="21.876999999999995" class="d">                                                         </text><rect height="1.837" width="1" x="0" y="22.043999999999997" class="a"></rect><text x="0" y="23.714" class="c">║</text><rect height="1.837" width="1" x="1.002" y="22.043999999999997" class="a"></rect><text x="1.002" y="23.714" class="d"> </text><rect height="1.837" width="3" x="2.004" y="22.043999999999997" class="a"></rect><text x="2.004" y="23.714" class="l">  ▼</text><rect height="1.837" width="71" x="5.01" y="22.043999999999997" class="a"></rect><text x="5.01" y="23.714" class="d">                                                                       </text><use xlink:href="#2" y="23.881000000000004"></use><use xlink:href="#1" y="25.718"></use><rect height="1.837" width="1" x="0" y="27.555" class="a"></rect><text x="0" y="29.225" class="c">║</text><rect height="1.837" width="1" x="1.002" y="27.555" class="a"></rect><text x="1.002" y="29.225" class="d"> </text><rect height="1.837" width="48" x="2.004" y="27.555" class="a"></rect><text x="2.004" y="29.225" class="g">↑/↓ move · ↵ select · esc back · q quit · ? help</text><rect height="1.837" width="26" x="50.1" y="27.555" class="a"></rect><text x="50.1" y="29.225" class="d">                          </text><rect height="1.837" width="75" x="0" y="29.391999999999996" class="a"></rect><text x="0" y="31.061999999999998" class="c">╚══════════════════════════════════════════════════════════════════════════</text><rect height="1.837" width="1" x="75.14999999999999" y="29.391999999999996" class="a"></rect><text x="75.14999999999999" y="31.061999999999998" class="d"> </text></svg></svg></g></svg></svg>