<svg xmlns="http://www.w3.org/2000/svg" xmlns:xlink="http://www.w3.org/1999/xlink" width="760" height="293.92"><rect width="760" height="293.92" rx="0" ry="0" class="a"></rect><svg height="293.92" viewBox="0 0 76 29.392" width="760" xmlns="http://www.w3.org/2000/svg" xmlns:xlink="http://www.w3.org/1999/xlink"><style>.a{fill:rgb(0,0,170)}.b{font-family:Consolas,"Courier New",Courier,"Liberation Mono",monospace}.c{fill:rgb(113,190,242)}.d{fill:rgb(255,255,255);white-space:pre}.e{fill:rgb(170,170,170);white-space:pre}.f{fill:transparent}.g{fill:rgb(82,139,255)}.h{fill:rgb(128,128,128);white-space:pre}.i{fill:rgb(255,255,255);font-weight:bold;white-space:pre}.j{fill:rgb(0,255,255);font-weight:bold;white-space:pre}.k{fill:rgb(128,128,128);font-weight:bold;white-space:pre}.l{fill:rgb(0,255,255);white-space:pre}</style><g font-family="Consolas, &quot;Courier New&quot;, Courier, &quot;Liberation Mono&quot;, monospace" font-size="1.67" class="b"><defs><symbol id="1"><rect height="1.837" width="75" x="0" y="0" class="c"></rect><text x="0" y="1.67" class="d">╠══════════════════════════════════════════════════════════════════════════</text><rect height="1.837" width="1" x="75.14999999999999" y="0" class="c"></rect><text x="75.14999999999999" y="1.67" class="e"> </text></symbol><symbol id="a"><rect height="16" width="76" x="0" y="0" class="f"></rect></symbol><symbol id="b"><rect height="1.837" width="1.1022" class="g"></rect></symbol></defs><rect height="29.392" width="76" class="a"></rect><svg x="0" y="0" width="76"><svg x="0"><use xlink:href="#a"></use><use xlink:href="#b" x="75.996" y="23.706000000000003"></use><rect height="1.837" width="75" x="0" y="0" class="c"></rect><text x="0" y="1.67" class="d">╔══════════════════════════════════════════════════════════════════════════</text><rect height="1.837" width="1" x="75.14999999999999" y="0" class="c"></rect><text x="75.14999999999999" y="1.67" class="e"> </text><rect height="1.837" width="1" x="0" y="1.8369999999999997" class="c"></rect><text x="0" y="3.5069999999999997" class="d">║</text><rect height="1.837" width="1" x="1.002" y="1.8369999999999997" class="c"></rect><text x="1.002" y="3.5069999999999997" class="e"> </text><rect height="1.837" width="23" x="2.004" y="1.8369999999999997" class="c"></rect><text x="2.004" y="3.5069999999999997" class="h">Theme preview › Preview</text><rect height="1.837" width="51" x="25.05" y="1.8369999999999997" class="c"></rect><text x="25.05" y="3.5069999999999997" class="e">                                                   </text><use xlink:href="#1" y="3.674"></use><rect height="1.837" width="1" x="0" y="5.511" class="c"></rect><text x="0" y="7.181" class="d">║</text><rect height="1.837" width="1" x="1.002" y="5.511" class="c"></rect><text x="1.002" y="7.181" class="e"> </text><rect height="1.837" width="1" x="2.004" y="5.511" class="c"></rect><text x="2.004" y="7.181" class="i">❯</text><rect height="1.837" width="1" x="3.006" y="5.511" class="c"></rect><text x="3.006" y="7.181" class="e"> </text><rect height="1.837" width="8" x="4.008" y="5.511" class="c"></rect><text x="4.008" y="7.181" class="i">Box name</text><rect height="1.837" width="2" x="12.024" y="5.511" class="c"></rect><text x="12.024" y="7.181" class="e">  </text><rect height="1.837" width="10" x="14.027999999999999" y="5.511" class="c"></rect><text x="14.027999999999999" y="7.181" class="j">Weekly Box</text><rect height="1.837" width="52" x="24.048" y="5.511" class="c"></rect><text x="24.048" y="7.181" class="e">                                                    </text><rect height="1.837" width="1" x="0" y="7.348000000000001" class="c"></rect><text x="0" y="9.018" class="d">║</text><rect height="1.837" width="5" x="1.002" y="7.348000000000001" class="c"></rect><text x="1.002" y="9.018" class="e">     </text><rect height="1.837" width="20" x="6.012" y="7.348000000000001" class="c"></rect><text x="6.012" y="9.018" class="k">Shown in the header.</text><rect height="1.837" width="50" x="26.052" y="7.348000000000001" class="c"></rect><text x="26.052" y="9.018" class="e">                                                  </text><rect height="1.837" width="1" x="0" y="9.185" class="c"></rect><text x="0" y="10.855" class="d">║</text><rect height="1.837" width="10" x="1.002" y="9.185" class="c"></rect><text x="1.002" y="10.855" class="e">   Grade  </text><rect height="1.837" width="7" x="11.021999999999998" y="9.185" class="c"></rect><text x="11.021999999999998" y="10.855" class="l">premium</text><rect height="1.837" width="58" x="18.035999999999998" y="9.185" class="c"></rect><text x="18.035999999999998" y="10.855" class="e">                                                          </text><rect height="1.837" width="1" x="0" y="11.022" class="c"></rect><text x="0" y="12.692" class="d">║</text><rect height="1.837" width="5" x="1.002" y="11.022" class="c"></rect><text x="1.002" y="12.692" class="e">     </text><rect height="1.837" width="14" x="6.012" y="11.022" class="c"></rect><text x="6.012" y="12.692" class="h">Quality grade.</text><rect height="1.837" width="56" x="20.04" y="11.022" class="c"></rect><text x="20.04" y="12.692" class="e">                                                        </text><rect height="1.837" width="1" x="0" y="12.859" class="c"></rect><text x="0" y="14.529" class="d">║</text><rect height="1.837" width="11" x="1.002" y="12.859" class="c"></rect><text x="1.002" y="14.529" class="e">   Extras  </text><rect height="1.837" width="11" x="12.024" y="12.859" class="c"></rect><text x="12.024" y="14.529" class="l">herbs, nuts</text><rect height="1.837" width="53" x="23.045999999999996" y="12.859" class="c"></rect><text x="23.045999999999996" y="14.529" class="e">                                                     </text><rect height="1.837" width="1" x="0" y="14.696" class="c"></rect><text x="0" y="16.366" class="d">║</text><rect height="1.837" width="5" x="1.002" y="14.696" class="c"></rect><text x="1.002" y="16.366" class="e">     </text><rect height="1.837" width="13" x="6.012" y="14.696" class="c"></rect><text x="6.012" y="16.366" class="h">Added extras.</text><rect height="1.837" width="57" x="19.037999999999997" y="14.696" class="c"></rect><text x="19.037999999999997" y="16.366" class="e">                                                         </text><rect height="1.837" width="1" x="0" y="16.533" class="c"></rect><text x="0" y="18.203000000000003" class="d">║</text><rect height="1.837" width="14" x="1.002" y="16.533" class="c"></rect><text x="1.002" y="18.203000000000003" class="e">   Gift wrap  </text><rect height="1.837" width="3" x="15.029999999999998" y="16.533" class="c"></rect><text x="15.029999999999998" y="18.203000000000003" class="l">yes</text><rect height="1.837" width="58" x="18.035999999999998" y="16.533" class="c"></rect><text x="18.035999999999998" y="18.203000000000003" class="e">                                                          </text><rect height="1.837" width="1" x="0" y="18.369999999999997" class="c"></rect><text x="0" y="20.04" class="d">║</text><rect height="1.837" width="5" x="1.002" y="18.369999999999997" class="c"></rect><text x="1.002" y="20.04" class="e">     </text><rect height="1.837" width="23" x="6.012" y="18.369999999999997" class="c"></rect><text x="6.012" y="20.04" class="h">Wrap the box as a gift.</text><rect height="1.837" width="47" x="29.058" y="18.369999999999997" class="c"></rect><text x="29.058" y="20.04" class="e">                                               </text><use xlink:href="#1" y="20.206999999999997"></use><rect height="1.837" width="1" x="0" y="22.043999999999997" class="c"></rect><text x="0" y="23.714" class="d">║</text><rect height="1.837" width="1" x="1.002" y="22.043999999999997" class="c"></rect><text x="1.002" y="23.714" class="e"> </text><rect height="1.837" width="48" x="2.004" y="22.043999999999997" class="c"></rect><text x="2.004" y="23.714" class="h">↑/↓ move · ↵ select · esc back · q quit · ? help</text><rect height="1.837" width="26" x="50.1" y="22.043999999999997" class="c"></rect><text x="50.1" y="23.714" class="e">                          </text><rect height="1.837" width="75" x="0" y="23.881" class="c"></rect><text x="0" y="25.551000000000002" class="d">╚══════════════════════════════════════════════════════════════════════════</text><rect height="1.837" width="1" x="75.14999999999999" y="23.881" class="c"></rect><text x="75.14999999999999" y="25.551000000000002" class="e"> </text></svg></svg></g></svg></svg>