<svg xmlns="http://www.w3.org/2000/svg" xmlns:xlink="http://www.w3.org/1999/xlink" width="760" height="312.29"><rect width="760" height="312.29" rx="0" ry="0" class="a"></rect><svg height="312.29" viewBox="0 0 76 31.229000000000003" width="760" xmlns="http://www.w3.org/2000/svg" xmlns:xlink="http://www.w3.org/1999/xlink"><style>.a{fill:rgb(250,250,250)}.b{font-family:Consolas,"Courier New",Courier,"Liberation Mono",monospace}.c{fill:rgb(148,148,148);white-space:pre}.d{fill:transparent}.e{fill:rgb(82,139,255)}.f{fill:rgb(128,128,128);white-space:pre}.g{fill:rgb(40,44,52);font-weight:bold;white-space:pre}.h{fill:rgb(88,88,88);font-weight:bold;white-space:pre}.i{fill:rgb(128,128,128);font-weight:bold;white-space:pre}.j{fill:rgb(56,58,66);white-space:pre}.k{fill:rgb(88,88,88);white-space:pre}</style><g font-family="Consolas, &quot;Courier New&quot;, Courier, &quot;Liberation Mono&quot;, monospace" font-size="1.67" class="b"><defs><symbol id="1"><text x="0" y="1.67" class="c">├──────────────────────────────────────────────────────────────────────────┤</text></symbol><symbol id="a"><rect height="17" width="76" x="0" y="0" class="d"></rect></symbol><symbol id="b"><rect height="1.837" width="1.1022" class="e"></rect></symbol></defs><rect height="31.229000000000003" width="76" class="a"></rect><svg x="0" y="0" width="76"><svg x="0"><use xlink:href="#a"></use><use xlink:href="#b" x="75.996" y="23.706000000000003"></use><text x="0" y="1.67" class="c">╭──────────────────────────────────────────────────────────────────────────╮</text><text x="0" y="3.5069999999999997" class="c">│</text><text x="2.004" y="3.5069999999999997" class="f">Theme</text><text x="8.016" y="3.5069999999999997" class="f">preview</text><text x="16.032" y="3.5069999999999997" class="f">›</text><text x="18.035999999999998" y="3.5069999999999997" class="f">Preview</text><text x="75.14999999999999" y="3.5069999999999997" class="c">│</text><use xlink:href="#1" y="3.674"></use><text x="0" y="7.181" class="c">│</text><text x="2.004" y="7.181" class="g">❯</text><text x="4.008" y="7.181" class="g">Box</text><text x="8.016" y="7.181" class="g">name</text><text x="14.027999999999999" y="7.181" class="h">Weekly</text><text x="21.041999999999998" y="7.181" class="h">Box</text><text x="75.14999999999999" y="7.181" class="c">│</text><text x="0" y="9.018" class="c">│</text><text x="6.012" y="9.018" class="i">Shown</text><text x="12.024" y="9.018" class="i">in</text><text x="15.029999999999998" y="9.018" class="i">the</text><text x="19.037999999999997" y="9.018" class="i">header.</text><text x="75.14999999999999" y="9.018" class="c">│</text><text x="0" y="10.855" class="c">│</text><text x="4.008" y="10.855" class="j">Grade</text><text x="11.021999999999998" y="10.855" class="k">premium</text><text x="75.14999999999999" y="10.855" class="c">│</text><text x="0" y="12.692" class="c">│</text><text x="6.012" y="12.692" class="f">Quality</text><text x="14.027999999999999" y="12.692" class="f">grade.</text><text x="75.14999999999999" y="12.692" class="c">│</text><text x="0" y="14.529" class="c">│</text><text x="4.008" y="14.529" class="j">Extras</text><text x="12.024" y="14.529" class="k">herbs,</text><text x="19.037999999999997" y="14.529" class="k">nuts</text><text x="75.14999999999999" y="14.529" class="c">│</text><text x="0" y="16.366" class="c">│</text><text x="6.012" y="16.366" class="f">Added</text><text x="12.024" y="16.366" class="f">extras.</text><text x="75.14999999999999" y="16.366" class="c">│</text><text x="0" y="18.203000000000003" class="c">│</text><text x="4.008" y="18.203000000000003" class="j">Gift</text><text x="9.017999999999999" y="18.203000000000003" class="j">wrap</text><text x="15.029999999999998" y="18.203000000000003" class="k">yes</text><text x="75.14999999999999" y="18.203000000000003" class="c">│</text><text x="0" y="20.04" class="c">│</text><text x="6.012" y="20.04" class="f">Wrap</text><text x="11.021999999999998" y="20.04" class="f">the</text><text x="15.029999999999998" y="20.04" class="f">box</text><text x="19.037999999999997" y="20.04" class="f">as</text><text x="22.043999999999997" y="20.04" class="f">a</text><text x="24.048" y="20.04" class="f">gift.</text><text x="75.14999999999999" y="20.04" class="c">│</text><use xlink:href="#1" y="20.206999999999997"></use><text x="0" y="23.714" class="c">│</text><text x="2.004" y="23.714" class="f">↑/↓</text><text x="6.012" y="23.714" class="f">move</text><text x="11.021999999999998" y="23.714" class="f">·</text><text x="13.026" y="23.714" class="f">↵</text><text x="15.029999999999998" y="23.714" class="f">select</text><text x="22.043999999999997" y="23.714" class="f">·</text><text x="24.048" y="23.714" class="f">esc</text><text x="28.055999999999997" y="23.714" class="f">back</text><text x="33.065999999999995" y="23.714" class="f">·</text><text x="35.06999999999999" y="23.714" class="f">q</text><text x="37.074" y="23.714" class="f">quit</text><text x="42.083999999999996" y="23.714" class="f">·</text><text x="44.087999999999994" y="23.714" class="f">?</text><text x="46.09199999999999" y="23.714" class="f">help</text><text x="75.14999999999999" y="23.714" class="c">│</text><text x="0" y="25.551000000000002" class="c">╰──────────────────────────────────────────────────────────────────────────╯</text></svg></svg></g></svg></svg>