<svg xmlns="http://www.w3.org/2000/svg" xmlns:xlink="http://www.w3.org/1999/xlink" width="640" height="275.55"><rect width="640" height="275.55" rx="0" ry="0" class="a"></rect><svg height="275.55" viewBox="0 0 64 27.555" width="640" xmlns="http://www.w3.org/2000/svg" xmlns:xlink="http://www.w3.org/1999/xlink"><style>.a{fill:rgb(250,250,250)}.b{font-family:Consolas,"Courier New",Courier,"Liberation Mono",monospace}.c{fill:transparent}.d{fill:rgb(128,128,128);white-space:pre}.e{fill:rgb(0,95,175);font-weight:bold;white-space:pre}.f{fill:rgb(40,44,52);font-weight:bold;white-space:pre}.g{fill:rgb(95,135,95);font-weight:bold;white-space:pre}.h{fill:rgb(128,128,128);font-weight:bold;white-space:pre}.i{fill:rgb(56,58,66);white-space:pre}.j{fill:rgb(95,135,95);white-space:pre}</style><g font-family="Consolas, &quot;Courier New&quot;, Courier, &quot;Liberation Mono&quot;, monospace" font-size="1.67" class="b"><defs><symbol id="a"><rect height="15" width="64" x="0" y="0" class="c"></rect></symbol></defs><rect height="27.555" width="64" class="a"></rect><svg x="0" y="0" width="64"><svg x="0"><use xlink:href="#a"></use><text x="0" y="1.67" class="d">Built-in</text><text x="9.017999999999999" y="1.67" class="d">theme</text><text x="15.029999999999998" y="1.67" class="d">preview</text><text x="23.045999999999996" y="1.67" class="d">›</text><text x="25.05" y="1.67" class="d">Preview</text><text x="0" y="3.5069999999999997" class="e">❯</text><text x="2.004" y="3.5069999999999997" class="f">Project</text><text x="10.02" y="3.5069999999999997" class="f">name</text><text x="16.032" y="3.5069999999999997" class="g">Acme</text><text x="21.041999999999998" y="3.5069999999999997" class="g">Corp</text><text x="4.008" y="5.343999999999999" class="h">Shown</text><text x="10.02" y="5.343999999999999" class="h">in</text><text x="13.026" y="5.343999999999999" class="h">the</text><text x="17.034" y="5.343999999999999" class="h">header.</text><text x="2.004" y="7.181" class="i">Environment</text><text x="15.029999999999998" y="7.181" class="j">prod</text><text x="4.008" y="9.018" class="d">Deployment</text><text x="15.029999999999998" y="9.018" class="d">target.</text><text x="2.004" y="10.855" class="i">Features</text><text x="12.024" y="10.855" class="j">ssl,</text><text x="17.034" y="10.855" class="j">cache</text><text x="4.008" y="12.692" class="d">Enabled</text><text x="12.024" y="12.692" class="d">features.</text><text x="2.004" y="14.529" class="i">Analytics</text><text x="13.026" y="14.529" class="j">yes</text><text x="4.008" y="16.366" class="d">Send</text><text x="9.017999999999999" y="16.366" class="d">anonymous</text><text x="19.037999999999997" y="16.366" class="d">usage</text><text x="25.05" y="16.366" class="d">data.</text><text x="0" y="20.04" class="d">↑/↓</text><text x="4.008" y="20.04" class="d">move</text><text x="9.017999999999999" y="20.04" class="d">·</text><text x="11.021999999999998" y="20.04" class="d">↵</text><text x="13.026" y="20.04" class="d">select</text><text x="20.04" y="20.04" class="d">·</text><text x="22.043999999999997" y="20.04" class="d">esc</text><text x="26.052" y="20.04" class="d">back</text><text x="31.061999999999998" y="20.04" class="d">·</text><text x="33.065999999999995" y="20.04" class="d">q</text><text x="35.06999999999999" y="20.04" class="d">quit</text><text x="40.08" y="20.04" class="d">·</text><text x="42.083999999999996" y="20.04" class="d">?</text><text x="44.087999999999994" y="20.04" class="d">help</text></svg></svg></g></svg></svg>