<svg xmlns="http://www.w3.org/2000/svg" xmlns:xlink="http://www.w3.org/1999/xlink" width="640" height="293.92"><rect width="640" height="293.92" rx="0" ry="0" class="a"></rect><svg height="293.92" viewBox="0 0 64 29.392" width="640" xmlns="http://www.w3.org/2000/svg" xmlns:xlink="http://www.w3.org/1999/xlink"><style>.a{fill:rgb(250,250,250)}.b{font-family:Consolas,"Courier New",Courier,"Liberation Mono",monospace}.c{fill:rgb(90,96,105);white-space:pre}.d{fill:rgb(0,128,128);font-weight:bold;white-space:pre}.e{fill:rgb(56,58,66);font-weight:bold;white-space:pre}.f{fill:rgb(90,96,105);font-weight:bold;white-space:pre}.g{fill:rgb(0,128,0);font-weight:bold;white-space:pre}.h{fill:rgb(0,128,0);white-space:pre}.i{fill:rgb(56,58,66);white-space:pre}.j{fill:transparent}.k{fill:rgb(82,139,255)}.m{animation-duration:23.11s;animation-iteration-count:infinite;animation-name:l;animation-timing-function:steps(1,end)}.n{fill:rgb(40,44,52)}.o{fill:rgb(250,250,250);font-weight:bold;white-space:pre}@keyframes l{0%{transform:translateX(-0px)}0.68%{transform:translateX(-64px)}2.5%{transform:translateX(-128px)}2.51%{transform:translateX(-192px)}13.51%{transform:translateX(-256px)}23.41%{transform:translateX(-320px)}25.65%{transform:translateX(-384px)}33.81%{transform:translateX(-448px)}41.09%{transform:translateX(-512px)}42.84%{transform:translateX(-576px)}44.6%{transform:translateX(-640px)}46.23%{transform:translateX(-704px)}48.01%{transform:translateX(-768px)}51.36%{transform:translateX(-832px)}59.64%{transform:translateX(-896px)}73.3%{transform:translateX(-960px)}80.41%{transform:translateX(-1024px)}83.77%{transform:translateX(-1088px)}100%{transform:translateX(-1152px)}}</style><g font-family="Consolas, &quot;Courier New&quot;, Courier, &quot;Liberation Mono&quot;, monospace" font-size="1.67" class="b"><defs><symbol id="1"><text x="0" y="1.67" class="c">Produce</text><text x="8.016" y="1.67" class="c">order</text></symbol><symbol id="2"><text x="0" y="1.67" class="d">❯</text><text x="2.004" y="1.67" class="e">Нове</text><text x="7.013999999999999" y="1.67" class="e">замовлення</text><text x="18.035999999999998" y="1.67" class="f">›</text></symbol><symbol id="3"><text x="4.008" y="1.67" class="f">Ваше</text><text x="9.017999999999999" y="1.67" class="f">щотижневе</text><text x="19.037999999999997" y="1.67" class="f">замовлення</text><text x="30.059999999999995" y="1.67" class="f">продукції.</text></symbol><symbol id="4"><text x="4.008" y="1.67" class="g">Weekly</text></symbol><symbol id="5"><text x="2.004" y="1.67" class="h">[</text><text x="4.008" y="1.67" class="h">Надіслати</text><text x="14.027999999999999" y="1.67" class="h">]</text><text x="17.034" y="1.67" class="h">[</text><text x="19.037999999999997" y="1.67" class="h">Скасувати</text><text x="29.058" y="1.67" class="h">]</text></symbol><symbol id="6"><text x="0" y="1.67" class="c">↑/↓</text><text x="4.008" y="1.67" class="c">перемістити</text><text x="16.032" y="1.67" class="c">·</text><text x="18.035999999999998" y="1.67" class="c">↵</text><text x="20.04" y="1.67" class="c">вибрати</text><text x="28.055999999999997" y="1.67" class="c">·</text><text x="30.059999999999995" y="1.67" class="c">esc</text><text x="34.068" y="1.67" class="c">назад</text><text x="40.08" y="1.67" class="c">·</text><text x="42.083999999999996" y="1.67" class="c">q</text><text x="44.087999999999994" y="1.67" class="c">вийти</text><text x="50.1" y="1.67" class="c">·</text><text x="52.104" y="1.67" class="c">?</text><text x="54.108" y="1.67" class="c">довідка</text></symbol><symbol id="7"><text x="0" y="1.67" class="c">Produce</text><text x="8.016" y="1.67" class="c">order</text><text x="14.027999999999999" y="1.67" class="c">›</text><text x="16.032" y="1.67" class="c">Нове</text><text x="21.041999999999998" y="1.67" class="c">замовлення</text></symbol><symbol id="8"><text x="0" y="1.67" class="d">❯</text><text x="2.004" y="1.67" class="e">Назва</text><text x="8.016" y="1.67" class="e">замовлення</text><text x="20.04" y="1.67" class="g">Weekly</text></symbol><symbol id="9"><text x="2.004" y="1.67" class="i">Кошик</text><text x="8.016" y="1.67" class="c">›</text></symbol><symbol id="10"><text x="4.008" y="1.67" class="c">Виберіть</text><text x="13.026" y="1.67" class="c">фрукти.</text></symbol><symbol id="11"><text x="0" y="1.67" class="c">Produce</text><text x="8.016" y="1.67" class="c">order</text><text x="14.027999999999999" y="1.67" class="c">›</text><text x="16.032" y="1.67" class="c">Нове</text><text x="21.041999999999998" y="1.67" class="c">замовлення</text><text x="32.064" y="1.67" class="c">›</text><text x="34.068" y="1.67" class="c">Кошик</text></symbol><symbol id="12"><text x="12.024" y="1.67" class="h">◼</text><text x="14.027999999999999" y="1.67" class="i">Банан</text></symbol><symbol id="13"><text x="12.024" y="1.67" class="h">◼</text><text x="14.027999999999999" y="1.67" class="i">Вишня</text></symbol><symbol id="14"><text x="12.024" y="1.67" class="h">◼</text><text x="14.027999999999999" y="1.67" class="i">Груша</text></symbol><symbol id="15"><text x="12.024" y="1.67" class="i">◻</text><text x="14.027999999999999" y="1.67" class="i">Виноград</text></symbol><symbol id="16"><text x="0" y="1.67" class="c">↑/↓</text><text x="4.008" y="1.67" class="c">перемістити</text><text x="16.032" y="1.67" class="c">·</text><text x="18.035999999999998" y="1.67" class="c">↵</text><text x="20.04" y="1.67" class="c">прийняти</text><text x="29.058" y="1.67" class="c">·</text><text x="31.061999999999998" y="1.67" class="c">esc</text><text x="35.06999999999999" y="1.67" class="c">скасувати</text></symbol><symbol id="17"><text x="0" y="1.67" class="d">❯</text><text x="2.004" y="1.67" class="e">Фрукти</text><text x="12.024" y="1.67" class="i">◻</text><text x="14.027999999999999" y="1.67" class="i">Яблуко</text></symbol><symbol id="18"><text x="12.024" y="1.67" class="i">◻</text><text x="14.027999999999999" y="1.67" class="i">Банан</text></symbol><symbol id="19"><text x="0" y="1.67" class="i">Нове</text><text x="5.01" y="1.67" class="i">замовлення</text></symbol><symbol id="20"><text x="2.004" y="1.67" class="i">Назва</text><text x="8.016" y="1.67" class="i">замовлення:</text><text x="20.04" y="1.67" class="i">Weekly</text></symbol><symbol id="21"><text x="2.004" y="1.67" class="i">Кошик</text></symbol><symbol id="22"><text x="4.008" y="1.67" class="i">Фрукти:</text><text x="12.024" y="1.67" class="i">pear</text><text x="17.034" y="1.67" class="i">(змінено)</text></symbol><symbol id="a"><rect height="16" width="64" x="0" y="0" class="j"></rect></symbol><symbol id="b"><rect height="1.837" width="1.1022" class="k"></rect></symbol></defs><rect height="29.392" width="64" class="a"></rect><g class="m"><svg x="0" y="0" width="1216"><svg x="0"><use xlink:href="#a"></use><use xlink:href="#b" x="-0.0040000000000000036" y="0"></use></svg><svg x="64"><use xlink:href="#a"></use><use xlink:href="#b" x="-0.0040000000000000036" y="0"></use></svg><svg x="128"><use xlink:href="#a"></use></svg><svg x="192"><use xlink:href="#a"></use><use xlink:href="#1" y="0"></use><use xlink:href="#2" y="1.837"></use><use xlink:href="#3" y="3.674"></use><use xlink:href="#4" y="5.511"></use><use xlink:href="#5" y="9.185"></use><use xlink:href="#6" y="12.859"></use></svg><svg x="256"><use xlink:href="#a"></use><use xlink:href="#7" y="0"></use><use xlink:href="#8" y="1.837"></use><use xlink:href="#9" y="3.674"></use><use xlink:href="#10" y="5.511"></use><text x="4.008" y="9.018" class="h">4</text><text x="6.012" y="9.018" class="h">елементи</text><text x="15.029999999999998" y="9.018" class="h">вибрано</text><use xlink:href="#6" y="11.022"></use></svg><svg x="320"><use xlink:href="#a"></use><use xlink:href="#7" y="0"></use><text x="2.004" y="3.5069999999999997" class="i">Назва</text><text x="8.016" y="3.5069999999999997" class="i">замовлення</text><text x="20.04" y="3.5069999999999997" class="h">Weekly</text><text x="0" y="5.343999999999999" class="d">❯</text><text x="2.004" y="5.343999999999999" class="e">Кошик</text><text x="8.016" y="5.343999999999999" class="f">›</text><text x="4.008" y="7.181" class="f">Виберіть</text><text x="13.026" y="7.181" class="f">фрукти.</text><text x="4.008" y="9.018" class="g">4</text><text x="6.012" y="9.018" class="g">елементи</text><text x="15.029999999999998" y="9.018" class="g">вибрано</text><use xlink:href="#6" y="11.022"></use></svg><svg x="384"><use xlink:href="#a"></use><use xlink:href="#11" y="0"></use><text x="0" y="3.5069999999999997" class="d">❯</text><text x="2.004" y="3.5069999999999997" class="e">Фрукти</text><text x="10.02" y="3.5069999999999997" class="g">apple,</text><text x="17.034" y="3.5069999999999997" class="g">banana,</text><text x="25.05" y="3.5069999999999997" class="g">cherry,</text><text x="33.065999999999995" y="3.5069999999999997" class="g">pear</text><use xlink:href="#6" y="5.511"></use></svg><svg x="448"><use xlink:href="#a"></use><use xlink:href="#11" y="0"></use><text x="0" y="3.5069999999999997" class="d">❯</text><text x="2.004" y="3.5069999999999997" class="e">Фрукти</text><text x="10.02" y="3.5069999999999997" class="d">❯</text><text x="12.024" y="3.5069999999999997" class="h">◼</text><text x="14.027999999999999" y="3.5069999999999997" class="d">Яблуко</text><use xlink:href="#12" y="3.674"></use><use xlink:href="#13" y="5.511"></use><use xlink:href="#14" y="7.348"></use><use xlink:href="#15" y="9.185"></use><use xlink:href="#16" y="12.859"></use></svg><svg x="512"><use xlink:href="#a"></use><use xlink:href="#11" y="0"></use><text x="0" y="3.5069999999999997" class="d">❯</text><text x="2.004" y="3.5069999999999997" class="e">Фрукти</text><text x="10.02" y="3.5069999999999997" class="d">❯</text><text x="12.024" y="3.5069999999999997" class="i">◻</text><text x="14.027999999999999" y="3.5069999999999997" class="d">Яблуко</text><use xlink:href="#12" y="3.674"></use><use xlink:href="#13" y="5.511"></use><use xlink:href="#14" y="7.348"></use><use xlink:href="#15" y="9.185"></use><use xlink:href="#16" y="12.859"></use></svg><svg x="576"><use xlink:href="#a"></use><use xlink:href="#11" y="0"></use><use xlink:href="#17" y="1.837"></use><text x="10.02" y="5.343999999999999" class="d">❯</text><text x="12.024" y="5.343999999999999" class="h">◼</text><text x="14.027999999999999" y="5.343999999999999" class="d">Банан</text><use xlink:href="#13" y="5.511"></use><use xlink:href="#14" y="7.348"></use><use xlink:href="#15" y="9.185"></use><use xlink:href="#16" y="12.859"></use></svg><svg x="640"><use xlink:href="#a"></use><use xlink:href="#11" y="0"></use><use xlink:href="#17" y="1.837"></use><text x="10.02" y="5.343999999999999" class="d">❯</text><text x="12.024" y="5.343999999999999" class="i">◻</text><text x="14.027999999999999" y="5.343999999999999" class="d">Банан</text><use xlink:href="#13" y="5.511"></use><use xlink:href="#14" y="7.348"></use><use xlink:href="#15" y="9.185"></use><use xlink:href="#16" y="12.859"></use></svg><svg x="704"><use xlink:href="#a"></use><use xlink:href="#11" y="0"></use><use xlink:href="#17" y="1.837"></use><use xlink:href="#18" y="3.674"></use><text x="10.02" y="7.181" class="d">❯</text><text x="12.024" y="7.181" class="h">◼</text><text x="14.027999999999999" y="7.181" class="d">Вишня</text><use xlink:href="#14" y="7.348"></use><use xlink:href="#15" y="9.185"></use><use xlink:href="#16" y="12.859"></use></svg><svg x="768"><use xlink:href="#a"></use><use xlink:href="#11" y="0"></use><use xlink:href="#17" y="1.837"></use><use xlink:href="#18" y="3.674"></use><text x="10.02" y="7.181" class="d">❯</text><text x="12.024" y="7.181" class="i">◻</text><text x="14.027999999999999" y="7.181" class="d">Вишня</text><use xlink:href="#14" y="7.348"></use><use xlink:href="#15" y="9.185"></use><use xlink:href="#16" y="12.859"></use></svg><svg x="832"><use xlink:href="#a"></use><use xlink:href="#11" y="0"></use><text x="0" y="3.5069999999999997" class="d">❯</text><text x="2.004" y="3.5069999999999997" class="e">Фрукти</text><text x="10.02" y="3.5069999999999997" class="g">pear</text><rect height="1.837" width="9" x="55.10999999999999" y="1.8369999999999997" class="n"></rect><text x="55.10999999999999" y="3.5069999999999997" class="o"> змінено </text><use xlink:href="#6" y="5.511"></use></svg><svg x="896"><use xlink:href="#a"></use><use xlink:href="#7" y="0"></use><use xlink:href="#8" y="1.837"></use><use xlink:href="#9" y="3.674"></use><use xlink:href="#10" y="5.511"></use><text x="4.008" y="9.018" class="h">pear</text><use xlink:href="#6" y="11.022"></use></svg><svg x="960"><use xlink:href="#a"></use><use xlink:href="#1" y="0"></use><use xlink:href="#2" y="1.837"></use><use xlink:href="#3" y="3.674"></use><use xlink:href="#4" y="5.511"></use><use xlink:href="#5" y="9.185"></use><use xlink:href="#6" y="12.859"></use></svg><svg x="1024"><use xlink:href="#a"></use><use xlink:href="#1" y="0"></use><text x="2.004" y="3.5069999999999997" class="i">Нове</text><text x="7.013999999999999" y="3.5069999999999997" class="i">замовлення</text><text x="18.035999999999998" y="3.5069999999999997" class="c">›</text><text x="4.008" y="5.343999999999999" class="c">Ваше</text><text x="9.017999999999999" y="5.343999999999999" class="c">щотижневе</text><text x="19.037999999999997" y="5.343999999999999" class="c">замовлення</text><text x="30.059999999999995" y="5.343999999999999" class="c">продукції.</text><text x="4.008" y="7.181" class="h">Weekly</text><rect height="1.837" width="13" x="2.004" y="9.185" class="n"></rect><text x="2.004" y="10.855" class="o">[ Надіслати ]</text><text x="17.034" y="10.855" class="h">[</text><text x="19.037999999999997" y="10.855" class="h">Скасувати</text><text x="29.058" y="10.855" class="h">]</text><use xlink:href="#6" y="12.859"></use></svg><svg x="1088"><use xlink:href="#a"></use><use xlink:href="#b" x="-0.0040000000000000036" y="7.173"></use><use xlink:href="#19" y="0"></use><use xlink:href="#20" y="1.837"></use><use xlink:href="#21" y="3.674"></use><use xlink:href="#22" y="5.511"></use></svg><svg x="1152"><use xlink:href="#a"></use><use xlink:href="#b" x="0.996" y="7.173"></use><use xlink:href="#19" y="0"></use><use xlink:href="#20" y="1.837"></use><use xlink:href="#21" y="3.674"></use><use xlink:href="#22" y="5.511"></use></svg></svg></g></g></svg></svg>