<svg xmlns="http://www.w3.org/2000/svg" xmlns:xlink="http://www.w3.org/1999/xlink" width="640" height="367.40000000000003"><rect width="640" height="367.40000000000003" rx="0" ry="0" class="a"></rect><svg height="367.40000000000003" viewBox="0 0 64 36.74" width="640" xmlns="http://www.w3.org/2000/svg" xmlns:xlink="http://www.w3.org/1999/xlink"><style>.a{fill:rgb(250,250,250)}.b{font-family:Consolas,"Courier New",Courier,"Liberation Mono",monospace}.c{fill:rgb(56,58,66);white-space:pre}.d{fill:rgb(0,128,128);white-space:pre}.e{fill:rgb(90,96,105);white-space:pre}.f{fill:rgb(0,128,128);font-weight:bold;white-space:pre}.g{fill:rgb(56,58,66);font-weight:bold;white-space:pre}.h{fill:rgb(90,96,105);font-weight:bold;white-space:pre}.i{fill:rgb(0,128,0);font-weight:bold;white-space:pre}.j{fill:rgb(0,128,0);white-space:pre}.k{fill:rgb(40,44,52)}.l{fill:rgb(250,250,250);font-weight:bold;white-space:pre}.m{fill:transparent}.n{fill:rgb(82,139,255)}.p{animation-duration:23.959s;animation-iteration-count:infinite;animation-name:o;animation-timing-function:steps(1,end)}@keyframes o{0%{transform:translateX(-0px)}1.53%{transform:translateX(-64px)}1.53%{transform:translateX(-128px)}1.53%{transform:translateX(-192px)}1.53%{transform:translateX(-256px)}1.53%{transform:translateX(-320px)}1.53%{transform:translateX(-384px)}1.53%{transform:translateX(-448px)}1.53%{transform:translateX(-512px)}1.53%{transform:translateX(-576px)}1.53%{transform:translateX(-640px)}1.53%{transform:translateX(-704px)}1.53%{transform:translateX(-768px)}3.75%{transform:translateX(-832px)}5.74%{transform:translateX(-896px)}5.77%{transform:translateX(-960px)}5.77%{transform:translateX(-1024px)}5.77%{transform:translateX(-1088px)}16.44%{transform:translateX(-1152px)}16.44%{transform:translateX(-1216px)}16.6%{transform:translateX(-1280px)}25.8%{transform:translateX(-1344px)}25.8%{transform:translateX(-1408px)}25.96%{transform:translateX(-1472px)}28.12%{transform:translateX(-1536px)}28.12%{transform:translateX(-1600px)}28.28%{transform:translateX(-1664px)}36.06%{transform:translateX(-1728px)}36.06%{transform:translateX(-1792px)}36.22%{transform:translateX(-1856px)}43.11%{transform:translateX(-1920px)}43.11%{transform:translateX(-1984px)}43.27%{transform:translateX(-2048px)}44.78%{transform:translateX(-2112px)}44.78%{transform:translateX(-2176px)}44.94%{transform:translateX(-2240px)}46.45%{transform:translateX(-2304px)}46.45%{transform:translateX(-2368px)}46.61%{transform:translateX(-2432px)}48.15%{transform:translateX(-2496px)}48.15%{transform:translateX(-2560px)}48.3%{transform:translateX(-2624px)}49.82%{transform:translateX(-2688px)}49.82%{transform:translateX(-2752px)}49.98%{transform:translateX(-2816px)}53.02%{transform:translateX(-2880px)}53.02%{transform:translateX(-2944px)}53.16%{transform:translateX(-3008px)}61.03%{transform:translateX(-3072px)}61.03%{transform:translateX(-3136px)}61.19%{transform:translateX(-3200px)}74.13%{transform:translateX(-3264px)}74.13%{transform:translateX(-3328px)}74.26%{transform:translateX(-3392px)}81.11%{transform:translateX(-3456px)}81.11%{transform:translateX(-3520px)}81.26%{transform:translateX(-3584px)}84.19%{transform:translateX(-3648px)}84.35%{transform:translateX(-3712px)}100%{transform:translateX(-3776px)}}</style><g font-family="Consolas, &quot;Courier New&quot;, Courier, &quot;Liberation Mono&quot;, monospace" font-size="1.67" class="b"><defs><symbol id="1"><text x="0" y="1.67" class="c">spawn</text></symbol><symbol id="2"><text x="0" y="1.67" class="c">spawn</text><text x="6.012" y="1.67" class="c">env</text></symbol><symbol id="3"><text x="0" y="1.67" class="c">spawn</text><text x="6.012" y="1.67" class="c">env</text><text x="10.02" y="1.67" class="c">LINES=20</text></symbol><symbol id="4"><text x="0" y="1.67" class="c">spawn</text><text x="6.012" y="1.67" class="c">env</text><text x="10.02" y="1.67" class="c">LINES=20</text><text x="19.037999999999997" y="1.67" class="c">COLUMNS=64</text></symbol><symbol id="5"><text x="0" y="1.67" class="c">spawn</text><text x="6.012" y="1.67" class="c">env</text><text x="10.02" y="1.67" class="c">LINES=20</text><text x="19.037999999999997" y="1.67" class="c">COLUMNS=64</text><text x="30.059999999999995" y="1.67" class="c">php</text></symbol><symbol id="6"><text x="0" y="1.67" class="c">spawn</text><text x="6.012" y="1.67" class="c">env</text><text x="10.02" y="1.67" class="c">LINES=20</text><text x="19.037999999999997" y="1.67" class="c">COLUMNS=64</text><text x="30.059999999999995" y="1.67" class="c">php</text><text x="34.068" y="1.67" class="c">/home/user/www/drevops/tui1/pl</text></symbol><symbol id="7"><text x="0" y="1.67" class="c">ayground/12-translations.php</text></symbol><symbol id="8"><text x="0" y="1.67" class="d">╭──────────────────────────────────────────────────────────────╮</text></symbol><symbol id="9"><text x="0" y="1.67" class="d">│</text><text x="2.004" y="1.67" class="e">Produce</text><text x="10.02" y="1.67" class="e">order</text><text x="63.12599999999999" y="1.67" class="d">│</text></symbol><symbol id="10"><text x="0" y="1.67" class="d">├──────────────────────────────────────────────────────────────┤</text></symbol><symbol id="11"><text x="0" y="1.67" class="d">│</text><text x="63.12599999999999" y="1.67" class="d">│</text></symbol><symbol id="12"><text x="0" y="1.67" class="d">│</text><text x="2.004" y="1.67" class="f">❯</text><text x="4.008" y="1.67" class="g">Нове</text><text x="9.017999999999999" y="1.67" class="g">замовлення</text><text x="20.04" y="1.67" class="h">›</text><text x="63.12599999999999" y="1.67" class="d">│</text></symbol><symbol id="13"><text x="0" y="1.67" class="d">│</text><text x="6.012" y="1.67" class="h">Ваше</text><text x="11.021999999999998" y="1.67" class="h">щотижневе</text><text x="21.041999999999998" y="1.67" class="h">замовлення</text><text x="32.064" y="1.67" class="h">продукції.</text><text x="63.12599999999999" y="1.67" class="d">│</text></symbol><symbol id="14"><text x="0" y="1.67" class="d">│</text><text x="6.012" y="1.67" class="i">Weekly</text><text x="63.12599999999999" y="1.67" class="d">│</text></symbol><symbol id="15"><text x="0" y="1.67" class="d">│</text></symbol><symbol id="16"><text x="0" y="1.67" class="d">│</text><text x="4.008" y="1.67" class="j">[</text><text x="6.012" y="1.67" class="j">Надіслати</text><text x="16.032" y="1.67" class="j">]</text><text x="19.037999999999997" y="1.67" class="j">[</text><text x="21.041999999999998" y="1.67" class="j">Скасувати</text><text x="31.061999999999998" y="1.67" class="j">]</text><text x="63.12599999999999" y="1.67" class="d">│</text></symbol><symbol id="17"><text x="0" y="1.67" class="d">│</text><text x="2.004" y="1.67" class="c">↑/↓</text><text x="6.012" y="1.67" class="c">перемістити</text><text x="18.035999999999998" y="1.67" class="c">·</text><text x="20.04" y="1.67" class="c">↵</text><text x="22.043999999999997" y="1.67" class="c">вибрати</text><text x="30.059999999999995" y="1.67" class="c">·</text><text x="32.064" y="1.67" class="c">esc</text><text x="36.071999999999996" y="1.67" class="c">назад</text><text x="42.083999999999996" y="1.67" class="c">·</text><text x="44.087999999999994" y="1.67" class="c">q</text><text x="46.09199999999999" y="1.67" class="c">вийти</text><text x="52.104" y="1.67" class="c">·</text><text x="54.108" y="1.67" class="c">?</text><text x="56.111999999999995" y="1.67" class="c">довідк</text><text x="63.12599999999999" y="1.67" class="d">│</text></symbol><symbol id="18"><text x="0" y="1.67" class="d">╰──────────────────────────────────────────────────────────────╯</text></symbol><symbol id="19"><text x="0" y="1.67" class="d">│</text><text x="2.004" y="1.67" class="e">Produce</text><text x="10.02" y="1.67" class="e">order</text><text x="16.032" y="1.67" class="e">›</text><text x="18.035999999999998" y="1.67" class="e">Нове</text><text x="23.045999999999996" y="1.67" class="e">замовлення</text><text x="63.12599999999999" y="1.67" class="d">│</text></symbol><symbol id="20"><text x="0" y="1.67" class="d">│</text><text x="2.004" y="1.67" class="f">❯</text><text x="4.008" y="1.67" class="g">Назва</text><text x="10.02" y="1.67" class="g">замовлення</text><text x="22.043999999999997" y="1.67" class="i">Weekly</text><text x="63.12599999999999" y="1.67" class="d">│</text></symbol><symbol id="21"><text x="0" y="1.67" class="d">│</text><text x="4.008" y="1.67" class="c">Кошик</text><text x="10.02" y="1.67" class="e">›</text><text x="63.12599999999999" y="1.67" class="d">│</text></symbol><symbol id="22"><text x="0" y="1.67" class="d">│</text><text x="6.012" y="1.67" class="e">Виберіть</text><text x="15.029999999999998" y="1.67" class="e">фрукти.</text></symbol><symbol id="23"><text x="0" y="1.67" class="d">│</text><text x="6.012" y="1.67" class="e">Виберіть</text><text x="15.029999999999998" y="1.67" class="e">фрукти.</text><text x="63.12599999999999" y="1.67" class="d">│</text></symbol><symbol id="24"><text x="0" y="1.67" class="d">│</text><text x="4.008" y="1.67" class="c">Назва</text><text x="10.02" y="1.67" class="c">замовлення</text><text x="22.043999999999997" y="1.67" class="j">Weekly</text><text x="63.12599999999999" y="1.67" class="d">│</text></symbol><symbol id="25"><text x="0" y="1.67" class="d">│</text><text x="2.004" y="1.67" class="f">❯</text><text x="4.008" y="1.67" class="g">Кошик</text><text x="10.02" y="1.67" class="h">›</text><text x="63.12599999999999" y="1.67" class="d">│</text></symbol><symbol id="26"><text x="0" y="1.67" class="d">│</text><text x="6.012" y="1.67" class="h">Виберіть</text><text x="15.029999999999998" y="1.67" class="h">фрукти.</text></symbol><symbol id="27"><text x="0" y="1.67" class="d">│</text><text x="2.004" y="1.67" class="e">Produce</text><text x="10.02" y="1.67" class="e">order</text><text x="16.032" y="1.67" class="e">›</text><text x="18.035999999999998" y="1.67" class="e">Нове</text><text x="23.045999999999996" y="1.67" class="e">замовлення</text><text x="34.068" y="1.67" class="e">›</text><text x="36.071999999999996" y="1.67" class="e">Кошик</text><text x="63.12599999999999" y="1.67" class="d">│</text></symbol><symbol id="28"><text x="0" y="1.67" class="d">│</text><text x="2.004" y="1.67" class="f">❯</text><text x="4.008" y="1.67" class="g">Фрукти</text><text x="12.024" y="1.67" class="i">apple,</text><text x="19.037999999999997" y="1.67" class="i">banana,</text><text x="27.054" y="1.67" class="i">cherry,</text><text x="35.06999999999999" y="1.67" class="i">pear</text><text x="63.12599999999999" y="1.67" class="d">│</text></symbol><symbol id="29"><text x="0" y="1.67" class="d">│</text><text x="2.004" y="1.67" class="f">❯</text><text x="4.008" y="1.67" class="g">Фрукти</text><text x="12.024" y="1.67" class="f">❯</text><text x="14.027999999999999" y="1.67" class="j">◼</text><text x="16.032" y="1.67" class="f">Яблуко</text><text x="63.12599999999999" y="1.67" class="d">│</text></symbol><symbol id="30"><text x="0" y="1.67" class="d">│</text><text x="14.027999999999999" y="1.67" class="j">◼</text><text x="16.032" y="1.67" class="c">Банан</text><text x="63.12599999999999" y="1.67" class="d">│</text></symbol><symbol id="31"><text x="0" y="1.67" class="d">│</text><text x="14.027999999999999" y="1.67" class="j">◼</text><text x="16.032" y="1.67" class="c">Вишня</text><text x="63.12599999999999" y="1.67" class="d">│</text></symbol><symbol id="32"><text x="0" y="1.67" class="d">│</text><text x="14.027999999999999" y="1.67" class="j">◼</text><text x="16.032" y="1.67" class="c">Груша</text><text x="63.12599999999999" y="1.67" class="d">│</text></symbol><symbol id="33"><text x="0" y="1.67" class="d">│</text><text x="14.027999999999999" y="1.67" class="c">◻</text><text x="16.032" y="1.67" class="c">Виноград</text><text x="63.12599999999999" y="1.67" class="d">│</text></symbol><symbol id="34"><text x="0" y="1.67" class="d">│</text><text x="2.004" y="1.67" class="e">↑/↓</text><text x="6.012" y="1.67" class="e">перемістити</text><text x="18.035999999999998" y="1.67" class="e">·</text><text x="20.04" y="1.67" class="e">↵</text><text x="22.043999999999997" y="1.67" class="e">прийняти</text><text x="31.061999999999998" y="1.67" class="e">·</text><text x="33.065999999999995" y="1.67" class="e">esc</text><text x="37.074" y="1.67" class="e">скасувати</text><text x="63.12599999999999" y="1.67" class="d">│</text></symbol><symbol id="35"><text x="0" y="1.67" class="d">│</text><text x="2.004" y="1.67" class="f">❯</text><text x="4.008" y="1.67" class="g">Фрукти</text><text x="12.024" y="1.67" class="f">❯</text><text x="14.027999999999999" y="1.67" class="c">◻</text><text x="16.032" y="1.67" class="f">Яблуко</text><text x="63.12599999999999" y="1.67" class="d">│</text></symbol><symbol id="36"><text x="0" y="1.67" class="d">│</text><text x="14.027999999999999" y="1.67" class="j">◼</text><text x="16.032" y="1.67" class="c">Г</text></symbol><symbol id="37"><text x="0" y="1.67" class="d">│</text><text x="14.027999999999999" y="1.67" class="j">◼</text><text x="16.032" y="1.67" class="c">Груша</text></symbol><symbol id="38"><text x="0" y="1.67" class="d">│</text><text x="2.004" y="1.67" class="f">❯</text><text x="4.008" y="1.67" class="g">Фрукти</text><text x="14.027999999999999" y="1.67" class="c">◻</text><text x="16.032" y="1.67" class="c">Яблуко</text><text x="63.12599999999999" y="1.67" class="d">│</text></symbol><symbol id="39"><text x="0" y="1.67" class="d">│</text><text x="12.024" y="1.67" class="f">❯</text><text x="14.027999999999999" y="1.67" class="j">◼</text><text x="16.032" y="1.67" class="f">Банан</text><text x="63.12599999999999" y="1.67" class="d">│</text></symbol><symbol id="40"><text x="0" y="1.67" class="d">│</text><text x="12.024" y="1.67" class="f">❯</text><text x="14.027999999999999" y="1.67" class="c">◻</text><text x="16.032" y="1.67" class="f">Банан</text><text x="63.12599999999999" y="1.67" class="d">│</text></symbol><symbol id="41"><text x="0" y="1.67" class="d">│</text><text x="14.027999999999999" y="1.67" class="c">◻</text><text x="16.032" y="1.67" class="c">Банан</text><text x="63.12599999999999" y="1.67" class="d">│</text></symbol><symbol id="42"><text x="0" y="1.67" class="d">│</text><text x="12.024" y="1.67" class="f">❯</text><text x="14.027999999999999" y="1.67" class="j">◼</text><text x="16.032" y="1.67" class="f">Вишня</text><text x="63.12599999999999" y="1.67" class="d">│</text></symbol><symbol id="43"><text x="0" y="1.67" class="d">│</text><text x="12.024" y="1.67" class="f">❯</text><text x="14.027999999999999" y="1.67" class="c">◻</text><text x="16.032" y="1.67" class="f">Вишня</text><text x="63.12599999999999" y="1.67" class="d">│</text></symbol><symbol id="44"><text x="0" y="1.67" class="d">│</text><text x="2.004" y="1.67" class="f">❯</text><text x="4.008" y="1.67" class="g">Фрукти</text><text x="12.024" y="1.67" class="i">pear</text><rect height="1.837" width="9" x="53.105999999999995" y="0" class="k"></rect><text x="53.105999999999995" y="1.67" class="l"> змінено </text><text x="63.12599999999999" y="1.67" class="d">│</text></symbol><symbol id="45"><text x="0" y="1.67" class="d">│</text><text x="4.008" y="1.67" class="c">Нове</text><text x="9.017999999999999" y="1.67" class="c">замовлення</text><text x="20.04" y="1.67" class="e">›</text><text x="63.12599999999999" y="1.67" class="d">│</text></symbol><symbol id="46"><text x="0" y="1.67" class="d">│</text><text x="6.012" y="1.67" class="e">Ваше</text><text x="11.021999999999998" y="1.67" class="e">щотижневе</text><text x="21.041999999999998" y="1.67" class="e">замовлення</text><text x="32.064" y="1.67" class="e">продукції.</text><text x="63.12599999999999" y="1.67" class="d">│</text></symbol><symbol id="47"><text x="0" y="1.67" class="d">│</text><text x="6.012" y="1.67" class="j">Weekly</text><text x="63.12599999999999" y="1.67" class="d">│</text></symbol><symbol id="48"><text x="0" y="1.67" class="c">Нове</text><text x="5.01" y="1.67" class="c">замовлення</text></symbol><symbol id="49"><text x="2.004" y="1.67" class="c">Назва</text><text x="8.016" y="1.67" class="c">замовлення:</text><text x="20.04" y="1.67" class="c">Weekly</text></symbol><symbol id="50"><text x="2.004" y="1.67" class="c">Кошик</text></symbol><symbol id="51"><text x="4.008" y="1.67" class="c">Фрукти:</text><text x="12.024" y="1.67" class="c">pear</text><text x="17.034" y="1.67" class="c">(змінено)</text></symbol><symbol id="a"><rect height="20" width="64" x="0" y="0" class="m"></rect></symbol><symbol id="b"><rect height="1.837" width="1.1022" class="n"></rect></symbol></defs><rect height="36.74" width="64" class="a"></rect><g class="p"><svg x="0" y="0" width="3840"><svg x="0"><use xlink:href="#a"></use><use xlink:href="#b" x="-0.0040000000000000036" y="0"></use></svg><svg x="64"><use xlink:href="#a"></use><use xlink:href="#b" x="4.996" y="0"></use><use xlink:href="#1" y="0"></use></svg><svg x="128"><use xlink:href="#a"></use><use xlink:href="#b" x="5.996" y="0"></use><use xlink:href="#1" y="0"></use></svg><svg x="192"><use xlink:href="#a"></use><use xlink:href="#b" x="8.996" y="0"></use><use xlink:href="#2" y="0"></use></svg><svg x="256"><use xlink:href="#a"></use><use xlink:href="#b" x="9.996" y="0"></use><use xlink:href="#2" y="0"></use></svg><svg x="320"><use xlink:href="#a"></use><use xlink:href="#b" x="17.996" y="0"></use><use xlink:href="#3" y="0"></use></svg><svg x="384"><use xlink:href="#a"></use><use xlink:href="#b" x="18.996" y="0"></use><use xlink:href="#3" y="0"></use></svg><svg x="448"><use xlink:href="#a"></use><use xlink:href="#b" x="28.996" y="0"></use><use xlink:href="#4" y="0"></use></svg><svg x="512"><use xlink:href="#a"></use><use xlink:href="#b" x="29.996" y="0"></use><use xlink:href="#4" y="0"></use></svg><svg x="576"><use xlink:href="#a"></use><use xlink:href="#b" x="32.996" y="0"></use><use xlink:href="#5" y="0"></use></svg><svg x="640"><use xlink:href="#a"></use><use xlink:href="#b" x="33.996" y="0"></use><use xlink:href="#5" y="0"></use></svg><svg x="704"><use xlink:href="#a"></use><use xlink:href="#b" x="27.996" y="1.662"></use><use xlink:href="#6" y="0"></use><use xlink:href="#7" y="1.837"></use></svg><svg x="768"><use xlink:href="#a"></use><use xlink:href="#b" x="-0.0040000000000000036" y="3.499"></use><use xlink:href="#6" y="0"></use><use xlink:href="#7" y="1.837"></use></svg><svg x="832"><use xlink:href="#a"></use><use xlink:href="#b" x="-0.0040000000000000036" y="3.499"></use><use xlink:href="#6" y="0"></use><use xlink:href="#7" y="1.837"></use></svg><svg x="896"><use xlink:href="#a"></use></svg><svg x="960"><use xlink:href="#a"></use><use xlink:href="#8" y="0"></use><use xlink:href="#9" y="1.837"></use><use xlink:href="#10" y="3.674"></use><use xlink:href="#11" y="5.511"></use><use xlink:href="#12" y="7.348"></use><use xlink:href="#13" y="9.185"></use><use xlink:href="#14" y="11.022"></use><use xlink:href="#15" y="12.859"></use></svg><svg x="1024"><use xlink:href="#a"></use><use xlink:href="#8" y="0"></use><use xlink:href="#9" y="1.837"></use><use xlink:href="#10" y="3.674"></use><use xlink:href="#11" y="5.511"></use><use xlink:href="#12" y="7.348"></use><use xlink:href="#13" y="9.185"></use><use xlink:href="#14" y="11.022"></use><use xlink:href="#15" y="12.859"></use></svg><svg x="1088"><use xlink:href="#a"></use><use xlink:href="#8" y="0"></use><use xlink:href="#9" y="1.837"></use><use xlink:href="#10" y="3.674"></use><use xlink:href="#11" y="5.511"></use><use xlink:href="#12" y="7.348"></use><use xlink:href="#13" y="9.185"></use><use xlink:href="#14" y="11.022"></use><use xlink:href="#11" y="12.859"></use><use xlink:href="#16" y="14.696"></use><use xlink:href="#11" y="16.533"></use><use xlink:href="#10" y="18.37"></use><use xlink:href="#17" y="20.206999999999997"></use><use xlink:href="#18" y="22.044"></use></svg><svg x="1152"><use xlink:href="#a"></use><use xlink:href="#8" y="0"></use><use xlink:href="#19" y="1.837"></use><use xlink:href="#10" y="3.674"></use><use xlink:href="#11" y="5.511"></use><use xlink:href="#20" y="7.348"></use><use xlink:href="#11" y="9.185"></use><use xlink:href="#21" y="11.022"></use><use xlink:href="#22" y="12.859"></use></svg><svg x="1216"><use xlink:href="#a"></use><use xlink:href="#8" y="0"></use><use xlink:href="#19" y="1.837"></use><use xlink:href="#10" y="3.674"></use><use xlink:href="#11" y="5.511"></use><use xlink:href="#20" y="7.348"></use><use xlink:href="#11" y="9.185"></use><use xlink:href="#21" y="11.022"></use><use xlink:href="#22" y="12.859"></use></svg><svg x="1280"><use xlink:href="#a"></use><use xlink:href="#8" y="0"></use><use xlink:href="#19" y="1.837"></use><use xlink:href="#10" y="3.674"></use><use xlink:href="#11" y="5.511"></use><use xlink:href="#20" y="7.348"></use><use xlink:href="#11" y="9.185"></use><use xlink:href="#21" y="11.022"></use><use xlink:href="#23" y="12.859"></use><text x="0" y="16.366" class="d">│</text><text x="6.012" y="16.366" class="j">4</text><text x="8.016" y="16.366" class="j">елементи</text><text x="17.034" y="16.366" class="j">вибрано</text><text x="63.12599999999999" y="16.366" class="d">│</text><use xlink:href="#11" y="16.533"></use><use xlink:href="#10" y="18.37"></use><use xlink:href="#17" y="20.206999999999997"></use><use xlink:href="#18" y="22.044"></use></svg><svg x="1344"><use xlink:href="#a"></use><use xlink:href="#8" y="0"></use><use xlink:href="#19" y="1.837"></use><use xlink:href="#10" y="3.674"></use><use xlink:href="#11" y="5.511"></use><use xlink:href="#24" y="7.348"></use><use xlink:href="#11" y="9.185"></use><use xlink:href="#25" y="11.022"></use><use xlink:href="#26" y="12.859"></use></svg><svg x="1408"><use xlink:href="#a"></use><use xlink:href="#8" y="0"></use><use xlink:href="#19" y="1.837"></use><use xlink:href="#10" y="3.674"></use><use xlink:href="#11" y="5.511"></use><use xlink:href="#24" y="7.348"></use><use xlink:href="#11" y="9.185"></use><use xlink:href="#25" y="11.022"></use><use xlink:href="#26" y="12.859"></use></svg><svg x="1472"><use xlink:href="#a"></use><use xlink:href="#8" y="0"></use><use xlink:href="#19" y="1.837"></use><use xlink:href="#10" y="3.674"></use><use xlink:href="#11" y="5.511"></use><use xlink:href="#24" y="7.348"></use><use xlink:href="#11" y="9.185"></use><use xlink:href="#25" y="11.022"></use><text x="0" y="14.529" class="d">│</text><text x="6.012" y="14.529" class="h">Виберіть</text><text x="15.029999999999998" y="14.529" class="h">фрукти.</text><text x="63.12599999999999" y="14.529" class="d">│</text><text x="0" y="16.366" class="d">│</text><text x="6.012" y="16.366" class="i">4</text><text x="8.016" y="16.366" class="i">елементи</text><text x="17.034" y="16.366" class="i">вибрано</text><text x="63.12599999999999" y="16.366" class="d">│</text><use xlink:href="#11" y="16.533"></use><use xlink:href="#10" y="18.37"></use><use xlink:href="#17" y="20.206999999999997"></use><use xlink:href="#18" y="22.044"></use></svg><svg x="1536"><use xlink:href="#a"></use><use xlink:href="#8" y="0"></use><use xlink:href="#27" y="1.837"></use><use xlink:href="#10" y="3.674"></use><use xlink:href="#11" y="5.511"></use><use xlink:href="#28" y="7.348"></use><use xlink:href="#11" y="9.185"></use><text x="0" y="12.692" class="d">├──────────────────────────────────────────────────────────</text></svg><svg x="1600"><use xlink:href="#a"></use><use xlink:href="#8" y="0"></use><use xlink:href="#27" y="1.837"></use><use xlink:href="#10" y="3.674"></use><use xlink:href="#11" y="5.511"></use><use xlink:href="#28" y="7.348"></use><use xlink:href="#11" y="9.185"></use><text x="0" y="12.692" class="d">├────────────────────────────────────────────────────────────</text></svg><svg x="1664"><use xlink:href="#a"></use><use xlink:href="#8" y="0"></use><use xlink:href="#27" y="1.837"></use><use xlink:href="#10" y="3.674"></use><use xlink:href="#11" y="5.511"></use><use xlink:href="#28" y="7.348"></use><use xlink:href="#11" y="9.185"></use><use xlink:href="#10" y="11.022"></use><use xlink:href="#17" y="12.859"></use><use xlink:href="#18" y="14.696"></use></svg><svg x="1728"><use xlink:href="#a"></use><use xlink:href="#8" y="0"></use><use xlink:href="#27" y="1.837"></use><use xlink:href="#10" y="3.674"></use><use xlink:href="#11" y="5.511"></use><use xlink:href="#29" y="7.348"></use><use xlink:href="#30" y="9.185"></use><use xlink:href="#31" y="11.022"></use><use xlink:href="#15" y="12.859"></use></svg><svg x="1792"><use xlink:href="#a"></use><use xlink:href="#8" y="0"></use><use xlink:href="#27" y="1.837"></use><use xlink:href="#10" y="3.674"></use><use xlink:href="#11" y="5.511"></use><use xlink:href="#29" y="7.348"></use><use xlink:href="#30" y="9.185"></use><use xlink:href="#31" y="11.022"></use><text x="0" y="14.529" class="d">│</text><text x="14.027999999999999" y="14.529" class="j">◼</text></svg><svg x="1856"><use xlink:href="#a"></use><use xlink:href="#8" y="0"></use><use xlink:href="#27" y="1.837"></use><use xlink:href="#10" y="3.674"></use><use xlink:href="#11" y="5.511"></use><use xlink:href="#29" y="7.348"></use><use xlink:href="#30" y="9.185"></use><use xlink:href="#31" y="11.022"></use><use xlink:href="#32" y="12.859"></use><use xlink:href="#33" y="14.696"></use><use xlink:href="#11" y="16.533"></use><use xlink:href="#10" y="18.37"></use><use xlink:href="#34" y="20.206999999999997"></use><use xlink:href="#18" y="22.044"></use></svg><svg x="1920"><use xlink:href="#a"></use><use xlink:href="#8" y="0"></use><use xlink:href="#27" y="1.837"></use><use xlink:href="#10" y="3.674"></use><use xlink:href="#11" y="5.511"></use><use xlink:href="#35" y="7.348"></use><use xlink:href="#30" y="9.185"></use><use xlink:href="#31" y="11.022"></use><use xlink:href="#36" y="12.859"></use></svg><svg x="1984"><use xlink:href="#a"></use><use xlink:href="#8" y="0"></use><use xlink:href="#27" y="1.837"></use><use xlink:href="#10" y="3.674"></use><use xlink:href="#11" y="5.511"></use><use xlink:href="#35" y="7.348"></use><use xlink:href="#30" y="9.185"></use><use xlink:href="#31" y="11.022"></use><use xlink:href="#37" y="12.859"></use></svg><svg x="2048"><use xlink:href="#a"></use><use xlink:href="#8" y="0"></use><use xlink:href="#27" y="1.837"></use><use xlink:href="#10" y="3.674"></use><use xlink:href="#11" y="5.511"></use><use xlink:href="#35" y="7.348"></use><use xlink:href="#30" y="9.185"></use><use xlink:href="#31" y="11.022"></use><use xlink:href="#32" y="12.859"></use><use xlink:href="#33" y="14.696"></use><use xlink:href="#11" y="16.533"></use><use xlink:href="#10" y="18.37"></use><use xlink:href="#34" y="20.206999999999997"></use><use xlink:href="#18" y="22.044"></use></svg><svg x="2112"><use xlink:href="#a"></use><use xlink:href="#8" y="0"></use><use xlink:href="#27" y="1.837"></use><use xlink:href="#10" y="3.674"></use><use xlink:href="#11" y="5.511"></use><use xlink:href="#38" y="7.348"></use><use xlink:href="#39" y="9.185"></use><use xlink:href="#31" y="11.022"></use><use xlink:href="#36" y="12.859"></use></svg><svg x="2176"><use xlink:href="#a"></use><use xlink:href="#8" y="0"></use><use xlink:href="#27" y="1.837"></use><use xlink:href="#10" y="3.674"></use><use xlink:href="#11" y="5.511"></use><use xlink:href="#38" y="7.348"></use><use xlink:href="#39" y="9.185"></use><use xlink:href="#31" y="11.022"></use><use xlink:href="#37" y="12.859"></use></svg><svg x="2240"><use xlink:href="#a"></use><use xlink:href="#8" y="0"></use><use xlink:href="#27" y="1.837"></use><use xlink:href="#10" y="3.674"></use><use xlink:href="#11" y="5.511"></use><use xlink:href="#38" y="7.348"></use><use xlink:href="#39" y="9.185"></use><use xlink:href="#31" y="11.022"></use><use xlink:href="#32" y="12.859"></use><use xlink:href="#33" y="14.696"></use><use xlink:href="#11" y="16.533"></use><use xlink:href="#10" y="18.37"></use><use xlink:href="#34" y="20.206999999999997"></use><use xlink:href="#18" y="22.044"></use></svg><svg x="2304"><use xlink:href="#a"></use><use xlink:href="#8" y="0"></use><use xlink:href="#27" y="1.837"></use><use xlink:href="#10" y="3.674"></use><use xlink:href="#11" y="5.511"></use><use xlink:href="#38" y="7.348"></use><use xlink:href="#40" y="9.185"></use><use xlink:href="#31" y="11.022"></use><use xlink:href="#37" y="12.859"></use></svg><svg x="2368"><use xlink:href="#a"></use><use xlink:href="#8" y="0"></use><use xlink:href="#27" y="1.837"></use><use xlink:href="#10" y="3.674"></use><use xlink:href="#11" y="5.511"></use><use xlink:href="#38" y="7.348"></use><use xlink:href="#40" y="9.185"></use><use xlink:href="#31" y="11.022"></use><use xlink:href="#37" y="12.859"></use></svg><svg x="2432"><use xlink:href="#a"></use><use xlink:href="#8" y="0"></use><use xlink:href="#27" y="1.837"></use><use xlink:href="#10" y="3.674"></use><use xlink:href="#11" y="5.511"></use><use xlink:href="#38" y="7.348"></use><use xlink:href="#40" y="9.185"></use><use xlink:href="#31" y="11.022"></use><use xlink:href="#32" y="12.859"></use><use xlink:href="#33" y="14.696"></use><use xlink:href="#11" y="16.533"></use><use xlink:href="#10" y="18.37"></use><use xlink:href="#34" y="20.206999999999997"></use><use xlink:href="#18" y="22.044"></use></svg><svg x="2496"><use xlink:href="#a"></use><use xlink:href="#8" y="0"></use><use xlink:href="#27" y="1.837"></use><use xlink:href="#10" y="3.674"></use><use xlink:href="#11" y="5.511"></use><use xlink:href="#38" y="7.348"></use><use xlink:href="#41" y="9.185"></use><use xlink:href="#42" y="11.022"></use><use xlink:href="#37" y="12.859"></use></svg><svg x="2560"><use xlink:href="#a"></use><use xlink:href="#8" y="0"></use><use xlink:href="#27" y="1.837"></use><use xlink:href="#10" y="3.674"></use><use xlink:href="#11" y="5.511"></use><use xlink:href="#38" y="7.348"></use><use xlink:href="#41" y="9.185"></use><use xlink:href="#42" y="11.022"></use><use xlink:href="#37" y="12.859"></use></svg><svg x="2624"><use xlink:href="#a"></use><use xlink:href="#8" y="0"></use><use xlink:href="#27" y="1.837"></use><use xlink:href="#10" y="3.674"></use><use xlink:href="#11" y="5.511"></use><use xlink:href="#38" y="7.348"></use><use xlink:href="#41" y="9.185"></use><use xlink:href="#42" y="11.022"></use><use xlink:href="#32" y="12.859"></use><use xlink:href="#33" y="14.696"></use><use xlink:href="#11" y="16.533"></use><use xlink:href="#10" y="18.37"></use><use xlink:href="#34" y="20.206999999999997"></use><use xlink:href="#18" y="22.044"></use></svg><svg x="2688"><use xlink:href="#a"></use><use xlink:href="#8" y="0"></use><use xlink:href="#27" y="1.837"></use><use xlink:href="#10" y="3.674"></use><use xlink:href="#11" y="5.511"></use><use xlink:href="#38" y="7.348"></use><use xlink:href="#41" y="9.185"></use><use xlink:href="#43" y="11.022"></use><use xlink:href="#37" y="12.859"></use></svg><svg x="2752"><use xlink:href="#a"></use><use xlink:href="#8" y="0"></use><use xlink:href="#27" y="1.837"></use><use xlink:href="#10" y="3.674"></use><use xlink:href="#11" y="5.511"></use><use xlink:href="#38" y="7.348"></use><use xlink:href="#41" y="9.185"></use><use xlink:href="#43" y="11.022"></use><use xlink:href="#37" y="12.859"></use></svg><svg x="2816"><use xlink:href="#a"></use><use xlink:href="#8" y="0"></use><use xlink:href="#27" y="1.837"></use><use xlink:href="#10" y="3.674"></use><use xlink:href="#11" y="5.511"></use><use xlink:href="#38" y="7.348"></use><use xlink:href="#41" y="9.185"></use><use xlink:href="#43" y="11.022"></use><use xlink:href="#32" y="12.859"></use><use xlink:href="#33" y="14.696"></use><use xlink:href="#11" y="16.533"></use><use xlink:href="#10" y="18.37"></use><use xlink:href="#34" y="20.206999999999997"></use><use xlink:href="#18" y="22.044"></use></svg><svg x="2880"><use xlink:href="#a"></use><use xlink:href="#8" y="0"></use><use xlink:href="#27" y="1.837"></use><use xlink:href="#10" y="3.674"></use><use xlink:href="#11" y="5.511"></use><use xlink:href="#44" y="7.348"></use><use xlink:href="#11" y="9.185"></use><text x="0" y="12.692" class="d">├────────────────────────────────────────────────────</text></svg><svg x="2944"><use xlink:href="#a"></use><use xlink:href="#8" y="0"></use><use xlink:href="#27" y="1.837"></use><use xlink:href="#10" y="3.674"></use><use xlink:href="#11" y="5.511"></use><use xlink:href="#44" y="7.348"></use><use xlink:href="#11" y="9.185"></use><text x="0" y="12.692" class="d">├──────────────────────────────────────────────────────</text></svg><svg x="3008"><use xlink:href="#a"></use><use xlink:href="#8" y="0"></use><use xlink:href="#27" y="1.837"></use><use xlink:href="#10" y="3.674"></use><use xlink:href="#11" y="5.511"></use><use xlink:href="#44" y="7.348"></use><use xlink:href="#11" y="9.185"></use><use xlink:href="#10" y="11.022"></use><use xlink:href="#17" y="12.859"></use><use xlink:href="#18" y="14.696"></use></svg><svg x="3072"><use xlink:href="#a"></use><use xlink:href="#8" y="0"></use><use xlink:href="#19" y="1.837"></use><use xlink:href="#10" y="3.674"></use><use xlink:href="#11" y="5.511"></use><use xlink:href="#20" y="7.348"></use><use xlink:href="#11" y="9.185"></use><use xlink:href="#21" y="11.022"></use><use xlink:href="#22" y="12.859"></use></svg><svg x="3136"><use xlink:href="#a"></use><use xlink:href="#8" y="0"></use><use xlink:href="#19" y="1.837"></use><use xlink:href="#10" y="3.674"></use><use xlink:href="#11" y="5.511"></use><use xlink:href="#20" y="7.348"></use><use xlink:href="#11" y="9.185"></use><use xlink:href="#21" y="11.022"></use><use xlink:href="#22" y="12.859"></use></svg><svg x="3200"><use xlink:href="#a"></use><use xlink:href="#8" y="0"></use><use xlink:href="#19" y="1.837"></use><use xlink:href="#10" y="3.674"></use><use xlink:href="#11" y="5.511"></use><use xlink:href="#20" y="7.348"></use><use xlink:href="#11" y="9.185"></use><use xlink:href="#21" y="11.022"></use><use xlink:href="#23" y="12.859"></use><text x="0" y="16.366" class="d">│</text><text x="6.012" y="16.366" class="j">pear</text><text x="63.12599999999999" y="16.366" class="d">│</text><use xlink:href="#11" y="16.533"></use><use xlink:href="#10" y="18.37"></use><use xlink:href="#17" y="20.206999999999997"></use><use xlink:href="#18" y="22.044"></use></svg><svg x="3264"><use xlink:href="#a"></use><use xlink:href="#8" y="0"></use><use xlink:href="#9" y="1.837"></use><use xlink:href="#10" y="3.674"></use><use xlink:href="#11" y="5.511"></use><use xlink:href="#12" y="7.348"></use><use xlink:href="#13" y="9.185"></use><use xlink:href="#14" y="11.022"></use><use xlink:href="#15" y="12.859"></use></svg><svg x="3328"><use xlink:href="#a"></use><use xlink:href="#8" y="0"></use><use xlink:href="#9" y="1.837"></use><use xlink:href="#10" y="3.674"></use><use xlink:href="#11" y="5.511"></use><use xlink:href="#12" y="7.348"></use><use xlink:href="#13" y="9.185"></use><use xlink:href="#14" y="11.022"></use><use xlink:href="#15" y="12.859"></use></svg><svg x="3392"><use xlink:href="#a"></use><use xlink:href="#8" y="0"></use><use xlink:href="#9" y="1.837"></use><use xlink:href="#10" y="3.674"></use><use xlink:href="#11" y="5.511"></use><use xlink:href="#12" y="7.348"></use><use xlink:href="#13" y="9.185"></use><use xlink:href="#14" y="11.022"></use><use xlink:href="#11" y="12.859"></use><use xlink:href="#16" y="14.696"></use><use xlink:href="#11" y="16.533"></use><use xlink:href="#10" y="18.37"></use><use xlink:href="#17" y="20.206999999999997"></use><use xlink:href="#18" y="22.044"></use></svg><svg x="3456"><use xlink:href="#a"></use><use xlink:href="#8" y="0"></use><use xlink:href="#9" y="1.837"></use><use xlink:href="#10" y="3.674"></use><use xlink:href="#11" y="5.511"></use><use xlink:href="#45" y="7.348"></use><use xlink:href="#46" y="9.185"></use><use xlink:href="#47" y="11.022"></use><use xlink:href="#15" y="12.859"></use></svg><svg x="3520"><use xlink:href="#a"></use><use xlink:href="#8" y="0"></use><use xlink:href="#9" y="1.837"></use><use xlink:href="#10" y="3.674"></use><use xlink:href="#11" y="5.511"></use><use xlink:href="#45" y="7.348"></use><use xlink:href="#46" y="9.185"></use><use xlink:href="#47" y="11.022"></use><use xlink:href="#11" y="12.859"></use></svg><svg x="3584"><use xlink:href="#a"></use><use xlink:href="#8" y="0"></use><use xlink:href="#9" y="1.837"></use><use xlink:href="#10" y="3.674"></use><use xlink:href="#11" y="5.511"></use><use xlink:href="#45" y="7.348"></use><use xlink:href="#46" y="9.185"></use><use xlink:href="#47" y="11.022"></use><use xlink:href="#11" y="12.859"></use><text x="0" y="16.366" class="d">│</text><rect height="1.837" width="13" x="4.008" y="14.696" class="k"></rect><text x="4.008" y="16.366" class="l">[ Надіслати ]</text><text x="19.037999999999997" y="16.366" class="j">[</text><text x="21.041999999999998" y="16.366" class="j">Скасувати</text><text x="31.061999999999998" y="16.366" class="j">]</text><text x="63.12599999999999" y="16.366" class="d">│</text><use xlink:href="#11" y="16.533"></use><use xlink:href="#10" y="18.37"></use><use xlink:href="#17" y="20.206999999999997"></use><use xlink:href="#18" y="22.044"></use></svg><svg x="3648"><use xlink:href="#a"></use><use xlink:href="#b" x="-0.0040000000000000036" y="3.499"></use><use xlink:href="#6" y="0"></use><use xlink:href="#7" y="1.837"></use></svg><svg x="3712"><use xlink:href="#a"></use><use xlink:href="#b" x="-0.0040000000000000036" y="7.173"></use><use xlink:href="#48" y="0"></use><use xlink:href="#49" y="1.837"></use><use xlink:href="#50" y="3.674"></use><use xlink:href="#51" y="5.511"></use></svg><svg x="3776"><use xlink:href="#a"></use><use xlink:href="#b" x="0.996" y="7.173"></use><use xlink:href="#48" y="0"></use><use xlink:href="#49" y="1.837"></use><use xlink:href="#50" y="3.674"></use><use xlink:href="#51" y="5.511"></use></svg></svg></g></g></svg></svg>