<svg xmlns="http://www.w3.org/2000/svg" xmlns:xlink="http://www.w3.org/1999/xlink" width="640" height="367.40000000000003"><rect width="640" height="367.40000000000003" rx="0" ry="0" class="a"></rect><svg height="367.40000000000003" viewBox="0 0 64 36.74" width="640" xmlns="http://www.w3.org/2000/svg" xmlns:xlink="http://www.w3.org/1999/xlink"><style>.a{fill:rgb(250,250,250)}.b{font-family:Consolas,"Courier New",Courier,"Liberation Mono",monospace}.c{fill:rgb(0,128,128);white-space:pre}.d{fill:rgb(90,96,105);white-space:pre}.e{fill:rgb(0,128,128);font-weight:bold;white-space:pre}.f{fill:rgb(56,58,66);font-weight:bold;white-space:pre}.g{fill:rgb(90,96,105);font-weight:bold;white-space:pre}.h{fill:rgb(0,128,0);font-weight:bold;white-space:pre}.i{fill:rgb(0,128,0);white-space:pre}.j{fill:rgb(56,58,66);white-space:pre}.k{fill:rgb(40,44,52)}.l{fill:rgb(250,250,250);font-weight:bold;white-space:pre}.m{fill:transparent}.n{fill:rgb(82,139,255)}.p{animation-duration:24.934s;animation-iteration-count:infinite;animation-name:o;animation-timing-function:steps(1,end)}@keyframes o{0%{transform:translateX(-0px)}7.55%{transform:translateX(-64px)}9.49%{transform:translateX(-128px)}9.52%{transform:translateX(-192px)}9.52%{transform:translateX(-256px)}9.52%{transform:translateX(-320px)}19.81%{transform:translateX(-384px)}19.81%{transform:translateX(-448px)}19.96%{transform:translateX(-512px)}28.88%{transform:translateX(-576px)}28.88%{transform:translateX(-640px)}29.03%{transform:translateX(-704px)}31.06%{transform:translateX(-768px)}31.06%{transform:translateX(-832px)}31.21%{transform:translateX(-896px)}38.71%{transform:translateX(-960px)}38.71%{transform:translateX(-1024px)}38.85%{transform:translateX(-1088px)}45.35%{transform:translateX(-1152px)}45.35%{transform:translateX(-1216px)}45.5%{transform:translateX(-1280px)}46.95%{transform:translateX(-1344px)}46.95%{transform:translateX(-1408px)}47.1%{transform:translateX(-1472px)}48.54%{transform:translateX(-1536px)}48.55%{transform:translateX(-1600px)}48.68%{transform:translateX(-1664px)}50.15%{transform:translateX(-1728px)}50.15%{transform:translateX(-1792px)}50.31%{transform:translateX(-1856px)}51.72%{transform:translateX(-1920px)}51.72%{transform:translateX(-1984px)}51.87%{transform:translateX(-2048px)}54.9%{transform:translateX(-2112px)}54.91%{transform:translateX(-2176px)}55.04%{transform:translateX(-2240px)}62.56%{transform:translateX(-2304px)}62.56%{transform:translateX(-2368px)}62.71%{transform:translateX(-2432px)}75.22%{transform:translateX(-2496px)}75.22%{transform:translateX(-2560px)}75.39%{transform:translateX(-2624px)}81.86%{transform:translateX(-2688px)}81.86%{transform:translateX(-2752px)}82.01%{transform:translateX(-2816px)}84.81%{transform:translateX(-2880px)}84.96%{transform:translateX(-2944px)}100%{transform:translateX(-3008px)}}</style><g font-family="Consolas, &quot;Courier New&quot;, Courier, &quot;Liberation Mono&quot;, monospace" font-size="1.67" class="b"><defs><symbol id="1"><text x="0" y="1.67" class="c">╭──────────────────────────────────────────────────────────────╮</text></symbol><symbol id="2"><text x="0" y="1.67" class="c">│</text><text x="2.004" y="1.67" class="d">Produce</text><text x="10.02" y="1.67" class="d">order</text><text x="63.12599999999999" y="1.67" class="c">│</text></symbol><symbol id="3"><text x="0" y="1.67" class="c">├──────────────────────────────────────────────────────────────┤</text></symbol><symbol id="4"><text x="0" y="1.67" class="c">│</text><text x="63.12599999999999" y="1.67" class="c">│</text></symbol><symbol id="5"><text x="0" y="1.67" class="c">│</text><text x="2.004" y="1.67" class="e">❯</text><text x="4.008" y="1.67" class="f">Нове</text><text x="9.017999999999999" y="1.67" class="f">замовлення</text><text x="20.04" y="1.67" class="g">›</text><text x="63.12599999999999" y="1.67" class="c">│</text></symbol><symbol id="6"><text x="0" y="1.67" class="c">│</text><text x="6.012" y="1.67" class="g">Ваше</text><text x="11.021999999999998" y="1.67" class="g">щотижневе</text><text x="21.041999999999998" y="1.67" class="g">замовлення</text><text x="32.064" y="1.67" class="g">продукції.</text><text x="63.12599999999999" y="1.67" class="c">│</text></symbol><symbol id="7"><text x="0" y="1.67" class="c">│</text><text x="6.012" y="1.67" class="h">Weekly</text><text x="63.12599999999999" y="1.67" class="c">│</text></symbol><symbol id="8"><text x="0" y="1.67" class="c">│</text></symbol><symbol id="9"><text x="0" y="1.67" class="c">│</text><text x="4.008" y="1.67" class="i">[</text><text x="6.012" y="1.67" class="i">Надіслати</text><text x="16.032" y="1.67" class="i">]</text><text x="19.037999999999997" y="1.67" class="i">[</text><text x="21.041999999999998" y="1.67" class="i">Скасувати</text><text x="31.061999999999998" y="1.67" class="i">]</text><text x="63.12599999999999" y="1.67" class="c">│</text></symbol><symbol id="10"><text x="0" y="1.67" class="c">│</text><text x="2.004" y="1.67" class="j">↑/↓</text><text x="6.012" y="1.67" class="j">перемістити</text><text x="18.035999999999998" y="1.67" class="j">·</text><text x="20.04" y="1.67" class="j">↵</text><text x="22.043999999999997" y="1.67" class="j">вибрати</text><text x="30.059999999999995" y="1.67" class="j">·</text><text x="32.064" y="1.67" class="j">esc</text><text x="36.071999999999996" y="1.67" class="j">назад</text><text x="42.083999999999996" y="1.67" class="j">·</text><text x="44.087999999999994" y="1.67" class="j">q</text><text x="46.09199999999999" y="1.67" class="j">вийти</text><text x="52.104" y="1.67" class="j">·</text><text x="54.108" y="1.67" class="j">?</text><text x="56.111999999999995" y="1.67" class="j">довідк</text><text x="63.12599999999999" y="1.67" class="c">│</text></symbol><symbol id="11"><text x="0" y="1.67" class="c">╰──────────────────────────────────────────────────────────────╯</text></symbol><symbol id="12"><text x="0" y="1.67" class="c">│</text><text x="2.004" y="1.67" class="d">Produce</text><text x="10.02" y="1.67" class="d">order</text><text x="16.032" y="1.67" class="d">›</text><text x="18.035999999999998" y="1.67" class="d">Нове</text><text x="23.045999999999996" y="1.67" class="d">замовлення</text><text x="63.12599999999999" y="1.67" class="c">│</text></symbol><symbol id="13"><text x="0" y="1.67" class="c">│</text><text x="2.004" y="1.67" class="e">❯</text><text x="4.008" y="1.67" class="f">Назва</text><text x="10.02" y="1.67" class="f">замовлення</text><text x="22.043999999999997" y="1.67" class="h">Weekly</text><text x="63.12599999999999" y="1.67" class="c">│</text></symbol><symbol id="14"><text x="0" y="1.67" class="c">│</text><text x="4.008" y="1.67" class="j">Кошик</text><text x="10.02" y="1.67" class="d">›</text><text x="63.12599999999999" y="1.67" class="c">│</text></symbol><symbol id="15"><text x="0" y="1.67" class="c">│</text><text x="6.012" y="1.67" class="d">Виберіть</text><text x="15.029999999999998" y="1.67" class="d">фрукти.</text></symbol><symbol id="16"><text x="0" y="1.67" class="c">│</text><text x="6.012" y="1.67" class="d">Виберіть</text><text x="15.029999999999998" y="1.67" class="d">фрукти.</text><text x="63.12599999999999" y="1.67" class="c">│</text></symbol><symbol id="17"><text x="0" y="1.67" class="c">│</text><text x="4.008" y="1.67" class="j">Назва</text><text x="10.02" y="1.67" class="j">замовлення</text><text x="22.043999999999997" y="1.67" class="i">Weekly</text><text x="63.12599999999999" y="1.67" class="c">│</text></symbol><symbol id="18"><text x="0" y="1.67" class="c">│</text><text x="2.004" y="1.67" class="e">❯</text><text x="4.008" y="1.67" class="f">Кошик</text><text x="10.02" y="1.67" class="g">›</text><text x="63.12599999999999" y="1.67" class="c">│</text></symbol><symbol id="19"><text x="0" y="1.67" class="c">│</text><text x="6.012" y="1.67" class="g">Виберіть</text><text x="15.029999999999998" y="1.67" class="g">фрукти.</text></symbol><symbol id="20"><text x="0" y="1.67" class="c">│</text><text x="2.004" y="1.67" class="d">Produce</text><text x="10.02" y="1.67" class="d">order</text><text x="16.032" y="1.67" class="d">›</text><text x="18.035999999999998" y="1.67" class="d">Нове</text><text x="23.045999999999996" y="1.67" class="d">замовлення</text><text x="34.068" y="1.67" class="d">›</text><text x="36.071999999999996" y="1.67" class="d">Кошик</text><text x="63.12599999999999" y="1.67" class="c">│</text></symbol><symbol id="21"><text x="0" y="1.67" class="c">│</text><text x="2.004" y="1.67" class="e">❯</text><text x="4.008" y="1.67" class="f">Фрукти</text><text x="12.024" y="1.67" class="h">apple,</text><text x="19.037999999999997" y="1.67" class="h">banana,</text><text x="27.054" y="1.67" class="h">cherry,</text><text x="35.06999999999999" y="1.67" class="h">pear</text><text x="63.12599999999999" y="1.67" class="c">│</text></symbol><symbol id="22"><text x="0" y="1.67" class="c">│</text><text x="2.004" y="1.67" class="e">❯</text><text x="4.008" y="1.67" class="f">Фрукти</text><text x="12.024" y="1.67" class="e">❯</text><text x="14.027999999999999" y="1.67" class="i">◼</text><text x="16.032" y="1.67" class="e">Яблуко</text><text x="63.12599999999999" y="1.67" class="c">│</text></symbol><symbol id="23"><text x="0" y="1.67" class="c">│</text><text x="14.027999999999999" y="1.67" class="i">◼</text><text x="16.032" y="1.67" class="j">Банан</text><text x="63.12599999999999" y="1.67" class="c">│</text></symbol><symbol id="24"><text x="0" y="1.67" class="c">│</text><text x="14.027999999999999" y="1.67" class="i">◼</text><text x="16.032" y="1.67" class="j">Вишня</text><text x="63.12599999999999" y="1.67" class="c">│</text></symbol><symbol id="25"><text x="0" y="1.67" class="c">│</text><text x="14.027999999999999" y="1.67" class="i">◼</text><text x="16.032" y="1.67" class="j">Груша</text><text x="63.12599999999999" y="1.67" class="c">│</text></symbol><symbol id="26"><text x="0" y="1.67" class="c">│</text><text x="14.027999999999999" y="1.67" class="j">◻</text><text x="16.032" y="1.67" class="j">Виноград</text><text x="63.12599999999999" y="1.67" class="c">│</text></symbol><symbol id="27"><text x="0" y="1.67" class="c">│</text><text x="2.004" y="1.67" class="d">↑/↓</text><text x="6.012" y="1.67" class="d">перемістити</text><text x="18.035999999999998" y="1.67" class="d">·</text><text x="20.04" y="1.67" class="d">↵</text><text x="22.043999999999997" y="1.67" class="d">прийняти</text><text x="31.061999999999998" y="1.67" class="d">·</text><text x="33.065999999999995" y="1.67" class="d">esc</text><text x="37.074" y="1.67" class="d">скасувати</text><text x="63.12599999999999" y="1.67" class="c">│</text></symbol><symbol id="28"><text x="0" y="1.67" class="c">│</text><text x="2.004" y="1.67" class="e">❯</text><text x="4.008" y="1.67" class="f">Фрукти</text><text x="12.024" y="1.67" class="e">❯</text><text x="14.027999999999999" y="1.67" class="j">◻</text><text x="16.032" y="1.67" class="e">Яблуко</text><text x="63.12599999999999" y="1.67" class="c">│</text></symbol><symbol id="29"><text x="0" y="1.67" class="c">│</text><text x="14.027999999999999" y="1.67" class="i">◼</text><text x="16.032" y="1.67" class="j">Г</text></symbol><symbol id="30"><text x="0" y="1.67" class="c">│</text><text x="14.027999999999999" y="1.67" class="i">◼</text><text x="16.032" y="1.67" class="j">Груша</text></symbol><symbol id="31"><text x="0" y="1.67" class="c">│</text><text x="2.004" y="1.67" class="e">❯</text><text x="4.008" y="1.67" class="f">Фрукти</text><text x="14.027999999999999" y="1.67" class="j">◻</text><text x="16.032" y="1.67" class="j">Яблуко</text><text x="63.12599999999999" y="1.67" class="c">│</text></symbol><symbol id="32"><text x="0" y="1.67" class="c">│</text><text x="12.024" y="1.67" class="e">❯</text><text x="14.027999999999999" y="1.67" class="i">◼</text><text x="16.032" y="1.67" class="e">Банан</text><text x="63.12599999999999" y="1.67" class="c">│</text></symbol><symbol id="33"><text x="0" y="1.67" class="c">│</text><text x="12.024" y="1.67" class="e">❯</text><text x="14.027999999999999" y="1.67" class="j">◻</text><text x="16.032" y="1.67" class="e">Банан</text><text x="63.12599999999999" y="1.67" class="c">│</text></symbol><symbol id="34"><text x="0" y="1.67" class="c">│</text><text x="14.027999999999999" y="1.67" class="j">◻</text><text x="16.032" y="1.67" class="j">Банан</text><text x="63.12599999999999" y="1.67" class="c">│</text></symbol><symbol id="35"><text x="0" y="1.67" class="c">│</text><text x="12.024" y="1.67" class="e">❯</text><text x="14.027999999999999" y="1.67" class="i">◼</text><text x="16.032" y="1.67" class="e">Вишня</text><text x="63.12599999999999" y="1.67" class="c">│</text></symbol><symbol id="36"><text x="0" y="1.67" class="c">│</text><text x="12.024" y="1.67" class="e">❯</text><text x="14.027999999999999" y="1.67" class="j">◻</text><text x="16.032" y="1.67" class="e">Вишня</text><text x="63.12599999999999" y="1.67" class="c">│</text></symbol><symbol id="37"><text x="0" y="1.67" class="c">│</text><text x="2.004" y="1.67" class="e">❯</text><text x="4.008" y="1.67" class="f">Фрукти</text><text x="12.024" y="1.67" class="h">pear</text><rect height="1.837" width="9" x="53.105999999999995" y="0" class="k"></rect><text x="53.105999999999995" y="1.67" class="l"> змінено </text><text x="63.12599999999999" y="1.67" class="c">│</text></symbol><symbol id="38"><text x="0" y="1.67" class="c">│</text><text x="4.008" y="1.67" class="j">Нове</text><text x="9.017999999999999" y="1.67" class="j">замовлення</text><text x="20.04" y="1.67" class="d">›</text><text x="63.12599999999999" y="1.67" class="c">│</text></symbol><symbol id="39"><text x="0" y="1.67" class="c">│</text><text x="6.012" y="1.67" class="d">Ваше</text><text x="11.021999999999998" y="1.67" class="d">щотижневе</text><text x="21.041999999999998" y="1.67" class="d">замовлення</text><text x="32.064" y="1.67" class="d">продукції.</text><text x="63.12599999999999" y="1.67" class="c">│</text></symbol><symbol id="40"><text x="0" y="1.67" class="c">│</text><text x="6.012" y="1.67" class="i">Weekly</text><text x="63.12599999999999" y="1.67" class="c">│</text></symbol><symbol id="41"><text x="0" y="1.67" class="j">Нове</text><text x="5.01" y="1.67" class="j">замовлення</text></symbol><symbol id="42"><text x="2.004" y="1.67" class="j">Назва</text><text x="8.016" y="1.67" class="j">замовлення:</text><text x="20.04" y="1.67" class="j">Weekly</text></symbol><symbol id="43"><text x="2.004" y="1.67" class="j">Кошик</text></symbol><symbol id="44"><text x="4.008" y="1.67" class="j">Фрукти:</text><text x="12.024" y="1.67" class="j">pear</text><text x="17.034" y="1.67" class="j">(змінено)</text></symbol><symbol id="a"><rect height="20" width="64" x="0" y="0" class="m"></rect></symbol><symbol id="b"><rect height="1.837" width="1.1022" class="n"></rect></symbol></defs><rect height="36.74" width="64" class="a"></rect><g class="p"><svg x="0" y="0" width="3072"><svg x="0"><use xlink:href="#a"></use><use xlink:href="#b" x="-0.0040000000000000036" y="0"></use></svg><svg x="64"><use xlink:href="#a"></use><use xlink:href="#b" x="-0.0040000000000000036" y="0"></use></svg><svg x="128"><use xlink:href="#a"></use></svg><svg x="192"><use xlink:href="#a"></use><use xlink:href="#1" y="0"></use><use xlink:href="#2" y="1.837"></use><use xlink:href="#3" y="3.674"></use><use xlink:href="#4" y="5.511"></use><use xlink:href="#5" y="7.348"></use><use xlink:href="#6" y="9.185"></use><use xlink:href="#7" y="11.022"></use><use xlink:href="#8" y="12.859"></use></svg><svg x="256"><use xlink:href="#a"></use><use xlink:href="#1" y="0"></use><use xlink:href="#2" y="1.837"></use><use xlink:href="#3" y="3.674"></use><use xlink:href="#4" y="5.511"></use><use xlink:href="#5" y="7.348"></use><use xlink:href="#6" y="9.185"></use><use xlink:href="#7" y="11.022"></use><use xlink:href="#8" y="12.859"></use></svg><svg x="320"><use xlink:href="#a"></use><use xlink:href="#1" y="0"></use><use xlink:href="#2" y="1.837"></use><use xlink:href="#3" y="3.674"></use><use xlink:href="#4" y="5.511"></use><use xlink:href="#5" y="7.348"></use><use xlink:href="#6" y="9.185"></use><use xlink:href="#7" y="11.022"></use><use xlink:href="#4" y="12.859"></use><use xlink:href="#9" y="14.696"></use><use xlink:href="#4" y="16.533"></use><use xlink:href="#3" y="18.37"></use><use xlink:href="#10" y="20.206999999999997"></use><use xlink:href="#11" y="22.044"></use></svg><svg x="384"><use xlink:href="#a"></use><use xlink:href="#1" y="0"></use><use xlink:href="#12" y="1.837"></use><use xlink:href="#3" y="3.674"></use><use xlink:href="#4" y="5.511"></use><use xlink:href="#13" y="7.348"></use><use xlink:href="#4" y="9.185"></use><use xlink:href="#14" y="11.022"></use><use xlink:href="#15" y="12.859"></use></svg><svg x="448"><use xlink:href="#a"></use><use xlink:href="#1" y="0"></use><use xlink:href="#12" y="1.837"></use><use xlink:href="#3" y="3.674"></use><use xlink:href="#4" y="5.511"></use><use xlink:href="#13" y="7.348"></use><use xlink:href="#4" y="9.185"></use><use xlink:href="#14" y="11.022"></use><use xlink:href="#15" y="12.859"></use></svg><svg x="512"><use xlink:href="#a"></use><use xlink:href="#1" y="0"></use><use xlink:href="#12" y="1.837"></use><use xlink:href="#3" y="3.674"></use><use xlink:href="#4" y="5.511"></use><use xlink:href="#13" y="7.348"></use><use xlink:href="#4" y="9.185"></use><use xlink:href="#14" y="11.022"></use><use xlink:href="#16" y="12.859"></use><text x="0" y="16.366" class="c">│</text><text x="6.012" y="16.366" class="i">4</text><text x="8.016" y="16.366" class="i">елементи</text><text x="17.034" y="16.366" class="i">вибрано</text><text x="63.12599999999999" y="16.366" class="c">│</text><use xlink:href="#4" y="16.533"></use><use xlink:href="#3" y="18.37"></use><use xlink:href="#10" y="20.206999999999997"></use><use xlink:href="#11" y="22.044"></use></svg><svg x="576"><use xlink:href="#a"></use><use xlink:href="#1" y="0"></use><use xlink:href="#12" y="1.837"></use><use xlink:href="#3" y="3.674"></use><use xlink:href="#4" y="5.511"></use><use xlink:href="#17" y="7.348"></use><use xlink:href="#4" y="9.185"></use><use xlink:href="#18" y="11.022"></use><use xlink:href="#19" y="12.859"></use></svg><svg x="640"><use xlink:href="#a"></use><use xlink:href="#1" y="0"></use><use xlink:href="#12" y="1.837"></use><use xlink:href="#3" y="3.674"></use><use xlink:href="#4" y="5.511"></use><use xlink:href="#17" y="7.348"></use><use xlink:href="#4" y="9.185"></use><use xlink:href="#18" y="11.022"></use><use xlink:href="#19" y="12.859"></use></svg><svg x="704"><use xlink:href="#a"></use><use xlink:href="#1" y="0"></use><use xlink:href="#12" y="1.837"></use><use xlink:href="#3" y="3.674"></use><use xlink:href="#4" y="5.511"></use><use xlink:href="#17" y="7.348"></use><use xlink:href="#4" y="9.185"></use><use xlink:href="#18" y="11.022"></use><text x="0" y="14.529" class="c">│</text><text x="6.012" y="14.529" class="g">Виберіть</text><text x="15.029999999999998" y="14.529" class="g">фрукти.</text><text x="63.12599999999999" y="14.529" class="c">│</text><text x="0" y="16.366" class="c">│</text><text x="6.012" y="16.366" class="h">4</text><text x="8.016" y="16.366" class="h">елементи</text><text x="17.034" y="16.366" class="h">вибрано</text><text x="63.12599999999999" y="16.366" class="c">│</text><use xlink:href="#4" y="16.533"></use><use xlink:href="#3" y="18.37"></use><use xlink:href="#10" y="20.206999999999997"></use><use xlink:href="#11" y="22.044"></use></svg><svg x="768"><use xlink:href="#a"></use><use xlink:href="#1" y="0"></use><use xlink:href="#20" y="1.837"></use><use xlink:href="#3" y="3.674"></use><use xlink:href="#4" y="5.511"></use><use xlink:href="#21" y="7.348"></use><use xlink:href="#4" y="9.185"></use><text x="0" y="12.692" class="c">├──────────────────────────────────────────────────────────</text></svg><svg x="832"><use xlink:href="#a"></use><use xlink:href="#1" y="0"></use><use xlink:href="#20" y="1.837"></use><use xlink:href="#3" y="3.674"></use><use xlink:href="#4" y="5.511"></use><use xlink:href="#21" y="7.348"></use><use xlink:href="#4" y="9.185"></use><text x="0" y="12.692" class="c">├────────────────────────────────────────────────────────────</text></svg><svg x="896"><use xlink:href="#a"></use><use xlink:href="#1" y="0"></use><use xlink:href="#20" y="1.837"></use><use xlink:href="#3" y="3.674"></use><use xlink:href="#4" y="5.511"></use><use xlink:href="#21" y="7.348"></use><use xlink:href="#4" y="9.185"></use><use xlink:href="#3" y="11.022"></use><use xlink:href="#10" y="12.859"></use><use xlink:href="#11" y="14.696"></use></svg><svg x="960"><use xlink:href="#a"></use><use xlink:href="#1" y="0"></use><use xlink:href="#20" y="1.837"></use><use xlink:href="#3" y="3.674"></use><use xlink:href="#4" y="5.511"></use><use xlink:href="#22" y="7.348"></use><use xlink:href="#23" y="9.185"></use><use xlink:href="#24" y="11.022"></use><use xlink:href="#8" y="12.859"></use></svg><svg x="1024"><use xlink:href="#a"></use><use xlink:href="#1" y="0"></use><use xlink:href="#20" y="1.837"></use><use xlink:href="#3" y="3.674"></use><use xlink:href="#4" y="5.511"></use><use xlink:href="#22" y="7.348"></use><use xlink:href="#23" y="9.185"></use><use xlink:href="#24" y="11.022"></use><text x="0" y="14.529" class="c">│</text><text x="14.027999999999999" y="14.529" class="i">◼</text></svg><svg x="1088"><use xlink:href="#a"></use><use xlink:href="#1" y="0"></use><use xlink:href="#20" y="1.837"></use><use xlink:href="#3" y="3.674"></use><use xlink:href="#4" y="5.511"></use><use xlink:href="#22" y="7.348"></use><use xlink:href="#23" y="9.185"></use><use xlink:href="#24" y="11.022"></use><use xlink:href="#25" y="12.859"></use><use xlink:href="#26" y="14.696"></use><use xlink:href="#4" y="16.533"></use><use xlink:href="#3" y="18.37"></use><use xlink:href="#27" y="20.206999999999997"></use><use xlink:href="#11" y="22.044"></use></svg><svg x="1152"><use xlink:href="#a"></use><use xlink:href="#1" y="0"></use><use xlink:href="#20" y="1.837"></use><use xlink:href="#3" y="3.674"></use><use xlink:href="#4" y="5.511"></use><use xlink:href="#28" y="7.348"></use><use xlink:href="#23" y="9.185"></use><use xlink:href="#24" y="11.022"></use><use xlink:href="#29" y="12.859"></use></svg><svg x="1216"><use xlink:href="#a"></use><use xlink:href="#1" y="0"></use><use xlink:href="#20" y="1.837"></use><use xlink:href="#3" y="3.674"></use><use xlink:href="#4" y="5.511"></use><use xlink:href="#28" y="7.348"></use><use xlink:href="#23" y="9.185"></use><use xlink:href="#24" y="11.022"></use><use xlink:href="#30" y="12.859"></use></svg><svg x="1280"><use xlink:href="#a"></use><use xlink:href="#1" y="0"></use><use xlink:href="#20" y="1.837"></use><use xlink:href="#3" y="3.674"></use><use xlink:href="#4" y="5.511"></use><use xlink:href="#28" y="7.348"></use><use xlink:href="#23" y="9.185"></use><use xlink:href="#24" y="11.022"></use><use xlink:href="#25" y="12.859"></use><use xlink:href="#26" y="14.696"></use><use xlink:href="#4" y="16.533"></use><use xlink:href="#3" y="18.37"></use><use xlink:href="#27" y="20.206999999999997"></use><use xlink:href="#11" y="22.044"></use></svg><svg x="1344"><use xlink:href="#a"></use><use xlink:href="#1" y="0"></use><use xlink:href="#20" y="1.837"></use><use xlink:href="#3" y="3.674"></use><use xlink:href="#4" y="5.511"></use><use xlink:href="#31" y="7.348"></use><use xlink:href="#32" y="9.185"></use><use xlink:href="#24" y="11.022"></use><use xlink:href="#29" y="12.859"></use></svg><svg x="1408"><use xlink:href="#a"></use><use xlink:href="#1" y="0"></use><use xlink:href="#20" y="1.837"></use><use xlink:href="#3" y="3.674"></use><use xlink:href="#4" y="5.511"></use><use xlink:href="#31" y="7.348"></use><use xlink:href="#32" y="9.185"></use><use xlink:href="#24" y="11.022"></use><use xlink:href="#30" y="12.859"></use></svg><svg x="1472"><use xlink:href="#a"></use><use xlink:href="#1" y="0"></use><use xlink:href="#20" y="1.837"></use><use xlink:href="#3" y="3.674"></use><use xlink:href="#4" y="5.511"></use><use xlink:href="#31" y="7.348"></use><use xlink:href="#32" y="9.185"></use><use xlink:href="#24" y="11.022"></use><use xlink:href="#25" y="12.859"></use><use xlink:href="#26" y="14.696"></use><use xlink:href="#4" y="16.533"></use><use xlink:href="#3" y="18.37"></use><use xlink:href="#27" y="20.206999999999997"></use><use xlink:href="#11" y="22.044"></use></svg><svg x="1536"><use xlink:href="#a"></use><use xlink:href="#1" y="0"></use><use xlink:href="#20" y="1.837"></use><use xlink:href="#3" y="3.674"></use><use xlink:href="#4" y="5.511"></use><use xlink:href="#31" y="7.348"></use><use xlink:href="#33" y="9.185"></use><use xlink:href="#24" y="11.022"></use><use xlink:href="#30" y="12.859"></use></svg><svg x="1600"><use xlink:href="#a"></use><use xlink:href="#1" y="0"></use><use xlink:href="#20" y="1.837"></use><use xlink:href="#3" y="3.674"></use><use xlink:href="#4" y="5.511"></use><use xlink:href="#31" y="7.348"></use><use xlink:href="#33" y="9.185"></use><use xlink:href="#24" y="11.022"></use><use xlink:href="#30" y="12.859"></use></svg><svg x="1664"><use xlink:href="#a"></use><use xlink:href="#1" y="0"></use><use xlink:href="#20" y="1.837"></use><use xlink:href="#3" y="3.674"></use><use xlink:href="#4" y="5.511"></use><use xlink:href="#31" y="7.348"></use><use xlink:href="#33" y="9.185"></use><use xlink:href="#24" y="11.022"></use><use xlink:href="#25" y="12.859"></use><use xlink:href="#26" y="14.696"></use><use xlink:href="#4" y="16.533"></use><use xlink:href="#3" y="18.37"></use><use xlink:href="#27" y="20.206999999999997"></use><use xlink:href="#11" y="22.044"></use></svg><svg x="1728"><use xlink:href="#a"></use><use xlink:href="#1" y="0"></use><use xlink:href="#20" y="1.837"></use><use xlink:href="#3" y="3.674"></use><use xlink:href="#4" y="5.511"></use><use xlink:href="#31" y="7.348"></use><use xlink:href="#34" y="9.185"></use><use xlink:href="#35" y="11.022"></use><use xlink:href="#30" y="12.859"></use></svg><svg x="1792"><use xlink:href="#a"></use><use xlink:href="#1" y="0"></use><use xlink:href="#20" y="1.837"></use><use xlink:href="#3" y="3.674"></use><use xlink:href="#4" y="5.511"></use><use xlink:href="#31" y="7.348"></use><use xlink:href="#34" y="9.185"></use><use xlink:href="#35" y="11.022"></use><use xlink:href="#30" y="12.859"></use></svg><svg x="1856"><use xlink:href="#a"></use><use xlink:href="#1" y="0"></use><use xlink:href="#20" y="1.837"></use><use xlink:href="#3" y="3.674"></use><use xlink:href="#4" y="5.511"></use><use xlink:href="#31" y="7.348"></use><use xlink:href="#34" y="9.185"></use><use xlink:href="#35" y="11.022"></use><use xlink:href="#25" y="12.859"></use><use xlink:href="#26" y="14.696"></use><use xlink:href="#4" y="16.533"></use><use xlink:href="#3" y="18.37"></use><use xlink:href="#27" y="20.206999999999997"></use><use xlink:href="#11" y="22.044"></use></svg><svg x="1920"><use xlink:href="#a"></use><use xlink:href="#1" y="0"></use><use xlink:href="#20" y="1.837"></use><use xlink:href="#3" y="3.674"></use><use xlink:href="#4" y="5.511"></use><use xlink:href="#31" y="7.348"></use><use xlink:href="#34" y="9.185"></use><use xlink:href="#36" y="11.022"></use><use xlink:href="#30" y="12.859"></use></svg><svg x="1984"><use xlink:href="#a"></use><use xlink:href="#1" y="0"></use><use xlink:href="#20" y="1.837"></use><use xlink:href="#3" y="3.674"></use><use xlink:href="#4" y="5.511"></use><use xlink:href="#31" y="7.348"></use><use xlink:href="#34" y="9.185"></use><use xlink:href="#36" y="11.022"></use><use xlink:href="#30" y="12.859"></use></svg><svg x="2048"><use xlink:href="#a"></use><use xlink:href="#1" y="0"></use><use xlink:href="#20" y="1.837"></use><use xlink:href="#3" y="3.674"></use><use xlink:href="#4" y="5.511"></use><use xlink:href="#31" y="7.348"></use><use xlink:href="#34" y="9.185"></use><use xlink:href="#36" y="11.022"></use><use xlink:href="#25" y="12.859"></use><use xlink:href="#26" y="14.696"></use><use xlink:href="#4" y="16.533"></use><use xlink:href="#3" y="18.37"></use><use xlink:href="#27" y="20.206999999999997"></use><use xlink:href="#11" y="22.044"></use></svg><svg x="2112"><use xlink:href="#a"></use><use xlink:href="#1" y="0"></use><use xlink:href="#20" y="1.837"></use><use xlink:href="#3" y="3.674"></use><use xlink:href="#4" y="5.511"></use><use xlink:href="#37" y="7.348"></use><use xlink:href="#4" y="9.185"></use><text x="0" y="12.692" class="c">├────────────────────────────────────────────────────</text></svg><svg x="2176"><use xlink:href="#a"></use><use xlink:href="#1" y="0"></use><use xlink:href="#20" y="1.837"></use><use xlink:href="#3" y="3.674"></use><use xlink:href="#4" y="5.511"></use><use xlink:href="#37" y="7.348"></use><use xlink:href="#4" y="9.185"></use><text x="0" y="12.692" class="c">├──────────────────────────────────────────────────────</text></svg><svg x="2240"><use xlink:href="#a"></use><use xlink:href="#1" y="0"></use><use xlink:href="#20" y="1.837"></use><use xlink:href="#3" y="3.674"></use><use xlink:href="#4" y="5.511"></use><use xlink:href="#37" y="7.348"></use><use xlink:href="#4" y="9.185"></use><use xlink:href="#3" y="11.022"></use><use xlink:href="#10" y="12.859"></use><use xlink:href="#11" y="14.696"></use></svg><svg x="2304"><use xlink:href="#a"></use><use xlink:href="#1" y="0"></use><use xlink:href="#12" y="1.837"></use><use xlink:href="#3" y="3.674"></use><use xlink:href="#4" y="5.511"></use><use xlink:href="#13" y="7.348"></use><use xlink:href="#4" y="9.185"></use><use xlink:href="#14" y="11.022"></use><use xlink:href="#15" y="12.859"></use></svg><svg x="2368"><use xlink:href="#a"></use><use xlink:href="#1" y="0"></use><use xlink:href="#12" y="1.837"></use><use xlink:href="#3" y="3.674"></use><use xlink:href="#4" y="5.511"></use><use xlink:href="#13" y="7.348"></use><use xlink:href="#4" y="9.185"></use><use xlink:href="#14" y="11.022"></use><use xlink:href="#15" y="12.859"></use></svg><svg x="2432"><use xlink:href="#a"></use><use xlink:href="#1" y="0"></use><use xlink:href="#12" y="1.837"></use><use xlink:href="#3" y="3.674"></use><use xlink:href="#4" y="5.511"></use><use xlink:href="#13" y="7.348"></use><use xlink:href="#4" y="9.185"></use><use xlink:href="#14" y="11.022"></use><use xlink:href="#16" y="12.859"></use><text x="0" y="16.366" class="c">│</text><text x="6.012" y="16.366" class="i">pear</text><text x="63.12599999999999" y="16.366" class="c">│</text><use xlink:href="#4" y="16.533"></use><use xlink:href="#3" y="18.37"></use><use xlink:href="#10" y="20.206999999999997"></use><use xlink:href="#11" y="22.044"></use></svg><svg x="2496"><use xlink:href="#a"></use><use xlink:href="#1" y="0"></use><use xlink:href="#2" y="1.837"></use><use xlink:href="#3" y="3.674"></use><use xlink:href="#4" y="5.511"></use><use xlink:href="#5" y="7.348"></use><use xlink:href="#6" y="9.185"></use><use xlink:href="#7" y="11.022"></use><use xlink:href="#8" y="12.859"></use></svg><svg x="2560"><use xlink:href="#a"></use><use xlink:href="#1" y="0"></use><use xlink:href="#2" y="1.837"></use><use xlink:href="#3" y="3.674"></use><use xlink:href="#4" y="5.511"></use><use xlink:href="#5" y="7.348"></use><use xlink:href="#6" y="9.185"></use><use xlink:href="#7" y="11.022"></use><use xlink:href="#8" y="12.859"></use></svg><svg x="2624"><use xlink:href="#a"></use><use xlink:href="#1" y="0"></use><use xlink:href="#2" y="1.837"></use><use xlink:href="#3" y="3.674"></use><use xlink:href="#4" y="5.511"></use><use xlink:href="#5" y="7.348"></use><use xlink:href="#6" y="9.185"></use><use xlink:href="#7" y="11.022"></use><use xlink:href="#4" y="12.859"></use><use xlink:href="#9" y="14.696"></use><use xlink:href="#4" y="16.533"></use><use xlink:href="#3" y="18.37"></use><use xlink:href="#10" y="20.206999999999997"></use><use xlink:href="#11" y="22.044"></use></svg><svg x="2688"><use xlink:href="#a"></use><use xlink:href="#1" y="0"></use><use xlink:href="#2" y="1.837"></use><use xlink:href="#3" y="3.674"></use><use xlink:href="#4" y="5.511"></use><use xlink:href="#38" y="7.348"></use><use xlink:href="#39" y="9.185"></use><use xlink:href="#40" y="11.022"></use><use xlink:href="#8" y="12.859"></use></svg><svg x="2752"><use xlink:href="#a"></use><use xlink:href="#1" y="0"></use><use xlink:href="#2" y="1.837"></use><use xlink:href="#3" y="3.674"></use><use xlink:href="#4" y="5.511"></use><use xlink:href="#38" y="7.348"></use><use xlink:href="#39" y="9.185"></use><use xlink:href="#40" y="11.022"></use><use xlink:href="#4" y="12.859"></use></svg><svg x="2816"><use xlink:href="#a"></use><use xlink:href="#1" y="0"></use><use xlink:href="#2" y="1.837"></use><use xlink:href="#3" y="3.674"></use><use xlink:href="#4" y="5.511"></use><use xlink:href="#38" y="7.348"></use><use xlink:href="#39" y="9.185"></use><use xlink:href="#40" y="11.022"></use><use xlink:href="#4" y="12.859"></use><text x="0" y="16.366" class="c">│</text><rect height="1.837" width="13" x="4.008" y="14.696" class="k"></rect><text x="4.008" y="16.366" class="l">[ Надіслати ]</text><text x="19.037999999999997" y="16.366" class="i">[</text><text x="21.041999999999998" y="16.366" class="i">Скасувати</text><text x="31.061999999999998" y="16.366" class="i">]</text><text x="63.12599999999999" y="16.366" class="c">│</text><use xlink:href="#4" y="16.533"></use><use xlink:href="#3" y="18.37"></use><use xlink:href="#10" y="20.206999999999997"></use><use xlink:href="#11" y="22.044"></use></svg><svg x="2880"><use xlink:href="#a"></use><use xlink:href="#b" x="-0.0040000000000000036" y="0"></use></svg><svg x="2944"><use xlink:href="#a"></use><use xlink:href="#b" x="-0.0040000000000000036" y="7.173"></use><use xlink:href="#41" y="0"></use><use xlink:href="#42" y="1.837"></use><use xlink:href="#43" y="3.674"></use><use xlink:href="#44" y="5.511"></use></svg><svg x="3008"><use xlink:href="#a"></use><use xlink:href="#b" x="0.996" y="7.173"></use><use xlink:href="#41" y="0"></use><use xlink:href="#42" y="1.837"></use><use xlink:href="#43" y="3.674"></use><use xlink:href="#44" y="5.511"></use></svg></svg></g></g></svg></svg>