<svg xmlns="http://www.w3.org/2000/svg" xmlns:xlink="http://www.w3.org/1999/xlink" width="610" height="183.70000000000002"><rect width="610" height="183.70000000000002" rx="0" ry="0" class="a"></rect><svg height="183.70000000000002" viewBox="0 0 61 18.37" width="610" xmlns="http://www.w3.org/2000/svg" xmlns:xlink="http://www.w3.org/1999/xlink"><style>.a{fill:rgb(40,44,52)}.b{font-family:Consolas,"Courier New",Courier,"Liberation Mono",monospace}.c{fill:rgb(171,178,191);white-space:pre}.d{fill:transparent}.e{fill:rgb(82,139,255)}.g{animation-duration:7.375s;animation-iteration-count:infinite;animation-name:f;animation-timing-function:steps(1,end)}@keyframes f{0%{transform:translateX(-0px)}0%{transform:translateX(-61px)}18.6%{transform:translateX(-122px)}29.7%{transform:translateX(-183px)}40.7%{transform:translateX(-244px)}51.7%{transform:translateX(-305px)}62.7%{transform:translateX(-366px)}100%{transform:translateX(-427px)}}</style><g font-family="Consolas, &quot;Courier New&quot;, Courier, &quot;Liberation Mono&quot;, monospace" font-size="1.67" class="b"><defs><symbol id="1"><text x="0" y="1.67" class="c">↑/↓</text><text x="4.008" y="1.67" class="c">move</text><text x="9.017999999999999" y="1.67" class="c">·</text><text x="11.021999999999998" y="1.67" class="c">↵</text><text x="13.026" y="1.67" class="c">select</text><text x="20.04" y="1.67" class="c">·</text><text x="22.043999999999997" y="1.67" class="c">esc</text><text x="26.052" y="1.67" class="c">back</text><text x="31.061999999999998" y="1.67" class="c">·</text><text x="33.065999999999995" y="1.67" class="c">q</text><text x="35.06999999999999" y="1.67" class="c">quit</text><text x="40.08" y="1.67" class="c">·</text><text x="42.083999999999996" y="1.67" class="c">?</text><text x="44.087999999999994" y="1.67" class="c">help</text></symbol><symbol id="2"><text x="0" y="1.67" class="c">File</text><text x="5.01" y="1.67" class="c">picker</text><text x="12.024" y="1.67" class="c">widget</text><text x="19.037999999999997" y="1.67" class="c">›</text><text x="21.041999999999998" y="1.67" class="c">File</text><text x="26.052" y="1.67" class="c">picker</text></symbol><symbol id="3"><text x="0" y="1.67" class="c">❯</text><text x="2.004" y="1.67" class="c">File</text><text x="7.013999999999999" y="1.67" class="c">picker</text><text x="15.029999999999998" y="1.67" class="c">filepicker-tree</text></symbol><symbol id="4"><text x="17.034" y="1.67" class="c">◻</text><text x="19.037999999999997" y="1.67" class="c">deliveries/</text></symbol><symbol id="5"><text x="17.034" y="1.67" class="c">◻</text><text x="19.037999999999997" y="1.67" class="c">harvest.csv</text></symbol><symbol id="6"><text x="17.034" y="1.67" class="c">◻</text><text x="19.037999999999997" y="1.67" class="c">pantry.yaml</text></symbol><symbol id="7"><text x="17.034" y="1.67" class="c">◻</text><text x="19.037999999999997" y="1.67" class="c">README.md</text></symbol><symbol id="8"><text x="0" y="1.67" class="c">↑/↓</text><text x="4.008" y="1.67" class="c">move</text><text x="9.017999999999999" y="1.67" class="c">·</text><text x="11.021999999999998" y="1.67" class="c">→</text><text x="13.026" y="1.67" class="c">open</text><text x="18.035999999999998" y="1.67" class="c">·</text><text x="20.04" y="1.67" class="c">←</text><text x="22.043999999999997" y="1.67" class="c">up</text><text x="25.05" y="1.67" class="c">·</text><text x="27.054" y="1.67" class="c">↵</text><text x="29.058" y="1.67" class="c">accept</text><text x="36.071999999999996" y="1.67" class="c">·</text><text x="38.07599999999999" y="1.67" class="c">tab</text><text x="42.083999999999996" y="1.67" class="c">hidden</text><text x="49.098" y="1.67" class="c">·</text><text x="51.102" y="1.67" class="c">esc</text><text x="55.10999999999999" y="1.67" class="c">cancel</text></symbol><symbol id="9"><text x="17.034" y="1.67" class="c">◼</text><text x="19.037999999999997" y="1.67" class="c">baskets/</text></symbol><symbol id="10"><text x="15.029999999999998" y="1.67" class="c">❯</text><text x="17.034" y="1.67" class="c">◼</text><text x="19.037999999999997" y="1.67" class="c">deliveries/</text></symbol><symbol id="a"><rect height="10" width="61" x="0" y="0" class="d"></rect></symbol><symbol id="b"><rect height="1.837" width="1.1022" class="e"></rect></symbol></defs><rect height="18.37" width="61" class="a"></rect><g class="g"><svg x="0" y="0" width="488"><svg x="0"><use xlink:href="#a"></use><use xlink:href="#b" x="-0.0040000000000000036" y="0"></use></svg><svg x="61"><use xlink:href="#a"></use><use xlink:href="#b" x="47.996" y="9.01"></use><text x="0" y="1.67" class="c">File</text><text x="5.01" y="1.67" class="c">picker</text><text x="12.024" y="1.67" class="c">widget</text><text x="0" y="3.5069999999999997" class="c">❯</text><text x="2.004" y="3.5069999999999997" class="c">File</text><text x="7.013999999999999" y="3.5069999999999997" class="c">picker</text><text x="14.027999999999999" y="3.5069999999999997" class="c">›</text><text x="2.004" y="7.181" class="c">[</text><text x="4.008" y="7.181" class="c">Submit</text><text x="11.021999999999998" y="7.181" class="c">]</text><text x="14.027999999999999" y="7.181" class="c">[</text><text x="16.032" y="7.181" class="c">Cancel</text><text x="23.045999999999996" y="7.181" class="c">]</text><use xlink:href="#1" y="9.185"></use></svg><svg x="122"><use xlink:href="#a"></use><use xlink:href="#b" x="47.996" y="5.336"></use><use xlink:href="#2" y="0"></use><text x="0" y="3.5069999999999997" class="c">❯</text><text x="2.004" y="3.5069999999999997" class="c">File</text><text x="7.013999999999999" y="3.5069999999999997" class="c">picker</text><use xlink:href="#1" y="5.511"></use></svg><svg x="183"><use xlink:href="#a"></use><use xlink:href="#b" x="60.996" y="14.520999999999999"></use><use xlink:href="#2" y="0"></use><use xlink:href="#3" y="1.837"></use><text x="15.029999999999998" y="5.343999999999999" class="c">❯</text><text x="17.034" y="5.343999999999999" class="c">◻</text><text x="19.037999999999997" y="5.343999999999999" class="c">baskets/</text><use xlink:href="#4" y="5.511"></use><use xlink:href="#5" y="7.348"></use><use xlink:href="#6" y="9.185"></use><use xlink:href="#7" y="11.022"></use><use xlink:href="#8" y="14.696"></use></svg><svg x="244"><use xlink:href="#a"></use><use xlink:href="#b" x="60.996" y="14.520999999999999"></use><use xlink:href="#2" y="0"></use><use xlink:href="#3" y="1.837"></use><text x="15.029999999999998" y="5.343999999999999" class="c">❯</text><text x="17.034" y="5.343999999999999" class="c">◼</text><text x="19.037999999999997" y="5.343999999999999" class="c">baskets/</text><use xlink:href="#4" y="5.511"></use><use xlink:href="#5" y="7.348"></use><use xlink:href="#6" y="9.185"></use><use xlink:href="#7" y="11.022"></use><use xlink:href="#8" y="14.696"></use></svg><svg x="305"><use xlink:href="#a"></use><use xlink:href="#b" x="60.996" y="14.520999999999999"></use><use xlink:href="#2" y="0"></use><use xlink:href="#3" y="1.837"></use><use xlink:href="#9" y="3.674"></use><text x="15.029999999999998" y="7.181" class="c">❯</text><text x="17.034" y="7.181" class="c">◻</text><text x="19.037999999999997" y="7.181" class="c">deliveries/</text><use xlink:href="#5" y="7.348"></use><use xlink:href="#6" y="9.185"></use><use xlink:href="#7" y="11.022"></use><use xlink:href="#8" y="14.696"></use></svg><svg x="366"><use xlink:href="#a"></use><use xlink:href="#b" x="60.996" y="14.520999999999999"></use><use xlink:href="#2" y="0"></use><use xlink:href="#3" y="1.837"></use><use xlink:href="#9" y="3.674"></use><use xlink:href="#10" y="5.511"></use><use xlink:href="#5" y="7.348"></use><use xlink:href="#6" y="9.185"></use><use xlink:href="#7" y="11.022"></use><use xlink:href="#8" y="14.696"></use></svg><svg x="427"><use xlink:href="#a"></use><use xlink:href="#b" x="0.996" y="16.358"></use><use xlink:href="#2" y="0"></use><use xlink:href="#3" y="1.837"></use><use xlink:href="#9" y="3.674"></use><use xlink:href="#10" y="5.511"></use><use xlink:href="#5" y="7.348"></use><use xlink:href="#6" y="9.185"></use><use xlink:href="#7" y="11.022"></use><use xlink:href="#8" y="14.696"></use></svg></svg></g></g></svg></svg>