<svg xmlns="http://www.w3.org/2000/svg" xmlns:xlink="http://www.w3.org/1999/xlink" width="320" height="183.70000000000002"><rect width="320" height="183.70000000000002" rx="0" ry="0" class="a"></rect><svg height="183.70000000000002" viewBox="0 0 32 18.37" width="320" xmlns="http://www.w3.org/2000/svg" xmlns:xlink="http://www.w3.org/1999/xlink"><style>.a{fill:rgb(40,44,52)}.b{font-family:Consolas,"Courier New",Courier,"Liberation Mono",monospace}.c{fill:transparent}.d{fill:rgb(82,139,255)}.e{fill:rgb(128,128,128);white-space:pre}.f{fill:rgb(0,128,128);font-weight:bold;white-space:pre}.g{fill:rgb(171,178,191);font-weight:bold;white-space:pre}.h{fill:rgb(0,128,0);white-space:pre}.i{fill:rgb(171,178,191);white-space:pre}</style><g font-family="Consolas, &quot;Courier New&quot;, Courier, &quot;Liberation Mono&quot;, monospace" font-size="1.67" class="b"><defs><symbol id="a"><rect height="10" width="32" x="0" y="0" class="c"></rect></symbol><symbol id="b"><rect height="1.837" width="1.1022" class="d"></rect></symbol></defs><rect height="18.37" width="32" class="a"></rect><svg x="0" y="0" width="32"><svg x="0"><use xlink:href="#a"></use><use xlink:href="#b" x="31.996" y="12.684"></use><text x="0" y="1.67" class="e">Search</text><text x="7.013999999999999" y="1.67" class="e">widget</text><text x="14.027999999999999" y="1.67" class="e">›</text><text x="16.032" y="1.67" class="e">Search</text><text x="0" y="3.5069999999999997" class="f">❯</text><text x="2.004" y="3.5069999999999997" class="g">Search</text><text x="10.02" y="3.5069999999999997" class="f">█</text><text x="10.02" y="5.343999999999999" class="f">❯</text><text x="12.024" y="5.343999999999999" class="h">◼</text><text x="14.027999999999999" y="5.343999999999999" class="f">Apple</text><text x="12.024" y="7.181" class="i">◻</text><text x="14.027999999999999" y="7.181" class="i">Banana</text><text x="12.024" y="9.018" class="i">◻</text><text x="14.027999999999999" y="9.018" class="i">Carrot</text><text x="12.024" y="10.855" class="i">◻</text><text x="14.027999999999999" y="10.855" class="i">Tomato</text><text x="0" y="14.529" class="e">↑/↓</text><text x="4.008" y="14.529" class="e">move</text><text x="9.017999999999999" y="14.529" class="e">·</text><text x="11.021999999999998" y="14.529" class="e">↵</text><text x="13.026" y="14.529" class="e">accept</text><text x="20.04" y="14.529" class="e">·</text><text x="22.043999999999997" y="14.529" class="e">esc</text><text x="26.052" y="14.529" class="e">cancel</text></svg></svg></g></svg></svg>