<svg xmlns="http://www.w3.org/2000/svg" xmlns:xlink="http://www.w3.org/1999/xlink" width="760" height="220.44"><rect width="760" height="220.44" rx="0" ry="0" class="a"></rect><svg height="220.44" viewBox="0 0 76 22.044" width="760" xmlns="http://www.w3.org/2000/svg" xmlns:xlink="http://www.w3.org/1999/xlink"><style>.a{fill:rgb(250,250,250)}.b{font-family:Consolas,"Courier New",Courier,"Liberation Mono",monospace}.c{fill:rgb(0,128,128);white-space:pre}.d{fill:rgb(90,96,105);white-space:pre}.e{fill:rgb(0,128,128);font-weight:bold;white-space:pre}.f{fill:rgb(56,58,66);font-weight:bold;white-space:pre}.g{fill:rgb(56,58,66);white-space:pre}.h{fill:rgb(128,128,0);font-weight:bold;white-space:pre}.i{fill:rgb(0,128,0);white-space:pre}.j{fill:transparent}.k{fill:rgb(82,139,255)}.m{animation-duration:7.375s;animation-iteration-count:infinite;animation-name:l;animation-timing-function:steps(1,end)}.n{fill:rgb(90,96,105);font-weight:bold;white-space:pre}@keyframes l{0%{transform:translateX(-0px)}0%{transform:translateX(-76px)}18.6%{transform:translateX(-152px)}29.7%{transform:translateX(-228px)}40.7%{transform:translateX(-304px)}51.7%{transform:translateX(-380px)}62.7%{transform:translateX(-456px)}100%{transform:translateX(-532px)}}</style><g font-family="Consolas, &quot;Courier New&quot;, Courier, &quot;Liberation Mono&quot;, monospace" font-size="1.67" class="b"><defs><symbol id="1"><text x="0" y="1.67" class="c">+--------------------------------------------------------------------------+</text></symbol><symbol id="2"><text x="0" y="1.67" class="c">|</text><text x="2.004" y="1.67" class="d">^/v</text><text x="6.012" y="1.67" class="d">move</text><text x="11.021999999999998" y="1.67" class="d">*</text><text x="13.026" y="1.67" class="d">&lt;</text><text x="15.029999999999998" y="1.67" class="d">select</text><text x="22.043999999999997" y="1.67" class="d">*</text><text x="24.048" y="1.67" class="d">esc</text><text x="28.055999999999997" y="1.67" class="d">back</text><text x="33.065999999999995" y="1.67" class="d">*</text><text x="35.06999999999999" y="1.67" class="d">q</text><text x="37.074" y="1.67" class="d">quit</text><text x="42.083999999999996" y="1.67" class="d">*</text><text x="44.087999999999994" y="1.67" class="d">?</text><text x="46.09199999999999" y="1.67" class="d">help</text><text x="75.14999999999999" y="1.67" class="c">|</text></symbol><symbol id="3"><text x="0" y="1.67" class="c">|</text><text x="2.004" y="1.67" class="d">File</text><text x="7.013999999999999" y="1.67" class="d">picker</text><text x="14.027999999999999" y="1.67" class="d">widget</text><text x="21.041999999999998" y="1.67" class="d">&gt;</text><text x="23.045999999999996" y="1.67" class="d">File</text><text x="28.055999999999997" y="1.67" class="d">picker</text><text x="75.14999999999999" y="1.67" class="c">|</text></symbol><symbol id="4"><text x="0" y="1.67" class="c">|</text><text x="2.004" y="1.67" class="e">&gt;</text><text x="4.008" y="1.67" class="f">Price</text><text x="10.02" y="1.67" class="f">lists</text><text x="17.034" y="1.67" class="d">produce-archive</text><text x="75.14999999999999" y="1.67" class="c">|</text></symbol><symbol id="5"><text x="0" y="1.67" class="c">|</text><text x="19.037999999999997" y="1.67" class="g">[</text><text x="21.041999999999998" y="1.67" class="g">]</text><text x="23.045999999999996" y="1.67" class="g">deliveries/</text><text x="75.14999999999999" y="1.67" class="c">|</text></symbol><symbol id="6"><text x="0" y="1.67" class="c">|</text><text x="19.037999999999997" y="1.67" class="g">[</text><text x="21.041999999999998" y="1.67" class="g">]</text><text x="23.045999999999996" y="1.67" class="g">harvest.csv</text><text x="75.14999999999999" y="1.67" class="c">|</text></symbol><symbol id="7"><text x="0" y="1.67" class="c">|</text><text x="4.008" y="1.67" class="h">v</text><text x="75.14999999999999" y="1.67" class="c">|</text></symbol><symbol id="8"><text x="0" y="1.67" class="c">|</text><text x="2.004" y="1.67" class="d">^/v</text><text x="6.012" y="1.67" class="d">move</text><text x="11.021999999999998" y="1.67" class="d">*</text><text x="13.026" y="1.67" class="d">&gt;</text><text x="15.029999999999998" y="1.67" class="d">open</text><text x="20.04" y="1.67" class="d">*</text><text x="22.043999999999997" y="1.67" class="d">&lt;</text><text x="24.048" y="1.67" class="d">up</text><text x="27.054" y="1.67" class="d">*</text><text x="29.058" y="1.67" class="d">&lt;</text><text x="31.061999999999998" y="1.67" class="d">accept</text><text x="38.07599999999999" y="1.67" class="d">*</text><text x="40.08" y="1.67" class="d">tab</text><text x="44.087999999999994" y="1.67" class="d">hidden</text><text x="51.102" y="1.67" class="d">*</text><text x="53.105999999999995" y="1.67" class="d">esc</text><text x="57.114" y="1.67" class="d">cancel</text><text x="75.14999999999999" y="1.67" class="c">|</text></symbol><symbol id="9"><text x="0" y="1.67" class="c">|</text><text x="19.037999999999997" y="1.67" class="i">[x]</text><text x="23.045999999999996" y="1.67" class="g">baskets/</text><text x="75.14999999999999" y="1.67" class="c">|</text></symbol><symbol id="10"><text x="0" y="1.67" class="c">|</text><text x="17.034" y="1.67" class="e">&gt;</text><text x="19.037999999999997" y="1.67" class="i">[x]</text><text x="23.045999999999996" y="1.67" class="e">deliveries/</text><text x="75.14999999999999" y="1.67" class="c">|</text></symbol><symbol id="a"><rect height="12" width="76" x="0" y="0" class="j"></rect></symbol><symbol id="b"><rect height="1.837" width="1.1022" class="k"></rect></symbol></defs><rect height="22.044" width="76" class="a"></rect><g class="m"><svg x="0" y="0" width="608"><svg x="0"><use xlink:href="#a"></use><use xlink:href="#b" x="-0.0040000000000000036" y="0"></use></svg><svg x="76"><use xlink:href="#a"></use><use xlink:href="#b" x="75.996" y="14.520999999999999"></use><use xlink:href="#1" y="0"></use><text x="0" y="3.5069999999999997" class="c">|</text><text x="2.004" y="3.5069999999999997" class="d">File</text><text x="7.013999999999999" y="3.5069999999999997" class="d">picker</text><text x="14.027999999999999" y="3.5069999999999997" class="d">widget</text><text x="75.14999999999999" y="3.5069999999999997" class="c">|</text><use xlink:href="#1" y="3.674"></use><text x="0" y="7.181" class="c">|</text><text x="2.004" y="7.181" class="e">&gt;</text><text x="4.008" y="7.181" class="f">File</text><text x="9.017999999999999" y="7.181" class="f">picker</text><text x="16.032" y="7.181" class="n">&gt;</text><text x="75.14999999999999" y="7.181" class="c">|</text><text x="0" y="9.018" class="c">|</text><text x="75.14999999999999" y="9.018" class="c">|</text><text x="0" y="10.855" class="c">|</text><text x="4.008" y="10.855" class="i">[</text><text x="6.012" y="10.855" class="i">Submit</text><text x="13.026" y="10.855" class="i">]</text><text x="16.032" y="10.855" class="i">[</text><text x="18.035999999999998" y="10.855" class="i">Cancel</text><text x="25.05" y="10.855" class="i">]</text><text x="75.14999999999999" y="10.855" class="c">|</text><use xlink:href="#1" y="11.022"></use><use xlink:href="#2" y="12.859"></use><use xlink:href="#1" y="14.696"></use></svg><svg x="152"><use xlink:href="#a"></use><use xlink:href="#b" x="75.996" y="10.847"></use><use xlink:href="#1" y="0"></use><use xlink:href="#3" y="1.837"></use><use xlink:href="#1" y="3.674"></use><text x="0" y="7.181" class="c">|</text><text x="2.004" y="7.181" class="e">&gt;</text><text x="4.008" y="7.181" class="f">Price</text><text x="10.02" y="7.181" class="f">lists</text><text x="75.14999999999999" y="7.181" class="c">|</text><use xlink:href="#1" y="7.348"></use><use xlink:href="#2" y="9.185"></use><use xlink:href="#1" y="11.022"></use></svg><svg x="228"><use xlink:href="#a"></use><use xlink:href="#b" x="75.996" y="18.195"></use><use xlink:href="#1" y="0"></use><use xlink:href="#3" y="1.837"></use><use xlink:href="#1" y="3.674"></use><use xlink:href="#4" y="5.511"></use><text x="0" y="9.018" class="c">|</text><text x="17.034" y="9.018" class="e">&gt;</text><text x="19.037999999999997" y="9.018" class="g">[</text><text x="21.041999999999998" y="9.018" class="g">]</text><text x="23.045999999999996" y="9.018" class="e">baskets/</text><text x="75.14999999999999" y="9.018" class="c">|</text><use xlink:href="#5" y="9.185"></use><use xlink:href="#6" y="11.022"></use><use xlink:href="#7" y="12.859"></use><use xlink:href="#1" y="14.696"></use><use xlink:href="#8" y="16.533"></use><use xlink:href="#1" y="18.37"></use></svg><svg x="304"><use xlink:href="#a"></use><use xlink:href="#b" x="75.996" y="18.195"></use><use xlink:href="#1" y="0"></use><use xlink:href="#3" y="1.837"></use><use xlink:href="#1" y="3.674"></use><use xlink:href="#4" y="5.511"></use><text x="0" y="9.018" class="c">|</text><text x="17.034" y="9.018" class="e">&gt;</text><text x="19.037999999999997" y="9.018" class="i">[x]</text><text x="23.045999999999996" y="9.018" class="e">baskets/</text><text x="75.14999999999999" y="9.018" class="c">|</text><use xlink:href="#5" y="9.185"></use><use xlink:href="#6" y="11.022"></use><use xlink:href="#7" y="12.859"></use><use xlink:href="#1" y="14.696"></use><use xlink:href="#8" y="16.533"></use><use xlink:href="#1" y="18.37"></use></svg><svg x="380"><use xlink:href="#a"></use><use xlink:href="#b" x="75.996" y="18.195"></use><use xlink:href="#1" y="0"></use><use xlink:href="#3" y="1.837"></use><use xlink:href="#1" y="3.674"></use><use xlink:href="#4" y="5.511"></use><use xlink:href="#9" y="7.348"></use><text x="0" y="10.855" class="c">|</text><text x="17.034" y="10.855" class="e">&gt;</text><text x="19.037999999999997" y="10.855" class="g">[</text><text x="21.041999999999998" y="10.855" class="g">]</text><text x="23.045999999999996" y="10.855" class="e">deliveries/</text><text x="75.14999999999999" y="10.855" class="c">|</text><use xlink:href="#6" y="11.022"></use><use xlink:href="#7" y="12.859"></use><use xlink:href="#1" y="14.696"></use><use xlink:href="#8" y="16.533"></use><use xlink:href="#1" y="18.37"></use></svg><svg x="456"><use xlink:href="#a"></use><use xlink:href="#b" x="75.996" y="18.195"></use><use xlink:href="#1" y="0"></use><use xlink:href="#3" y="1.837"></use><use xlink:href="#1" y="3.674"></use><use xlink:href="#4" y="5.511"></use><use xlink:href="#9" y="7.348"></use><use xlink:href="#10" y="9.185"></use><use xlink:href="#6" y="11.022"></use><use xlink:href="#7" y="12.859"></use><use xlink:href="#1" y="14.696"></use><use xlink:href="#8" y="16.533"></use><use xlink:href="#1" y="18.37"></use></svg><svg x="532"><use xlink:href="#a"></use><use xlink:href="#b" x="0.996" y="20.031999999999996"></use><use xlink:href="#1" y="0"></use><use xlink:href="#3" y="1.837"></use><use xlink:href="#1" y="3.674"></use><use xlink:href="#4" y="5.511"></use><use xlink:href="#9" y="7.348"></use><use xlink:href="#10" y="9.185"></use><use xlink:href="#6" y="11.022"></use><use xlink:href="#7" y="12.859"></use><use xlink:href="#1" y="14.696"></use><use xlink:href="#8" y="16.533"></use><use xlink:href="#1" y="18.37"></use></svg></svg></g></g></svg></svg>