<svg xmlns="http://www.w3.org/2000/svg" xmlns:xlink="http://www.w3.org/1999/xlink" width="480" height="257.18"><rect width="480" height="257.18" rx="0" ry="0" class="a"></rect><svg height="257.18" viewBox="0 0 48 25.718" width="480" xmlns="http://www.w3.org/2000/svg" xmlns:xlink="http://www.w3.org/1999/xlink"><style>.a{fill:rgb(40,44,52)}.b{font-family:Consolas,"Courier New",Courier,"Liberation Mono",monospace}.c{fill:rgb(128,128,128);white-space:pre}.d{fill:rgb(0,128,128);font-weight:bold;white-space:pre}.e{fill:rgb(171,178,191);white-space:pre}.f{fill:transparent}.g{fill:rgb(82,139,255)}.i{animation-duration:5.75s;animation-iteration-count:infinite;animation-name:h;animation-timing-function:steps(1,end)}.j{fill:rgb(171,178,191);font-weight:bold;white-space:pre}.k{fill:rgb(128,128,128);font-weight:bold;white-space:pre}.l{fill:rgb(0,128,0);font-weight:bold;white-space:pre}.m{fill:rgb(0,128,0);white-space:pre}@keyframes h{0%{transform:translateX(-0px)}0%{transform:translateX(-48px)}23.9%{transform:translateX(-96px)}38%{transform:translateX(-144px)}52.2%{transform:translateX(-192px)}100%{transform:translateX(-240px)}}</style><g font-family="Consolas, &quot;Courier New&quot;, Courier, &quot;Liberation Mono&quot;, monospace" font-size="1.67" class="b"><defs><symbol id="1"><text x="0" y="1.67" class="c">^/v</text><text x="4.008" y="1.67" class="c">move</text><text x="9.017999999999999" y="1.67" class="c">*</text><text x="11.021999999999998" y="1.67" class="c">&lt;</text><text x="13.026" y="1.67" class="c">select</text><text x="20.04" y="1.67" class="c">*</text><text x="22.043999999999997" y="1.67" class="c">esc</text><text x="26.052" y="1.67" class="c">back</text><text x="31.061999999999998" y="1.67" class="c">*</text><text x="33.065999999999995" y="1.67" class="c">q</text><text x="35.06999999999999" y="1.67" class="c">quit</text><text x="40.08" y="1.67" class="c">*</text><text x="42.083999999999996" y="1.67" class="c">?</text><text x="44.087999999999994" y="1.67" class="c">help</text></symbol><symbol id="2"><text x="0" y="1.67" class="d">Calendar</text></symbol><symbol id="3"><text x="0" y="1.67" class="c">--------</text></symbol><symbol id="4"><text x="9.017999999999999" y="1.67" class="d">July</text><text x="14.027999999999999" y="1.67" class="d">2026</text></symbol><symbol id="5"><text x="1.002" y="1.67" class="c">Mo</text><text x="5.01" y="1.67" class="c">Tu</text><text x="9.017999999999999" y="1.67" class="c">We</text><text x="13.026" y="1.67" class="c">Th</text><text x="17.034" y="1.67" class="c">Fr</text><text x="21.041999999999998" y="1.67" class="c">Sa</text><text x="25.05" y="1.67" class="c">Su</text></symbol><symbol id="6"><text x="10.02" y="1.67" class="e">1</text><text x="14.027999999999999" y="1.67" class="e">2</text><text x="18.035999999999998" y="1.67" class="e">3</text><text x="22.043999999999997" y="1.67" class="e">4</text><text x="26.052" y="1.67" class="e">5</text></symbol><symbol id="7"><text x="2.004" y="1.67" class="e">6</text><text x="6.012" y="1.67" class="e">7</text><text x="10.02" y="1.67" class="e">8</text><text x="14.027999999999999" y="1.67" class="e">9</text><text x="17.034" y="1.67" class="e">10</text><text x="21.041999999999998" y="1.67" class="e">11</text><text x="25.05" y="1.67" class="e">12</text></symbol><symbol id="8"><text x="1.002" y="1.67" class="e">27</text><text x="5.01" y="1.67" class="e">28</text><text x="9.017999999999999" y="1.67" class="e">29</text><text x="13.026" y="1.67" class="e">30</text><text x="17.034" y="1.67" class="e">31</text></symbol><symbol id="9"><text x="0" y="1.67" class="c">&lt;/&gt;</text><text x="4.008" y="1.67" class="c">day</text><text x="8.016" y="1.67" class="c">*</text><text x="10.02" y="1.67" class="c">^/v</text><text x="14.027999999999999" y="1.67" class="c">week</text><text x="19.037999999999997" y="1.67" class="c">*</text><text x="21.041999999999998" y="1.67" class="c">&lt;</text><text x="23.045999999999996" y="1.67" class="c">accept</text><text x="30.059999999999995" y="1.67" class="c">*</text><text x="32.064" y="1.67" class="c">esc</text><text x="36.071999999999996" y="1.67" class="c">cancel</text></symbol><symbol id="10"><text x="1.002" y="1.67" class="e">13</text><text x="5.01" y="1.67" class="e">14</text><text x="9.017999999999999" y="1.67" class="e">15</text><text x="13.026" y="1.67" class="e">16</text><text x="17.034" y="1.67" class="e">17</text><text x="21.041999999999998" y="1.67" class="e">18</text><text x="25.05" y="1.67" class="e">19</text></symbol><symbol id="11"><text x="1.002" y="1.67" class="e">20</text><text x="5.01" y="1.67" class="e">21</text><text x="8.016" y="1.67" class="d">[22]</text><text x="13.026" y="1.67" class="e">23</text><text x="17.034" y="1.67" class="e">24</text><text x="21.041999999999998" y="1.67" class="e">25</text><text x="25.05" y="1.67" class="e">26</text></symbol><symbol id="a"><rect height="14" width="48" x="0" y="0" class="f"></rect></symbol><symbol id="b"><rect height="1.837" width="1.1022" class="g"></rect></symbol></defs><rect height="25.718" width="48" class="a"></rect><g class="i"><svg x="0" y="0" width="288"><svg x="0"><use xlink:href="#a"></use><use xlink:href="#b" x="-0.0040000000000000036" y="0"></use></svg><svg x="48"><use xlink:href="#a"></use><use xlink:href="#b" x="47.996" y="10.847"></use><text x="0" y="1.67" class="c">Calendar</text><text x="9.017999999999999" y="1.67" class="c">widget</text><text x="0" y="3.5069999999999997" class="d">&gt;</text><text x="2.004" y="3.5069999999999997" class="j">Calendar</text><text x="11.021999999999998" y="3.5069999999999997" class="k">&gt;</text><text x="4.008" y="5.343999999999999" class="l">2026-07-15</text><text x="2.004" y="9.018" class="m">[</text><text x="4.008" y="9.018" class="m">Submit</text><text x="11.021999999999998" y="9.018" class="m">]</text><text x="14.027999999999999" y="9.018" class="m">[</text><text x="16.032" y="9.018" class="m">Cancel</text><text x="23.045999999999996" y="9.018" class="m">]</text><use xlink:href="#1" y="11.022"></use></svg><svg x="96"><use xlink:href="#a"></use><use xlink:href="#b" x="47.996" y="5.336"></use><text x="0" y="1.67" class="c">Calendar</text><text x="9.017999999999999" y="1.67" class="c">widget</text><text x="16.032" y="1.67" class="c">&gt;</text><text x="18.035999999999998" y="1.67" class="c">Calendar</text><text x="0" y="3.5069999999999997" class="d">&gt;</text><text x="2.004" y="3.5069999999999997" class="j">Calendar</text><text x="12.024" y="3.5069999999999997" class="l">2026-07-15</text><use xlink:href="#1" y="5.511"></use></svg><svg x="144"><use xlink:href="#a"></use><use xlink:href="#b" x="41.996" y="18.195"></use><use xlink:href="#2" y="0"></use><use xlink:href="#3" y="1.837"></use><use xlink:href="#4" y="3.674"></use><use xlink:href="#5" y="5.511"></use><use xlink:href="#6" y="7.348"></use><use xlink:href="#7" y="9.185"></use><text x="1.002" y="12.692" class="e">13</text><text x="5.01" y="12.692" class="e">14</text><text x="8.016" y="12.692" class="d">[15]</text><text x="13.026" y="12.692" class="e">16</text><text x="17.034" y="12.692" class="e">17</text><text x="21.041999999999998" y="12.692" class="e">18</text><text x="25.05" y="12.692" class="e">19</text><text x="1.002" y="14.529" class="e">20</text><text x="5.01" y="14.529" class="e">21</text><text x="9.017999999999999" y="14.529" class="e">22</text><text x="13.026" y="14.529" class="e">23</text><text x="17.034" y="14.529" class="e">24</text><text x="21.041999999999998" y="14.529" class="e">25</text><text x="25.05" y="14.529" class="e">26</text><use xlink:href="#8" y="14.696"></use><use xlink:href="#9" y="18.37"></use></svg><svg x="192"><use xlink:href="#a"></use><use xlink:href="#b" x="41.996" y="18.195"></use><use xlink:href="#2" y="0"></use><use xlink:href="#3" y="1.837"></use><use xlink:href="#4" y="3.674"></use><use xlink:href="#5" y="5.511"></use><use xlink:href="#6" y="7.348"></use><use xlink:href="#7" y="9.185"></use><use xlink:href="#10" y="11.022"></use><use xlink:href="#11" y="12.859"></use><use xlink:href="#8" y="14.696"></use><use xlink:href="#9" y="18.37"></use></svg><svg x="240"><use xlink:href="#a"></use><use xlink:href="#b" x="42.996" y="18.195"></use><use xlink:href="#2" y="0"></use><use xlink:href="#3" y="1.837"></use><use xlink:href="#4" y="3.674"></use><use xlink:href="#5" y="5.511"></use><use xlink:href="#6" y="7.348"></use><use xlink:href="#7" y="9.185"></use><use xlink:href="#10" y="11.022"></use><use xlink:href="#11" y="12.859"></use><use xlink:href="#8" y="14.696"></use><use xlink:href="#9" y="18.37"></use></svg></svg></g></g></svg></svg>