<svg xmlns="http://www.w3.org/2000/svg" xmlns:xlink="http://www.w3.org/1999/xlink" width="760" height="220.44"><rect width="760" height="220.44" rx="0" ry="0" class="a"></rect><svg height="220.44" viewBox="0 0 76 22.044" width="760" xmlns="http://www.w3.org/2000/svg" xmlns:xlink="http://www.w3.org/1999/xlink"><style>.a{fill:rgb(250,250,250)}.b{font-family:Consolas,"Courier New",Courier,"Liberation Mono",monospace}.c{fill:rgb(0,128,128);white-space:pre}.d{fill:transparent}.e{fill:rgb(82,139,255)}.f{fill:rgb(90,96,105);white-space:pre}.g{fill:rgb(0,128,128);font-weight:bold;white-space:pre}.h{fill:rgb(56,58,66);font-weight:bold;white-space:pre}.i{fill:rgb(56,58,66);white-space:pre}</style><g font-family="Consolas, &quot;Courier New&quot;, Courier, &quot;Liberation Mono&quot;, monospace" font-size="1.67" class="b"><defs><symbol id="1"><text x="0" y="1.67" class="c">├──────────────────────────────────────────────────────────────────────────┤</text></symbol><symbol id="2"><text x="0" y="1.67" class="c">│</text><text x="75.14999999999999" y="1.67" class="c">│</text></symbol><symbol id="a"><rect height="12" width="76" x="0" y="0" class="d"></rect></symbol><symbol id="b"><rect height="1.837" width="1.1022" class="e"></rect></symbol></defs><rect height="22.044" width="76" class="a"></rect><svg x="0" y="0" width="76"><svg x="0"><use xlink:href="#a"></use><use xlink:href="#b" x="75.996" y="16.358"></use><text x="0" y="1.67" class="c">╭──────────────────────────────────────────────────────────────────────────╮</text><text x="0" y="3.5069999999999997" class="c">│</text><text x="2.004" y="3.5069999999999997" class="f">Textarea</text><text x="11.021999999999998" y="3.5069999999999997" class="f">widget</text><text x="18.035999999999998" y="3.5069999999999997" class="f">›</text><text x="20.04" y="3.5069999999999997" class="f">Textarea</text><text x="75.14999999999999" y="3.5069999999999997" class="c">│</text><use xlink:href="#1" y="3.674"></use><use xlink:href="#2" y="5.511"></use><text x="0" y="9.018" class="c">│</text><text x="2.004" y="9.018" class="g">❯</text><text x="4.008" y="9.018" class="h">Tasting</text><text x="12.024" y="9.018" class="h">notes</text><text x="19.037999999999997" y="9.018" class="i">Crisp</text><text x="25.05" y="9.018" class="i">and</text><text x="29.058" y="9.018" class="i">sweet</text><text x="75.14999999999999" y="9.018" class="c">│</text><text x="0" y="10.855" class="c">│</text><text x="19.037999999999997" y="10.855" class="i">Hint</text><text x="24.048" y="10.855" class="i">of</text><text x="27.054" y="10.855" class="i">citrus</text><text x="33.065999999999995" y="10.855" class="g">█</text><text x="75.14999999999999" y="10.855" class="c">│</text><use xlink:href="#2" y="11.022"></use><use xlink:href="#1" y="12.859"></use><text x="0" y="16.366" class="c">│</text><text x="2.004" y="16.366" class="f">↵</text><text x="4.008" y="16.366" class="f">newline</text><text x="12.024" y="16.366" class="f">·</text><text x="14.027999999999999" y="16.366" class="f">tab</text><text x="18.035999999999998" y="16.366" class="f">accept</text><text x="25.05" y="16.366" class="f">·</text><text x="27.054" y="16.366" class="f">esc</text><text x="31.061999999999998" y="16.366" class="f">cancel</text><text x="75.14999999999999" y="16.366" class="c">│</text><text x="0" y="18.203000000000003" class="c">╰──────────────────────────────────────────────────────────────────────────╯</text></svg></svg></g></svg></svg>