<svg xmlns="http://www.w3.org/2000/svg" xmlns:xlink="http://www.w3.org/1999/xlink" width="760" height="330.66"><rect width="760" height="330.66" rx="0" ry="0" class="a"></rect><svg height="330.66" viewBox="0 0 76 33.066" width="760" xmlns="http://www.w3.org/2000/svg" xmlns:xlink="http://www.w3.org/1999/xlink"><style>.a{fill:rgb(40,44,52)}.b{font-family:Consolas,"Courier New",Courier,"Liberation Mono",monospace}.c{fill:rgb(171,178,191);white-space:pre}.d{fill:transparent}.e{fill:rgb(82,139,255)}</style><g font-family="Consolas, &quot;Courier New&quot;, Courier, &quot;Liberation Mono&quot;, monospace" font-size="1.67" class="b"><defs><symbol id="1"><text x="0" y="1.67" class="c">├──────────────────────────────────────────────────────────────────────────┤</text></symbol><symbol id="2"><text x="0" y="1.67" class="c">│</text><text x="75.14999999999999" y="1.67" class="c">│</text></symbol><symbol id="a"><rect height="18" width="76" x="0" y="0" class="d"></rect></symbol><symbol id="b"><rect height="1.837" width="1.1022" class="e"></rect></symbol></defs><rect height="33.066" width="76" class="a"></rect><svg x="0" y="0" width="76"><svg x="0"><use xlink:href="#a"></use><use xlink:href="#b" x="75.996" y="25.543"></use><text x="0" y="1.67" class="c">╭──────────────────────────────────────────────────────────────────────────╮</text><text x="0" y="3.5069999999999997" class="c">│</text><text x="2.004" y="3.5069999999999997" class="c">Note</text><text x="7.013999999999999" y="3.5069999999999997" class="c">widget</text><text x="14.027999999999999" y="3.5069999999999997" class="c">›</text><text x="16.032" y="3.5069999999999997" class="c">Note</text><text x="75.14999999999999" y="3.5069999999999997" class="c">│</text><use xlink:href="#1" y="3.674"></use><use xlink:href="#2" y="5.511"></use><text x="0" y="9.018" class="c">│</text><text x="4.008" y="9.018" class="c">Fresh</text><text x="10.02" y="9.018" class="c">produce</text><text x="18.035999999999998" y="9.018" class="c">order</text><text x="75.14999999999999" y="9.018" class="c">│</text><text x="0" y="10.855" class="c">│</text><text x="4.008" y="10.855" class="c">A</text><text x="6.012" y="10.855" class="c">read-only</text><text x="16.032" y="10.855" class="c">card</text><text x="21.041999999999998" y="10.855" class="c">-</text><text x="23.045999999999996" y="10.855" class="c">the</text><text x="27.054" y="10.855" class="c">cursor</text><text x="34.068" y="10.855" class="c">skips</text><text x="40.08" y="10.855" class="c">it.</text><text x="75.14999999999999" y="10.855" class="c">│</text><use xlink:href="#2" y="11.022"></use><text x="0" y="14.529" class="c">│</text><text x="2.004" y="14.529" class="c">╭───────────────────────╮</text><text x="75.14999999999999" y="14.529" class="c">│</text><text x="0" y="16.366" class="c">│</text><text x="2.004" y="16.366" class="c">│</text><text x="4.008" y="16.366" class="c">Ready</text><text x="10.02" y="16.366" class="c">to</text><text x="13.026" y="16.366" class="c">pack</text><text x="26.052" y="16.366" class="c">│</text><text x="75.14999999999999" y="16.366" class="c">│</text><text x="0" y="18.203000000000003" class="c">│</text><text x="2.004" y="18.203000000000003" class="c">│</text><text x="4.008" y="18.203000000000003" class="c">Framed</text><text x="11.021999999999998" y="18.203000000000003" class="c">with</text><text x="16.032" y="18.203000000000003" class="c">a</text><text x="18.035999999999998" y="18.203000000000003" class="c">border.</text><text x="26.052" y="18.203000000000003" class="c">│</text><text x="75.14999999999999" y="18.203000000000003" class="c">│</text><text x="0" y="20.04" class="c">│</text><text x="2.004" y="20.04" class="c">╰───────────────────────╯</text><text x="75.14999999999999" y="20.04" class="c">│</text><use xlink:href="#2" y="20.206999999999997"></use><use xlink:href="#1" y="22.044"></use><text x="0" y="25.551000000000002" class="c">│</text><text x="2.004" y="25.551000000000002" class="c">↑/↓</text><text x="6.012" y="25.551000000000002" class="c">move</text><text x="11.021999999999998" y="25.551000000000002" class="c">·</text><text x="13.026" y="25.551000000000002" class="c">↵</text><text x="15.029999999999998" y="25.551000000000002" class="c">select</text><text x="22.043999999999997" y="25.551000000000002" class="c">·</text><text x="24.048" y="25.551000000000002" class="c">esc</text><text x="28.055999999999997" y="25.551000000000002" class="c">back</text><text x="33.065999999999995" y="25.551000000000002" class="c">·</text><text x="35.06999999999999" y="25.551000000000002" class="c">q</text><text x="37.074" y="25.551000000000002" class="c">quit</text><text x="42.083999999999996" y="25.551000000000002" class="c">·</text><text x="44.087999999999994" y="25.551000000000002" class="c">?</text><text x="46.09199999999999" y="25.551000000000002" class="c">help</text><text x="75.14999999999999" y="25.551000000000002" class="c">│</text><text x="0" y="27.387999999999998" class="c">╰──────────────────────────────────────────────────────────────────────────╯</text></svg></svg></g></svg></svg>