<svg xmlns="http://www.w3.org/2000/svg" xmlns:xlink="http://www.w3.org/1999/xlink" width="440" height="385.77000000000004"><rect width="440" height="385.77000000000004" rx="0" ry="0" class="a"></rect><svg height="385.77000000000004" viewBox="0 0 44 38.577000000000005" width="440" xmlns="http://www.w3.org/2000/svg" xmlns:xlink="http://www.w3.org/1999/xlink"><style>.a{fill:rgb(250,250,250)}.b{font-family:Consolas,"Courier New",Courier,"Liberation Mono",monospace}.c{fill:rgb(56,58,66);white-space:pre}.d{fill:transparent}</style><g font-family="Consolas, &quot;Courier New&quot;, Courier, &quot;Liberation Mono&quot;, monospace" font-size="1.67" class="b"><defs><symbol id="1"><text x="0" y="1.67" class="c">├──────────────────────────────────────────┤</text></symbol><symbol id="2"><text x="0" y="1.67" class="c">│</text><text x="43.086" y="1.67" class="c">│</text></symbol><symbol id="a"><rect height="21" width="44" x="0" y="0" class="d"></rect></symbol></defs><rect height="38.577000000000005" width="44" class="a"></rect><svg x="0" y="0" width="44"><svg x="0"><use xlink:href="#a"></use><text x="0" y="1.67" class="c">╭──────────────────────────────────────────╮</text><text x="0" y="3.5069999999999997" class="c">│</text><text x="2.004" y="3.5069999999999997" class="c">MultiSelect</text><text x="14.027999999999999" y="3.5069999999999997" class="c">with</text><text x="19.037999999999997" y="3.5069999999999997" class="c">groups</text><text x="26.052" y="3.5069999999999997" class="c">›</text><text x="28.055999999999997" y="3.5069999999999997" class="c">MultiSelect</text><text x="43.086" y="3.5069999999999997" class="c">│</text><use xlink:href="#1" y="3.674"></use><use xlink:href="#2" y="5.511"></use><text x="0" y="9.018" class="c">│</text><text x="2.004" y="9.018" class="c">❯</text><text x="4.008" y="9.018" class="c">Basket</text><text x="12.024" y="9.018" class="c">Fruit</text><text x="43.086" y="9.018" class="c">│</text><text x="0" y="10.855" class="c">│</text><text x="12.024" y="10.855" class="c">❯</text><text x="14.027999999999999" y="10.855" class="c">◼</text><text x="16.032" y="10.855" class="c">Apple</text><text x="43.086" y="10.855" class="c">│</text><text x="0" y="12.692" class="c">│</text><text x="14.027999999999999" y="12.692" class="c">◻</text><text x="16.032" y="12.692" class="c">Banana</text><text x="43.086" y="12.692" class="c">│</text><text x="0" y="14.529" class="c">│</text><text x="12.024" y="14.529" class="c">──────────────────────────────</text><text x="43.086" y="14.529" class="c">│</text><text x="0" y="16.366" class="c">│</text><text x="12.024" y="16.366" class="c">Vegetables</text><text x="43.086" y="16.366" class="c">│</text><text x="0" y="18.203000000000003" class="c">│</text><text x="14.027999999999999" y="18.203000000000003" class="c">◻</text><text x="16.032" y="18.203000000000003" class="c">Carrot</text><text x="43.086" y="18.203000000000003" class="c">│</text><text x="0" y="20.04" class="c">│</text><text x="14.027999999999999" y="20.04" class="c">◻</text><text x="16.032" y="20.04" class="c">Tomato</text><text x="43.086" y="20.04" class="c">│</text><text x="0" y="21.876999999999995" class="c">│</text><text x="14.027999999999999" y="21.876999999999995" class="c">◻</text><text x="16.032" y="21.876999999999995" class="c">Leek</text><text x="21.041999999999998" y="21.876999999999995" class="c">(out</text><text x="26.052" y="21.876999999999995" class="c">of</text><text x="29.058" y="21.876999999999995" class="c">season)</text><text x="43.086" y="21.876999999999995" class="c">│</text><use xlink:href="#2" y="22.044"></use><use xlink:href="#1" y="23.881000000000004"></use><text x="0" y="27.387999999999998" class="c">│</text><text x="2.004" y="27.387999999999998" class="c">↑/↓</text><text x="6.012" y="27.387999999999998" class="c">move</text><text x="11.021999999999998" y="27.387999999999998" class="c">·</text><text x="13.026" y="27.387999999999998" class="c">↵</text><text x="15.029999999999998" y="27.387999999999998" class="c">accept</text><text x="22.043999999999997" y="27.387999999999998" class="c">·</text><text x="24.048" y="27.387999999999998" class="c">esc</text><text x="28.055999999999997" y="27.387999999999998" class="c">cancel</text><text x="43.086" y="27.387999999999998" class="c">│</text><text x="0" y="29.225" class="c">╰──────────────────────────────────────────╯</text></svg></svg></g></svg></svg>