<svg xmlns="http://www.w3.org/2000/svg" xmlns:xlink="http://www.w3.org/1999/xlink" width="320" height="146.96"><rect width="320" height="146.96" rx="0" ry="0" class="a"></rect><svg height="146.96" viewBox="0 0 32 14.696" width="320" xmlns="http://www.w3.org/2000/svg" xmlns:xlink="http://www.w3.org/1999/xlink"><style>.a{fill:rgb(40,44,52)}.b{font-family:Consolas,"Courier New",Courier,"Liberation Mono",monospace}.c{fill:transparent}.d{fill:rgb(82,139,255)}.e{fill:rgb(0,128,128);font-weight:bold;white-space:pre}.f{fill:rgb(128,128,128);white-space:pre}.g{fill:rgb(171,178,191);white-space:pre}</style><g font-family="Consolas, &quot;Courier New&quot;, Courier, &quot;Liberation Mono&quot;, monospace" font-size="1.67" class="b"><defs><symbol id="a"><rect height="8" width="32" x="0" y="0" class="c"></rect></symbol><symbol id="b"><rect height="1.837" width="1.1022" class="d"></rect></symbol></defs><rect height="14.696" width="32" class="a"></rect><svg x="0" y="0" width="32"><svg x="0"><use xlink:href="#a"></use><use xlink:href="#b" x="31.996" y="10.847"></use><text x="0" y="1.67" class="e">Select</text><text x="0" y="3.5069999999999997" class="f">------</text><text x="0" y="5.343999999999999" class="g">(</text><text x="2.004" y="5.343999999999999" class="g">)</text><text x="4.008" y="5.343999999999999" class="g">Standard</text><text x="0" y="7.181" class="e">(*)</text><text x="4.008" y="7.181" class="e">Minimal</text><text x="0" y="9.018" class="g">(</text><text x="2.004" y="9.018" class="g">)</text><text x="4.008" y="9.018" class="g">Demo</text><text x="9.017999999999999" y="9.018" class="g">Umami</text><text x="0" y="12.692" class="f">^/v</text><text x="4.008" y="12.692" class="f">move</text><text x="9.017999999999999" y="12.692" class="f">*</text><text x="11.021999999999998" y="12.692" class="f">&lt;</text><text x="13.026" y="12.692" class="f">accept</text><text x="20.04" y="12.692" class="f">*</text><text x="22.043999999999997" y="12.692" class="f">esc</text><text x="26.052" y="12.692" class="f">cancel</text></svg></svg></g></svg></svg>