<svg xmlns="http://www.w3.org/2000/svg" xmlns:xlink="http://www.w3.org/1999/xlink" width="760" height="257.18"><rect width="760" height="257.18" rx="0" ry="0" class="a"></rect><svg height="257.18" viewBox="0 0 76 25.718" width="760" xmlns="http://www.w3.org/2000/svg" xmlns:xlink="http://www.w3.org/1999/xlink"><style>.a{fill:rgb(40,44,52)}.b{font-family:Consolas,"Courier New",Courier,"Liberation Mono",monospace}.c{fill:rgb(0,128,128);white-space:pre}.d{fill:rgb(128,128,128);white-space:pre}.e{fill:rgb(0,128,128);font-weight:bold;white-space:pre}.f{fill:rgb(171,178,191);font-weight:bold;white-space:pre}.g{fill:rgb(171,178,191);white-space:pre}.h{fill:rgb(0,128,0);white-space:pre}.i{fill:rgb(128,128,0);font-weight:bold;white-space:pre}.j{fill:transparent}.k{fill:rgb(82,139,255)}.m{animation-duration:7.375s;animation-iteration-count:infinite;animation-name:l;animation-timing-function:steps(1,end)}.n{fill:rgb(128,128,128);font-weight:bold;white-space:pre}.o{fill:rgb(0,128,0);font-weight:bold;white-space:pre}@keyframes l{0%{transform:translateX(-0px)}0%{transform:translateX(-76px)}18.6%{transform:translateX(-152px)}29.7%{transform:translateX(-228px)}40.7%{transform:translateX(-304px)}51.7%{transform:translateX(-380px)}62.7%{transform:translateX(-456px)}100%{transform:translateX(-532px)}}</style><g font-family="Consolas, &quot;Courier New&quot;, Courier, &quot;Liberation Mono&quot;, monospace" font-size="1.67" class="b"><defs><symbol id="1"><text x="0" y="1.67" class="c">╭──────────────────────────────────────────────────────────────────────────╮</text></symbol><symbol id="2"><text x="0" y="1.67" class="c">├──────────────────────────────────────────────────────────────────────────┤</text></symbol><symbol id="3"><text x="0" y="1.67" class="c">│</text><text x="75.14999999999999" y="1.67" class="c">│</text></symbol><symbol id="4"><text x="0" y="1.67" class="c">│</text><text x="2.004" y="1.67" class="d">↑/↓</text><text x="6.012" y="1.67" class="d">move</text><text x="11.021999999999998" y="1.67" class="d">·</text><text x="13.026" y="1.67" class="d">↵</text><text x="15.029999999999998" y="1.67" class="d">select</text><text x="22.043999999999997" y="1.67" class="d">·</text><text x="24.048" y="1.67" class="d">esc</text><text x="28.055999999999997" y="1.67" class="d">back</text><text x="33.065999999999995" y="1.67" class="d">·</text><text x="35.06999999999999" y="1.67" class="d">q</text><text x="37.074" y="1.67" class="d">quit</text><text x="42.083999999999996" y="1.67" class="d">·</text><text x="44.087999999999994" y="1.67" class="d">?</text><text x="46.09199999999999" y="1.67" class="d">help</text><text x="75.14999999999999" y="1.67" class="c">│</text></symbol><symbol id="5"><text x="0" y="1.67" class="c">╰──────────────────────────────────────────────────────────────────────────╯</text></symbol><symbol id="6"><text x="0" y="1.67" class="c">│</text><text x="2.004" y="1.67" class="d">MultiSearch</text><text x="14.027999999999999" y="1.67" class="d">widget</text><text x="21.041999999999998" y="1.67" class="d">›</text><text x="23.045999999999996" y="1.67" class="d">MultiSearch</text><text x="75.14999999999999" y="1.67" class="c">│</text></symbol><symbol id="7"><text x="0" y="1.67" class="c">│</text><text x="2.004" y="1.67" class="d">↑/↓</text><text x="6.012" y="1.67" class="d">move</text><text x="11.021999999999998" y="1.67" class="d">·</text><text x="13.026" y="1.67" class="d">↵</text><text x="15.029999999999998" y="1.67" class="d">accept</text><text x="22.043999999999997" y="1.67" class="d">·</text><text x="24.048" y="1.67" class="d">esc</text><text x="28.055999999999997" y="1.67" class="d">cancel</text><text x="75.14999999999999" y="1.67" class="c">│</text></symbol><symbol id="8"><text x="0" y="1.67" class="c">│</text><text x="2.004" y="1.67" class="e">❯</text><text x="4.008" y="1.67" class="f">Basket</text><text x="12.024" y="1.67" class="g">to</text><text x="14.027999999999999" y="1.67" class="e">█</text><text x="75.14999999999999" y="1.67" class="c">│</text></symbol><symbol id="9"><text x="0" y="1.67" class="c">│</text><text x="12.024" y="1.67" class="e">❯</text><text x="14.027999999999999" y="1.67" class="h">◼</text><text x="16.032" y="1.67" class="i">To</text><text x="18.035999999999998" y="1.67" class="e">mato</text><text x="75.14999999999999" y="1.67" class="c">│</text></symbol><symbol id="a"><rect height="14" width="76" x="0" y="0" class="j"></rect></symbol><symbol id="b"><rect height="1.837" width="1.1022" class="k"></rect></symbol></defs><rect height="25.718" width="76" class="a"></rect><g class="m"><svg x="0" y="0" width="608"><svg x="0"><use xlink:href="#a"></use><use xlink:href="#b" x="-0.0040000000000000036" y="0"></use></svg><svg x="76"><use xlink:href="#a"></use><use xlink:href="#b" x="75.996" y="20.031999999999996"></use><use xlink:href="#1" y="0"></use><text x="0" y="3.5069999999999997" class="c">│</text><text x="2.004" y="3.5069999999999997" class="d">MultiSearch</text><text x="14.027999999999999" y="3.5069999999999997" class="d">widget</text><text x="75.14999999999999" y="3.5069999999999997" class="c">│</text><use xlink:href="#2" y="3.674"></use><use xlink:href="#3" y="5.511"></use><text x="0" y="9.018" class="c">│</text><text x="2.004" y="9.018" class="e">❯</text><text x="4.008" y="9.018" class="f">MultiSearch</text><text x="16.032" y="9.018" class="n">›</text><text x="75.14999999999999" y="9.018" class="c">│</text><text x="0" y="10.855" class="c">│</text><text x="6.012" y="10.855" class="o">apple</text><text x="75.14999999999999" y="10.855" class="c">│</text><use xlink:href="#3" y="11.022"></use><text x="0" y="14.529" class="c">│</text><text x="4.008" y="14.529" class="h">[</text><text x="6.012" y="14.529" class="h">Submit</text><text x="13.026" y="14.529" class="h">]</text><text x="16.032" y="14.529" class="h">[</text><text x="18.035999999999998" y="14.529" class="h">Cancel</text><text x="25.05" y="14.529" class="h">]</text><text x="75.14999999999999" y="14.529" class="c">│</text><use xlink:href="#3" y="14.696"></use><use xlink:href="#2" y="16.533"></use><use xlink:href="#4" y="18.37"></use><use xlink:href="#5" y="20.206999999999997"></use></svg><svg x="152"><use xlink:href="#a"></use><use xlink:href="#b" x="75.996" y="14.520999999999999"></use><use xlink:href="#1" y="0"></use><use xlink:href="#6" y="1.837"></use><use xlink:href="#2" y="3.674"></use><use xlink:href="#3" y="5.511"></use><text x="0" y="9.018" class="c">│</text><text x="2.004" y="9.018" class="e">❯</text><text x="4.008" y="9.018" class="f">Basket</text><text x="12.024" y="9.018" class="o">apple</text><text x="75.14999999999999" y="9.018" class="c">│</text><use xlink:href="#3" y="9.185"></use><use xlink:href="#2" y="11.022"></use><use xlink:href="#4" y="12.859"></use><use xlink:href="#5" y="14.696"></use></svg><svg x="228"><use xlink:href="#a"></use><use xlink:href="#b" x="75.996" y="21.869"></use><use xlink:href="#1" y="0"></use><use xlink:href="#6" y="1.837"></use><use xlink:href="#2" y="3.674"></use><use xlink:href="#3" y="5.511"></use><text x="0" y="9.018" class="c">│</text><text x="2.004" y="9.018" class="e">❯</text><text x="4.008" y="9.018" class="f">Basket</text><text x="12.024" y="9.018" class="e">█</text><text x="75.14999999999999" y="9.018" class="c">│</text><text x="0" y="10.855" class="c">│</text><text x="12.024" y="10.855" class="e">❯</text><text x="14.027999999999999" y="10.855" class="h">◼</text><text x="16.032" y="10.855" class="e">Apple</text><text x="75.14999999999999" y="10.855" class="c">│</text><text x="0" y="12.692" class="c">│</text><text x="14.027999999999999" y="12.692" class="g">◻</text><text x="16.032" y="12.692" class="g">Banana</text><text x="75.14999999999999" y="12.692" class="c">│</text><text x="0" y="14.529" class="c">│</text><text x="14.027999999999999" y="14.529" class="g">◻</text><text x="16.032" y="14.529" class="g">Carrot</text><text x="75.14999999999999" y="14.529" class="c">│</text><text x="0" y="16.366" class="c">│</text><text x="4.008" y="16.366" class="i">▼</text><text x="75.14999999999999" y="16.366" class="c">│</text><use xlink:href="#3" y="16.533"></use><use xlink:href="#2" y="18.37"></use><use xlink:href="#7" y="20.206999999999997"></use><use xlink:href="#5" y="22.044"></use></svg><svg x="304"><use xlink:href="#a"></use><use xlink:href="#b" x="75.996" y="18.195"></use><use xlink:href="#1" y="0"></use><use xlink:href="#6" y="1.837"></use><use xlink:href="#2" y="3.674"></use><use xlink:href="#3" y="5.511"></use><text x="0" y="9.018" class="c">│</text><text x="2.004" y="9.018" class="e">❯</text><text x="4.008" y="9.018" class="f">Basket</text><text x="12.024" y="9.018" class="g">t</text><text x="13.026" y="9.018" class="e">█</text><text x="75.14999999999999" y="9.018" class="c">│</text><text x="0" y="10.855" class="c">│</text><text x="12.024" y="10.855" class="e">❯</text><text x="14.027999999999999" y="10.855" class="g">◻</text><text x="16.032" y="10.855" class="i">T</text><text x="17.034" y="10.855" class="e">omato</text><text x="75.14999999999999" y="10.855" class="c">│</text><text x="0" y="12.692" class="c">│</text><text x="14.027999999999999" y="12.692" class="g">◻</text><text x="16.032" y="12.692" class="g">Carro</text><text x="21.041999999999998" y="12.692" class="i">t</text><text x="75.14999999999999" y="12.692" class="c">│</text><use xlink:href="#3" y="12.859"></use><use xlink:href="#2" y="14.696"></use><use xlink:href="#7" y="16.533"></use><use xlink:href="#5" y="18.37"></use></svg><svg x="380"><use xlink:href="#a"></use><use xlink:href="#b" x="75.996" y="16.358"></use><use xlink:href="#1" y="0"></use><use xlink:href="#6" y="1.837"></use><use xlink:href="#2" y="3.674"></use><use xlink:href="#3" y="5.511"></use><use xlink:href="#8" y="7.348"></use><text x="0" y="10.855" class="c">│</text><text x="12.024" y="10.855" class="e">❯</text><text x="14.027999999999999" y="10.855" class="g">◻</text><text x="16.032" y="10.855" class="i">To</text><text x="18.035999999999998" y="10.855" class="e">mato</text><text x="75.14999999999999" y="10.855" class="c">│</text><use xlink:href="#3" y="11.022"></use><use xlink:href="#2" y="12.859"></use><use xlink:href="#7" y="14.696"></use><use xlink:href="#5" y="16.533"></use></svg><svg x="456"><use xlink:href="#a"></use><use xlink:href="#b" x="75.996" y="16.358"></use><use xlink:href="#1" y="0"></use><use xlink:href="#6" y="1.837"></use><use xlink:href="#2" y="3.674"></use><use xlink:href="#3" y="5.511"></use><use xlink:href="#8" y="7.348"></use><use xlink:href="#9" y="9.185"></use><use xlink:href="#3" y="11.022"></use><use xlink:href="#2" y="12.859"></use><use xlink:href="#7" y="14.696"></use><use xlink:href="#5" y="16.533"></use></svg><svg x="532"><use xlink:href="#a"></use><use xlink:href="#b" x="0.996" y="18.195"></use><use xlink:href="#1" y="0"></use><use xlink:href="#6" y="1.837"></use><use xlink:href="#2" y="3.674"></use><use xlink:href="#3" y="5.511"></use><use xlink:href="#8" y="7.348"></use><use xlink:href="#9" y="9.185"></use><use xlink:href="#3" y="11.022"></use><use xlink:href="#2" y="12.859"></use><use xlink:href="#7" y="14.696"></use><use xlink:href="#5" y="16.533"></use></svg></svg></g></g></svg></svg>