<svg xmlns="http://www.w3.org/2000/svg" xmlns:xlink="http://www.w3.org/1999/xlink" width="440" height="220.44"><rect width="440" height="220.44" rx="0" ry="0" class="a"></rect><svg height="220.44" viewBox="0 0 44 22.044" width="440" xmlns="http://www.w3.org/2000/svg" xmlns:xlink="http://www.w3.org/1999/xlink"><style>.a{fill:rgb(40,44,52)}.b{font-family:Consolas,"Courier New",Courier,"Liberation Mono",monospace}.c{fill:rgb(0,128,128);white-space:pre}.d{fill:transparent}.e{fill:rgb(128,128,128);white-space:pre}.f{fill:rgb(0,128,128);font-weight:bold;white-space:pre}.g{fill:rgb(171,178,191);font-weight:bold;white-space:pre}.h{fill:rgb(171,178,191);white-space:pre}</style><g font-family="Consolas, &quot;Courier New&quot;, Courier, &quot;Liberation Mono&quot;, monospace" font-size="1.67" class="b"><defs><symbol id="1"><text x="0" y="1.67" class="c">├──────────────────────────────────────────┤</text></symbol><symbol id="2"><text x="0" y="1.67" class="c">│</text><text x="43.086" y="1.67" class="c">│</text></symbol><symbol id="a"><rect height="12" width="44" x="0" y="0" class="d"></rect></symbol></defs><rect height="22.044" width="44" class="a"></rect><svg x="0" y="0" width="44"><svg x="0"><use xlink:href="#a"></use><text x="0" y="1.67" class="c">╭──────────────────────────────────────────╮</text><text x="0" y="3.5069999999999997" class="c">│</text><text x="2.004" y="3.5069999999999997" class="e">Password</text><text x="11.021999999999998" y="3.5069999999999997" class="e">widget</text><text x="18.035999999999998" y="3.5069999999999997" class="e">›</text><text x="20.04" y="3.5069999999999997" class="e">Password</text><text x="43.086" y="3.5069999999999997" class="c">│</text><use xlink:href="#1" y="3.674"></use><use xlink:href="#2" y="5.511"></use><text x="0" y="9.018" class="c">│</text><text x="2.004" y="9.018" class="f">❯</text><text x="4.008" y="9.018" class="g">Order</text><text x="10.02" y="9.018" class="g">code</text><text x="16.032" y="9.018" class="h">melon7</text><text x="22.043999999999997" y="9.018" class="f">█</text><text x="43.086" y="9.018" class="c">│</text><use xlink:href="#2" y="9.185"></use><use xlink:href="#1" y="11.022"></use><text x="0" y="14.529" class="c">│</text><text x="2.004" y="14.529" class="e">tab</text><text x="6.012" y="14.529" class="e">reveal</text><text x="13.026" y="14.529" class="e">·</text><text x="15.029999999999998" y="14.529" class="e">↵</text><text x="17.034" y="14.529" class="e">accept</text><text x="24.048" y="14.529" class="e">·</text><text x="26.052" y="14.529" class="e">esc</text><text x="30.059999999999995" y="14.529" class="e">cancel</text><text x="43.086" y="14.529" class="c">│</text><text x="0" y="16.366" class="c">╰──────────────────────────────────────────╯</text></svg></svg></g></svg></svg>