<svg xmlns="http://www.w3.org/2000/svg" xmlns:xlink="http://www.w3.org/1999/xlink" width="420" height="257.18"><rect width="420" height="257.18" rx="0" ry="0" class="a"></rect><svg height="257.18" viewBox="0 0 42 25.718" width="420" xmlns="http://www.w3.org/2000/svg" xmlns:xlink="http://www.w3.org/1999/xlink"><style>.a{fill:rgb(250,250,250)}.b{font-family:Consolas,"Courier New",Courier,"Liberation Mono",monospace}.c{fill:transparent}.d{fill:rgb(82,139,255)}.e{fill:rgb(56,58,66);white-space:pre}</style><g font-family="Consolas, &quot;Courier New&quot;, Courier, &quot;Liberation Mono&quot;, monospace" font-size="1.67" class="b"><defs><symbol id="a"><rect height="14" width="42" x="0" y="0" class="c"></rect></symbol><symbol id="b"><rect height="1.837" width="1.1022" class="d"></rect></symbol></defs><rect height="25.718" width="42" class="a"></rect><svg x="0" y="0" width="42"><svg x="0"><use xlink:href="#a"></use><use xlink:href="#b" x="41.996" y="16.358"></use><text x="0" y="1.67" class="e">Calendar</text><text x="9.017999999999999" y="1.67" class="e">widget</text><text x="16.032" y="1.67" class="e">&gt;</text><text x="18.035999999999998" y="1.67" class="e">Calendar</text><text x="0" y="3.5069999999999997" class="e">&gt;</text><text x="2.004" y="3.5069999999999997" class="e">Calendar</text><text x="21.041999999999998" y="3.5069999999999997" class="e">July</text><text x="26.052" y="3.5069999999999997" class="e">2026</text><text x="13.026" y="5.343999999999999" class="e">Mo</text><text x="17.034" y="5.343999999999999" class="e">Tu</text><text x="21.041999999999998" y="5.343999999999999" class="e">We</text><text x="25.05" y="5.343999999999999" class="e">Th</text><text x="29.058" y="5.343999999999999" class="e">Fr</text><text x="33.065999999999995" y="5.343999999999999" class="e">Sa</text><text x="37.074" y="5.343999999999999" class="e">Su</text><text x="22.043999999999997" y="7.181" class="e">1</text><text x="26.052" y="7.181" class="e">2</text><text x="30.059999999999995" y="7.181" class="e">3</text><text x="34.068" y="7.181" class="e">4</text><text x="38.07599999999999" y="7.181" class="e">5</text><text x="14.027999999999999" y="9.018" class="e">6</text><text x="18.035999999999998" y="9.018" class="e">7</text><text x="22.043999999999997" y="9.018" class="e">8</text><text x="26.052" y="9.018" class="e">9</text><text x="29.058" y="9.018" class="e">10</text><text x="33.065999999999995" y="9.018" class="e">11</text><text x="37.074" y="9.018" class="e">12</text><text x="13.026" y="10.855" class="e">13</text><text x="17.034" y="10.855" class="e">14</text><text x="20.04" y="10.855" class="e">[15]</text><text x="25.05" y="10.855" class="e">16</text><text x="29.058" y="10.855" class="e">17</text><text x="33.065999999999995" y="10.855" class="e">18</text><text x="37.074" y="10.855" class="e">19</text><text x="13.026" y="12.692" class="e">20</text><text x="17.034" y="12.692" class="e">21</text><text x="21.041999999999998" y="12.692" class="e">22</text><text x="25.05" y="12.692" class="e">23</text><text x="29.058" y="12.692" class="e">24</text><text x="33.065999999999995" y="12.692" class="e">25</text><text x="37.074" y="12.692" class="e">26</text><text x="13.026" y="14.529" class="e">27</text><text x="17.034" y="14.529" class="e">28</text><text x="21.041999999999998" y="14.529" class="e">29</text><text x="25.05" y="14.529" class="e">30</text><text x="29.058" y="14.529" class="e">31</text><text x="0" y="18.203000000000003" class="e">&lt;/&gt;</text><text x="4.008" y="18.203000000000003" class="e">day</text><text x="8.016" y="18.203000000000003" class="e">*</text><text x="10.02" y="18.203000000000003" class="e">^/v</text><text x="14.027999999999999" y="18.203000000000003" class="e">week</text><text x="19.037999999999997" y="18.203000000000003" class="e">*</text><text x="21.041999999999998" y="18.203000000000003" class="e">&lt;</text><text x="23.045999999999996" y="18.203000000000003" class="e">accept</text><text x="30.059999999999995" y="18.203000000000003" class="e">*</text><text x="32.064" y="18.203000000000003" class="e">esc</text><text x="36.071999999999996" y="18.203000000000003" class="e">cancel</text></svg></svg></g></svg></svg>