<svg xmlns="http://www.w3.org/2000/svg" xmlns:xlink="http://www.w3.org/1999/xlink" width="610" height="183.70000000000002"><rect width="610" height="183.70000000000002" rx="0" ry="0" class="a"></rect><svg height="183.70000000000002" viewBox="0 0 61 18.37" width="610" xmlns="http://www.w3.org/2000/svg" xmlns:xlink="http://www.w3.org/1999/xlink"><style>.a{fill:rgb(40,44,52)}.b{font-family:Consolas,"Courier New",Courier,"Liberation Mono",monospace}.c{fill:transparent}.d{fill:rgb(82,139,255)}.e{fill:rgb(171,178,191);white-space:pre}</style><g font-family="Consolas, &quot;Courier New&quot;, Courier, &quot;Liberation Mono&quot;, monospace" font-size="1.67" class="b"><defs><symbol id="a"><rect height="10" width="61" x="0" y="0" class="c"></rect></symbol><symbol id="b"><rect height="1.837" width="1.1022" class="d"></rect></symbol></defs><rect height="18.37" width="61" class="a"></rect><svg x="0" y="0" width="61"><svg x="0"><use xlink:href="#a"></use><use xlink:href="#b" x="60.996" y="14.520999999999999"></use><text x="0" y="1.67" class="e">File</text><text x="5.01" y="1.67" class="e">picker</text><text x="12.024" y="1.67" class="e">widget</text><text x="19.037999999999997" y="1.67" class="e">›</text><text x="21.041999999999998" y="1.67" class="e">File</text><text x="26.052" y="1.67" class="e">picker</text><text x="0" y="3.5069999999999997" class="e">❯</text><text x="2.004" y="3.5069999999999997" class="e">Price</text><text x="8.016" y="3.5069999999999997" class="e">lists</text><text x="15.029999999999998" y="3.5069999999999997" class="e">sample-project</text><text x="15.029999999999998" y="5.343999999999999" class="e">❯</text><text x="17.034" y="5.343999999999999" class="e">◻</text><text x="19.037999999999997" y="5.343999999999999" class="e">baskets/</text><text x="17.034" y="7.181" class="e">◻</text><text x="19.037999999999997" y="7.181" class="e">deliveries/</text><text x="17.034" y="9.018" class="e">◻</text><text x="19.037999999999997" y="9.018" class="e">harvest.csv</text><text x="17.034" y="10.855" class="e">◻</text><text x="19.037999999999997" y="10.855" class="e">pantry.yaml</text><text x="2.004" y="12.692" class="e">▼</text><text x="0" y="16.366" class="e">↑/↓</text><text x="4.008" y="16.366" class="e">move</text><text x="9.017999999999999" y="16.366" class="e">·</text><text x="11.021999999999998" y="16.366" class="e">→</text><text x="13.026" y="16.366" class="e">open</text><text x="18.035999999999998" y="16.366" class="e">·</text><text x="20.04" y="16.366" class="e">←</text><text x="22.043999999999997" y="16.366" class="e">up</text><text x="25.05" y="16.366" class="e">·</text><text x="27.054" y="16.366" class="e">↵</text><text x="29.058" y="16.366" class="e">accept</text><text x="36.071999999999996" y="16.366" class="e">·</text><text x="38.07599999999999" y="16.366" class="e">tab</text><text x="42.083999999999996" y="16.366" class="e">hidden</text><text x="49.098" y="16.366" class="e">·</text><text x="51.102" y="16.366" class="e">esc</text><text x="55.10999999999999" y="16.366" class="e">cancel</text></svg></svg></g></svg></svg>