<svg xmlns="http://www.w3.org/2000/svg" xmlns:xlink="http://www.w3.org/1999/xlink" width="440" height="183.70000000000002"><rect width="440" height="183.70000000000002" rx="0" ry="0" class="a"></rect><svg height="183.70000000000002" viewBox="0 0 44 18.37" width="440" xmlns="http://www.w3.org/2000/svg" xmlns:xlink="http://www.w3.org/1999/xlink"><style>.a{fill:rgb(250,250,250)}.b{font-family:Consolas,"Courier New",Courier,"Liberation Mono",monospace}.c{fill:transparent}.d{fill:rgb(56,58,66);white-space:pre}</style><g font-family="Consolas, &quot;Courier New&quot;, Courier, &quot;Liberation Mono&quot;, monospace" font-size="1.67" class="b"><defs><symbol id="a"><rect height="10" width="44" x="0" y="0" class="c"></rect></symbol></defs><rect height="18.37" width="44" class="a"></rect><svg x="0" y="0" width="44"><svg x="0"><use xlink:href="#a"></use><text x="0" y="1.67" class="d">Select</text><text x="7.013999999999999" y="1.67" class="d">with</text><text x="12.024" y="1.67" class="d">groups</text><text x="0" y="3.5069999999999997" class="d">------------------</text><text x="0" y="5.343999999999999" class="d">edit</text><text x="5.01" y="5.343999999999999" class="d">*</text><text x="7.013999999999999" y="5.343999999999999" class="d">Enter</text><text x="13.026" y="5.343999999999999" class="d">accept</text><text x="20.04" y="5.343999999999999" class="d">*</text><text x="22.043999999999997" y="5.343999999999999" class="d">Esc</text><text x="26.052" y="5.343999999999999" class="d">cancel</text><text x="0" y="9.018" class="d">Recommended</text><text x="0" y="10.855" class="d">(*)</text><text x="4.008" y="10.855" class="d">Standard</text><text x="0" y="12.692" class="d">(</text><text x="2.004" y="12.692" class="d">)</text><text x="4.008" y="12.692" class="d">Minimal</text><text x="0" y="14.529" class="d">------------------------------------------</text><text x="0" y="16.366" class="d">(</text><text x="2.004" y="16.366" class="d">)</text><text x="4.008" y="16.366" class="d">Demo</text><text x="9.017999999999999" y="16.366" class="d">Umami</text><text x="15.029999999999998" y="16.366" class="d">(requires</text><text x="25.05" y="16.366" class="d">PHP</text><text x="29.058" y="16.366" class="d">8.4)</text></svg></svg></g></svg></svg>