<svg xmlns="http://www.w3.org/2000/svg" xmlns:xlink="http://www.w3.org/1999/xlink" width="600" height="183.70000000000002"><rect width="600" height="183.70000000000002" rx="0" ry="0" class="a"></rect><svg height="183.70000000000002" viewBox="0 0 60 18.37" width="600" xmlns="http://www.w3.org/2000/svg" xmlns:xlink="http://www.w3.org/1999/xlink"><style>.a{fill:rgb(40,44,52)}.b{font-family:Consolas,"Courier New",Courier,"Liberation Mono",monospace}.c{fill:transparent}.d{fill:rgb(171,178,191);white-space:pre}</style><g font-family="Consolas, &quot;Courier New&quot;, Courier, &quot;Liberation Mono&quot;, monospace" font-size="1.67" class="b"><defs><symbol id="a"><rect height="10" width="60" x="0" y="0" class="c"></rect></symbol></defs><rect height="18.37" width="60" class="a"></rect><svg x="0" y="0" width="60"><svg x="0"><use xlink:href="#a"></use><text x="0" y="1.67" class="d">Multi</text><text x="6.012" y="1.67" class="d">file</text><text x="11.021999999999998" y="1.67" class="d">picker</text><text x="18.035999999999998" y="1.67" class="d">widget</text><text x="0" y="3.5069999999999997" class="d">────────────────────────</text><text x="0" y="7.181" class="d">filepicker-tree</text><text x="0" y="9.018" class="d">❯</text><text x="2.004" y="9.018" class="d">◻</text><text x="4.008" y="9.018" class="d">config/</text><text x="2.004" y="10.855" class="d">◻</text><text x="4.008" y="10.855" class="d">src/</text><text x="2.004" y="12.692" class="d">◻</text><text x="4.008" y="12.692" class="d">composer.json</text><text x="2.004" y="14.529" class="d">◻</text><text x="4.008" y="14.529" class="d">README.md</text><text x="0" y="16.366" class="d">space</text><text x="6.012" y="16.366" class="d">select</text><text x="13.026" y="16.366" class="d">·</text><text x="15.029999999999998" y="16.366" class="d">↑/↓</text><text x="19.037999999999997" y="16.366" class="d">move</text><text x="24.048" y="16.366" class="d">·</text><text x="26.052" y="16.366" class="d">→</text><text x="28.055999999999997" y="16.366" class="d">open</text><text x="33.065999999999995" y="16.366" class="d">·</text><text x="35.06999999999999" y="16.366" class="d">←</text><text x="37.074" y="16.366" class="d">up</text><text x="40.08" y="16.366" class="d">·</text><text x="42.083999999999996" y="16.366" class="d">↵</text><text x="44.087999999999994" y="16.366" class="d">accept</text><text x="51.102" y="16.366" class="d">·</text><text x="53.105999999999995" y="16.366" class="d">tab</text><text x="57.114" y="16.366" class="d">hid</text><text x="0" y="18.203000000000003" class="d">den</text><text x="4.008" y="18.203000000000003" class="d">·</text><text x="6.012" y="18.203000000000003" class="d">esc</text><text x="10.02" y="18.203000000000003" class="d">cancel</text></svg></svg></g></svg></svg>