<svg xmlns="http://www.w3.org/2000/svg" xmlns:xlink="http://www.w3.org/1999/xlink" width="760" height="183.70000000000002"><rect width="760" height="183.70000000000002" rx="0" ry="0" class="a"></rect><svg height="183.70000000000002" viewBox="0 0 76 18.37" width="760" xmlns="http://www.w3.org/2000/svg" xmlns:xlink="http://www.w3.org/1999/xlink"><style>.a{fill:rgb(250,250,250)}.b{font-family:Consolas,"Courier New",Courier,"Liberation Mono",monospace}.c{fill:rgb(56,58,66);white-space:pre}.d{fill:transparent}.e{fill:rgb(82,139,255)}</style><g font-family="Consolas, &quot;Courier New&quot;, Courier, &quot;Liberation Mono&quot;, monospace" font-size="1.67" class="b"><defs><symbol id="1"><text x="0" y="1.67" class="c">├──────────────────────────────────────────────────────────────────────────┤</text></symbol><symbol id="2"><text x="0" y="1.67" class="c">│</text><text x="75.14999999999999" y="1.67" class="c">│</text></symbol><symbol id="a"><rect height="10" width="76" x="0" y="0" class="d"></rect></symbol><symbol id="b"><rect height="1.837" width="1.1022" class="e"></rect></symbol></defs><rect height="18.37" width="76" class="a"></rect><svg x="0" y="0" width="76"><svg x="0"><use xlink:href="#a"></use><use xlink:href="#b" x="75.996" y="14.520999999999999"></use><text x="0" y="1.67" class="c">╭──────────────────────────────────────────────────────────────────────────╮</text><text x="0" y="3.5069999999999997" class="c">│</text><text x="2.004" y="3.5069999999999997" class="c">Text</text><text x="7.013999999999999" y="3.5069999999999997" class="c">widget</text><text x="14.027999999999999" y="3.5069999999999997" class="c">›</text><text x="16.032" y="3.5069999999999997" class="c">Text</text><text x="75.14999999999999" y="3.5069999999999997" class="c">│</text><use xlink:href="#1" y="3.674"></use><use xlink:href="#2" y="5.511"></use><text x="0" y="9.018" class="c">│</text><text x="2.004" y="9.018" class="c">❯</text><text x="4.008" y="9.018" class="c">Item</text><text x="10.02" y="9.018" class="c">Pear█</text><text x="75.14999999999999" y="9.018" class="c">│</text><use xlink:href="#2" y="9.185"></use><use xlink:href="#1" y="11.022"></use><text x="0" y="14.529" class="c">│</text><text x="2.004" y="14.529" class="c">↵</text><text x="4.008" y="14.529" class="c">accept</text><text x="11.021999999999998" y="14.529" class="c">·</text><text x="13.026" y="14.529" class="c">esc</text><text x="17.034" y="14.529" class="c">cancel</text><text x="75.14999999999999" y="14.529" class="c">│</text><text x="0" y="16.366" class="c">╰──────────────────────────────────────────────────────────────────────────╯</text></svg></svg></g></svg></svg>