<svg xmlns="http://www.w3.org/2000/svg" xmlns:xlink="http://www.w3.org/1999/xlink" width="600" height="146.96"><rect width="600" height="146.96" rx="0" ry="0" class="a"></rect><svg height="146.96" viewBox="0 0 60 14.696" width="600" xmlns="http://www.w3.org/2000/svg" xmlns:xlink="http://www.w3.org/1999/xlink"><style>.a{fill:rgb(40,44,52)}.b{font-family:Consolas,"Courier New",Courier,"Liberation Mono",monospace}.c{fill:transparent}.d{fill:rgb(0,128,128);font-weight:bold;white-space:pre}.e{fill:rgb(128,128,128);white-space:pre}.f{fill:rgb(171,178,191);white-space:pre}</style><g font-family="Consolas, &quot;Courier New&quot;, Courier, &quot;Liberation Mono&quot;, monospace" font-size="1.67" class="b"><defs><symbol id="a"><rect height="8" width="60" x="0" y="0" class="c"></rect></symbol></defs><rect height="14.696" width="60" class="a"></rect><svg x="0" y="0" width="60"><svg x="0"><use xlink:href="#a"></use><text x="0" y="1.67" class="d">File</text><text x="5.01" y="1.67" class="d">picker</text><text x="12.024" y="1.67" class="d">widget</text><text x="0" y="3.5069999999999997" class="e">------------------</text><text x="0" y="7.181" class="e">filepicker-tree</text><text x="0" y="9.018" class="d">&gt;</text><text x="2.004" y="9.018" class="d">config/</text><text x="2.004" y="10.855" class="f">src/</text><text x="0" y="12.692" class="e">^/v</text><text x="4.008" y="12.692" class="e">move</text><text x="9.017999999999999" y="12.692" class="e">*</text><text x="11.021999999999998" y="12.692" class="e">&gt;</text><text x="13.026" y="12.692" class="e">open</text><text x="18.035999999999998" y="12.692" class="e">*</text><text x="20.04" y="12.692" class="e">&lt;</text><text x="22.043999999999997" y="12.692" class="e">up</text><text x="25.05" y="12.692" class="e">*</text><text x="27.054" y="12.692" class="e">&lt;</text><text x="29.058" y="12.692" class="e">select</text><text x="36.071999999999996" y="12.692" class="e">*</text><text x="38.07599999999999" y="12.692" class="e">tab</text><text x="42.083999999999996" y="12.692" class="e">hidden</text><text x="49.098" y="12.692" class="e">*</text><text x="51.102" y="12.692" class="e">esc</text><text x="55.10999999999999" y="12.692" class="e">cance</text><text x="0" y="14.529" class="e">l</text></svg></svg></g></svg></svg>