<svg xmlns="http://www.w3.org/2000/svg" xmlns:xlink="http://www.w3.org/1999/xlink" width="600" height="257.18"><rect width="600" height="257.18" rx="0" ry="0" class="a"></rect><svg height="257.18" viewBox="0 0 60 25.718" width="600" xmlns="http://www.w3.org/2000/svg" xmlns:xlink="http://www.w3.org/1999/xlink"><style>.a{fill:rgb(40,44,52)}.b{font-family:Consolas,"Courier New",Courier,"Liberation Mono",monospace}.c{fill:rgb(171,178,191);white-space:pre}.d{fill:transparent}.e{fill:rgb(82,139,255)}.g{animation-duration:34.233000000000004s;animation-iteration-count:infinite;animation-name:f;animation-timing-function:steps(1,end)}@keyframes f{0%{transform:translateX(-0px)}3.57%{transform:translateX(-60px)}7.03%{transform:translateX(-120px)}7.38%{transform:translateX(-180px)}7.97%{transform:translateX(-240px)}8.38%{transform:translateX(-300px)}8.84%{transform:translateX(-360px)}9.17%{transform:translateX(-420px)}9.63%{transform:translateX(-480px)}9.89%{transform:translateX(-540px)}12.88%{transform:translateX(-600px)}13.07%{transform:translateX(-660px)}13.11%{transform:translateX(-720px)}16.59%{transform:translateX(-780px)}17.01%{transform:translateX(-840px)}17.62%{transform:translateX(-900px)}18.13%{transform:translateX(-960px)}18.54%{transform:translateX(-1020px)}18.94%{transform:translateX(-1080px)}19.37%{transform:translateX(-1140px)}19.8%{transform:translateX(-1200px)}22.63%{transform:translateX(-1260px)}22.65%{transform:translateX(-1320px)}22.67%{transform:translateX(-1380px)}25.69%{transform:translateX(-1440px)}26.07%{transform:translateX(-1500px)}26.48%{transform:translateX(-1560px)}26.88%{transform:translateX(-1620px)}27.28%{transform:translateX(-1680px)}27.7%{transform:translateX(-1740px)}28.09%{transform:translateX(-1800px)}28.5%{transform:translateX(-1860px)}28.91%{transform:translateX(-1920px)}29.33%{transform:translateX(-1980px)}29.75%{transform:translateX(-2040px)}30.08%{transform:translateX(-2100px)}30.55%{transform:translateX(-2160px)}30.97%{transform:translateX(-2220px)}31.37%{transform:translateX(-2280px)}31.77%{transform:translateX(-2340px)}35.58%{transform:translateX(-2400px)}35.61%{transform:translateX(-2460px)}35.63%{transform:translateX(-2520px)}38.97%{transform:translateX(-2580px)}39.38%{transform:translateX(-2640px)}39.79%{transform:translateX(-2700px)}40.27%{transform:translateX(-2760px)}40.67%{transform:translateX(-2820px)}41.09%{transform:translateX(-2880px)}44%{transform:translateX(-2940px)}44.02%{transform:translateX(-3000px)}44.05%{transform:translateX(-3060px)}47.95%{transform:translateX(-3120px)}50.87%{transform:translateX(-3180px)}50.9%{transform:translateX(-3240px)}50.92%{transform:translateX(-3300px)}54.84%{transform:translateX(-3360px)}55.79%{transform:translateX(-3420px)}58.69%{transform:translateX(-3480px)}58.71%{transform:translateX(-3540px)}58.73%{transform:translateX(-3600px)}62.13%{transform:translateX(-3660px)}62.62%{transform:translateX(-3720px)}63.04%{transform:translateX(-3780px)}63.97%{transform:translateX(-3840px)}66.85%{transform:translateX(-3900px)}66.88%{transform:translateX(-3960px)}66.89%{transform:translateX(-4020px)}70.37%{transform:translateX(-4080px)}70.8%{transform:translateX(-4140px)}71.22%{transform:translateX(-4200px)}74.06%{transform:translateX(-4260px)}74.08%{transform:translateX(-4320px)}74.1%{transform:translateX(-4380px)}77.43%{transform:translateX(-4440px)}77.92%{transform:translateX(-4500px)}78.85%{transform:translateX(-4560px)}81.7%{transform:translateX(-4620px)}81.72%{transform:translateX(-4680px)}81.74%{transform:translateX(-4740px)}85.22%{transform:translateX(-4800px)}88.09%{transform:translateX(-4860px)}88.13%{transform:translateX(-4920px)}88.15%{transform:translateX(-4980px)}91.24%{transform:translateX(-5040px)}100%{transform:translateX(-5100px)}}</style><g font-family="Consolas, &quot;Courier New&quot;, Courier, &quot;Liberation Mono&quot;, monospace" font-size="1.67" class="b"><defs><symbol id="1"><text x="0" y="1.67" class="c">Text</text><text x="5.01" y="1.67" class="c">widget</text></symbol><symbol id="2"><text x="0" y="1.67" class="c">edit</text><text x="5.01" y="1.67" class="c">·</text><text x="7.013999999999999" y="1.67" class="c">Enter</text><text x="13.026" y="1.67" class="c">accept</text><text x="20.04" y="1.67" class="c">·</text><text x="22.043999999999997" y="1.67" class="c">Esc</text><text x="26.052" y="1.67" class="c">cancel</text></symbol><symbol id="3"><text x="0" y="1.67" class="c">Text:</text><text x="6.012" y="1.67" class="c">&quot;Acme</text><text x="12.024" y="1.67" class="c">Corp&quot;</text></symbol><symbol id="4"><text x="0" y="1.67" class="c">Number</text><text x="7.013999999999999" y="1.67" class="c">widget</text></symbol><symbol id="5"><text x="0" y="1.67" class="c">|</text></symbol><symbol id="6"><text x="0" y="1.67" class="c">Number:</text><text x="8.016" y="1.67" class="c">3000</text></symbol><symbol id="7"><text x="0" y="1.67" class="c">Textarea</text><text x="9.017999999999999" y="1.67" class="c">widget</text></symbol><symbol id="8"><text x="0" y="1.67" class="c">edit</text><text x="5.01" y="1.67" class="c">·</text><text x="7.013999999999999" y="1.67" class="c">Tab</text><text x="11.021999999999998" y="1.67" class="c">accept</text><text x="18.035999999999998" y="1.67" class="c">·</text><text x="20.04" y="1.67" class="c">Esc</text><text x="24.048" y="1.67" class="c">cancel</text></symbol><symbol id="9"><text x="0" y="1.67" class="c">Redis</text><text x="6.012" y="1.67" class="c">for</text><text x="10.02" y="1.67" class="c">cache</text></symbol><symbol id="10"><text x="0" y="1.67" class="c">enter</text><text x="6.012" y="1.67" class="c">newline</text><text x="14.027999999999999" y="1.67" class="c">*</text><text x="16.032" y="1.67" class="c">tab</text><text x="20.04" y="1.67" class="c">accept</text></symbol><symbol id="11"><text x="0" y="1.67" class="c">Solr</text><text x="5.01" y="1.67" class="c">for</text><text x="9.017999999999999" y="1.67" class="c">search</text></symbol><symbol id="12"><text x="0" y="1.67" class="c">Textarea:</text><text x="10.02" y="1.67" class="c">&quot;Redis</text><text x="17.034" y="1.67" class="c">for</text><text x="21.041999999999998" y="1.67" class="c">cache\nSolr</text><text x="33.065999999999995" y="1.67" class="c">for</text><text x="37.074" y="1.67" class="c">search\nClamAV</text><text x="52.104" y="1.67" class="c">for</text><text x="56.111999999999995" y="1.67" class="c">mail</text></symbol><symbol id="13"><text x="0" y="1.67" class="c">&quot;</text></symbol><symbol id="14"><text x="0" y="1.67" class="c">Password</text><text x="9.017999999999999" y="1.67" class="c">widget</text></symbol><symbol id="15"><text x="0" y="1.67" class="c">Password:</text><text x="10.02" y="1.67" class="c">&quot;hunter2s3cret&quot;</text></symbol><symbol id="16"><text x="0" y="1.67" class="c">Select</text><text x="7.013999999999999" y="1.67" class="c">widget</text></symbol><symbol id="17"><text x="0" y="1.67" class="c">(</text><text x="2.004" y="1.67" class="c">)</text><text x="4.008" y="1.67" class="c">Standard</text></symbol><symbol id="18"><text x="0" y="1.67" class="c">Select:</text><text x="8.016" y="1.67" class="c">&quot;demo_umami&quot;</text></symbol><symbol id="19"><text x="0" y="1.67" class="c">MultiSelect</text><text x="12.024" y="1.67" class="c">widget</text></symbol><symbol id="20"><text x="0" y="1.67" class="c">&gt;</text><text x="2.004" y="1.67" class="c">[x]</text><text x="6.012" y="1.67" class="c">Redis</text></symbol><symbol id="21"><text x="2.004" y="1.67" class="c">[</text><text x="4.008" y="1.67" class="c">]</text><text x="6.012" y="1.67" class="c">Solr</text></symbol><symbol id="22"><text x="2.004" y="1.67" class="c">[</text><text x="4.008" y="1.67" class="c">]</text><text x="6.012" y="1.67" class="c">ClamAV</text></symbol><symbol id="23"><text x="2.004" y="1.67" class="c">[x]</text><text x="6.012" y="1.67" class="c">Redis</text></symbol><symbol id="24"><text x="0" y="1.67" class="c">MultiSelect:</text><text x="13.026" y="1.67" class="c">[&quot;redis&quot;,&quot;solr&quot;]</text></symbol><symbol id="25"><text x="0" y="1.67" class="c">Suggest</text><text x="8.016" y="1.67" class="c">widget</text></symbol><symbol id="26"><text x="2.004" y="1.67" class="c">Europe/London</text></symbol><symbol id="27"><text x="2.004" y="1.67" class="c">Europe/Paris</text></symbol><symbol id="28"><text x="2.004" y="1.67" class="c">Australia/Sydney</text></symbol><symbol id="29"><text x="0" y="1.67" class="c">Eur|</text></symbol><symbol id="30"><text x="0" y="1.67" class="c">Suggest:</text><text x="9.017999999999999" y="1.67" class="c">&quot;Europe\/London&quot;</text></symbol><symbol id="31"><text x="0" y="1.67" class="c">Search</text><text x="7.013999999999999" y="1.67" class="c">widget</text></symbol><symbol id="32"><text x="0" y="1.67" class="c">(*)</text><text x="4.008" y="1.67" class="c">Europe/London</text></symbol><symbol id="33"><text x="0" y="1.67" class="c">(</text><text x="2.004" y="1.67" class="c">)</text><text x="4.008" y="1.67" class="c">Europe/Paris</text></symbol><symbol id="34"><text x="0" y="1.67" class="c">(*)</text><text x="4.008" y="1.67" class="c">Europe/Paris</text></symbol><symbol id="35"><text x="0" y="1.67" class="c">Search:</text><text x="8.016" y="1.67" class="c">&quot;paris&quot;</text></symbol><symbol id="36"><text x="0" y="1.67" class="c">MultiSearch</text><text x="12.024" y="1.67" class="c">widget</text></symbol><symbol id="37"><text x="2.004" y="1.67" class="c">[</text><text x="4.008" y="1.67" class="c">]</text><text x="6.012" y="1.67" class="c">Memcached</text></symbol><symbol id="38"><text x="0" y="1.67" class="c">&gt;</text><text x="2.004" y="1.67" class="c">[</text><text x="4.008" y="1.67" class="c">]</text><text x="6.012" y="1.67" class="c">ClamAV</text></symbol><symbol id="39"><text x="0" y="1.67" class="c">cl|</text></symbol><symbol id="40"><text x="0" y="1.67" class="c">MultiSearch:</text><text x="13.026" y="1.67" class="c">[&quot;redis&quot;,&quot;clamav&quot;]</text></symbol><symbol id="41"><text x="0" y="1.67" class="c">Confirm</text><text x="8.016" y="1.67" class="c">widget</text></symbol><symbol id="42"><text x="0" y="1.67" class="c">Confirm:</text><text x="9.017999999999999" y="1.67" class="c">false</text></symbol><symbol id="43"><text x="0" y="1.67" class="c">Pause:</text><text x="7.013999999999999" y="1.67" class="c">true</text></symbol><symbol id="a"><rect height="14" width="60" x="0" y="0" class="d"></rect></symbol><symbol id="b"><rect height="1.837" width="1.1022" class="e"></rect></symbol></defs><rect height="25.718" width="60" class="a"></rect><g class="g"><svg x="0" y="0" width="5160"><svg x="0"><use xlink:href="#a"></use><use xlink:href="#b" x="-0.0040000000000000036" y="0"></use></svg><svg x="60"><use xlink:href="#a"></use><use xlink:href="#1" y="0"></use><use xlink:href="#2" y="1.837"></use><text x="0" y="7.181" class="c">Acme</text><text x="5.01" y="7.181" class="c">Site|</text></svg><svg x="120"><use xlink:href="#a"></use><use xlink:href="#1" y="0"></use><use xlink:href="#2" y="1.837"></use><text x="0" y="7.181" class="c">Acme</text><text x="5.01" y="7.181" class="c">Sit|</text></svg><svg x="180"><use xlink:href="#a"></use><use xlink:href="#1" y="0"></use><use xlink:href="#2" y="1.837"></use><text x="0" y="7.181" class="c">Acme</text><text x="5.01" y="7.181" class="c">Si|</text></svg><svg x="240"><use xlink:href="#a"></use><use xlink:href="#1" y="0"></use><use xlink:href="#2" y="1.837"></use><text x="0" y="7.181" class="c">Acme</text><text x="5.01" y="7.181" class="c">S|</text></svg><svg x="300"><use xlink:href="#a"></use><use xlink:href="#1" y="0"></use><use xlink:href="#2" y="1.837"></use><text x="0" y="7.181" class="c">Acme</text><text x="5.01" y="7.181" class="c">|</text></svg><svg x="360"><use xlink:href="#a"></use><use xlink:href="#1" y="0"></use><use xlink:href="#2" y="1.837"></use><text x="0" y="7.181" class="c">Acme</text><text x="5.01" y="7.181" class="c">C|</text></svg><svg x="420"><use xlink:href="#a"></use><use xlink:href="#1" y="0"></use><use xlink:href="#2" y="1.837"></use><text x="0" y="7.181" class="c">Acme</text><text x="5.01" y="7.181" class="c">Co|</text></svg><svg x="480"><use xlink:href="#a"></use><use xlink:href="#1" y="0"></use><use xlink:href="#2" y="1.837"></use><text x="0" y="7.181" class="c">Acme</text><text x="5.01" y="7.181" class="c">Cor|</text></svg><svg x="540"><use xlink:href="#a"></use><use xlink:href="#1" y="0"></use><use xlink:href="#2" y="1.837"></use><text x="0" y="7.181" class="c">Acme</text><text x="5.01" y="7.181" class="c">Corp|</text></svg><svg x="600"><use xlink:href="#a"></use><use xlink:href="#b" x="-0.0040000000000000036" y="0"></use></svg><svg x="660"><use xlink:href="#a"></use><use xlink:href="#b" x="-0.0040000000000000036" y="1.662"></use><use xlink:href="#3" y="0"></use></svg><svg x="720"><use xlink:href="#a"></use><use xlink:href="#4" y="0"></use><use xlink:href="#2" y="1.837"></use><text x="0" y="7.181" class="c">8080|</text></svg><svg x="780"><use xlink:href="#a"></use><use xlink:href="#4" y="0"></use><use xlink:href="#2" y="1.837"></use><text x="0" y="7.181" class="c">808|</text></svg><svg x="840"><use xlink:href="#a"></use><use xlink:href="#4" y="0"></use><use xlink:href="#2" y="1.837"></use><text x="0" y="7.181" class="c">80|</text></svg><svg x="900"><use xlink:href="#a"></use><use xlink:href="#4" y="0"></use><use xlink:href="#2" y="1.837"></use><text x="0" y="7.181" class="c">8|</text></svg><svg x="960"><use xlink:href="#a"></use><use xlink:href="#4" y="0"></use><use xlink:href="#2" y="1.837"></use><use xlink:href="#5" y="5.511"></use></svg><svg x="1020"><use xlink:href="#a"></use><use xlink:href="#4" y="0"></use><use xlink:href="#2" y="1.837"></use><text x="0" y="7.181" class="c">3|</text></svg><svg x="1080"><use xlink:href="#a"></use><use xlink:href="#4" y="0"></use><use xlink:href="#2" y="1.837"></use><text x="0" y="7.181" class="c">30|</text></svg><svg x="1140"><use xlink:href="#a"></use><use xlink:href="#4" y="0"></use><use xlink:href="#2" y="1.837"></use><text x="0" y="7.181" class="c">300|</text></svg><svg x="1200"><use xlink:href="#a"></use><use xlink:href="#4" y="0"></use><use xlink:href="#2" y="1.837"></use><text x="0" y="7.181" class="c">3000|</text></svg><svg x="1260"><use xlink:href="#a"></use><use xlink:href="#b" x="-0.0040000000000000036" y="1.662"></use><use xlink:href="#3" y="0"></use></svg><svg x="1320"><use xlink:href="#a"></use><use xlink:href="#b" x="-0.0040000000000000036" y="3.499"></use><use xlink:href="#3" y="0"></use><use xlink:href="#6" y="1.837"></use></svg><svg x="1380"><use xlink:href="#a"></use><use xlink:href="#7" y="0"></use><use xlink:href="#8" y="1.837"></use><use xlink:href="#9" y="5.511"></use><text x="0" y="9.018" class="c">Solr</text><text x="5.01" y="9.018" class="c">for</text><text x="9.017999999999999" y="9.018" class="c">search|</text><use xlink:href="#10" y="9.185"></use></svg><svg x="1440"><use xlink:href="#a"></use><use xlink:href="#7" y="0"></use><use xlink:href="#8" y="1.837"></use><use xlink:href="#9" y="5.511"></use><use xlink:href="#11" y="7.348"></use><use xlink:href="#5" y="9.185"></use><use xlink:href="#10" y="11.022"></use></svg><svg x="1500"><use xlink:href="#a"></use><use xlink:href="#7" y="0"></use><use xlink:href="#8" y="1.837"></use><use xlink:href="#9" y="5.511"></use><use xlink:href="#11" y="7.348"></use><text x="0" y="10.855" class="c">C|</text><use xlink:href="#10" y="11.022"></use></svg><svg x="1560"><use xlink:href="#a"></use><use xlink:href="#7" y="0"></use><use xlink:href="#8" y="1.837"></use><use xlink:href="#9" y="5.511"></use><use xlink:href="#11" y="7.348"></use><text x="0" y="10.855" class="c">Cl|</text><use xlink:href="#10" y="11.022"></use></svg><svg x="1620"><use xlink:href="#a"></use><use xlink:href="#7" y="0"></use><use xlink:href="#8" y="1.837"></use><use xlink:href="#9" y="5.511"></use><use xlink:href="#11" y="7.348"></use><text x="0" y="10.855" class="c">Cla|</text><use xlink:href="#10" y="11.022"></use></svg><svg x="1680"><use xlink:href="#a"></use><use xlink:href="#7" y="0"></use><use xlink:href="#8" y="1.837"></use><use xlink:href="#9" y="5.511"></use><use xlink:href="#11" y="7.348"></use><text x="0" y="10.855" class="c">Clam|</text><use xlink:href="#10" y="11.022"></use></svg><svg x="1740"><use xlink:href="#a"></use><use xlink:href="#7" y="0"></use><use xlink:href="#8" y="1.837"></use><use xlink:href="#9" y="5.511"></use><use xlink:href="#11" y="7.348"></use><text x="0" y="10.855" class="c">ClamA|</text><use xlink:href="#10" y="11.022"></use></svg><svg x="1800"><use xlink:href="#a"></use><use xlink:href="#7" y="0"></use><use xlink:href="#8" y="1.837"></use><use xlink:href="#9" y="5.511"></use><use xlink:href="#11" y="7.348"></use><text x="0" y="10.855" class="c">ClamAV|</text><use xlink:href="#10" y="11.022"></use></svg><svg x="1860"><use xlink:href="#a"></use><use xlink:href="#7" y="0"></use><use xlink:href="#8" y="1.837"></use><use xlink:href="#9" y="5.511"></use><use xlink:href="#11" y="7.348"></use><text x="0" y="10.855" class="c">ClamAV</text><text x="7.013999999999999" y="10.855" class="c">|</text><use xlink:href="#10" y="11.022"></use></svg><svg x="1920"><use xlink:href="#a"></use><use xlink:href="#7" y="0"></use><use xlink:href="#8" y="1.837"></use><use xlink:href="#9" y="5.511"></use><use xlink:href="#11" y="7.348"></use><text x="0" y="10.855" class="c">ClamAV</text><text x="7.013999999999999" y="10.855" class="c">f|</text><use xlink:href="#10" y="11.022"></use></svg><svg x="1980"><use xlink:href="#a"></use><use xlink:href="#7" y="0"></use><use xlink:href="#8" y="1.837"></use><use xlink:href="#9" y="5.511"></use><use xlink:href="#11" y="7.348"></use><text x="0" y="10.855" class="c">ClamAV</text><text x="7.013999999999999" y="10.855" class="c">fo|</text><use xlink:href="#10" y="11.022"></use></svg><svg x="2040"><use xlink:href="#a"></use><use xlink:href="#7" y="0"></use><use xlink:href="#8" y="1.837"></use><use xlink:href="#9" y="5.511"></use><use xlink:href="#11" y="7.348"></use><text x="0" y="10.855" class="c">ClamAV</text><text x="7.013999999999999" y="10.855" class="c">for|</text><use xlink:href="#10" y="11.022"></use></svg><svg x="2100"><use xlink:href="#a"></use><use xlink:href="#7" y="0"></use><use xlink:href="#8" y="1.837"></use><use xlink:href="#9" y="5.511"></use><use xlink:href="#11" y="7.348"></use><text x="0" y="10.855" class="c">ClamAV</text><text x="7.013999999999999" y="10.855" class="c">for</text><text x="11.021999999999998" y="10.855" class="c">|</text><use xlink:href="#10" y="11.022"></use></svg><svg x="2160"><use xlink:href="#a"></use><use xlink:href="#7" y="0"></use><use xlink:href="#8" y="1.837"></use><use xlink:href="#9" y="5.511"></use><use xlink:href="#11" y="7.348"></use><text x="0" y="10.855" class="c">ClamAV</text><text x="7.013999999999999" y="10.855" class="c">for</text><text x="11.021999999999998" y="10.855" class="c">m|</text><use xlink:href="#10" y="11.022"></use></svg><svg x="2220"><use xlink:href="#a"></use><use xlink:href="#7" y="0"></use><use xlink:href="#8" y="1.837"></use><use xlink:href="#9" y="5.511"></use><use xlink:href="#11" y="7.348"></use><text x="0" y="10.855" class="c">ClamAV</text><text x="7.013999999999999" y="10.855" class="c">for</text><text x="11.021999999999998" y="10.855" class="c">ma|</text><use xlink:href="#10" y="11.022"></use></svg><svg x="2280"><use xlink:href="#a"></use><use xlink:href="#7" y="0"></use><use xlink:href="#8" y="1.837"></use><use xlink:href="#9" y="5.511"></use><use xlink:href="#11" y="7.348"></use><text x="0" y="10.855" class="c">ClamAV</text><text x="7.013999999999999" y="10.855" class="c">for</text><text x="11.021999999999998" y="10.855" class="c">mai|</text><use xlink:href="#10" y="11.022"></use></svg><svg x="2340"><use xlink:href="#a"></use><use xlink:href="#7" y="0"></use><use xlink:href="#8" y="1.837"></use><use xlink:href="#9" y="5.511"></use><use xlink:href="#11" y="7.348"></use><text x="0" y="10.855" class="c">ClamAV</text><text x="7.013999999999999" y="10.855" class="c">for</text><text x="11.021999999999998" y="10.855" class="c">mail|</text><use xlink:href="#10" y="11.022"></use></svg><svg x="2400"><use xlink:href="#a"></use><use xlink:href="#b" x="-0.0040000000000000036" y="3.499"></use><use xlink:href="#3" y="0"></use><use xlink:href="#6" y="1.837"></use></svg><svg x="2460"><use xlink:href="#a"></use><use xlink:href="#b" x="-0.0040000000000000036" y="7.173"></use><use xlink:href="#3" y="0"></use><use xlink:href="#6" y="1.837"></use><use xlink:href="#12" y="3.674"></use><use xlink:href="#13" y="5.511"></use></svg><svg x="2520"><use xlink:href="#a"></use><use xlink:href="#14" y="0"></use><use xlink:href="#2" y="1.837"></use><text x="0" y="7.181" class="c">*******|</text></svg><svg x="2580"><use xlink:href="#a"></use><use xlink:href="#14" y="0"></use><use xlink:href="#2" y="1.837"></use><text x="0" y="7.181" class="c">********|</text></svg><svg x="2640"><use xlink:href="#a"></use><use xlink:href="#14" y="0"></use><use xlink:href="#2" y="1.837"></use><text x="0" y="7.181" class="c">*********|</text></svg><svg x="2700"><use xlink:href="#a"></use><use xlink:href="#14" y="0"></use><use xlink:href="#2" y="1.837"></use><text x="0" y="7.181" class="c">**********|</text></svg><svg x="2760"><use xlink:href="#a"></use><use xlink:href="#14" y="0"></use><use xlink:href="#2" y="1.837"></use><text x="0" y="7.181" class="c">***********|</text></svg><svg x="2820"><use xlink:href="#a"></use><use xlink:href="#14" y="0"></use><use xlink:href="#2" y="1.837"></use><text x="0" y="7.181" class="c">************|</text></svg><svg x="2880"><use xlink:href="#a"></use><use xlink:href="#14" y="0"></use><use xlink:href="#2" y="1.837"></use><text x="0" y="7.181" class="c">*************|</text></svg><svg x="2940"><use xlink:href="#a"></use><use xlink:href="#b" x="-0.0040000000000000036" y="7.173"></use><use xlink:href="#3" y="0"></use><use xlink:href="#6" y="1.837"></use><use xlink:href="#12" y="3.674"></use><use xlink:href="#13" y="5.511"></use></svg><svg x="3000"><use xlink:href="#a"></use><use xlink:href="#b" x="-0.0040000000000000036" y="9.01"></use><use xlink:href="#3" y="0"></use><use xlink:href="#6" y="1.837"></use><use xlink:href="#12" y="3.674"></use><use xlink:href="#13" y="5.511"></use><use xlink:href="#15" y="7.348"></use></svg><svg x="3060"><use xlink:href="#a"></use><use xlink:href="#16" y="0"></use><use xlink:href="#2" y="1.837"></use><use xlink:href="#17" y="5.511"></use><text x="0" y="9.018" class="c">(*)</text><text x="4.008" y="9.018" class="c">Minimal</text><text x="0" y="10.855" class="c">(</text><text x="2.004" y="10.855" class="c">)</text><text x="4.008" y="10.855" class="c">Demo</text><text x="9.017999999999999" y="10.855" class="c">Umami</text></svg><svg x="3120"><use xlink:href="#a"></use><use xlink:href="#16" y="0"></use><use xlink:href="#2" y="1.837"></use><use xlink:href="#17" y="5.511"></use><text x="0" y="9.018" class="c">(</text><text x="2.004" y="9.018" class="c">)</text><text x="4.008" y="9.018" class="c">Minimal</text><text x="0" y="10.855" class="c">(*)</text><text x="4.008" y="10.855" class="c">Demo</text><text x="9.017999999999999" y="10.855" class="c">Umami</text></svg><svg x="3180"><use xlink:href="#a"></use><use xlink:href="#b" x="-0.0040000000000000036" y="9.01"></use><use xlink:href="#3" y="0"></use><use xlink:href="#6" y="1.837"></use><use xlink:href="#12" y="3.674"></use><use xlink:href="#13" y="5.511"></use><use xlink:href="#15" y="7.348"></use></svg><svg x="3240"><use xlink:href="#a"></use><use xlink:href="#b" x="-0.0040000000000000036" y="10.847"></use><use xlink:href="#3" y="0"></use><use xlink:href="#6" y="1.837"></use><use xlink:href="#12" y="3.674"></use><use xlink:href="#13" y="5.511"></use><use xlink:href="#15" y="7.348"></use><use xlink:href="#18" y="9.185"></use></svg><svg x="3300"><use xlink:href="#a"></use><use xlink:href="#19" y="0"></use><use xlink:href="#2" y="1.837"></use><use xlink:href="#20" y="5.511"></use><use xlink:href="#21" y="7.348"></use><use xlink:href="#22" y="9.185"></use></svg><svg x="3360"><use xlink:href="#a"></use><use xlink:href="#19" y="0"></use><use xlink:href="#2" y="1.837"></use><use xlink:href="#23" y="5.511"></use><text x="0" y="9.018" class="c">&gt;</text><text x="2.004" y="9.018" class="c">[</text><text x="4.008" y="9.018" class="c">]</text><text x="6.012" y="9.018" class="c">Solr</text><use xlink:href="#22" y="9.185"></use></svg><svg x="3420"><use xlink:href="#a"></use><use xlink:href="#19" y="0"></use><use xlink:href="#2" y="1.837"></use><use xlink:href="#23" y="5.511"></use><text x="0" y="9.018" class="c">&gt;</text><text x="2.004" y="9.018" class="c">[x]</text><text x="6.012" y="9.018" class="c">Solr</text><use xlink:href="#22" y="9.185"></use></svg><svg x="3480"><use xlink:href="#a"></use><use xlink:href="#b" x="-0.0040000000000000036" y="10.847"></use><use xlink:href="#3" y="0"></use><use xlink:href="#6" y="1.837"></use><use xlink:href="#12" y="3.674"></use><use xlink:href="#13" y="5.511"></use><use xlink:href="#15" y="7.348"></use><use xlink:href="#18" y="9.185"></use></svg><svg x="3540"><use xlink:href="#a"></use><use xlink:href="#b" x="-0.0040000000000000036" y="12.684"></use><use xlink:href="#3" y="0"></use><use xlink:href="#6" y="1.837"></use><use xlink:href="#12" y="3.674"></use><use xlink:href="#13" y="5.511"></use><use xlink:href="#15" y="7.348"></use><use xlink:href="#18" y="9.185"></use><use xlink:href="#24" y="11.022"></use></svg><svg x="3600"><use xlink:href="#a"></use><use xlink:href="#25" y="0"></use><use xlink:href="#2" y="1.837"></use><use xlink:href="#5" y="5.511"></use><text x="2.004" y="9.018" class="c">UTC</text><use xlink:href="#26" y="9.185"></use><use xlink:href="#27" y="11.022"></use><use xlink:href="#28" y="12.859"></use></svg><svg x="3660"><use xlink:href="#a"></use><use xlink:href="#25" y="0"></use><use xlink:href="#2" y="1.837"></use><text x="0" y="7.181" class="c">E|</text><use xlink:href="#26" y="7.348"></use><use xlink:href="#27" y="9.185"></use><use xlink:href="#28" y="11.022"></use></svg><svg x="3720"><use xlink:href="#a"></use><use xlink:href="#25" y="0"></use><use xlink:href="#2" y="1.837"></use><text x="0" y="7.181" class="c">Eu|</text><use xlink:href="#26" y="7.348"></use><use xlink:href="#27" y="9.185"></use></svg><svg x="3780"><use xlink:href="#a"></use><use xlink:href="#25" y="0"></use><use xlink:href="#2" y="1.837"></use><use xlink:href="#29" y="5.511"></use><use xlink:href="#26" y="7.348"></use><use xlink:href="#27" y="9.185"></use></svg><svg x="3840"><use xlink:href="#a"></use><use xlink:href="#25" y="0"></use><use xlink:href="#2" y="1.837"></use><use xlink:href="#29" y="5.511"></use><text x="0" y="9.018" class="c">&gt;</text><text x="2.004" y="9.018" class="c">Europe/London</text><use xlink:href="#27" y="9.185"></use></svg><svg x="3900"><use xlink:href="#a"></use><use xlink:href="#b" x="-0.0040000000000000036" y="12.684"></use><use xlink:href="#3" y="0"></use><use xlink:href="#6" y="1.837"></use><use xlink:href="#12" y="3.674"></use><use xlink:href="#13" y="5.511"></use><use xlink:href="#15" y="7.348"></use><use xlink:href="#18" y="9.185"></use><use xlink:href="#24" y="11.022"></use></svg><svg x="3960"><use xlink:href="#a"></use><use xlink:href="#b" x="-0.0040000000000000036" y="14.520999999999999"></use><use xlink:href="#3" y="0"></use><use xlink:href="#6" y="1.837"></use><use xlink:href="#12" y="3.674"></use><use xlink:href="#13" y="5.511"></use><use xlink:href="#15" y="7.348"></use><use xlink:href="#18" y="9.185"></use><use xlink:href="#24" y="11.022"></use><use xlink:href="#30" y="12.859"></use></svg><svg x="4020"><use xlink:href="#a"></use><use xlink:href="#31" y="0"></use><use xlink:href="#2" y="1.837"></use><use xlink:href="#5" y="5.511"></use><text x="0" y="9.018" class="c">(</text><text x="2.004" y="9.018" class="c">)</text><text x="4.008" y="9.018" class="c">UTC</text><use xlink:href="#32" y="9.185"></use><use xlink:href="#33" y="11.022"></use><text x="0" y="14.529" class="c">(</text><text x="2.004" y="14.529" class="c">)</text><text x="4.008" y="14.529" class="c">Australia/Sydney</text></svg><svg x="4080"><use xlink:href="#a"></use><use xlink:href="#31" y="0"></use><use xlink:href="#2" y="1.837"></use><text x="0" y="7.181" class="c">p|</text><use xlink:href="#32" y="7.348"></use><use xlink:href="#33" y="9.185"></use></svg><svg x="4140"><use xlink:href="#a"></use><use xlink:href="#31" y="0"></use><use xlink:href="#2" y="1.837"></use><text x="0" y="7.181" class="c">pa|</text><use xlink:href="#34" y="7.348"></use></svg><svg x="4200"><use xlink:href="#a"></use><use xlink:href="#31" y="0"></use><use xlink:href="#2" y="1.837"></use><text x="0" y="7.181" class="c">par|</text><use xlink:href="#34" y="7.348"></use></svg><svg x="4260"><use xlink:href="#a"></use><use xlink:href="#b" x="-0.0040000000000000036" y="14.520999999999999"></use><use xlink:href="#3" y="0"></use><use xlink:href="#6" y="1.837"></use><use xlink:href="#12" y="3.674"></use><use xlink:href="#13" y="5.511"></use><use xlink:href="#15" y="7.348"></use><use xlink:href="#18" y="9.185"></use><use xlink:href="#24" y="11.022"></use><use xlink:href="#30" y="12.859"></use></svg><svg x="4320"><use xlink:href="#a"></use><use xlink:href="#b" x="-0.0040000000000000036" y="16.358"></use><use xlink:href="#3" y="0"></use><use xlink:href="#6" y="1.837"></use><use xlink:href="#12" y="3.674"></use><use xlink:href="#13" y="5.511"></use><use xlink:href="#15" y="7.348"></use><use xlink:href="#18" y="9.185"></use><use xlink:href="#24" y="11.022"></use><use xlink:href="#30" y="12.859"></use><use xlink:href="#35" y="14.696"></use></svg><svg x="4380"><use xlink:href="#a"></use><use xlink:href="#36" y="0"></use><use xlink:href="#2" y="1.837"></use><use xlink:href="#5" y="5.511"></use><use xlink:href="#20" y="7.348"></use><use xlink:href="#21" y="9.185"></use><use xlink:href="#22" y="11.022"></use><use xlink:href="#37" y="12.859"></use></svg><svg x="4440"><use xlink:href="#a"></use><use xlink:href="#36" y="0"></use><use xlink:href="#2" y="1.837"></use><text x="0" y="7.181" class="c">c|</text><use xlink:href="#38" y="7.348"></use><use xlink:href="#37" y="9.185"></use></svg><svg x="4500"><use xlink:href="#a"></use><use xlink:href="#36" y="0"></use><use xlink:href="#2" y="1.837"></use><use xlink:href="#39" y="5.511"></use><use xlink:href="#38" y="7.348"></use></svg><svg x="4560"><use xlink:href="#a"></use><use xlink:href="#36" y="0"></use><use xlink:href="#2" y="1.837"></use><use xlink:href="#39" y="5.511"></use><text x="0" y="9.018" class="c">&gt;</text><text x="2.004" y="9.018" class="c">[x]</text><text x="6.012" y="9.018" class="c">ClamAV</text></svg><svg x="4620"><use xlink:href="#a"></use><use xlink:href="#b" x="-0.0040000000000000036" y="16.358"></use><use xlink:href="#3" y="0"></use><use xlink:href="#6" y="1.837"></use><use xlink:href="#12" y="3.674"></use><use xlink:href="#13" y="5.511"></use><use xlink:href="#15" y="7.348"></use><use xlink:href="#18" y="9.185"></use><use xlink:href="#24" y="11.022"></use><use xlink:href="#30" y="12.859"></use><use xlink:href="#35" y="14.696"></use></svg><svg x="4680"><use xlink:href="#a"></use><use xlink:href="#b" x="-0.0040000000000000036" y="18.195"></use><use xlink:href="#3" y="0"></use><use xlink:href="#6" y="1.837"></use><use xlink:href="#12" y="3.674"></use><use xlink:href="#13" y="5.511"></use><use xlink:href="#15" y="7.348"></use><use xlink:href="#18" y="9.185"></use><use xlink:href="#24" y="11.022"></use><use xlink:href="#30" y="12.859"></use><use xlink:href="#35" y="14.696"></use><use xlink:href="#40" y="16.533"></use></svg><svg x="4740"><use xlink:href="#a"></use><use xlink:href="#41" y="0"></use><use xlink:href="#2" y="1.837"></use><text x="0" y="7.181" class="c">(*)</text><text x="4.008" y="7.181" class="c">Yes</text><text x="9.017999999999999" y="7.181" class="c">(</text><text x="11.021999999999998" y="7.181" class="c">)</text><text x="13.026" y="7.181" class="c">No</text></svg><svg x="4800"><use xlink:href="#a"></use><use xlink:href="#41" y="0"></use><use xlink:href="#2" y="1.837"></use><text x="0" y="7.181" class="c">(</text><text x="2.004" y="7.181" class="c">)</text><text x="4.008" y="7.181" class="c">Yes</text><text x="9.017999999999999" y="7.181" class="c">(*)</text><text x="13.026" y="7.181" class="c">No</text></svg><svg x="4860"><use xlink:href="#a"></use><use xlink:href="#b" x="-0.0040000000000000036" y="18.195"></use><use xlink:href="#3" y="0"></use><use xlink:href="#6" y="1.837"></use><use xlink:href="#12" y="3.674"></use><use xlink:href="#13" y="5.511"></use><use xlink:href="#15" y="7.348"></use><use xlink:href="#18" y="9.185"></use><use xlink:href="#24" y="11.022"></use><use xlink:href="#30" y="12.859"></use><use xlink:href="#35" y="14.696"></use><use xlink:href="#40" y="16.533"></use></svg><svg x="4920"><use xlink:href="#a"></use><use xlink:href="#b" x="-0.0040000000000000036" y="20.031999999999996"></use><use xlink:href="#3" y="0"></use><use xlink:href="#6" y="1.837"></use><use xlink:href="#12" y="3.674"></use><use xlink:href="#13" y="5.511"></use><use xlink:href="#15" y="7.348"></use><use xlink:href="#18" y="9.185"></use><use xlink:href="#24" y="11.022"></use><use xlink:href="#30" y="12.859"></use><use xlink:href="#35" y="14.696"></use><use xlink:href="#40" y="16.533"></use><use xlink:href="#42" y="18.37"></use></svg><svg x="4980"><use xlink:href="#a"></use><text x="0" y="1.67" class="c">Pause</text><text x="6.012" y="1.67" class="c">widget</text><text x="0" y="3.5069999999999997" class="c">Enter</text><text x="6.012" y="3.5069999999999997" class="c">continue</text><text x="15.029999999999998" y="3.5069999999999997" class="c">·</text><text x="17.034" y="3.5069999999999997" class="c">Esc</text><text x="21.041999999999998" y="3.5069999999999997" class="c">cancel</text><text x="0" y="7.181" class="c">&lt;</text><text x="2.004" y="7.181" class="c">Press</text><text x="8.016" y="7.181" class="c">Enter</text><text x="14.027999999999999" y="7.181" class="c">to</text><text x="17.034" y="7.181" class="c">continue</text></svg><svg x="5040"><use xlink:href="#a"></use><use xlink:href="#b" x="-0.0040000000000000036" y="21.869"></use><use xlink:href="#3" y="0"></use><use xlink:href="#6" y="1.837"></use><use xlink:href="#12" y="3.674"></use><use xlink:href="#13" y="5.511"></use><use xlink:href="#15" y="7.348"></use><use xlink:href="#18" y="9.185"></use><use xlink:href="#24" y="11.022"></use><use xlink:href="#30" y="12.859"></use><use xlink:href="#35" y="14.696"></use><use xlink:href="#40" y="16.533"></use><use xlink:href="#42" y="18.37"></use><use xlink:href="#43" y="20.206999999999997"></use></svg><svg x="5100"><use xlink:href="#a"></use><use xlink:href="#b" x="0.996" y="21.869"></use><use xlink:href="#3" y="0"></use><use xlink:href="#6" y="1.837"></use><use xlink:href="#12" y="3.674"></use><use xlink:href="#13" y="5.511"></use><use xlink:href="#15" y="7.348"></use><use xlink:href="#18" y="9.185"></use><use xlink:href="#24" y="11.022"></use><use xlink:href="#30" y="12.859"></use><use xlink:href="#35" y="14.696"></use><use xlink:href="#40" y="16.533"></use><use xlink:href="#42" y="18.37"></use><use xlink:href="#43" y="20.206999999999997"></use></svg></svg></g></g></svg></svg>