<svg xmlns="http://www.w3.org/2000/svg" xmlns:xlink="http://www.w3.org/1999/xlink" width="760" height="330.66"><rect width="760" height="330.66" rx="0" ry="0" class="a"></rect><svg height="330.66" viewBox="0 0 76 33.066" width="760" xmlns="http://www.w3.org/2000/svg" xmlns:xlink="http://www.w3.org/1999/xlink"><style>.a{fill:rgb(250,250,250)}.b{font-family:Consolas,"Courier New",Courier,"Liberation Mono",monospace}.c{fill:rgb(0,128,128);white-space:pre}.d{fill:transparent}.e{fill:rgb(82,139,255)}.f{fill:rgb(90,96,105);white-space:pre}.g{fill:rgb(0,128,128);font-weight:bold;white-space:pre}.h{fill:rgb(56,58,66);font-weight:bold;white-space:pre}.i{fill:rgb(56,58,66);white-space:pre}</style><g font-family="Consolas, &quot;Courier New&quot;, Courier, &quot;Liberation Mono&quot;, monospace" font-size="1.67" class="b"><defs><symbol id="1"><text x="0" y="1.67" class="c">├──────────────────────────────────────────────────────────────────────────┤</text></symbol><symbol id="2"><text x="0" y="1.67" class="c">│</text><text x="75.14999999999999" y="1.67" class="c">│</text></symbol><symbol id="a"><rect height="18" width="76" x="0" y="0" class="d"></rect></symbol><symbol id="b"><rect height="1.837" width="1.1022" class="e"></rect></symbol></defs><rect height="33.066" width="76" class="a"></rect><svg x="0" y="0" width="76"><svg x="0"><use xlink:href="#a"></use><use xlink:href="#b" x="75.996" y="25.543"></use><text x="0" y="1.67" class="c">╭──────────────────────────────────────────────────────────────────────────╮</text><text x="0" y="3.5069999999999997" class="c">│</text><text x="2.004" y="3.5069999999999997" class="f">Calendar</text><text x="11.021999999999998" y="3.5069999999999997" class="f">widget</text><text x="18.035999999999998" y="3.5069999999999997" class="f">›</text><text x="20.04" y="3.5069999999999997" class="f">Calendar</text><text x="75.14999999999999" y="3.5069999999999997" class="c">│</text><use xlink:href="#1" y="3.674"></use><use xlink:href="#2" y="5.511"></use><text x="0" y="9.018" class="c">│</text><text x="2.004" y="9.018" class="g">❯</text><text x="4.008" y="9.018" class="h">Harvest</text><text x="12.024" y="9.018" class="h">date</text><text x="27.054" y="9.018" class="g">July</text><text x="32.064" y="9.018" class="g">2026</text><text x="75.14999999999999" y="9.018" class="c">│</text><text x="0" y="10.855" class="c">│</text><text x="19.037999999999997" y="10.855" class="f">Mo</text><text x="23.045999999999996" y="10.855" class="f">Tu</text><text x="27.054" y="10.855" class="f">We</text><text x="31.061999999999998" y="10.855" class="f">Th</text><text x="35.06999999999999" y="10.855" class="f">Fr</text><text x="39.077999999999996" y="10.855" class="f">Sa</text><text x="43.086" y="10.855" class="f">Su</text><text x="75.14999999999999" y="10.855" class="c">│</text><text x="0" y="12.692" class="c">│</text><text x="28.055999999999997" y="12.692" class="i">1</text><text x="32.064" y="12.692" class="i">2</text><text x="36.071999999999996" y="12.692" class="i">3</text><text x="40.08" y="12.692" class="i">4</text><text x="44.087999999999994" y="12.692" class="i">5</text><text x="75.14999999999999" y="12.692" class="c">│</text><text x="0" y="14.529" class="c">│</text><text x="20.04" y="14.529" class="i">6</text><text x="24.048" y="14.529" class="i">7</text><text x="28.055999999999997" y="14.529" class="i">8</text><text x="32.064" y="14.529" class="i">9</text><text x="35.06999999999999" y="14.529" class="i">10</text><text x="39.077999999999996" y="14.529" class="i">11</text><text x="43.086" y="14.529" class="i">12</text><text x="75.14999999999999" y="14.529" class="c">│</text><text x="0" y="16.366" class="c">│</text><text x="19.037999999999997" y="16.366" class="i">13</text><text x="23.045999999999996" y="16.366" class="i">14</text><text x="26.052" y="16.366" class="g">[15]</text><text x="31.061999999999998" y="16.366" class="i">16</text><text x="35.06999999999999" y="16.366" class="i">17</text><text x="39.077999999999996" y="16.366" class="i">18</text><text x="43.086" y="16.366" class="i">19</text><text x="75.14999999999999" y="16.366" class="c">│</text><text x="0" y="18.203000000000003" class="c">│</text><text x="19.037999999999997" y="18.203000000000003" class="i">20</text><text x="23.045999999999996" y="18.203000000000003" class="i">21</text><text x="27.054" y="18.203000000000003" class="i">22</text><text x="31.061999999999998" y="18.203000000000003" class="i">23</text><text x="35.06999999999999" y="18.203000000000003" class="i">24</text><text x="39.077999999999996" y="18.203000000000003" class="i">25</text><text x="43.086" y="18.203000000000003" class="i">26</text><text x="75.14999999999999" y="18.203000000000003" class="c">│</text><text x="0" y="20.04" class="c">│</text><text x="19.037999999999997" y="20.04" class="i">27</text><text x="23.045999999999996" y="20.04" class="i">28</text><text x="27.054" y="20.04" class="i">29</text><text x="31.061999999999998" y="20.04" class="i">30</text><text x="35.06999999999999" y="20.04" class="i">31</text><text x="75.14999999999999" y="20.04" class="c">│</text><use xlink:href="#2" y="20.206999999999997"></use><use xlink:href="#1" y="22.044"></use><text x="0" y="25.551000000000002" class="c">│</text><text x="2.004" y="25.551000000000002" class="f">←/→</text><text x="6.012" y="25.551000000000002" class="f">day</text><text x="10.02" y="25.551000000000002" class="f">·</text><text x="12.024" y="25.551000000000002" class="f">↑/↓</text><text x="16.032" y="25.551000000000002" class="f">week</text><text x="21.041999999999998" y="25.551000000000002" class="f">·</text><text x="23.045999999999996" y="25.551000000000002" class="f">↵</text><text x="25.05" y="25.551000000000002" class="f">accept</text><text x="32.064" y="25.551000000000002" class="f">·</text><text x="34.068" y="25.551000000000002" class="f">esc</text><text x="38.07599999999999" y="25.551000000000002" class="f">cancel</text><text x="75.14999999999999" y="25.551000000000002" class="c">│</text><text x="0" y="27.387999999999998" class="c">╰──────────────────────────────────────────────────────────────────────────╯</text></svg></svg></g></svg></svg>