<svg xmlns="http://www.w3.org/2000/svg" xmlns:xlink="http://www.w3.org/1999/xlink" width="440" height="385.77000000000004"><rect width="440" height="385.77000000000004" rx="0" ry="0" class="a"></rect><svg height="385.77000000000004" viewBox="0 0 44 38.577000000000005" width="440" xmlns="http://www.w3.org/2000/svg" xmlns:xlink="http://www.w3.org/1999/xlink"><style>.a{fill:rgb(40,44,52)}.b{font-family:Consolas,"Courier New",Courier,"Liberation Mono",monospace}.c{fill:rgb(0,128,128);white-space:pre}.d{fill:transparent}.e{fill:rgb(128,128,128);white-space:pre}.f{fill:rgb(0,128,128);font-weight:bold;white-space:pre}.g{fill:rgb(171,178,191);font-weight:bold;white-space:pre}.h{fill:rgb(128,128,128);font-weight:bold;white-space:pre}.i{fill:rgb(0,128,0);white-space:pre}.j{fill:rgb(171,178,191);white-space:pre}</style><g font-family="Consolas, &quot;Courier New&quot;, Courier, &quot;Liberation Mono&quot;, monospace" font-size="1.67" class="b"><defs><symbol id="1"><text x="0" y="1.67" class="c">├──────────────────────────────────────────┤</text></symbol><symbol id="2"><text x="0" y="1.67" class="c">│</text><text x="43.086" y="1.67" class="c">│</text></symbol><symbol id="a"><rect height="21" width="44" x="0" y="0" class="d"></rect></symbol></defs><rect height="38.577000000000005" width="44" class="a"></rect><svg x="0" y="0" width="44"><svg x="0"><use xlink:href="#a"></use><text x="0" y="1.67" class="c">╭──────────────────────────────────────────╮</text><text x="0" y="3.5069999999999997" class="c">│</text><text x="2.004" y="3.5069999999999997" class="e">MultiSelect</text><text x="14.027999999999999" y="3.5069999999999997" class="e">with</text><text x="19.037999999999997" y="3.5069999999999997" class="e">groups</text><text x="26.052" y="3.5069999999999997" class="e">›</text><text x="28.055999999999997" y="3.5069999999999997" class="e">MultiSelect</text><text x="43.086" y="3.5069999999999997" class="c">│</text><use xlink:href="#1" y="3.674"></use><use xlink:href="#2" y="5.511"></use><text x="0" y="9.018" class="c">│</text><text x="2.004" y="9.018" class="f">❯</text><text x="4.008" y="9.018" class="g">Basket</text><text x="12.024" y="9.018" class="h">Fruit</text><text x="43.086" y="9.018" class="c">│</text><text x="0" y="10.855" class="c">│</text><text x="12.024" y="10.855" class="f">❯</text><text x="14.027999999999999" y="10.855" class="i">◼</text><text x="16.032" y="10.855" class="f">Apple</text><text x="43.086" y="10.855" class="c">│</text><text x="0" y="12.692" class="c">│</text><text x="14.027999999999999" y="12.692" class="j">◻</text><text x="16.032" y="12.692" class="j">Banana</text><text x="43.086" y="12.692" class="c">│</text><text x="0" y="14.529" class="c">│</text><text x="12.024" y="14.529" class="j">──────────────────────────────</text><text x="43.086" y="14.529" class="c">│</text><text x="0" y="16.366" class="c">│</text><text x="12.024" y="16.366" class="h">Vegetables</text><text x="43.086" y="16.366" class="c">│</text><text x="0" y="18.203000000000003" class="c">│</text><text x="14.027999999999999" y="18.203000000000003" class="j">◻</text><text x="16.032" y="18.203000000000003" class="j">Carrot</text><text x="43.086" y="18.203000000000003" class="c">│</text><text x="0" y="20.04" class="c">│</text><text x="14.027999999999999" y="20.04" class="j">◻</text><text x="16.032" y="20.04" class="j">Tomato</text><text x="43.086" y="20.04" class="c">│</text><text x="0" y="21.876999999999995" class="c">│</text><text x="14.027999999999999" y="21.876999999999995" class="j">◻</text><text x="16.032" y="21.876999999999995" class="e">Leek</text><text x="21.041999999999998" y="21.876999999999995" class="e">(out</text><text x="26.052" y="21.876999999999995" class="e">of</text><text x="29.058" y="21.876999999999995" class="e">season)</text><text x="43.086" y="21.876999999999995" class="c">│</text><use xlink:href="#2" y="22.044"></use><use xlink:href="#1" y="23.881000000000004"></use><text x="0" y="27.387999999999998" class="c">│</text><text x="2.004" y="27.387999999999998" class="e">↑/↓</text><text x="6.012" y="27.387999999999998" class="e">move</text><text x="11.021999999999998" y="27.387999999999998" class="e">·</text><text x="13.026" y="27.387999999999998" class="e">↵</text><text x="15.029999999999998" y="27.387999999999998" class="e">accept</text><text x="22.043999999999997" y="27.387999999999998" class="e">·</text><text x="24.048" y="27.387999999999998" class="e">esc</text><text x="28.055999999999997" y="27.387999999999998" class="e">cancel</text><text x="43.086" y="27.387999999999998" class="c">│</text><text x="0" y="29.225" class="c">╰──────────────────────────────────────────╯</text></svg></svg></g></svg></svg>