<svg xmlns="http://www.w3.org/2000/svg" xmlns:xlink="http://www.w3.org/1999/xlink" width="480" height="110.22"><rect width="480" height="110.22" rx="0" ry="0" class="a"></rect><svg height="110.22" viewBox="0 0 48 11.022" width="480" xmlns="http://www.w3.org/2000/svg" xmlns:xlink="http://www.w3.org/1999/xlink"><style>.a{fill:rgb(40,44,52)}.b{font-family:Consolas,"Courier New",Courier,"Liberation Mono",monospace}.c{fill:rgb(171,178,191);white-space:pre}.d{fill:transparent}.e{fill:rgb(82,139,255)}.g{animation-duration:11.438s;animation-iteration-count:infinite;animation-name:f;animation-timing-function:steps(1,end)}@keyframes f{0%{transform:translateX(-0px)}0%{transform:translateX(-48px)}12%{transform:translateX(-96px)}19.1%{transform:translateX(-144px)}26.2%{transform:translateX(-192px)}33.3%{transform:translateX(-240px)}40.4%{transform:translateX(-288px)}47.5%{transform:translateX(-336px)}54.6%{transform:translateX(-384px)}61.7%{transform:translateX(-432px)}68.9%{transform:translateX(-480px)}76%{transform:translateX(-528px)}100%{transform:translateX(-576px)}}</style><g font-family="Consolas, &quot;Courier New&quot;, Courier, &quot;Liberation Mono&quot;, monospace" font-size="1.67" class="b"><defs><symbol id="1"><text x="0" y="1.67" class="c">↑/↓</text><text x="4.008" y="1.67" class="c">move</text><text x="9.017999999999999" y="1.67" class="c">·</text><text x="11.021999999999998" y="1.67" class="c">↵</text><text x="13.026" y="1.67" class="c">select</text><text x="20.04" y="1.67" class="c">·</text><text x="22.043999999999997" y="1.67" class="c">esc</text><text x="26.052" y="1.67" class="c">back</text><text x="31.061999999999998" y="1.67" class="c">·</text><text x="33.065999999999995" y="1.67" class="c">q</text><text x="35.06999999999999" y="1.67" class="c">quit</text><text x="40.08" y="1.67" class="c">·</text><text x="42.083999999999996" y="1.67" class="c">?</text><text x="44.087999999999994" y="1.67" class="c">help</text></symbol><symbol id="2"><text x="0" y="1.67" class="c">Number</text><text x="7.013999999999999" y="1.67" class="c">widget</text><text x="14.027999999999999" y="1.67" class="c">›</text><text x="16.032" y="1.67" class="c">Number</text></symbol><symbol id="3"><text x="0" y="1.67" class="c">↵</text><text x="2.004" y="1.67" class="c">accept</text><text x="9.017999999999999" y="1.67" class="c">·</text><text x="11.021999999999998" y="1.67" class="c">esc</text><text x="15.029999999999998" y="1.67" class="c">cancel</text></symbol><symbol id="4"><text x="0" y="1.67" class="c">❯</text><text x="2.004" y="1.67" class="c">Number</text><text x="10.02" y="1.67" class="c">4200█</text></symbol><symbol id="a"><rect height="6" width="48" x="0" y="0" class="d"></rect></symbol><symbol id="b"><rect height="1.837" width="1.1022" class="e"></rect></symbol></defs><rect height="11.022" width="48" class="a"></rect><g class="g"><svg x="0" y="0" width="624"><svg x="0"><use xlink:href="#a"></use><use xlink:href="#b" x="-0.0040000000000000036" y="0"></use></svg><svg x="48"><use xlink:href="#a"></use><use xlink:href="#b" x="47.996" y="9.01"></use><text x="0" y="1.67" class="c">❯</text><text x="2.004" y="1.67" class="c">Number</text><text x="9.017999999999999" y="1.67" class="c">›</text><text x="4.008" y="3.5069999999999997" class="c">1200</text><text x="2.004" y="7.181" class="c">▼</text><use xlink:href="#1" y="9.185"></use></svg><svg x="96"><use xlink:href="#a"></use><use xlink:href="#b" x="47.996" y="5.336"></use><use xlink:href="#2" y="0"></use><text x="0" y="3.5069999999999997" class="c">❯</text><text x="2.004" y="3.5069999999999997" class="c">Number</text><text x="10.02" y="3.5069999999999997" class="c">1200</text><use xlink:href="#1" y="5.511"></use></svg><svg x="144"><use xlink:href="#a"></use><use xlink:href="#b" x="20.996" y="5.336"></use><use xlink:href="#2" y="0"></use><text x="0" y="3.5069999999999997" class="c">❯</text><text x="2.004" y="3.5069999999999997" class="c">Number</text><text x="10.02" y="3.5069999999999997" class="c">1200█</text><use xlink:href="#3" y="5.511"></use></svg><svg x="192"><use xlink:href="#a"></use><use xlink:href="#b" x="20.996" y="5.336"></use><use xlink:href="#2" y="0"></use><text x="0" y="3.5069999999999997" class="c">❯</text><text x="2.004" y="3.5069999999999997" class="c">Number</text><text x="10.02" y="3.5069999999999997" class="c">120█</text><use xlink:href="#3" y="5.511"></use></svg><svg x="240"><use xlink:href="#a"></use><use xlink:href="#b" x="20.996" y="5.336"></use><use xlink:href="#2" y="0"></use><text x="0" y="3.5069999999999997" class="c">❯</text><text x="2.004" y="3.5069999999999997" class="c">Number</text><text x="10.02" y="3.5069999999999997" class="c">12█</text><use xlink:href="#3" y="5.511"></use></svg><svg x="288"><use xlink:href="#a"></use><use xlink:href="#b" x="20.996" y="5.336"></use><use xlink:href="#2" y="0"></use><text x="0" y="3.5069999999999997" class="c">❯</text><text x="2.004" y="3.5069999999999997" class="c">Number</text><text x="10.02" y="3.5069999999999997" class="c">1█</text><use xlink:href="#3" y="5.511"></use></svg><svg x="336"><use xlink:href="#a"></use><use xlink:href="#b" x="20.996" y="5.336"></use><use xlink:href="#2" y="0"></use><text x="0" y="3.5069999999999997" class="c">❯</text><text x="2.004" y="3.5069999999999997" class="c">Number</text><text x="10.02" y="3.5069999999999997" class="c">█</text><use xlink:href="#3" y="5.511"></use></svg><svg x="384"><use xlink:href="#a"></use><use xlink:href="#b" x="20.996" y="5.336"></use><use xlink:href="#2" y="0"></use><text x="0" y="3.5069999999999997" class="c">❯</text><text x="2.004" y="3.5069999999999997" class="c">Number</text><text x="10.02" y="3.5069999999999997" class="c">4█</text><use xlink:href="#3" y="5.511"></use></svg><svg x="432"><use xlink:href="#a"></use><use xlink:href="#b" x="20.996" y="5.336"></use><use xlink:href="#2" y="0"></use><text x="0" y="3.5069999999999997" class="c">❯</text><text x="2.004" y="3.5069999999999997" class="c">Number</text><text x="10.02" y="3.5069999999999997" class="c">42█</text><use xlink:href="#3" y="5.511"></use></svg><svg x="480"><use xlink:href="#a"></use><use xlink:href="#b" x="20.996" y="5.336"></use><use xlink:href="#2" y="0"></use><text x="0" y="3.5069999999999997" class="c">❯</text><text x="2.004" y="3.5069999999999997" class="c">Number</text><text x="10.02" y="3.5069999999999997" class="c">420█</text><use xlink:href="#3" y="5.511"></use></svg><svg x="528"><use xlink:href="#a"></use><use xlink:href="#b" x="20.996" y="5.336"></use><use xlink:href="#2" y="0"></use><use xlink:href="#4" y="1.837"></use><use xlink:href="#3" y="5.511"></use></svg><svg x="576"><use xlink:href="#a"></use><use xlink:href="#b" x="21.996" y="5.336"></use><use xlink:href="#2" y="0"></use><use xlink:href="#4" y="1.837"></use><use xlink:href="#3" y="5.511"></use></svg></svg></g></g></svg></svg>