<svg xmlns="http://www.w3.org/2000/svg" xmlns:xlink="http://www.w3.org/1999/xlink" width="760" height="183.70000000000002"><rect width="760" height="183.70000000000002" rx="0" ry="0" class="a"></rect><svg height="183.70000000000002" viewBox="0 0 76 18.37" width="760" xmlns="http://www.w3.org/2000/svg" xmlns:xlink="http://www.w3.org/1999/xlink"><style>.a{fill:rgb(250,250,250)}.b{font-family:Consolas,"Courier New",Courier,"Liberation Mono",monospace}.c{fill:transparent}.d{fill:rgb(82,139,255)}.e{fill:rgb(56,58,66);white-space:pre}</style><g font-family="Consolas, &quot;Courier New&quot;, Courier, &quot;Liberation Mono&quot;, monospace" font-size="1.67" class="b"><defs><symbol id="a"><rect height="10" width="76" x="0" y="0" class="c"></rect></symbol><symbol id="b"><rect height="1.837" width="1.1022" class="d"></rect></symbol></defs><rect height="18.37" width="76" class="a"></rect><svg x="0" y="0" width="76"><svg x="0"><use xlink:href="#a"></use><use xlink:href="#b" x="75.996" y="14.520999999999999"></use><text x="0" y="1.67" class="e">Multi</text><text x="6.012" y="1.67" class="e">file</text><text x="11.021999999999998" y="1.67" class="e">picker</text><text x="0" y="3.5069999999999997" class="e">─────────────────</text><text x="0" y="5.343999999999999" class="e">filepicker-tree</text><text x="0" y="7.181" class="e">❯</text><text x="2.004" y="7.181" class="e">◻</text><text x="4.008" y="7.181" class="e">config/</text><text x="2.004" y="9.018" class="e">◻</text><text x="4.008" y="9.018" class="e">src/</text><text x="2.004" y="10.855" class="e">◻</text><text x="4.008" y="10.855" class="e">composer.json</text><text x="2.004" y="12.692" class="e">◻</text><text x="4.008" y="12.692" class="e">README.md</text><text x="0" y="16.366" class="e">space</text><text x="6.012" y="16.366" class="e">select</text><text x="13.026" y="16.366" class="e">·</text><text x="15.029999999999998" y="16.366" class="e">↑/↓</text><text x="19.037999999999997" y="16.366" class="e">move</text><text x="24.048" y="16.366" class="e">·</text><text x="26.052" y="16.366" class="e">→</text><text x="28.055999999999997" y="16.366" class="e">open</text><text x="33.065999999999995" y="16.366" class="e">·</text><text x="35.06999999999999" y="16.366" class="e">←</text><text x="37.074" y="16.366" class="e">up</text><text x="40.08" y="16.366" class="e">·</text><text x="42.083999999999996" y="16.366" class="e">↵</text><text x="44.087999999999994" y="16.366" class="e">accept</text><text x="51.102" y="16.366" class="e">·</text><text x="53.105999999999995" y="16.366" class="e">tab</text><text x="57.114" y="16.366" class="e">hidden</text><text x="64.128" y="16.366" class="e">·</text><text x="66.13199999999999" y="16.366" class="e">esc</text><text x="70.13999999999999" y="16.366" class="e">cancel</text></svg></svg></g></svg></svg>