<svg xmlns="http://www.w3.org/2000/svg" xmlns:xlink="http://www.w3.org/1999/xlink" width="480" height="110.22"><rect width="480" height="110.22" rx="0" ry="0" class="a"></rect><svg height="110.22" viewBox="0 0 48 11.022" width="480" xmlns="http://www.w3.org/2000/svg" xmlns:xlink="http://www.w3.org/1999/xlink"><style>.a{fill:rgb(250,250,250)}.b{font-family:Consolas,"Courier New",Courier,"Liberation Mono",monospace}.c{fill:rgb(90,96,105);white-space:pre}.d{fill:rgb(0,128,128);font-weight:bold;white-space:pre}.e{fill:rgb(56,58,66);white-space:pre}.f{fill:transparent}.g{fill:rgb(82,139,255)}.i{animation-duration:12.25s;animation-iteration-count:infinite;animation-name:h;animation-timing-function:steps(1,end)}.j{fill:rgb(56,58,66);font-weight:bold;white-space:pre}.k{fill:rgb(90,96,105);font-weight:bold;white-space:pre}.l{fill:rgb(0,128,0);font-weight:bold;white-space:pre}.m{fill:rgb(128,128,0);font-weight:bold;white-space:pre}@keyframes h{0%{transform:translateX(-0px)}0%{transform:translateX(-48px)}11.2%{transform:translateX(-96px)}17.9%{transform:translateX(-144px)}24.5%{transform:translateX(-192px)}31.1%{transform:translateX(-240px)}37.8%{transform:translateX(-288px)}44.4%{transform:translateX(-336px)}51%{transform:translateX(-384px)}57.7%{transform:translateX(-432px)}64.3%{transform:translateX(-480px)}70.9%{transform:translateX(-528px)}100%{transform:translateX(-576px)}}</style><g font-family="Consolas, &quot;Courier New&quot;, Courier, &quot;Liberation Mono&quot;, monospace" font-size="1.67" class="b"><defs><symbol id="1"><text x="0" y="1.67" class="c">↑/↓</text><text x="4.008" y="1.67" class="c">move</text><text x="9.017999999999999" y="1.67" class="c">·</text><text x="11.021999999999998" y="1.67" class="c">↵</text><text x="13.026" y="1.67" class="c">select</text><text x="20.04" y="1.67" class="c">·</text><text x="22.043999999999997" y="1.67" class="c">esc</text><text x="26.052" y="1.67" class="c">back</text><text x="31.061999999999998" y="1.67" class="c">·</text><text x="33.065999999999995" y="1.67" class="c">q</text><text x="35.06999999999999" y="1.67" class="c">quit</text><text x="40.08" y="1.67" class="c">·</text><text x="42.083999999999996" y="1.67" class="c">?</text><text x="44.087999999999994" y="1.67" class="c">help</text></symbol><symbol id="2"><text x="0" y="1.67" class="d">Text</text></symbol><symbol id="3"><text x="0" y="1.67" class="c">────</text></symbol><symbol id="4"><text x="0" y="1.67" class="c">↵</text><text x="2.004" y="1.67" class="c">accept</text><text x="9.017999999999999" y="1.67" class="c">·</text><text x="11.021999999999998" y="1.67" class="c">esc</text><text x="15.029999999999998" y="1.67" class="c">cancel</text></symbol><symbol id="5"><text x="0" y="1.67" class="e">Acme</text><text x="5.01" y="1.67" class="e">Corp</text><text x="9.017999999999999" y="1.67" class="d">█</text></symbol><symbol id="a"><rect height="6" width="48" x="0" y="0" class="f"></rect></symbol><symbol id="b"><rect height="1.837" width="1.1022" class="g"></rect></symbol></defs><rect height="11.022" width="48" class="a"></rect><g class="i"><svg x="0" y="0" width="624"><svg x="0"><use xlink:href="#a"></use><use xlink:href="#b" x="-0.0040000000000000036" y="0"></use></svg><svg x="48"><use xlink:href="#a"></use><use xlink:href="#b" x="47.996" y="9.01"></use><text x="0" y="1.67" class="d">❯</text><text x="2.004" y="1.67" class="j">Text</text><text x="7.013999999999999" y="1.67" class="k">›</text><text x="4.008" y="3.5069999999999997" class="l">Acme</text><text x="9.017999999999999" y="3.5069999999999997" class="l">Site</text><text x="2.004" y="7.181" class="m">▼</text><use xlink:href="#1" y="9.185"></use></svg><svg x="96"><use xlink:href="#a"></use><use xlink:href="#b" x="47.996" y="5.336"></use><text x="0" y="1.67" class="c">Text</text><text x="5.01" y="1.67" class="c">widget</text><text x="12.024" y="1.67" class="c">›</text><text x="14.027999999999999" y="1.67" class="c">Text</text><text x="0" y="3.5069999999999997" class="d">❯</text><text x="2.004" y="3.5069999999999997" class="j">Text</text><text x="8.016" y="3.5069999999999997" class="l">Acme</text><text x="13.026" y="3.5069999999999997" class="l">Site</text><use xlink:href="#1" y="5.511"></use></svg><svg x="144"><use xlink:href="#a"></use><use xlink:href="#b" x="20.996" y="7.173"></use><use xlink:href="#2" y="0"></use><use xlink:href="#3" y="1.837"></use><text x="0" y="5.343999999999999" class="e">Acme</text><text x="5.01" y="5.343999999999999" class="e">Site</text><text x="9.017999999999999" y="5.343999999999999" class="d">█</text><use xlink:href="#4" y="7.348"></use></svg><svg x="192"><use xlink:href="#a"></use><use xlink:href="#b" x="20.996" y="7.173"></use><use xlink:href="#2" y="0"></use><use xlink:href="#3" y="1.837"></use><text x="0" y="5.343999999999999" class="e">Acme</text><text x="5.01" y="5.343999999999999" class="e">Sit</text><text x="8.016" y="5.343999999999999" class="d">█</text><use xlink:href="#4" y="7.348"></use></svg><svg x="240"><use xlink:href="#a"></use><use xlink:href="#b" x="20.996" y="7.173"></use><use xlink:href="#2" y="0"></use><use xlink:href="#3" y="1.837"></use><text x="0" y="5.343999999999999" class="e">Acme</text><text x="5.01" y="5.343999999999999" class="e">Si</text><text x="7.013999999999999" y="5.343999999999999" class="d">█</text><use xlink:href="#4" y="7.348"></use></svg><svg x="288"><use xlink:href="#a"></use><use xlink:href="#b" x="20.996" y="7.173"></use><use xlink:href="#2" y="0"></use><use xlink:href="#3" y="1.837"></use><text x="0" y="5.343999999999999" class="e">Acme</text><text x="5.01" y="5.343999999999999" class="e">S</text><text x="6.012" y="5.343999999999999" class="d">█</text><use xlink:href="#4" y="7.348"></use></svg><svg x="336"><use xlink:href="#a"></use><use xlink:href="#b" x="20.996" y="7.173"></use><use xlink:href="#2" y="0"></use><use xlink:href="#3" y="1.837"></use><text x="0" y="5.343999999999999" class="e">Acme</text><text x="5.01" y="5.343999999999999" class="d">█</text><use xlink:href="#4" y="7.348"></use></svg><svg x="384"><use xlink:href="#a"></use><use xlink:href="#b" x="20.996" y="7.173"></use><use xlink:href="#2" y="0"></use><use xlink:href="#3" y="1.837"></use><text x="0" y="5.343999999999999" class="e">Acme</text><text x="5.01" y="5.343999999999999" class="e">C</text><text x="6.012" y="5.343999999999999" class="d">█</text><use xlink:href="#4" y="7.348"></use></svg><svg x="432"><use xlink:href="#a"></use><use xlink:href="#b" x="20.996" y="7.173"></use><use xlink:href="#2" y="0"></use><use xlink:href="#3" y="1.837"></use><text x="0" y="5.343999999999999" class="e">Acme</text><text x="5.01" y="5.343999999999999" class="e">Co</text><text x="7.013999999999999" y="5.343999999999999" class="d">█</text><use xlink:href="#4" y="7.348"></use></svg><svg x="480"><use xlink:href="#a"></use><use xlink:href="#b" x="20.996" y="7.173"></use><use xlink:href="#2" y="0"></use><use xlink:href="#3" y="1.837"></use><text x="0" y="5.343999999999999" class="e">Acme</text><text x="5.01" y="5.343999999999999" class="e">Cor</text><text x="8.016" y="5.343999999999999" class="d">█</text><use xlink:href="#4" y="7.348"></use></svg><svg x="528"><use xlink:href="#a"></use><use xlink:href="#b" x="20.996" y="7.173"></use><use xlink:href="#2" y="0"></use><use xlink:href="#3" y="1.837"></use><use xlink:href="#5" y="3.674"></use><use xlink:href="#4" y="7.348"></use></svg><svg x="576"><use xlink:href="#a"></use><use xlink:href="#b" x="21.996" y="7.173"></use><use xlink:href="#2" y="0"></use><use xlink:href="#3" y="1.837"></use><use xlink:href="#5" y="3.674"></use><use xlink:href="#4" y="7.348"></use></svg></svg></g></g></svg></svg>