<svg xmlns="http://www.w3.org/2000/svg" xmlns:xlink="http://www.w3.org/1999/xlink" width="320" height="146.96"><rect width="320" height="146.96" rx="0" ry="0" class="a"></rect><svg height="146.96" viewBox="0 0 32 14.696" width="320" xmlns="http://www.w3.org/2000/svg" xmlns:xlink="http://www.w3.org/1999/xlink"><style>.a{fill:rgb(250,250,250)}.b{font-family:Consolas,"Courier New",Courier,"Liberation Mono",monospace}.c{fill:transparent}.d{fill:rgb(82,139,255)}.e{fill:rgb(90,96,105);white-space:pre}.f{fill:rgb(0,128,128);font-weight:bold;white-space:pre}.g{fill:rgb(56,58,66);font-weight:bold;white-space:pre}.h{fill:rgb(56,58,66);white-space:pre}</style><g font-family="Consolas, &quot;Courier New&quot;, Courier, &quot;Liberation Mono&quot;, monospace" font-size="1.67" class="b"><defs><symbol id="a"><rect height="8" width="32" x="0" y="0" class="c"></rect></symbol><symbol id="b"><rect height="1.837" width="1.1022" class="d"></rect></symbol></defs><rect height="14.696" width="32" class="a"></rect><svg x="0" y="0" width="32"><svg x="0"><use xlink:href="#a"></use><use xlink:href="#b" x="31.996" y="9.01"></use><text x="0" y="1.67" class="e">Select</text><text x="7.013999999999999" y="1.67" class="e">widget</text><text x="14.027999999999999" y="1.67" class="e">›</text><text x="16.032" y="1.67" class="e">Select</text><text x="0" y="3.5069999999999997" class="f">❯</text><text x="2.004" y="3.5069999999999997" class="g">Select</text><text x="10.02" y="3.5069999999999997" class="f">●</text><text x="12.024" y="3.5069999999999997" class="f">Apple</text><text x="10.02" y="5.343999999999999" class="h">○</text><text x="12.024" y="5.343999999999999" class="h">Banana</text><text x="10.02" y="7.181" class="h">○</text><text x="12.024" y="7.181" class="h">Cherry</text><text x="0" y="10.855" class="e">↑/↓</text><text x="4.008" y="10.855" class="e">move</text><text x="9.017999999999999" y="10.855" class="e">·</text><text x="11.021999999999998" y="10.855" class="e">↵</text><text x="13.026" y="10.855" class="e">accept</text><text x="20.04" y="10.855" class="e">·</text><text x="22.043999999999997" y="10.855" class="e">esc</text><text x="26.052" y="10.855" class="e">cancel</text></svg></svg></g></svg></svg>