<svg xmlns="http://www.w3.org/2000/svg" xmlns:xlink="http://www.w3.org/1999/xlink" width="760" height="183.70000000000002"><rect width="760" height="183.70000000000002" rx="0" ry="0" class="a"></rect><svg height="183.70000000000002" viewBox="0 0 76 18.37" width="760" xmlns="http://www.w3.org/2000/svg" xmlns:xlink="http://www.w3.org/1999/xlink"><style>.a{fill:rgb(250,250,250)}.b{font-family:Consolas,"Courier New",Courier,"Liberation Mono",monospace}.c{fill:rgb(90,96,105);white-space:pre}.d{fill:rgb(0,128,128);font-weight:bold;white-space:pre}.e{fill:rgb(56,58,66);white-space:pre}.f{fill:rgb(0,128,0);white-space:pre}.g{fill:transparent}.h{fill:rgb(82,139,255)}.j{animation-duration:8.188s;animation-iteration-count:infinite;animation-name:i;animation-timing-function:steps(1,end)}.k{fill:rgb(56,58,66);font-weight:bold;white-space:pre}.l{fill:rgb(90,96,105);font-weight:bold;white-space:pre}@keyframes i{0%{transform:translateX(-0px)}0%{transform:translateX(-76px)}16.8%{transform:translateX(-152px)}26.7%{transform:translateX(-228px)}36.6%{transform:translateX(-304px)}46.6%{transform:translateX(-380px)}56.5%{transform:translateX(-456px)}100%{transform:translateX(-532px)}}</style><g font-family="Consolas, &quot;Courier New&quot;, Courier, &quot;Liberation Mono&quot;, monospace" font-size="1.67" class="b"><defs><symbol id="1"><text x="0" y="1.67" class="c">↑/↓</text><text x="4.008" y="1.67" class="c">move</text><text x="9.017999999999999" y="1.67" class="c">·</text><text x="11.021999999999998" y="1.67" class="c">↵</text><text x="13.026" y="1.67" class="c">select</text><text x="20.04" y="1.67" class="c">·</text><text x="22.043999999999997" y="1.67" class="c">esc</text><text x="26.052" y="1.67" class="c">back</text><text x="31.061999999999998" y="1.67" class="c">·</text><text x="33.065999999999995" y="1.67" class="c">q</text><text x="35.06999999999999" y="1.67" class="c">quit</text><text x="40.08" y="1.67" class="c">·</text><text x="42.083999999999996" y="1.67" class="c">?</text><text x="44.087999999999994" y="1.67" class="c">help</text></symbol><symbol id="2"><text x="0" y="1.67" class="d">Multi</text><text x="6.012" y="1.67" class="d">file</text><text x="11.021999999999998" y="1.67" class="d">picker</text></symbol><symbol id="3"><text x="0" y="1.67" class="c">─────────────────</text></symbol><symbol id="4"><text x="0" y="1.67" class="c">filepicker-tree</text></symbol><symbol id="5"><text x="2.004" y="1.67" class="e">◻</text><text x="4.008" y="1.67" class="e">src/</text></symbol><symbol id="6"><text x="2.004" y="1.67" class="e">◻</text><text x="4.008" y="1.67" class="e">composer.json</text></symbol><symbol id="7"><text x="2.004" y="1.67" class="e">◻</text><text x="4.008" y="1.67" class="e">README.md</text></symbol><symbol id="8"><text x="0" y="1.67" class="c">space</text><text x="6.012" y="1.67" class="c">select</text><text x="13.026" y="1.67" class="c">·</text><text x="15.029999999999998" y="1.67" class="c">↑/↓</text><text x="19.037999999999997" y="1.67" class="c">move</text><text x="24.048" y="1.67" class="c">·</text><text x="26.052" y="1.67" class="c">→</text><text x="28.055999999999997" y="1.67" class="c">open</text><text x="33.065999999999995" y="1.67" class="c">·</text><text x="35.06999999999999" y="1.67" class="c">←</text><text x="37.074" y="1.67" class="c">up</text><text x="40.08" y="1.67" class="c">·</text><text x="42.083999999999996" y="1.67" class="c">↵</text><text x="44.087999999999994" y="1.67" class="c">accept</text><text x="51.102" y="1.67" class="c">·</text><text x="53.105999999999995" y="1.67" class="c">tab</text><text x="57.114" y="1.67" class="c">hidden</text><text x="64.128" y="1.67" class="c">·</text><text x="66.13199999999999" y="1.67" class="c">esc</text><text x="70.13999999999999" y="1.67" class="c">cancel</text></symbol><symbol id="9"><text x="2.004" y="1.67" class="f">◼</text><text x="4.008" y="1.67" class="e">config/</text></symbol><symbol id="10"><text x="0" y="1.67" class="d">❯</text><text x="2.004" y="1.67" class="f">◼</text><text x="4.008" y="1.67" class="d">src/</text></symbol><symbol id="a"><rect height="10" width="76" x="0" y="0" class="g"></rect></symbol><symbol id="b"><rect height="1.837" width="1.1022" class="h"></rect></symbol></defs><rect height="18.37" width="76" class="a"></rect><g class="j"><svg x="0" y="0" width="608"><svg x="0"><use xlink:href="#a"></use><use xlink:href="#b" x="-0.0040000000000000036" y="0"></use></svg><svg x="76"><use xlink:href="#a"></use><use xlink:href="#b" x="47.996" y="9.01"></use><text x="0" y="1.67" class="c">Multi</text><text x="6.012" y="1.67" class="c">file</text><text x="11.021999999999998" y="1.67" class="c">picker</text><text x="18.035999999999998" y="1.67" class="c">widget</text><text x="0" y="3.5069999999999997" class="d">❯</text><text x="2.004" y="3.5069999999999997" class="k">Multi</text><text x="8.016" y="3.5069999999999997" class="k">file</text><text x="13.026" y="3.5069999999999997" class="k">picker</text><text x="20.04" y="3.5069999999999997" class="l">›</text><text x="2.004" y="7.181" class="f">[</text><text x="4.008" y="7.181" class="f">Submit</text><text x="11.021999999999998" y="7.181" class="f">]</text><text x="14.027999999999999" y="7.181" class="f">[</text><text x="16.032" y="7.181" class="f">Cancel</text><text x="23.045999999999996" y="7.181" class="f">]</text><use xlink:href="#1" y="9.185"></use></svg><svg x="152"><use xlink:href="#a"></use><use xlink:href="#b" x="47.996" y="5.336"></use><text x="0" y="1.67" class="c">Multi</text><text x="6.012" y="1.67" class="c">file</text><text x="11.021999999999998" y="1.67" class="c">picker</text><text x="18.035999999999998" y="1.67" class="c">widget</text><text x="25.05" y="1.67" class="c">›</text><text x="27.054" y="1.67" class="c">Multi</text><text x="33.065999999999995" y="1.67" class="c">file</text><text x="38.07599999999999" y="1.67" class="c">picker</text><text x="0" y="3.5069999999999997" class="d">❯</text><text x="2.004" y="3.5069999999999997" class="k">Multi</text><text x="8.016" y="3.5069999999999997" class="k">file</text><text x="13.026" y="3.5069999999999997" class="k">picker</text><use xlink:href="#1" y="5.511"></use></svg><svg x="228"><use xlink:href="#a"></use><use xlink:href="#b" x="75.996" y="14.520999999999999"></use><use xlink:href="#2" y="0"></use><use xlink:href="#3" y="1.837"></use><use xlink:href="#4" y="3.674"></use><text x="0" y="7.181" class="d">❯</text><text x="2.004" y="7.181" class="e">◻</text><text x="4.008" y="7.181" class="d">config/</text><use xlink:href="#5" y="7.348"></use><use xlink:href="#6" y="9.185"></use><use xlink:href="#7" y="11.022"></use><use xlink:href="#8" y="14.696"></use></svg><svg x="304"><use xlink:href="#a"></use><use xlink:href="#b" x="75.996" y="14.520999999999999"></use><use xlink:href="#2" y="0"></use><use xlink:href="#3" y="1.837"></use><use xlink:href="#4" y="3.674"></use><text x="0" y="7.181" class="d">❯</text><text x="2.004" y="7.181" class="f">◼</text><text x="4.008" y="7.181" class="d">config/</text><use xlink:href="#5" y="7.348"></use><use xlink:href="#6" y="9.185"></use><use xlink:href="#7" y="11.022"></use><use xlink:href="#8" y="14.696"></use></svg><svg x="380"><use xlink:href="#a"></use><use xlink:href="#b" x="75.996" y="14.520999999999999"></use><use xlink:href="#2" y="0"></use><use xlink:href="#3" y="1.837"></use><use xlink:href="#4" y="3.674"></use><use xlink:href="#9" y="5.511"></use><text x="0" y="9.018" class="d">❯</text><text x="2.004" y="9.018" class="e">◻</text><text x="4.008" y="9.018" class="d">src/</text><use xlink:href="#6" y="9.185"></use><use xlink:href="#7" y="11.022"></use><use xlink:href="#8" y="14.696"></use></svg><svg x="456"><use xlink:href="#a"></use><use xlink:href="#b" x="75.996" y="14.520999999999999"></use><use xlink:href="#2" y="0"></use><use xlink:href="#3" y="1.837"></use><use xlink:href="#4" y="3.674"></use><use xlink:href="#9" y="5.511"></use><use xlink:href="#10" y="7.348"></use><use xlink:href="#6" y="9.185"></use><use xlink:href="#7" y="11.022"></use><use xlink:href="#8" y="14.696"></use></svg><svg x="532"><use xlink:href="#a"></use><use xlink:href="#b" x="0.996" y="16.358"></use><use xlink:href="#2" y="0"></use><use xlink:href="#3" y="1.837"></use><use xlink:href="#4" y="3.674"></use><use xlink:href="#9" y="5.511"></use><use xlink:href="#10" y="7.348"></use><use xlink:href="#6" y="9.185"></use><use xlink:href="#7" y="11.022"></use><use xlink:href="#8" y="14.696"></use></svg></svg></g></g></svg></svg>