<svg xmlns="http://www.w3.org/2000/svg" xmlns:xlink="http://www.w3.org/1999/xlink" width="620" height="146.96"><rect width="620" height="146.96" rx="0" ry="0" class="a"></rect><svg height="146.96" viewBox="0 0 62 14.696" width="620" xmlns="http://www.w3.org/2000/svg" xmlns:xlink="http://www.w3.org/1999/xlink"><style>.a{fill:rgb(250,250,250)}.b{font-family:Consolas,"Courier New",Courier,"Liberation Mono",monospace}.c{fill:transparent}.d{fill:rgb(82,139,255)}.e{fill:rgb(90,96,105);white-space:pre}.f{fill:rgb(0,128,128);font-weight:bold;white-space:pre}.g{fill:rgb(56,58,66);font-weight:bold;white-space:pre}.h{fill:rgb(0,128,0);white-space:pre}.i{fill:rgb(56,58,66);white-space:pre}</style><g font-family="Consolas, &quot;Courier New&quot;, Courier, &quot;Liberation Mono&quot;, monospace" font-size="1.67" class="b"><defs><symbol id="a"><rect height="8" width="62" x="0" y="0" class="c"></rect></symbol><symbol id="b"><rect height="1.837" width="1.1022" class="d"></rect></symbol></defs><rect height="14.696" width="62" class="a"></rect><svg x="0" y="0" width="62"><svg x="0"><use xlink:href="#a"></use><use xlink:href="#b" x="61.996" y="9.01"></use><text x="0" y="1.67" class="e">MultiSelect</text><text x="12.024" y="1.67" class="e">widget</text><text x="19.037999999999997" y="1.67" class="e">&gt;</text><text x="21.041999999999998" y="1.67" class="e">MultiSelect</text><text x="0" y="3.5069999999999997" class="f">&gt;</text><text x="2.004" y="3.5069999999999997" class="g">MultiSelect</text><text x="15.029999999999998" y="3.5069999999999997" class="f">&gt;</text><text x="17.034" y="3.5069999999999997" class="h">[x]</text><text x="21.041999999999998" y="3.5069999999999997" class="f">Apple</text><text x="17.034" y="5.343999999999999" class="i">[</text><text x="19.037999999999997" y="5.343999999999999" class="i">]</text><text x="21.041999999999998" y="5.343999999999999" class="i">Carrot</text><text x="17.034" y="7.181" class="i">[</text><text x="19.037999999999997" y="7.181" class="i">]</text><text x="21.041999999999998" y="7.181" class="i">Tomato</text><text x="0" y="10.855" class="e">space</text><text x="6.012" y="10.855" class="e">select</text><text x="13.026" y="10.855" class="e">*</text><text x="15.029999999999998" y="10.855" class="e">^/v</text><text x="19.037999999999997" y="10.855" class="e">move</text><text x="24.048" y="10.855" class="e">*</text><text x="26.052" y="10.855" class="e">&lt;/&gt;</text><text x="30.059999999999995" y="10.855" class="e">none/all</text><text x="39.077999999999996" y="10.855" class="e">*</text><text x="41.082" y="10.855" class="e">&lt;</text><text x="43.086" y="10.855" class="e">accept</text><text x="50.1" y="10.855" class="e">*</text><text x="52.104" y="10.855" class="e">esc</text><text x="56.111999999999995" y="10.855" class="e">cancel</text></svg></svg></g></svg></svg>