<svg xmlns="http://www.w3.org/2000/svg" xmlns:xlink="http://www.w3.org/1999/xlink" width="600" height="257.18"><rect width="600" height="257.18" rx="0" ry="0" class="a"></rect><svg height="257.18" viewBox="0 0 60 25.718" width="600" xmlns="http://www.w3.org/2000/svg" xmlns:xlink="http://www.w3.org/1999/xlink"><style>.a{fill:rgb(40,44,52)}.b{font-family:Consolas,"Courier New",Courier,"Liberation Mono",monospace}.c{fill:rgb(0,128,128);font-weight:bold;white-space:pre}.d{fill:rgb(128,128,128);white-space:pre}.e{fill:rgb(171,178,191);white-space:pre}.f{fill:rgb(0,128,0);white-space:pre}.g{fill:transparent}.h{fill:rgb(82,139,255)}.j{animation-duration:33.597s;animation-iteration-count:infinite;animation-name:i;animation-timing-function:steps(1,end)}@keyframes i{0%{transform:translateX(-0px)}1.85%{transform:translateX(-60px)}5.42%{transform:translateX(-120px)}5.93%{transform:translateX(-180px)}6.33%{transform:translateX(-240px)}6.84%{transform:translateX(-300px)}7.27%{transform:translateX(-360px)}7.67%{transform:translateX(-420px)}8.07%{transform:translateX(-480px)}8.58%{transform:translateX(-540px)}11.53%{transform:translateX(-600px)}11.58%{transform:translateX(-660px)}11.65%{transform:translateX(-720px)}15.23%{transform:translateX(-780px)}15.73%{transform:translateX(-840px)}16.2%{transform:translateX(-900px)}16.69%{transform:translateX(-960px)}17.09%{transform:translateX(-1020px)}17.5%{transform:translateX(-1080px)}17.91%{transform:translateX(-1140px)}18.31%{transform:translateX(-1200px)}21.28%{transform:translateX(-1260px)}21.31%{transform:translateX(-1320px)}21.33%{transform:translateX(-1380px)}24.44%{transform:translateX(-1440px)}24.85%{transform:translateX(-1500px)}25.25%{transform:translateX(-1560px)}25.67%{transform:translateX(-1620px)}26.07%{transform:translateX(-1680px)}26.39%{transform:translateX(-1740px)}26.89%{transform:translateX(-1800px)}27.31%{transform:translateX(-1860px)}27.71%{transform:translateX(-1920px)}28.13%{transform:translateX(-1980px)}28.55%{transform:translateX(-2040px)}28.95%{transform:translateX(-2100px)}29.37%{transform:translateX(-2160px)}29.79%{transform:translateX(-2220px)}30.22%{transform:translateX(-2280px)}30.64%{transform:translateX(-2340px)}34.56%{transform:translateX(-2400px)}34.6%{transform:translateX(-2460px)}34.63%{transform:translateX(-2520px)}38.08%{transform:translateX(-2580px)}38.57%{transform:translateX(-2640px)}38.99%{transform:translateX(-2700px)}39.4%{transform:translateX(-2760px)}39.84%{transform:translateX(-2820px)}40.26%{transform:translateX(-2880px)}43.19%{transform:translateX(-2940px)}43.21%{transform:translateX(-3000px)}43.24%{transform:translateX(-3060px)}47.23%{transform:translateX(-3120px)}50.15%{transform:translateX(-3180px)}50.18%{transform:translateX(-3240px)}50.2%{transform:translateX(-3300px)}54.22%{transform:translateX(-3360px)}55.12%{transform:translateX(-3420px)}58.03%{transform:translateX(-3480px)}58.05%{transform:translateX(-3540px)}58.08%{transform:translateX(-3600px)}61.59%{transform:translateX(-3660px)}62.01%{transform:translateX(-3720px)}62.43%{transform:translateX(-3780px)}63.34%{transform:translateX(-3840px)}66.28%{transform:translateX(-3900px)}66.31%{transform:translateX(-3960px)}66.37%{transform:translateX(-4020px)}69.73%{transform:translateX(-4080px)}70.25%{transform:translateX(-4140px)}70.69%{transform:translateX(-4200px)}73.65%{transform:translateX(-4260px)}73.67%{transform:translateX(-4320px)}73.7%{transform:translateX(-4380px)}77.2%{transform:translateX(-4440px)}77.62%{transform:translateX(-4500px)}78.55%{transform:translateX(-4560px)}81.48%{transform:translateX(-4620px)}81.51%{transform:translateX(-4680px)}81.53%{transform:translateX(-4740px)}84.91%{transform:translateX(-4800px)}87.89%{transform:translateX(-4860px)}87.92%{transform:translateX(-4920px)}87.95%{transform:translateX(-4980px)}91.07%{transform:translateX(-5040px)}100%{transform:translateX(-5100px)}}</style><g font-family="Consolas, &quot;Courier New&quot;, Courier, &quot;Liberation Mono&quot;, monospace" font-size="1.67" class="b"><defs><symbol id="1"><text x="0" y="1.67" class="c">Text</text><text x="5.01" y="1.67" class="c">widget</text></symbol><symbol id="2"><text x="0" y="1.67" class="d">───────────</text></symbol><symbol id="3"><text x="0" y="1.67" class="d">edit</text><text x="5.01" y="1.67" class="d">·</text><text x="7.013999999999999" y="1.67" class="d">Enter</text><text x="13.026" y="1.67" class="d">accept</text><text x="20.04" y="1.67" class="d">·</text><text x="22.043999999999997" y="1.67" class="d">Esc</text><text x="26.052" y="1.67" class="d">cancel</text></symbol><symbol id="4"><text x="0" y="1.67" class="e">Text:</text><text x="6.012" y="1.67" class="e">&quot;Acme</text><text x="12.024" y="1.67" class="e">Corp&quot;</text></symbol><symbol id="5"><text x="0" y="1.67" class="c">Number</text><text x="7.013999999999999" y="1.67" class="c">widget</text></symbol><symbol id="6"><text x="0" y="1.67" class="d">─────────────</text></symbol><symbol id="7"><text x="0" y="1.67" class="c">█</text></symbol><symbol id="8"><text x="0" y="1.67" class="e">Number:</text><text x="8.016" y="1.67" class="e">3000</text></symbol><symbol id="9"><text x="0" y="1.67" class="c">Textarea</text><text x="9.017999999999999" y="1.67" class="c">widget</text></symbol><symbol id="10"><text x="0" y="1.67" class="d">───────────────</text></symbol><symbol id="11"><text x="0" y="1.67" class="d">edit</text><text x="5.01" y="1.67" class="d">·</text><text x="7.013999999999999" y="1.67" class="d">Tab</text><text x="11.021999999999998" y="1.67" class="d">accept</text><text x="18.035999999999998" y="1.67" class="d">·</text><text x="20.04" y="1.67" class="d">Esc</text><text x="24.048" y="1.67" class="d">cancel</text></symbol><symbol id="12"><text x="0" y="1.67" class="e">Redis</text><text x="6.012" y="1.67" class="e">for</text><text x="10.02" y="1.67" class="e">cache</text></symbol><symbol id="13"><text x="0" y="1.67" class="d">enter</text><text x="6.012" y="1.67" class="d">newline</text><text x="14.027999999999999" y="1.67" class="d">·</text><text x="16.032" y="1.67" class="d">tab</text><text x="20.04" y="1.67" class="d">accept</text></symbol><symbol id="14"><text x="0" y="1.67" class="e">Solr</text><text x="5.01" y="1.67" class="e">for</text><text x="9.017999999999999" y="1.67" class="e">search</text></symbol><symbol id="15"><text x="0" y="1.67" class="e">Textarea:</text><text x="10.02" y="1.67" class="e">&quot;Redis</text><text x="17.034" y="1.67" class="e">for</text><text x="21.041999999999998" y="1.67" class="e">cache\nSolr</text><text x="33.065999999999995" y="1.67" class="e">for</text><text x="37.074" y="1.67" class="e">search\nClamAV</text><text x="52.104" y="1.67" class="e">for</text><text x="56.111999999999995" y="1.67" class="e">mail</text></symbol><symbol id="16"><text x="0" y="1.67" class="e">&quot;</text></symbol><symbol id="17"><text x="0" y="1.67" class="c">Password</text><text x="9.017999999999999" y="1.67" class="c">widget</text></symbol><symbol id="18"><text x="0" y="1.67" class="e">Password:</text><text x="10.02" y="1.67" class="e">&quot;hunter2s3cret&quot;</text></symbol><symbol id="19"><text x="0" y="1.67" class="c">Select</text><text x="7.013999999999999" y="1.67" class="c">widget</text></symbol><symbol id="20"><text x="0" y="1.67" class="e">○</text><text x="2.004" y="1.67" class="e">Standard</text></symbol><symbol id="21"><text x="0" y="1.67" class="e">Select:</text><text x="8.016" y="1.67" class="e">&quot;demo_umami&quot;</text></symbol><symbol id="22"><text x="0" y="1.67" class="c">MultiSelect</text><text x="12.024" y="1.67" class="c">widget</text></symbol><symbol id="23"><text x="0" y="1.67" class="d">──────────────────</text></symbol><symbol id="24"><text x="0" y="1.67" class="c">❯</text><text x="2.004" y="1.67" class="f">◼</text><text x="4.008" y="1.67" class="c">Redis</text></symbol><symbol id="25"><text x="2.004" y="1.67" class="e">◻</text><text x="4.008" y="1.67" class="e">Solr</text></symbol><symbol id="26"><text x="2.004" y="1.67" class="e">◻</text><text x="4.008" y="1.67" class="e">ClamAV</text></symbol><symbol id="27"><text x="2.004" y="1.67" class="f">◼</text><text x="4.008" y="1.67" class="e">Redis</text></symbol><symbol id="28"><text x="0" y="1.67" class="e">MultiSelect:</text><text x="13.026" y="1.67" class="e">[&quot;redis&quot;,&quot;solr&quot;]</text></symbol><symbol id="29"><text x="0" y="1.67" class="c">Suggest</text><text x="8.016" y="1.67" class="c">widget</text></symbol><symbol id="30"><text x="0" y="1.67" class="d">──────────────</text></symbol><symbol id="31"><text x="2.004" y="1.67" class="e">Europe/London</text></symbol><symbol id="32"><text x="2.004" y="1.67" class="e">Europe/Paris</text></symbol><symbol id="33"><text x="2.004" y="1.67" class="e">Australia/Sydney</text></symbol><symbol id="34"><text x="0" y="1.67" class="e">Eur</text><text x="3.006" y="1.67" class="c">█</text></symbol><symbol id="35"><text x="0" y="1.67" class="e">Suggest:</text><text x="9.017999999999999" y="1.67" class="e">&quot;Europe\/London&quot;</text></symbol><symbol id="36"><text x="0" y="1.67" class="c">Search</text><text x="7.013999999999999" y="1.67" class="c">widget</text></symbol><symbol id="37"><text x="0" y="1.67" class="c">●</text><text x="2.004" y="1.67" class="c">Europe/London</text></symbol><symbol id="38"><text x="0" y="1.67" class="e">○</text><text x="2.004" y="1.67" class="e">Europe/Paris</text></symbol><symbol id="39"><text x="0" y="1.67" class="c">●</text><text x="2.004" y="1.67" class="c">Europe/Paris</text></symbol><symbol id="40"><text x="0" y="1.67" class="e">Search:</text><text x="8.016" y="1.67" class="e">&quot;paris&quot;</text></symbol><symbol id="41"><text x="0" y="1.67" class="c">MultiSearch</text><text x="12.024" y="1.67" class="c">widget</text></symbol><symbol id="42"><text x="2.004" y="1.67" class="e">◻</text><text x="4.008" y="1.67" class="e">Memcached</text></symbol><symbol id="43"><text x="0" y="1.67" class="c">❯</text><text x="2.004" y="1.67" class="e">◻</text><text x="4.008" y="1.67" class="c">ClamAV</text></symbol><symbol id="44"><text x="0" y="1.67" class="e">cl</text><text x="2.004" y="1.67" class="c">█</text></symbol><symbol id="45"><text x="0" y="1.67" class="e">MultiSearch:</text><text x="13.026" y="1.67" class="e">[&quot;redis&quot;,&quot;clamav&quot;]</text></symbol><symbol id="46"><text x="0" y="1.67" class="c">Confirm</text><text x="8.016" y="1.67" class="c">widget</text></symbol><symbol id="47"><text x="0" y="1.67" class="e">Confirm:</text><text x="9.017999999999999" y="1.67" class="e">false</text></symbol><symbol id="48"><text x="0" y="1.67" class="e">Pause:</text><text x="7.013999999999999" y="1.67" class="e">true</text></symbol><symbol id="a"><rect height="14" width="60" x="0" y="0" class="g"></rect></symbol><symbol id="b"><rect height="1.837" width="1.1022" class="h"></rect></symbol></defs><rect height="25.718" width="60" class="a"></rect><g class="j"><svg x="0" y="0" width="5160"><svg x="0"><use xlink:href="#a"></use><use xlink:href="#b" x="-0.0040000000000000036" y="0"></use></svg><svg x="60"><use xlink:href="#a"></use><use xlink:href="#1" y="0"></use><use xlink:href="#2" y="1.837"></use><use xlink:href="#3" y="3.674"></use><text x="0" y="9.018" class="e">Acme</text><text x="5.01" y="9.018" class="e">Site</text><text x="9.017999999999999" y="9.018" class="c">█</text></svg><svg x="120"><use xlink:href="#a"></use><use xlink:href="#1" y="0"></use><use xlink:href="#2" y="1.837"></use><use xlink:href="#3" y="3.674"></use><text x="0" y="9.018" class="e">Acme</text><text x="5.01" y="9.018" class="e">Sit</text><text x="8.016" y="9.018" class="c">█</text></svg><svg x="180"><use xlink:href="#a"></use><use xlink:href="#1" y="0"></use><use xlink:href="#2" y="1.837"></use><use xlink:href="#3" y="3.674"></use><text x="0" y="9.018" class="e">Acme</text><text x="5.01" y="9.018" class="e">Si</text><text x="7.013999999999999" y="9.018" class="c">█</text></svg><svg x="240"><use xlink:href="#a"></use><use xlink:href="#1" y="0"></use><use xlink:href="#2" y="1.837"></use><use xlink:href="#3" y="3.674"></use><text x="0" y="9.018" class="e">Acme</text><text x="5.01" y="9.018" class="e">S</text><text x="6.012" y="9.018" class="c">█</text></svg><svg x="300"><use xlink:href="#a"></use><use xlink:href="#1" y="0"></use><use xlink:href="#2" y="1.837"></use><use xlink:href="#3" y="3.674"></use><text x="0" y="9.018" class="e">Acme</text><text x="5.01" y="9.018" class="c">█</text></svg><svg x="360"><use xlink:href="#a"></use><use xlink:href="#1" y="0"></use><use xlink:href="#2" y="1.837"></use><use xlink:href="#3" y="3.674"></use><text x="0" y="9.018" class="e">Acme</text><text x="5.01" y="9.018" class="e">C</text><text x="6.012" y="9.018" class="c">█</text></svg><svg x="420"><use xlink:href="#a"></use><use xlink:href="#1" y="0"></use><use xlink:href="#2" y="1.837"></use><use xlink:href="#3" y="3.674"></use><text x="0" y="9.018" class="e">Acme</text><text x="5.01" y="9.018" class="e">Co</text><text x="7.013999999999999" y="9.018" class="c">█</text></svg><svg x="480"><use xlink:href="#a"></use><use xlink:href="#1" y="0"></use><use xlink:href="#2" y="1.837"></use><use xlink:href="#3" y="3.674"></use><text x="0" y="9.018" class="e">Acme</text><text x="5.01" y="9.018" class="e">Cor</text><text x="8.016" y="9.018" class="c">█</text></svg><svg x="540"><use xlink:href="#a"></use><use xlink:href="#1" y="0"></use><use xlink:href="#2" y="1.837"></use><use xlink:href="#3" y="3.674"></use><text x="0" y="9.018" class="e">Acme</text><text x="5.01" y="9.018" class="e">Corp</text><text x="9.017999999999999" y="9.018" class="c">█</text></svg><svg x="600"><use xlink:href="#a"></use><use xlink:href="#b" x="-0.0040000000000000036" y="0"></use></svg><svg x="660"><use xlink:href="#a"></use><use xlink:href="#b" x="-0.0040000000000000036" y="1.662"></use><use xlink:href="#4" y="0"></use></svg><svg x="720"><use xlink:href="#a"></use><use xlink:href="#5" y="0"></use><use xlink:href="#6" y="1.837"></use><use xlink:href="#3" y="3.674"></use><text x="0" y="9.018" class="e">8080</text><text x="4.008" y="9.018" class="c">█</text></svg><svg x="780"><use xlink:href="#a"></use><use xlink:href="#5" y="0"></use><use xlink:href="#6" y="1.837"></use><use xlink:href="#3" y="3.674"></use><text x="0" y="9.018" class="e">808</text><text x="3.006" y="9.018" class="c">█</text></svg><svg x="840"><use xlink:href="#a"></use><use xlink:href="#5" y="0"></use><use xlink:href="#6" y="1.837"></use><use xlink:href="#3" y="3.674"></use><text x="0" y="9.018" class="e">80</text><text x="2.004" y="9.018" class="c">█</text></svg><svg x="900"><use xlink:href="#a"></use><use xlink:href="#5" y="0"></use><use xlink:href="#6" y="1.837"></use><use xlink:href="#3" y="3.674"></use><text x="0" y="9.018" class="e">8</text><text x="1.002" y="9.018" class="c">█</text></svg><svg x="960"><use xlink:href="#a"></use><use xlink:href="#5" y="0"></use><use xlink:href="#6" y="1.837"></use><use xlink:href="#3" y="3.674"></use><use xlink:href="#7" y="7.348"></use></svg><svg x="1020"><use xlink:href="#a"></use><use xlink:href="#5" y="0"></use><use xlink:href="#6" y="1.837"></use><use xlink:href="#3" y="3.674"></use><text x="0" y="9.018" class="e">3</text><text x="1.002" y="9.018" class="c">█</text></svg><svg x="1080"><use xlink:href="#a"></use><use xlink:href="#5" y="0"></use><use xlink:href="#6" y="1.837"></use><use xlink:href="#3" y="3.674"></use><text x="0" y="9.018" class="e">30</text><text x="2.004" y="9.018" class="c">█</text></svg><svg x="1140"><use xlink:href="#a"></use><use xlink:href="#5" y="0"></use><use xlink:href="#6" y="1.837"></use><use xlink:href="#3" y="3.674"></use><text x="0" y="9.018" class="e">300</text><text x="3.006" y="9.018" class="c">█</text></svg><svg x="1200"><use xlink:href="#a"></use><use xlink:href="#5" y="0"></use><use xlink:href="#6" y="1.837"></use><use xlink:href="#3" y="3.674"></use><text x="0" y="9.018" class="e">3000</text><text x="4.008" y="9.018" class="c">█</text></svg><svg x="1260"><use xlink:href="#a"></use><use xlink:href="#b" x="-0.0040000000000000036" y="1.662"></use><use xlink:href="#4" y="0"></use></svg><svg x="1320"><use xlink:href="#a"></use><use xlink:href="#b" x="-0.0040000000000000036" y="3.499"></use><use xlink:href="#4" y="0"></use><use xlink:href="#8" y="1.837"></use></svg><svg x="1380"><use xlink:href="#a"></use><use xlink:href="#9" y="0"></use><use xlink:href="#10" y="1.837"></use><use xlink:href="#11" y="3.674"></use><use xlink:href="#12" y="7.348"></use><text x="0" y="10.855" class="e">Solr</text><text x="5.01" y="10.855" class="e">for</text><text x="9.017999999999999" y="10.855" class="e">search</text><text x="15.029999999999998" y="10.855" class="c">█</text><use xlink:href="#13" y="11.022"></use></svg><svg x="1440"><use xlink:href="#a"></use><use xlink:href="#9" y="0"></use><use xlink:href="#10" y="1.837"></use><use xlink:href="#11" y="3.674"></use><use xlink:href="#12" y="7.348"></use><use xlink:href="#14" y="9.185"></use><use xlink:href="#7" y="11.022"></use><use xlink:href="#13" y="12.859"></use></svg><svg x="1500"><use xlink:href="#a"></use><use xlink:href="#9" y="0"></use><use xlink:href="#10" y="1.837"></use><use xlink:href="#11" y="3.674"></use><use xlink:href="#12" y="7.348"></use><use xlink:href="#14" y="9.185"></use><text x="0" y="12.692" class="e">C</text><text x="1.002" y="12.692" class="c">█</text><use xlink:href="#13" y="12.859"></use></svg><svg x="1560"><use xlink:href="#a"></use><use xlink:href="#9" y="0"></use><use xlink:href="#10" y="1.837"></use><use xlink:href="#11" y="3.674"></use><use xlink:href="#12" y="7.348"></use><use xlink:href="#14" y="9.185"></use><text x="0" y="12.692" class="e">Cl</text><text x="2.004" y="12.692" class="c">█</text><use xlink:href="#13" y="12.859"></use></svg><svg x="1620"><use xlink:href="#a"></use><use xlink:href="#9" y="0"></use><use xlink:href="#10" y="1.837"></use><use xlink:href="#11" y="3.674"></use><use xlink:href="#12" y="7.348"></use><use xlink:href="#14" y="9.185"></use><text x="0" y="12.692" class="e">Cla</text><text x="3.006" y="12.692" class="c">█</text><use xlink:href="#13" y="12.859"></use></svg><svg x="1680"><use xlink:href="#a"></use><use xlink:href="#9" y="0"></use><use xlink:href="#10" y="1.837"></use><use xlink:href="#11" y="3.674"></use><use xlink:href="#12" y="7.348"></use><use xlink:href="#14" y="9.185"></use><text x="0" y="12.692" class="e">Clam</text><text x="4.008" y="12.692" class="c">█</text><use xlink:href="#13" y="12.859"></use></svg><svg x="1740"><use xlink:href="#a"></use><use xlink:href="#9" y="0"></use><use xlink:href="#10" y="1.837"></use><use xlink:href="#11" y="3.674"></use><use xlink:href="#12" y="7.348"></use><use xlink:href="#14" y="9.185"></use><text x="0" y="12.692" class="e">ClamA</text><text x="5.01" y="12.692" class="c">█</text><use xlink:href="#13" y="12.859"></use></svg><svg x="1800"><use xlink:href="#a"></use><use xlink:href="#9" y="0"></use><use xlink:href="#10" y="1.837"></use><use xlink:href="#11" y="3.674"></use><use xlink:href="#12" y="7.348"></use><use xlink:href="#14" y="9.185"></use><text x="0" y="12.692" class="e">ClamAV</text><text x="6.012" y="12.692" class="c">█</text><use xlink:href="#13" y="12.859"></use></svg><svg x="1860"><use xlink:href="#a"></use><use xlink:href="#9" y="0"></use><use xlink:href="#10" y="1.837"></use><use xlink:href="#11" y="3.674"></use><use xlink:href="#12" y="7.348"></use><use xlink:href="#14" y="9.185"></use><text x="0" y="12.692" class="e">ClamAV</text><text x="7.013999999999999" y="12.692" class="c">█</text><use xlink:href="#13" y="12.859"></use></svg><svg x="1920"><use xlink:href="#a"></use><use xlink:href="#9" y="0"></use><use xlink:href="#10" y="1.837"></use><use xlink:href="#11" y="3.674"></use><use xlink:href="#12" y="7.348"></use><use xlink:href="#14" y="9.185"></use><text x="0" y="12.692" class="e">ClamAV</text><text x="7.013999999999999" y="12.692" class="e">f</text><text x="8.016" y="12.692" class="c">█</text><use xlink:href="#13" y="12.859"></use></svg><svg x="1980"><use xlink:href="#a"></use><use xlink:href="#9" y="0"></use><use xlink:href="#10" y="1.837"></use><use xlink:href="#11" y="3.674"></use><use xlink:href="#12" y="7.348"></use><use xlink:href="#14" y="9.185"></use><text x="0" y="12.692" class="e">ClamAV</text><text x="7.013999999999999" y="12.692" class="e">fo</text><text x="9.017999999999999" y="12.692" class="c">█</text><use xlink:href="#13" y="12.859"></use></svg><svg x="2040"><use xlink:href="#a"></use><use xlink:href="#9" y="0"></use><use xlink:href="#10" y="1.837"></use><use xlink:href="#11" y="3.674"></use><use xlink:href="#12" y="7.348"></use><use xlink:href="#14" y="9.185"></use><text x="0" y="12.692" class="e">ClamAV</text><text x="7.013999999999999" y="12.692" class="e">for</text><text x="10.02" y="12.692" class="c">█</text><use xlink:href="#13" y="12.859"></use></svg><svg x="2100"><use xlink:href="#a"></use><use xlink:href="#9" y="0"></use><use xlink:href="#10" y="1.837"></use><use xlink:href="#11" y="3.674"></use><use xlink:href="#12" y="7.348"></use><use xlink:href="#14" y="9.185"></use><text x="0" y="12.692" class="e">ClamAV</text><text x="7.013999999999999" y="12.692" class="e">for</text><text x="11.021999999999998" y="12.692" class="c">█</text><use xlink:href="#13" y="12.859"></use></svg><svg x="2160"><use xlink:href="#a"></use><use xlink:href="#9" y="0"></use><use xlink:href="#10" y="1.837"></use><use xlink:href="#11" y="3.674"></use><use xlink:href="#12" y="7.348"></use><use xlink:href="#14" y="9.185"></use><text x="0" y="12.692" class="e">ClamAV</text><text x="7.013999999999999" y="12.692" class="e">for</text><text x="11.021999999999998" y="12.692" class="e">m</text><text x="12.024" y="12.692" class="c">█</text><use xlink:href="#13" y="12.859"></use></svg><svg x="2220"><use xlink:href="#a"></use><use xlink:href="#9" y="0"></use><use xlink:href="#10" y="1.837"></use><use xlink:href="#11" y="3.674"></use><use xlink:href="#12" y="7.348"></use><use xlink:href="#14" y="9.185"></use><text x="0" y="12.692" class="e">ClamAV</text><text x="7.013999999999999" y="12.692" class="e">for</text><text x="11.021999999999998" y="12.692" class="e">ma</text><text x="13.026" y="12.692" class="c">█</text><use xlink:href="#13" y="12.859"></use></svg><svg x="2280"><use xlink:href="#a"></use><use xlink:href="#9" y="0"></use><use xlink:href="#10" y="1.837"></use><use xlink:href="#11" y="3.674"></use><use xlink:href="#12" y="7.348"></use><use xlink:href="#14" y="9.185"></use><text x="0" y="12.692" class="e">ClamAV</text><text x="7.013999999999999" y="12.692" class="e">for</text><text x="11.021999999999998" y="12.692" class="e">mai</text><text x="14.027999999999999" y="12.692" class="c">█</text><use xlink:href="#13" y="12.859"></use></svg><svg x="2340"><use xlink:href="#a"></use><use xlink:href="#9" y="0"></use><use xlink:href="#10" y="1.837"></use><use xlink:href="#11" y="3.674"></use><use xlink:href="#12" y="7.348"></use><use xlink:href="#14" y="9.185"></use><text x="0" y="12.692" class="e">ClamAV</text><text x="7.013999999999999" y="12.692" class="e">for</text><text x="11.021999999999998" y="12.692" class="e">mail</text><text x="15.029999999999998" y="12.692" class="c">█</text><use xlink:href="#13" y="12.859"></use></svg><svg x="2400"><use xlink:href="#a"></use><use xlink:href="#b" x="-0.0040000000000000036" y="3.499"></use><use xlink:href="#4" y="0"></use><use xlink:href="#8" y="1.837"></use></svg><svg x="2460"><use xlink:href="#a"></use><use xlink:href="#b" x="-0.0040000000000000036" y="7.173"></use><use xlink:href="#4" y="0"></use><use xlink:href="#8" y="1.837"></use><use xlink:href="#15" y="3.674"></use><use xlink:href="#16" y="5.511"></use></svg><svg x="2520"><use xlink:href="#a"></use><use xlink:href="#17" y="0"></use><use xlink:href="#10" y="1.837"></use><use xlink:href="#3" y="3.674"></use><text x="0" y="9.018" class="e">•••••••</text><text x="7.013999999999999" y="9.018" class="c">█</text></svg><svg x="2580"><use xlink:href="#a"></use><use xlink:href="#17" y="0"></use><use xlink:href="#10" y="1.837"></use><use xlink:href="#3" y="3.674"></use><text x="0" y="9.018" class="e">••••••••</text><text x="8.016" y="9.018" class="c">█</text></svg><svg x="2640"><use xlink:href="#a"></use><use xlink:href="#17" y="0"></use><use xlink:href="#10" y="1.837"></use><use xlink:href="#3" y="3.674"></use><text x="0" y="9.018" class="e">•••••••••</text><text x="9.017999999999999" y="9.018" class="c">█</text></svg><svg x="2700"><use xlink:href="#a"></use><use xlink:href="#17" y="0"></use><use xlink:href="#10" y="1.837"></use><use xlink:href="#3" y="3.674"></use><text x="0" y="9.018" class="e">••••••••••</text><text x="10.02" y="9.018" class="c">█</text></svg><svg x="2760"><use xlink:href="#a"></use><use xlink:href="#17" y="0"></use><use xlink:href="#10" y="1.837"></use><use xlink:href="#3" y="3.674"></use><text x="0" y="9.018" class="e">•••••••••••</text><text x="11.021999999999998" y="9.018" class="c">█</text></svg><svg x="2820"><use xlink:href="#a"></use><use xlink:href="#17" y="0"></use><use xlink:href="#10" y="1.837"></use><use xlink:href="#3" y="3.674"></use><text x="0" y="9.018" class="e">••••••••••••</text><text x="12.024" y="9.018" class="c">█</text></svg><svg x="2880"><use xlink:href="#a"></use><use xlink:href="#17" y="0"></use><use xlink:href="#10" y="1.837"></use><use xlink:href="#3" y="3.674"></use><text x="0" y="9.018" class="e">•••••••••••••</text><text x="13.026" y="9.018" class="c">█</text></svg><svg x="2940"><use xlink:href="#a"></use><use xlink:href="#b" x="-0.0040000000000000036" y="7.173"></use><use xlink:href="#4" y="0"></use><use xlink:href="#8" y="1.837"></use><use xlink:href="#15" y="3.674"></use><use xlink:href="#16" y="5.511"></use></svg><svg x="3000"><use xlink:href="#a"></use><use xlink:href="#b" x="-0.0040000000000000036" y="9.01"></use><use xlink:href="#4" y="0"></use><use xlink:href="#8" y="1.837"></use><use xlink:href="#15" y="3.674"></use><use xlink:href="#16" y="5.511"></use><use xlink:href="#18" y="7.348"></use></svg><svg x="3060"><use xlink:href="#a"></use><use xlink:href="#19" y="0"></use><use xlink:href="#6" y="1.837"></use><use xlink:href="#3" y="3.674"></use><use xlink:href="#20" y="7.348"></use><text x="0" y="10.855" class="c">●</text><text x="2.004" y="10.855" class="c">Minimal</text><text x="0" y="12.692" class="e">○</text><text x="2.004" y="12.692" class="e">Demo</text><text x="7.013999999999999" y="12.692" class="e">Umami</text></svg><svg x="3120"><use xlink:href="#a"></use><use xlink:href="#19" y="0"></use><use xlink:href="#6" y="1.837"></use><use xlink:href="#3" y="3.674"></use><use xlink:href="#20" y="7.348"></use><text x="0" y="10.855" class="e">○</text><text x="2.004" y="10.855" class="e">Minimal</text><text x="0" y="12.692" class="c">●</text><text x="2.004" y="12.692" class="c">Demo</text><text x="7.013999999999999" y="12.692" class="c">Umami</text></svg><svg x="3180"><use xlink:href="#a"></use><use xlink:href="#b" x="-0.0040000000000000036" y="9.01"></use><use xlink:href="#4" y="0"></use><use xlink:href="#8" y="1.837"></use><use xlink:href="#15" y="3.674"></use><use xlink:href="#16" y="5.511"></use><use xlink:href="#18" y="7.348"></use></svg><svg x="3240"><use xlink:href="#a"></use><use xlink:href="#b" x="-0.0040000000000000036" y="10.847"></use><use xlink:href="#4" y="0"></use><use xlink:href="#8" y="1.837"></use><use xlink:href="#15" y="3.674"></use><use xlink:href="#16" y="5.511"></use><use xlink:href="#18" y="7.348"></use><use xlink:href="#21" y="9.185"></use></svg><svg x="3300"><use xlink:href="#a"></use><use xlink:href="#22" y="0"></use><use xlink:href="#23" y="1.837"></use><use xlink:href="#3" y="3.674"></use><use xlink:href="#24" y="7.348"></use><use xlink:href="#25" y="9.185"></use><use xlink:href="#26" y="11.022"></use></svg><svg x="3360"><use xlink:href="#a"></use><use xlink:href="#22" y="0"></use><use xlink:href="#23" y="1.837"></use><use xlink:href="#3" y="3.674"></use><use xlink:href="#27" y="7.348"></use><text x="0" y="10.855" class="c">❯</text><text x="2.004" y="10.855" class="e">◻</text><text x="4.008" y="10.855" class="c">Solr</text><use xlink:href="#26" y="11.022"></use></svg><svg x="3420"><use xlink:href="#a"></use><use xlink:href="#22" y="0"></use><use xlink:href="#23" y="1.837"></use><use xlink:href="#3" y="3.674"></use><use xlink:href="#27" y="7.348"></use><text x="0" y="10.855" class="c">❯</text><text x="2.004" y="10.855" class="f">◼</text><text x="4.008" y="10.855" class="c">Solr</text><use xlink:href="#26" y="11.022"></use></svg><svg x="3480"><use xlink:href="#a"></use><use xlink:href="#b" x="-0.0040000000000000036" y="10.847"></use><use xlink:href="#4" y="0"></use><use xlink:href="#8" y="1.837"></use><use xlink:href="#15" y="3.674"></use><use xlink:href="#16" y="5.511"></use><use xlink:href="#18" y="7.348"></use><use xlink:href="#21" y="9.185"></use></svg><svg x="3540"><use xlink:href="#a"></use><use xlink:href="#b" x="-0.0040000000000000036" y="12.684"></use><use xlink:href="#4" y="0"></use><use xlink:href="#8" y="1.837"></use><use xlink:href="#15" y="3.674"></use><use xlink:href="#16" y="5.511"></use><use xlink:href="#18" y="7.348"></use><use xlink:href="#21" y="9.185"></use><use xlink:href="#28" y="11.022"></use></svg><svg x="3600"><use xlink:href="#a"></use><use xlink:href="#29" y="0"></use><use xlink:href="#30" y="1.837"></use><use xlink:href="#3" y="3.674"></use><use xlink:href="#7" y="7.348"></use><text x="2.004" y="10.855" class="e">UTC</text><use xlink:href="#31" y="11.022"></use><use xlink:href="#32" y="12.859"></use><use xlink:href="#33" y="14.696"></use></svg><svg x="3660"><use xlink:href="#a"></use><use xlink:href="#29" y="0"></use><use xlink:href="#30" y="1.837"></use><use xlink:href="#3" y="3.674"></use><text x="0" y="9.018" class="e">E</text><text x="1.002" y="9.018" class="c">█</text><use xlink:href="#31" y="9.185"></use><use xlink:href="#32" y="11.022"></use><use xlink:href="#33" y="12.859"></use></svg><svg x="3720"><use xlink:href="#a"></use><use xlink:href="#29" y="0"></use><use xlink:href="#30" y="1.837"></use><use xlink:href="#3" y="3.674"></use><text x="0" y="9.018" class="e">Eu</text><text x="2.004" y="9.018" class="c">█</text><use xlink:href="#31" y="9.185"></use><use xlink:href="#32" y="11.022"></use></svg><svg x="3780"><use xlink:href="#a"></use><use xlink:href="#29" y="0"></use><use xlink:href="#30" y="1.837"></use><use xlink:href="#3" y="3.674"></use><use xlink:href="#34" y="7.348"></use><use xlink:href="#31" y="9.185"></use><use xlink:href="#32" y="11.022"></use></svg><svg x="3840"><use xlink:href="#a"></use><use xlink:href="#29" y="0"></use><use xlink:href="#30" y="1.837"></use><use xlink:href="#3" y="3.674"></use><use xlink:href="#34" y="7.348"></use><text x="0" y="10.855" class="c">❯</text><text x="2.004" y="10.855" class="c">Europe/London</text><use xlink:href="#32" y="11.022"></use></svg><svg x="3900"><use xlink:href="#a"></use><use xlink:href="#b" x="-0.0040000000000000036" y="12.684"></use><use xlink:href="#4" y="0"></use><use xlink:href="#8" y="1.837"></use><use xlink:href="#15" y="3.674"></use><use xlink:href="#16" y="5.511"></use><use xlink:href="#18" y="7.348"></use><use xlink:href="#21" y="9.185"></use><use xlink:href="#28" y="11.022"></use></svg><svg x="3960"><use xlink:href="#a"></use><use xlink:href="#b" x="-0.0040000000000000036" y="14.520999999999999"></use><use xlink:href="#4" y="0"></use><use xlink:href="#8" y="1.837"></use><use xlink:href="#15" y="3.674"></use><use xlink:href="#16" y="5.511"></use><use xlink:href="#18" y="7.348"></use><use xlink:href="#21" y="9.185"></use><use xlink:href="#28" y="11.022"></use><use xlink:href="#35" y="12.859"></use></svg><svg x="4020"><use xlink:href="#a"></use><use xlink:href="#36" y="0"></use><use xlink:href="#6" y="1.837"></use><use xlink:href="#3" y="3.674"></use><use xlink:href="#7" y="7.348"></use><text x="0" y="10.855" class="e">○</text><text x="2.004" y="10.855" class="e">UTC</text><use xlink:href="#37" y="11.022"></use><use xlink:href="#38" y="12.859"></use><text x="0" y="16.366" class="e">○</text><text x="2.004" y="16.366" class="e">Australia/Sydney</text></svg><svg x="4080"><use xlink:href="#a"></use><use xlink:href="#36" y="0"></use><use xlink:href="#6" y="1.837"></use><use xlink:href="#3" y="3.674"></use><text x="0" y="9.018" class="e">p</text><text x="1.002" y="9.018" class="c">█</text><use xlink:href="#37" y="9.185"></use><use xlink:href="#38" y="11.022"></use></svg><svg x="4140"><use xlink:href="#a"></use><use xlink:href="#36" y="0"></use><use xlink:href="#6" y="1.837"></use><use xlink:href="#3" y="3.674"></use><text x="0" y="9.018" class="e">pa</text><text x="2.004" y="9.018" class="c">█</text><use xlink:href="#39" y="9.185"></use></svg><svg x="4200"><use xlink:href="#a"></use><use xlink:href="#36" y="0"></use><use xlink:href="#6" y="1.837"></use><use xlink:href="#3" y="3.674"></use><text x="0" y="9.018" class="e">par</text><text x="3.006" y="9.018" class="c">█</text><use xlink:href="#39" y="9.185"></use></svg><svg x="4260"><use xlink:href="#a"></use><use xlink:href="#b" x="-0.0040000000000000036" y="14.520999999999999"></use><use xlink:href="#4" y="0"></use><use xlink:href="#8" y="1.837"></use><use xlink:href="#15" y="3.674"></use><use xlink:href="#16" y="5.511"></use><use xlink:href="#18" y="7.348"></use><use xlink:href="#21" y="9.185"></use><use xlink:href="#28" y="11.022"></use><use xlink:href="#35" y="12.859"></use></svg><svg x="4320"><use xlink:href="#a"></use><use xlink:href="#b" x="-0.0040000000000000036" y="16.358"></use><use xlink:href="#4" y="0"></use><use xlink:href="#8" y="1.837"></use><use xlink:href="#15" y="3.674"></use><use xlink:href="#16" y="5.511"></use><use xlink:href="#18" y="7.348"></use><use xlink:href="#21" y="9.185"></use><use xlink:href="#28" y="11.022"></use><use xlink:href="#35" y="12.859"></use><use xlink:href="#40" y="14.696"></use></svg><svg x="4380"><use xlink:href="#a"></use><use xlink:href="#41" y="0"></use><use xlink:href="#23" y="1.837"></use><use xlink:href="#3" y="3.674"></use><use xlink:href="#7" y="7.348"></use><use xlink:href="#24" y="9.185"></use><use xlink:href="#25" y="11.022"></use><use xlink:href="#26" y="12.859"></use><use xlink:href="#42" y="14.696"></use></svg><svg x="4440"><use xlink:href="#a"></use><use xlink:href="#41" y="0"></use><use xlink:href="#23" y="1.837"></use><use xlink:href="#3" y="3.674"></use><text x="0" y="9.018" class="e">c</text><text x="1.002" y="9.018" class="c">█</text><use xlink:href="#43" y="9.185"></use><use xlink:href="#42" y="11.022"></use></svg><svg x="4500"><use xlink:href="#a"></use><use xlink:href="#41" y="0"></use><use xlink:href="#23" y="1.837"></use><use xlink:href="#3" y="3.674"></use><use xlink:href="#44" y="7.348"></use><use xlink:href="#43" y="9.185"></use></svg><svg x="4560"><use xlink:href="#a"></use><use xlink:href="#41" y="0"></use><use xlink:href="#23" y="1.837"></use><use xlink:href="#3" y="3.674"></use><use xlink:href="#44" y="7.348"></use><text x="0" y="10.855" class="c">❯</text><text x="2.004" y="10.855" class="f">◼</text><text x="4.008" y="10.855" class="c">ClamAV</text></svg><svg x="4620"><use xlink:href="#a"></use><use xlink:href="#b" x="-0.0040000000000000036" y="16.358"></use><use xlink:href="#4" y="0"></use><use xlink:href="#8" y="1.837"></use><use xlink:href="#15" y="3.674"></use><use xlink:href="#16" y="5.511"></use><use xlink:href="#18" y="7.348"></use><use xlink:href="#21" y="9.185"></use><use xlink:href="#28" y="11.022"></use><use xlink:href="#35" y="12.859"></use><use xlink:href="#40" y="14.696"></use></svg><svg x="4680"><use xlink:href="#a"></use><use xlink:href="#b" x="-0.0040000000000000036" y="18.195"></use><use xlink:href="#4" y="0"></use><use xlink:href="#8" y="1.837"></use><use xlink:href="#15" y="3.674"></use><use xlink:href="#16" y="5.511"></use><use xlink:href="#18" y="7.348"></use><use xlink:href="#21" y="9.185"></use><use xlink:href="#28" y="11.022"></use><use xlink:href="#35" y="12.859"></use><use xlink:href="#40" y="14.696"></use><use xlink:href="#45" y="16.533"></use></svg><svg x="4740"><use xlink:href="#a"></use><use xlink:href="#46" y="0"></use><use xlink:href="#30" y="1.837"></use><use xlink:href="#3" y="3.674"></use><text x="0" y="9.018" class="c">●</text><text x="2.004" y="9.018" class="c">Yes</text><text x="7.013999999999999" y="9.018" class="e">○</text><text x="9.017999999999999" y="9.018" class="e">No</text></svg><svg x="4800"><use xlink:href="#a"></use><use xlink:href="#46" y="0"></use><use xlink:href="#30" y="1.837"></use><use xlink:href="#3" y="3.674"></use><text x="0" y="9.018" class="e">○</text><text x="2.004" y="9.018" class="e">Yes</text><text x="7.013999999999999" y="9.018" class="c">●</text><text x="9.017999999999999" y="9.018" class="c">No</text></svg><svg x="4860"><use xlink:href="#a"></use><use xlink:href="#b" x="-0.0040000000000000036" y="18.195"></use><use xlink:href="#4" y="0"></use><use xlink:href="#8" y="1.837"></use><use xlink:href="#15" y="3.674"></use><use xlink:href="#16" y="5.511"></use><use xlink:href="#18" y="7.348"></use><use xlink:href="#21" y="9.185"></use><use xlink:href="#28" y="11.022"></use><use xlink:href="#35" y="12.859"></use><use xlink:href="#40" y="14.696"></use><use xlink:href="#45" y="16.533"></use></svg><svg x="4920"><use xlink:href="#a"></use><use xlink:href="#b" x="-0.0040000000000000036" y="20.031999999999996"></use><use xlink:href="#4" y="0"></use><use xlink:href="#8" y="1.837"></use><use xlink:href="#15" y="3.674"></use><use xlink:href="#16" y="5.511"></use><use xlink:href="#18" y="7.348"></use><use xlink:href="#21" y="9.185"></use><use xlink:href="#28" y="11.022"></use><use xlink:href="#35" y="12.859"></use><use xlink:href="#40" y="14.696"></use><use xlink:href="#45" y="16.533"></use><use xlink:href="#47" y="18.37"></use></svg><svg x="4980"><use xlink:href="#a"></use><text x="0" y="1.67" class="c">Pause</text><text x="6.012" y="1.67" class="c">widget</text><text x="0" y="3.5069999999999997" class="d">────────────</text><text x="0" y="5.343999999999999" class="d">Enter</text><text x="6.012" y="5.343999999999999" class="d">continue</text><text x="15.029999999999998" y="5.343999999999999" class="d">·</text><text x="17.034" y="5.343999999999999" class="d">Esc</text><text x="21.041999999999998" y="5.343999999999999" class="d">cancel</text><text x="0" y="9.018" class="c">↵</text><text x="2.004" y="9.018" class="e">Press</text><text x="8.016" y="9.018" class="e">Enter</text><text x="14.027999999999999" y="9.018" class="e">to</text><text x="17.034" y="9.018" class="e">continue</text></svg><svg x="5040"><use xlink:href="#a"></use><use xlink:href="#b" x="-0.0040000000000000036" y="21.869"></use><use xlink:href="#4" y="0"></use><use xlink:href="#8" y="1.837"></use><use xlink:href="#15" y="3.674"></use><use xlink:href="#16" y="5.511"></use><use xlink:href="#18" y="7.348"></use><use xlink:href="#21" y="9.185"></use><use xlink:href="#28" y="11.022"></use><use xlink:href="#35" y="12.859"></use><use xlink:href="#40" y="14.696"></use><use xlink:href="#45" y="16.533"></use><use xlink:href="#47" y="18.37"></use><use xlink:href="#48" y="20.206999999999997"></use></svg><svg x="5100"><use xlink:href="#a"></use><use xlink:href="#b" x="0.996" y="21.869"></use><use xlink:href="#4" y="0"></use><use xlink:href="#8" y="1.837"></use><use xlink:href="#15" y="3.674"></use><use xlink:href="#16" y="5.511"></use><use xlink:href="#18" y="7.348"></use><use xlink:href="#21" y="9.185"></use><use xlink:href="#28" y="11.022"></use><use xlink:href="#35" y="12.859"></use><use xlink:href="#40" y="14.696"></use><use xlink:href="#45" y="16.533"></use><use xlink:href="#47" y="18.37"></use><use xlink:href="#48" y="20.206999999999997"></use></svg></svg></g></g></svg></svg>