<svg xmlns="http://www.w3.org/2000/svg" xmlns:xlink="http://www.w3.org/1999/xlink" width="600" height="257.18"><rect width="600" height="257.18" rx="0" ry="0" class="a"></rect><svg height="257.18" viewBox="0 0 60 25.718" width="600" xmlns="http://www.w3.org/2000/svg" xmlns:xlink="http://www.w3.org/1999/xlink"><style>.a{fill:rgb(40,44,52)}.b{font-family:Consolas,"Courier New",Courier,"Liberation Mono",monospace}.c{fill:rgb(171,178,191);white-space:pre}.d{fill:transparent}.e{fill:rgb(82,139,255)}.g{animation-duration:47.711s;animation-iteration-count:infinite;animation-name:f;animation-timing-function:steps(1,end)}@keyframes f{0%{transform:translateX(-0px)}0.29%{transform:translateX(-60px)}3.51%{transform:translateX(-120px)}3.97%{transform:translateX(-180px)}4.43%{transform:translateX(-240px)}4.88%{transform:translateX(-300px)}5.27%{transform:translateX(-360px)}5.65%{transform:translateX(-420px)}5.96%{transform:translateX(-480px)}6.41%{transform:translateX(-540px)}9.01%{transform:translateX(-600px)}9.04%{transform:translateX(-660px)}9.06%{transform:translateX(-720px)}12.26%{transform:translateX(-780px)}12.72%{transform:translateX(-840px)}13.18%{transform:translateX(-900px)}13.64%{transform:translateX(-960px)}14.02%{transform:translateX(-1020px)}14.33%{transform:translateX(-1080px)}14.71%{transform:translateX(-1140px)}15.17%{transform:translateX(-1200px)}17.73%{transform:translateX(-1260px)}17.76%{transform:translateX(-1320px)}17.78%{transform:translateX(-1380px)}17.78%{transform:translateX(-1440px)}21.37%{transform:translateX(-1500px)}23.97%{transform:translateX(-1560px)}23.99%{transform:translateX(-1620px)}24.01%{transform:translateX(-1680px)}26.77%{transform:translateX(-1740px)}27.08%{transform:translateX(-1800px)}27.47%{transform:translateX(-1860px)}27.86%{transform:translateX(-1920px)}28.24%{transform:translateX(-1980px)}28.62%{transform:translateX(-2040px)}28.92%{transform:translateX(-2100px)}29.39%{transform:translateX(-2160px)}29.77%{transform:translateX(-2220px)}30.15%{transform:translateX(-2280px)}30.53%{transform:translateX(-2340px)}30.91%{transform:translateX(-2400px)}31.29%{transform:translateX(-2460px)}31.68%{transform:translateX(-2520px)}32.06%{transform:translateX(-2580px)}32.44%{transform:translateX(-2640px)}35.89%{transform:translateX(-2700px)}35.92%{transform:translateX(-2760px)}35.94%{transform:translateX(-2820px)}39.09%{transform:translateX(-2880px)}39.47%{transform:translateX(-2940px)}39.85%{transform:translateX(-3000px)}40.23%{transform:translateX(-3060px)}40.62%{transform:translateX(-3120px)}40.92%{transform:translateX(-3180px)}43.6%{transform:translateX(-3240px)}43.62%{transform:translateX(-3300px)}43.64%{transform:translateX(-3360px)}47.23%{transform:translateX(-3420px)}49.83%{transform:translateX(-3480px)}49.85%{transform:translateX(-3540px)}49.88%{transform:translateX(-3600px)}53.46%{transform:translateX(-3660px)}54.31%{transform:translateX(-3720px)}56.9%{transform:translateX(-3780px)}56.93%{transform:translateX(-3840px)}56.95%{transform:translateX(-3900px)}60.08%{transform:translateX(-3960px)}60.39%{transform:translateX(-4020px)}60.84%{transform:translateX(-4080px)}61.68%{transform:translateX(-4140px)}64.28%{transform:translateX(-4200px)}64.3%{transform:translateX(-4260px)}64.33%{transform:translateX(-4320px)}67.46%{transform:translateX(-4380px)}67.84%{transform:translateX(-4440px)}68.22%{transform:translateX(-4500px)}70.82%{transform:translateX(-4560px)}70.85%{transform:translateX(-4620px)}70.88%{transform:translateX(-4680px)}74.02%{transform:translateX(-4740px)}74.4%{transform:translateX(-4800px)}75.24%{transform:translateX(-4860px)}77.84%{transform:translateX(-4920px)}77.86%{transform:translateX(-4980px)}77.89%{transform:translateX(-5040px)}81.02%{transform:translateX(-5100px)}83.61%{transform:translateX(-5160px)}83.64%{transform:translateX(-5220px)}83.66%{transform:translateX(-5280px)}86.79%{transform:translateX(-5340px)}89.39%{transform:translateX(-5400px)}89.41%{transform:translateX(-5460px)}89.44%{transform:translateX(-5520px)}92.14%{transform:translateX(-5580px)}100%{transform:translateX(-5640px)}}</style><g font-family="Consolas, &quot;Courier New&quot;, Courier, &quot;Liberation Mono&quot;, monospace" font-size="1.67" class="b"><defs><symbol id="1"><text x="0" y="1.67" class="c">Text</text><text x="5.01" y="1.67" class="c">widget</text></symbol><symbol id="2"><text x="0" y="1.67" class="c">-----------</text></symbol><symbol id="3"><text x="0" y="1.67" class="c">edit</text><text x="5.01" y="1.67" class="c">*</text><text x="7.013999999999999" y="1.67" class="c">Enter</text><text x="13.026" y="1.67" class="c">accept</text><text x="20.04" y="1.67" class="c">*</text><text x="22.043999999999997" y="1.67" class="c">Esc</text><text x="26.052" y="1.67" class="c">cancel</text></symbol><symbol id="4"><text x="0" y="1.67" class="c">Text:</text><text x="6.012" y="1.67" class="c">&quot;Acme</text><text x="12.024" y="1.67" class="c">Corp&quot;</text></symbol><symbol id="5"><text x="0" y="1.67" class="c">Number</text><text x="7.013999999999999" y="1.67" class="c">widget</text></symbol><symbol id="6"><text x="0" y="1.67" class="c">-------------</text></symbol><symbol id="7"><text x="0" y="1.67" class="c">|</text></symbol><symbol id="8"><text x="0" y="1.67" class="c">Number:</text><text x="8.016" y="1.67" class="c">3000</text></symbol><symbol id="9"><text x="0" y="1.67" class="c">Date</text><text x="5.01" y="1.67" class="c">widget</text></symbol><symbol id="10"><text x="9.017999999999999" y="1.67" class="c">July</text><text x="14.027999999999999" y="1.67" class="c">2026</text></symbol><symbol id="11"><text x="1.002" y="1.67" class="c">Mo</text><text x="5.01" y="1.67" class="c">Tu</text><text x="9.017999999999999" y="1.67" class="c">We</text><text x="13.026" y="1.67" class="c">Th</text><text x="17.034" y="1.67" class="c">Fr</text><text x="21.041999999999998" y="1.67" class="c">Sa</text><text x="25.05" y="1.67" class="c">Su</text></symbol><symbol id="12"><text x="10.02" y="1.67" class="c">1</text><text x="14.027999999999999" y="1.67" class="c">2</text><text x="18.035999999999998" y="1.67" class="c">3</text><text x="22.043999999999997" y="1.67" class="c">4</text><text x="26.052" y="1.67" class="c">5</text></symbol><symbol id="13"><text x="2.004" y="1.67" class="c">6</text><text x="6.012" y="1.67" class="c">7</text><text x="10.02" y="1.67" class="c">8</text><text x="14.027999999999999" y="1.67" class="c">9</text><text x="17.034" y="1.67" class="c">10</text><text x="21.041999999999998" y="1.67" class="c">11</text><text x="25.05" y="1.67" class="c">12</text></symbol><symbol id="14"><text x="1.002" y="1.67" class="c">27</text><text x="5.01" y="1.67" class="c">28</text><text x="9.017999999999999" y="1.67" class="c">29</text><text x="13.026" y="1.67" class="c">30</text><text x="17.034" y="1.67" class="c">31</text></symbol><symbol id="15"><text x="0" y="1.67" class="c">&lt;/&gt;</text><text x="4.008" y="1.67" class="c">day</text><text x="8.016" y="1.67" class="c">*</text><text x="10.02" y="1.67" class="c">^/v</text><text x="14.027999999999999" y="1.67" class="c">week</text><text x="19.037999999999997" y="1.67" class="c">*</text><text x="21.041999999999998" y="1.67" class="c">PgUp/PgDn</text><text x="31.061999999999998" y="1.67" class="c">month</text><text x="37.074" y="1.67" class="c">*</text><text x="39.077999999999996" y="1.67" class="c">&lt;</text><text x="41.082" y="1.67" class="c">accept</text><text x="48.096" y="1.67" class="c">*</text><text x="50.1" y="1.67" class="c">esc</text><text x="54.108" y="1.67" class="c">cancel</text></symbol><symbol id="16"><text x="0" y="1.67" class="c">Date:</text><text x="6.012" y="1.67" class="c">&quot;2026-07-22&quot;</text></symbol><symbol id="17"><text x="0" y="1.67" class="c">Textarea</text><text x="9.017999999999999" y="1.67" class="c">widget</text></symbol><symbol id="18"><text x="0" y="1.67" class="c">---------------</text></symbol><symbol id="19"><text x="0" y="1.67" class="c">Redis</text><text x="6.012" y="1.67" class="c">for</text><text x="10.02" y="1.67" class="c">cache</text></symbol><symbol id="20"><text x="0" y="1.67" class="c">enter</text><text x="6.012" y="1.67" class="c">newline</text><text x="14.027999999999999" y="1.67" class="c">*</text><text x="16.032" y="1.67" class="c">tab</text><text x="20.04" y="1.67" class="c">accept</text></symbol><symbol id="21"><text x="0" y="1.67" class="c">Solr</text><text x="5.01" y="1.67" class="c">for</text><text x="9.017999999999999" y="1.67" class="c">search</text></symbol><symbol id="22"><text x="0" y="1.67" class="c">Textarea:</text><text x="10.02" y="1.67" class="c">&quot;Redis</text><text x="17.034" y="1.67" class="c">for</text><text x="21.041999999999998" y="1.67" class="c">cache\nSolr</text><text x="33.065999999999995" y="1.67" class="c">for</text><text x="37.074" y="1.67" class="c">search\nClamAV</text><text x="52.104" y="1.67" class="c">for</text><text x="56.111999999999995" y="1.67" class="c">mail</text></symbol><symbol id="23"><text x="0" y="1.67" class="c">&quot;</text></symbol><symbol id="24"><text x="0" y="1.67" class="c">Password</text><text x="9.017999999999999" y="1.67" class="c">widget</text></symbol><symbol id="25"><text x="0" y="1.67" class="c">Password:</text><text x="10.02" y="1.67" class="c">&quot;hunter2s3cret&quot;</text></symbol><symbol id="26"><text x="0" y="1.67" class="c">Select</text><text x="7.013999999999999" y="1.67" class="c">widget</text></symbol><symbol id="27"><text x="0" y="1.67" class="c">(</text><text x="2.004" y="1.67" class="c">)</text><text x="4.008" y="1.67" class="c">Standard</text></symbol><symbol id="28"><text x="0" y="1.67" class="c">Select:</text><text x="8.016" y="1.67" class="c">&quot;demo_umami&quot;</text></symbol><symbol id="29"><text x="0" y="1.67" class="c">MultiSelect</text><text x="12.024" y="1.67" class="c">widget</text></symbol><symbol id="30"><text x="0" y="1.67" class="c">------------------</text></symbol><symbol id="31"><text x="0" y="1.67" class="c">&gt;</text><text x="2.004" y="1.67" class="c">[x]</text><text x="6.012" y="1.67" class="c">Redis</text></symbol><symbol id="32"><text x="2.004" y="1.67" class="c">[</text><text x="4.008" y="1.67" class="c">]</text><text x="6.012" y="1.67" class="c">Solr</text></symbol><symbol id="33"><text x="2.004" y="1.67" class="c">[</text><text x="4.008" y="1.67" class="c">]</text><text x="6.012" y="1.67" class="c">ClamAV</text></symbol><symbol id="34"><text x="0" y="1.67" class="c">space</text><text x="6.012" y="1.67" class="c">select</text><text x="13.026" y="1.67" class="c">*</text><text x="15.029999999999998" y="1.67" class="c">^/v</text><text x="19.037999999999997" y="1.67" class="c">move</text><text x="24.048" y="1.67" class="c">*</text><text x="26.052" y="1.67" class="c">&lt;/&gt;</text><text x="30.059999999999995" y="1.67" class="c">none/all</text><text x="39.077999999999996" y="1.67" class="c">*</text><text x="41.082" y="1.67" class="c">&lt;</text><text x="43.086" y="1.67" class="c">accept</text><text x="50.1" y="1.67" class="c">*</text><text x="52.104" y="1.67" class="c">esc</text><text x="56.111999999999995" y="1.67" class="c">canc</text></symbol><symbol id="35"><text x="0" y="1.67" class="c">el</text></symbol><symbol id="36"><text x="2.004" y="1.67" class="c">[x]</text><text x="6.012" y="1.67" class="c">Redis</text></symbol><symbol id="37"><text x="0" y="1.67" class="c">MultiSelect:</text><text x="13.026" y="1.67" class="c">[&quot;redis&quot;,&quot;solr&quot;]</text></symbol><symbol id="38"><text x="0" y="1.67" class="c">Suggest</text><text x="8.016" y="1.67" class="c">widget</text></symbol><symbol id="39"><text x="0" y="1.67" class="c">--------------</text></symbol><symbol id="40"><text x="2.004" y="1.67" class="c">Europe/London</text></symbol><symbol id="41"><text x="2.004" y="1.67" class="c">Europe/Paris</text></symbol><symbol id="42"><text x="2.004" y="1.67" class="c">Australia/Sydney</text></symbol><symbol id="43"><text x="0" y="1.67" class="c">Eur|</text></symbol><symbol id="44"><text x="0" y="1.67" class="c">Suggest:</text><text x="9.017999999999999" y="1.67" class="c">&quot;Europe\/London&quot;</text></symbol><symbol id="45"><text x="0" y="1.67" class="c">Search</text><text x="7.013999999999999" y="1.67" class="c">widget</text></symbol><symbol id="46"><text x="0" y="1.67" class="c">(*)</text><text x="4.008" y="1.67" class="c">Europe/London</text></symbol><symbol id="47"><text x="0" y="1.67" class="c">(</text><text x="2.004" y="1.67" class="c">)</text><text x="4.008" y="1.67" class="c">Europe/Paris</text></symbol><symbol id="48"><text x="0" y="1.67" class="c">(*)</text><text x="4.008" y="1.67" class="c">Europe/Paris</text></symbol><symbol id="49"><text x="0" y="1.67" class="c">Search:</text><text x="8.016" y="1.67" class="c">&quot;paris&quot;</text></symbol><symbol id="50"><text x="0" y="1.67" class="c">MultiSearch</text><text x="12.024" y="1.67" class="c">widget</text></symbol><symbol id="51"><text x="2.004" y="1.67" class="c">[</text><text x="4.008" y="1.67" class="c">]</text><text x="6.012" y="1.67" class="c">Memcached</text></symbol><symbol id="52"><text x="0" y="1.67" class="c">&gt;</text><text x="2.004" y="1.67" class="c">[</text><text x="4.008" y="1.67" class="c">]</text><text x="6.012" y="1.67" class="c">ClamAV</text></symbol><symbol id="53"><text x="0" y="1.67" class="c">cl|</text></symbol><symbol id="54"><text x="0" y="1.67" class="c">MultiSearch:</text><text x="13.026" y="1.67" class="c">[&quot;redis&quot;,&quot;clamav&quot;]</text></symbol><symbol id="55"><text x="0" y="1.67" class="c">Confirm</text><text x="8.016" y="1.67" class="c">widget</text></symbol><symbol id="56"><text x="0" y="1.67" class="c">Confirm:</text><text x="9.017999999999999" y="1.67" class="c">false</text></symbol><symbol id="57"><text x="0" y="1.67" class="c">Toggle</text><text x="7.013999999999999" y="1.67" class="c">widget</text></symbol><symbol id="58"><text x="0" y="1.67" class="c">Toggle:</text><text x="8.016" y="1.67" class="c">&quot;disabled&quot;</text></symbol><symbol id="59"><text x="0" y="1.67" class="c">Pause:</text><text x="7.013999999999999" y="1.67" class="c">true</text></symbol><symbol id="a"><rect height="14" width="60" x="0" y="0" class="d"></rect></symbol><symbol id="b"><rect height="1.837" width="1.1022" class="e"></rect></symbol></defs><rect height="25.718" width="60" class="a"></rect><g class="g"><svg x="0" y="0" width="5700"><svg x="0"><use xlink:href="#a"></use><use xlink:href="#b" x="-0.0040000000000000036" y="0"></use></svg><svg x="60"><use xlink:href="#a"></use><use xlink:href="#1" y="0"></use><use xlink:href="#2" y="1.837"></use><use xlink:href="#3" y="3.674"></use><text x="0" y="9.018" class="c">Acme</text><text x="5.01" y="9.018" class="c">Site|</text></svg><svg x="120"><use xlink:href="#a"></use><use xlink:href="#1" y="0"></use><use xlink:href="#2" y="1.837"></use><use xlink:href="#3" y="3.674"></use><text x="0" y="9.018" class="c">Acme</text><text x="5.01" y="9.018" class="c">Sit|</text></svg><svg x="180"><use xlink:href="#a"></use><use xlink:href="#1" y="0"></use><use xlink:href="#2" y="1.837"></use><use xlink:href="#3" y="3.674"></use><text x="0" y="9.018" class="c">Acme</text><text x="5.01" y="9.018" class="c">Si|</text></svg><svg x="240"><use xlink:href="#a"></use><use xlink:href="#1" y="0"></use><use xlink:href="#2" y="1.837"></use><use xlink:href="#3" y="3.674"></use><text x="0" y="9.018" class="c">Acme</text><text x="5.01" y="9.018" class="c">S|</text></svg><svg x="300"><use xlink:href="#a"></use><use xlink:href="#1" y="0"></use><use xlink:href="#2" y="1.837"></use><use xlink:href="#3" y="3.674"></use><text x="0" y="9.018" class="c">Acme</text><text x="5.01" y="9.018" class="c">|</text></svg><svg x="360"><use xlink:href="#a"></use><use xlink:href="#1" y="0"></use><use xlink:href="#2" y="1.837"></use><use xlink:href="#3" y="3.674"></use><text x="0" y="9.018" class="c">Acme</text><text x="5.01" y="9.018" class="c">C|</text></svg><svg x="420"><use xlink:href="#a"></use><use xlink:href="#1" y="0"></use><use xlink:href="#2" y="1.837"></use><use xlink:href="#3" y="3.674"></use><text x="0" y="9.018" class="c">Acme</text><text x="5.01" y="9.018" class="c">Co|</text></svg><svg x="480"><use xlink:href="#a"></use><use xlink:href="#1" y="0"></use><use xlink:href="#2" y="1.837"></use><use xlink:href="#3" y="3.674"></use><text x="0" y="9.018" class="c">Acme</text><text x="5.01" y="9.018" class="c">Cor|</text></svg><svg x="540"><use xlink:href="#a"></use><use xlink:href="#1" y="0"></use><use xlink:href="#2" y="1.837"></use><use xlink:href="#3" y="3.674"></use><text x="0" y="9.018" class="c">Acme</text><text x="5.01" y="9.018" class="c">Corp|</text></svg><svg x="600"><use xlink:href="#a"></use><use xlink:href="#b" x="-0.0040000000000000036" y="0"></use></svg><svg x="660"><use xlink:href="#a"></use><use xlink:href="#b" x="-0.0040000000000000036" y="1.662"></use><use xlink:href="#4" y="0"></use></svg><svg x="720"><use xlink:href="#a"></use><use xlink:href="#5" y="0"></use><use xlink:href="#6" y="1.837"></use><use xlink:href="#3" y="3.674"></use><text x="0" y="9.018" class="c">8080|</text></svg><svg x="780"><use xlink:href="#a"></use><use xlink:href="#5" y="0"></use><use xlink:href="#6" y="1.837"></use><use xlink:href="#3" y="3.674"></use><text x="0" y="9.018" class="c">808|</text></svg><svg x="840"><use xlink:href="#a"></use><use xlink:href="#5" y="0"></use><use xlink:href="#6" y="1.837"></use><use xlink:href="#3" y="3.674"></use><text x="0" y="9.018" class="c">80|</text></svg><svg x="900"><use xlink:href="#a"></use><use xlink:href="#5" y="0"></use><use xlink:href="#6" y="1.837"></use><use xlink:href="#3" y="3.674"></use><text x="0" y="9.018" class="c">8|</text></svg><svg x="960"><use xlink:href="#a"></use><use xlink:href="#5" y="0"></use><use xlink:href="#6" y="1.837"></use><use xlink:href="#3" y="3.674"></use><use xlink:href="#7" y="7.348"></use></svg><svg x="1020"><use xlink:href="#a"></use><use xlink:href="#5" y="0"></use><use xlink:href="#6" y="1.837"></use><use xlink:href="#3" y="3.674"></use><text x="0" y="9.018" class="c">3|</text></svg><svg x="1080"><use xlink:href="#a"></use><use xlink:href="#5" y="0"></use><use xlink:href="#6" y="1.837"></use><use xlink:href="#3" y="3.674"></use><text x="0" y="9.018" class="c">30|</text></svg><svg x="1140"><use xlink:href="#a"></use><use xlink:href="#5" y="0"></use><use xlink:href="#6" y="1.837"></use><use xlink:href="#3" y="3.674"></use><text x="0" y="9.018" class="c">300|</text></svg><svg x="1200"><use xlink:href="#a"></use><use xlink:href="#5" y="0"></use><use xlink:href="#6" y="1.837"></use><use xlink:href="#3" y="3.674"></use><text x="0" y="9.018" class="c">3000|</text></svg><svg x="1260"><use xlink:href="#a"></use><use xlink:href="#b" x="-0.0040000000000000036" y="1.662"></use><use xlink:href="#4" y="0"></use></svg><svg x="1320"><use xlink:href="#a"></use><use xlink:href="#b" x="-0.0040000000000000036" y="3.499"></use><use xlink:href="#4" y="0"></use><use xlink:href="#8" y="1.837"></use></svg><svg x="1380"><use xlink:href="#a"></use></svg><svg x="1440"><use xlink:href="#a"></use><use xlink:href="#9" y="0"></use><use xlink:href="#2" y="1.837"></use><use xlink:href="#10" y="5.511"></use><use xlink:href="#11" y="7.348"></use><use xlink:href="#12" y="9.185"></use><use xlink:href="#13" y="11.022"></use><text x="1.002" y="14.529" class="c">13</text><text x="5.01" y="14.529" class="c">14</text><text x="8.016" y="14.529" class="c">[15]</text><text x="13.026" y="14.529" class="c">16</text><text x="17.034" y="14.529" class="c">17</text><text x="21.041999999999998" y="14.529" class="c">18</text><text x="25.05" y="14.529" class="c">19</text><text x="1.002" y="16.366" class="c">20</text><text x="5.01" y="16.366" class="c">21</text><text x="9.017999999999999" y="16.366" class="c">22</text><text x="13.026" y="16.366" class="c">23</text><text x="17.034" y="16.366" class="c">24</text><text x="21.041999999999998" y="16.366" class="c">25</text><text x="25.05" y="16.366" class="c">26</text><use xlink:href="#14" y="16.533"></use><use xlink:href="#15" y="18.37"></use></svg><svg x="1500"><use xlink:href="#a"></use><use xlink:href="#9" y="0"></use><use xlink:href="#2" y="1.837"></use><use xlink:href="#10" y="5.511"></use><use xlink:href="#11" y="7.348"></use><use xlink:href="#12" y="9.185"></use><use xlink:href="#13" y="11.022"></use><text x="1.002" y="14.529" class="c">13</text><text x="5.01" y="14.529" class="c">14</text><text x="9.017999999999999" y="14.529" class="c">15</text><text x="13.026" y="14.529" class="c">16</text><text x="17.034" y="14.529" class="c">17</text><text x="21.041999999999998" y="14.529" class="c">18</text><text x="25.05" y="14.529" class="c">19</text><text x="1.002" y="16.366" class="c">20</text><text x="5.01" y="16.366" class="c">21</text><text x="8.016" y="16.366" class="c">[22]</text><text x="13.026" y="16.366" class="c">23</text><text x="17.034" y="16.366" class="c">24</text><text x="21.041999999999998" y="16.366" class="c">25</text><text x="25.05" y="16.366" class="c">26</text><use xlink:href="#14" y="16.533"></use><use xlink:href="#15" y="18.37"></use></svg><svg x="1560"><use xlink:href="#a"></use><use xlink:href="#b" x="-0.0040000000000000036" y="3.499"></use><use xlink:href="#4" y="0"></use><use xlink:href="#8" y="1.837"></use></svg><svg x="1620"><use xlink:href="#a"></use><use xlink:href="#b" x="-0.0040000000000000036" y="5.336"></use><use xlink:href="#4" y="0"></use><use xlink:href="#8" y="1.837"></use><use xlink:href="#16" y="3.674"></use></svg><svg x="1680"><use xlink:href="#a"></use><use xlink:href="#17" y="0"></use><use xlink:href="#18" y="1.837"></use><use xlink:href="#19" y="5.511"></use><text x="0" y="9.018" class="c">Solr</text><text x="5.01" y="9.018" class="c">for</text><text x="9.017999999999999" y="9.018" class="c">search|</text><use xlink:href="#20" y="9.185"></use></svg><svg x="1740"><use xlink:href="#a"></use><use xlink:href="#17" y="0"></use><use xlink:href="#18" y="1.837"></use><use xlink:href="#19" y="5.511"></use><use xlink:href="#21" y="7.348"></use><use xlink:href="#7" y="9.185"></use><use xlink:href="#20" y="11.022"></use></svg><svg x="1800"><use xlink:href="#a"></use><use xlink:href="#17" y="0"></use><use xlink:href="#18" y="1.837"></use><use xlink:href="#19" y="5.511"></use><use xlink:href="#21" y="7.348"></use><text x="0" y="10.855" class="c">C|</text><use xlink:href="#20" y="11.022"></use></svg><svg x="1860"><use xlink:href="#a"></use><use xlink:href="#17" y="0"></use><use xlink:href="#18" y="1.837"></use><use xlink:href="#19" y="5.511"></use><use xlink:href="#21" y="7.348"></use><text x="0" y="10.855" class="c">Cl|</text><use xlink:href="#20" y="11.022"></use></svg><svg x="1920"><use xlink:href="#a"></use><use xlink:href="#17" y="0"></use><use xlink:href="#18" y="1.837"></use><use xlink:href="#19" y="5.511"></use><use xlink:href="#21" y="7.348"></use><text x="0" y="10.855" class="c">Cla|</text><use xlink:href="#20" y="11.022"></use></svg><svg x="1980"><use xlink:href="#a"></use><use xlink:href="#17" y="0"></use><use xlink:href="#18" y="1.837"></use><use xlink:href="#19" y="5.511"></use><use xlink:href="#21" y="7.348"></use><text x="0" y="10.855" class="c">Clam|</text><use xlink:href="#20" y="11.022"></use></svg><svg x="2040"><use xlink:href="#a"></use><use xlink:href="#17" y="0"></use><use xlink:href="#18" y="1.837"></use><use xlink:href="#19" y="5.511"></use><use xlink:href="#21" y="7.348"></use><text x="0" y="10.855" class="c">ClamA|</text><use xlink:href="#20" y="11.022"></use></svg><svg x="2100"><use xlink:href="#a"></use><use xlink:href="#17" y="0"></use><use xlink:href="#18" y="1.837"></use><use xlink:href="#19" y="5.511"></use><use xlink:href="#21" y="7.348"></use><text x="0" y="10.855" class="c">ClamAV|</text><use xlink:href="#20" y="11.022"></use></svg><svg x="2160"><use xlink:href="#a"></use><use xlink:href="#17" y="0"></use><use xlink:href="#18" y="1.837"></use><use xlink:href="#19" y="5.511"></use><use xlink:href="#21" y="7.348"></use><text x="0" y="10.855" class="c">ClamAV</text><text x="7.013999999999999" y="10.855" class="c">|</text><use xlink:href="#20" y="11.022"></use></svg><svg x="2220"><use xlink:href="#a"></use><use xlink:href="#17" y="0"></use><use xlink:href="#18" y="1.837"></use><use xlink:href="#19" y="5.511"></use><use xlink:href="#21" y="7.348"></use><text x="0" y="10.855" class="c">ClamAV</text><text x="7.013999999999999" y="10.855" class="c">f|</text><use xlink:href="#20" y="11.022"></use></svg><svg x="2280"><use xlink:href="#a"></use><use xlink:href="#17" y="0"></use><use xlink:href="#18" y="1.837"></use><use xlink:href="#19" y="5.511"></use><use xlink:href="#21" y="7.348"></use><text x="0" y="10.855" class="c">ClamAV</text><text x="7.013999999999999" y="10.855" class="c">fo|</text><use xlink:href="#20" y="11.022"></use></svg><svg x="2340"><use xlink:href="#a"></use><use xlink:href="#17" y="0"></use><use xlink:href="#18" y="1.837"></use><use xlink:href="#19" y="5.511"></use><use xlink:href="#21" y="7.348"></use><text x="0" y="10.855" class="c">ClamAV</text><text x="7.013999999999999" y="10.855" class="c">for|</text><use xlink:href="#20" y="11.022"></use></svg><svg x="2400"><use xlink:href="#a"></use><use xlink:href="#17" y="0"></use><use xlink:href="#18" y="1.837"></use><use xlink:href="#19" y="5.511"></use><use xlink:href="#21" y="7.348"></use><text x="0" y="10.855" class="c">ClamAV</text><text x="7.013999999999999" y="10.855" class="c">for</text><text x="11.021999999999998" y="10.855" class="c">|</text><use xlink:href="#20" y="11.022"></use></svg><svg x="2460"><use xlink:href="#a"></use><use xlink:href="#17" y="0"></use><use xlink:href="#18" y="1.837"></use><use xlink:href="#19" y="5.511"></use><use xlink:href="#21" y="7.348"></use><text x="0" y="10.855" class="c">ClamAV</text><text x="7.013999999999999" y="10.855" class="c">for</text><text x="11.021999999999998" y="10.855" class="c">m|</text><use xlink:href="#20" y="11.022"></use></svg><svg x="2520"><use xlink:href="#a"></use><use xlink:href="#17" y="0"></use><use xlink:href="#18" y="1.837"></use><use xlink:href="#19" y="5.511"></use><use xlink:href="#21" y="7.348"></use><text x="0" y="10.855" class="c">ClamAV</text><text x="7.013999999999999" y="10.855" class="c">for</text><text x="11.021999999999998" y="10.855" class="c">ma|</text><use xlink:href="#20" y="11.022"></use></svg><svg x="2580"><use xlink:href="#a"></use><use xlink:href="#17" y="0"></use><use xlink:href="#18" y="1.837"></use><use xlink:href="#19" y="5.511"></use><use xlink:href="#21" y="7.348"></use><text x="0" y="10.855" class="c">ClamAV</text><text x="7.013999999999999" y="10.855" class="c">for</text><text x="11.021999999999998" y="10.855" class="c">mai|</text><use xlink:href="#20" y="11.022"></use></svg><svg x="2640"><use xlink:href="#a"></use><use xlink:href="#17" y="0"></use><use xlink:href="#18" y="1.837"></use><use xlink:href="#19" y="5.511"></use><use xlink:href="#21" y="7.348"></use><text x="0" y="10.855" class="c">ClamAV</text><text x="7.013999999999999" y="10.855" class="c">for</text><text x="11.021999999999998" y="10.855" class="c">mail|</text><use xlink:href="#20" y="11.022"></use></svg><svg x="2700"><use xlink:href="#a"></use><use xlink:href="#b" x="-0.0040000000000000036" y="5.336"></use><use xlink:href="#4" y="0"></use><use xlink:href="#8" y="1.837"></use><use xlink:href="#16" y="3.674"></use></svg><svg x="2760"><use xlink:href="#a"></use><use xlink:href="#b" x="-0.0040000000000000036" y="9.01"></use><use xlink:href="#4" y="0"></use><use xlink:href="#8" y="1.837"></use><use xlink:href="#16" y="3.674"></use><use xlink:href="#22" y="5.511"></use><use xlink:href="#23" y="7.348"></use></svg><svg x="2820"><use xlink:href="#a"></use><use xlink:href="#24" y="0"></use><use xlink:href="#18" y="1.837"></use><use xlink:href="#3" y="3.674"></use><text x="0" y="9.018" class="c">*******|</text></svg><svg x="2880"><use xlink:href="#a"></use><use xlink:href="#24" y="0"></use><use xlink:href="#18" y="1.837"></use><use xlink:href="#3" y="3.674"></use><text x="0" y="9.018" class="c">********|</text></svg><svg x="2940"><use xlink:href="#a"></use><use xlink:href="#24" y="0"></use><use xlink:href="#18" y="1.837"></use><use xlink:href="#3" y="3.674"></use><text x="0" y="9.018" class="c">*********|</text></svg><svg x="3000"><use xlink:href="#a"></use><use xlink:href="#24" y="0"></use><use xlink:href="#18" y="1.837"></use><use xlink:href="#3" y="3.674"></use><text x="0" y="9.018" class="c">**********|</text></svg><svg x="3060"><use xlink:href="#a"></use><use xlink:href="#24" y="0"></use><use xlink:href="#18" y="1.837"></use><use xlink:href="#3" y="3.674"></use><text x="0" y="9.018" class="c">***********|</text></svg><svg x="3120"><use xlink:href="#a"></use><use xlink:href="#24" y="0"></use><use xlink:href="#18" y="1.837"></use><use xlink:href="#3" y="3.674"></use><text x="0" y="9.018" class="c">************|</text></svg><svg x="3180"><use xlink:href="#a"></use><use xlink:href="#24" y="0"></use><use xlink:href="#18" y="1.837"></use><use xlink:href="#3" y="3.674"></use><text x="0" y="9.018" class="c">*************|</text></svg><svg x="3240"><use xlink:href="#a"></use><use xlink:href="#b" x="-0.0040000000000000036" y="9.01"></use><use xlink:href="#4" y="0"></use><use xlink:href="#8" y="1.837"></use><use xlink:href="#16" y="3.674"></use><use xlink:href="#22" y="5.511"></use><use xlink:href="#23" y="7.348"></use></svg><svg x="3300"><use xlink:href="#a"></use><use xlink:href="#b" x="-0.0040000000000000036" y="10.847"></use><use xlink:href="#4" y="0"></use><use xlink:href="#8" y="1.837"></use><use xlink:href="#16" y="3.674"></use><use xlink:href="#22" y="5.511"></use><use xlink:href="#23" y="7.348"></use><use xlink:href="#25" y="9.185"></use></svg><svg x="3360"><use xlink:href="#a"></use><use xlink:href="#26" y="0"></use><use xlink:href="#6" y="1.837"></use><use xlink:href="#3" y="3.674"></use><use xlink:href="#27" y="7.348"></use><text x="0" y="10.855" class="c">(*)</text><text x="4.008" y="10.855" class="c">Minimal</text><text x="0" y="12.692" class="c">(</text><text x="2.004" y="12.692" class="c">)</text><text x="4.008" y="12.692" class="c">Demo</text><text x="9.017999999999999" y="12.692" class="c">Umami</text></svg><svg x="3420"><use xlink:href="#a"></use><use xlink:href="#26" y="0"></use><use xlink:href="#6" y="1.837"></use><use xlink:href="#3" y="3.674"></use><use xlink:href="#27" y="7.348"></use><text x="0" y="10.855" class="c">(</text><text x="2.004" y="10.855" class="c">)</text><text x="4.008" y="10.855" class="c">Minimal</text><text x="0" y="12.692" class="c">(*)</text><text x="4.008" y="12.692" class="c">Demo</text><text x="9.017999999999999" y="12.692" class="c">Umami</text></svg><svg x="3480"><use xlink:href="#a"></use><use xlink:href="#b" x="-0.0040000000000000036" y="10.847"></use><use xlink:href="#4" y="0"></use><use xlink:href="#8" y="1.837"></use><use xlink:href="#16" y="3.674"></use><use xlink:href="#22" y="5.511"></use><use xlink:href="#23" y="7.348"></use><use xlink:href="#25" y="9.185"></use></svg><svg x="3540"><use xlink:href="#a"></use><use xlink:href="#b" x="-0.0040000000000000036" y="12.684"></use><use xlink:href="#4" y="0"></use><use xlink:href="#8" y="1.837"></use><use xlink:href="#16" y="3.674"></use><use xlink:href="#22" y="5.511"></use><use xlink:href="#23" y="7.348"></use><use xlink:href="#25" y="9.185"></use><use xlink:href="#28" y="11.022"></use></svg><svg x="3600"><use xlink:href="#a"></use><use xlink:href="#29" y="0"></use><use xlink:href="#30" y="1.837"></use><use xlink:href="#31" y="5.511"></use><use xlink:href="#32" y="7.348"></use><use xlink:href="#33" y="9.185"></use><use xlink:href="#34" y="11.022"></use><use xlink:href="#35" y="12.859"></use></svg><svg x="3660"><use xlink:href="#a"></use><use xlink:href="#29" y="0"></use><use xlink:href="#30" y="1.837"></use><use xlink:href="#36" y="5.511"></use><text x="0" y="9.018" class="c">&gt;</text><text x="2.004" y="9.018" class="c">[</text><text x="4.008" y="9.018" class="c">]</text><text x="6.012" y="9.018" class="c">Solr</text><use xlink:href="#33" y="9.185"></use><use xlink:href="#34" y="11.022"></use><use xlink:href="#35" y="12.859"></use></svg><svg x="3720"><use xlink:href="#a"></use><use xlink:href="#29" y="0"></use><use xlink:href="#30" y="1.837"></use><use xlink:href="#36" y="5.511"></use><text x="0" y="9.018" class="c">&gt;</text><text x="2.004" y="9.018" class="c">[x]</text><text x="6.012" y="9.018" class="c">Solr</text><use xlink:href="#33" y="9.185"></use><use xlink:href="#34" y="11.022"></use><use xlink:href="#35" y="12.859"></use></svg><svg x="3780"><use xlink:href="#a"></use><use xlink:href="#b" x="-0.0040000000000000036" y="12.684"></use><use xlink:href="#4" y="0"></use><use xlink:href="#8" y="1.837"></use><use xlink:href="#16" y="3.674"></use><use xlink:href="#22" y="5.511"></use><use xlink:href="#23" y="7.348"></use><use xlink:href="#25" y="9.185"></use><use xlink:href="#28" y="11.022"></use></svg><svg x="3840"><use xlink:href="#a"></use><use xlink:href="#b" x="-0.0040000000000000036" y="14.520999999999999"></use><use xlink:href="#4" y="0"></use><use xlink:href="#8" y="1.837"></use><use xlink:href="#16" y="3.674"></use><use xlink:href="#22" y="5.511"></use><use xlink:href="#23" y="7.348"></use><use xlink:href="#25" y="9.185"></use><use xlink:href="#28" y="11.022"></use><use xlink:href="#37" y="12.859"></use></svg><svg x="3900"><use xlink:href="#a"></use><use xlink:href="#38" y="0"></use><use xlink:href="#39" y="1.837"></use><use xlink:href="#3" y="3.674"></use><use xlink:href="#7" y="7.348"></use><text x="2.004" y="10.855" class="c">UTC</text><use xlink:href="#40" y="11.022"></use><use xlink:href="#41" y="12.859"></use><use xlink:href="#42" y="14.696"></use></svg><svg x="3960"><use xlink:href="#a"></use><use xlink:href="#38" y="0"></use><use xlink:href="#39" y="1.837"></use><use xlink:href="#3" y="3.674"></use><text x="0" y="9.018" class="c">E|</text><use xlink:href="#40" y="9.185"></use><use xlink:href="#41" y="11.022"></use><use xlink:href="#42" y="12.859"></use></svg><svg x="4020"><use xlink:href="#a"></use><use xlink:href="#38" y="0"></use><use xlink:href="#39" y="1.837"></use><use xlink:href="#3" y="3.674"></use><text x="0" y="9.018" class="c">Eu|</text><use xlink:href="#40" y="9.185"></use><use xlink:href="#41" y="11.022"></use></svg><svg x="4080"><use xlink:href="#a"></use><use xlink:href="#38" y="0"></use><use xlink:href="#39" y="1.837"></use><use xlink:href="#3" y="3.674"></use><use xlink:href="#43" y="7.348"></use><use xlink:href="#40" y="9.185"></use><use xlink:href="#41" y="11.022"></use></svg><svg x="4140"><use xlink:href="#a"></use><use xlink:href="#38" y="0"></use><use xlink:href="#39" y="1.837"></use><use xlink:href="#3" y="3.674"></use><use xlink:href="#43" y="7.348"></use><text x="0" y="10.855" class="c">&gt;</text><text x="2.004" y="10.855" class="c">Europe/London</text><use xlink:href="#41" y="11.022"></use></svg><svg x="4200"><use xlink:href="#a"></use><use xlink:href="#b" x="-0.0040000000000000036" y="14.520999999999999"></use><use xlink:href="#4" y="0"></use><use xlink:href="#8" y="1.837"></use><use xlink:href="#16" y="3.674"></use><use xlink:href="#22" y="5.511"></use><use xlink:href="#23" y="7.348"></use><use xlink:href="#25" y="9.185"></use><use xlink:href="#28" y="11.022"></use><use xlink:href="#37" y="12.859"></use></svg><svg x="4260"><use xlink:href="#a"></use><use xlink:href="#b" x="-0.0040000000000000036" y="16.358"></use><use xlink:href="#4" y="0"></use><use xlink:href="#8" y="1.837"></use><use xlink:href="#16" y="3.674"></use><use xlink:href="#22" y="5.511"></use><use xlink:href="#23" y="7.348"></use><use xlink:href="#25" y="9.185"></use><use xlink:href="#28" y="11.022"></use><use xlink:href="#37" y="12.859"></use><use xlink:href="#44" y="14.696"></use></svg><svg x="4320"><use xlink:href="#a"></use><use xlink:href="#45" y="0"></use><use xlink:href="#6" y="1.837"></use><use xlink:href="#3" y="3.674"></use><use xlink:href="#7" y="7.348"></use><text x="0" y="10.855" class="c">(</text><text x="2.004" y="10.855" class="c">)</text><text x="4.008" y="10.855" class="c">UTC</text><use xlink:href="#46" y="11.022"></use><use xlink:href="#47" y="12.859"></use><text x="0" y="16.366" class="c">(</text><text x="2.004" y="16.366" class="c">)</text><text x="4.008" y="16.366" class="c">Australia/Sydney</text></svg><svg x="4380"><use xlink:href="#a"></use><use xlink:href="#45" y="0"></use><use xlink:href="#6" y="1.837"></use><use xlink:href="#3" y="3.674"></use><text x="0" y="9.018" class="c">p|</text><use xlink:href="#46" y="9.185"></use><use xlink:href="#47" y="11.022"></use></svg><svg x="4440"><use xlink:href="#a"></use><use xlink:href="#45" y="0"></use><use xlink:href="#6" y="1.837"></use><use xlink:href="#3" y="3.674"></use><text x="0" y="9.018" class="c">pa|</text><use xlink:href="#48" y="9.185"></use></svg><svg x="4500"><use xlink:href="#a"></use><use xlink:href="#45" y="0"></use><use xlink:href="#6" y="1.837"></use><use xlink:href="#3" y="3.674"></use><text x="0" y="9.018" class="c">par|</text><use xlink:href="#48" y="9.185"></use></svg><svg x="4560"><use xlink:href="#a"></use><use xlink:href="#b" x="-0.0040000000000000036" y="16.358"></use><use xlink:href="#4" y="0"></use><use xlink:href="#8" y="1.837"></use><use xlink:href="#16" y="3.674"></use><use xlink:href="#22" y="5.511"></use><use xlink:href="#23" y="7.348"></use><use xlink:href="#25" y="9.185"></use><use xlink:href="#28" y="11.022"></use><use xlink:href="#37" y="12.859"></use><use xlink:href="#44" y="14.696"></use></svg><svg x="4620"><use xlink:href="#a"></use><use xlink:href="#b" x="-0.0040000000000000036" y="18.195"></use><use xlink:href="#4" y="0"></use><use xlink:href="#8" y="1.837"></use><use xlink:href="#16" y="3.674"></use><use xlink:href="#22" y="5.511"></use><use xlink:href="#23" y="7.348"></use><use xlink:href="#25" y="9.185"></use><use xlink:href="#28" y="11.022"></use><use xlink:href="#37" y="12.859"></use><use xlink:href="#44" y="14.696"></use><use xlink:href="#49" y="16.533"></use></svg><svg x="4680"><use xlink:href="#a"></use><use xlink:href="#50" y="0"></use><use xlink:href="#30" y="1.837"></use><use xlink:href="#7" y="5.511"></use><use xlink:href="#31" y="7.348"></use><use xlink:href="#32" y="9.185"></use><use xlink:href="#33" y="11.022"></use><use xlink:href="#51" y="12.859"></use><use xlink:href="#34" y="14.696"></use><use xlink:href="#35" y="16.533"></use></svg><svg x="4740"><use xlink:href="#a"></use><use xlink:href="#50" y="0"></use><use xlink:href="#30" y="1.837"></use><text x="0" y="7.181" class="c">c|</text><use xlink:href="#52" y="7.348"></use><use xlink:href="#51" y="9.185"></use><use xlink:href="#34" y="11.022"></use><use xlink:href="#35" y="12.859"></use></svg><svg x="4800"><use xlink:href="#a"></use><use xlink:href="#50" y="0"></use><use xlink:href="#30" y="1.837"></use><use xlink:href="#53" y="5.511"></use><use xlink:href="#52" y="7.348"></use><use xlink:href="#34" y="9.185"></use><use xlink:href="#35" y="11.022"></use></svg><svg x="4860"><use xlink:href="#a"></use><use xlink:href="#50" y="0"></use><use xlink:href="#30" y="1.837"></use><use xlink:href="#53" y="5.511"></use><text x="0" y="9.018" class="c">&gt;</text><text x="2.004" y="9.018" class="c">[x]</text><text x="6.012" y="9.018" class="c">ClamAV</text><use xlink:href="#34" y="9.185"></use><use xlink:href="#35" y="11.022"></use></svg><svg x="4920"><use xlink:href="#a"></use><use xlink:href="#b" x="-0.0040000000000000036" y="18.195"></use><use xlink:href="#4" y="0"></use><use xlink:href="#8" y="1.837"></use><use xlink:href="#16" y="3.674"></use><use xlink:href="#22" y="5.511"></use><use xlink:href="#23" y="7.348"></use><use xlink:href="#25" y="9.185"></use><use xlink:href="#28" y="11.022"></use><use xlink:href="#37" y="12.859"></use><use xlink:href="#44" y="14.696"></use><use xlink:href="#49" y="16.533"></use></svg><svg x="4980"><use xlink:href="#a"></use><use xlink:href="#b" x="-0.0040000000000000036" y="20.031999999999996"></use><use xlink:href="#4" y="0"></use><use xlink:href="#8" y="1.837"></use><use xlink:href="#16" y="3.674"></use><use xlink:href="#22" y="5.511"></use><use xlink:href="#23" y="7.348"></use><use xlink:href="#25" y="9.185"></use><use xlink:href="#28" y="11.022"></use><use xlink:href="#37" y="12.859"></use><use xlink:href="#44" y="14.696"></use><use xlink:href="#49" y="16.533"></use><use xlink:href="#54" y="18.37"></use></svg><svg x="5040"><use xlink:href="#a"></use><use xlink:href="#55" y="0"></use><use xlink:href="#39" y="1.837"></use><use xlink:href="#3" y="3.674"></use><text x="0" y="9.018" class="c">(*)</text><text x="4.008" y="9.018" class="c">Yes</text><text x="9.017999999999999" y="9.018" class="c">(</text><text x="11.021999999999998" y="9.018" class="c">)</text><text x="13.026" y="9.018" class="c">No</text></svg><svg x="5100"><use xlink:href="#a"></use><use xlink:href="#55" y="0"></use><use xlink:href="#39" y="1.837"></use><use xlink:href="#3" y="3.674"></use><text x="0" y="9.018" class="c">(</text><text x="2.004" y="9.018" class="c">)</text><text x="4.008" y="9.018" class="c">Yes</text><text x="9.017999999999999" y="9.018" class="c">(*)</text><text x="13.026" y="9.018" class="c">No</text></svg><svg x="5160"><use xlink:href="#a"></use><use xlink:href="#b" x="-0.0040000000000000036" y="20.031999999999996"></use><use xlink:href="#4" y="0"></use><use xlink:href="#8" y="1.837"></use><use xlink:href="#16" y="3.674"></use><use xlink:href="#22" y="5.511"></use><use xlink:href="#23" y="7.348"></use><use xlink:href="#25" y="9.185"></use><use xlink:href="#28" y="11.022"></use><use xlink:href="#37" y="12.859"></use><use xlink:href="#44" y="14.696"></use><use xlink:href="#49" y="16.533"></use><use xlink:href="#54" y="18.37"></use></svg><svg x="5220"><use xlink:href="#a"></use><use xlink:href="#b" x="-0.0040000000000000036" y="21.869"></use><use xlink:href="#4" y="0"></use><use xlink:href="#8" y="1.837"></use><use xlink:href="#16" y="3.674"></use><use xlink:href="#22" y="5.511"></use><use xlink:href="#23" y="7.348"></use><use xlink:href="#25" y="9.185"></use><use xlink:href="#28" y="11.022"></use><use xlink:href="#37" y="12.859"></use><use xlink:href="#44" y="14.696"></use><use xlink:href="#49" y="16.533"></use><use xlink:href="#54" y="18.37"></use><use xlink:href="#56" y="20.206999999999997"></use></svg><svg x="5280"><use xlink:href="#a"></use><use xlink:href="#57" y="0"></use><use xlink:href="#6" y="1.837"></use><use xlink:href="#3" y="3.674"></use><text x="0" y="9.018" class="c">(*)</text><text x="4.008" y="9.018" class="c">Enabled</text><text x="13.026" y="9.018" class="c">(</text><text x="15.029999999999998" y="9.018" class="c">)</text><text x="17.034" y="9.018" class="c">Disabled</text></svg><svg x="5340"><use xlink:href="#a"></use><use xlink:href="#57" y="0"></use><use xlink:href="#6" y="1.837"></use><use xlink:href="#3" y="3.674"></use><text x="0" y="9.018" class="c">(</text><text x="2.004" y="9.018" class="c">)</text><text x="4.008" y="9.018" class="c">Enabled</text><text x="13.026" y="9.018" class="c">(*)</text><text x="17.034" y="9.018" class="c">Disabled</text></svg><svg x="5400"><use xlink:href="#a"></use><use xlink:href="#b" x="-0.0040000000000000036" y="21.869"></use><use xlink:href="#4" y="0"></use><use xlink:href="#8" y="1.837"></use><use xlink:href="#16" y="3.674"></use><use xlink:href="#22" y="5.511"></use><use xlink:href="#23" y="7.348"></use><use xlink:href="#25" y="9.185"></use><use xlink:href="#28" y="11.022"></use><use xlink:href="#37" y="12.859"></use><use xlink:href="#44" y="14.696"></use><use xlink:href="#49" y="16.533"></use><use xlink:href="#54" y="18.37"></use><use xlink:href="#56" y="20.206999999999997"></use></svg><svg x="5460"><use xlink:href="#a"></use><use xlink:href="#b" x="-0.0040000000000000036" y="23.706000000000003"></use><use xlink:href="#4" y="0"></use><use xlink:href="#8" y="1.837"></use><use xlink:href="#16" y="3.674"></use><use xlink:href="#22" y="5.511"></use><use xlink:href="#23" y="7.348"></use><use xlink:href="#25" y="9.185"></use><use xlink:href="#28" y="11.022"></use><use xlink:href="#37" y="12.859"></use><use xlink:href="#44" y="14.696"></use><use xlink:href="#49" y="16.533"></use><use xlink:href="#54" y="18.37"></use><use xlink:href="#56" y="20.206999999999997"></use><use xlink:href="#58" y="22.044"></use></svg><svg x="5520"><use xlink:href="#a"></use><text x="0" y="1.67" class="c">Pause</text><text x="6.012" y="1.67" class="c">widget</text><text x="0" y="3.5069999999999997" class="c">------------</text><text x="0" y="5.343999999999999" class="c">Enter</text><text x="6.012" y="5.343999999999999" class="c">continue</text><text x="15.029999999999998" y="5.343999999999999" class="c">*</text><text x="17.034" y="5.343999999999999" class="c">Esc</text><text x="21.041999999999998" y="5.343999999999999" class="c">cancel</text><text x="0" y="9.018" class="c">&lt;</text><text x="2.004" y="9.018" class="c">Press</text><text x="8.016" y="9.018" class="c">Enter</text><text x="14.027999999999999" y="9.018" class="c">to</text><text x="17.034" y="9.018" class="c">continue</text></svg><svg x="5580"><use xlink:href="#a"></use><use xlink:href="#b" x="-0.0040000000000000036" y="23.706000000000003"></use><use xlink:href="#8" y="0"></use><use xlink:href="#16" y="1.837"></use><use xlink:href="#22" y="3.674"></use><use xlink:href="#23" y="5.511"></use><use xlink:href="#25" y="7.348"></use><use xlink:href="#28" y="9.185"></use><use xlink:href="#37" y="11.022"></use><use xlink:href="#44" y="12.859"></use><use xlink:href="#49" y="14.696"></use><use xlink:href="#54" y="16.533"></use><use xlink:href="#56" y="18.37"></use><use xlink:href="#58" y="20.206999999999997"></use><use xlink:href="#59" y="22.044"></use></svg><svg x="5640"><use xlink:href="#a"></use><use xlink:href="#b" x="0.996" y="23.706000000000003"></use><use xlink:href="#8" y="0"></use><use xlink:href="#16" y="1.837"></use><use xlink:href="#22" y="3.674"></use><use xlink:href="#23" y="5.511"></use><use xlink:href="#25" y="7.348"></use><use xlink:href="#28" y="9.185"></use><use xlink:href="#37" y="11.022"></use><use xlink:href="#44" y="12.859"></use><use xlink:href="#49" y="14.696"></use><use xlink:href="#54" y="16.533"></use><use xlink:href="#56" y="18.37"></use><use xlink:href="#58" y="20.206999999999997"></use><use xlink:href="#59" y="22.044"></use></svg></svg></g></g></svg></svg>