<svg xmlns="http://www.w3.org/2000/svg" xmlns:xlink="http://www.w3.org/1999/xlink" width="760" height="183.70000000000002"><rect width="760" height="183.70000000000002" rx="0" ry="0" class="a"></rect><svg height="183.70000000000002" viewBox="0 0 76 18.37" width="760" xmlns="http://www.w3.org/2000/svg" xmlns:xlink="http://www.w3.org/1999/xlink"><style>.a{fill:rgb(40,44,52)}.b{font-family:Consolas,"Courier New",Courier,"Liberation Mono",monospace}.c{fill:rgb(171,178,191);white-space:pre}.d{fill:transparent}.e{fill:rgb(82,139,255)}.g{animation-duration:16.312s;animation-iteration-count:infinite;animation-name:f;animation-timing-function:steps(1,end)}@keyframes f{0%{transform:translateX(-0px)}0%{transform:translateX(-76px)}8.4%{transform:translateX(-152px)}13.4%{transform:translateX(-228px)}18.4%{transform:translateX(-304px)}23.4%{transform:translateX(-380px)}28.4%{transform:translateX(-456px)}33.3%{transform:translateX(-532px)}38.3%{transform:translateX(-608px)}43.3%{transform:translateX(-684px)}48.3%{transform:translateX(-760px)}53.3%{transform:translateX(-836px)}58.2%{transform:translateX(-912px)}63.2%{transform:translateX(-988px)}68.2%{transform:translateX(-1064px)}73.2%{transform:translateX(-1140px)}78.2%{transform:translateX(-1216px)}83.1%{transform:translateX(-1292px)}100%{transform:translateX(-1368px)}}</style><g font-family="Consolas, &quot;Courier New&quot;, Courier, &quot;Liberation Mono&quot;, monospace" font-size="1.67" class="b"><defs><symbol id="1"><text x="0" y="1.67" class="c">╭──────────────────────────────────────────────────────────────────────────╮</text></symbol><symbol id="2"><text x="0" y="1.67" class="c">├──────────────────────────────────────────────────────────────────────────┤</text></symbol><symbol id="3"><text x="0" y="1.67" class="c">│</text><text x="2.004" y="1.67" class="c">↑/↓</text><text x="6.012" y="1.67" class="c">move</text><text x="11.021999999999998" y="1.67" class="c">·</text><text x="13.026" y="1.67" class="c">↵</text><text x="15.029999999999998" y="1.67" class="c">select</text><text x="22.043999999999997" y="1.67" class="c">·</text><text x="24.048" y="1.67" class="c">esc</text><text x="28.055999999999997" y="1.67" class="c">back</text><text x="33.065999999999995" y="1.67" class="c">·</text><text x="35.06999999999999" y="1.67" class="c">q</text><text x="37.074" y="1.67" class="c">quit</text><text x="42.083999999999996" y="1.67" class="c">·</text><text x="44.087999999999994" y="1.67" class="c">?</text><text x="46.09199999999999" y="1.67" class="c">help</text><text x="75.14999999999999" y="1.67" class="c">│</text></symbol><symbol id="4"><text x="0" y="1.67" class="c">╰──────────────────────────────────────────────────────────────────────────╯</text></symbol><symbol id="5"><text x="0" y="1.67" class="c">│</text><text x="2.004" y="1.67" class="c">Textarea</text><text x="11.021999999999998" y="1.67" class="c">widget</text><text x="18.035999999999998" y="1.67" class="c">›</text><text x="20.04" y="1.67" class="c">Textarea</text><text x="75.14999999999999" y="1.67" class="c">│</text></symbol><symbol id="6"><text x="0" y="1.67" class="c">│</text><text x="2.004" y="1.67" class="c">❯</text><text x="4.008" y="1.67" class="c">Tasting</text><text x="12.024" y="1.67" class="c">notes</text><text x="19.037999999999997" y="1.67" class="c">Crisp</text><text x="25.05" y="1.67" class="c">and</text><text x="29.058" y="1.67" class="c">sweet</text><text x="75.14999999999999" y="1.67" class="c">│</text></symbol><symbol id="7"><text x="0" y="1.67" class="c">│</text><text x="19.037999999999997" y="1.67" class="c">Hint</text><text x="24.048" y="1.67" class="c">of</text><text x="27.054" y="1.67" class="c">citrus</text><text x="75.14999999999999" y="1.67" class="c">│</text></symbol><symbol id="8"><text x="0" y="1.67" class="c">│</text><text x="2.004" y="1.67" class="c">↵</text><text x="4.008" y="1.67" class="c">newline</text><text x="12.024" y="1.67" class="c">·</text><text x="14.027999999999999" y="1.67" class="c">tab</text><text x="18.035999999999998" y="1.67" class="c">accept</text><text x="25.05" y="1.67" class="c">·</text><text x="27.054" y="1.67" class="c">esc</text><text x="31.061999999999998" y="1.67" class="c">cancel</text><text x="75.14999999999999" y="1.67" class="c">│</text></symbol><symbol id="9"><text x="0" y="1.67" class="c">│</text><text x="19.037999999999997" y="1.67" class="c">Slightly</text><text x="28.055999999999997" y="1.67" class="c">tart█</text><text x="75.14999999999999" y="1.67" class="c">│</text></symbol><symbol id="a"><rect height="10" width="76" x="0" y="0" class="d"></rect></symbol><symbol id="b"><rect height="1.837" width="1.1022" class="e"></rect></symbol></defs><rect height="18.37" width="76" class="a"></rect><g class="g"><svg x="0" y="0" width="1444"><svg x="0"><use xlink:href="#a"></use><use xlink:href="#b" x="-0.0040000000000000036" y="0"></use></svg><svg x="76"><use xlink:href="#a"></use><use xlink:href="#b" x="75.996" y="16.358"></use><use xlink:href="#1" y="0"></use><text x="0" y="3.5069999999999997" class="c">│</text><text x="2.004" y="3.5069999999999997" class="c">Textarea</text><text x="11.021999999999998" y="3.5069999999999997" class="c">widget</text><text x="75.14999999999999" y="3.5069999999999997" class="c">│</text><use xlink:href="#2" y="3.674"></use><text x="0" y="7.181" class="c">│</text><text x="2.004" y="7.181" class="c">❯</text><text x="4.008" y="7.181" class="c">Textarea</text><text x="13.026" y="7.181" class="c">›</text><text x="75.14999999999999" y="7.181" class="c">│</text><text x="0" y="9.018" class="c">│</text><text x="6.012" y="9.018" class="c">Crisp</text><text x="12.024" y="9.018" class="c">and</text><text x="16.032" y="9.018" class="c">sweet</text><text x="22.043999999999997" y="9.018" class="c">Hint</text><text x="27.054" y="9.018" class="c">of</text><text x="30.059999999999995" y="9.018" class="c">citrus</text><text x="75.14999999999999" y="9.018" class="c">│</text><text x="0" y="10.855" class="c">│</text><text x="75.14999999999999" y="10.855" class="c">│</text><text x="0" y="12.692" class="c">│</text><text x="4.008" y="12.692" class="c">[</text><text x="6.012" y="12.692" class="c">Submit</text><text x="13.026" y="12.692" class="c">]</text><text x="16.032" y="12.692" class="c">[</text><text x="18.035999999999998" y="12.692" class="c">Cancel</text><text x="25.05" y="12.692" class="c">]</text><text x="75.14999999999999" y="12.692" class="c">│</text><use xlink:href="#2" y="12.859"></use><use xlink:href="#3" y="14.696"></use><use xlink:href="#4" y="16.533"></use></svg><svg x="152"><use xlink:href="#a"></use><use xlink:href="#b" x="75.996" y="12.684"></use><use xlink:href="#1" y="0"></use><use xlink:href="#5" y="1.837"></use><use xlink:href="#2" y="3.674"></use><use xlink:href="#6" y="5.511"></use><use xlink:href="#7" y="7.348"></use><use xlink:href="#2" y="9.185"></use><use xlink:href="#3" y="11.022"></use><use xlink:href="#4" y="12.859"></use></svg><svg x="228"><use xlink:href="#a"></use><use xlink:href="#b" x="75.996" y="12.684"></use><use xlink:href="#1" y="0"></use><use xlink:href="#5" y="1.837"></use><use xlink:href="#2" y="3.674"></use><use xlink:href="#6" y="5.511"></use><text x="0" y="9.018" class="c">│</text><text x="19.037999999999997" y="9.018" class="c">Hint</text><text x="24.048" y="9.018" class="c">of</text><text x="27.054" y="9.018" class="c">citrus█</text><text x="75.14999999999999" y="9.018" class="c">│</text><use xlink:href="#2" y="9.185"></use><use xlink:href="#8" y="11.022"></use><use xlink:href="#4" y="12.859"></use></svg><svg x="304"><use xlink:href="#a"></use><use xlink:href="#b" x="75.996" y="14.520999999999999"></use><use xlink:href="#1" y="0"></use><use xlink:href="#5" y="1.837"></use><use xlink:href="#2" y="3.674"></use><use xlink:href="#6" y="5.511"></use><use xlink:href="#7" y="7.348"></use><text x="0" y="10.855" class="c">│</text><text x="19.037999999999997" y="10.855" class="c">█</text><text x="75.14999999999999" y="10.855" class="c">│</text><use xlink:href="#2" y="11.022"></use><use xlink:href="#8" y="12.859"></use><use xlink:href="#4" y="14.696"></use></svg><svg x="380"><use xlink:href="#a"></use><use xlink:href="#b" x="75.996" y="14.520999999999999"></use><use xlink:href="#1" y="0"></use><use xlink:href="#5" y="1.837"></use><use xlink:href="#2" y="3.674"></use><use xlink:href="#6" y="5.511"></use><use xlink:href="#7" y="7.348"></use><text x="0" y="10.855" class="c">│</text><text x="19.037999999999997" y="10.855" class="c">S█</text><text x="75.14999999999999" y="10.855" class="c">│</text><use xlink:href="#2" y="11.022"></use><use xlink:href="#8" y="12.859"></use><use xlink:href="#4" y="14.696"></use></svg><svg x="456"><use xlink:href="#a"></use><use xlink:href="#b" x="75.996" y="14.520999999999999"></use><use xlink:href="#1" y="0"></use><use xlink:href="#5" y="1.837"></use><use xlink:href="#2" y="3.674"></use><use xlink:href="#6" y="5.511"></use><use xlink:href="#7" y="7.348"></use><text x="0" y="10.855" class="c">│</text><text x="19.037999999999997" y="10.855" class="c">Sl█</text><text x="75.14999999999999" y="10.855" class="c">│</text><use xlink:href="#2" y="11.022"></use><use xlink:href="#8" y="12.859"></use><use xlink:href="#4" y="14.696"></use></svg><svg x="532"><use xlink:href="#a"></use><use xlink:href="#b" x="75.996" y="14.520999999999999"></use><use xlink:href="#1" y="0"></use><use xlink:href="#5" y="1.837"></use><use xlink:href="#2" y="3.674"></use><use xlink:href="#6" y="5.511"></use><use xlink:href="#7" y="7.348"></use><text x="0" y="10.855" class="c">│</text><text x="19.037999999999997" y="10.855" class="c">Sli█</text><text x="75.14999999999999" y="10.855" class="c">│</text><use xlink:href="#2" y="11.022"></use><use xlink:href="#8" y="12.859"></use><use xlink:href="#4" y="14.696"></use></svg><svg x="608"><use xlink:href="#a"></use><use xlink:href="#b" x="75.996" y="14.520999999999999"></use><use xlink:href="#1" y="0"></use><use xlink:href="#5" y="1.837"></use><use xlink:href="#2" y="3.674"></use><use xlink:href="#6" y="5.511"></use><use xlink:href="#7" y="7.348"></use><text x="0" y="10.855" class="c">│</text><text x="19.037999999999997" y="10.855" class="c">Slig█</text><text x="75.14999999999999" y="10.855" class="c">│</text><use xlink:href="#2" y="11.022"></use><use xlink:href="#8" y="12.859"></use><use xlink:href="#4" y="14.696"></use></svg><svg x="684"><use xlink:href="#a"></use><use xlink:href="#b" x="75.996" y="14.520999999999999"></use><use xlink:href="#1" y="0"></use><use xlink:href="#5" y="1.837"></use><use xlink:href="#2" y="3.674"></use><use xlink:href="#6" y="5.511"></use><use xlink:href="#7" y="7.348"></use><text x="0" y="10.855" class="c">│</text><text x="19.037999999999997" y="10.855" class="c">Sligh█</text><text x="75.14999999999999" y="10.855" class="c">│</text><use xlink:href="#2" y="11.022"></use><use xlink:href="#8" y="12.859"></use><use xlink:href="#4" y="14.696"></use></svg><svg x="760"><use xlink:href="#a"></use><use xlink:href="#b" x="75.996" y="14.520999999999999"></use><use xlink:href="#1" y="0"></use><use xlink:href="#5" y="1.837"></use><use xlink:href="#2" y="3.674"></use><use xlink:href="#6" y="5.511"></use><use xlink:href="#7" y="7.348"></use><text x="0" y="10.855" class="c">│</text><text x="19.037999999999997" y="10.855" class="c">Slight█</text><text x="75.14999999999999" y="10.855" class="c">│</text><use xlink:href="#2" y="11.022"></use><use xlink:href="#8" y="12.859"></use><use xlink:href="#4" y="14.696"></use></svg><svg x="836"><use xlink:href="#a"></use><use xlink:href="#b" x="75.996" y="14.520999999999999"></use><use xlink:href="#1" y="0"></use><use xlink:href="#5" y="1.837"></use><use xlink:href="#2" y="3.674"></use><use xlink:href="#6" y="5.511"></use><use xlink:href="#7" y="7.348"></use><text x="0" y="10.855" class="c">│</text><text x="19.037999999999997" y="10.855" class="c">Slightl█</text><text x="75.14999999999999" y="10.855" class="c">│</text><use xlink:href="#2" y="11.022"></use><use xlink:href="#8" y="12.859"></use><use xlink:href="#4" y="14.696"></use></svg><svg x="912"><use xlink:href="#a"></use><use xlink:href="#b" x="75.996" y="14.520999999999999"></use><use xlink:href="#1" y="0"></use><use xlink:href="#5" y="1.837"></use><use xlink:href="#2" y="3.674"></use><use xlink:href="#6" y="5.511"></use><use xlink:href="#7" y="7.348"></use><text x="0" y="10.855" class="c">│</text><text x="19.037999999999997" y="10.855" class="c">Slightly█</text><text x="75.14999999999999" y="10.855" class="c">│</text><use xlink:href="#2" y="11.022"></use><use xlink:href="#8" y="12.859"></use><use xlink:href="#4" y="14.696"></use></svg><svg x="988"><use xlink:href="#a"></use><use xlink:href="#b" x="75.996" y="14.520999999999999"></use><use xlink:href="#1" y="0"></use><use xlink:href="#5" y="1.837"></use><use xlink:href="#2" y="3.674"></use><use xlink:href="#6" y="5.511"></use><use xlink:href="#7" y="7.348"></use><text x="0" y="10.855" class="c">│</text><text x="19.037999999999997" y="10.855" class="c">Slightly</text><text x="28.055999999999997" y="10.855" class="c">█</text><text x="75.14999999999999" y="10.855" class="c">│</text><use xlink:href="#2" y="11.022"></use><use xlink:href="#8" y="12.859"></use><use xlink:href="#4" y="14.696"></use></svg><svg x="1064"><use xlink:href="#a"></use><use xlink:href="#b" x="75.996" y="14.520999999999999"></use><use xlink:href="#1" y="0"></use><use xlink:href="#5" y="1.837"></use><use xlink:href="#2" y="3.674"></use><use xlink:href="#6" y="5.511"></use><use xlink:href="#7" y="7.348"></use><text x="0" y="10.855" class="c">│</text><text x="19.037999999999997" y="10.855" class="c">Slightly</text><text x="28.055999999999997" y="10.855" class="c">t█</text><text x="75.14999999999999" y="10.855" class="c">│</text><use xlink:href="#2" y="11.022"></use><use xlink:href="#8" y="12.859"></use><use xlink:href="#4" y="14.696"></use></svg><svg x="1140"><use xlink:href="#a"></use><use xlink:href="#b" x="75.996" y="14.520999999999999"></use><use xlink:href="#1" y="0"></use><use xlink:href="#5" y="1.837"></use><use xlink:href="#2" y="3.674"></use><use xlink:href="#6" y="5.511"></use><use xlink:href="#7" y="7.348"></use><text x="0" y="10.855" class="c">│</text><text x="19.037999999999997" y="10.855" class="c">Slightly</text><text x="28.055999999999997" y="10.855" class="c">ta█</text><text x="75.14999999999999" y="10.855" class="c">│</text><use xlink:href="#2" y="11.022"></use><use xlink:href="#8" y="12.859"></use><use xlink:href="#4" y="14.696"></use></svg><svg x="1216"><use xlink:href="#a"></use><use xlink:href="#b" x="75.996" y="14.520999999999999"></use><use xlink:href="#1" y="0"></use><use xlink:href="#5" y="1.837"></use><use xlink:href="#2" y="3.674"></use><use xlink:href="#6" y="5.511"></use><use xlink:href="#7" y="7.348"></use><text x="0" y="10.855" class="c">│</text><text x="19.037999999999997" y="10.855" class="c">Slightly</text><text x="28.055999999999997" y="10.855" class="c">tar█</text><text x="75.14999999999999" y="10.855" class="c">│</text><use xlink:href="#2" y="11.022"></use><use xlink:href="#8" y="12.859"></use><use xlink:href="#4" y="14.696"></use></svg><svg x="1292"><use xlink:href="#a"></use><use xlink:href="#b" x="75.996" y="14.520999999999999"></use><use xlink:href="#1" y="0"></use><use xlink:href="#5" y="1.837"></use><use xlink:href="#2" y="3.674"></use><use xlink:href="#6" y="5.511"></use><use xlink:href="#7" y="7.348"></use><use xlink:href="#9" y="9.185"></use><use xlink:href="#2" y="11.022"></use><use xlink:href="#8" y="12.859"></use><use xlink:href="#4" y="14.696"></use></svg><svg x="1368"><use xlink:href="#a"></use><use xlink:href="#b" x="0.996" y="16.358"></use><use xlink:href="#1" y="0"></use><use xlink:href="#5" y="1.837"></use><use xlink:href="#2" y="3.674"></use><use xlink:href="#6" y="5.511"></use><use xlink:href="#7" y="7.348"></use><use xlink:href="#9" y="9.185"></use><use xlink:href="#2" y="11.022"></use><use xlink:href="#8" y="12.859"></use><use xlink:href="#4" y="14.696"></use></svg></svg></g></g></svg></svg>