<svg xmlns="http://www.w3.org/2000/svg" xmlns:xlink="http://www.w3.org/1999/xlink" width="440" height="257.18"><rect width="440" height="257.18" rx="0" ry="0" class="a"></rect><svg height="257.18" viewBox="0 0 44 25.718" width="440" xmlns="http://www.w3.org/2000/svg" xmlns:xlink="http://www.w3.org/1999/xlink"><style>.a{fill:rgb(40,44,52)}.b{font-family:Consolas,"Courier New",Courier,"Liberation Mono",monospace}.c{fill:transparent}.d{fill:rgb(171,178,191);white-space:pre}</style><g font-family="Consolas, &quot;Courier New&quot;, Courier, &quot;Liberation Mono&quot;, monospace" font-size="1.67" class="b"><defs><symbol id="a"><rect height="14" width="44" x="0" y="0" class="c"></rect></symbol></defs><rect height="25.718" width="44" class="a"></rect><svg x="0" y="0" width="44"><svg x="0"><use xlink:href="#a"></use><text x="0" y="1.67" class="d">Date</text><text x="5.01" y="1.67" class="d">widget</text><text x="0" y="3.5069999999999997" class="d">───────────</text><text x="9.017999999999999" y="7.181" class="d">July</text><text x="14.027999999999999" y="7.181" class="d">2026</text><text x="1.002" y="9.018" class="d">Mo</text><text x="5.01" y="9.018" class="d">Tu</text><text x="9.017999999999999" y="9.018" class="d">We</text><text x="13.026" y="9.018" class="d">Th</text><text x="17.034" y="9.018" class="d">Fr</text><text x="21.041999999999998" y="9.018" class="d">Sa</text><text x="25.05" y="9.018" class="d">Su</text><text x="10.02" y="10.855" class="d">1</text><text x="14.027999999999999" y="10.855" class="d">2</text><text x="18.035999999999998" y="10.855" class="d">3</text><text x="22.043999999999997" y="10.855" class="d">4</text><text x="26.052" y="10.855" class="d">5</text><text x="2.004" y="12.692" class="d">6</text><text x="6.012" y="12.692" class="d">7</text><text x="10.02" y="12.692" class="d">8</text><text x="14.027999999999999" y="12.692" class="d">9</text><text x="17.034" y="12.692" class="d">10</text><text x="21.041999999999998" y="12.692" class="d">11</text><text x="25.05" y="12.692" class="d">12</text><text x="1.002" y="14.529" class="d">13</text><text x="5.01" y="14.529" class="d">14</text><text x="8.016" y="14.529" class="d">[15]</text><text x="13.026" y="14.529" class="d">16</text><text x="17.034" y="14.529" class="d">17</text><text x="21.041999999999998" y="14.529" class="d">18</text><text x="25.05" y="14.529" class="d">19</text><text x="1.002" y="16.366" class="d">20</text><text x="5.01" y="16.366" class="d">21</text><text x="9.017999999999999" y="16.366" class="d">22</text><text x="13.026" y="16.366" class="d">23</text><text x="17.034" y="16.366" class="d">24</text><text x="21.041999999999998" y="16.366" class="d">25</text><text x="25.05" y="16.366" class="d">26</text><text x="1.002" y="18.203000000000003" class="d">27</text><text x="5.01" y="18.203000000000003" class="d">28</text><text x="9.017999999999999" y="18.203000000000003" class="d">29</text><text x="13.026" y="18.203000000000003" class="d">30</text><text x="17.034" y="18.203000000000003" class="d">31</text><text x="0" y="20.04" class="d">←/→</text><text x="4.008" y="20.04" class="d">day</text><text x="8.016" y="20.04" class="d">·</text><text x="10.02" y="20.04" class="d">↑/↓</text><text x="14.027999999999999" y="20.04" class="d">week</text><text x="19.037999999999997" y="20.04" class="d">·</text><text x="21.041999999999998" y="20.04" class="d">PgUp/PgDn</text><text x="31.061999999999998" y="20.04" class="d">month</text><text x="37.074" y="20.04" class="d">·</text><text x="39.077999999999996" y="20.04" class="d">↵</text><text x="41.082" y="20.04" class="d">acc</text><text x="0" y="21.876999999999995" class="d">ept</text><text x="4.008" y="21.876999999999995" class="d">·</text><text x="6.012" y="21.876999999999995" class="d">esc</text><text x="10.02" y="21.876999999999995" class="d">cancel</text></svg></svg></g></svg></svg>