<svg xmlns="http://www.w3.org/2000/svg" xmlns:xlink="http://www.w3.org/1999/xlink" width="480" height="183.70000000000002"><rect width="480" height="183.70000000000002" rx="0" ry="0" class="a"></rect><svg height="183.70000000000002" viewBox="0 0 48 18.37" width="480" xmlns="http://www.w3.org/2000/svg" xmlns:xlink="http://www.w3.org/1999/xlink"><style>.a{fill:rgb(250,250,250)}.b{font-family:Consolas,"Courier New",Courier,"Liberation Mono",monospace}.c{fill:rgb(90,96,105);white-space:pre}.d{fill:rgb(0,128,128);font-weight:bold;white-space:pre}.e{fill:rgb(56,58,66);font-weight:bold;white-space:pre}.f{fill:rgb(56,58,66);white-space:pre}.g{fill:rgb(128,128,0);font-weight:bold;white-space:pre}.h{fill:transparent}.i{fill:rgb(82,139,255)}.k{animation-duration:7.375s;animation-iteration-count:infinite;animation-name:j;animation-timing-function:steps(1,end)}.l{fill:rgb(90,96,105);font-weight:bold;white-space:pre}.m{fill:rgb(0,128,0);white-space:pre}@keyframes j{0%{transform:translateX(-0px)}0%{transform:translateX(-48px)}18.6%{transform:translateX(-96px)}29.7%{transform:translateX(-144px)}40.7%{transform:translateX(-192px)}51.7%{transform:translateX(-240px)}62.7%{transform:translateX(-288px)}100%{transform:translateX(-336px)}}</style><g font-family="Consolas, &quot;Courier New&quot;, Courier, &quot;Liberation Mono&quot;, monospace" font-size="1.67" class="b"><defs><symbol id="1"><text x="0" y="1.67" class="c">↑/↓</text><text x="4.008" y="1.67" class="c">move</text><text x="9.017999999999999" y="1.67" class="c">·</text><text x="11.021999999999998" y="1.67" class="c">↵</text><text x="13.026" y="1.67" class="c">select</text><text x="20.04" y="1.67" class="c">·</text><text x="22.043999999999997" y="1.67" class="c">esc</text><text x="26.052" y="1.67" class="c">back</text><text x="31.061999999999998" y="1.67" class="c">·</text><text x="33.065999999999995" y="1.67" class="c">q</text><text x="35.06999999999999" y="1.67" class="c">quit</text><text x="40.08" y="1.67" class="c">·</text><text x="42.083999999999996" y="1.67" class="c">?</text><text x="44.087999999999994" y="1.67" class="c">help</text></symbol><symbol id="2"><text x="0" y="1.67" class="c">Suggest</text><text x="8.016" y="1.67" class="c">widget</text><text x="15.029999999999998" y="1.67" class="c">›</text><text x="17.034" y="1.67" class="c">Suggest</text></symbol><symbol id="3"><text x="0" y="1.67" class="c">↑/↓</text><text x="4.008" y="1.67" class="c">move</text><text x="9.017999999999999" y="1.67" class="c">·</text><text x="11.021999999999998" y="1.67" class="c">↵</text><text x="13.026" y="1.67" class="c">accept</text><text x="20.04" y="1.67" class="c">·</text><text x="22.043999999999997" y="1.67" class="c">esc</text><text x="26.052" y="1.67" class="c">cancel</text></symbol><symbol id="4"><text x="0" y="1.67" class="d">❯</text><text x="2.004" y="1.67" class="e">Suggest</text><text x="11.021999999999998" y="1.67" class="f">Ch</text><text x="13.026" y="1.67" class="d">█</text></symbol><symbol id="5"><text x="11.021999999999998" y="1.67" class="d">❯</text><text x="13.026" y="1.67" class="g">Ch</text><text x="15.029999999999998" y="1.67" class="d">erry</text></symbol><symbol id="a"><rect height="10" width="48" x="0" y="0" class="h"></rect></symbol><symbol id="b"><rect height="1.837" width="1.1022" class="i"></rect></symbol></defs><rect height="18.37" width="48" class="a"></rect><g class="k"><svg x="0" y="0" width="384"><svg x="0"><use xlink:href="#a"></use><use xlink:href="#b" x="-0.0040000000000000036" y="0"></use></svg><svg x="48"><use xlink:href="#a"></use><use xlink:href="#b" x="47.996" y="9.01"></use><text x="0" y="1.67" class="c">Suggest</text><text x="8.016" y="1.67" class="c">widget</text><text x="0" y="3.5069999999999997" class="d">❯</text><text x="2.004" y="3.5069999999999997" class="e">Suggest</text><text x="10.02" y="3.5069999999999997" class="l">›</text><text x="2.004" y="7.181" class="m">[</text><text x="4.008" y="7.181" class="m">Submit</text><text x="11.021999999999998" y="7.181" class="m">]</text><text x="14.027999999999999" y="7.181" class="m">[</text><text x="16.032" y="7.181" class="m">Cancel</text><text x="23.045999999999996" y="7.181" class="m">]</text><use xlink:href="#1" y="9.185"></use></svg><svg x="96"><use xlink:href="#a"></use><use xlink:href="#b" x="47.996" y="5.336"></use><use xlink:href="#2" y="0"></use><text x="0" y="3.5069999999999997" class="d">❯</text><text x="2.004" y="3.5069999999999997" class="e">Suggest</text><use xlink:href="#1" y="5.511"></use></svg><svg x="144"><use xlink:href="#a"></use><use xlink:href="#b" x="31.996" y="14.520999999999999"></use><use xlink:href="#2" y="0"></use><text x="0" y="3.5069999999999997" class="d">❯</text><text x="2.004" y="3.5069999999999997" class="e">Suggest</text><text x="11.021999999999998" y="3.5069999999999997" class="d">█</text><text x="13.026" y="5.343999999999999" class="f">Apple</text><text x="13.026" y="7.181" class="f">Apricot</text><text x="13.026" y="9.018" class="f">Banana</text><text x="13.026" y="10.855" class="f">Cherry</text><text x="13.026" y="12.692" class="f">Mango</text><use xlink:href="#3" y="14.696"></use></svg><svg x="192"><use xlink:href="#a"></use><use xlink:href="#b" x="31.996" y="9.01"></use><use xlink:href="#2" y="0"></use><text x="0" y="3.5069999999999997" class="d">❯</text><text x="2.004" y="3.5069999999999997" class="e">Suggest</text><text x="11.021999999999998" y="3.5069999999999997" class="f">C</text><text x="12.024" y="3.5069999999999997" class="d">█</text><text x="13.026" y="5.343999999999999" class="g">C</text><text x="14.027999999999999" y="5.343999999999999" class="f">herry</text><text x="13.026" y="7.181" class="f">Apri</text><text x="17.034" y="7.181" class="g">c</text><text x="18.035999999999998" y="7.181" class="f">ot</text><use xlink:href="#3" y="9.185"></use></svg><svg x="240"><use xlink:href="#a"></use><use xlink:href="#b" x="31.996" y="7.173"></use><use xlink:href="#2" y="0"></use><use xlink:href="#4" y="1.837"></use><text x="13.026" y="5.343999999999999" class="g">Ch</text><text x="15.029999999999998" y="5.343999999999999" class="f">erry</text><use xlink:href="#3" y="7.348"></use></svg><svg x="288"><use xlink:href="#a"></use><use xlink:href="#b" x="31.996" y="7.173"></use><use xlink:href="#2" y="0"></use><use xlink:href="#4" y="1.837"></use><use xlink:href="#5" y="3.674"></use><use xlink:href="#3" y="7.348"></use></svg><svg x="336"><use xlink:href="#a"></use><use xlink:href="#b" x="32.996" y="7.173"></use><use xlink:href="#2" y="0"></use><use xlink:href="#4" y="1.837"></use><use xlink:href="#5" y="3.674"></use><use xlink:href="#3" y="7.348"></use></svg></svg></g></g></svg></svg>