<svg xmlns="http://www.w3.org/2000/svg" xmlns:xlink="http://www.w3.org/1999/xlink" width="440" height="275.55"><rect width="440" height="275.55" rx="0" ry="0" class="a"></rect><svg height="275.55" viewBox="0 0 44 27.555" width="440" xmlns="http://www.w3.org/2000/svg" xmlns:xlink="http://www.w3.org/1999/xlink"><style>.a{fill:rgb(250,250,250)}.b{font-family:Consolas,"Courier New",Courier,"Liberation Mono",monospace}.c{fill:transparent}.d{fill:rgb(56,58,66);white-space:pre}</style><g font-family="Consolas, &quot;Courier New&quot;, Courier, &quot;Liberation Mono&quot;, monospace" font-size="1.67" class="b"><defs><symbol id="a"><rect height="15" width="44" x="0" y="0" class="c"></rect></symbol></defs><rect height="27.555" width="44" class="a"></rect><svg x="0" y="0" width="44"><svg x="0"><use xlink:href="#a"></use><text x="0" y="1.67" class="d">MultiSelect</text><text x="12.024" y="1.67" class="d">with</text><text x="17.034" y="1.67" class="d">groups</text><text x="24.048" y="1.67" class="d">›</text><text x="26.052" y="1.67" class="d">MultiSelect</text><text x="0" y="3.5069999999999997" class="d">❯</text><text x="2.004" y="3.5069999999999997" class="d">Basket</text><text x="10.02" y="3.5069999999999997" class="d">Fruit</text><text x="10.02" y="5.343999999999999" class="d">❯</text><text x="12.024" y="5.343999999999999" class="d">◼</text><text x="14.027999999999999" y="5.343999999999999" class="d">Apple</text><text x="12.024" y="7.181" class="d">◻</text><text x="14.027999999999999" y="7.181" class="d">Banana</text><text x="10.02" y="9.018" class="d">──────────────────────────────────</text><text x="0" y="10.855" class="d">──────────────────────────────────────────</text><text x="10.02" y="12.692" class="d">Vegetables</text><text x="12.024" y="14.529" class="d">◻</text><text x="14.027999999999999" y="14.529" class="d">Carrot</text><text x="12.024" y="16.366" class="d">◻</text><text x="14.027999999999999" y="16.366" class="d">Tomato</text><text x="12.024" y="18.203000000000003" class="d">◻</text><text x="14.027999999999999" y="18.203000000000003" class="d">Leek</text><text x="19.037999999999997" y="18.203000000000003" class="d">(out</text><text x="24.048" y="18.203000000000003" class="d">of</text><text x="27.054" y="18.203000000000003" class="d">season)</text><text x="0" y="21.876999999999995" class="d">↑/↓</text><text x="4.008" y="21.876999999999995" class="d">move</text><text x="9.017999999999999" y="21.876999999999995" class="d">·</text><text x="11.021999999999998" y="21.876999999999995" class="d">↵</text><text x="13.026" y="21.876999999999995" class="d">accept</text><text x="20.04" y="21.876999999999995" class="d">·</text><text x="22.043999999999997" y="21.876999999999995" class="d">esc</text><text x="26.052" y="21.876999999999995" class="d">cancel</text></svg></svg></g></svg></svg>