<svg xmlns="http://www.w3.org/2000/svg" xmlns:xlink="http://www.w3.org/1999/xlink" width="760" height="183.70000000000002"><rect width="760" height="183.70000000000002" rx="0" ry="0" class="a"></rect><svg height="183.70000000000002" viewBox="0 0 76 18.37" width="760" xmlns="http://www.w3.org/2000/svg" xmlns:xlink="http://www.w3.org/1999/xlink"><style>.a{fill:rgb(250,250,250)}.b{font-family:Consolas,"Courier New",Courier,"Liberation Mono",monospace}.c{fill:rgb(56,58,66);white-space:pre}.d{fill:transparent}.e{fill:rgb(82,139,255)}.g{animation-duration:11.438s;animation-iteration-count:infinite;animation-name:f;animation-timing-function:steps(1,end)}@keyframes f{0%{transform:translateX(-0px)}0%{transform:translateX(-76px)}12%{transform:translateX(-152px)}19.1%{transform:translateX(-228px)}26.2%{transform:translateX(-304px)}33.3%{transform:translateX(-380px)}40.4%{transform:translateX(-456px)}47.5%{transform:translateX(-532px)}54.6%{transform:translateX(-608px)}61.7%{transform:translateX(-684px)}68.9%{transform:translateX(-760px)}76%{transform:translateX(-836px)}100%{transform:translateX(-912px)}}</style><g font-family="Consolas, &quot;Courier New&quot;, Courier, &quot;Liberation Mono&quot;, monospace" font-size="1.67" class="b"><defs><symbol id="1"><text x="0" y="1.67" class="c">├──────────────────────────────────────────────────────────────────────────┤</text></symbol><symbol id="2"><text x="0" y="1.67" class="c">│</text><text x="75.14999999999999" y="1.67" class="c">│</text></symbol><symbol id="3"><text x="0" y="1.67" class="c">│</text><text x="2.004" y="1.67" class="c">↑/↓</text><text x="6.012" y="1.67" class="c">move</text><text x="11.021999999999998" y="1.67" class="c">·</text><text x="13.026" y="1.67" class="c">↵</text><text x="15.029999999999998" y="1.67" class="c">select</text><text x="22.043999999999997" y="1.67" class="c">·</text><text x="24.048" y="1.67" class="c">esc</text><text x="28.055999999999997" y="1.67" class="c">back</text><text x="33.065999999999995" y="1.67" class="c">·</text><text x="35.06999999999999" y="1.67" class="c">q</text><text x="37.074" y="1.67" class="c">quit</text><text x="42.083999999999996" y="1.67" class="c">·</text><text x="44.087999999999994" y="1.67" class="c">?</text><text x="46.09199999999999" y="1.67" class="c">help</text><text x="75.14999999999999" y="1.67" class="c">│</text></symbol><symbol id="4"><text x="0" y="1.67" class="c">╰──────────────────────────────────────────────────────────────────────────╯</text></symbol><symbol id="5"><text x="0" y="1.67" class="c">╭──────────────────────────────────────────────────────────────────────────╮</text></symbol><symbol id="6"><text x="0" y="1.67" class="c">│</text><text x="2.004" y="1.67" class="c">Number</text><text x="9.017999999999999" y="1.67" class="c">widget</text><text x="16.032" y="1.67" class="c">›</text><text x="18.035999999999998" y="1.67" class="c">Number</text><text x="75.14999999999999" y="1.67" class="c">│</text></symbol><symbol id="7"><text x="0" y="1.67" class="c">│</text><text x="2.004" y="1.67" class="c">↑/↓</text><text x="6.012" y="1.67" class="c">adjust</text><text x="13.026" y="1.67" class="c">·</text><text x="15.029999999999998" y="1.67" class="c">↵</text><text x="17.034" y="1.67" class="c">accept</text><text x="24.048" y="1.67" class="c">·</text><text x="26.052" y="1.67" class="c">esc</text><text x="30.059999999999995" y="1.67" class="c">cancel</text><text x="75.14999999999999" y="1.67" class="c">│</text></symbol><symbol id="8"><text x="0" y="1.67" class="c">│</text><text x="2.004" y="1.67" class="c">❯</text><text x="4.008" y="1.67" class="c">Basket</text><text x="11.021999999999998" y="1.67" class="c">weight</text><text x="18.035999999999998" y="1.67" class="c">(g)</text><text x="23.045999999999996" y="1.67" class="c">4200█</text><text x="75.14999999999999" y="1.67" class="c">│</text></symbol><symbol id="a"><rect height="10" width="76" x="0" y="0" class="d"></rect></symbol><symbol id="b"><rect height="1.837" width="1.1022" class="e"></rect></symbol></defs><rect height="18.37" width="76" class="a"></rect><g class="g"><svg x="0" y="0" width="988"><svg x="0"><use xlink:href="#a"></use><use xlink:href="#b" x="-0.0040000000000000036" y="0"></use></svg><svg x="76"><use xlink:href="#a"></use><use xlink:href="#b" x="75.996" y="16.358"></use><use xlink:href="#1" y="0"></use><use xlink:href="#2" y="1.837"></use><text x="0" y="5.343999999999999" class="c">│</text><text x="2.004" y="5.343999999999999" class="c">❯</text><text x="4.008" y="5.343999999999999" class="c">Number</text><text x="11.021999999999998" y="5.343999999999999" class="c">›</text><text x="75.14999999999999" y="5.343999999999999" class="c">│</text><text x="0" y="7.181" class="c">│</text><text x="6.012" y="7.181" class="c">1200</text><text x="75.14999999999999" y="7.181" class="c">│</text><use xlink:href="#2" y="7.348"></use><text x="0" y="10.855" class="c">│</text><text x="4.008" y="10.855" class="c">▼</text><text x="75.14999999999999" y="10.855" class="c">│</text><use xlink:href="#2" y="11.022"></use><use xlink:href="#1" y="12.859"></use><use xlink:href="#3" y="14.696"></use><use xlink:href="#4" y="16.533"></use></svg><svg x="152"><use xlink:href="#a"></use><use xlink:href="#b" x="75.996" y="14.520999999999999"></use><use xlink:href="#5" y="0"></use><use xlink:href="#6" y="1.837"></use><use xlink:href="#1" y="3.674"></use><use xlink:href="#2" y="5.511"></use><text x="0" y="9.018" class="c">│</text><text x="2.004" y="9.018" class="c">❯</text><text x="4.008" y="9.018" class="c">Basket</text><text x="11.021999999999998" y="9.018" class="c">weight</text><text x="18.035999999999998" y="9.018" class="c">(g)</text><text x="23.045999999999996" y="9.018" class="c">1200</text><text x="75.14999999999999" y="9.018" class="c">│</text><use xlink:href="#2" y="9.185"></use><use xlink:href="#1" y="11.022"></use><use xlink:href="#3" y="12.859"></use><use xlink:href="#4" y="14.696"></use></svg><svg x="228"><use xlink:href="#a"></use><use xlink:href="#b" x="75.996" y="14.520999999999999"></use><use xlink:href="#5" y="0"></use><use xlink:href="#6" y="1.837"></use><use xlink:href="#1" y="3.674"></use><use xlink:href="#2" y="5.511"></use><text x="0" y="9.018" class="c">│</text><text x="2.004" y="9.018" class="c">❯</text><text x="4.008" y="9.018" class="c">Basket</text><text x="11.021999999999998" y="9.018" class="c">weight</text><text x="18.035999999999998" y="9.018" class="c">(g)</text><text x="23.045999999999996" y="9.018" class="c">1200█</text><text x="75.14999999999999" y="9.018" class="c">│</text><use xlink:href="#2" y="9.185"></use><use xlink:href="#1" y="11.022"></use><use xlink:href="#7" y="12.859"></use><use xlink:href="#4" y="14.696"></use></svg><svg x="304"><use xlink:href="#a"></use><use xlink:href="#b" x="75.996" y="14.520999999999999"></use><use xlink:href="#5" y="0"></use><use xlink:href="#6" y="1.837"></use><use xlink:href="#1" y="3.674"></use><use xlink:href="#2" y="5.511"></use><text x="0" y="9.018" class="c">│</text><text x="2.004" y="9.018" class="c">❯</text><text x="4.008" y="9.018" class="c">Basket</text><text x="11.021999999999998" y="9.018" class="c">weight</text><text x="18.035999999999998" y="9.018" class="c">(g)</text><text x="23.045999999999996" y="9.018" class="c">120█</text><text x="75.14999999999999" y="9.018" class="c">│</text><use xlink:href="#2" y="9.185"></use><use xlink:href="#1" y="11.022"></use><use xlink:href="#7" y="12.859"></use><use xlink:href="#4" y="14.696"></use></svg><svg x="380"><use xlink:href="#a"></use><use xlink:href="#b" x="75.996" y="14.520999999999999"></use><use xlink:href="#5" y="0"></use><use xlink:href="#6" y="1.837"></use><use xlink:href="#1" y="3.674"></use><use xlink:href="#2" y="5.511"></use><text x="0" y="9.018" class="c">│</text><text x="2.004" y="9.018" class="c">❯</text><text x="4.008" y="9.018" class="c">Basket</text><text x="11.021999999999998" y="9.018" class="c">weight</text><text x="18.035999999999998" y="9.018" class="c">(g)</text><text x="23.045999999999996" y="9.018" class="c">12█</text><text x="75.14999999999999" y="9.018" class="c">│</text><use xlink:href="#2" y="9.185"></use><use xlink:href="#1" y="11.022"></use><use xlink:href="#7" y="12.859"></use><use xlink:href="#4" y="14.696"></use></svg><svg x="456"><use xlink:href="#a"></use><use xlink:href="#b" x="75.996" y="14.520999999999999"></use><use xlink:href="#5" y="0"></use><use xlink:href="#6" y="1.837"></use><use xlink:href="#1" y="3.674"></use><use xlink:href="#2" y="5.511"></use><text x="0" y="9.018" class="c">│</text><text x="2.004" y="9.018" class="c">❯</text><text x="4.008" y="9.018" class="c">Basket</text><text x="11.021999999999998" y="9.018" class="c">weight</text><text x="18.035999999999998" y="9.018" class="c">(g)</text><text x="23.045999999999996" y="9.018" class="c">1█</text><text x="75.14999999999999" y="9.018" class="c">│</text><use xlink:href="#2" y="9.185"></use><use xlink:href="#1" y="11.022"></use><use xlink:href="#7" y="12.859"></use><use xlink:href="#4" y="14.696"></use></svg><svg x="532"><use xlink:href="#a"></use><use xlink:href="#b" x="75.996" y="14.520999999999999"></use><use xlink:href="#5" y="0"></use><use xlink:href="#6" y="1.837"></use><use xlink:href="#1" y="3.674"></use><use xlink:href="#2" y="5.511"></use><text x="0" y="9.018" class="c">│</text><text x="2.004" y="9.018" class="c">❯</text><text x="4.008" y="9.018" class="c">Basket</text><text x="11.021999999999998" y="9.018" class="c">weight</text><text x="18.035999999999998" y="9.018" class="c">(g)</text><text x="23.045999999999996" y="9.018" class="c">█</text><text x="75.14999999999999" y="9.018" class="c">│</text><use xlink:href="#2" y="9.185"></use><use xlink:href="#1" y="11.022"></use><use xlink:href="#7" y="12.859"></use><use xlink:href="#4" y="14.696"></use></svg><svg x="608"><use xlink:href="#a"></use><use xlink:href="#b" x="75.996" y="14.520999999999999"></use><use xlink:href="#5" y="0"></use><use xlink:href="#6" y="1.837"></use><use xlink:href="#1" y="3.674"></use><use xlink:href="#2" y="5.511"></use><text x="0" y="9.018" class="c">│</text><text x="2.004" y="9.018" class="c">❯</text><text x="4.008" y="9.018" class="c">Basket</text><text x="11.021999999999998" y="9.018" class="c">weight</text><text x="18.035999999999998" y="9.018" class="c">(g)</text><text x="23.045999999999996" y="9.018" class="c">4█</text><text x="75.14999999999999" y="9.018" class="c">│</text><use xlink:href="#2" y="9.185"></use><use xlink:href="#1" y="11.022"></use><use xlink:href="#7" y="12.859"></use><use xlink:href="#4" y="14.696"></use></svg><svg x="684"><use xlink:href="#a"></use><use xlink:href="#b" x="75.996" y="14.520999999999999"></use><use xlink:href="#5" y="0"></use><use xlink:href="#6" y="1.837"></use><use xlink:href="#1" y="3.674"></use><use xlink:href="#2" y="5.511"></use><text x="0" y="9.018" class="c">│</text><text x="2.004" y="9.018" class="c">❯</text><text x="4.008" y="9.018" class="c">Basket</text><text x="11.021999999999998" y="9.018" class="c">weight</text><text x="18.035999999999998" y="9.018" class="c">(g)</text><text x="23.045999999999996" y="9.018" class="c">42█</text><text x="75.14999999999999" y="9.018" class="c">│</text><use xlink:href="#2" y="9.185"></use><use xlink:href="#1" y="11.022"></use><use xlink:href="#7" y="12.859"></use><use xlink:href="#4" y="14.696"></use></svg><svg x="760"><use xlink:href="#a"></use><use xlink:href="#b" x="75.996" y="14.520999999999999"></use><use xlink:href="#5" y="0"></use><use xlink:href="#6" y="1.837"></use><use xlink:href="#1" y="3.674"></use><use xlink:href="#2" y="5.511"></use><text x="0" y="9.018" class="c">│</text><text x="2.004" y="9.018" class="c">❯</text><text x="4.008" y="9.018" class="c">Basket</text><text x="11.021999999999998" y="9.018" class="c">weight</text><text x="18.035999999999998" y="9.018" class="c">(g)</text><text x="23.045999999999996" y="9.018" class="c">420█</text><text x="75.14999999999999" y="9.018" class="c">│</text><use xlink:href="#2" y="9.185"></use><use xlink:href="#1" y="11.022"></use><use xlink:href="#7" y="12.859"></use><use xlink:href="#4" y="14.696"></use></svg><svg x="836"><use xlink:href="#a"></use><use xlink:href="#b" x="75.996" y="14.520999999999999"></use><use xlink:href="#5" y="0"></use><use xlink:href="#6" y="1.837"></use><use xlink:href="#1" y="3.674"></use><use xlink:href="#2" y="5.511"></use><use xlink:href="#8" y="7.348"></use><use xlink:href="#2" y="9.185"></use><use xlink:href="#1" y="11.022"></use><use xlink:href="#7" y="12.859"></use><use xlink:href="#4" y="14.696"></use></svg><svg x="912"><use xlink:href="#a"></use><use xlink:href="#b" x="0.996" y="16.358"></use><use xlink:href="#5" y="0"></use><use xlink:href="#6" y="1.837"></use><use xlink:href="#1" y="3.674"></use><use xlink:href="#2" y="5.511"></use><use xlink:href="#8" y="7.348"></use><use xlink:href="#2" y="9.185"></use><use xlink:href="#1" y="11.022"></use><use xlink:href="#7" y="12.859"></use><use xlink:href="#4" y="14.696"></use></svg></svg></g></g></svg></svg>