<svg xmlns="http://www.w3.org/2000/svg" xmlns:xlink="http://www.w3.org/1999/xlink" width="760" height="257.18"><rect width="760" height="257.18" rx="0" ry="0" class="a"></rect><svg height="257.18" viewBox="0 0 76 25.718" width="760" xmlns="http://www.w3.org/2000/svg" xmlns:xlink="http://www.w3.org/1999/xlink"><style>.a{fill:rgb(40,44,52)}.b{font-family:Consolas,"Courier New",Courier,"Liberation Mono",monospace}.c{fill:rgb(0,128,128);white-space:pre}.d{fill:transparent}.e{fill:rgb(82,139,255)}.f{fill:rgb(128,128,128);white-space:pre}.g{fill:rgb(0,128,128);font-weight:bold;white-space:pre}.h{fill:rgb(171,178,191);font-weight:bold;white-space:pre}.i{fill:rgb(171,178,191);white-space:pre}.j{fill:rgb(128,128,0);font-weight:bold;white-space:pre}</style><g font-family="Consolas, &quot;Courier New&quot;, Courier, &quot;Liberation Mono&quot;, monospace" font-size="1.67" class="b"><defs><symbol id="1"><text x="0" y="1.67" class="c">+--------------------------------------------------------------------------+</text></symbol><symbol id="2"><text x="0" y="1.67" class="c">|</text><text x="75.14999999999999" y="1.67" class="c">|</text></symbol><symbol id="a"><rect height="14" width="76" x="0" y="0" class="d"></rect></symbol><symbol id="b"><rect height="1.837" width="1.1022" class="e"></rect></symbol></defs><rect height="25.718" width="76" class="a"></rect><svg x="0" y="0" width="76"><svg x="0"><use xlink:href="#a"></use><use xlink:href="#b" x="75.996" y="21.869"></use><use xlink:href="#1" y="0"></use><text x="0" y="3.5069999999999997" class="c">|</text><text x="2.004" y="3.5069999999999997" class="f">Search</text><text x="9.017999999999999" y="3.5069999999999997" class="f">widget</text><text x="16.032" y="3.5069999999999997" class="f">&gt;</text><text x="18.035999999999998" y="3.5069999999999997" class="f">Search</text><text x="75.14999999999999" y="3.5069999999999997" class="c">|</text><use xlink:href="#1" y="3.674"></use><use xlink:href="#2" y="5.511"></use><text x="0" y="9.018" class="c">|</text><text x="2.004" y="9.018" class="g">&gt;</text><text x="4.008" y="9.018" class="h">Vegetable</text><text x="15.029999999999998" y="9.018" class="g">|</text><text x="75.14999999999999" y="9.018" class="c">|</text><text x="0" y="10.855" class="c">|</text><text x="15.029999999999998" y="10.855" class="g">(*)</text><text x="19.037999999999997" y="10.855" class="g">Carrot</text><text x="75.14999999999999" y="10.855" class="c">|</text><text x="0" y="12.692" class="c">|</text><text x="15.029999999999998" y="12.692" class="i">(</text><text x="17.034" y="12.692" class="i">)</text><text x="19.037999999999997" y="12.692" class="i">Potato</text><text x="75.14999999999999" y="12.692" class="c">|</text><text x="0" y="14.529" class="c">|</text><text x="15.029999999999998" y="14.529" class="i">(</text><text x="17.034" y="14.529" class="i">)</text><text x="19.037999999999997" y="14.529" class="i">Onion</text><text x="75.14999999999999" y="14.529" class="c">|</text><text x="0" y="16.366" class="c">|</text><text x="4.008" y="16.366" class="j">v</text><text x="75.14999999999999" y="16.366" class="c">|</text><use xlink:href="#2" y="16.533"></use><use xlink:href="#1" y="18.37"></use><text x="0" y="21.876999999999995" class="c">|</text><text x="2.004" y="21.876999999999995" class="f">^/v</text><text x="6.012" y="21.876999999999995" class="f">move</text><text x="11.021999999999998" y="21.876999999999995" class="f">*</text><text x="13.026" y="21.876999999999995" class="f">&lt;</text><text x="15.029999999999998" y="21.876999999999995" class="f">accept</text><text x="22.043999999999997" y="21.876999999999995" class="f">*</text><text x="24.048" y="21.876999999999995" class="f">esc</text><text x="28.055999999999997" y="21.876999999999995" class="f">cancel</text><text x="75.14999999999999" y="21.876999999999995" class="c">|</text><use xlink:href="#1" y="22.044"></use></svg></svg></g></svg></svg>