<svg xmlns="http://www.w3.org/2000/svg" xmlns:xlink="http://www.w3.org/1999/xlink" width="420" height="257.18"><rect width="420" height="257.18" rx="0" ry="0" class="a"></rect><svg height="257.18" viewBox="0 0 42 25.718" width="420" xmlns="http://www.w3.org/2000/svg" xmlns:xlink="http://www.w3.org/1999/xlink"><style>.a{fill:rgb(250,250,250)}.b{font-family:Consolas,"Courier New",Courier,"Liberation Mono",monospace}.c{fill:transparent}.d{fill:rgb(82,139,255)}.e{fill:rgb(0,128,128);font-weight:bold;white-space:pre}.f{fill:rgb(90,96,105);white-space:pre}.g{fill:rgb(56,58,66);white-space:pre}</style><g font-family="Consolas, &quot;Courier New&quot;, Courier, &quot;Liberation Mono&quot;, monospace" font-size="1.67" class="b"><defs><symbol id="a"><rect height="14" width="42" x="0" y="0" class="c"></rect></symbol><symbol id="b"><rect height="1.837" width="1.1022" class="d"></rect></symbol></defs><rect height="25.718" width="42" class="a"></rect><svg x="0" y="0" width="42"><svg x="0"><use xlink:href="#a"></use><use xlink:href="#b" x="41.996" y="18.195"></use><text x="0" y="1.67" class="e">Calendar</text><text x="0" y="3.5069999999999997" class="f">────────</text><text x="9.017999999999999" y="5.343999999999999" class="e">July</text><text x="14.027999999999999" y="5.343999999999999" class="e">2026</text><text x="1.002" y="7.181" class="f">Mo</text><text x="5.01" y="7.181" class="f">Tu</text><text x="9.017999999999999" y="7.181" class="f">We</text><text x="13.026" y="7.181" class="f">Th</text><text x="17.034" y="7.181" class="f">Fr</text><text x="21.041999999999998" y="7.181" class="f">Sa</text><text x="25.05" y="7.181" class="f">Su</text><text x="10.02" y="9.018" class="g">1</text><text x="14.027999999999999" y="9.018" class="g">2</text><text x="18.035999999999998" y="9.018" class="g">3</text><text x="22.043999999999997" y="9.018" class="g">4</text><text x="26.052" y="9.018" class="g">5</text><text x="2.004" y="10.855" class="g">6</text><text x="6.012" y="10.855" class="g">7</text><text x="10.02" y="10.855" class="g">8</text><text x="14.027999999999999" y="10.855" class="g">9</text><text x="17.034" y="10.855" class="g">10</text><text x="21.041999999999998" y="10.855" class="g">11</text><text x="25.05" y="10.855" class="g">12</text><text x="1.002" y="12.692" class="g">13</text><text x="5.01" y="12.692" class="g">14</text><text x="8.016" y="12.692" class="e">[15]</text><text x="13.026" y="12.692" class="g">16</text><text x="17.034" y="12.692" class="g">17</text><text x="21.041999999999998" y="12.692" class="g">18</text><text x="25.05" y="12.692" class="g">19</text><text x="1.002" y="14.529" class="g">20</text><text x="5.01" y="14.529" class="g">21</text><text x="9.017999999999999" y="14.529" class="g">22</text><text x="13.026" y="14.529" class="g">23</text><text x="17.034" y="14.529" class="g">24</text><text x="21.041999999999998" y="14.529" class="g">25</text><text x="25.05" y="14.529" class="g">26</text><text x="1.002" y="16.366" class="g">27</text><text x="5.01" y="16.366" class="g">28</text><text x="9.017999999999999" y="16.366" class="g">29</text><text x="13.026" y="16.366" class="g">30</text><text x="17.034" y="16.366" class="g">31</text><text x="0" y="20.04" class="f">←/→</text><text x="4.008" y="20.04" class="f">day</text><text x="8.016" y="20.04" class="f">·</text><text x="10.02" y="20.04" class="f">↑/↓</text><text x="14.027999999999999" y="20.04" class="f">week</text><text x="19.037999999999997" y="20.04" class="f">·</text><text x="21.041999999999998" y="20.04" class="f">↵</text><text x="23.045999999999996" y="20.04" class="f">accept</text><text x="30.059999999999995" y="20.04" class="f">·</text><text x="32.064" y="20.04" class="f">esc</text><text x="36.071999999999996" y="20.04" class="f">cancel</text></svg></svg></g></svg></svg>