<svg xmlns="http://www.w3.org/2000/svg" xmlns:xlink="http://www.w3.org/1999/xlink" width="440" height="220.44"><rect width="440" height="220.44" rx="0" ry="0" class="a"></rect><svg height="220.44" viewBox="0 0 44 22.044" width="440" xmlns="http://www.w3.org/2000/svg" xmlns:xlink="http://www.w3.org/1999/xlink"><style>.a{fill:rgb(40,44,52)}.b{font-family:Consolas,"Courier New",Courier,"Liberation Mono",monospace}.c{fill:transparent}.d{fill:rgb(128,128,128);white-space:pre}.e{fill:rgb(0,128,128);font-weight:bold;white-space:pre}.f{fill:rgb(171,178,191);font-weight:bold;white-space:pre}.g{fill:rgb(128,128,128);font-weight:bold;white-space:pre}.h{fill:rgb(171,178,191);white-space:pre}</style><g font-family="Consolas, &quot;Courier New&quot;, Courier, &quot;Liberation Mono&quot;, monospace" font-size="1.67" class="b"><defs><symbol id="a"><rect height="12" width="44" x="0" y="0" class="c"></rect></symbol></defs><rect height="22.044" width="44" class="a"></rect><svg x="0" y="0" width="44"><svg x="0"><use xlink:href="#a"></use><text x="0" y="1.67" class="d">Select</text><text x="7.013999999999999" y="1.67" class="d">with</text><text x="12.024" y="1.67" class="d">groups</text><text x="19.037999999999997" y="1.67" class="d">&gt;</text><text x="21.041999999999998" y="1.67" class="d">Select</text><text x="0" y="3.5069999999999997" class="e">&gt;</text><text x="2.004" y="3.5069999999999997" class="f">Fruit</text><text x="9.017999999999999" y="3.5069999999999997" class="g">Fruit</text><text x="9.017999999999999" y="5.343999999999999" class="e">(*)</text><text x="13.026" y="5.343999999999999" class="e">Apple</text><text x="9.017999999999999" y="7.181" class="h">(</text><text x="11.021999999999998" y="7.181" class="h">)</text><text x="13.026" y="7.181" class="h">Banana</text><text x="9.017999999999999" y="9.018" class="d">-----------------------------------</text><text x="0" y="10.855" class="d">-----------------------------------------</text><text x="9.017999999999999" y="12.692" class="h">(</text><text x="11.021999999999998" y="12.692" class="h">)</text><text x="13.026" y="12.692" class="d">Rhubarb</text><text x="21.041999999999998" y="12.692" class="d">(out</text><text x="26.052" y="12.692" class="d">of</text><text x="29.058" y="12.692" class="d">season)</text><text x="0" y="16.366" class="d">^/v</text><text x="4.008" y="16.366" class="d">move</text><text x="9.017999999999999" y="16.366" class="d">*</text><text x="11.021999999999998" y="16.366" class="d">&lt;</text><text x="13.026" y="16.366" class="d">accept</text><text x="20.04" y="16.366" class="d">*</text><text x="22.043999999999997" y="16.366" class="d">esc</text><text x="26.052" y="16.366" class="d">cancel</text></svg></svg></g></svg></svg>