<svg xmlns="http://www.w3.org/2000/svg" xmlns:xlink="http://www.w3.org/1999/xlink" width="480" height="146.96"><rect width="480" height="146.96" rx="0" ry="0" class="a"></rect><svg height="146.96" viewBox="0 0 48 14.696" width="480" xmlns="http://www.w3.org/2000/svg" xmlns:xlink="http://www.w3.org/1999/xlink"><style>.a{fill:rgb(40,44,52)}.b{font-family:Consolas,"Courier New",Courier,"Liberation Mono",monospace}.c{fill:rgb(0,128,0);font-weight:bold;white-space:pre}.d{fill:rgb(128,128,128);white-space:pre}.e{fill:rgb(0,128,128);font-weight:bold;white-space:pre}.f{fill:rgb(171,178,191);font-weight:bold;white-space:pre}.g{fill:rgb(171,178,191);white-space:pre}.h{fill:transparent}.i{fill:rgb(82,139,255)}.k{animation-duration:16.312s;animation-iteration-count:infinite;animation-name:j;animation-timing-function:steps(1,end)}.l{fill:rgb(128,128,128);font-weight:bold;white-space:pre}.m{fill:rgb(0,128,0);white-space:pre}@keyframes j{0%{transform:translateX(-0px)}0%{transform:translateX(-48px)}8.4%{transform:translateX(-96px)}13.4%{transform:translateX(-144px)}18.4%{transform:translateX(-192px)}23.4%{transform:translateX(-240px)}28.4%{transform:translateX(-288px)}33.3%{transform:translateX(-336px)}38.3%{transform:translateX(-384px)}43.3%{transform:translateX(-432px)}48.3%{transform:translateX(-480px)}53.3%{transform:translateX(-528px)}58.2%{transform:translateX(-576px)}63.2%{transform:translateX(-624px)}68.2%{transform:translateX(-672px)}73.2%{transform:translateX(-720px)}78.2%{transform:translateX(-768px)}83.1%{transform:translateX(-816px)}100%{transform:translateX(-864px)}}</style><g font-family="Consolas, &quot;Courier New&quot;, Courier, &quot;Liberation Mono&quot;, monospace" font-size="1.67" class="b"><defs><symbol id="1"><text x="0" y="1.67" class="c">Hint</text><text x="5.01" y="1.67" class="c">of</text><text x="8.016" y="1.67" class="c">citrus</text></symbol><symbol id="2"><text x="0" y="1.67" class="d">^/v</text><text x="4.008" y="1.67" class="d">move</text><text x="9.017999999999999" y="1.67" class="d">*</text><text x="11.021999999999998" y="1.67" class="d">&lt;</text><text x="13.026" y="1.67" class="d">select</text><text x="20.04" y="1.67" class="d">*</text><text x="22.043999999999997" y="1.67" class="d">esc</text><text x="26.052" y="1.67" class="d">back</text><text x="31.061999999999998" y="1.67" class="d">*</text><text x="33.065999999999995" y="1.67" class="d">q</text><text x="35.06999999999999" y="1.67" class="d">quit</text><text x="40.08" y="1.67" class="d">*</text><text x="42.083999999999996" y="1.67" class="d">?</text><text x="44.087999999999994" y="1.67" class="d">help</text></symbol><symbol id="3"><text x="0" y="1.67" class="d">Textarea</text><text x="9.017999999999999" y="1.67" class="d">widget</text><text x="16.032" y="1.67" class="d">&gt;</text><text x="18.035999999999998" y="1.67" class="d">Textarea</text></symbol><symbol id="4"><text x="0" y="1.67" class="e">&gt;</text><text x="2.004" y="1.67" class="f">Textarea</text><text x="12.024" y="1.67" class="g">Crisp</text><text x="18.035999999999998" y="1.67" class="g">and</text><text x="22.043999999999997" y="1.67" class="g">sweet</text></symbol><symbol id="5"><text x="0" y="1.67" class="d">&lt;</text><text x="2.004" y="1.67" class="d">newline</text><text x="10.02" y="1.67" class="d">*</text><text x="12.024" y="1.67" class="d">tab</text><text x="16.032" y="1.67" class="d">accept</text><text x="23.045999999999996" y="1.67" class="d">*</text><text x="25.05" y="1.67" class="d">esc</text><text x="29.058" y="1.67" class="d">cancel</text></symbol><symbol id="6"><text x="12.024" y="1.67" class="g">Hint</text><text x="17.034" y="1.67" class="g">of</text><text x="20.04" y="1.67" class="g">citrus</text></symbol><symbol id="7"><text x="12.024" y="1.67" class="g">Slightly</text><text x="21.041999999999998" y="1.67" class="g">tart</text><text x="25.05" y="1.67" class="e">|</text></symbol><symbol id="a"><rect height="8" width="48" x="0" y="0" class="h"></rect></symbol><symbol id="b"><rect height="1.837" width="1.1022" class="i"></rect></symbol></defs><rect height="14.696" width="48" class="a"></rect><g class="k"><svg x="0" y="0" width="912"><svg x="0"><use xlink:href="#a"></use><use xlink:href="#b" x="-0.0040000000000000036" y="0"></use></svg><svg x="48"><use xlink:href="#a"></use><use xlink:href="#b" x="47.996" y="12.684"></use><text x="0" y="1.67" class="d">Textarea</text><text x="9.017999999999999" y="1.67" class="d">widget</text><text x="0" y="3.5069999999999997" class="e">&gt;</text><text x="2.004" y="3.5069999999999997" class="f">Textarea</text><text x="11.021999999999998" y="3.5069999999999997" class="l">&gt;</text><text x="4.008" y="5.343999999999999" class="c">Crisp</text><text x="10.02" y="5.343999999999999" class="c">and</text><text x="14.027999999999999" y="5.343999999999999" class="c">sweet</text><use xlink:href="#1" y="5.511"></use><text x="2.004" y="10.855" class="m">[</text><text x="4.008" y="10.855" class="m">Submit</text><text x="11.021999999999998" y="10.855" class="m">]</text><text x="14.027999999999999" y="10.855" class="m">[</text><text x="16.032" y="10.855" class="m">Cancel</text><text x="23.045999999999996" y="10.855" class="m">]</text><use xlink:href="#2" y="12.859"></use></svg><svg x="96"><use xlink:href="#a"></use><use xlink:href="#b" x="47.996" y="7.173"></use><use xlink:href="#3" y="0"></use><text x="0" y="3.5069999999999997" class="e">&gt;</text><text x="2.004" y="3.5069999999999997" class="f">Textarea</text><text x="12.024" y="3.5069999999999997" class="c">Crisp</text><text x="18.035999999999998" y="3.5069999999999997" class="c">and</text><text x="22.043999999999997" y="3.5069999999999997" class="c">sweet</text><use xlink:href="#1" y="3.674"></use><use xlink:href="#2" y="7.348"></use></svg><svg x="144"><use xlink:href="#a"></use><use xlink:href="#b" x="34.996" y="7.173"></use><use xlink:href="#3" y="0"></use><use xlink:href="#4" y="1.837"></use><text x="12.024" y="5.343999999999999" class="g">Hint</text><text x="17.034" y="5.343999999999999" class="g">of</text><text x="20.04" y="5.343999999999999" class="g">citrus</text><text x="26.052" y="5.343999999999999" class="e">|</text><use xlink:href="#5" y="7.348"></use></svg><svg x="192"><use xlink:href="#a"></use><use xlink:href="#b" x="34.996" y="9.01"></use><use xlink:href="#3" y="0"></use><use xlink:href="#4" y="1.837"></use><use xlink:href="#6" y="3.674"></use><text x="12.024" y="7.181" class="e">|</text><use xlink:href="#5" y="9.185"></use></svg><svg x="240"><use xlink:href="#a"></use><use xlink:href="#b" x="34.996" y="9.01"></use><use xlink:href="#3" y="0"></use><use xlink:href="#4" y="1.837"></use><use xlink:href="#6" y="3.674"></use><text x="12.024" y="7.181" class="g">S</text><text x="13.026" y="7.181" class="e">|</text><use xlink:href="#5" y="9.185"></use></svg><svg x="288"><use xlink:href="#a"></use><use xlink:href="#b" x="34.996" y="9.01"></use><use xlink:href="#3" y="0"></use><use xlink:href="#4" y="1.837"></use><use xlink:href="#6" y="3.674"></use><text x="12.024" y="7.181" class="g">Sl</text><text x="14.027999999999999" y="7.181" class="e">|</text><use xlink:href="#5" y="9.185"></use></svg><svg x="336"><use xlink:href="#a"></use><use xlink:href="#b" x="34.996" y="9.01"></use><use xlink:href="#3" y="0"></use><use xlink:href="#4" y="1.837"></use><use xlink:href="#6" y="3.674"></use><text x="12.024" y="7.181" class="g">Sli</text><text x="15.029999999999998" y="7.181" class="e">|</text><use xlink:href="#5" y="9.185"></use></svg><svg x="384"><use xlink:href="#a"></use><use xlink:href="#b" x="34.996" y="9.01"></use><use xlink:href="#3" y="0"></use><use xlink:href="#4" y="1.837"></use><use xlink:href="#6" y="3.674"></use><text x="12.024" y="7.181" class="g">Slig</text><text x="16.032" y="7.181" class="e">|</text><use xlink:href="#5" y="9.185"></use></svg><svg x="432"><use xlink:href="#a"></use><use xlink:href="#b" x="34.996" y="9.01"></use><use xlink:href="#3" y="0"></use><use xlink:href="#4" y="1.837"></use><use xlink:href="#6" y="3.674"></use><text x="12.024" y="7.181" class="g">Sligh</text><text x="17.034" y="7.181" class="e">|</text><use xlink:href="#5" y="9.185"></use></svg><svg x="480"><use xlink:href="#a"></use><use xlink:href="#b" x="34.996" y="9.01"></use><use xlink:href="#3" y="0"></use><use xlink:href="#4" y="1.837"></use><use xlink:href="#6" y="3.674"></use><text x="12.024" y="7.181" class="g">Slight</text><text x="18.035999999999998" y="7.181" class="e">|</text><use xlink:href="#5" y="9.185"></use></svg><svg x="528"><use xlink:href="#a"></use><use xlink:href="#b" x="34.996" y="9.01"></use><use xlink:href="#3" y="0"></use><use xlink:href="#4" y="1.837"></use><use xlink:href="#6" y="3.674"></use><text x="12.024" y="7.181" class="g">Slightl</text><text x="19.037999999999997" y="7.181" class="e">|</text><use xlink:href="#5" y="9.185"></use></svg><svg x="576"><use xlink:href="#a"></use><use xlink:href="#b" x="34.996" y="9.01"></use><use xlink:href="#3" y="0"></use><use xlink:href="#4" y="1.837"></use><use xlink:href="#6" y="3.674"></use><text x="12.024" y="7.181" class="g">Slightly</text><text x="20.04" y="7.181" class="e">|</text><use xlink:href="#5" y="9.185"></use></svg><svg x="624"><use xlink:href="#a"></use><use xlink:href="#b" x="34.996" y="9.01"></use><use xlink:href="#3" y="0"></use><use xlink:href="#4" y="1.837"></use><use xlink:href="#6" y="3.674"></use><text x="12.024" y="7.181" class="g">Slightly</text><text x="21.041999999999998" y="7.181" class="e">|</text><use xlink:href="#5" y="9.185"></use></svg><svg x="672"><use xlink:href="#a"></use><use xlink:href="#b" x="34.996" y="9.01"></use><use xlink:href="#3" y="0"></use><use xlink:href="#4" y="1.837"></use><use xlink:href="#6" y="3.674"></use><text x="12.024" y="7.181" class="g">Slightly</text><text x="21.041999999999998" y="7.181" class="g">t</text><text x="22.043999999999997" y="7.181" class="e">|</text><use xlink:href="#5" y="9.185"></use></svg><svg x="720"><use xlink:href="#a"></use><use xlink:href="#b" x="34.996" y="9.01"></use><use xlink:href="#3" y="0"></use><use xlink:href="#4" y="1.837"></use><use xlink:href="#6" y="3.674"></use><text x="12.024" y="7.181" class="g">Slightly</text><text x="21.041999999999998" y="7.181" class="g">ta</text><text x="23.045999999999996" y="7.181" class="e">|</text><use xlink:href="#5" y="9.185"></use></svg><svg x="768"><use xlink:href="#a"></use><use xlink:href="#b" x="34.996" y="9.01"></use><use xlink:href="#3" y="0"></use><use xlink:href="#4" y="1.837"></use><use xlink:href="#6" y="3.674"></use><text x="12.024" y="7.181" class="g">Slightly</text><text x="21.041999999999998" y="7.181" class="g">tar</text><text x="24.048" y="7.181" class="e">|</text><use xlink:href="#5" y="9.185"></use></svg><svg x="816"><use xlink:href="#a"></use><use xlink:href="#b" x="34.996" y="9.01"></use><use xlink:href="#3" y="0"></use><use xlink:href="#4" y="1.837"></use><use xlink:href="#6" y="3.674"></use><use xlink:href="#7" y="5.511"></use><use xlink:href="#5" y="9.185"></use></svg><svg x="864"><use xlink:href="#a"></use><use xlink:href="#b" x="35.996" y="9.01"></use><use xlink:href="#3" y="0"></use><use xlink:href="#4" y="1.837"></use><use xlink:href="#6" y="3.674"></use><use xlink:href="#7" y="5.511"></use><use xlink:href="#5" y="9.185"></use></svg></svg></g></g></svg></svg>