<svg xmlns="http://www.w3.org/2000/svg" xmlns:xlink="http://www.w3.org/1999/xlink" width="320" height="183.70000000000002"><rect width="320" height="183.70000000000002" rx="0" ry="0" class="a"></rect><svg height="183.70000000000002" viewBox="0 0 32 18.37" width="320" xmlns="http://www.w3.org/2000/svg" xmlns:xlink="http://www.w3.org/1999/xlink"><style>.a{fill:rgb(250,250,250)}.b{font-family:Consolas,"Courier New",Courier,"Liberation Mono",monospace}.c{fill:transparent}.d{fill:rgb(82,139,255)}.e{fill:rgb(56,58,66);white-space:pre}</style><g font-family="Consolas, &quot;Courier New&quot;, Courier, &quot;Liberation Mono&quot;, monospace" font-size="1.67" class="b"><defs><symbol id="a"><rect height="10" width="32" x="0" y="0" class="c"></rect></symbol><symbol id="b"><rect height="1.837" width="1.1022" class="d"></rect></symbol></defs><rect height="18.37" width="32" class="a"></rect><svg x="0" y="0" width="32"><svg x="0"><use xlink:href="#a"></use><use xlink:href="#b" x="31.996" y="14.520999999999999"></use><text x="0" y="1.67" class="e">Suggest</text><text x="8.016" y="1.67" class="e">widget</text><text x="15.029999999999998" y="1.67" class="e">&gt;</text><text x="17.034" y="1.67" class="e">Suggest</text><text x="0" y="3.5069999999999997" class="e">&gt;</text><text x="2.004" y="3.5069999999999997" class="e">Fruit</text><text x="9.017999999999999" y="3.5069999999999997" class="e">|</text><text x="11.021999999999998" y="5.343999999999999" class="e">Apple</text><text x="11.021999999999998" y="7.181" class="e">Apricot</text><text x="11.021999999999998" y="9.018" class="e">Banana</text><text x="11.021999999999998" y="10.855" class="e">Cherry</text><text x="2.004" y="12.692" class="e">v</text><text x="0" y="16.366" class="e">^/v</text><text x="4.008" y="16.366" class="e">move</text><text x="9.017999999999999" y="16.366" class="e">*</text><text x="11.021999999999998" y="16.366" class="e">&lt;</text><text x="13.026" y="16.366" class="e">accept</text><text x="20.04" y="16.366" class="e">*</text><text x="22.043999999999997" y="16.366" class="e">esc</text><text x="26.052" y="16.366" class="e">cancel</text></svg></svg></g></svg></svg>