<svg xmlns="http://www.w3.org/2000/svg" xmlns:xlink="http://www.w3.org/1999/xlink" width="760" height="293.92"><rect width="760" height="293.92" rx="0" ry="0" class="a"></rect><svg height="293.92" viewBox="0 0 76 29.392" width="760" xmlns="http://www.w3.org/2000/svg" xmlns:xlink="http://www.w3.org/1999/xlink"><style>.a{fill:rgb(250,250,250)}.b{font-family:Consolas,"Courier New",Courier,"Liberation Mono",monospace}.c{fill:rgb(0,128,128);white-space:pre}.d{fill:transparent}.e{fill:rgb(82,139,255)}.f{fill:rgb(90,96,105);white-space:pre}.g{fill:rgb(0,128,128);font-weight:bold;white-space:pre}.h{fill:rgb(56,58,66);font-weight:bold;white-space:pre}.i{fill:rgb(56,58,66);white-space:pre}</style><g font-family="Consolas, &quot;Courier New&quot;, Courier, &quot;Liberation Mono&quot;, monospace" font-size="1.67" class="b"><defs><symbol id="1"><text x="0" y="1.67" class="c">├──────────────────────────────────────────────────────────────────────────┤</text></symbol><symbol id="2"><text x="0" y="1.67" class="c">│</text><text x="75.14999999999999" y="1.67" class="c">│</text></symbol><symbol id="a"><rect height="16" width="76" x="0" y="0" class="d"></rect></symbol><symbol id="b"><rect height="1.837" width="1.1022" class="e"></rect></symbol></defs><rect height="29.392" width="76" class="a"></rect><svg x="0" y="0" width="76"><svg x="0"><use xlink:href="#a"></use><use xlink:href="#b" x="75.996" y="18.195"></use><text x="0" y="1.67" class="c">╭──────────────────────────────────────────────────────────────────────────╮</text><text x="0" y="3.5069999999999997" class="c">│</text><text x="2.004" y="3.5069999999999997" class="f">Reorder</text><text x="10.02" y="3.5069999999999997" class="f">widget</text><text x="17.034" y="3.5069999999999997" class="f">›</text><text x="19.037999999999997" y="3.5069999999999997" class="f">Reorder</text><text x="75.14999999999999" y="3.5069999999999997" class="c">│</text><use xlink:href="#1" y="3.674"></use><use xlink:href="#2" y="5.511"></use><text x="0" y="9.018" class="c">│</text><text x="2.004" y="9.018" class="g">❯</text><text x="4.008" y="9.018" class="h">Basket</text><text x="12.024" y="9.018" class="g">❯</text><text x="15.029999999999998" y="9.018" class="g">Apple</text><text x="75.14999999999999" y="9.018" class="c">│</text><text x="0" y="10.855" class="c">│</text><text x="15.029999999999998" y="10.855" class="i">Carrot</text><text x="75.14999999999999" y="10.855" class="c">│</text><text x="0" y="12.692" class="c">│</text><text x="15.029999999999998" y="12.692" class="i">Tomato</text><text x="75.14999999999999" y="12.692" class="c">│</text><use xlink:href="#2" y="12.859"></use><use xlink:href="#1" y="14.696"></use><text x="0" y="18.203000000000003" class="c">│</text><text x="2.004" y="18.203000000000003" class="f">↑/↓</text><text x="6.012" y="18.203000000000003" class="f">move</text><text x="11.021999999999998" y="18.203000000000003" class="f">·</text><text x="13.026" y="18.203000000000003" class="f">space</text><text x="19.037999999999997" y="18.203000000000003" class="f">grab</text><text x="24.048" y="18.203000000000003" class="f">·</text><text x="26.052" y="18.203000000000003" class="f">↵</text><text x="28.055999999999997" y="18.203000000000003" class="f">accept</text><text x="35.06999999999999" y="18.203000000000003" class="f">·</text><text x="37.074" y="18.203000000000003" class="f">esc</text><text x="41.082" y="18.203000000000003" class="f">cancel</text><text x="75.14999999999999" y="18.203000000000003" class="c">│</text><text x="0" y="20.04" class="c">╰──────────────────────────────────────────────────────────────────────────╯</text></svg></svg></g></svg></svg>