<svg xmlns="http://www.w3.org/2000/svg" xmlns:xlink="http://www.w3.org/1999/xlink" width="600" height="257.18"><rect width="600" height="257.18" rx="0" ry="0" class="a"></rect><svg height="257.18" viewBox="0 0 60 25.718" width="600" xmlns="http://www.w3.org/2000/svg" xmlns:xlink="http://www.w3.org/1999/xlink"><style>.a{fill:rgb(40,44,52)}.b{font-family:Consolas,"Courier New",Courier,"Liberation Mono",monospace}.c{fill:rgb(0,128,128);font-weight:bold;white-space:pre}.d{fill:rgb(171,178,191);white-space:pre}.e{fill:transparent}.f{fill:rgb(82,139,255)}.h{animation-duration:33.972s;animation-iteration-count:infinite;animation-name:g;animation-timing-function:steps(1,end)}@keyframes g{0%{transform:translateX(-0px)}2.87%{transform:translateX(-60px)}6.39%{transform:translateX(-120px)}6.76%{transform:translateX(-180px)}7.29%{transform:translateX(-240px)}7.72%{transform:translateX(-300px)}8.21%{transform:translateX(-360px)}8.77%{transform:translateX(-420px)}9.09%{transform:translateX(-480px)}9.45%{transform:translateX(-540px)}12.41%{transform:translateX(-600px)}12.65%{transform:translateX(-660px)}12.86%{transform:translateX(-720px)}16.38%{transform:translateX(-780px)}16.9%{transform:translateX(-840px)}17.34%{transform:translateX(-900px)}17.71%{transform:translateX(-960px)}18.21%{transform:translateX(-1020px)}18.53%{transform:translateX(-1080px)}19.03%{transform:translateX(-1140px)}19.37%{transform:translateX(-1200px)}22.32%{transform:translateX(-1260px)}22.34%{transform:translateX(-1320px)}22.36%{transform:translateX(-1380px)}25.42%{transform:translateX(-1440px)}25.81%{transform:translateX(-1500px)}26.2%{transform:translateX(-1560px)}26.61%{transform:translateX(-1620px)}26.95%{transform:translateX(-1680px)}27.43%{transform:translateX(-1740px)}27.76%{transform:translateX(-1800px)}28.24%{transform:translateX(-1860px)}28.65%{transform:translateX(-1920px)}29.08%{transform:translateX(-1980px)}29.51%{transform:translateX(-2040px)}29.92%{transform:translateX(-2100px)}30.31%{transform:translateX(-2160px)}30.63%{transform:translateX(-2220px)}31.07%{transform:translateX(-2280px)}31.56%{transform:translateX(-2340px)}35.31%{transform:translateX(-2400px)}35.33%{transform:translateX(-2460px)}35.36%{transform:translateX(-2520px)}38.84%{transform:translateX(-2580px)}39.26%{transform:translateX(-2640px)}39.67%{transform:translateX(-2700px)}40.07%{transform:translateX(-2760px)}40.49%{transform:translateX(-2820px)}40.9%{transform:translateX(-2880px)}43.79%{transform:translateX(-2940px)}43.81%{transform:translateX(-3000px)}43.82%{transform:translateX(-3060px)}47.87%{transform:translateX(-3120px)}50.76%{transform:translateX(-3180px)}50.79%{transform:translateX(-3240px)}50.8%{transform:translateX(-3300px)}54.79%{transform:translateX(-3360px)}55.67%{transform:translateX(-3420px)}58.57%{transform:translateX(-3480px)}58.59%{transform:translateX(-3540px)}58.61%{transform:translateX(-3600px)}62.05%{transform:translateX(-3660px)}62.46%{transform:translateX(-3720px)}62.87%{transform:translateX(-3780px)}63.73%{transform:translateX(-3840px)}66.72%{transform:translateX(-3900px)}66.74%{transform:translateX(-3960px)}66.76%{transform:translateX(-4020px)}70.25%{transform:translateX(-4080px)}70.6%{transform:translateX(-4140px)}71.03%{transform:translateX(-4200px)}73.99%{transform:translateX(-4260px)}74.01%{transform:translateX(-4320px)}74.04%{transform:translateX(-4380px)}77.46%{transform:translateX(-4440px)}77.8%{transform:translateX(-4500px)}78.75%{transform:translateX(-4560px)}81.63%{transform:translateX(-4620px)}81.65%{transform:translateX(-4680px)}81.67%{transform:translateX(-4740px)}85.18%{transform:translateX(-4800px)}88.07%{transform:translateX(-4860px)}88.09%{transform:translateX(-4920px)}88.11%{transform:translateX(-4980px)}91.17%{transform:translateX(-5040px)}100%{transform:translateX(-5100px)}}</style><g font-family="Consolas, &quot;Courier New&quot;, Courier, &quot;Liberation Mono&quot;, monospace" font-size="1.67" class="b"><defs><symbol id="1"><text x="0" y="1.67" class="c">Text</text><text x="5.01" y="1.67" class="c">widget</text></symbol><symbol id="2"><text x="0" y="1.67" class="d">edit</text><text x="5.01" y="1.67" class="d">·</text><text x="7.013999999999999" y="1.67" class="d">Enter</text><text x="13.026" y="1.67" class="d">accept</text><text x="20.04" y="1.67" class="d">·</text><text x="22.043999999999997" y="1.67" class="d">Esc</text><text x="26.052" y="1.67" class="d">cancel</text></symbol><symbol id="3"><text x="0" y="1.67" class="d">Text:</text><text x="6.012" y="1.67" class="d">&quot;Acme</text><text x="12.024" y="1.67" class="d">Corp&quot;</text></symbol><symbol id="4"><text x="0" y="1.67" class="c">Number</text><text x="7.013999999999999" y="1.67" class="c">widget</text></symbol><symbol id="5"><text x="0" y="1.67" class="d">|</text></symbol><symbol id="6"><text x="0" y="1.67" class="d">Number:</text><text x="8.016" y="1.67" class="d">3000</text></symbol><symbol id="7"><text x="0" y="1.67" class="c">Textarea</text><text x="9.017999999999999" y="1.67" class="c">widget</text></symbol><symbol id="8"><text x="0" y="1.67" class="d">edit</text><text x="5.01" y="1.67" class="d">·</text><text x="7.013999999999999" y="1.67" class="d">Tab</text><text x="11.021999999999998" y="1.67" class="d">accept</text><text x="18.035999999999998" y="1.67" class="d">·</text><text x="20.04" y="1.67" class="d">Esc</text><text x="24.048" y="1.67" class="d">cancel</text></symbol><symbol id="9"><text x="0" y="1.67" class="d">Redis</text><text x="6.012" y="1.67" class="d">for</text><text x="10.02" y="1.67" class="d">cache</text></symbol><symbol id="10"><text x="0" y="1.67" class="d">enter</text><text x="6.012" y="1.67" class="d">newline</text><text x="14.027999999999999" y="1.67" class="d">*</text><text x="16.032" y="1.67" class="d">tab</text><text x="20.04" y="1.67" class="d">accept</text></symbol><symbol id="11"><text x="0" y="1.67" class="d">Solr</text><text x="5.01" y="1.67" class="d">for</text><text x="9.017999999999999" y="1.67" class="d">search</text></symbol><symbol id="12"><text x="0" y="1.67" class="d">Textarea:</text><text x="10.02" y="1.67" class="d">&quot;Redis</text><text x="17.034" y="1.67" class="d">for</text><text x="21.041999999999998" y="1.67" class="d">cache\nSolr</text><text x="33.065999999999995" y="1.67" class="d">for</text><text x="37.074" y="1.67" class="d">search\nClamAV</text><text x="52.104" y="1.67" class="d">for</text><text x="56.111999999999995" y="1.67" class="d">mail</text></symbol><symbol id="13"><text x="0" y="1.67" class="d">&quot;</text></symbol><symbol id="14"><text x="0" y="1.67" class="c">Password</text><text x="9.017999999999999" y="1.67" class="c">widget</text></symbol><symbol id="15"><text x="0" y="1.67" class="d">Password:</text><text x="10.02" y="1.67" class="d">&quot;hunter2s3cret&quot;</text></symbol><symbol id="16"><text x="0" y="1.67" class="c">Select</text><text x="7.013999999999999" y="1.67" class="c">widget</text></symbol><symbol id="17"><text x="0" y="1.67" class="d">(</text><text x="2.004" y="1.67" class="d">)</text><text x="4.008" y="1.67" class="d">Standard</text></symbol><symbol id="18"><text x="0" y="1.67" class="d">Select:</text><text x="8.016" y="1.67" class="d">&quot;demo_umami&quot;</text></symbol><symbol id="19"><text x="0" y="1.67" class="c">MultiSelect</text><text x="12.024" y="1.67" class="c">widget</text></symbol><symbol id="20"><text x="0" y="1.67" class="d">&gt;</text><text x="2.004" y="1.67" class="d">[x]</text><text x="6.012" y="1.67" class="d">Redis</text></symbol><symbol id="21"><text x="2.004" y="1.67" class="d">[</text><text x="4.008" y="1.67" class="d">]</text><text x="6.012" y="1.67" class="d">Solr</text></symbol><symbol id="22"><text x="2.004" y="1.67" class="d">[</text><text x="4.008" y="1.67" class="d">]</text><text x="6.012" y="1.67" class="d">ClamAV</text></symbol><symbol id="23"><text x="2.004" y="1.67" class="d">[x]</text><text x="6.012" y="1.67" class="d">Redis</text></symbol><symbol id="24"><text x="0" y="1.67" class="d">MultiSelect:</text><text x="13.026" y="1.67" class="d">[&quot;redis&quot;,&quot;solr&quot;]</text></symbol><symbol id="25"><text x="0" y="1.67" class="c">Suggest</text><text x="8.016" y="1.67" class="c">widget</text></symbol><symbol id="26"><text x="2.004" y="1.67" class="d">Europe/London</text></symbol><symbol id="27"><text x="2.004" y="1.67" class="d">Europe/Paris</text></symbol><symbol id="28"><text x="2.004" y="1.67" class="d">Australia/Sydney</text></symbol><symbol id="29"><text x="0" y="1.67" class="d">Eur|</text></symbol><symbol id="30"><text x="0" y="1.67" class="d">Suggest:</text><text x="9.017999999999999" y="1.67" class="d">&quot;Europe\/London&quot;</text></symbol><symbol id="31"><text x="0" y="1.67" class="c">Search</text><text x="7.013999999999999" y="1.67" class="c">widget</text></symbol><symbol id="32"><text x="0" y="1.67" class="d">(*)</text><text x="4.008" y="1.67" class="d">Europe/London</text></symbol><symbol id="33"><text x="0" y="1.67" class="d">(</text><text x="2.004" y="1.67" class="d">)</text><text x="4.008" y="1.67" class="d">Europe/Paris</text></symbol><symbol id="34"><text x="0" y="1.67" class="d">(*)</text><text x="4.008" y="1.67" class="d">Europe/Paris</text></symbol><symbol id="35"><text x="0" y="1.67" class="d">Search:</text><text x="8.016" y="1.67" class="d">&quot;paris&quot;</text></symbol><symbol id="36"><text x="0" y="1.67" class="c">MultiSearch</text><text x="12.024" y="1.67" class="c">widget</text></symbol><symbol id="37"><text x="2.004" y="1.67" class="d">[</text><text x="4.008" y="1.67" class="d">]</text><text x="6.012" y="1.67" class="d">Memcached</text></symbol><symbol id="38"><text x="0" y="1.67" class="d">&gt;</text><text x="2.004" y="1.67" class="d">[</text><text x="4.008" y="1.67" class="d">]</text><text x="6.012" y="1.67" class="d">ClamAV</text></symbol><symbol id="39"><text x="0" y="1.67" class="d">cl|</text></symbol><symbol id="40"><text x="0" y="1.67" class="d">MultiSearch:</text><text x="13.026" y="1.67" class="d">[&quot;redis&quot;,&quot;clamav&quot;]</text></symbol><symbol id="41"><text x="0" y="1.67" class="c">Confirm</text><text x="8.016" y="1.67" class="c">widget</text></symbol><symbol id="42"><text x="0" y="1.67" class="d">Confirm:</text><text x="9.017999999999999" y="1.67" class="d">false</text></symbol><symbol id="43"><text x="0" y="1.67" class="d">Pause:</text><text x="7.013999999999999" y="1.67" class="d">true</text></symbol><symbol id="a"><rect height="14" width="60" x="0" y="0" class="e"></rect></symbol><symbol id="b"><rect height="1.837" width="1.1022" class="f"></rect></symbol></defs><rect height="25.718" width="60" class="a"></rect><g class="h"><svg x="0" y="0" width="5160"><svg x="0"><use xlink:href="#a"></use><use xlink:href="#b" x="-0.0040000000000000036" y="0"></use></svg><svg x="60"><use xlink:href="#a"></use><use xlink:href="#1" y="0"></use><use xlink:href="#2" y="1.837"></use><text x="0" y="7.181" class="d">Acme</text><text x="5.01" y="7.181" class="d">Site|</text></svg><svg x="120"><use xlink:href="#a"></use><use xlink:href="#1" y="0"></use><use xlink:href="#2" y="1.837"></use><text x="0" y="7.181" class="d">Acme</text><text x="5.01" y="7.181" class="d">Sit|</text></svg><svg x="180"><use xlink:href="#a"></use><use xlink:href="#1" y="0"></use><use xlink:href="#2" y="1.837"></use><text x="0" y="7.181" class="d">Acme</text><text x="5.01" y="7.181" class="d">Si|</text></svg><svg x="240"><use xlink:href="#a"></use><use xlink:href="#1" y="0"></use><use xlink:href="#2" y="1.837"></use><text x="0" y="7.181" class="d">Acme</text><text x="5.01" y="7.181" class="d">S|</text></svg><svg x="300"><use xlink:href="#a"></use><use xlink:href="#1" y="0"></use><use xlink:href="#2" y="1.837"></use><text x="0" y="7.181" class="d">Acme</text><text x="5.01" y="7.181" class="d">|</text></svg><svg x="360"><use xlink:href="#a"></use><use xlink:href="#1" y="0"></use><use xlink:href="#2" y="1.837"></use><text x="0" y="7.181" class="d">Acme</text><text x="5.01" y="7.181" class="d">C|</text></svg><svg x="420"><use xlink:href="#a"></use><use xlink:href="#1" y="0"></use><use xlink:href="#2" y="1.837"></use><text x="0" y="7.181" class="d">Acme</text><text x="5.01" y="7.181" class="d">Co|</text></svg><svg x="480"><use xlink:href="#a"></use><use xlink:href="#1" y="0"></use><use xlink:href="#2" y="1.837"></use><text x="0" y="7.181" class="d">Acme</text><text x="5.01" y="7.181" class="d">Cor|</text></svg><svg x="540"><use xlink:href="#a"></use><use xlink:href="#1" y="0"></use><use xlink:href="#2" y="1.837"></use><text x="0" y="7.181" class="d">Acme</text><text x="5.01" y="7.181" class="d">Corp|</text></svg><svg x="600"><use xlink:href="#a"></use><use xlink:href="#b" x="-0.0040000000000000036" y="0"></use></svg><svg x="660"><use xlink:href="#a"></use><use xlink:href="#b" x="-0.0040000000000000036" y="1.662"></use><use xlink:href="#3" y="0"></use></svg><svg x="720"><use xlink:href="#a"></use><use xlink:href="#4" y="0"></use><use xlink:href="#2" y="1.837"></use><text x="0" y="7.181" class="d">8080|</text></svg><svg x="780"><use xlink:href="#a"></use><use xlink:href="#4" y="0"></use><use xlink:href="#2" y="1.837"></use><text x="0" y="7.181" class="d">808|</text></svg><svg x="840"><use xlink:href="#a"></use><use xlink:href="#4" y="0"></use><use xlink:href="#2" y="1.837"></use><text x="0" y="7.181" class="d">80|</text></svg><svg x="900"><use xlink:href="#a"></use><use xlink:href="#4" y="0"></use><use xlink:href="#2" y="1.837"></use><text x="0" y="7.181" class="d">8|</text></svg><svg x="960"><use xlink:href="#a"></use><use xlink:href="#4" y="0"></use><use xlink:href="#2" y="1.837"></use><use xlink:href="#5" y="5.511"></use></svg><svg x="1020"><use xlink:href="#a"></use><use xlink:href="#4" y="0"></use><use xlink:href="#2" y="1.837"></use><text x="0" y="7.181" class="d">3|</text></svg><svg x="1080"><use xlink:href="#a"></use><use xlink:href="#4" y="0"></use><use xlink:href="#2" y="1.837"></use><text x="0" y="7.181" class="d">30|</text></svg><svg x="1140"><use xlink:href="#a"></use><use xlink:href="#4" y="0"></use><use xlink:href="#2" y="1.837"></use><text x="0" y="7.181" class="d">300|</text></svg><svg x="1200"><use xlink:href="#a"></use><use xlink:href="#4" y="0"></use><use xlink:href="#2" y="1.837"></use><text x="0" y="7.181" class="d">3000|</text></svg><svg x="1260"><use xlink:href="#a"></use><use xlink:href="#b" x="-0.0040000000000000036" y="1.662"></use><use xlink:href="#3" y="0"></use></svg><svg x="1320"><use xlink:href="#a"></use><use xlink:href="#b" x="-0.0040000000000000036" y="3.499"></use><use xlink:href="#3" y="0"></use><use xlink:href="#6" y="1.837"></use></svg><svg x="1380"><use xlink:href="#a"></use><use xlink:href="#7" y="0"></use><use xlink:href="#8" y="1.837"></use><use xlink:href="#9" y="5.511"></use><text x="0" y="9.018" class="d">Solr</text><text x="5.01" y="9.018" class="d">for</text><text x="9.017999999999999" y="9.018" class="d">search|</text><use xlink:href="#10" y="9.185"></use></svg><svg x="1440"><use xlink:href="#a"></use><use xlink:href="#7" y="0"></use><use xlink:href="#8" y="1.837"></use><use xlink:href="#9" y="5.511"></use><use xlink:href="#11" y="7.348"></use><use xlink:href="#5" y="9.185"></use><use xlink:href="#10" y="11.022"></use></svg><svg x="1500"><use xlink:href="#a"></use><use xlink:href="#7" y="0"></use><use xlink:href="#8" y="1.837"></use><use xlink:href="#9" y="5.511"></use><use xlink:href="#11" y="7.348"></use><text x="0" y="10.855" class="d">C|</text><use xlink:href="#10" y="11.022"></use></svg><svg x="1560"><use xlink:href="#a"></use><use xlink:href="#7" y="0"></use><use xlink:href="#8" y="1.837"></use><use xlink:href="#9" y="5.511"></use><use xlink:href="#11" y="7.348"></use><text x="0" y="10.855" class="d">Cl|</text><use xlink:href="#10" y="11.022"></use></svg><svg x="1620"><use xlink:href="#a"></use><use xlink:href="#7" y="0"></use><use xlink:href="#8" y="1.837"></use><use xlink:href="#9" y="5.511"></use><use xlink:href="#11" y="7.348"></use><text x="0" y="10.855" class="d">Cla|</text><use xlink:href="#10" y="11.022"></use></svg><svg x="1680"><use xlink:href="#a"></use><use xlink:href="#7" y="0"></use><use xlink:href="#8" y="1.837"></use><use xlink:href="#9" y="5.511"></use><use xlink:href="#11" y="7.348"></use><text x="0" y="10.855" class="d">Clam|</text><use xlink:href="#10" y="11.022"></use></svg><svg x="1740"><use xlink:href="#a"></use><use xlink:href="#7" y="0"></use><use xlink:href="#8" y="1.837"></use><use xlink:href="#9" y="5.511"></use><use xlink:href="#11" y="7.348"></use><text x="0" y="10.855" class="d">ClamA|</text><use xlink:href="#10" y="11.022"></use></svg><svg x="1800"><use xlink:href="#a"></use><use xlink:href="#7" y="0"></use><use xlink:href="#8" y="1.837"></use><use xlink:href="#9" y="5.511"></use><use xlink:href="#11" y="7.348"></use><text x="0" y="10.855" class="d">ClamAV|</text><use xlink:href="#10" y="11.022"></use></svg><svg x="1860"><use xlink:href="#a"></use><use xlink:href="#7" y="0"></use><use xlink:href="#8" y="1.837"></use><use xlink:href="#9" y="5.511"></use><use xlink:href="#11" y="7.348"></use><text x="0" y="10.855" class="d">ClamAV</text><text x="7.013999999999999" y="10.855" class="d">|</text><use xlink:href="#10" y="11.022"></use></svg><svg x="1920"><use xlink:href="#a"></use><use xlink:href="#7" y="0"></use><use xlink:href="#8" y="1.837"></use><use xlink:href="#9" y="5.511"></use><use xlink:href="#11" y="7.348"></use><text x="0" y="10.855" class="d">ClamAV</text><text x="7.013999999999999" y="10.855" class="d">f|</text><use xlink:href="#10" y="11.022"></use></svg><svg x="1980"><use xlink:href="#a"></use><use xlink:href="#7" y="0"></use><use xlink:href="#8" y="1.837"></use><use xlink:href="#9" y="5.511"></use><use xlink:href="#11" y="7.348"></use><text x="0" y="10.855" class="d">ClamAV</text><text x="7.013999999999999" y="10.855" class="d">fo|</text><use xlink:href="#10" y="11.022"></use></svg><svg x="2040"><use xlink:href="#a"></use><use xlink:href="#7" y="0"></use><use xlink:href="#8" y="1.837"></use><use xlink:href="#9" y="5.511"></use><use xlink:href="#11" y="7.348"></use><text x="0" y="10.855" class="d">ClamAV</text><text x="7.013999999999999" y="10.855" class="d">for|</text><use xlink:href="#10" y="11.022"></use></svg><svg x="2100"><use xlink:href="#a"></use><use xlink:href="#7" y="0"></use><use xlink:href="#8" y="1.837"></use><use xlink:href="#9" y="5.511"></use><use xlink:href="#11" y="7.348"></use><text x="0" y="10.855" class="d">ClamAV</text><text x="7.013999999999999" y="10.855" class="d">for</text><text x="11.021999999999998" y="10.855" class="d">|</text><use xlink:href="#10" y="11.022"></use></svg><svg x="2160"><use xlink:href="#a"></use><use xlink:href="#7" y="0"></use><use xlink:href="#8" y="1.837"></use><use xlink:href="#9" y="5.511"></use><use xlink:href="#11" y="7.348"></use><text x="0" y="10.855" class="d">ClamAV</text><text x="7.013999999999999" y="10.855" class="d">for</text><text x="11.021999999999998" y="10.855" class="d">m|</text><use xlink:href="#10" y="11.022"></use></svg><svg x="2220"><use xlink:href="#a"></use><use xlink:href="#7" y="0"></use><use xlink:href="#8" y="1.837"></use><use xlink:href="#9" y="5.511"></use><use xlink:href="#11" y="7.348"></use><text x="0" y="10.855" class="d">ClamAV</text><text x="7.013999999999999" y="10.855" class="d">for</text><text x="11.021999999999998" y="10.855" class="d">ma|</text><use xlink:href="#10" y="11.022"></use></svg><svg x="2280"><use xlink:href="#a"></use><use xlink:href="#7" y="0"></use><use xlink:href="#8" y="1.837"></use><use xlink:href="#9" y="5.511"></use><use xlink:href="#11" y="7.348"></use><text x="0" y="10.855" class="d">ClamAV</text><text x="7.013999999999999" y="10.855" class="d">for</text><text x="11.021999999999998" y="10.855" class="d">mai|</text><use xlink:href="#10" y="11.022"></use></svg><svg x="2340"><use xlink:href="#a"></use><use xlink:href="#7" y="0"></use><use xlink:href="#8" y="1.837"></use><use xlink:href="#9" y="5.511"></use><use xlink:href="#11" y="7.348"></use><text x="0" y="10.855" class="d">ClamAV</text><text x="7.013999999999999" y="10.855" class="d">for</text><text x="11.021999999999998" y="10.855" class="d">mail|</text><use xlink:href="#10" y="11.022"></use></svg><svg x="2400"><use xlink:href="#a"></use><use xlink:href="#b" x="-0.0040000000000000036" y="3.499"></use><use xlink:href="#3" y="0"></use><use xlink:href="#6" y="1.837"></use></svg><svg x="2460"><use xlink:href="#a"></use><use xlink:href="#b" x="-0.0040000000000000036" y="7.173"></use><use xlink:href="#3" y="0"></use><use xlink:href="#6" y="1.837"></use><use xlink:href="#12" y="3.674"></use><use xlink:href="#13" y="5.511"></use></svg><svg x="2520"><use xlink:href="#a"></use><use xlink:href="#14" y="0"></use><use xlink:href="#2" y="1.837"></use><text x="0" y="7.181" class="d">*******|</text></svg><svg x="2580"><use xlink:href="#a"></use><use xlink:href="#14" y="0"></use><use xlink:href="#2" y="1.837"></use><text x="0" y="7.181" class="d">********|</text></svg><svg x="2640"><use xlink:href="#a"></use><use xlink:href="#14" y="0"></use><use xlink:href="#2" y="1.837"></use><text x="0" y="7.181" class="d">*********|</text></svg><svg x="2700"><use xlink:href="#a"></use><use xlink:href="#14" y="0"></use><use xlink:href="#2" y="1.837"></use><text x="0" y="7.181" class="d">**********|</text></svg><svg x="2760"><use xlink:href="#a"></use><use xlink:href="#14" y="0"></use><use xlink:href="#2" y="1.837"></use><text x="0" y="7.181" class="d">***********|</text></svg><svg x="2820"><use xlink:href="#a"></use><use xlink:href="#14" y="0"></use><use xlink:href="#2" y="1.837"></use><text x="0" y="7.181" class="d">************|</text></svg><svg x="2880"><use xlink:href="#a"></use><use xlink:href="#14" y="0"></use><use xlink:href="#2" y="1.837"></use><text x="0" y="7.181" class="d">*************|</text></svg><svg x="2940"><use xlink:href="#a"></use><use xlink:href="#b" x="-0.0040000000000000036" y="7.173"></use><use xlink:href="#3" y="0"></use><use xlink:href="#6" y="1.837"></use><use xlink:href="#12" y="3.674"></use><use xlink:href="#13" y="5.511"></use></svg><svg x="3000"><use xlink:href="#a"></use><use xlink:href="#b" x="-0.0040000000000000036" y="9.01"></use><use xlink:href="#3" y="0"></use><use xlink:href="#6" y="1.837"></use><use xlink:href="#12" y="3.674"></use><use xlink:href="#13" y="5.511"></use><use xlink:href="#15" y="7.348"></use></svg><svg x="3060"><use xlink:href="#a"></use><use xlink:href="#16" y="0"></use><use xlink:href="#2" y="1.837"></use><use xlink:href="#17" y="5.511"></use><text x="0" y="9.018" class="d">(*)</text><text x="4.008" y="9.018" class="d">Minimal</text><text x="0" y="10.855" class="d">(</text><text x="2.004" y="10.855" class="d">)</text><text x="4.008" y="10.855" class="d">Demo</text><text x="9.017999999999999" y="10.855" class="d">Umami</text></svg><svg x="3120"><use xlink:href="#a"></use><use xlink:href="#16" y="0"></use><use xlink:href="#2" y="1.837"></use><use xlink:href="#17" y="5.511"></use><text x="0" y="9.018" class="d">(</text><text x="2.004" y="9.018" class="d">)</text><text x="4.008" y="9.018" class="d">Minimal</text><text x="0" y="10.855" class="d">(*)</text><text x="4.008" y="10.855" class="d">Demo</text><text x="9.017999999999999" y="10.855" class="d">Umami</text></svg><svg x="3180"><use xlink:href="#a"></use><use xlink:href="#b" x="-0.0040000000000000036" y="9.01"></use><use xlink:href="#3" y="0"></use><use xlink:href="#6" y="1.837"></use><use xlink:href="#12" y="3.674"></use><use xlink:href="#13" y="5.511"></use><use xlink:href="#15" y="7.348"></use></svg><svg x="3240"><use xlink:href="#a"></use><use xlink:href="#b" x="-0.0040000000000000036" y="10.847"></use><use xlink:href="#3" y="0"></use><use xlink:href="#6" y="1.837"></use><use xlink:href="#12" y="3.674"></use><use xlink:href="#13" y="5.511"></use><use xlink:href="#15" y="7.348"></use><use xlink:href="#18" y="9.185"></use></svg><svg x="3300"><use xlink:href="#a"></use><use xlink:href="#19" y="0"></use><use xlink:href="#2" y="1.837"></use><use xlink:href="#20" y="5.511"></use><use xlink:href="#21" y="7.348"></use><use xlink:href="#22" y="9.185"></use></svg><svg x="3360"><use xlink:href="#a"></use><use xlink:href="#19" y="0"></use><use xlink:href="#2" y="1.837"></use><use xlink:href="#23" y="5.511"></use><text x="0" y="9.018" class="d">&gt;</text><text x="2.004" y="9.018" class="d">[</text><text x="4.008" y="9.018" class="d">]</text><text x="6.012" y="9.018" class="d">Solr</text><use xlink:href="#22" y="9.185"></use></svg><svg x="3420"><use xlink:href="#a"></use><use xlink:href="#19" y="0"></use><use xlink:href="#2" y="1.837"></use><use xlink:href="#23" y="5.511"></use><text x="0" y="9.018" class="d">&gt;</text><text x="2.004" y="9.018" class="d">[x]</text><text x="6.012" y="9.018" class="d">Solr</text><use xlink:href="#22" y="9.185"></use></svg><svg x="3480"><use xlink:href="#a"></use><use xlink:href="#b" x="-0.0040000000000000036" y="10.847"></use><use xlink:href="#3" y="0"></use><use xlink:href="#6" y="1.837"></use><use xlink:href="#12" y="3.674"></use><use xlink:href="#13" y="5.511"></use><use xlink:href="#15" y="7.348"></use><use xlink:href="#18" y="9.185"></use></svg><svg x="3540"><use xlink:href="#a"></use><use xlink:href="#b" x="-0.0040000000000000036" y="12.684"></use><use xlink:href="#3" y="0"></use><use xlink:href="#6" y="1.837"></use><use xlink:href="#12" y="3.674"></use><use xlink:href="#13" y="5.511"></use><use xlink:href="#15" y="7.348"></use><use xlink:href="#18" y="9.185"></use><use xlink:href="#24" y="11.022"></use></svg><svg x="3600"><use xlink:href="#a"></use><use xlink:href="#25" y="0"></use><use xlink:href="#2" y="1.837"></use><use xlink:href="#5" y="5.511"></use><text x="2.004" y="9.018" class="d">UTC</text><use xlink:href="#26" y="9.185"></use><use xlink:href="#27" y="11.022"></use><use xlink:href="#28" y="12.859"></use></svg><svg x="3660"><use xlink:href="#a"></use><use xlink:href="#25" y="0"></use><use xlink:href="#2" y="1.837"></use><text x="0" y="7.181" class="d">E|</text><use xlink:href="#26" y="7.348"></use><use xlink:href="#27" y="9.185"></use><use xlink:href="#28" y="11.022"></use></svg><svg x="3720"><use xlink:href="#a"></use><use xlink:href="#25" y="0"></use><use xlink:href="#2" y="1.837"></use><text x="0" y="7.181" class="d">Eu|</text><use xlink:href="#26" y="7.348"></use><use xlink:href="#27" y="9.185"></use></svg><svg x="3780"><use xlink:href="#a"></use><use xlink:href="#25" y="0"></use><use xlink:href="#2" y="1.837"></use><use xlink:href="#29" y="5.511"></use><use xlink:href="#26" y="7.348"></use><use xlink:href="#27" y="9.185"></use></svg><svg x="3840"><use xlink:href="#a"></use><use xlink:href="#25" y="0"></use><use xlink:href="#2" y="1.837"></use><use xlink:href="#29" y="5.511"></use><text x="0" y="9.018" class="d">&gt;</text><text x="2.004" y="9.018" class="d">Europe/London</text><use xlink:href="#27" y="9.185"></use></svg><svg x="3900"><use xlink:href="#a"></use><use xlink:href="#b" x="-0.0040000000000000036" y="12.684"></use><use xlink:href="#3" y="0"></use><use xlink:href="#6" y="1.837"></use><use xlink:href="#12" y="3.674"></use><use xlink:href="#13" y="5.511"></use><use xlink:href="#15" y="7.348"></use><use xlink:href="#18" y="9.185"></use><use xlink:href="#24" y="11.022"></use></svg><svg x="3960"><use xlink:href="#a"></use><use xlink:href="#b" x="-0.0040000000000000036" y="14.520999999999999"></use><use xlink:href="#3" y="0"></use><use xlink:href="#6" y="1.837"></use><use xlink:href="#12" y="3.674"></use><use xlink:href="#13" y="5.511"></use><use xlink:href="#15" y="7.348"></use><use xlink:href="#18" y="9.185"></use><use xlink:href="#24" y="11.022"></use><use xlink:href="#30" y="12.859"></use></svg><svg x="4020"><use xlink:href="#a"></use><use xlink:href="#31" y="0"></use><use xlink:href="#2" y="1.837"></use><use xlink:href="#5" y="5.511"></use><text x="0" y="9.018" class="d">(</text><text x="2.004" y="9.018" class="d">)</text><text x="4.008" y="9.018" class="d">UTC</text><use xlink:href="#32" y="9.185"></use><use xlink:href="#33" y="11.022"></use><text x="0" y="14.529" class="d">(</text><text x="2.004" y="14.529" class="d">)</text><text x="4.008" y="14.529" class="d">Australia/Sydney</text></svg><svg x="4080"><use xlink:href="#a"></use><use xlink:href="#31" y="0"></use><use xlink:href="#2" y="1.837"></use><text x="0" y="7.181" class="d">p|</text><use xlink:href="#32" y="7.348"></use><use xlink:href="#33" y="9.185"></use></svg><svg x="4140"><use xlink:href="#a"></use><use xlink:href="#31" y="0"></use><use xlink:href="#2" y="1.837"></use><text x="0" y="7.181" class="d">pa|</text><use xlink:href="#34" y="7.348"></use></svg><svg x="4200"><use xlink:href="#a"></use><use xlink:href="#31" y="0"></use><use xlink:href="#2" y="1.837"></use><text x="0" y="7.181" class="d">par|</text><use xlink:href="#34" y="7.348"></use></svg><svg x="4260"><use xlink:href="#a"></use><use xlink:href="#b" x="-0.0040000000000000036" y="14.520999999999999"></use><use xlink:href="#3" y="0"></use><use xlink:href="#6" y="1.837"></use><use xlink:href="#12" y="3.674"></use><use xlink:href="#13" y="5.511"></use><use xlink:href="#15" y="7.348"></use><use xlink:href="#18" y="9.185"></use><use xlink:href="#24" y="11.022"></use><use xlink:href="#30" y="12.859"></use></svg><svg x="4320"><use xlink:href="#a"></use><use xlink:href="#b" x="-0.0040000000000000036" y="16.358"></use><use xlink:href="#3" y="0"></use><use xlink:href="#6" y="1.837"></use><use xlink:href="#12" y="3.674"></use><use xlink:href="#13" y="5.511"></use><use xlink:href="#15" y="7.348"></use><use xlink:href="#18" y="9.185"></use><use xlink:href="#24" y="11.022"></use><use xlink:href="#30" y="12.859"></use><use xlink:href="#35" y="14.696"></use></svg><svg x="4380"><use xlink:href="#a"></use><use xlink:href="#36" y="0"></use><use xlink:href="#2" y="1.837"></use><use xlink:href="#5" y="5.511"></use><use xlink:href="#20" y="7.348"></use><use xlink:href="#21" y="9.185"></use><use xlink:href="#22" y="11.022"></use><use xlink:href="#37" y="12.859"></use></svg><svg x="4440"><use xlink:href="#a"></use><use xlink:href="#36" y="0"></use><use xlink:href="#2" y="1.837"></use><text x="0" y="7.181" class="d">c|</text><use xlink:href="#38" y="7.348"></use><use xlink:href="#37" y="9.185"></use></svg><svg x="4500"><use xlink:href="#a"></use><use xlink:href="#36" y="0"></use><use xlink:href="#2" y="1.837"></use><use xlink:href="#39" y="5.511"></use><use xlink:href="#38" y="7.348"></use></svg><svg x="4560"><use xlink:href="#a"></use><use xlink:href="#36" y="0"></use><use xlink:href="#2" y="1.837"></use><use xlink:href="#39" y="5.511"></use><text x="0" y="9.018" class="d">&gt;</text><text x="2.004" y="9.018" class="d">[x]</text><text x="6.012" y="9.018" class="d">ClamAV</text></svg><svg x="4620"><use xlink:href="#a"></use><use xlink:href="#b" x="-0.0040000000000000036" y="16.358"></use><use xlink:href="#3" y="0"></use><use xlink:href="#6" y="1.837"></use><use xlink:href="#12" y="3.674"></use><use xlink:href="#13" y="5.511"></use><use xlink:href="#15" y="7.348"></use><use xlink:href="#18" y="9.185"></use><use xlink:href="#24" y="11.022"></use><use xlink:href="#30" y="12.859"></use><use xlink:href="#35" y="14.696"></use></svg><svg x="4680"><use xlink:href="#a"></use><use xlink:href="#b" x="-0.0040000000000000036" y="18.195"></use><use xlink:href="#3" y="0"></use><use xlink:href="#6" y="1.837"></use><use xlink:href="#12" y="3.674"></use><use xlink:href="#13" y="5.511"></use><use xlink:href="#15" y="7.348"></use><use xlink:href="#18" y="9.185"></use><use xlink:href="#24" y="11.022"></use><use xlink:href="#30" y="12.859"></use><use xlink:href="#35" y="14.696"></use><use xlink:href="#40" y="16.533"></use></svg><svg x="4740"><use xlink:href="#a"></use><use xlink:href="#41" y="0"></use><use xlink:href="#2" y="1.837"></use><text x="0" y="7.181" class="d">(*)</text><text x="4.008" y="7.181" class="d">Yes</text><text x="9.017999999999999" y="7.181" class="d">(</text><text x="11.021999999999998" y="7.181" class="d">)</text><text x="13.026" y="7.181" class="d">No</text></svg><svg x="4800"><use xlink:href="#a"></use><use xlink:href="#41" y="0"></use><use xlink:href="#2" y="1.837"></use><text x="0" y="7.181" class="d">(</text><text x="2.004" y="7.181" class="d">)</text><text x="4.008" y="7.181" class="d">Yes</text><text x="9.017999999999999" y="7.181" class="d">(*)</text><text x="13.026" y="7.181" class="d">No</text></svg><svg x="4860"><use xlink:href="#a"></use><use xlink:href="#b" x="-0.0040000000000000036" y="18.195"></use><use xlink:href="#3" y="0"></use><use xlink:href="#6" y="1.837"></use><use xlink:href="#12" y="3.674"></use><use xlink:href="#13" y="5.511"></use><use xlink:href="#15" y="7.348"></use><use xlink:href="#18" y="9.185"></use><use xlink:href="#24" y="11.022"></use><use xlink:href="#30" y="12.859"></use><use xlink:href="#35" y="14.696"></use><use xlink:href="#40" y="16.533"></use></svg><svg x="4920"><use xlink:href="#a"></use><use xlink:href="#b" x="-0.0040000000000000036" y="20.031999999999996"></use><use xlink:href="#3" y="0"></use><use xlink:href="#6" y="1.837"></use><use xlink:href="#12" y="3.674"></use><use xlink:href="#13" y="5.511"></use><use xlink:href="#15" y="7.348"></use><use xlink:href="#18" y="9.185"></use><use xlink:href="#24" y="11.022"></use><use xlink:href="#30" y="12.859"></use><use xlink:href="#35" y="14.696"></use><use xlink:href="#40" y="16.533"></use><use xlink:href="#42" y="18.37"></use></svg><svg x="4980"><use xlink:href="#a"></use><text x="0" y="1.67" class="c">Pause</text><text x="6.012" y="1.67" class="c">widget</text><text x="0" y="3.5069999999999997" class="d">Enter</text><text x="6.012" y="3.5069999999999997" class="d">continue</text><text x="15.029999999999998" y="3.5069999999999997" class="d">·</text><text x="17.034" y="3.5069999999999997" class="d">Esc</text><text x="21.041999999999998" y="3.5069999999999997" class="d">cancel</text><text x="0" y="7.181" class="d">&lt;</text><text x="2.004" y="7.181" class="d">Press</text><text x="8.016" y="7.181" class="d">Enter</text><text x="14.027999999999999" y="7.181" class="d">to</text><text x="17.034" y="7.181" class="d">continue</text></svg><svg x="5040"><use xlink:href="#a"></use><use xlink:href="#b" x="-0.0040000000000000036" y="21.869"></use><use xlink:href="#3" y="0"></use><use xlink:href="#6" y="1.837"></use><use xlink:href="#12" y="3.674"></use><use xlink:href="#13" y="5.511"></use><use xlink:href="#15" y="7.348"></use><use xlink:href="#18" y="9.185"></use><use xlink:href="#24" y="11.022"></use><use xlink:href="#30" y="12.859"></use><use xlink:href="#35" y="14.696"></use><use xlink:href="#40" y="16.533"></use><use xlink:href="#42" y="18.37"></use><use xlink:href="#43" y="20.206999999999997"></use></svg><svg x="5100"><use xlink:href="#a"></use><use xlink:href="#b" x="0.996" y="21.869"></use><use xlink:href="#3" y="0"></use><use xlink:href="#6" y="1.837"></use><use xlink:href="#12" y="3.674"></use><use xlink:href="#13" y="5.511"></use><use xlink:href="#15" y="7.348"></use><use xlink:href="#18" y="9.185"></use><use xlink:href="#24" y="11.022"></use><use xlink:href="#30" y="12.859"></use><use xlink:href="#35" y="14.696"></use><use xlink:href="#40" y="16.533"></use><use xlink:href="#42" y="18.37"></use><use xlink:href="#43" y="20.206999999999997"></use></svg></svg></g></g></svg></svg>