<svg xmlns="http://www.w3.org/2000/svg" xmlns:xlink="http://www.w3.org/1999/xlink" width="620" height="146.96"><rect width="620" height="146.96" rx="0" ry="0" class="a"></rect><svg height="146.96" viewBox="0 0 62 14.696" width="620" xmlns="http://www.w3.org/2000/svg" xmlns:xlink="http://www.w3.org/1999/xlink"><style>.a{fill:rgb(250,250,250)}.b{font-family:Consolas,"Courier New",Courier,"Liberation Mono",monospace}.c{fill:rgb(90,96,105);white-space:pre}.d{fill:rgb(0,128,128);font-weight:bold;white-space:pre}.e{fill:rgb(56,58,66);white-space:pre}.f{fill:rgb(0,128,0);white-space:pre}.g{fill:transparent}.h{fill:rgb(82,139,255)}.j{animation-duration:6.562s;animation-iteration-count:infinite;animation-name:i;animation-timing-function:steps(1,end)}.k{fill:rgb(56,58,66);font-weight:bold;white-space:pre}.l{fill:rgb(90,96,105);font-weight:bold;white-space:pre}.m{fill:rgb(0,128,0);font-weight:bold;white-space:pre}@keyframes i{0%{transform:translateX(-0px)}0%{transform:translateX(-62px)}21%{transform:translateX(-124px)}33.3%{transform:translateX(-186px)}45.7%{transform:translateX(-248px)}58.1%{transform:translateX(-310px)}100%{transform:translateX(-372px)}}</style><g font-family="Consolas, &quot;Courier New&quot;, Courier, &quot;Liberation Mono&quot;, monospace" font-size="1.67" class="b"><defs><symbol id="1"><text x="0" y="1.67" class="c">↑/↓</text><text x="4.008" y="1.67" class="c">move</text><text x="9.017999999999999" y="1.67" class="c">·</text><text x="11.021999999999998" y="1.67" class="c">↵</text><text x="13.026" y="1.67" class="c">select</text><text x="20.04" y="1.67" class="c">·</text><text x="22.043999999999997" y="1.67" class="c">esc</text><text x="26.052" y="1.67" class="c">back</text><text x="31.061999999999998" y="1.67" class="c">·</text><text x="33.065999999999995" y="1.67" class="c">q</text><text x="35.06999999999999" y="1.67" class="c">quit</text><text x="40.08" y="1.67" class="c">·</text><text x="42.083999999999996" y="1.67" class="c">?</text><text x="44.087999999999994" y="1.67" class="c">help</text></symbol><symbol id="2"><text x="0" y="1.67" class="d">MultiSelect</text></symbol><symbol id="3"><text x="0" y="1.67" class="c">───────────</text></symbol><symbol id="4"><text x="2.004" y="1.67" class="e">◻</text><text x="4.008" y="1.67" class="e">ClamAV</text></symbol><symbol id="5"><text x="0" y="1.67" class="c">space</text><text x="6.012" y="1.67" class="c">select</text><text x="13.026" y="1.67" class="c">·</text><text x="15.029999999999998" y="1.67" class="c">↑/↓</text><text x="19.037999999999997" y="1.67" class="c">move</text><text x="24.048" y="1.67" class="c">·</text><text x="26.052" y="1.67" class="c">←/→</text><text x="30.059999999999995" y="1.67" class="c">none/all</text><text x="39.077999999999996" y="1.67" class="c">·</text><text x="41.082" y="1.67" class="c">↵</text><text x="43.086" y="1.67" class="c">accept</text><text x="50.1" y="1.67" class="c">·</text><text x="52.104" y="1.67" class="c">esc</text><text x="56.111999999999995" y="1.67" class="c">cancel</text></symbol><symbol id="6"><text x="2.004" y="1.67" class="f">◼</text><text x="4.008" y="1.67" class="e">Redis</text></symbol><symbol id="7"><text x="0" y="1.67" class="d">❯</text><text x="2.004" y="1.67" class="f">◼</text><text x="4.008" y="1.67" class="d">Solr</text></symbol><symbol id="a"><rect height="8" width="62" x="0" y="0" class="g"></rect></symbol><symbol id="b"><rect height="1.837" width="1.1022" class="h"></rect></symbol></defs><rect height="14.696" width="62" class="a"></rect><g class="j"><svg x="0" y="0" width="434"><svg x="0"><use xlink:href="#a"></use><use xlink:href="#b" x="-0.0040000000000000036" y="0"></use></svg><svg x="62"><use xlink:href="#a"></use><use xlink:href="#b" x="47.996" y="10.847"></use><text x="0" y="1.67" class="c">MultiSelect</text><text x="12.024" y="1.67" class="c">widget</text><text x="0" y="3.5069999999999997" class="d">❯</text><text x="2.004" y="3.5069999999999997" class="k">MultiSelect</text><text x="14.027999999999999" y="3.5069999999999997" class="l">›</text><text x="4.008" y="5.343999999999999" class="m">redis</text><text x="2.004" y="9.018" class="f">[</text><text x="4.008" y="9.018" class="f">Submit</text><text x="11.021999999999998" y="9.018" class="f">]</text><text x="14.027999999999999" y="9.018" class="f">[</text><text x="16.032" y="9.018" class="f">Cancel</text><text x="23.045999999999996" y="9.018" class="f">]</text><use xlink:href="#1" y="11.022"></use></svg><svg x="124"><use xlink:href="#a"></use><use xlink:href="#b" x="47.996" y="5.336"></use><text x="0" y="1.67" class="c">MultiSelect</text><text x="12.024" y="1.67" class="c">widget</text><text x="19.037999999999997" y="1.67" class="c">›</text><text x="21.041999999999998" y="1.67" class="c">MultiSelect</text><text x="0" y="3.5069999999999997" class="d">❯</text><text x="2.004" y="3.5069999999999997" class="k">MultiSelect</text><text x="15.029999999999998" y="3.5069999999999997" class="m">redis</text><use xlink:href="#1" y="5.511"></use></svg><svg x="186"><use xlink:href="#a"></use><use xlink:href="#b" x="61.996" y="10.847"></use><use xlink:href="#2" y="0"></use><use xlink:href="#3" y="1.837"></use><text x="0" y="5.343999999999999" class="d">❯</text><text x="2.004" y="5.343999999999999" class="f">◼</text><text x="4.008" y="5.343999999999999" class="d">Redis</text><text x="2.004" y="7.181" class="e">◻</text><text x="4.008" y="7.181" class="e">Solr</text><use xlink:href="#4" y="7.348"></use><use xlink:href="#5" y="11.022"></use></svg><svg x="248"><use xlink:href="#a"></use><use xlink:href="#b" x="61.996" y="10.847"></use><use xlink:href="#2" y="0"></use><use xlink:href="#3" y="1.837"></use><use xlink:href="#6" y="3.674"></use><text x="0" y="7.181" class="d">❯</text><text x="2.004" y="7.181" class="e">◻</text><text x="4.008" y="7.181" class="d">Solr</text><use xlink:href="#4" y="7.348"></use><use xlink:href="#5" y="11.022"></use></svg><svg x="310"><use xlink:href="#a"></use><use xlink:href="#b" x="61.996" y="10.847"></use><use xlink:href="#2" y="0"></use><use xlink:href="#3" y="1.837"></use><use xlink:href="#6" y="3.674"></use><use xlink:href="#7" y="5.511"></use><use xlink:href="#4" y="7.348"></use><use xlink:href="#5" y="11.022"></use></svg><svg x="372"><use xlink:href="#a"></use><use xlink:href="#b" x="0.996" y="12.684"></use><use xlink:href="#2" y="0"></use><use xlink:href="#3" y="1.837"></use><use xlink:href="#6" y="3.674"></use><use xlink:href="#7" y="5.511"></use><use xlink:href="#4" y="7.348"></use><use xlink:href="#5" y="11.022"></use></svg></svg></g></g></svg></svg>