<svg xmlns="http://www.w3.org/2000/svg" xmlns:xlink="http://www.w3.org/1999/xlink" width="440" height="183.70000000000002"><rect width="440" height="183.70000000000002" rx="0" ry="0" class="a"></rect><svg height="183.70000000000002" viewBox="0 0 44 18.37" width="440" xmlns="http://www.w3.org/2000/svg" xmlns:xlink="http://www.w3.org/1999/xlink"><style>.a{fill:rgb(40,44,52)}.b{font-family:Consolas,"Courier New",Courier,"Liberation Mono",monospace}.c{fill:transparent}.d{fill:rgb(128,128,128);white-space:pre}.e{fill:rgb(0,128,128);font-weight:bold;white-space:pre}.f{fill:rgb(171,178,191);font-weight:bold;white-space:pre}.g{fill:rgb(128,128,128);font-weight:bold;white-space:pre}.h{fill:rgb(0,128,0);font-weight:bold;white-space:pre}.i{fill:rgb(0,128,0);white-space:pre}</style><g font-family="Consolas, &quot;Courier New&quot;, Courier, &quot;Liberation Mono&quot;, monospace" font-size="1.67" class="b"><defs><symbol id="a"><rect height="10" width="44" x="0" y="0" class="c"></rect></symbol></defs><rect height="18.37" width="44" class="a"></rect><svg x="0" y="0" width="44"><svg x="0"><use xlink:href="#a"></use><text x="0" y="1.67" class="d">Select</text><text x="7.013999999999999" y="1.67" class="d">with</text><text x="12.024" y="1.67" class="d">groups</text><text x="0" y="3.5069999999999997" class="e">&gt;</text><text x="2.004" y="3.5069999999999997" class="f">Select</text><text x="9.017999999999999" y="3.5069999999999997" class="g">&gt;</text><text x="4.008" y="5.343999999999999" class="h">apple</text><text x="2.004" y="9.018" class="i">[</text><text x="4.008" y="9.018" class="i">Submit</text><text x="11.021999999999998" y="9.018" class="i">]</text><text x="14.027999999999999" y="9.018" class="i">[</text><text x="16.032" y="9.018" class="i">Cancel</text><text x="23.045999999999996" y="9.018" class="i">]</text><text x="0" y="12.692" class="d">^/v</text><text x="4.008" y="12.692" class="d">move</text><text x="9.017999999999999" y="12.692" class="d">*</text><text x="11.021999999999998" y="12.692" class="d">&lt;</text><text x="13.026" y="12.692" class="d">select</text><text x="20.04" y="12.692" class="d">*</text><text x="22.043999999999997" y="12.692" class="d">esc</text><text x="26.052" y="12.692" class="d">back</text><text x="31.061999999999998" y="12.692" class="d">*</text><text x="33.065999999999995" y="12.692" class="d">q</text><text x="35.06999999999999" y="12.692" class="d">quit</text><text x="40.08" y="12.692" class="d">*</text><text x="42.083999999999996" y="12.692" class="d">?</text><text x="0" y="14.529" class="d">help</text></svg></svg></g></svg></svg>