<svg xmlns="http://www.w3.org/2000/svg" xmlns:xlink="http://www.w3.org/1999/xlink" width="760" height="220.44"><rect width="760" height="220.44" rx="0" ry="0" class="a"></rect><svg height="220.44" viewBox="0 0 76 22.044" width="760" xmlns="http://www.w3.org/2000/svg" xmlns:xlink="http://www.w3.org/1999/xlink"><style>.a{fill:rgb(40,44,52)}.b{font-family:Consolas,"Courier New",Courier,"Liberation Mono",monospace}.c{fill:rgb(0,128,128);white-space:pre}.d{fill:rgb(128,128,128);white-space:pre}.e{fill:rgb(0,128,128);font-weight:bold;white-space:pre}.f{fill:rgb(171,178,191);font-weight:bold;white-space:pre}.g{fill:rgb(171,178,191);white-space:pre}.h{fill:transparent}.i{fill:rgb(82,139,255)}.k{animation-duration:16.312s;animation-iteration-count:infinite;animation-name:j;animation-timing-function:steps(1,end)}.l{fill:rgb(128,128,128);font-weight:bold;white-space:pre}.m{fill:rgb(0,128,0);font-weight:bold;white-space:pre}.n{fill:rgb(128,128,0);font-weight:bold;white-space:pre}@keyframes j{0%{transform:translateX(-0px)}0%{transform:translateX(-76px)}8.4%{transform:translateX(-152px)}13.4%{transform:translateX(-228px)}18.4%{transform:translateX(-304px)}23.4%{transform:translateX(-380px)}28.4%{transform:translateX(-456px)}33.3%{transform:translateX(-532px)}38.3%{transform:translateX(-608px)}43.3%{transform:translateX(-684px)}48.3%{transform:translateX(-760px)}53.3%{transform:translateX(-836px)}58.2%{transform:translateX(-912px)}63.2%{transform:translateX(-988px)}68.2%{transform:translateX(-1064px)}73.2%{transform:translateX(-1140px)}78.2%{transform:translateX(-1216px)}83.1%{transform:translateX(-1292px)}100%{transform:translateX(-1368px)}}</style><g font-family="Consolas, &quot;Courier New&quot;, Courier, &quot;Liberation Mono&quot;, monospace" font-size="1.67" class="b"><defs><symbol id="1"><text x="0" y="1.67" class="c">╭──────────────────────────────────────────────────────────────────────────╮</text></symbol><symbol id="2"><text x="0" y="1.67" class="c">├──────────────────────────────────────────────────────────────────────────┤</text></symbol><symbol id="3"><text x="0" y="1.67" class="c">│</text><text x="75.14999999999999" y="1.67" class="c">│</text></symbol><symbol id="4"><text x="0" y="1.67" class="c">│</text><text x="2.004" y="1.67" class="d">↑/↓</text><text x="6.012" y="1.67" class="d">move</text><text x="11.021999999999998" y="1.67" class="d">·</text><text x="13.026" y="1.67" class="d">↵</text><text x="15.029999999999998" y="1.67" class="d">select</text><text x="22.043999999999997" y="1.67" class="d">·</text><text x="24.048" y="1.67" class="d">esc</text><text x="28.055999999999997" y="1.67" class="d">back</text><text x="33.065999999999995" y="1.67" class="d">·</text><text x="35.06999999999999" y="1.67" class="d">q</text><text x="37.074" y="1.67" class="d">quit</text><text x="42.083999999999996" y="1.67" class="d">·</text><text x="44.087999999999994" y="1.67" class="d">?</text><text x="46.09199999999999" y="1.67" class="d">help</text><text x="75.14999999999999" y="1.67" class="c">│</text></symbol><symbol id="5"><text x="0" y="1.67" class="c">╰──────────────────────────────────────────────────────────────────────────╯</text></symbol><symbol id="6"><text x="0" y="1.67" class="c">│</text><text x="2.004" y="1.67" class="d">Textarea</text><text x="11.021999999999998" y="1.67" class="d">widget</text><text x="18.035999999999998" y="1.67" class="d">›</text><text x="20.04" y="1.67" class="d">Textarea</text><text x="75.14999999999999" y="1.67" class="c">│</text></symbol><symbol id="7"><text x="0" y="1.67" class="c">│</text><text x="2.004" y="1.67" class="e">❯</text><text x="4.008" y="1.67" class="f">Tasting</text><text x="12.024" y="1.67" class="f">notes</text><text x="19.037999999999997" y="1.67" class="g">Crisp</text><text x="25.05" y="1.67" class="g">and</text><text x="29.058" y="1.67" class="g">sweet</text><text x="75.14999999999999" y="1.67" class="c">│</text></symbol><symbol id="8"><text x="0" y="1.67" class="c">│</text><text x="2.004" y="1.67" class="d">↵</text><text x="4.008" y="1.67" class="d">newline</text><text x="12.024" y="1.67" class="d">·</text><text x="14.027999999999999" y="1.67" class="d">tab</text><text x="18.035999999999998" y="1.67" class="d">accept</text><text x="25.05" y="1.67" class="d">·</text><text x="27.054" y="1.67" class="d">esc</text><text x="31.061999999999998" y="1.67" class="d">cancel</text><text x="75.14999999999999" y="1.67" class="c">│</text></symbol><symbol id="9"><text x="0" y="1.67" class="c">│</text><text x="19.037999999999997" y="1.67" class="g">Hint</text><text x="24.048" y="1.67" class="g">of</text><text x="27.054" y="1.67" class="g">citrus</text><text x="75.14999999999999" y="1.67" class="c">│</text></symbol><symbol id="10"><text x="0" y="1.67" class="c">│</text><text x="19.037999999999997" y="1.67" class="g">Slightly</text><text x="28.055999999999997" y="1.67" class="g">tart</text><text x="32.064" y="1.67" class="e">█</text><text x="75.14999999999999" y="1.67" class="c">│</text></symbol><symbol id="a"><rect height="12" width="76" x="0" y="0" class="h"></rect></symbol><symbol id="b"><rect height="1.837" width="1.1022" class="i"></rect></symbol></defs><rect height="22.044" width="76" class="a"></rect><g class="k"><svg x="0" y="0" width="1444"><svg x="0"><use xlink:href="#a"></use><use xlink:href="#b" x="-0.0040000000000000036" y="0"></use></svg><svg x="76"><use xlink:href="#a"></use><use xlink:href="#b" x="75.996" y="20.031999999999996"></use><use xlink:href="#1" y="0"></use><text x="0" y="3.5069999999999997" class="c">│</text><text x="2.004" y="3.5069999999999997" class="d">Textarea</text><text x="11.021999999999998" y="3.5069999999999997" class="d">widget</text><text x="75.14999999999999" y="3.5069999999999997" class="c">│</text><use xlink:href="#2" y="3.674"></use><use xlink:href="#3" y="5.511"></use><text x="0" y="9.018" class="c">│</text><text x="2.004" y="9.018" class="e">❯</text><text x="4.008" y="9.018" class="f">Textarea</text><text x="13.026" y="9.018" class="l">›</text><text x="75.14999999999999" y="9.018" class="c">│</text><text x="0" y="10.855" class="c">│</text><text x="6.012" y="10.855" class="m">Crisp</text><text x="12.024" y="10.855" class="m">and</text><text x="16.032" y="10.855" class="m">sweet</text><text x="22.043999999999997" y="10.855" class="m">Hint</text><text x="27.054" y="10.855" class="m">of</text><text x="30.059999999999995" y="10.855" class="m">citrus</text><text x="75.14999999999999" y="10.855" class="c">│</text><use xlink:href="#3" y="11.022"></use><text x="0" y="14.529" class="c">│</text><text x="4.008" y="14.529" class="n">▼</text><text x="75.14999999999999" y="14.529" class="c">│</text><use xlink:href="#3" y="14.696"></use><use xlink:href="#2" y="16.533"></use><use xlink:href="#4" y="18.37"></use><use xlink:href="#5" y="20.206999999999997"></use></svg><svg x="152"><use xlink:href="#a"></use><use xlink:href="#b" x="75.996" y="16.358"></use><use xlink:href="#1" y="0"></use><use xlink:href="#6" y="1.837"></use><use xlink:href="#2" y="3.674"></use><use xlink:href="#3" y="5.511"></use><text x="0" y="9.018" class="c">│</text><text x="2.004" y="9.018" class="e">❯</text><text x="4.008" y="9.018" class="f">Tasting</text><text x="12.024" y="9.018" class="f">notes</text><text x="19.037999999999997" y="9.018" class="m">Crisp</text><text x="25.05" y="9.018" class="m">and</text><text x="29.058" y="9.018" class="m">sweet</text><text x="75.14999999999999" y="9.018" class="c">│</text><text x="0" y="10.855" class="c">│</text><text x="19.037999999999997" y="10.855" class="m">Hint</text><text x="24.048" y="10.855" class="m">of</text><text x="27.054" y="10.855" class="m">citrus</text><text x="75.14999999999999" y="10.855" class="c">│</text><use xlink:href="#3" y="11.022"></use><use xlink:href="#2" y="12.859"></use><use xlink:href="#4" y="14.696"></use><use xlink:href="#5" y="16.533"></use></svg><svg x="228"><use xlink:href="#a"></use><use xlink:href="#b" x="75.996" y="16.358"></use><use xlink:href="#1" y="0"></use><use xlink:href="#6" y="1.837"></use><use xlink:href="#2" y="3.674"></use><use xlink:href="#3" y="5.511"></use><use xlink:href="#7" y="7.348"></use><text x="0" y="10.855" class="c">│</text><text x="19.037999999999997" y="10.855" class="g">Hint</text><text x="24.048" y="10.855" class="g">of</text><text x="27.054" y="10.855" class="g">citrus</text><text x="33.065999999999995" y="10.855" class="e">█</text><text x="75.14999999999999" y="10.855" class="c">│</text><use xlink:href="#3" y="11.022"></use><use xlink:href="#2" y="12.859"></use><use xlink:href="#8" y="14.696"></use><use xlink:href="#5" y="16.533"></use></svg><svg x="304"><use xlink:href="#a"></use><use xlink:href="#b" x="75.996" y="18.195"></use><use xlink:href="#1" y="0"></use><use xlink:href="#6" y="1.837"></use><use xlink:href="#2" y="3.674"></use><use xlink:href="#3" y="5.511"></use><use xlink:href="#7" y="7.348"></use><use xlink:href="#9" y="9.185"></use><text x="0" y="12.692" class="c">│</text><text x="19.037999999999997" y="12.692" class="e">█</text><text x="75.14999999999999" y="12.692" class="c">│</text><use xlink:href="#3" y="12.859"></use><use xlink:href="#2" y="14.696"></use><use xlink:href="#8" y="16.533"></use><use xlink:href="#5" y="18.37"></use></svg><svg x="380"><use xlink:href="#a"></use><use xlink:href="#b" x="75.996" y="18.195"></use><use xlink:href="#1" y="0"></use><use xlink:href="#6" y="1.837"></use><use xlink:href="#2" y="3.674"></use><use xlink:href="#3" y="5.511"></use><use xlink:href="#7" y="7.348"></use><use xlink:href="#9" y="9.185"></use><text x="0" y="12.692" class="c">│</text><text x="19.037999999999997" y="12.692" class="g">S</text><text x="20.04" y="12.692" class="e">█</text><text x="75.14999999999999" y="12.692" class="c">│</text><use xlink:href="#3" y="12.859"></use><use xlink:href="#2" y="14.696"></use><use xlink:href="#8" y="16.533"></use><use xlink:href="#5" y="18.37"></use></svg><svg x="456"><use xlink:href="#a"></use><use xlink:href="#b" x="75.996" y="18.195"></use><use xlink:href="#1" y="0"></use><use xlink:href="#6" y="1.837"></use><use xlink:href="#2" y="3.674"></use><use xlink:href="#3" y="5.511"></use><use xlink:href="#7" y="7.348"></use><use xlink:href="#9" y="9.185"></use><text x="0" y="12.692" class="c">│</text><text x="19.037999999999997" y="12.692" class="g">Sl</text><text x="21.041999999999998" y="12.692" class="e">█</text><text x="75.14999999999999" y="12.692" class="c">│</text><use xlink:href="#3" y="12.859"></use><use xlink:href="#2" y="14.696"></use><use xlink:href="#8" y="16.533"></use><use xlink:href="#5" y="18.37"></use></svg><svg x="532"><use xlink:href="#a"></use><use xlink:href="#b" x="75.996" y="18.195"></use><use xlink:href="#1" y="0"></use><use xlink:href="#6" y="1.837"></use><use xlink:href="#2" y="3.674"></use><use xlink:href="#3" y="5.511"></use><use xlink:href="#7" y="7.348"></use><use xlink:href="#9" y="9.185"></use><text x="0" y="12.692" class="c">│</text><text x="19.037999999999997" y="12.692" class="g">Sli</text><text x="22.043999999999997" y="12.692" class="e">█</text><text x="75.14999999999999" y="12.692" class="c">│</text><use xlink:href="#3" y="12.859"></use><use xlink:href="#2" y="14.696"></use><use xlink:href="#8" y="16.533"></use><use xlink:href="#5" y="18.37"></use></svg><svg x="608"><use xlink:href="#a"></use><use xlink:href="#b" x="75.996" y="18.195"></use><use xlink:href="#1" y="0"></use><use xlink:href="#6" y="1.837"></use><use xlink:href="#2" y="3.674"></use><use xlink:href="#3" y="5.511"></use><use xlink:href="#7" y="7.348"></use><use xlink:href="#9" y="9.185"></use><text x="0" y="12.692" class="c">│</text><text x="19.037999999999997" y="12.692" class="g">Slig</text><text x="23.045999999999996" y="12.692" class="e">█</text><text x="75.14999999999999" y="12.692" class="c">│</text><use xlink:href="#3" y="12.859"></use><use xlink:href="#2" y="14.696"></use><use xlink:href="#8" y="16.533"></use><use xlink:href="#5" y="18.37"></use></svg><svg x="684"><use xlink:href="#a"></use><use xlink:href="#b" x="75.996" y="18.195"></use><use xlink:href="#1" y="0"></use><use xlink:href="#6" y="1.837"></use><use xlink:href="#2" y="3.674"></use><use xlink:href="#3" y="5.511"></use><use xlink:href="#7" y="7.348"></use><use xlink:href="#9" y="9.185"></use><text x="0" y="12.692" class="c">│</text><text x="19.037999999999997" y="12.692" class="g">Sligh</text><text x="24.048" y="12.692" class="e">█</text><text x="75.14999999999999" y="12.692" class="c">│</text><use xlink:href="#3" y="12.859"></use><use xlink:href="#2" y="14.696"></use><use xlink:href="#8" y="16.533"></use><use xlink:href="#5" y="18.37"></use></svg><svg x="760"><use xlink:href="#a"></use><use xlink:href="#b" x="75.996" y="18.195"></use><use xlink:href="#1" y="0"></use><use xlink:href="#6" y="1.837"></use><use xlink:href="#2" y="3.674"></use><use xlink:href="#3" y="5.511"></use><use xlink:href="#7" y="7.348"></use><use xlink:href="#9" y="9.185"></use><text x="0" y="12.692" class="c">│</text><text x="19.037999999999997" y="12.692" class="g">Slight</text><text x="25.05" y="12.692" class="e">█</text><text x="75.14999999999999" y="12.692" class="c">│</text><use xlink:href="#3" y="12.859"></use><use xlink:href="#2" y="14.696"></use><use xlink:href="#8" y="16.533"></use><use xlink:href="#5" y="18.37"></use></svg><svg x="836"><use xlink:href="#a"></use><use xlink:href="#b" x="75.996" y="18.195"></use><use xlink:href="#1" y="0"></use><use xlink:href="#6" y="1.837"></use><use xlink:href="#2" y="3.674"></use><use xlink:href="#3" y="5.511"></use><use xlink:href="#7" y="7.348"></use><use xlink:href="#9" y="9.185"></use><text x="0" y="12.692" class="c">│</text><text x="19.037999999999997" y="12.692" class="g">Slightl</text><text x="26.052" y="12.692" class="e">█</text><text x="75.14999999999999" y="12.692" class="c">│</text><use xlink:href="#3" y="12.859"></use><use xlink:href="#2" y="14.696"></use><use xlink:href="#8" y="16.533"></use><use xlink:href="#5" y="18.37"></use></svg><svg x="912"><use xlink:href="#a"></use><use xlink:href="#b" x="75.996" y="18.195"></use><use xlink:href="#1" y="0"></use><use xlink:href="#6" y="1.837"></use><use xlink:href="#2" y="3.674"></use><use xlink:href="#3" y="5.511"></use><use xlink:href="#7" y="7.348"></use><use xlink:href="#9" y="9.185"></use><text x="0" y="12.692" class="c">│</text><text x="19.037999999999997" y="12.692" class="g">Slightly</text><text x="27.054" y="12.692" class="e">█</text><text x="75.14999999999999" y="12.692" class="c">│</text><use xlink:href="#3" y="12.859"></use><use xlink:href="#2" y="14.696"></use><use xlink:href="#8" y="16.533"></use><use xlink:href="#5" y="18.37"></use></svg><svg x="988"><use xlink:href="#a"></use><use xlink:href="#b" x="75.996" y="18.195"></use><use xlink:href="#1" y="0"></use><use xlink:href="#6" y="1.837"></use><use xlink:href="#2" y="3.674"></use><use xlink:href="#3" y="5.511"></use><use xlink:href="#7" y="7.348"></use><use xlink:href="#9" y="9.185"></use><text x="0" y="12.692" class="c">│</text><text x="19.037999999999997" y="12.692" class="g">Slightly</text><text x="28.055999999999997" y="12.692" class="e">█</text><text x="75.14999999999999" y="12.692" class="c">│</text><use xlink:href="#3" y="12.859"></use><use xlink:href="#2" y="14.696"></use><use xlink:href="#8" y="16.533"></use><use xlink:href="#5" y="18.37"></use></svg><svg x="1064"><use xlink:href="#a"></use><use xlink:href="#b" x="75.996" y="18.195"></use><use xlink:href="#1" y="0"></use><use xlink:href="#6" y="1.837"></use><use xlink:href="#2" y="3.674"></use><use xlink:href="#3" y="5.511"></use><use xlink:href="#7" y="7.348"></use><use xlink:href="#9" y="9.185"></use><text x="0" y="12.692" class="c">│</text><text x="19.037999999999997" y="12.692" class="g">Slightly</text><text x="28.055999999999997" y="12.692" class="g">t</text><text x="29.058" y="12.692" class="e">█</text><text x="75.14999999999999" y="12.692" class="c">│</text><use xlink:href="#3" y="12.859"></use><use xlink:href="#2" y="14.696"></use><use xlink:href="#8" y="16.533"></use><use xlink:href="#5" y="18.37"></use></svg><svg x="1140"><use xlink:href="#a"></use><use xlink:href="#b" x="75.996" y="18.195"></use><use xlink:href="#1" y="0"></use><use xlink:href="#6" y="1.837"></use><use xlink:href="#2" y="3.674"></use><use xlink:href="#3" y="5.511"></use><use xlink:href="#7" y="7.348"></use><use xlink:href="#9" y="9.185"></use><text x="0" y="12.692" class="c">│</text><text x="19.037999999999997" y="12.692" class="g">Slightly</text><text x="28.055999999999997" y="12.692" class="g">ta</text><text x="30.059999999999995" y="12.692" class="e">█</text><text x="75.14999999999999" y="12.692" class="c">│</text><use xlink:href="#3" y="12.859"></use><use xlink:href="#2" y="14.696"></use><use xlink:href="#8" y="16.533"></use><use xlink:href="#5" y="18.37"></use></svg><svg x="1216"><use xlink:href="#a"></use><use xlink:href="#b" x="75.996" y="18.195"></use><use xlink:href="#1" y="0"></use><use xlink:href="#6" y="1.837"></use><use xlink:href="#2" y="3.674"></use><use xlink:href="#3" y="5.511"></use><use xlink:href="#7" y="7.348"></use><use xlink:href="#9" y="9.185"></use><text x="0" y="12.692" class="c">│</text><text x="19.037999999999997" y="12.692" class="g">Slightly</text><text x="28.055999999999997" y="12.692" class="g">tar</text><text x="31.061999999999998" y="12.692" class="e">█</text><text x="75.14999999999999" y="12.692" class="c">│</text><use xlink:href="#3" y="12.859"></use><use xlink:href="#2" y="14.696"></use><use xlink:href="#8" y="16.533"></use><use xlink:href="#5" y="18.37"></use></svg><svg x="1292"><use xlink:href="#a"></use><use xlink:href="#b" x="75.996" y="18.195"></use><use xlink:href="#1" y="0"></use><use xlink:href="#6" y="1.837"></use><use xlink:href="#2" y="3.674"></use><use xlink:href="#3" y="5.511"></use><use xlink:href="#7" y="7.348"></use><use xlink:href="#9" y="9.185"></use><use xlink:href="#10" y="11.022"></use><use xlink:href="#3" y="12.859"></use><use xlink:href="#2" y="14.696"></use><use xlink:href="#8" y="16.533"></use><use xlink:href="#5" y="18.37"></use></svg><svg x="1368"><use xlink:href="#a"></use><use xlink:href="#b" x="0.996" y="20.031999999999996"></use><use xlink:href="#1" y="0"></use><use xlink:href="#6" y="1.837"></use><use xlink:href="#2" y="3.674"></use><use xlink:href="#3" y="5.511"></use><use xlink:href="#7" y="7.348"></use><use xlink:href="#9" y="9.185"></use><use xlink:href="#10" y="11.022"></use><use xlink:href="#3" y="12.859"></use><use xlink:href="#2" y="14.696"></use><use xlink:href="#8" y="16.533"></use><use xlink:href="#5" y="18.37"></use></svg></svg></g></g></svg></svg>