<svg xmlns="http://www.w3.org/2000/svg" xmlns:xlink="http://www.w3.org/1999/xlink" width="760" height="257.18"><rect width="760" height="257.18" rx="0" ry="0" class="a"></rect><svg height="257.18" viewBox="0 0 76 25.718" width="760" xmlns="http://www.w3.org/2000/svg" xmlns:xlink="http://www.w3.org/1999/xlink"><style>.a{fill:rgb(250,250,250)}.b{font-family:Consolas,"Courier New",Courier,"Liberation Mono",monospace}.c{fill:rgb(56,58,66);white-space:pre}.d{fill:transparent}.e{fill:rgb(82,139,255)}</style><g font-family="Consolas, &quot;Courier New&quot;, Courier, &quot;Liberation Mono&quot;, monospace" font-size="1.67" class="b"><defs><symbol id="1"><text x="0" y="1.67" class="c">├──────────────────────────────────────────────────────────────────────────┤</text></symbol><symbol id="2"><text x="0" y="1.67" class="c">│</text><text x="75.14999999999999" y="1.67" class="c">│</text></symbol><symbol id="a"><rect height="14" width="76" x="0" y="0" class="d"></rect></symbol><symbol id="b"><rect height="1.837" width="1.1022" class="e"></rect></symbol></defs><rect height="25.718" width="76" class="a"></rect><svg x="0" y="0" width="76"><svg x="0"><use xlink:href="#a"></use><use xlink:href="#b" x="75.996" y="21.869"></use><text x="0" y="1.67" class="c">╭──────────────────────────────────────────────────────────────────────────╮</text><text x="0" y="3.5069999999999997" class="c">│</text><text x="2.004" y="3.5069999999999997" class="c">Suggest</text><text x="10.02" y="3.5069999999999997" class="c">widget</text><text x="17.034" y="3.5069999999999997" class="c">›</text><text x="19.037999999999997" y="3.5069999999999997" class="c">Suggest</text><text x="75.14999999999999" y="3.5069999999999997" class="c">│</text><use xlink:href="#1" y="3.674"></use><use xlink:href="#2" y="5.511"></use><text x="0" y="9.018" class="c">│</text><text x="2.004" y="9.018" class="c">❯</text><text x="4.008" y="9.018" class="c">Fruit</text><text x="11.021999999999998" y="9.018" class="c">█</text><text x="75.14999999999999" y="9.018" class="c">│</text><text x="0" y="10.855" class="c">│</text><text x="13.026" y="10.855" class="c">Apple</text><text x="75.14999999999999" y="10.855" class="c">│</text><text x="0" y="12.692" class="c">│</text><text x="13.026" y="12.692" class="c">Apricot</text><text x="75.14999999999999" y="12.692" class="c">│</text><text x="0" y="14.529" class="c">│</text><text x="13.026" y="14.529" class="c">Banana</text><text x="75.14999999999999" y="14.529" class="c">│</text><text x="0" y="16.366" class="c">│</text><text x="4.008" y="16.366" class="c">▼</text><text x="75.14999999999999" y="16.366" class="c">│</text><use xlink:href="#2" y="16.533"></use><use xlink:href="#1" y="18.37"></use><text x="0" y="21.876999999999995" class="c">│</text><text x="2.004" y="21.876999999999995" class="c">↑/↓</text><text x="6.012" y="21.876999999999995" class="c">move</text><text x="11.021999999999998" y="21.876999999999995" class="c">·</text><text x="13.026" y="21.876999999999995" class="c">↵</text><text x="15.029999999999998" y="21.876999999999995" class="c">accept</text><text x="22.043999999999997" y="21.876999999999995" class="c">·</text><text x="24.048" y="21.876999999999995" class="c">esc</text><text x="28.055999999999997" y="21.876999999999995" class="c">cancel</text><text x="75.14999999999999" y="21.876999999999995" class="c">│</text><text x="0" y="23.714" class="c">╰──────────────────────────────────────────────────────────────────────────╯</text></svg></svg></g></svg></svg>