<svg xmlns="http://www.w3.org/2000/svg" xmlns:xlink="http://www.w3.org/1999/xlink" width="760" height="183.70000000000002"><rect width="760" height="183.70000000000002" rx="0" ry="0" class="a"></rect><svg height="183.70000000000002" viewBox="0 0 76 18.37" width="760" xmlns="http://www.w3.org/2000/svg" xmlns:xlink="http://www.w3.org/1999/xlink"><style>.a{fill:rgb(250,250,250)}.b{font-family:Consolas,"Courier New",Courier,"Liberation Mono",monospace}.c{fill:rgb(0,128,128);white-space:pre}.d{fill:rgb(90,96,105);white-space:pre}.e{fill:rgb(0,128,128);font-weight:bold;white-space:pre}.f{fill:rgb(56,58,66);font-weight:bold;white-space:pre}.g{fill:rgb(56,58,66);white-space:pre}.h{fill:transparent}.i{fill:rgb(82,139,255)}.k{animation-duration:12.25s;animation-iteration-count:infinite;animation-name:j;animation-timing-function:steps(1,end)}.l{fill:rgb(90,96,105);font-weight:bold;white-space:pre}.m{fill:rgb(0,128,0);font-weight:bold;white-space:pre}.n{fill:rgb(128,128,0);font-weight:bold;white-space:pre}@keyframes j{0%{transform:translateX(-0px)}0%{transform:translateX(-76px)}11.2%{transform:translateX(-152px)}17.9%{transform:translateX(-228px)}24.5%{transform:translateX(-304px)}31.1%{transform:translateX(-380px)}37.8%{transform:translateX(-456px)}44.4%{transform:translateX(-532px)}51%{transform:translateX(-608px)}57.7%{transform:translateX(-684px)}64.3%{transform:translateX(-760px)}70.9%{transform:translateX(-836px)}77.6%{transform:translateX(-912px)}100%{transform:translateX(-988px)}}</style><g font-family="Consolas, &quot;Courier New&quot;, Courier, &quot;Liberation Mono&quot;, monospace" font-size="1.67" class="b"><defs><symbol id="1"><text x="0" y="1.67" class="c">├──────────────────────────────────────────────────────────────────────────┤</text></symbol><symbol id="2"><text x="0" y="1.67" class="c">│</text><text x="75.14999999999999" y="1.67" class="c">│</text></symbol><symbol id="3"><text x="0" y="1.67" class="c">│</text><text x="2.004" y="1.67" class="d">↑/↓</text><text x="6.012" y="1.67" class="d">move</text><text x="11.021999999999998" y="1.67" class="d">·</text><text x="13.026" y="1.67" class="d">↵</text><text x="15.029999999999998" y="1.67" class="d">select</text><text x="22.043999999999997" y="1.67" class="d">·</text><text x="24.048" y="1.67" class="d">esc</text><text x="28.055999999999997" y="1.67" class="d">back</text><text x="33.065999999999995" y="1.67" class="d">·</text><text x="35.06999999999999" y="1.67" class="d">q</text><text x="37.074" y="1.67" class="d">quit</text><text x="42.083999999999996" y="1.67" class="d">·</text><text x="44.087999999999994" y="1.67" class="d">?</text><text x="46.09199999999999" y="1.67" class="d">help</text><text x="75.14999999999999" y="1.67" class="c">│</text></symbol><symbol id="4"><text x="0" y="1.67" class="c">╰──────────────────────────────────────────────────────────────────────────╯</text></symbol><symbol id="5"><text x="0" y="1.67" class="c">╭──────────────────────────────────────────────────────────────────────────╮</text></symbol><symbol id="6"><text x="0" y="1.67" class="c">│</text><text x="2.004" y="1.67" class="d">Text</text><text x="7.013999999999999" y="1.67" class="d">widget</text><text x="14.027999999999999" y="1.67" class="d">›</text><text x="16.032" y="1.67" class="d">Text</text><text x="75.14999999999999" y="1.67" class="c">│</text></symbol><symbol id="7"><text x="0" y="1.67" class="c">│</text><text x="2.004" y="1.67" class="d">↵</text><text x="4.008" y="1.67" class="d">accept</text><text x="11.021999999999998" y="1.67" class="d">·</text><text x="13.026" y="1.67" class="d">esc</text><text x="17.034" y="1.67" class="d">cancel</text><text x="75.14999999999999" y="1.67" class="c">│</text></symbol><symbol id="8"><text x="0" y="1.67" class="c">│</text><text x="2.004" y="1.67" class="e">❯</text><text x="4.008" y="1.67" class="f">Item</text><text x="10.02" y="1.67" class="g">Apple</text><text x="15.029999999999998" y="1.67" class="e">█</text><text x="75.14999999999999" y="1.67" class="c">│</text></symbol><symbol id="a"><rect height="10" width="76" x="0" y="0" class="h"></rect></symbol><symbol id="b"><rect height="1.837" width="1.1022" class="i"></rect></symbol></defs><rect height="18.37" width="76" class="a"></rect><g class="k"><svg x="0" y="0" width="1064"><svg x="0"><use xlink:href="#a"></use><use xlink:href="#b" x="-0.0040000000000000036" y="0"></use></svg><svg x="76"><use xlink:href="#a"></use><use xlink:href="#b" x="75.996" y="16.358"></use><use xlink:href="#1" y="0"></use><use xlink:href="#2" y="1.837"></use><text x="0" y="5.343999999999999" class="c">│</text><text x="2.004" y="5.343999999999999" class="e">❯</text><text x="4.008" y="5.343999999999999" class="f">Text</text><text x="9.017999999999999" y="5.343999999999999" class="l">›</text><text x="75.14999999999999" y="5.343999999999999" class="c">│</text><text x="0" y="7.181" class="c">│</text><text x="6.012" y="7.181" class="m">Pear</text><text x="75.14999999999999" y="7.181" class="c">│</text><use xlink:href="#2" y="7.348"></use><text x="0" y="10.855" class="c">│</text><text x="4.008" y="10.855" class="n">▼</text><text x="75.14999999999999" y="10.855" class="c">│</text><use xlink:href="#2" y="11.022"></use><use xlink:href="#1" y="12.859"></use><use xlink:href="#3" y="14.696"></use><use xlink:href="#4" y="16.533"></use></svg><svg x="152"><use xlink:href="#a"></use><use xlink:href="#b" x="75.996" y="14.520999999999999"></use><use xlink:href="#5" y="0"></use><use xlink:href="#6" y="1.837"></use><use xlink:href="#1" y="3.674"></use><use xlink:href="#2" y="5.511"></use><text x="0" y="9.018" class="c">│</text><text x="2.004" y="9.018" class="e">❯</text><text x="4.008" y="9.018" class="f">Item</text><text x="10.02" y="9.018" class="m">Pear</text><text x="75.14999999999999" y="9.018" class="c">│</text><use xlink:href="#2" y="9.185"></use><use xlink:href="#1" y="11.022"></use><use xlink:href="#3" y="12.859"></use><use xlink:href="#4" y="14.696"></use></svg><svg x="228"><use xlink:href="#a"></use><use xlink:href="#b" x="75.996" y="14.520999999999999"></use><use xlink:href="#5" y="0"></use><use xlink:href="#6" y="1.837"></use><use xlink:href="#1" y="3.674"></use><use xlink:href="#2" y="5.511"></use><text x="0" y="9.018" class="c">│</text><text x="2.004" y="9.018" class="e">❯</text><text x="4.008" y="9.018" class="f">Item</text><text x="10.02" y="9.018" class="g">Pear</text><text x="14.027999999999999" y="9.018" class="e">█</text><text x="75.14999999999999" y="9.018" class="c">│</text><use xlink:href="#2" y="9.185"></use><use xlink:href="#1" y="11.022"></use><use xlink:href="#7" y="12.859"></use><use xlink:href="#4" y="14.696"></use></svg><svg x="304"><use xlink:href="#a"></use><use xlink:href="#b" x="75.996" y="14.520999999999999"></use><use xlink:href="#5" y="0"></use><use xlink:href="#6" y="1.837"></use><use xlink:href="#1" y="3.674"></use><use xlink:href="#2" y="5.511"></use><text x="0" y="9.018" class="c">│</text><text x="2.004" y="9.018" class="e">❯</text><text x="4.008" y="9.018" class="f">Item</text><text x="10.02" y="9.018" class="g">Pea</text><text x="13.026" y="9.018" class="e">█</text><text x="14.027999999999999" y="9.018" class="d">r</text><text x="75.14999999999999" y="9.018" class="c">│</text><use xlink:href="#2" y="9.185"></use><use xlink:href="#1" y="11.022"></use><use xlink:href="#7" y="12.859"></use><use xlink:href="#4" y="14.696"></use></svg><svg x="380"><use xlink:href="#a"></use><use xlink:href="#b" x="75.996" y="14.520999999999999"></use><use xlink:href="#5" y="0"></use><use xlink:href="#6" y="1.837"></use><use xlink:href="#1" y="3.674"></use><use xlink:href="#2" y="5.511"></use><text x="0" y="9.018" class="c">│</text><text x="2.004" y="9.018" class="e">❯</text><text x="4.008" y="9.018" class="f">Item</text><text x="10.02" y="9.018" class="g">Pe</text><text x="12.024" y="9.018" class="e">█</text><text x="13.026" y="9.018" class="d">ar</text><text x="75.14999999999999" y="9.018" class="c">│</text><use xlink:href="#2" y="9.185"></use><use xlink:href="#1" y="11.022"></use><use xlink:href="#7" y="12.859"></use><use xlink:href="#4" y="14.696"></use></svg><svg x="456"><use xlink:href="#a"></use><use xlink:href="#b" x="75.996" y="14.520999999999999"></use><use xlink:href="#5" y="0"></use><use xlink:href="#6" y="1.837"></use><use xlink:href="#1" y="3.674"></use><use xlink:href="#2" y="5.511"></use><text x="0" y="9.018" class="c">│</text><text x="2.004" y="9.018" class="e">❯</text><text x="4.008" y="9.018" class="f">Item</text><text x="10.02" y="9.018" class="g">P</text><text x="11.021999999999998" y="9.018" class="e">█</text><text x="12.024" y="9.018" class="d">ear</text><text x="75.14999999999999" y="9.018" class="c">│</text><use xlink:href="#2" y="9.185"></use><use xlink:href="#1" y="11.022"></use><use xlink:href="#7" y="12.859"></use><use xlink:href="#4" y="14.696"></use></svg><svg x="532"><use xlink:href="#a"></use><use xlink:href="#b" x="75.996" y="14.520999999999999"></use><use xlink:href="#5" y="0"></use><use xlink:href="#6" y="1.837"></use><use xlink:href="#1" y="3.674"></use><use xlink:href="#2" y="5.511"></use><text x="0" y="9.018" class="c">│</text><text x="2.004" y="9.018" class="e">❯</text><text x="4.008" y="9.018" class="f">Item</text><text x="10.02" y="9.018" class="e">█</text><text x="75.14999999999999" y="9.018" class="c">│</text><use xlink:href="#2" y="9.185"></use><use xlink:href="#1" y="11.022"></use><use xlink:href="#7" y="12.859"></use><use xlink:href="#4" y="14.696"></use></svg><svg x="608"><use xlink:href="#a"></use><use xlink:href="#b" x="75.996" y="14.520999999999999"></use><use xlink:href="#5" y="0"></use><use xlink:href="#6" y="1.837"></use><use xlink:href="#1" y="3.674"></use><use xlink:href="#2" y="5.511"></use><text x="0" y="9.018" class="c">│</text><text x="2.004" y="9.018" class="e">❯</text><text x="4.008" y="9.018" class="f">Item</text><text x="10.02" y="9.018" class="g">A</text><text x="11.021999999999998" y="9.018" class="e">█</text><text x="75.14999999999999" y="9.018" class="c">│</text><use xlink:href="#2" y="9.185"></use><use xlink:href="#1" y="11.022"></use><use xlink:href="#7" y="12.859"></use><use xlink:href="#4" y="14.696"></use></svg><svg x="684"><use xlink:href="#a"></use><use xlink:href="#b" x="75.996" y="14.520999999999999"></use><use xlink:href="#5" y="0"></use><use xlink:href="#6" y="1.837"></use><use xlink:href="#1" y="3.674"></use><use xlink:href="#2" y="5.511"></use><text x="0" y="9.018" class="c">│</text><text x="2.004" y="9.018" class="e">❯</text><text x="4.008" y="9.018" class="f">Item</text><text x="10.02" y="9.018" class="g">Ap</text><text x="12.024" y="9.018" class="e">█</text><text x="75.14999999999999" y="9.018" class="c">│</text><use xlink:href="#2" y="9.185"></use><use xlink:href="#1" y="11.022"></use><use xlink:href="#7" y="12.859"></use><use xlink:href="#4" y="14.696"></use></svg><svg x="760"><use xlink:href="#a"></use><use xlink:href="#b" x="75.996" y="14.520999999999999"></use><use xlink:href="#5" y="0"></use><use xlink:href="#6" y="1.837"></use><use xlink:href="#1" y="3.674"></use><use xlink:href="#2" y="5.511"></use><text x="0" y="9.018" class="c">│</text><text x="2.004" y="9.018" class="e">❯</text><text x="4.008" y="9.018" class="f">Item</text><text x="10.02" y="9.018" class="g">App</text><text x="13.026" y="9.018" class="e">█</text><text x="75.14999999999999" y="9.018" class="c">│</text><use xlink:href="#2" y="9.185"></use><use xlink:href="#1" y="11.022"></use><use xlink:href="#7" y="12.859"></use><use xlink:href="#4" y="14.696"></use></svg><svg x="836"><use xlink:href="#a"></use><use xlink:href="#b" x="75.996" y="14.520999999999999"></use><use xlink:href="#5" y="0"></use><use xlink:href="#6" y="1.837"></use><use xlink:href="#1" y="3.674"></use><use xlink:href="#2" y="5.511"></use><text x="0" y="9.018" class="c">│</text><text x="2.004" y="9.018" class="e">❯</text><text x="4.008" y="9.018" class="f">Item</text><text x="10.02" y="9.018" class="g">Appl</text><text x="14.027999999999999" y="9.018" class="e">█</text><text x="75.14999999999999" y="9.018" class="c">│</text><use xlink:href="#2" y="9.185"></use><use xlink:href="#1" y="11.022"></use><use xlink:href="#7" y="12.859"></use><use xlink:href="#4" y="14.696"></use></svg><svg x="912"><use xlink:href="#a"></use><use xlink:href="#b" x="75.996" y="14.520999999999999"></use><use xlink:href="#5" y="0"></use><use xlink:href="#6" y="1.837"></use><use xlink:href="#1" y="3.674"></use><use xlink:href="#2" y="5.511"></use><use xlink:href="#8" y="7.348"></use><use xlink:href="#2" y="9.185"></use><use xlink:href="#1" y="11.022"></use><use xlink:href="#7" y="12.859"></use><use xlink:href="#4" y="14.696"></use></svg><svg x="988"><use xlink:href="#a"></use><use xlink:href="#b" x="0.996" y="16.358"></use><use xlink:href="#5" y="0"></use><use xlink:href="#6" y="1.837"></use><use xlink:href="#1" y="3.674"></use><use xlink:href="#2" y="5.511"></use><use xlink:href="#8" y="7.348"></use><use xlink:href="#2" y="9.185"></use><use xlink:href="#1" y="11.022"></use><use xlink:href="#7" y="12.859"></use><use xlink:href="#4" y="14.696"></use></svg></svg></g></g></svg></svg>