<svg xmlns="http://www.w3.org/2000/svg" xmlns:xlink="http://www.w3.org/1999/xlink" width="760" height="312.29"><rect width="760" height="312.29" rx="0" ry="0" class="a"></rect><svg height="312.29" viewBox="0 0 76 31.229000000000003" width="760" xmlns="http://www.w3.org/2000/svg" xmlns:xlink="http://www.w3.org/1999/xlink"><style>.a{fill:rgb(250,250,250)}.b{font-family:Consolas,"Courier New",Courier,"Liberation Mono",monospace}.c{fill:rgb(0,128,128);white-space:pre}.d{fill:transparent}.e{fill:rgb(82,139,255)}.f{fill:rgb(90,96,105);white-space:pre}.g{fill:rgb(0,128,128);font-weight:bold;white-space:pre}.h{fill:rgb(56,58,66);font-weight:bold;white-space:pre}.i{fill:rgb(56,58,66);white-space:pre}</style><g font-family="Consolas, &quot;Courier New&quot;, Courier, &quot;Liberation Mono&quot;, monospace" font-size="1.67" class="b"><defs><symbol id="1"><text x="0" y="1.67" class="c">├──────────────────────────────────────────────────────────────────────────┤</text></symbol><symbol id="2"><text x="0" y="1.67" class="c">│</text><text x="75.14999999999999" y="1.67" class="c">│</text></symbol><symbol id="a"><rect height="17" width="76" x="0" y="0" class="d"></rect></symbol><symbol id="b"><rect height="1.837" width="1.1022" class="e"></rect></symbol></defs><rect height="31.229000000000003" width="76" class="a"></rect><svg x="0" y="0" width="76"><svg x="0"><use xlink:href="#a"></use><use xlink:href="#b" x="75.996" y="25.543"></use><text x="0" y="1.67" class="c">╭──────────────────────────────────────────────────────────────────────────╮</text><text x="0" y="3.5069999999999997" class="c">│</text><text x="2.004" y="3.5069999999999997" class="f">Option</text><text x="9.017999999999999" y="3.5069999999999997" class="f">descriptions</text><text x="22.043999999999997" y="3.5069999999999997" class="f">›</text><text x="24.048" y="3.5069999999999997" class="f">Suggest</text><text x="75.14999999999999" y="3.5069999999999997" class="c">│</text><use xlink:href="#1" y="3.674"></use><use xlink:href="#2" y="5.511"></use><text x="0" y="9.018" class="c">│</text><text x="2.004" y="9.018" class="g">❯</text><text x="4.008" y="9.018" class="h">Fruit</text><text x="11.021999999999998" y="9.018" class="g">█</text><text x="75.14999999999999" y="9.018" class="c">│</text><text x="0" y="10.855" class="c">│</text><text x="11.021999999999998" y="10.855" class="g">❯</text><text x="13.026" y="10.855" class="g">Apple</text><text x="75.14999999999999" y="10.855" class="c">│</text><text x="0" y="12.692" class="c">│</text><text x="13.026" y="12.692" class="i">Apricot</text><text x="75.14999999999999" y="12.692" class="c">│</text><text x="0" y="14.529" class="c">│</text><text x="13.026" y="14.529" class="i">Banana</text><text x="75.14999999999999" y="14.529" class="c">│</text><text x="0" y="16.366" class="c">│</text><text x="13.026" y="16.366" class="i">Cherry</text><text x="75.14999999999999" y="16.366" class="c">│</text><text x="0" y="18.203000000000003" class="c">│</text><text x="13.026" y="18.203000000000003" class="i">Mango</text><text x="75.14999999999999" y="18.203000000000003" class="c">│</text><text x="0" y="20.04" class="c">│</text><text x="11.021999999999998" y="20.04" class="f">Crisp</text><text x="17.034" y="20.04" class="f">and</text><text x="21.041999999999998" y="20.04" class="f">sweet,</text><text x="28.055999999999997" y="20.04" class="f">the</text><text x="32.064" y="20.04" class="f">everyday</text><text x="41.082" y="20.04" class="f">choice.</text><text x="75.14999999999999" y="20.04" class="c">│</text><use xlink:href="#2" y="20.206999999999997"></use><use xlink:href="#1" y="22.044"></use><text x="0" y="25.551000000000002" class="c">│</text><text x="2.004" y="25.551000000000002" class="f">↑/↓</text><text x="6.012" y="25.551000000000002" class="f">move</text><text x="11.021999999999998" y="25.551000000000002" class="f">·</text><text x="13.026" y="25.551000000000002" class="f">↵</text><text x="15.029999999999998" y="25.551000000000002" class="f">accept</text><text x="22.043999999999997" y="25.551000000000002" class="f">·</text><text x="24.048" y="25.551000000000002" class="f">esc</text><text x="28.055999999999997" y="25.551000000000002" class="f">cancel</text><text x="75.14999999999999" y="25.551000000000002" class="c">│</text><text x="0" y="27.387999999999998" class="c">╰──────────────────────────────────────────────────────────────────────────╯</text></svg></svg></g></svg></svg>