<svg xmlns="http://www.w3.org/2000/svg" xmlns:xlink="http://www.w3.org/1999/xlink" width="440" height="146.96"><rect width="440" height="146.96" rx="0" ry="0" class="a"></rect><svg height="146.96" viewBox="0 0 44 14.696" width="440" xmlns="http://www.w3.org/2000/svg" xmlns:xlink="http://www.w3.org/1999/xlink"><style>.a{fill:rgb(250,250,250)}.b{font-family:Consolas,"Courier New",Courier,"Liberation Mono",monospace}.c{fill:transparent}.d{fill:rgb(0,128,128);font-weight:bold;white-space:pre}.e{fill:rgb(90,96,105);white-space:pre}.f{fill:rgb(56,58,66);white-space:pre}</style><g font-family="Consolas, &quot;Courier New&quot;, Courier, &quot;Liberation Mono&quot;, monospace" font-size="1.67" class="b"><defs><symbol id="a"><rect height="8" width="44" x="0" y="0" class="c"></rect></symbol></defs><rect height="14.696" width="44" class="a"></rect><svg x="0" y="0" width="44"><svg x="0"><use xlink:href="#a"></use><text x="0" y="1.67" class="d">Textarea</text><text x="9.017999999999999" y="1.67" class="d">widget</text><text x="0" y="3.5069999999999997" class="e">───────────────</text><text x="0" y="5.343999999999999" class="e">edit</text><text x="5.01" y="5.343999999999999" class="e">·</text><text x="7.013999999999999" y="5.343999999999999" class="e">Tab</text><text x="11.021999999999998" y="5.343999999999999" class="e">accept</text><text x="18.035999999999998" y="5.343999999999999" class="e">·</text><text x="20.04" y="5.343999999999999" class="e">Esc</text><text x="24.048" y="5.343999999999999" class="e">cancel</text><text x="0" y="9.018" class="f">Redis</text><text x="6.012" y="9.018" class="f">for</text><text x="10.02" y="9.018" class="f">cache</text><text x="0" y="10.855" class="f">Solr</text><text x="5.01" y="10.855" class="f">for</text><text x="9.017999999999999" y="10.855" class="f">search</text><text x="15.029999999999998" y="10.855" class="d">█</text><text x="0" y="12.692" class="e">enter</text><text x="6.012" y="12.692" class="e">newline</text><text x="14.027999999999999" y="12.692" class="e">·</text><text x="16.032" y="12.692" class="e">tab</text><text x="20.04" y="12.692" class="e">accept</text></svg></svg></g></svg></svg>