<svg xmlns="http://www.w3.org/2000/svg" xmlns:xlink="http://www.w3.org/1999/xlink" width="450" height="110.22"><rect width="450" height="110.22" rx="0" ry="0" class="a"></rect><svg height="110.22" viewBox="0 0 45 11.022" width="450" xmlns="http://www.w3.org/2000/svg" xmlns:xlink="http://www.w3.org/1999/xlink"><style>.a{fill:rgb(40,44,52)}.b{font-family:Consolas,"Courier New",Courier,"Liberation Mono",monospace}.c{fill:transparent}.d{fill:rgb(82,139,255)}.e{fill:rgb(171,178,191);white-space:pre}</style><g font-family="Consolas, &quot;Courier New&quot;, Courier, &quot;Liberation Mono&quot;, monospace" font-size="1.67" class="b"><defs><symbol id="a"><rect height="6" width="45" x="0" y="0" class="c"></rect></symbol><symbol id="b"><rect height="1.837" width="1.1022" class="d"></rect></symbol></defs><rect height="11.022" width="45" class="a"></rect><svg x="0" y="0" width="45"><svg x="0"><use xlink:href="#a"></use><use xlink:href="#b" x="44.996" y="5.336"></use><text x="0" y="1.67" class="e">Confirm</text><text x="8.016" y="1.67" class="e">widget</text><text x="15.029999999999998" y="1.67" class="e">›</text><text x="17.034" y="1.67" class="e">Confirm</text><text x="0" y="3.5069999999999997" class="e">❯</text><text x="2.004" y="3.5069999999999997" class="e">Confirm</text><text x="11.021999999999998" y="3.5069999999999997" class="e">●</text><text x="13.026" y="3.5069999999999997" class="e">Yes</text><text x="18.035999999999998" y="3.5069999999999997" class="e">○</text><text x="20.04" y="3.5069999999999997" class="e">No</text><text x="0" y="7.181" class="e">y/n</text><text x="4.008" y="7.181" class="e">yes/no</text><text x="11.021999999999998" y="7.181" class="e">·</text><text x="13.026" y="7.181" class="e">↑</text><text x="15.029999999999998" y="7.181" class="e">toggle</text><text x="22.043999999999997" y="7.181" class="e">·</text><text x="24.048" y="7.181" class="e">↵</text><text x="26.052" y="7.181" class="e">accept</text><text x="33.065999999999995" y="7.181" class="e">·</text><text x="35.06999999999999" y="7.181" class="e">esc</text><text x="39.077999999999996" y="7.181" class="e">cancel</text></svg></svg></g></svg></svg>