<svg xmlns="http://www.w3.org/2000/svg" xmlns:xlink="http://www.w3.org/1999/xlink" width="760" height="312.29"><rect width="760" height="312.29" rx="0" ry="0" class="a"></rect><svg height="312.29" viewBox="0 0 76 31.229000000000003" width="760" xmlns="http://www.w3.org/2000/svg" xmlns:xlink="http://www.w3.org/1999/xlink"><style>.a{fill:rgb(40,44,52)}.b{font-family:Consolas,"Courier New",Courier,"Liberation Mono",monospace}.c{fill:rgb(0,128,128);white-space:pre}.d{fill:rgb(128,128,128);white-space:pre}.e{fill:rgb(0,128,128);font-weight:bold;white-space:pre}.f{fill:rgb(171,178,191);font-weight:bold;white-space:pre}.g{fill:rgb(171,178,191);white-space:pre}.h{fill:transparent}.i{fill:rgb(82,139,255)}.k{animation-duration:5.75s;animation-iteration-count:infinite;animation-name:j;animation-timing-function:steps(1,end)}.l{fill:rgb(128,128,128);font-weight:bold;white-space:pre}.m{fill:rgb(0,128,0);white-space:pre}@keyframes j{0%{transform:translateX(-0px)}0%{transform:translateX(-76px)}23.9%{transform:translateX(-152px)}38%{transform:translateX(-228px)}52.2%{transform:translateX(-304px)}100%{transform:translateX(-380px)}}</style><g font-family="Consolas, &quot;Courier New&quot;, Courier, &quot;Liberation Mono&quot;, monospace" font-size="1.67" class="b"><defs><symbol id="1"><text x="0" y="1.67" class="c">+--------------------------------------------------------------------------+</text></symbol><symbol id="2"><text x="0" y="1.67" class="c">|</text><text x="75.14999999999999" y="1.67" class="c">|</text></symbol><symbol id="3"><text x="0" y="1.67" class="c">|</text><text x="2.004" y="1.67" class="d">^/v</text><text x="6.012" y="1.67" class="d">move</text><text x="11.021999999999998" y="1.67" class="d">*</text><text x="13.026" y="1.67" class="d">&lt;</text><text x="15.029999999999998" y="1.67" class="d">select</text><text x="22.043999999999997" y="1.67" class="d">*</text><text x="24.048" y="1.67" class="d">esc</text><text x="28.055999999999997" y="1.67" class="d">back</text><text x="33.065999999999995" y="1.67" class="d">*</text><text x="35.06999999999999" y="1.67" class="d">q</text><text x="37.074" y="1.67" class="d">quit</text><text x="42.083999999999996" y="1.67" class="d">*</text><text x="44.087999999999994" y="1.67" class="d">?</text><text x="46.09199999999999" y="1.67" class="d">help</text><text x="75.14999999999999" y="1.67" class="c">|</text></symbol><symbol id="4"><text x="0" y="1.67" class="c">|</text><text x="2.004" y="1.67" class="d">Option</text><text x="9.017999999999999" y="1.67" class="d">descriptions</text><text x="22.043999999999997" y="1.67" class="d">&gt;</text><text x="24.048" y="1.67" class="d">Suggest</text><text x="75.14999999999999" y="1.67" class="c">|</text></symbol><symbol id="5"><text x="0" y="1.67" class="c">|</text><text x="2.004" y="1.67" class="e">&gt;</text><text x="4.008" y="1.67" class="f">Fruit</text><text x="11.021999999999998" y="1.67" class="e">|</text><text x="75.14999999999999" y="1.67" class="c">|</text></symbol><symbol id="6"><text x="0" y="1.67" class="c">|</text><text x="13.026" y="1.67" class="g">Apricot</text><text x="75.14999999999999" y="1.67" class="c">|</text></symbol><symbol id="7"><text x="0" y="1.67" class="c">|</text><text x="13.026" y="1.67" class="g">Banana</text><text x="75.14999999999999" y="1.67" class="c">|</text></symbol><symbol id="8"><text x="0" y="1.67" class="c">|</text><text x="13.026" y="1.67" class="g">Cherry</text><text x="75.14999999999999" y="1.67" class="c">|</text></symbol><symbol id="9"><text x="0" y="1.67" class="c">|</text><text x="13.026" y="1.67" class="g">Mango</text><text x="75.14999999999999" y="1.67" class="c">|</text></symbol><symbol id="10"><text x="0" y="1.67" class="c">|</text><text x="2.004" y="1.67" class="d">^/v</text><text x="6.012" y="1.67" class="d">move</text><text x="11.021999999999998" y="1.67" class="d">*</text><text x="13.026" y="1.67" class="d">&lt;</text><text x="15.029999999999998" y="1.67" class="d">accept</text><text x="22.043999999999997" y="1.67" class="d">*</text><text x="24.048" y="1.67" class="d">esc</text><text x="28.055999999999997" y="1.67" class="d">cancel</text><text x="75.14999999999999" y="1.67" class="c">|</text></symbol><symbol id="11"><text x="0" y="1.67" class="c">|</text><text x="11.021999999999998" y="1.67" class="e">&gt;</text><text x="13.026" y="1.67" class="e">Apple</text><text x="75.14999999999999" y="1.67" class="c">|</text></symbol><symbol id="12"><text x="0" y="1.67" class="c">|</text><text x="11.021999999999998" y="1.67" class="d">Crisp</text><text x="17.034" y="1.67" class="d">and</text><text x="21.041999999999998" y="1.67" class="d">sweet,</text><text x="28.055999999999997" y="1.67" class="d">the</text><text x="32.064" y="1.67" class="d">everyday</text><text x="41.082" y="1.67" class="d">choice.</text><text x="75.14999999999999" y="1.67" class="c">|</text></symbol><symbol id="a"><rect height="17" width="76" x="0" y="0" class="h"></rect></symbol><symbol id="b"><rect height="1.837" width="1.1022" class="i"></rect></symbol></defs><rect height="31.229000000000003" width="76" class="a"></rect><g class="k"><svg x="0" y="0" width="456"><svg x="0"><use xlink:href="#a"></use><use xlink:href="#b" x="-0.0040000000000000036" y="0"></use></svg><svg x="76"><use xlink:href="#a"></use><use xlink:href="#b" x="75.996" y="18.195"></use><use xlink:href="#1" y="0"></use><text x="0" y="3.5069999999999997" class="c">|</text><text x="2.004" y="3.5069999999999997" class="d">Option</text><text x="9.017999999999999" y="3.5069999999999997" class="d">descriptions</text><text x="75.14999999999999" y="3.5069999999999997" class="c">|</text><use xlink:href="#1" y="3.674"></use><use xlink:href="#2" y="5.511"></use><text x="0" y="9.018" class="c">|</text><text x="2.004" y="9.018" class="e">&gt;</text><text x="4.008" y="9.018" class="f">Suggest</text><text x="12.024" y="9.018" class="l">&gt;</text><text x="75.14999999999999" y="9.018" class="c">|</text><use xlink:href="#2" y="9.185"></use><text x="0" y="12.692" class="c">|</text><text x="4.008" y="12.692" class="m">[</text><text x="6.012" y="12.692" class="m">Submit</text><text x="13.026" y="12.692" class="m">]</text><text x="16.032" y="12.692" class="m">[</text><text x="18.035999999999998" y="12.692" class="m">Cancel</text><text x="25.05" y="12.692" class="m">]</text><text x="75.14999999999999" y="12.692" class="c">|</text><use xlink:href="#2" y="12.859"></use><use xlink:href="#1" y="14.696"></use><use xlink:href="#3" y="16.533"></use><use xlink:href="#1" y="18.37"></use></svg><svg x="152"><use xlink:href="#a"></use><use xlink:href="#b" x="75.996" y="14.520999999999999"></use><use xlink:href="#1" y="0"></use><use xlink:href="#4" y="1.837"></use><use xlink:href="#1" y="3.674"></use><use xlink:href="#2" y="5.511"></use><text x="0" y="9.018" class="c">|</text><text x="2.004" y="9.018" class="e">&gt;</text><text x="4.008" y="9.018" class="f">Fruit</text><text x="75.14999999999999" y="9.018" class="c">|</text><use xlink:href="#2" y="9.185"></use><use xlink:href="#1" y="11.022"></use><use xlink:href="#3" y="12.859"></use><use xlink:href="#1" y="14.696"></use></svg><svg x="228"><use xlink:href="#a"></use><use xlink:href="#b" x="75.996" y="23.706000000000003"></use><use xlink:href="#1" y="0"></use><use xlink:href="#4" y="1.837"></use><use xlink:href="#1" y="3.674"></use><use xlink:href="#2" y="5.511"></use><use xlink:href="#5" y="7.348"></use><text x="0" y="10.855" class="c">|</text><text x="13.026" y="10.855" class="g">Apple</text><text x="75.14999999999999" y="10.855" class="c">|</text><use xlink:href="#6" y="11.022"></use><use xlink:href="#7" y="12.859"></use><use xlink:href="#8" y="14.696"></use><use xlink:href="#9" y="16.533"></use><use xlink:href="#2" y="18.37"></use><use xlink:href="#1" y="20.206999999999997"></use><use xlink:href="#10" y="22.044"></use><use xlink:href="#1" y="23.881000000000004"></use></svg><svg x="304"><use xlink:href="#a"></use><use xlink:href="#b" x="75.996" y="25.543"></use><use xlink:href="#1" y="0"></use><use xlink:href="#4" y="1.837"></use><use xlink:href="#1" y="3.674"></use><use xlink:href="#2" y="5.511"></use><use xlink:href="#5" y="7.348"></use><use xlink:href="#11" y="9.185"></use><use xlink:href="#6" y="11.022"></use><use xlink:href="#7" y="12.859"></use><use xlink:href="#8" y="14.696"></use><use xlink:href="#9" y="16.533"></use><use xlink:href="#12" y="18.37"></use><use xlink:href="#2" y="20.206999999999997"></use><use xlink:href="#1" y="22.044"></use><use xlink:href="#10" y="23.881000000000004"></use><use xlink:href="#1" y="25.718"></use></svg><svg x="380"><use xlink:href="#a"></use><use xlink:href="#b" x="0.996" y="27.38"></use><use xlink:href="#1" y="0"></use><use xlink:href="#4" y="1.837"></use><use xlink:href="#1" y="3.674"></use><use xlink:href="#2" y="5.511"></use><use xlink:href="#5" y="7.348"></use><use xlink:href="#11" y="9.185"></use><use xlink:href="#6" y="11.022"></use><use xlink:href="#7" y="12.859"></use><use xlink:href="#8" y="14.696"></use><use xlink:href="#9" y="16.533"></use><use xlink:href="#12" y="18.37"></use><use xlink:href="#2" y="20.206999999999997"></use><use xlink:href="#1" y="22.044"></use><use xlink:href="#10" y="23.881000000000004"></use><use xlink:href="#1" y="25.718"></use></svg></svg></g></g></svg></svg>