<svg xmlns="http://www.w3.org/2000/svg" xmlns:xlink="http://www.w3.org/1999/xlink" width="760" height="330.66"><rect width="760" height="330.66" rx="0" ry="0" class="a"></rect><svg height="330.66" viewBox="0 0 76 33.066" width="760" xmlns="http://www.w3.org/2000/svg" xmlns:xlink="http://www.w3.org/1999/xlink"><style>.a{fill:rgb(250,250,250)}.b{font-family:Consolas,"Courier New",Courier,"Liberation Mono",monospace}.c{fill:rgb(0,128,128);white-space:pre}.d{fill:rgb(90,96,105);white-space:pre}.e{fill:rgb(0,128,128);font-weight:bold;white-space:pre}.f{fill:rgb(56,58,66);font-weight:bold;white-space:pre}.g{fill:rgb(56,58,66);white-space:pre}.h{fill:transparent}.i{fill:rgb(82,139,255)}.k{animation-duration:5.75s;animation-iteration-count:infinite;animation-name:j;animation-timing-function:steps(1,end)}.l{fill:rgb(90,96,105);font-weight:bold;white-space:pre}.m{fill:rgb(0,128,0);font-weight:bold;white-space:pre}.n{fill:rgb(0,128,0);white-space:pre}@keyframes j{0%{transform:translateX(-0px)}0%{transform:translateX(-76px)}23.9%{transform:translateX(-152px)}38%{transform:translateX(-228px)}52.2%{transform:translateX(-304px)}100%{transform:translateX(-380px)}}</style><g font-family="Consolas, &quot;Courier New&quot;, Courier, &quot;Liberation Mono&quot;, monospace" font-size="1.67" class="b"><defs><symbol id="1"><text x="0" y="1.67" class="c">╭──────────────────────────────────────────────────────────────────────────╮</text></symbol><symbol id="2"><text x="0" y="1.67" class="c">├──────────────────────────────────────────────────────────────────────────┤</text></symbol><symbol id="3"><text x="0" y="1.67" class="c">│</text><text x="75.14999999999999" y="1.67" class="c">│</text></symbol><symbol id="4"><text x="0" y="1.67" class="c">│</text><text x="2.004" y="1.67" class="d">↑/↓</text><text x="6.012" y="1.67" class="d">move</text><text x="11.021999999999998" y="1.67" class="d">·</text><text x="13.026" y="1.67" class="d">↵</text><text x="15.029999999999998" y="1.67" class="d">select</text><text x="22.043999999999997" y="1.67" class="d">·</text><text x="24.048" y="1.67" class="d">esc</text><text x="28.055999999999997" y="1.67" class="d">back</text><text x="33.065999999999995" y="1.67" class="d">·</text><text x="35.06999999999999" y="1.67" class="d">q</text><text x="37.074" y="1.67" class="d">quit</text><text x="42.083999999999996" y="1.67" class="d">·</text><text x="44.087999999999994" y="1.67" class="d">?</text><text x="46.09199999999999" y="1.67" class="d">help</text><text x="75.14999999999999" y="1.67" class="c">│</text></symbol><symbol id="5"><text x="0" y="1.67" class="c">╰──────────────────────────────────────────────────────────────────────────╯</text></symbol><symbol id="6"><text x="0" y="1.67" class="c">│</text><text x="2.004" y="1.67" class="d">Calendar</text><text x="11.021999999999998" y="1.67" class="d">widget</text><text x="18.035999999999998" y="1.67" class="d">›</text><text x="20.04" y="1.67" class="d">Calendar</text><text x="75.14999999999999" y="1.67" class="c">│</text></symbol><symbol id="7"><text x="0" y="1.67" class="c">│</text><text x="2.004" y="1.67" class="e">❯</text><text x="4.008" y="1.67" class="f">Harvest</text><text x="12.024" y="1.67" class="f">date</text><text x="27.054" y="1.67" class="e">July</text><text x="32.064" y="1.67" class="e">2026</text><text x="75.14999999999999" y="1.67" class="c">│</text></symbol><symbol id="8"><text x="0" y="1.67" class="c">│</text><text x="19.037999999999997" y="1.67" class="d">Mo</text><text x="23.045999999999996" y="1.67" class="d">Tu</text><text x="27.054" y="1.67" class="d">We</text><text x="31.061999999999998" y="1.67" class="d">Th</text><text x="35.06999999999999" y="1.67" class="d">Fr</text><text x="39.077999999999996" y="1.67" class="d">Sa</text><text x="43.086" y="1.67" class="d">Su</text><text x="75.14999999999999" y="1.67" class="c">│</text></symbol><symbol id="9"><text x="0" y="1.67" class="c">│</text><text x="28.055999999999997" y="1.67" class="g">1</text><text x="32.064" y="1.67" class="g">2</text><text x="36.071999999999996" y="1.67" class="g">3</text><text x="40.08" y="1.67" class="g">4</text><text x="44.087999999999994" y="1.67" class="g">5</text><text x="75.14999999999999" y="1.67" class="c">│</text></symbol><symbol id="10"><text x="0" y="1.67" class="c">│</text><text x="20.04" y="1.67" class="g">6</text><text x="24.048" y="1.67" class="g">7</text><text x="28.055999999999997" y="1.67" class="g">8</text><text x="32.064" y="1.67" class="g">9</text><text x="35.06999999999999" y="1.67" class="g">10</text><text x="39.077999999999996" y="1.67" class="g">11</text><text x="43.086" y="1.67" class="g">12</text><text x="75.14999999999999" y="1.67" class="c">│</text></symbol><symbol id="11"><text x="0" y="1.67" class="c">│</text><text x="19.037999999999997" y="1.67" class="g">27</text><text x="23.045999999999996" y="1.67" class="g">28</text><text x="27.054" y="1.67" class="g">29</text><text x="31.061999999999998" y="1.67" class="g">30</text><text x="35.06999999999999" y="1.67" class="g">31</text><text x="75.14999999999999" y="1.67" class="c">│</text></symbol><symbol id="12"><text x="0" y="1.67" class="c">│</text><text x="2.004" y="1.67" class="d">←/→</text><text x="6.012" y="1.67" class="d">day</text><text x="10.02" y="1.67" class="d">·</text><text x="12.024" y="1.67" class="d">↑/↓</text><text x="16.032" y="1.67" class="d">week</text><text x="21.041999999999998" y="1.67" class="d">·</text><text x="23.045999999999996" y="1.67" class="d">↵</text><text x="25.05" y="1.67" class="d">accept</text><text x="32.064" y="1.67" class="d">·</text><text x="34.068" y="1.67" class="d">esc</text><text x="38.07599999999999" y="1.67" class="d">cancel</text><text x="75.14999999999999" y="1.67" class="c">│</text></symbol><symbol id="13"><text x="0" y="1.67" class="c">│</text><text x="19.037999999999997" y="1.67" class="g">13</text><text x="23.045999999999996" y="1.67" class="g">14</text><text x="27.054" y="1.67" class="g">15</text><text x="31.061999999999998" y="1.67" class="g">16</text><text x="35.06999999999999" y="1.67" class="g">17</text><text x="39.077999999999996" y="1.67" class="g">18</text><text x="43.086" y="1.67" class="g">19</text><text x="75.14999999999999" y="1.67" class="c">│</text></symbol><symbol id="14"><text x="0" y="1.67" class="c">│</text><text x="19.037999999999997" y="1.67" class="g">20</text><text x="23.045999999999996" y="1.67" class="g">21</text><text x="26.052" y="1.67" class="e">[22]</text><text x="31.061999999999998" y="1.67" class="g">23</text><text x="35.06999999999999" y="1.67" class="g">24</text><text x="39.077999999999996" y="1.67" class="g">25</text><text x="43.086" y="1.67" class="g">26</text><text x="75.14999999999999" y="1.67" class="c">│</text></symbol><symbol id="a"><rect height="18" width="76" x="0" y="0" class="h"></rect></symbol><symbol id="b"><rect height="1.837" width="1.1022" class="i"></rect></symbol></defs><rect height="33.066" width="76" class="a"></rect><g class="k"><svg x="0" y="0" width="456"><svg x="0"><use xlink:href="#a"></use><use xlink:href="#b" x="-0.0040000000000000036" y="0"></use></svg><svg x="76"><use xlink:href="#a"></use><use xlink:href="#b" x="75.996" y="20.031999999999996"></use><use xlink:href="#1" y="0"></use><text x="0" y="3.5069999999999997" class="c">│</text><text x="2.004" y="3.5069999999999997" class="d">Calendar</text><text x="11.021999999999998" y="3.5069999999999997" class="d">widget</text><text x="75.14999999999999" y="3.5069999999999997" class="c">│</text><use xlink:href="#2" y="3.674"></use><use xlink:href="#3" y="5.511"></use><text x="0" y="9.018" class="c">│</text><text x="2.004" y="9.018" class="e">❯</text><text x="4.008" y="9.018" class="f">Calendar</text><text x="13.026" y="9.018" class="l">›</text><text x="75.14999999999999" y="9.018" class="c">│</text><text x="0" y="10.855" class="c">│</text><text x="6.012" y="10.855" class="m">2026-07-15</text><text x="75.14999999999999" y="10.855" class="c">│</text><use xlink:href="#3" y="11.022"></use><text x="0" y="14.529" class="c">│</text><text x="4.008" y="14.529" class="n">[</text><text x="6.012" y="14.529" class="n">Submit</text><text x="13.026" y="14.529" class="n">]</text><text x="16.032" y="14.529" class="n">[</text><text x="18.035999999999998" y="14.529" class="n">Cancel</text><text x="25.05" y="14.529" class="n">]</text><text x="75.14999999999999" y="14.529" class="c">│</text><use xlink:href="#3" y="14.696"></use><use xlink:href="#2" y="16.533"></use><use xlink:href="#4" y="18.37"></use><use xlink:href="#5" y="20.206999999999997"></use></svg><svg x="152"><use xlink:href="#a"></use><use xlink:href="#b" x="75.996" y="14.520999999999999"></use><use xlink:href="#1" y="0"></use><use xlink:href="#6" y="1.837"></use><use xlink:href="#2" y="3.674"></use><use xlink:href="#3" y="5.511"></use><text x="0" y="9.018" class="c">│</text><text x="2.004" y="9.018" class="e">❯</text><text x="4.008" y="9.018" class="f">Harvest</text><text x="12.024" y="9.018" class="f">date</text><text x="18.035999999999998" y="9.018" class="m">2026-07-15</text><text x="75.14999999999999" y="9.018" class="c">│</text><use xlink:href="#3" y="9.185"></use><use xlink:href="#2" y="11.022"></use><use xlink:href="#4" y="12.859"></use><use xlink:href="#5" y="14.696"></use></svg><svg x="228"><use xlink:href="#a"></use><use xlink:href="#b" x="75.996" y="25.543"></use><use xlink:href="#1" y="0"></use><use xlink:href="#6" y="1.837"></use><use xlink:href="#2" y="3.674"></use><use xlink:href="#3" y="5.511"></use><use xlink:href="#7" y="7.348"></use><use xlink:href="#8" y="9.185"></use><use xlink:href="#9" y="11.022"></use><use xlink:href="#10" y="12.859"></use><text x="0" y="16.366" class="c">│</text><text x="19.037999999999997" y="16.366" class="g">13</text><text x="23.045999999999996" y="16.366" class="g">14</text><text x="26.052" y="16.366" class="e">[15]</text><text x="31.061999999999998" y="16.366" class="g">16</text><text x="35.06999999999999" y="16.366" class="g">17</text><text x="39.077999999999996" y="16.366" class="g">18</text><text x="43.086" y="16.366" class="g">19</text><text x="75.14999999999999" y="16.366" class="c">│</text><text x="0" y="18.203000000000003" class="c">│</text><text x="19.037999999999997" y="18.203000000000003" class="g">20</text><text x="23.045999999999996" y="18.203000000000003" class="g">21</text><text x="27.054" y="18.203000000000003" class="g">22</text><text x="31.061999999999998" y="18.203000000000003" class="g">23</text><text x="35.06999999999999" y="18.203000000000003" class="g">24</text><text x="39.077999999999996" y="18.203000000000003" class="g">25</text><text x="43.086" y="18.203000000000003" class="g">26</text><text x="75.14999999999999" y="18.203000000000003" class="c">│</text><use xlink:href="#11" y="18.37"></use><use xlink:href="#3" y="20.206999999999997"></use><use xlink:href="#2" y="22.044"></use><use xlink:href="#12" y="23.881000000000004"></use><use xlink:href="#5" y="25.718"></use></svg><svg x="304"><use xlink:href="#a"></use><use xlink:href="#b" x="75.996" y="25.543"></use><use xlink:href="#1" y="0"></use><use xlink:href="#6" y="1.837"></use><use xlink:href="#2" y="3.674"></use><use xlink:href="#3" y="5.511"></use><use xlink:href="#7" y="7.348"></use><use xlink:href="#8" y="9.185"></use><use xlink:href="#9" y="11.022"></use><use xlink:href="#10" y="12.859"></use><use xlink:href="#13" y="14.696"></use><use xlink:href="#14" y="16.533"></use><use xlink:href="#11" y="18.37"></use><use xlink:href="#3" y="20.206999999999997"></use><use xlink:href="#2" y="22.044"></use><use xlink:href="#12" y="23.881000000000004"></use><use xlink:href="#5" y="25.718"></use></svg><svg x="380"><use xlink:href="#a"></use><use xlink:href="#b" x="0.996" y="27.38"></use><use xlink:href="#1" y="0"></use><use xlink:href="#6" y="1.837"></use><use xlink:href="#2" y="3.674"></use><use xlink:href="#3" y="5.511"></use><use xlink:href="#7" y="7.348"></use><use xlink:href="#8" y="9.185"></use><use xlink:href="#9" y="11.022"></use><use xlink:href="#10" y="12.859"></use><use xlink:href="#13" y="14.696"></use><use xlink:href="#14" y="16.533"></use><use xlink:href="#11" y="18.37"></use><use xlink:href="#3" y="20.206999999999997"></use><use xlink:href="#2" y="22.044"></use><use xlink:href="#12" y="23.881000000000004"></use><use xlink:href="#5" y="25.718"></use></svg></svg></g></g></svg></svg>