<svg xmlns="http://www.w3.org/2000/svg" xmlns:xlink="http://www.w3.org/1999/xlink" width="440" height="238.81000000000003"><rect width="440" height="238.81000000000003" rx="0" ry="0" class="a"></rect><svg height="238.81000000000003" viewBox="0 0 44 23.881000000000004" width="440" xmlns="http://www.w3.org/2000/svg" xmlns:xlink="http://www.w3.org/1999/xlink"><style>.a{fill:rgb(250,250,250)}.b{font-family:Consolas,"Courier New",Courier,"Liberation Mono",monospace}.c{fill:transparent}.d{fill:rgb(0,128,128);font-weight:bold;white-space:pre}.e{fill:rgb(90,96,105);white-space:pre}.f{fill:rgb(90,96,105);font-weight:bold;white-space:pre}.g{fill:rgb(0,128,0);white-space:pre}.h{fill:rgb(56,58,66);white-space:pre}</style><g font-family="Consolas, &quot;Courier New&quot;, Courier, &quot;Liberation Mono&quot;, monospace" font-size="1.67" class="b"><defs><symbol id="a"><rect height="13" width="44" x="0" y="0" class="c"></rect></symbol></defs><rect height="23.881000000000004" width="44" class="a"></rect><svg x="0" y="0" width="44"><svg x="0"><use xlink:href="#a"></use><text x="0" y="1.67" class="d">MultiSelect</text><text x="12.024" y="1.67" class="d">with</text><text x="17.034" y="1.67" class="d">groups</text><text x="0" y="3.5069999999999997" class="e">-----------------------</text><text x="0" y="5.343999999999999" class="e">edit</text><text x="5.01" y="5.343999999999999" class="e">*</text><text x="7.013999999999999" y="5.343999999999999" class="e">Enter</text><text x="13.026" y="5.343999999999999" class="e">accept</text><text x="20.04" y="5.343999999999999" class="e">*</text><text x="22.043999999999997" y="5.343999999999999" class="e">Esc</text><text x="26.052" y="5.343999999999999" class="e">cancel</text><text x="0" y="9.018" class="f">Services</text><text x="0" y="10.855" class="d">&gt;</text><text x="2.004" y="10.855" class="g">[x]</text><text x="6.012" y="10.855" class="d">Redis</text><text x="2.004" y="12.692" class="h">[</text><text x="4.008" y="12.692" class="h">]</text><text x="6.012" y="12.692" class="h">Solr</text><text x="0" y="14.529" class="e">------------------------------------------</text><text x="2.004" y="16.366" class="h">[</text><text x="4.008" y="16.366" class="h">]</text><text x="6.012" y="16.366" class="e">ClamAV</text><text x="13.026" y="16.366" class="e">(licence</text><text x="22.043999999999997" y="16.366" class="e">required)</text><text x="0" y="18.203000000000003" class="e">space</text><text x="6.012" y="18.203000000000003" class="e">select</text><text x="13.026" y="18.203000000000003" class="e">*</text><text x="15.029999999999998" y="18.203000000000003" class="e">^/v</text><text x="19.037999999999997" y="18.203000000000003" class="e">move</text><text x="24.048" y="18.203000000000003" class="e">*</text><text x="26.052" y="18.203000000000003" class="e">&lt;/&gt;</text><text x="30.059999999999995" y="18.203000000000003" class="e">none/all</text><text x="39.077999999999996" y="18.203000000000003" class="e">*</text><text x="41.082" y="18.203000000000003" class="e">&lt;</text><text x="43.086" y="18.203000000000003" class="e">a</text><text x="0" y="20.04" class="e">ccept</text><text x="6.012" y="20.04" class="e">*</text><text x="8.016" y="20.04" class="e">esc</text><text x="12.024" y="20.04" class="e">cancel</text></svg></svg></g></svg></svg>