<svg xmlns="http://www.w3.org/2000/svg" xmlns:xlink="http://www.w3.org/1999/xlink" width="440" height="257.18"><rect width="440" height="257.18" rx="0" ry="0" class="a"></rect><svg height="257.18" viewBox="0 0 44 25.718" width="440" xmlns="http://www.w3.org/2000/svg" xmlns:xlink="http://www.w3.org/1999/xlink"><style>.a{fill:rgb(250,250,250)}.b{font-family:Consolas,"Courier New",Courier,"Liberation Mono",monospace}.c{fill:transparent}.d{fill:rgb(0,128,128);font-weight:bold;white-space:pre}.e{fill:rgb(90,96,105);white-space:pre}.f{fill:rgb(56,58,66);white-space:pre}</style><g font-family="Consolas, &quot;Courier New&quot;, Courier, &quot;Liberation Mono&quot;, monospace" font-size="1.67" class="b"><defs><symbol id="a"><rect height="14" width="44" x="0" y="0" class="c"></rect></symbol></defs><rect height="25.718" width="44" class="a"></rect><svg x="0" y="0" width="44"><svg x="0"><use xlink:href="#a"></use><text x="0" y="1.67" class="d">Date</text><text x="5.01" y="1.67" class="d">widget</text><text x="0" y="3.5069999999999997" class="e">───────────</text><text x="9.017999999999999" y="7.181" class="d">July</text><text x="14.027999999999999" y="7.181" class="d">2026</text><text x="1.002" y="9.018" class="e">Mo</text><text x="5.01" y="9.018" class="e">Tu</text><text x="9.017999999999999" y="9.018" class="e">We</text><text x="13.026" y="9.018" class="e">Th</text><text x="17.034" y="9.018" class="e">Fr</text><text x="21.041999999999998" y="9.018" class="e">Sa</text><text x="25.05" y="9.018" class="e">Su</text><text x="10.02" y="10.855" class="f">1</text><text x="14.027999999999999" y="10.855" class="f">2</text><text x="18.035999999999998" y="10.855" class="f">3</text><text x="22.043999999999997" y="10.855" class="f">4</text><text x="26.052" y="10.855" class="f">5</text><text x="2.004" y="12.692" class="f">6</text><text x="6.012" y="12.692" class="f">7</text><text x="10.02" y="12.692" class="f">8</text><text x="14.027999999999999" y="12.692" class="f">9</text><text x="17.034" y="12.692" class="f">10</text><text x="21.041999999999998" y="12.692" class="f">11</text><text x="25.05" y="12.692" class="f">12</text><text x="1.002" y="14.529" class="f">13</text><text x="5.01" y="14.529" class="f">14</text><text x="8.016" y="14.529" class="d">[15]</text><text x="13.026" y="14.529" class="f">16</text><text x="17.034" y="14.529" class="f">17</text><text x="21.041999999999998" y="14.529" class="f">18</text><text x="25.05" y="14.529" class="f">19</text><text x="1.002" y="16.366" class="f">20</text><text x="5.01" y="16.366" class="f">21</text><text x="9.017999999999999" y="16.366" class="f">22</text><text x="13.026" y="16.366" class="f">23</text><text x="17.034" y="16.366" class="f">24</text><text x="21.041999999999998" y="16.366" class="f">25</text><text x="25.05" y="16.366" class="f">26</text><text x="1.002" y="18.203000000000003" class="f">27</text><text x="5.01" y="18.203000000000003" class="f">28</text><text x="9.017999999999999" y="18.203000000000003" class="f">29</text><text x="13.026" y="18.203000000000003" class="f">30</text><text x="17.034" y="18.203000000000003" class="f">31</text><text x="0" y="20.04" class="e">←/→</text><text x="4.008" y="20.04" class="e">day</text><text x="8.016" y="20.04" class="e">·</text><text x="10.02" y="20.04" class="e">↑/↓</text><text x="14.027999999999999" y="20.04" class="e">week</text><text x="19.037999999999997" y="20.04" class="e">·</text><text x="21.041999999999998" y="20.04" class="e">PgUp/PgDn</text><text x="31.061999999999998" y="20.04" class="e">month</text><text x="37.074" y="20.04" class="e">·</text><text x="39.077999999999996" y="20.04" class="e">↵</text><text x="41.082" y="20.04" class="e">acc</text><text x="0" y="21.876999999999995" class="e">ept</text><text x="4.008" y="21.876999999999995" class="e">·</text><text x="6.012" y="21.876999999999995" class="e">esc</text><text x="10.02" y="21.876999999999995" class="e">cancel</text></svg></svg></g></svg></svg>