<svg xmlns="http://www.w3.org/2000/svg" xmlns:xlink="http://www.w3.org/1999/xlink" width="440" height="183.70000000000002"><rect width="440" height="183.70000000000002" rx="0" ry="0" class="a"></rect><svg height="183.70000000000002" viewBox="0 0 44 18.37" width="440" xmlns="http://www.w3.org/2000/svg" xmlns:xlink="http://www.w3.org/1999/xlink"><style>.a{fill:rgb(40,44,52)}.b{font-family:Consolas,"Courier New",Courier,"Liberation Mono",monospace}.c{fill:transparent}.d{fill:rgb(0,128,128);font-weight:bold;white-space:pre}.e{fill:rgb(128,128,128);white-space:pre}.f{fill:rgb(128,128,128);font-weight:bold;white-space:pre}.g{fill:rgb(171,178,191);white-space:pre}</style><g font-family="Consolas, &quot;Courier New&quot;, Courier, &quot;Liberation Mono&quot;, monospace" font-size="1.67" class="b"><defs><symbol id="a"><rect height="10" width="44" x="0" y="0" class="c"></rect></symbol></defs><rect height="18.37" width="44" class="a"></rect><svg x="0" y="0" width="44"><svg x="0"><use xlink:href="#a"></use><text x="0" y="1.67" class="d">Select</text><text x="7.013999999999999" y="1.67" class="d">with</text><text x="12.024" y="1.67" class="d">groups</text><text x="0" y="3.5069999999999997" class="e">──────────────────</text><text x="0" y="5.343999999999999" class="e">edit</text><text x="5.01" y="5.343999999999999" class="e">·</text><text x="7.013999999999999" y="5.343999999999999" class="e">Enter</text><text x="13.026" y="5.343999999999999" class="e">accept</text><text x="20.04" y="5.343999999999999" class="e">·</text><text x="22.043999999999997" y="5.343999999999999" class="e">Esc</text><text x="26.052" y="5.343999999999999" class="e">cancel</text><text x="0" y="9.018" class="f">Recommended</text><text x="0" y="10.855" class="d">●</text><text x="2.004" y="10.855" class="d">Standard</text><text x="0" y="12.692" class="g">○</text><text x="2.004" y="12.692" class="g">Minimal</text><text x="0" y="14.529" class="e">──────────────────────────────────────────</text><text x="0" y="16.366" class="g">○</text><text x="2.004" y="16.366" class="e">Demo</text><text x="7.013999999999999" y="16.366" class="e">Umami</text><text x="13.026" y="16.366" class="e">(requires</text><text x="23.045999999999996" y="16.366" class="e">PHP</text><text x="27.054" y="16.366" class="e">8.4)</text></svg></svg></g></svg></svg>