<svg xmlns="http://www.w3.org/2000/svg" xmlns:xlink="http://www.w3.org/1999/xlink" width="600" height="257.18"><rect width="600" height="257.18" rx="0" ry="0" class="a"></rect><svg height="257.18" viewBox="0 0 60 25.718" width="600" xmlns="http://www.w3.org/2000/svg" xmlns:xlink="http://www.w3.org/1999/xlink"><style>.a{fill:rgb(40,44,52)}.b{font-family:Consolas,"Courier New",Courier,"Liberation Mono",monospace}.c{fill:rgb(0,128,128);font-weight:bold;white-space:pre}.d{fill:rgb(128,128,128);white-space:pre}.e{fill:rgb(171,178,191);white-space:pre}.f{fill:rgb(0,128,0);white-space:pre}.g{fill:transparent}.h{fill:rgb(82,139,255)}.j{animation-duration:38.119s;animation-iteration-count:infinite;animation-name:i;animation-timing-function:steps(1,end)}@keyframes i{0%{transform:translateX(-0px)}0.26%{transform:translateX(-60px)}3.43%{transform:translateX(-120px)}3.89%{transform:translateX(-180px)}4.27%{transform:translateX(-240px)}4.81%{transform:translateX(-300px)}5.19%{transform:translateX(-360px)}5.6%{transform:translateX(-420px)}5.9%{transform:translateX(-480px)}6.28%{transform:translateX(-540px)}8.89%{transform:translateX(-600px)}8.94%{transform:translateX(-660px)}8.98%{transform:translateX(-720px)}12.18%{transform:translateX(-780px)}12.64%{transform:translateX(-840px)}13.1%{transform:translateX(-900px)}13.56%{transform:translateX(-960px)}13.94%{transform:translateX(-1020px)}14.33%{transform:translateX(-1080px)}14.71%{transform:translateX(-1140px)}15.09%{transform:translateX(-1200px)}17.69%{transform:translateX(-1260px)}17.72%{transform:translateX(-1320px)}17.74%{transform:translateX(-1380px)}17.74%{transform:translateX(-1440px)}21.34%{transform:translateX(-1500px)}23.94%{transform:translateX(-1560px)}23.96%{transform:translateX(-1620px)}23.98%{transform:translateX(-1680px)}26.73%{transform:translateX(-1740px)}27.13%{transform:translateX(-1800px)}27.43%{transform:translateX(-1860px)}27.82%{transform:translateX(-1920px)}28.2%{transform:translateX(-1980px)}28.58%{transform:translateX(-2040px)}28.9%{transform:translateX(-2100px)}29.28%{transform:translateX(-2160px)}29.66%{transform:translateX(-2220px)}30.05%{transform:translateX(-2280px)}30.43%{transform:translateX(-2340px)}30.81%{transform:translateX(-2400px)}31.19%{transform:translateX(-2460px)}31.57%{transform:translateX(-2520px)}31.96%{transform:translateX(-2580px)}32.34%{transform:translateX(-2640px)}35.78%{transform:translateX(-2700px)}35.81%{transform:translateX(-2760px)}35.83%{transform:translateX(-2820px)}38.94%{transform:translateX(-2880px)}39.32%{transform:translateX(-2940px)}39.71%{transform:translateX(-3000px)}40.09%{transform:translateX(-3060px)}40.47%{transform:translateX(-3120px)}40.85%{transform:translateX(-3180px)}43.46%{transform:translateX(-3240px)}43.48%{transform:translateX(-3300px)}43.5%{transform:translateX(-3360px)}47.1%{transform:translateX(-3420px)}49.7%{transform:translateX(-3480px)}49.72%{transform:translateX(-3540px)}49.74%{transform:translateX(-3600px)}53.34%{transform:translateX(-3660px)}54.18%{transform:translateX(-3720px)}56.78%{transform:translateX(-3780px)}56.81%{transform:translateX(-3840px)}56.83%{transform:translateX(-3900px)}59.96%{transform:translateX(-3960px)}60.35%{transform:translateX(-4020px)}60.73%{transform:translateX(-4080px)}61.57%{transform:translateX(-4140px)}64.17%{transform:translateX(-4200px)}64.2%{transform:translateX(-4260px)}64.22%{transform:translateX(-4320px)}67.35%{transform:translateX(-4380px)}67.74%{transform:translateX(-4440px)}68.12%{transform:translateX(-4500px)}70.72%{transform:translateX(-4560px)}70.74%{transform:translateX(-4620px)}70.77%{transform:translateX(-4680px)}73.9%{transform:translateX(-4740px)}74.28%{transform:translateX(-4800px)}75.12%{transform:translateX(-4860px)}77.73%{transform:translateX(-4920px)}77.75%{transform:translateX(-4980px)}77.77%{transform:translateX(-5040px)}80.9%{transform:translateX(-5100px)}83.51%{transform:translateX(-5160px)}83.53%{transform:translateX(-5220px)}83.55%{transform:translateX(-5280px)}86.69%{transform:translateX(-5340px)}89.29%{transform:translateX(-5400px)}89.32%{transform:translateX(-5460px)}89.33%{transform:translateX(-5520px)}92.13%{transform:translateX(-5580px)}100%{transform:translateX(-5640px)}}</style><g font-family="Consolas, &quot;Courier New&quot;, Courier, &quot;Liberation Mono&quot;, monospace" font-size="1.67" class="b"><defs><symbol id="1"><text x="0" y="1.67" class="c">Text</text><text x="5.01" y="1.67" class="c">widget</text></symbol><symbol id="2"><text x="0" y="1.67" class="d">───────────</text></symbol><symbol id="3"><text x="0" y="1.67" class="d">edit</text><text x="5.01" y="1.67" class="d">·</text><text x="7.013999999999999" y="1.67" class="d">Enter</text><text x="13.026" y="1.67" class="d">accept</text><text x="20.04" y="1.67" class="d">·</text><text x="22.043999999999997" y="1.67" class="d">Esc</text><text x="26.052" y="1.67" class="d">cancel</text></symbol><symbol id="4"><text x="0" y="1.67" class="e">Text:</text><text x="6.012" y="1.67" class="e">&quot;Acme</text><text x="12.024" y="1.67" class="e">Corp&quot;</text></symbol><symbol id="5"><text x="0" y="1.67" class="c">Number</text><text x="7.013999999999999" y="1.67" class="c">widget</text></symbol><symbol id="6"><text x="0" y="1.67" class="d">─────────────</text></symbol><symbol id="7"><text x="0" y="1.67" class="c">█</text></symbol><symbol id="8"><text x="0" y="1.67" class="e">Number:</text><text x="8.016" y="1.67" class="e">3000</text></symbol><symbol id="9"><text x="0" y="1.67" class="c">Date</text><text x="5.01" y="1.67" class="c">widget</text></symbol><symbol id="10"><text x="9.017999999999999" y="1.67" class="c">July</text><text x="14.027999999999999" y="1.67" class="c">2026</text></symbol><symbol id="11"><text x="1.002" y="1.67" class="d">Mo</text><text x="5.01" y="1.67" class="d">Tu</text><text x="9.017999999999999" y="1.67" class="d">We</text><text x="13.026" y="1.67" class="d">Th</text><text x="17.034" y="1.67" class="d">Fr</text><text x="21.041999999999998" y="1.67" class="d">Sa</text><text x="25.05" y="1.67" class="d">Su</text></symbol><symbol id="12"><text x="10.02" y="1.67" class="e">1</text><text x="14.027999999999999" y="1.67" class="e">2</text><text x="18.035999999999998" y="1.67" class="e">3</text><text x="22.043999999999997" y="1.67" class="e">4</text><text x="26.052" y="1.67" class="e">5</text></symbol><symbol id="13"><text x="2.004" y="1.67" class="e">6</text><text x="6.012" y="1.67" class="e">7</text><text x="10.02" y="1.67" class="e">8</text><text x="14.027999999999999" y="1.67" class="e">9</text><text x="17.034" y="1.67" class="e">10</text><text x="21.041999999999998" y="1.67" class="e">11</text><text x="25.05" y="1.67" class="e">12</text></symbol><symbol id="14"><text x="1.002" y="1.67" class="e">27</text><text x="5.01" y="1.67" class="e">28</text><text x="9.017999999999999" y="1.67" class="e">29</text><text x="13.026" y="1.67" class="e">30</text><text x="17.034" y="1.67" class="e">31</text></symbol><symbol id="15"><text x="0" y="1.67" class="d">←/→</text><text x="4.008" y="1.67" class="d">day</text><text x="8.016" y="1.67" class="d">·</text><text x="10.02" y="1.67" class="d">↑/↓</text><text x="14.027999999999999" y="1.67" class="d">week</text><text x="19.037999999999997" y="1.67" class="d">·</text><text x="21.041999999999998" y="1.67" class="d">PgUp/PgDn</text><text x="31.061999999999998" y="1.67" class="d">month</text><text x="37.074" y="1.67" class="d">·</text><text x="39.077999999999996" y="1.67" class="d">↵</text><text x="41.082" y="1.67" class="d">accept</text><text x="48.096" y="1.67" class="d">·</text><text x="50.1" y="1.67" class="d">esc</text><text x="54.108" y="1.67" class="d">cancel</text></symbol><symbol id="16"><text x="0" y="1.67" class="e">Date:</text><text x="6.012" y="1.67" class="e">&quot;2026-07-22&quot;</text></symbol><symbol id="17"><text x="0" y="1.67" class="c">Textarea</text><text x="9.017999999999999" y="1.67" class="c">widget</text></symbol><symbol id="18"><text x="0" y="1.67" class="d">───────────────</text></symbol><symbol id="19"><text x="0" y="1.67" class="e">Redis</text><text x="6.012" y="1.67" class="e">for</text><text x="10.02" y="1.67" class="e">cache</text></symbol><symbol id="20"><text x="0" y="1.67" class="d">enter</text><text x="6.012" y="1.67" class="d">newline</text><text x="14.027999999999999" y="1.67" class="d">·</text><text x="16.032" y="1.67" class="d">tab</text><text x="20.04" y="1.67" class="d">accept</text></symbol><symbol id="21"><text x="0" y="1.67" class="e">Solr</text><text x="5.01" y="1.67" class="e">for</text><text x="9.017999999999999" y="1.67" class="e">search</text></symbol><symbol id="22"><text x="0" y="1.67" class="e">Textarea:</text><text x="10.02" y="1.67" class="e">&quot;Redis</text><text x="17.034" y="1.67" class="e">for</text><text x="21.041999999999998" y="1.67" class="e">cache\nSolr</text><text x="33.065999999999995" y="1.67" class="e">for</text><text x="37.074" y="1.67" class="e">search\nClamAV</text><text x="52.104" y="1.67" class="e">for</text><text x="56.111999999999995" y="1.67" class="e">mail</text></symbol><symbol id="23"><text x="0" y="1.67" class="e">&quot;</text></symbol><symbol id="24"><text x="0" y="1.67" class="c">Password</text><text x="9.017999999999999" y="1.67" class="c">widget</text></symbol><symbol id="25"><text x="0" y="1.67" class="e">Password:</text><text x="10.02" y="1.67" class="e">&quot;hunter2s3cret&quot;</text></symbol><symbol id="26"><text x="0" y="1.67" class="c">Select</text><text x="7.013999999999999" y="1.67" class="c">widget</text></symbol><symbol id="27"><text x="0" y="1.67" class="e">○</text><text x="2.004" y="1.67" class="e">Standard</text></symbol><symbol id="28"><text x="0" y="1.67" class="e">Select:</text><text x="8.016" y="1.67" class="e">&quot;demo_umami&quot;</text></symbol><symbol id="29"><text x="0" y="1.67" class="c">MultiSelect</text><text x="12.024" y="1.67" class="c">widget</text></symbol><symbol id="30"><text x="0" y="1.67" class="d">──────────────────</text></symbol><symbol id="31"><text x="0" y="1.67" class="c">❯</text><text x="2.004" y="1.67" class="f">◼</text><text x="4.008" y="1.67" class="c">Redis</text></symbol><symbol id="32"><text x="2.004" y="1.67" class="e">◻</text><text x="4.008" y="1.67" class="e">Solr</text></symbol><symbol id="33"><text x="2.004" y="1.67" class="e">◻</text><text x="4.008" y="1.67" class="e">ClamAV</text></symbol><symbol id="34"><text x="0" y="1.67" class="d">space</text><text x="6.012" y="1.67" class="d">select</text><text x="13.026" y="1.67" class="d">·</text><text x="15.029999999999998" y="1.67" class="d">↑/↓</text><text x="19.037999999999997" y="1.67" class="d">move</text><text x="24.048" y="1.67" class="d">·</text><text x="26.052" y="1.67" class="d">←/→</text><text x="30.059999999999995" y="1.67" class="d">none/all</text><text x="39.077999999999996" y="1.67" class="d">·</text><text x="41.082" y="1.67" class="d">↵</text><text x="43.086" y="1.67" class="d">accept</text><text x="50.1" y="1.67" class="d">·</text><text x="52.104" y="1.67" class="d">esc</text><text x="56.111999999999995" y="1.67" class="d">canc</text></symbol><symbol id="35"><text x="0" y="1.67" class="d">el</text></symbol><symbol id="36"><text x="2.004" y="1.67" class="f">◼</text><text x="4.008" y="1.67" class="e">Redis</text></symbol><symbol id="37"><text x="0" y="1.67" class="e">MultiSelect:</text><text x="13.026" y="1.67" class="e">[&quot;redis&quot;,&quot;solr&quot;]</text></symbol><symbol id="38"><text x="0" y="1.67" class="c">Suggest</text><text x="8.016" y="1.67" class="c">widget</text></symbol><symbol id="39"><text x="0" y="1.67" class="d">──────────────</text></symbol><symbol id="40"><text x="2.004" y="1.67" class="e">Europe/London</text></symbol><symbol id="41"><text x="2.004" y="1.67" class="e">Europe/Paris</text></symbol><symbol id="42"><text x="2.004" y="1.67" class="e">Australia/Sydney</text></symbol><symbol id="43"><text x="0" y="1.67" class="e">Eur</text><text x="3.006" y="1.67" class="c">█</text></symbol><symbol id="44"><text x="0" y="1.67" class="e">Suggest:</text><text x="9.017999999999999" y="1.67" class="e">&quot;Europe\/London&quot;</text></symbol><symbol id="45"><text x="0" y="1.67" class="c">Search</text><text x="7.013999999999999" y="1.67" class="c">widget</text></symbol><symbol id="46"><text x="0" y="1.67" class="c">●</text><text x="2.004" y="1.67" class="c">Europe/London</text></symbol><symbol id="47"><text x="0" y="1.67" class="e">○</text><text x="2.004" y="1.67" class="e">Europe/Paris</text></symbol><symbol id="48"><text x="0" y="1.67" class="c">●</text><text x="2.004" y="1.67" class="c">Europe/Paris</text></symbol><symbol id="49"><text x="0" y="1.67" class="e">Search:</text><text x="8.016" y="1.67" class="e">&quot;paris&quot;</text></symbol><symbol id="50"><text x="0" y="1.67" class="c">MultiSearch</text><text x="12.024" y="1.67" class="c">widget</text></symbol><symbol id="51"><text x="2.004" y="1.67" class="e">◻</text><text x="4.008" y="1.67" class="e">Memcached</text></symbol><symbol id="52"><text x="0" y="1.67" class="c">❯</text><text x="2.004" y="1.67" class="e">◻</text><text x="4.008" y="1.67" class="c">ClamAV</text></symbol><symbol id="53"><text x="0" y="1.67" class="e">cl</text><text x="2.004" y="1.67" class="c">█</text></symbol><symbol id="54"><text x="0" y="1.67" class="e">MultiSearch:</text><text x="13.026" y="1.67" class="e">[&quot;redis&quot;,&quot;clamav&quot;]</text></symbol><symbol id="55"><text x="0" y="1.67" class="c">Confirm</text><text x="8.016" y="1.67" class="c">widget</text></symbol><symbol id="56"><text x="0" y="1.67" class="e">Confirm:</text><text x="9.017999999999999" y="1.67" class="e">false</text></symbol><symbol id="57"><text x="0" y="1.67" class="c">Toggle</text><text x="7.013999999999999" y="1.67" class="c">widget</text></symbol><symbol id="58"><text x="0" y="1.67" class="e">Toggle:</text><text x="8.016" y="1.67" class="e">&quot;disabled&quot;</text></symbol><symbol id="59"><text x="0" y="1.67" class="e">Pause:</text><text x="7.013999999999999" y="1.67" class="e">true</text></symbol><symbol id="a"><rect height="14" width="60" x="0" y="0" class="g"></rect></symbol><symbol id="b"><rect height="1.837" width="1.1022" class="h"></rect></symbol></defs><rect height="25.718" width="60" class="a"></rect><g class="j"><svg x="0" y="0" width="5700"><svg x="0"><use xlink:href="#a"></use><use xlink:href="#b" x="-0.0040000000000000036" y="0"></use></svg><svg x="60"><use xlink:href="#a"></use><use xlink:href="#1" y="0"></use><use xlink:href="#2" y="1.837"></use><use xlink:href="#3" y="3.674"></use><text x="0" y="9.018" class="e">Acme</text><text x="5.01" y="9.018" class="e">Site</text><text x="9.017999999999999" y="9.018" class="c">█</text></svg><svg x="120"><use xlink:href="#a"></use><use xlink:href="#1" y="0"></use><use xlink:href="#2" y="1.837"></use><use xlink:href="#3" y="3.674"></use><text x="0" y="9.018" class="e">Acme</text><text x="5.01" y="9.018" class="e">Sit</text><text x="8.016" y="9.018" class="c">█</text></svg><svg x="180"><use xlink:href="#a"></use><use xlink:href="#1" y="0"></use><use xlink:href="#2" y="1.837"></use><use xlink:href="#3" y="3.674"></use><text x="0" y="9.018" class="e">Acme</text><text x="5.01" y="9.018" class="e">Si</text><text x="7.013999999999999" y="9.018" class="c">█</text></svg><svg x="240"><use xlink:href="#a"></use><use xlink:href="#1" y="0"></use><use xlink:href="#2" y="1.837"></use><use xlink:href="#3" y="3.674"></use><text x="0" y="9.018" class="e">Acme</text><text x="5.01" y="9.018" class="e">S</text><text x="6.012" y="9.018" class="c">█</text></svg><svg x="300"><use xlink:href="#a"></use><use xlink:href="#1" y="0"></use><use xlink:href="#2" y="1.837"></use><use xlink:href="#3" y="3.674"></use><text x="0" y="9.018" class="e">Acme</text><text x="5.01" y="9.018" class="c">█</text></svg><svg x="360"><use xlink:href="#a"></use><use xlink:href="#1" y="0"></use><use xlink:href="#2" y="1.837"></use><use xlink:href="#3" y="3.674"></use><text x="0" y="9.018" class="e">Acme</text><text x="5.01" y="9.018" class="e">C</text><text x="6.012" y="9.018" class="c">█</text></svg><svg x="420"><use xlink:href="#a"></use><use xlink:href="#1" y="0"></use><use xlink:href="#2" y="1.837"></use><use xlink:href="#3" y="3.674"></use><text x="0" y="9.018" class="e">Acme</text><text x="5.01" y="9.018" class="e">Co</text><text x="7.013999999999999" y="9.018" class="c">█</text></svg><svg x="480"><use xlink:href="#a"></use><use xlink:href="#1" y="0"></use><use xlink:href="#2" y="1.837"></use><use xlink:href="#3" y="3.674"></use><text x="0" y="9.018" class="e">Acme</text><text x="5.01" y="9.018" class="e">Cor</text><text x="8.016" y="9.018" class="c">█</text></svg><svg x="540"><use xlink:href="#a"></use><use xlink:href="#1" y="0"></use><use xlink:href="#2" y="1.837"></use><use xlink:href="#3" y="3.674"></use><text x="0" y="9.018" class="e">Acme</text><text x="5.01" y="9.018" class="e">Corp</text><text x="9.017999999999999" y="9.018" class="c">█</text></svg><svg x="600"><use xlink:href="#a"></use><use xlink:href="#b" x="-0.0040000000000000036" y="0"></use></svg><svg x="660"><use xlink:href="#a"></use><use xlink:href="#b" x="-0.0040000000000000036" y="1.662"></use><use xlink:href="#4" y="0"></use></svg><svg x="720"><use xlink:href="#a"></use><use xlink:href="#5" y="0"></use><use xlink:href="#6" y="1.837"></use><use xlink:href="#3" y="3.674"></use><text x="0" y="9.018" class="e">8080</text><text x="4.008" y="9.018" class="c">█</text></svg><svg x="780"><use xlink:href="#a"></use><use xlink:href="#5" y="0"></use><use xlink:href="#6" y="1.837"></use><use xlink:href="#3" y="3.674"></use><text x="0" y="9.018" class="e">808</text><text x="3.006" y="9.018" class="c">█</text></svg><svg x="840"><use xlink:href="#a"></use><use xlink:href="#5" y="0"></use><use xlink:href="#6" y="1.837"></use><use xlink:href="#3" y="3.674"></use><text x="0" y="9.018" class="e">80</text><text x="2.004" y="9.018" class="c">█</text></svg><svg x="900"><use xlink:href="#a"></use><use xlink:href="#5" y="0"></use><use xlink:href="#6" y="1.837"></use><use xlink:href="#3" y="3.674"></use><text x="0" y="9.018" class="e">8</text><text x="1.002" y="9.018" class="c">█</text></svg><svg x="960"><use xlink:href="#a"></use><use xlink:href="#5" y="0"></use><use xlink:href="#6" y="1.837"></use><use xlink:href="#3" y="3.674"></use><use xlink:href="#7" y="7.348"></use></svg><svg x="1020"><use xlink:href="#a"></use><use xlink:href="#5" y="0"></use><use xlink:href="#6" y="1.837"></use><use xlink:href="#3" y="3.674"></use><text x="0" y="9.018" class="e">3</text><text x="1.002" y="9.018" class="c">█</text></svg><svg x="1080"><use xlink:href="#a"></use><use xlink:href="#5" y="0"></use><use xlink:href="#6" y="1.837"></use><use xlink:href="#3" y="3.674"></use><text x="0" y="9.018" class="e">30</text><text x="2.004" y="9.018" class="c">█</text></svg><svg x="1140"><use xlink:href="#a"></use><use xlink:href="#5" y="0"></use><use xlink:href="#6" y="1.837"></use><use xlink:href="#3" y="3.674"></use><text x="0" y="9.018" class="e">300</text><text x="3.006" y="9.018" class="c">█</text></svg><svg x="1200"><use xlink:href="#a"></use><use xlink:href="#5" y="0"></use><use xlink:href="#6" y="1.837"></use><use xlink:href="#3" y="3.674"></use><text x="0" y="9.018" class="e">3000</text><text x="4.008" y="9.018" class="c">█</text></svg><svg x="1260"><use xlink:href="#a"></use><use xlink:href="#b" x="-0.0040000000000000036" y="1.662"></use><use xlink:href="#4" y="0"></use></svg><svg x="1320"><use xlink:href="#a"></use><use xlink:href="#b" x="-0.0040000000000000036" y="3.499"></use><use xlink:href="#4" y="0"></use><use xlink:href="#8" y="1.837"></use></svg><svg x="1380"><use xlink:href="#a"></use></svg><svg x="1440"><use xlink:href="#a"></use><use xlink:href="#9" y="0"></use><use xlink:href="#2" y="1.837"></use><use xlink:href="#10" y="5.511"></use><use xlink:href="#11" y="7.348"></use><use xlink:href="#12" y="9.185"></use><use xlink:href="#13" y="11.022"></use><text x="1.002" y="14.529" class="e">13</text><text x="5.01" y="14.529" class="e">14</text><text x="8.016" y="14.529" class="c">[15]</text><text x="13.026" y="14.529" class="e">16</text><text x="17.034" y="14.529" class="e">17</text><text x="21.041999999999998" y="14.529" class="e">18</text><text x="25.05" y="14.529" class="e">19</text><text x="1.002" y="16.366" class="e">20</text><text x="5.01" y="16.366" class="e">21</text><text x="9.017999999999999" y="16.366" class="e">22</text><text x="13.026" y="16.366" class="e">23</text><text x="17.034" y="16.366" class="e">24</text><text x="21.041999999999998" y="16.366" class="e">25</text><text x="25.05" y="16.366" class="e">26</text><use xlink:href="#14" y="16.533"></use><use xlink:href="#15" y="18.37"></use></svg><svg x="1500"><use xlink:href="#a"></use><use xlink:href="#9" y="0"></use><use xlink:href="#2" y="1.837"></use><use xlink:href="#10" y="5.511"></use><use xlink:href="#11" y="7.348"></use><use xlink:href="#12" y="9.185"></use><use xlink:href="#13" y="11.022"></use><text x="1.002" y="14.529" class="e">13</text><text x="5.01" y="14.529" class="e">14</text><text x="9.017999999999999" y="14.529" class="e">15</text><text x="13.026" y="14.529" class="e">16</text><text x="17.034" y="14.529" class="e">17</text><text x="21.041999999999998" y="14.529" class="e">18</text><text x="25.05" y="14.529" class="e">19</text><text x="1.002" y="16.366" class="e">20</text><text x="5.01" y="16.366" class="e">21</text><text x="8.016" y="16.366" class="c">[22]</text><text x="13.026" y="16.366" class="e">23</text><text x="17.034" y="16.366" class="e">24</text><text x="21.041999999999998" y="16.366" class="e">25</text><text x="25.05" y="16.366" class="e">26</text><use xlink:href="#14" y="16.533"></use><use xlink:href="#15" y="18.37"></use></svg><svg x="1560"><use xlink:href="#a"></use><use xlink:href="#b" x="-0.0040000000000000036" y="3.499"></use><use xlink:href="#4" y="0"></use><use xlink:href="#8" y="1.837"></use></svg><svg x="1620"><use xlink:href="#a"></use><use xlink:href="#b" x="-0.0040000000000000036" y="5.336"></use><use xlink:href="#4" y="0"></use><use xlink:href="#8" y="1.837"></use><use xlink:href="#16" y="3.674"></use></svg><svg x="1680"><use xlink:href="#a"></use><use xlink:href="#17" y="0"></use><use xlink:href="#18" y="1.837"></use><use xlink:href="#19" y="5.511"></use><text x="0" y="9.018" class="e">Solr</text><text x="5.01" y="9.018" class="e">for</text><text x="9.017999999999999" y="9.018" class="e">search</text><text x="15.029999999999998" y="9.018" class="c">█</text><use xlink:href="#20" y="9.185"></use></svg><svg x="1740"><use xlink:href="#a"></use><use xlink:href="#17" y="0"></use><use xlink:href="#18" y="1.837"></use><use xlink:href="#19" y="5.511"></use><use xlink:href="#21" y="7.348"></use><use xlink:href="#7" y="9.185"></use><use xlink:href="#20" y="11.022"></use></svg><svg x="1800"><use xlink:href="#a"></use><use xlink:href="#17" y="0"></use><use xlink:href="#18" y="1.837"></use><use xlink:href="#19" y="5.511"></use><use xlink:href="#21" y="7.348"></use><text x="0" y="10.855" class="e">C</text><text x="1.002" y="10.855" class="c">█</text><use xlink:href="#20" y="11.022"></use></svg><svg x="1860"><use xlink:href="#a"></use><use xlink:href="#17" y="0"></use><use xlink:href="#18" y="1.837"></use><use xlink:href="#19" y="5.511"></use><use xlink:href="#21" y="7.348"></use><text x="0" y="10.855" class="e">Cl</text><text x="2.004" y="10.855" class="c">█</text><use xlink:href="#20" y="11.022"></use></svg><svg x="1920"><use xlink:href="#a"></use><use xlink:href="#17" y="0"></use><use xlink:href="#18" y="1.837"></use><use xlink:href="#19" y="5.511"></use><use xlink:href="#21" y="7.348"></use><text x="0" y="10.855" class="e">Cla</text><text x="3.006" y="10.855" class="c">█</text><use xlink:href="#20" y="11.022"></use></svg><svg x="1980"><use xlink:href="#a"></use><use xlink:href="#17" y="0"></use><use xlink:href="#18" y="1.837"></use><use xlink:href="#19" y="5.511"></use><use xlink:href="#21" y="7.348"></use><text x="0" y="10.855" class="e">Clam</text><text x="4.008" y="10.855" class="c">█</text><use xlink:href="#20" y="11.022"></use></svg><svg x="2040"><use xlink:href="#a"></use><use xlink:href="#17" y="0"></use><use xlink:href="#18" y="1.837"></use><use xlink:href="#19" y="5.511"></use><use xlink:href="#21" y="7.348"></use><text x="0" y="10.855" class="e">ClamA</text><text x="5.01" y="10.855" class="c">█</text><use xlink:href="#20" y="11.022"></use></svg><svg x="2100"><use xlink:href="#a"></use><use xlink:href="#17" y="0"></use><use xlink:href="#18" y="1.837"></use><use xlink:href="#19" y="5.511"></use><use xlink:href="#21" y="7.348"></use><text x="0" y="10.855" class="e">ClamAV</text><text x="6.012" y="10.855" class="c">█</text><use xlink:href="#20" y="11.022"></use></svg><svg x="2160"><use xlink:href="#a"></use><use xlink:href="#17" y="0"></use><use xlink:href="#18" y="1.837"></use><use xlink:href="#19" y="5.511"></use><use xlink:href="#21" y="7.348"></use><text x="0" y="10.855" class="e">ClamAV</text><text x="7.013999999999999" y="10.855" class="c">█</text><use xlink:href="#20" y="11.022"></use></svg><svg x="2220"><use xlink:href="#a"></use><use xlink:href="#17" y="0"></use><use xlink:href="#18" y="1.837"></use><use xlink:href="#19" y="5.511"></use><use xlink:href="#21" y="7.348"></use><text x="0" y="10.855" class="e">ClamAV</text><text x="7.013999999999999" y="10.855" class="e">f</text><text x="8.016" y="10.855" class="c">█</text><use xlink:href="#20" y="11.022"></use></svg><svg x="2280"><use xlink:href="#a"></use><use xlink:href="#17" y="0"></use><use xlink:href="#18" y="1.837"></use><use xlink:href="#19" y="5.511"></use><use xlink:href="#21" y="7.348"></use><text x="0" y="10.855" class="e">ClamAV</text><text x="7.013999999999999" y="10.855" class="e">fo</text><text x="9.017999999999999" y="10.855" class="c">█</text><use xlink:href="#20" y="11.022"></use></svg><svg x="2340"><use xlink:href="#a"></use><use xlink:href="#17" y="0"></use><use xlink:href="#18" y="1.837"></use><use xlink:href="#19" y="5.511"></use><use xlink:href="#21" y="7.348"></use><text x="0" y="10.855" class="e">ClamAV</text><text x="7.013999999999999" y="10.855" class="e">for</text><text x="10.02" y="10.855" class="c">█</text><use xlink:href="#20" y="11.022"></use></svg><svg x="2400"><use xlink:href="#a"></use><use xlink:href="#17" y="0"></use><use xlink:href="#18" y="1.837"></use><use xlink:href="#19" y="5.511"></use><use xlink:href="#21" y="7.348"></use><text x="0" y="10.855" class="e">ClamAV</text><text x="7.013999999999999" y="10.855" class="e">for</text><text x="11.021999999999998" y="10.855" class="c">█</text><use xlink:href="#20" y="11.022"></use></svg><svg x="2460"><use xlink:href="#a"></use><use xlink:href="#17" y="0"></use><use xlink:href="#18" y="1.837"></use><use xlink:href="#19" y="5.511"></use><use xlink:href="#21" y="7.348"></use><text x="0" y="10.855" class="e">ClamAV</text><text x="7.013999999999999" y="10.855" class="e">for</text><text x="11.021999999999998" y="10.855" class="e">m</text><text x="12.024" y="10.855" class="c">█</text><use xlink:href="#20" y="11.022"></use></svg><svg x="2520"><use xlink:href="#a"></use><use xlink:href="#17" y="0"></use><use xlink:href="#18" y="1.837"></use><use xlink:href="#19" y="5.511"></use><use xlink:href="#21" y="7.348"></use><text x="0" y="10.855" class="e">ClamAV</text><text x="7.013999999999999" y="10.855" class="e">for</text><text x="11.021999999999998" y="10.855" class="e">ma</text><text x="13.026" y="10.855" class="c">█</text><use xlink:href="#20" y="11.022"></use></svg><svg x="2580"><use xlink:href="#a"></use><use xlink:href="#17" y="0"></use><use xlink:href="#18" y="1.837"></use><use xlink:href="#19" y="5.511"></use><use xlink:href="#21" y="7.348"></use><text x="0" y="10.855" class="e">ClamAV</text><text x="7.013999999999999" y="10.855" class="e">for</text><text x="11.021999999999998" y="10.855" class="e">mai</text><text x="14.027999999999999" y="10.855" class="c">█</text><use xlink:href="#20" y="11.022"></use></svg><svg x="2640"><use xlink:href="#a"></use><use xlink:href="#17" y="0"></use><use xlink:href="#18" y="1.837"></use><use xlink:href="#19" y="5.511"></use><use xlink:href="#21" y="7.348"></use><text x="0" y="10.855" class="e">ClamAV</text><text x="7.013999999999999" y="10.855" class="e">for</text><text x="11.021999999999998" y="10.855" class="e">mail</text><text x="15.029999999999998" y="10.855" class="c">█</text><use xlink:href="#20" y="11.022"></use></svg><svg x="2700"><use xlink:href="#a"></use><use xlink:href="#b" x="-0.0040000000000000036" y="5.336"></use><use xlink:href="#4" y="0"></use><use xlink:href="#8" y="1.837"></use><use xlink:href="#16" y="3.674"></use></svg><svg x="2760"><use xlink:href="#a"></use><use xlink:href="#b" x="-0.0040000000000000036" y="9.01"></use><use xlink:href="#4" y="0"></use><use xlink:href="#8" y="1.837"></use><use xlink:href="#16" y="3.674"></use><use xlink:href="#22" y="5.511"></use><use xlink:href="#23" y="7.348"></use></svg><svg x="2820"><use xlink:href="#a"></use><use xlink:href="#24" y="0"></use><use xlink:href="#18" y="1.837"></use><use xlink:href="#3" y="3.674"></use><text x="0" y="9.018" class="e">•••••••</text><text x="7.013999999999999" y="9.018" class="c">█</text></svg><svg x="2880"><use xlink:href="#a"></use><use xlink:href="#24" y="0"></use><use xlink:href="#18" y="1.837"></use><use xlink:href="#3" y="3.674"></use><text x="0" y="9.018" class="e">••••••••</text><text x="8.016" y="9.018" class="c">█</text></svg><svg x="2940"><use xlink:href="#a"></use><use xlink:href="#24" y="0"></use><use xlink:href="#18" y="1.837"></use><use xlink:href="#3" y="3.674"></use><text x="0" y="9.018" class="e">•••••••••</text><text x="9.017999999999999" y="9.018" class="c">█</text></svg><svg x="3000"><use xlink:href="#a"></use><use xlink:href="#24" y="0"></use><use xlink:href="#18" y="1.837"></use><use xlink:href="#3" y="3.674"></use><text x="0" y="9.018" class="e">••••••••••</text><text x="10.02" y="9.018" class="c">█</text></svg><svg x="3060"><use xlink:href="#a"></use><use xlink:href="#24" y="0"></use><use xlink:href="#18" y="1.837"></use><use xlink:href="#3" y="3.674"></use><text x="0" y="9.018" class="e">•••••••••••</text><text x="11.021999999999998" y="9.018" class="c">█</text></svg><svg x="3120"><use xlink:href="#a"></use><use xlink:href="#24" y="0"></use><use xlink:href="#18" y="1.837"></use><use xlink:href="#3" y="3.674"></use><text x="0" y="9.018" class="e">••••••••••••</text><text x="12.024" y="9.018" class="c">█</text></svg><svg x="3180"><use xlink:href="#a"></use><use xlink:href="#24" y="0"></use><use xlink:href="#18" y="1.837"></use><use xlink:href="#3" y="3.674"></use><text x="0" y="9.018" class="e">•••••••••••••</text><text x="13.026" y="9.018" class="c">█</text></svg><svg x="3240"><use xlink:href="#a"></use><use xlink:href="#b" x="-0.0040000000000000036" y="9.01"></use><use xlink:href="#4" y="0"></use><use xlink:href="#8" y="1.837"></use><use xlink:href="#16" y="3.674"></use><use xlink:href="#22" y="5.511"></use><use xlink:href="#23" y="7.348"></use></svg><svg x="3300"><use xlink:href="#a"></use><use xlink:href="#b" x="-0.0040000000000000036" y="10.847"></use><use xlink:href="#4" y="0"></use><use xlink:href="#8" y="1.837"></use><use xlink:href="#16" y="3.674"></use><use xlink:href="#22" y="5.511"></use><use xlink:href="#23" y="7.348"></use><use xlink:href="#25" y="9.185"></use></svg><svg x="3360"><use xlink:href="#a"></use><use xlink:href="#26" y="0"></use><use xlink:href="#6" y="1.837"></use><use xlink:href="#3" y="3.674"></use><use xlink:href="#27" y="7.348"></use><text x="0" y="10.855" class="c">●</text><text x="2.004" y="10.855" class="c">Minimal</text><text x="0" y="12.692" class="e">○</text><text x="2.004" y="12.692" class="e">Demo</text><text x="7.013999999999999" y="12.692" class="e">Umami</text></svg><svg x="3420"><use xlink:href="#a"></use><use xlink:href="#26" y="0"></use><use xlink:href="#6" y="1.837"></use><use xlink:href="#3" y="3.674"></use><use xlink:href="#27" y="7.348"></use><text x="0" y="10.855" class="e">○</text><text x="2.004" y="10.855" class="e">Minimal</text><text x="0" y="12.692" class="c">●</text><text x="2.004" y="12.692" class="c">Demo</text><text x="7.013999999999999" y="12.692" class="c">Umami</text></svg><svg x="3480"><use xlink:href="#a"></use><use xlink:href="#b" x="-0.0040000000000000036" y="10.847"></use><use xlink:href="#4" y="0"></use><use xlink:href="#8" y="1.837"></use><use xlink:href="#16" y="3.674"></use><use xlink:href="#22" y="5.511"></use><use xlink:href="#23" y="7.348"></use><use xlink:href="#25" y="9.185"></use></svg><svg x="3540"><use xlink:href="#a"></use><use xlink:href="#b" x="-0.0040000000000000036" y="12.684"></use><use xlink:href="#4" y="0"></use><use xlink:href="#8" y="1.837"></use><use xlink:href="#16" y="3.674"></use><use xlink:href="#22" y="5.511"></use><use xlink:href="#23" y="7.348"></use><use xlink:href="#25" y="9.185"></use><use xlink:href="#28" y="11.022"></use></svg><svg x="3600"><use xlink:href="#a"></use><use xlink:href="#29" y="0"></use><use xlink:href="#30" y="1.837"></use><use xlink:href="#31" y="5.511"></use><use xlink:href="#32" y="7.348"></use><use xlink:href="#33" y="9.185"></use><use xlink:href="#34" y="11.022"></use><use xlink:href="#35" y="12.859"></use></svg><svg x="3660"><use xlink:href="#a"></use><use xlink:href="#29" y="0"></use><use xlink:href="#30" y="1.837"></use><use xlink:href="#36" y="5.511"></use><text x="0" y="9.018" class="c">❯</text><text x="2.004" y="9.018" class="e">◻</text><text x="4.008" y="9.018" class="c">Solr</text><use xlink:href="#33" y="9.185"></use><use xlink:href="#34" y="11.022"></use><use xlink:href="#35" y="12.859"></use></svg><svg x="3720"><use xlink:href="#a"></use><use xlink:href="#29" y="0"></use><use xlink:href="#30" y="1.837"></use><use xlink:href="#36" y="5.511"></use><text x="0" y="9.018" class="c">❯</text><text x="2.004" y="9.018" class="f">◼</text><text x="4.008" y="9.018" class="c">Solr</text><use xlink:href="#33" y="9.185"></use><use xlink:href="#34" y="11.022"></use><use xlink:href="#35" y="12.859"></use></svg><svg x="3780"><use xlink:href="#a"></use><use xlink:href="#b" x="-0.0040000000000000036" y="12.684"></use><use xlink:href="#4" y="0"></use><use xlink:href="#8" y="1.837"></use><use xlink:href="#16" y="3.674"></use><use xlink:href="#22" y="5.511"></use><use xlink:href="#23" y="7.348"></use><use xlink:href="#25" y="9.185"></use><use xlink:href="#28" y="11.022"></use></svg><svg x="3840"><use xlink:href="#a"></use><use xlink:href="#b" x="-0.0040000000000000036" y="14.520999999999999"></use><use xlink:href="#4" y="0"></use><use xlink:href="#8" y="1.837"></use><use xlink:href="#16" y="3.674"></use><use xlink:href="#22" y="5.511"></use><use xlink:href="#23" y="7.348"></use><use xlink:href="#25" y="9.185"></use><use xlink:href="#28" y="11.022"></use><use xlink:href="#37" y="12.859"></use></svg><svg x="3900"><use xlink:href="#a"></use><use xlink:href="#38" y="0"></use><use xlink:href="#39" y="1.837"></use><use xlink:href="#3" y="3.674"></use><use xlink:href="#7" y="7.348"></use><text x="2.004" y="10.855" class="e">UTC</text><use xlink:href="#40" y="11.022"></use><use xlink:href="#41" y="12.859"></use><use xlink:href="#42" y="14.696"></use></svg><svg x="3960"><use xlink:href="#a"></use><use xlink:href="#38" y="0"></use><use xlink:href="#39" y="1.837"></use><use xlink:href="#3" y="3.674"></use><text x="0" y="9.018" class="e">E</text><text x="1.002" y="9.018" class="c">█</text><use xlink:href="#40" y="9.185"></use><use xlink:href="#41" y="11.022"></use><use xlink:href="#42" y="12.859"></use></svg><svg x="4020"><use xlink:href="#a"></use><use xlink:href="#38" y="0"></use><use xlink:href="#39" y="1.837"></use><use xlink:href="#3" y="3.674"></use><text x="0" y="9.018" class="e">Eu</text><text x="2.004" y="9.018" class="c">█</text><use xlink:href="#40" y="9.185"></use><use xlink:href="#41" y="11.022"></use></svg><svg x="4080"><use xlink:href="#a"></use><use xlink:href="#38" y="0"></use><use xlink:href="#39" y="1.837"></use><use xlink:href="#3" y="3.674"></use><use xlink:href="#43" y="7.348"></use><use xlink:href="#40" y="9.185"></use><use xlink:href="#41" y="11.022"></use></svg><svg x="4140"><use xlink:href="#a"></use><use xlink:href="#38" y="0"></use><use xlink:href="#39" y="1.837"></use><use xlink:href="#3" y="3.674"></use><use xlink:href="#43" y="7.348"></use><text x="0" y="10.855" class="c">❯</text><text x="2.004" y="10.855" class="c">Europe/London</text><use xlink:href="#41" y="11.022"></use></svg><svg x="4200"><use xlink:href="#a"></use><use xlink:href="#b" x="-0.0040000000000000036" y="14.520999999999999"></use><use xlink:href="#4" y="0"></use><use xlink:href="#8" y="1.837"></use><use xlink:href="#16" y="3.674"></use><use xlink:href="#22" y="5.511"></use><use xlink:href="#23" y="7.348"></use><use xlink:href="#25" y="9.185"></use><use xlink:href="#28" y="11.022"></use><use xlink:href="#37" y="12.859"></use></svg><svg x="4260"><use xlink:href="#a"></use><use xlink:href="#b" x="-0.0040000000000000036" y="16.358"></use><use xlink:href="#4" y="0"></use><use xlink:href="#8" y="1.837"></use><use xlink:href="#16" y="3.674"></use><use xlink:href="#22" y="5.511"></use><use xlink:href="#23" y="7.348"></use><use xlink:href="#25" y="9.185"></use><use xlink:href="#28" y="11.022"></use><use xlink:href="#37" y="12.859"></use><use xlink:href="#44" y="14.696"></use></svg><svg x="4320"><use xlink:href="#a"></use><use xlink:href="#45" y="0"></use><use xlink:href="#6" y="1.837"></use><use xlink:href="#3" y="3.674"></use><use xlink:href="#7" y="7.348"></use><text x="0" y="10.855" class="e">○</text><text x="2.004" y="10.855" class="e">UTC</text><use xlink:href="#46" y="11.022"></use><use xlink:href="#47" y="12.859"></use><text x="0" y="16.366" class="e">○</text><text x="2.004" y="16.366" class="e">Australia/Sydney</text></svg><svg x="4380"><use xlink:href="#a"></use><use xlink:href="#45" y="0"></use><use xlink:href="#6" y="1.837"></use><use xlink:href="#3" y="3.674"></use><text x="0" y="9.018" class="e">p</text><text x="1.002" y="9.018" class="c">█</text><use xlink:href="#46" y="9.185"></use><use xlink:href="#47" y="11.022"></use></svg><svg x="4440"><use xlink:href="#a"></use><use xlink:href="#45" y="0"></use><use xlink:href="#6" y="1.837"></use><use xlink:href="#3" y="3.674"></use><text x="0" y="9.018" class="e">pa</text><text x="2.004" y="9.018" class="c">█</text><use xlink:href="#48" y="9.185"></use></svg><svg x="4500"><use xlink:href="#a"></use><use xlink:href="#45" y="0"></use><use xlink:href="#6" y="1.837"></use><use xlink:href="#3" y="3.674"></use><text x="0" y="9.018" class="e">par</text><text x="3.006" y="9.018" class="c">█</text><use xlink:href="#48" y="9.185"></use></svg><svg x="4560"><use xlink:href="#a"></use><use xlink:href="#b" x="-0.0040000000000000036" y="16.358"></use><use xlink:href="#4" y="0"></use><use xlink:href="#8" y="1.837"></use><use xlink:href="#16" y="3.674"></use><use xlink:href="#22" y="5.511"></use><use xlink:href="#23" y="7.348"></use><use xlink:href="#25" y="9.185"></use><use xlink:href="#28" y="11.022"></use><use xlink:href="#37" y="12.859"></use><use xlink:href="#44" y="14.696"></use></svg><svg x="4620"><use xlink:href="#a"></use><use xlink:href="#b" x="-0.0040000000000000036" y="18.195"></use><use xlink:href="#4" y="0"></use><use xlink:href="#8" y="1.837"></use><use xlink:href="#16" y="3.674"></use><use xlink:href="#22" y="5.511"></use><use xlink:href="#23" y="7.348"></use><use xlink:href="#25" y="9.185"></use><use xlink:href="#28" y="11.022"></use><use xlink:href="#37" y="12.859"></use><use xlink:href="#44" y="14.696"></use><use xlink:href="#49" y="16.533"></use></svg><svg x="4680"><use xlink:href="#a"></use><use xlink:href="#50" y="0"></use><use xlink:href="#30" y="1.837"></use><use xlink:href="#7" y="5.511"></use><use xlink:href="#31" y="7.348"></use><use xlink:href="#32" y="9.185"></use><use xlink:href="#33" y="11.022"></use><use xlink:href="#51" y="12.859"></use><use xlink:href="#34" y="14.696"></use><use xlink:href="#35" y="16.533"></use></svg><svg x="4740"><use xlink:href="#a"></use><use xlink:href="#50" y="0"></use><use xlink:href="#30" y="1.837"></use><text x="0" y="7.181" class="e">c</text><text x="1.002" y="7.181" class="c">█</text><use xlink:href="#52" y="7.348"></use><use xlink:href="#51" y="9.185"></use><use xlink:href="#34" y="11.022"></use><use xlink:href="#35" y="12.859"></use></svg><svg x="4800"><use xlink:href="#a"></use><use xlink:href="#50" y="0"></use><use xlink:href="#30" y="1.837"></use><use xlink:href="#53" y="5.511"></use><use xlink:href="#52" y="7.348"></use><use xlink:href="#34" y="9.185"></use><use xlink:href="#35" y="11.022"></use></svg><svg x="4860"><use xlink:href="#a"></use><use xlink:href="#50" y="0"></use><use xlink:href="#30" y="1.837"></use><use xlink:href="#53" y="5.511"></use><text x="0" y="9.018" class="c">❯</text><text x="2.004" y="9.018" class="f">◼</text><text x="4.008" y="9.018" class="c">ClamAV</text><use xlink:href="#34" y="9.185"></use><use xlink:href="#35" y="11.022"></use></svg><svg x="4920"><use xlink:href="#a"></use><use xlink:href="#b" x="-0.0040000000000000036" y="18.195"></use><use xlink:href="#4" y="0"></use><use xlink:href="#8" y="1.837"></use><use xlink:href="#16" y="3.674"></use><use xlink:href="#22" y="5.511"></use><use xlink:href="#23" y="7.348"></use><use xlink:href="#25" y="9.185"></use><use xlink:href="#28" y="11.022"></use><use xlink:href="#37" y="12.859"></use><use xlink:href="#44" y="14.696"></use><use xlink:href="#49" y="16.533"></use></svg><svg x="4980"><use xlink:href="#a"></use><use xlink:href="#b" x="-0.0040000000000000036" y="20.031999999999996"></use><use xlink:href="#4" y="0"></use><use xlink:href="#8" y="1.837"></use><use xlink:href="#16" y="3.674"></use><use xlink:href="#22" y="5.511"></use><use xlink:href="#23" y="7.348"></use><use xlink:href="#25" y="9.185"></use><use xlink:href="#28" y="11.022"></use><use xlink:href="#37" y="12.859"></use><use xlink:href="#44" y="14.696"></use><use xlink:href="#49" y="16.533"></use><use xlink:href="#54" y="18.37"></use></svg><svg x="5040"><use xlink:href="#a"></use><use xlink:href="#55" y="0"></use><use xlink:href="#39" y="1.837"></use><use xlink:href="#3" y="3.674"></use><text x="0" y="9.018" class="c">●</text><text x="2.004" y="9.018" class="c">Yes</text><text x="7.013999999999999" y="9.018" class="e">○</text><text x="9.017999999999999" y="9.018" class="e">No</text></svg><svg x="5100"><use xlink:href="#a"></use><use xlink:href="#55" y="0"></use><use xlink:href="#39" y="1.837"></use><use xlink:href="#3" y="3.674"></use><text x="0" y="9.018" class="e">○</text><text x="2.004" y="9.018" class="e">Yes</text><text x="7.013999999999999" y="9.018" class="c">●</text><text x="9.017999999999999" y="9.018" class="c">No</text></svg><svg x="5160"><use xlink:href="#a"></use><use xlink:href="#b" x="-0.0040000000000000036" y="20.031999999999996"></use><use xlink:href="#4" y="0"></use><use xlink:href="#8" y="1.837"></use><use xlink:href="#16" y="3.674"></use><use xlink:href="#22" y="5.511"></use><use xlink:href="#23" y="7.348"></use><use xlink:href="#25" y="9.185"></use><use xlink:href="#28" y="11.022"></use><use xlink:href="#37" y="12.859"></use><use xlink:href="#44" y="14.696"></use><use xlink:href="#49" y="16.533"></use><use xlink:href="#54" y="18.37"></use></svg><svg x="5220"><use xlink:href="#a"></use><use xlink:href="#b" x="-0.0040000000000000036" y="21.869"></use><use xlink:href="#4" y="0"></use><use xlink:href="#8" y="1.837"></use><use xlink:href="#16" y="3.674"></use><use xlink:href="#22" y="5.511"></use><use xlink:href="#23" y="7.348"></use><use xlink:href="#25" y="9.185"></use><use xlink:href="#28" y="11.022"></use><use xlink:href="#37" y="12.859"></use><use xlink:href="#44" y="14.696"></use><use xlink:href="#49" y="16.533"></use><use xlink:href="#54" y="18.37"></use><use xlink:href="#56" y="20.206999999999997"></use></svg><svg x="5280"><use xlink:href="#a"></use><use xlink:href="#57" y="0"></use><use xlink:href="#6" y="1.837"></use><use xlink:href="#3" y="3.674"></use><text x="0" y="9.018" class="c">●</text><text x="2.004" y="9.018" class="c">Enabled</text><text x="11.021999999999998" y="9.018" class="e">○</text><text x="13.026" y="9.018" class="e">Disabled</text></svg><svg x="5340"><use xlink:href="#a"></use><use xlink:href="#57" y="0"></use><use xlink:href="#6" y="1.837"></use><use xlink:href="#3" y="3.674"></use><text x="0" y="9.018" class="e">○</text><text x="2.004" y="9.018" class="e">Enabled</text><text x="11.021999999999998" y="9.018" class="c">●</text><text x="13.026" y="9.018" class="c">Disabled</text></svg><svg x="5400"><use xlink:href="#a"></use><use xlink:href="#b" x="-0.0040000000000000036" y="21.869"></use><use xlink:href="#4" y="0"></use><use xlink:href="#8" y="1.837"></use><use xlink:href="#16" y="3.674"></use><use xlink:href="#22" y="5.511"></use><use xlink:href="#23" y="7.348"></use><use xlink:href="#25" y="9.185"></use><use xlink:href="#28" y="11.022"></use><use xlink:href="#37" y="12.859"></use><use xlink:href="#44" y="14.696"></use><use xlink:href="#49" y="16.533"></use><use xlink:href="#54" y="18.37"></use><use xlink:href="#56" y="20.206999999999997"></use></svg><svg x="5460"><use xlink:href="#a"></use><use xlink:href="#b" x="-0.0040000000000000036" y="23.706000000000003"></use><use xlink:href="#4" y="0"></use><use xlink:href="#8" y="1.837"></use><use xlink:href="#16" y="3.674"></use><use xlink:href="#22" y="5.511"></use><use xlink:href="#23" y="7.348"></use><use xlink:href="#25" y="9.185"></use><use xlink:href="#28" y="11.022"></use><use xlink:href="#37" y="12.859"></use><use xlink:href="#44" y="14.696"></use><use xlink:href="#49" y="16.533"></use><use xlink:href="#54" y="18.37"></use><use xlink:href="#56" y="20.206999999999997"></use><use xlink:href="#58" y="22.044"></use></svg><svg x="5520"><use xlink:href="#a"></use><text x="0" y="1.67" class="c">Pause</text><text x="6.012" y="1.67" class="c">widget</text><text x="0" y="3.5069999999999997" class="d">────────────</text><text x="0" y="5.343999999999999" class="d">Enter</text><text x="6.012" y="5.343999999999999" class="d">continue</text><text x="15.029999999999998" y="5.343999999999999" class="d">·</text><text x="17.034" y="5.343999999999999" class="d">Esc</text><text x="21.041999999999998" y="5.343999999999999" class="d">cancel</text><text x="0" y="9.018" class="c">↵</text><text x="2.004" y="9.018" class="e">Press</text><text x="8.016" y="9.018" class="e">Enter</text><text x="14.027999999999999" y="9.018" class="e">to</text><text x="17.034" y="9.018" class="e">continue</text></svg><svg x="5580"><use xlink:href="#a"></use><use xlink:href="#b" x="-0.0040000000000000036" y="23.706000000000003"></use><use xlink:href="#8" y="0"></use><use xlink:href="#16" y="1.837"></use><use xlink:href="#22" y="3.674"></use><use xlink:href="#23" y="5.511"></use><use xlink:href="#25" y="7.348"></use><use xlink:href="#28" y="9.185"></use><use xlink:href="#37" y="11.022"></use><use xlink:href="#44" y="12.859"></use><use xlink:href="#49" y="14.696"></use><use xlink:href="#54" y="16.533"></use><use xlink:href="#56" y="18.37"></use><use xlink:href="#58" y="20.206999999999997"></use><use xlink:href="#59" y="22.044"></use></svg><svg x="5640"><use xlink:href="#a"></use><use xlink:href="#b" x="0.996" y="23.706000000000003"></use><use xlink:href="#8" y="0"></use><use xlink:href="#16" y="1.837"></use><use xlink:href="#22" y="3.674"></use><use xlink:href="#23" y="5.511"></use><use xlink:href="#25" y="7.348"></use><use xlink:href="#28" y="9.185"></use><use xlink:href="#37" y="11.022"></use><use xlink:href="#44" y="12.859"></use><use xlink:href="#49" y="14.696"></use><use xlink:href="#54" y="16.533"></use><use xlink:href="#56" y="18.37"></use><use xlink:href="#58" y="20.206999999999997"></use><use xlink:href="#59" y="22.044"></use></svg></svg></g></g></svg></svg>