<svg xmlns="http://www.w3.org/2000/svg" xmlns:xlink="http://www.w3.org/1999/xlink" width="350" height="146.96"><rect width="350" height="146.96" rx="0" ry="0" class="a"></rect><svg height="146.96" viewBox="0 0 35 14.696" width="350" xmlns="http://www.w3.org/2000/svg" xmlns:xlink="http://www.w3.org/1999/xlink"><style>.a{fill:rgb(250,250,250)}.b{font-family:Consolas,"Courier New",Courier,"Liberation Mono",monospace}.c{fill:transparent}.d{fill:rgb(82,139,255)}.e{fill:rgb(90,96,105);white-space:pre}.f{fill:rgb(0,128,128);font-weight:bold;white-space:pre}.g{fill:rgb(56,58,66);font-weight:bold;white-space:pre}.h{fill:rgb(56,58,66);white-space:pre}</style><g font-family="Consolas, &quot;Courier New&quot;, Courier, &quot;Liberation Mono&quot;, monospace" font-size="1.67" class="b"><defs><symbol id="a"><rect height="8" width="35" x="0" y="0" class="c"></rect></symbol><symbol id="b"><rect height="1.837" width="1.1022" class="d"></rect></symbol></defs><rect height="14.696" width="35" class="a"></rect><svg x="0" y="0" width="35"><svg x="0"><use xlink:href="#a"></use><use xlink:href="#b" x="34.996" y="7.173"></use><text x="0" y="1.67" class="e">Textarea</text><text x="9.017999999999999" y="1.67" class="e">widget</text><text x="16.032" y="1.67" class="e">&gt;</text><text x="18.035999999999998" y="1.67" class="e">Textarea</text><text x="0" y="3.5069999999999997" class="f">&gt;</text><text x="2.004" y="3.5069999999999997" class="g">Tasting</text><text x="10.02" y="3.5069999999999997" class="g">notes</text><text x="17.034" y="3.5069999999999997" class="h">Crisp</text><text x="23.045999999999996" y="3.5069999999999997" class="h">and</text><text x="27.054" y="3.5069999999999997" class="h">sweet</text><text x="17.034" y="5.343999999999999" class="h">Hint</text><text x="22.043999999999997" y="5.343999999999999" class="h">of</text><text x="25.05" y="5.343999999999999" class="h">citrus</text><text x="31.061999999999998" y="5.343999999999999" class="f">|</text><text x="0" y="9.018" class="e">&lt;</text><text x="2.004" y="9.018" class="e">newline</text><text x="10.02" y="9.018" class="e">*</text><text x="12.024" y="9.018" class="e">tab</text><text x="16.032" y="9.018" class="e">accept</text><text x="23.045999999999996" y="9.018" class="e">*</text><text x="25.05" y="9.018" class="e">esc</text><text x="29.058" y="9.018" class="e">cancel</text></svg></svg></g></svg></svg>